<svg xmlns="http://www.w3.org/2000/svg" width="13.115" height="26.965" viewBox="0 0 13.115 26.965"><defs><style>.a{fill:#FFFFFF;}</style></defs><g transform="translate(0 0)"><path class="a" d="M181.941,43.128c-.088-.054-.036-.022,0,0a3.718,3.718,0,0,1-.677-.729.756.756,0,0,0-.376-.258c-.049-.011-.165,0-.194-.023a.394.394,0,0,1-.049-.107c-.02-.045-.038-.091-.056-.137a4.276,4.276,0,0,1-.239-1.03c-.024-.212-.035-.424-.075-.634a5.626,5.626,0,0,0-.314-1.058,2.146,2.146,0,0,0-.187-.416.877.877,0,0,1-.152-.28,2.871,2.871,0,0,1-.037-.532q-.019-.272-.055-.542c-.045-.348-.1-.7-.184-1.037a.783.783,0,0,1,.005-.247q.011-.14.014-.28a3.678,3.678,0,0,0-.027-.54,2.311,2.311,0,0,0-.411-.894,1.163,1.163,0,0,0-.829-.482,3.58,3.58,0,0,0-.535-.057q-.13,0-.261,0a.132.132,0,0,1-.109-.035c-.035-.026-.071-.052-.107-.077-.147-.1-.3-.194-.451-.286l-.123-.074c-.021-.012-.072-.029-.083-.049a.143.143,0,0,1,0-.041l-.052-.475-.023-.206a.122.122,0,0,1,0-.039c0-.009.029-.02.039-.027a.5.5,0,0,0,.1-.087.875.875,0,0,0,.132-.291q.073-.212.131-.428a2.541,2.541,0,0,0-.111-1.962,1.159,1.159,0,0,0-.709-.509,2.093,2.093,0,0,0-.626-.035,1.34,1.34,0,0,0-.8.356,1.512,1.512,0,0,0-.371.861,3.891,3.891,0,0,0,.281,1.829.557.557,0,0,0,.093.179.473.473,0,0,0,.076.072c.01.008.056.031.06.042a.414.414,0,0,1-.015.133l-.055.505a.416.416,0,0,1-.013.122c-.011.02-.062.037-.083.049l-.123.074q-.116.07-.231.142c-.074.047-.148.094-.22.144-.032.022-.064.045-.1.068a.149.149,0,0,1-.121.043,4.116,4.116,0,0,0-.542.022,1.615,1.615,0,0,0-.938.332,1.768,1.768,0,0,0-.272.395,2.771,2.771,0,0,0-.23.459,1.721,1.721,0,0,0-.078.512,4.246,4.246,0,0,0,.011.536.781.781,0,0,1,.005.247q-.031.134-.058.269-.052.258-.091.519a9.339,9.339,0,0,0-.105,1.079.788.788,0,0,1-.121.46,1.487,1.487,0,0,0-.146.26,5.463,5.463,0,0,0-.466,1.727,4.984,4.984,0,0,1-.178.985q-.035.117-.078.231c-.016.042-.032.083-.05.124a.42.42,0,0,1-.055.12c-.029.027-.145.012-.194.023a.54.54,0,0,0-.215.1,8.575,8.575,0,0,0-.67.744,1.227,1.227,0,0,1-.167.137c-.05.034-.105.077-.107.143,0,.114.118.143.207.136a.736.736,0,0,0,.309-.093.8.8,0,0,0,.152-.127c.038-.037.088-.1.143-.117a1.506,1.506,0,0,1-.154.338q-.107.2-.223.4c-.061.1-.193.256-.138.382.1.23.321-.059.391-.153s.111-.165.168-.247a.871.871,0,0,1,.17-.21.764.764,0,0,1-.055.225c-.028.087-.06.173-.092.259a.9.9,0,0,0-.116.472.134.134,0,0,0,.192.1.509.509,0,0,0,.166-.253c.088-.2.151-.416.238-.62.009.18-.027.36-.033.54a.407.407,0,0,0,.057.29.127.127,0,0,0,.2-.042,1.008,1.008,0,0,0,.061-.388c.009-.094.017-.189.03-.283.006-.04.008-.163.05-.185.047.044.01.207,0,.263a1.336,1.336,0,0,0-.007.316c.013.1.095.217.2.131a.384.384,0,0,0,.094-.246c.011-.092.009-.186.018-.278.012-.129.028-.258.04-.388a.628.628,0,0,1,.051-.17c.039-.1.074-.205.1-.31a1.2,1.2,0,0,0,.058-.325.439.439,0,0,0-.011-.1c-.005-.021-.029-.055-.028-.074a.549.549,0,0,1,.062-.153c.107-.256.227-.507.351-.755a12.649,12.649,0,0,0,.823-1.79c.107-.335.152-.68.241-1.019a8.832,8.832,0,0,1,.3-.9l.127.491a2.621,2.621,0,0,1,.1.389c.014.146,0,.3,0,.448q0,.349,0,.7a3.213,3.213,0,0,0,0,.4.854.854,0,0,0,.055.156.844.844,0,0,1-.046.358c-.042.231-.081.462-.115.694a13.691,13.691,0,0,0-.015,2.838,14.184,14.184,0,0,0,.455,2.77,5.017,5.017,0,0,1,.233,1.19,3.953,3.953,0,0,1-.152,1.022,3.846,3.846,0,0,0-.112,1.388,7.848,7.848,0,0,0,.32,1.333q.189.624.381,1.247c.1.324.2.647.286.975a.908.908,0,0,1,.054.353,1.776,1.776,0,0,1-.255.541,1.3,1.3,0,0,1-.36.425.317.317,0,0,0-.131.123c-.041.094.034.171.115.208a1.262,1.262,0,0,0,.243.059,2.328,2.328,0,0,0,.365.061,1.085,1.085,0,0,0,.15,0c.05,0,.1-.027.146-.03a.031.031,0,0,0,.014,0,.063.063,0,0,0,.018.018c.02.016.031.04.053.056a.413.413,0,0,0,.155.061.363.363,0,0,0,.46-.216.335.335,0,0,0,.31.234c.122,0,.316-.031.363-.161a.961.961,0,0,0,.6,0c.09-.019.186-.032.274-.057s.168-.069.185-.154c.026-.135-.177-.215-.256-.294a2.063,2.063,0,0,1-.351-.519.817.817,0,0,1-.145-.465,3.273,3.273,0,0,1,.1-.427c.077-.278.164-.552.248-.828q.19-.619.379-1.239a7.574,7.574,0,0,0,.312-1.319,3.782,3.782,0,0,0-.107-1.344,4.058,4.058,0,0,1-.159-1.049,4.746,4.746,0,0,1,.218-1.132,13.446,13.446,0,0,0,.3-1.326c.074-.447.121-.9.161-1.349s.058-.932.067-1.4a8.532,8.532,0,0,0-.044-1.348c-.031-.221-.07-.441-.113-.66q-.034-.173-.071-.345-.017-.078-.035-.157a.367.367,0,0,1,0-.174,2.961,2.961,0,0,0,.01-.52q0-.519-.007-1.038a.92.92,0,0,1,.056-.3l.185-.617L178,37.83q.142.363.257.736c.094.3.138.615.214.923a8.17,8.17,0,0,0,.768,1.831q.218.412.411.837a1.79,1.79,0,0,1,.141.332c.01.045-.018.085-.025.134a.633.633,0,0,0,.007.192,3.119,3.119,0,0,0,.183.594,1.011,1.011,0,0,1,.036.25c.013.123.029.247.033.371a.827.827,0,0,0,.045.291c.042.1.169.173.233.039a.719.719,0,0,0,.019-.356c-.006-.056-.012-.112-.015-.168,0-.032-.015-.111.01-.138.044.02.049.145.055.184.014.093.022.187.031.281a1.021,1.021,0,0,0,.062.39.128.128,0,0,0,.193.049c.075-.063.068-.2.066-.284,0-.185-.043-.368-.034-.554.088.2.15.416.238.62.037.086.083.214.174.257a.137.137,0,0,0,.186-.112.983.983,0,0,0-.122-.475,1.486,1.486,0,0,1-.142-.472,1.552,1.552,0,0,1,.3.4c.069.1.235.385.387.272s-.006-.295-.069-.4c-.074-.125-.145-.253-.213-.382a1.742,1.742,0,0,1-.186-.4c.1.024.177.163.257.22a.692.692,0,0,0,.286.109A.263.263,0,0,0,182,43.37C182.1,43.287,182.027,43.181,181.941,43.128Zm-6.307,6c-.014.233-.052.464-.071.7-.028.336-.024.673-.038,1.009q-.012.313,0,.627c.01.235.039.468.05.7a11.176,11.176,0,0,1-.084,1.6,12.629,12.629,0,0,1-.09-1.455c0-.239.034-.477.048-.715s.017-.494.007-.74c-.016-.4-.01-.791-.048-1.185-.013-.138-.032-.276-.048-.414a1.264,1.264,0,0,1,0-.411c.029-.129.083-.248.1-.381a1.811,1.811,0,0,0,0-.416,4.554,4.554,0,0,1,.035-.931,4.279,4.279,0,0,1,.056.729,2.7,2.7,0,0,0-.028.668,1.217,1.217,0,0,0,.081.267A.784.784,0,0,1,175.634,49.13Z" transform="translate(-168.932 -29.213)"/><path class="a" d="M174.533,32.316h0Zm7.407,10.811h0C181.982,43.153,181.965,43.143,181.94,43.128Zm-11.97-.146a.643.643,0,0,0,.655-.521c-.017.022-.032.044-.048.066A1.163,1.163,0,0,1,169.97,42.981Zm10.793-.116-.008-.005a1.577,1.577,0,0,1-.4-.4.642.642,0,0,0,.655.521,1.433,1.433,0,0,1-.239-.112Zm1.149.46h0Zm-1.141-.456-.015-.009.008.005Zm1.17.258c-.088-.054-.036-.022,0,0a3.718,3.718,0,0,1-.677-.729.756.756,0,0,0-.376-.258c-.049-.011-.165,0-.194-.023a.4.4,0,0,1-.05-.107q-.03-.068-.056-.137a4.276,4.276,0,0,1-.239-1.03c-.024-.212-.035-.424-.075-.634a5.626,5.626,0,0,0-.314-1.058,2.146,2.146,0,0,0-.187-.416.877.877,0,0,1-.152-.28,2.871,2.871,0,0,1-.037-.532q-.019-.272-.055-.542c-.045-.348-.1-.7-.184-1.037a.783.783,0,0,1,.005-.247q.011-.14.014-.28a3.678,3.678,0,0,0-.027-.54,2.311,2.311,0,0,0-.411-.894,1.163,1.163,0,0,0-.829-.482,3.58,3.58,0,0,0-.535-.057q-.13,0-.261,0a.132.132,0,0,1-.109-.035c-.035-.026-.071-.052-.107-.077-.147-.1-.3-.194-.451-.286l-.123-.074c-.021-.012-.072-.029-.083-.049a.143.143,0,0,1,0-.041l-.052-.475-.023-.206a.124.124,0,0,1,0-.039c0-.009.029-.02.039-.027a.5.5,0,0,0,.1-.087.875.875,0,0,0,.132-.291q.073-.212.131-.428a2.541,2.541,0,0,0-.111-1.962,1.16,1.16,0,0,0-.709-.509,2.093,2.093,0,0,0-.626-.035,1.34,1.34,0,0,0-.8.356,1.512,1.512,0,0,0-.371.861,3.891,3.891,0,0,0,.281,1.829.556.556,0,0,0,.093.179.473.473,0,0,0,.076.072c.01.008.056.031.06.042a.414.414,0,0,1-.015.133l-.055.505a.416.416,0,0,1-.013.122c-.011.02-.062.037-.083.049l-.123.074q-.116.07-.231.142c-.074.047-.148.094-.22.144-.032.022-.064.045-.1.068a.149.149,0,0,1-.121.043,4.116,4.116,0,0,0-.542.022,1.615,1.615,0,0,0-.938.332,1.768,1.768,0,0,0-.272.395,2.771,2.771,0,0,0-.23.459,1.721,1.721,0,0,0-.078.512,4.246,4.246,0,0,0,.011.536.781.781,0,0,1,.005.247q-.031.134-.058.269-.052.258-.091.519a9.339,9.339,0,0,0-.105,1.079.788.788,0,0,1-.121.46,1.484,1.484,0,0,0-.146.26,5.461,5.461,0,0,0-.466,1.727,4.984,4.984,0,0,1-.178.985q-.035.117-.078.231c-.016.042-.032.083-.05.124a.42.42,0,0,1-.055.12c-.029.027-.145.012-.194.023a.54.54,0,0,0-.215.1,8.575,8.575,0,0,0-.67.744,1.227,1.227,0,0,1-.167.137c-.05.034-.105.077-.107.143,0,.114.118.143.207.136a.736.736,0,0,0,.309-.093.8.8,0,0,0,.152-.127c.038-.037.088-.1.143-.117a1.506,1.506,0,0,1-.154.338q-.107.2-.223.4c-.061.1-.193.256-.138.382.1.23.321-.059.391-.153s.111-.165.168-.247a.871.871,0,0,1,.17-.21.764.764,0,0,1-.055.225c-.028.087-.06.173-.092.259a.9.9,0,0,0-.116.472.134.134,0,0,0,.192.1.509.509,0,0,0,.166-.253c.088-.2.151-.416.238-.62.009.18-.027.36-.033.54a.407.407,0,0,0,.057.29.127.127,0,0,0,.2-.042,1.008,1.008,0,0,0,.061-.388c.009-.094.017-.189.03-.283.006-.04.008-.163.05-.185.047.044.01.207,0,.263a1.336,1.336,0,0,0-.007.316c.013.1.095.217.2.131a.384.384,0,0,0,.094-.246c.011-.092.009-.186.018-.278.012-.129.028-.258.04-.388a.628.628,0,0,1,.051-.17c.039-.1.074-.205.1-.31a1.2,1.2,0,0,0,.058-.325.439.439,0,0,0-.011-.1c-.005-.021-.029-.055-.028-.074a.549.549,0,0,1,.062-.153c.107-.256.227-.507.351-.755a12.649,12.649,0,0,0,.823-1.79c.107-.335.152-.68.241-1.019a8.832,8.832,0,0,1,.3-.9l.127.491a2.621,2.621,0,0,1,.1.389c.014.146,0,.3,0,.448q0,.349,0,.7a3.213,3.213,0,0,0,0,.4.85.85,0,0,0,.055.156.844.844,0,0,1-.046.358c-.042.231-.081.462-.115.694a13.691,13.691,0,0,0-.015,2.838,14.184,14.184,0,0,0,.455,2.77,5.017,5.017,0,0,1,.233,1.19,3.953,3.953,0,0,1-.152,1.022,3.846,3.846,0,0,0-.112,1.388,7.848,7.848,0,0,0,.32,1.333q.189.624.381,1.247c.1.324.2.647.286.975a.908.908,0,0,1,.054.353,1.776,1.776,0,0,1-.255.541,1.3,1.3,0,0,1-.36.425.317.317,0,0,0-.131.123c-.041.094.034.171.115.208a1.262,1.262,0,0,0,.243.059,2.328,2.328,0,0,0,.365.061,1.085,1.085,0,0,0,.15,0c.05,0,.1-.027.146-.03a.031.031,0,0,0,.014,0,.063.063,0,0,0,.018.018c.02.016.031.04.053.056a.413.413,0,0,0,.155.061.363.363,0,0,0,.46-.216.335.335,0,0,0,.31.234c.122,0,.316-.031.363-.161a.961.961,0,0,0,.6,0c.09-.019.186-.032.274-.057s.168-.069.185-.154c.026-.135-.177-.215-.256-.294a2.063,2.063,0,0,1-.351-.519.817.817,0,0,1-.145-.465,3.273,3.273,0,0,1,.1-.427c.077-.278.164-.552.248-.828q.19-.619.379-1.239a7.574,7.574,0,0,0,.312-1.319,3.782,3.782,0,0,0-.107-1.344,4.058,4.058,0,0,1-.159-1.049,4.746,4.746,0,0,1,.218-1.132,13.446,13.446,0,0,0,.3-1.326c.074-.447.121-.9.161-1.349s.058-.932.067-1.4a8.532,8.532,0,0,0-.044-1.348c-.031-.221-.07-.441-.113-.66q-.034-.173-.071-.345-.017-.078-.035-.157a.367.367,0,0,1,0-.174,2.961,2.961,0,0,0,.01-.52q0-.519-.007-1.038a.92.92,0,0,1,.056-.3l.185-.617L178,37.83q.142.363.257.736c.094.3.138.615.214.923a8.17,8.17,0,0,0,.768,1.831q.218.412.411.837a1.79,1.79,0,0,1,.141.332c.01.045-.018.085-.025.134a.633.633,0,0,0,.007.192,3.119,3.119,0,0,0,.183.594,1.008,1.008,0,0,1,.036.25c.013.123.029.247.033.371a.829.829,0,0,0,.045.291c.042.1.169.173.233.039a.719.719,0,0,0,.019-.356c-.006-.056-.012-.112-.015-.168,0-.032-.015-.111.01-.138.044.02.049.145.055.184.014.093.022.187.031.281a1.021,1.021,0,0,0,.062.39.128.128,0,0,0,.193.049c.075-.063.068-.2.066-.284,0-.185-.043-.368-.034-.554.087.2.15.416.238.62.037.086.083.214.174.257a.137.137,0,0,0,.186-.112.983.983,0,0,0-.122-.475,1.486,1.486,0,0,1-.142-.472,1.552,1.552,0,0,1,.3.4c.069.1.235.385.387.272s-.006-.295-.069-.4c-.074-.125-.145-.253-.213-.382a1.74,1.74,0,0,1-.186-.4c.1.024.177.163.257.22a.692.692,0,0,0,.286.109A.263.263,0,0,0,182,43.37C182.1,43.287,182.027,43.181,181.941,43.128Zm-7.407-10.811c.007.013.02.042,0,0,0-.008,0-.006,0,0a2.263,2.263,0,0,1-.1-.3c-.058-.184-.108-.37-.148-.559a2.8,2.8,0,0,1-.031-1.068,1.281,1.281,0,0,1,.428-.809,1.344,1.344,0,0,1,.809-.245,1.3,1.3,0,0,1,.779.217,1.246,1.246,0,0,1,.458.807,2.765,2.765,0,0,1-.018,1.067,4.617,4.617,0,0,1-.249.872c-.069.165-.265.253-.411.34a1.344,1.344,0,0,1-.532.23,1.075,1.075,0,0,1-.542-.207C174.827,32.571,174.612,32.477,174.533,32.317Zm.957,21.445a12.629,12.629,0,0,1-.09-1.455c0-.239.034-.477.048-.715s.017-.494.007-.74c-.016-.4-.01-.791-.048-1.185-.013-.138-.032-.276-.048-.414a1.264,1.264,0,0,1,0-.411c.029-.129.083-.248.1-.381a1.811,1.811,0,0,0,0-.416,4.554,4.554,0,0,1,.035-.931,4.279,4.279,0,0,1,.056.729,2.7,2.7,0,0,0-.028.668,1.217,1.217,0,0,0,.081.267.784.784,0,0,1,.034.352c-.014.233-.052.464-.071.7-.028.336-.024.673-.038,1.009q-.012.313,0,.627c.01.235.039.468.05.7A11.176,11.176,0,0,1,175.491,53.762Zm6.422-10.436h0c-.042.007-.012,0,0,0a.523.523,0,0,1-.243-.04.935.935,0,0,1-.3-.226c-.044-.039-.192-.136-.212-.018a.3.3,0,0,0,.036.134,5.216,5.216,0,0,0,.392.745.5.5,0,0,1,.1.2c.012.165-.154,0-.189-.043a4.22,4.22,0,0,0-.4-.535c-.069-.063-.154-.058-.152.049a.748.748,0,0,0,.045.206c.038.124.084.245.129.366a1.575,1.575,0,0,1,.086.265c.014.076-.02.207-.1.109a1.065,1.065,0,0,1-.139-.279c-.051-.122-.091-.249-.137-.373-.02-.053-.062-.248-.141-.251-.1,0-.075.2-.073.253.005.124.021.247.03.371,0,.06.03.241-.032.285-.1.069-.107-.224-.111-.261-.007-.076-.014-.152-.021-.228s-.032-.534-.2-.42c-.082.055-.049.227-.041.306a2.021,2.021,0,0,1,.014.278c0,.06-.037.209-.1.089a.905.905,0,0,1-.048-.338c-.009-.137-.026-.273-.04-.41a.74.74,0,0,0-.02-.151c-.054-.169-.127-.329-.168-.5-.034-.142-.076-.336.076-.416.025-.013.063-.03.037-.066s-.112.008-.138.029c-.32-.922-.867-1.746-1.172-2.674a7.018,7.018,0,0,1-.184-.738,5.258,5.258,0,0,0-.222-.732c-.072-.194-.159-.382-.237-.574a.21.21,0,0,1,0-.126.328.328,0,0,1,.011-.074c.014-.033.061-.063.084-.093a1.219,1.219,0,0,0,.154-.8,2,2,0,0,0-.074-.417.619.619,0,0,1-.052-.209q.008-.113.014-.226-.02.1-.038.2a.316.316,0,0,0,.006.158,2.4,2.4,0,0,1,.055.4,1.456,1.456,0,0,1-.118.775.864.864,0,0,1-.652.327c-.139.024-.279.04-.419.052l-.19.014a1.089,1.089,0,0,1-.221.011.68.68,0,0,1-.2-.112l-.2-.119c-.14-.084-.279-.169-.421-.248.165.13.335.255.5.379a1.485,1.485,0,0,0,.256.184.649.649,0,0,0,.229.01,4.639,4.639,0,0,0,.627-.045,1.521,1.521,0,0,0,.543-.157l-.033.189,0-.006-.284.877a.481.481,0,0,1-.02.061.8.8,0,0,0-.02.142q0,.284,0,.568c0,.247.013.493.012.74,0,.037,0,.075,0,.112,0,.072-.027.138-.032.207a.862.862,0,0,0,.041.219q.032.15.061.3a8.314,8.314,0,0,1,.17,1.186c.019.4,0,.8-.018,1.2s-.034.8-.07,1.191a13.987,13.987,0,0,1-.406,2.385,6.792,6.792,0,0,0-.258,1.144,2.824,2.824,0,0,0,.022.654c.057.392.191.768.24,1.161a3.616,3.616,0,0,1-.063,1.161c-.108.536-.284,1.059-.44,1.582-.117.392-.237.784-.349,1.178-.046.163-.093.326-.128.492a.82.82,0,0,0-.032.305,1.325,1.325,0,0,0,.147.352,2.87,2.87,0,0,0,.287.454,1.132,1.132,0,0,0,.163.172c.044.037.1.062.141.1.115.092-.092.129-.157.141a2.488,2.488,0,0,1-.579.093.369.369,0,0,1-.109-.018c-.049-.018-.052-.03-.054-.077a.253.253,0,0,0-.02-.094.317.317,0,0,0-.054-.085c-.077-.045-.02.1-.014.122.017.058.041.145.007.2s-.134.073-.2.083a.294.294,0,0,1-.245-.048c-.157-.137-.119-.408-.119-.6q0-.413,0-.825c.006-.663.123-1.319.149-1.981.016-.4-.03-.788-.044-1.185-.01-.277,0-.553.013-.829.015-.349.016-.7.053-1.045a4.578,4.578,0,0,0,.047-.592.778.778,0,0,0-.021-.2c-.025-.083-.07-.158-.09-.244a1.53,1.53,0,0,1,0-.583,2.208,2.208,0,0,0-.016-.577c-.044-.38-.077-.756-.085-1.139-.012-.537,0-1.075-.006-1.613l-.008-.592,0-.258a.445.445,0,0,1,0-.142c.011-.023.049-.012.077-.016a.539.539,0,0,0,.236-.084.378.378,0,0,0,.156-.391.442.442,0,0,1-.154.269.558.558,0,0,1-.332.089.566.566,0,0,1-.336-.089.442.442,0,0,1-.154-.269.379.379,0,0,0,.084.328.439.439,0,0,0,.173.114.573.573,0,0,0,.108.028c.014,0,.066,0,.073.008s0,.061,0,.074l0,.17-.011.9c-.006.483.007.966,0,1.449-.007.313-.024.623-.058.935-.017.16-.037.319-.048.479a3.424,3.424,0,0,0,.019.47,1.5,1.5,0,0,1-.034.472,1.868,1.868,0,0,0-.088.342,7.992,7.992,0,0,0,.077.986c.015.253.01.506.022.759.01.225.019.449.014.674-.007.325-.051.649-.053.974a9.34,9.34,0,0,0,.055.995c.033.327.081.655.1.984.009.14,0,.281,0,.421,0,.236,0,.471,0,.707,0,.1,0,.2,0,.3a.4.4,0,0,1-.154.34.392.392,0,0,1-.379-.037.133.133,0,0,1-.032-.146c.008-.033.038-.166.073-.163a.059.059,0,0,0-.1-.018c-.042.058-.022.169-.065.22s-.147.041-.2.04a1.61,1.61,0,0,1-.265-.03c-.08-.015-.158-.035-.237-.055-.038-.01-.077-.01-.115-.021s-.107-.035-.111-.075.07-.072.1-.092a1.742,1.742,0,0,0,.523-.67,1.491,1.491,0,0,0,.151-.351.607.607,0,0,0-.012-.241,12.562,12.562,0,0,0-.344-1.246c-.079-.267-.16-.533-.238-.8a7.915,7.915,0,0,1-.437-1.955,3.724,3.724,0,0,1,.126-1.017,4.647,4.647,0,0,0,.164-.954,5.427,5.427,0,0,0-.287-1.57,12.65,12.65,0,0,1-.361-2.056c-.064-.689-.1-1.38-.107-2.071a7.668,7.668,0,0,1,.039-1.033c.042-.351.1-.7.163-1.046a.819.819,0,0,0,.033-.179.74.74,0,0,0-.074-.213.278.278,0,0,0,.012.026q0-.613,0-1.227,0-.133,0-.267a.408.408,0,0,0-.017-.084,1.988,1.988,0,0,1-.064-.223l-.11-.379c-.031-.107-.066-.213-.093-.32a1.681,1.681,0,0,1-.029-.23,1.389,1.389,0,0,0,.544.171,4.567,4.567,0,0,0,.643.049.774.774,0,0,0,.24-.006.569.569,0,0,0,.108-.077l.128-.092c.178-.13.357-.261.53-.4-.239.134-.474.278-.707.424a.439.439,0,0,1-.09.057.365.365,0,0,1-.095,0q-.111,0-.222-.013c-.142-.01-.283-.025-.424-.045a1.1,1.1,0,0,1-.706-.27,1.151,1.151,0,0,1-.173-.727,2.4,2.4,0,0,1,.045-.457.574.574,0,0,0,.027-.173c-.009-.081-.029-.162-.046-.241q0,.09.011.181a.468.468,0,0,1-.032.2,2.042,2.042,0,0,0-.08.361,1.6,1.6,0,0,0,.058.76.634.634,0,0,0,.077.143c.021.029.058.054.068.087a.874.874,0,0,1,.016.172.288.288,0,0,1-.036.173q-.057.132-.111.267a6.6,6.6,0,0,0-.244.714c-.066.242-.1.49-.169.732a8.317,8.317,0,0,1-.6,1.453,11.851,11.851,0,0,0-.634,1.424c-.026-.022-.137-.087-.145-.01,0,.041.035.039.06.052a.223.223,0,0,1,.091.231,2.184,2.184,0,0,1-.184.645.428.428,0,0,0-.03.136c-.015.154-.035.307-.045.461,0,.067,0,.135-.012.2-.007.044-.017.148-.06.175-.083.052-.072-.185-.071-.224a2.353,2.353,0,0,0,.019-.391c-.013-.087-.1-.156-.162-.069a.7.7,0,0,0-.076.329c-.01.1-.019.194-.028.291,0,.03-.036.371-.122.243a.307.307,0,0,1-.023-.153,2.184,2.184,0,0,1,.014-.234,2.371,2.371,0,0,0,.019-.375c0-.041-.006-.105-.05-.124-.093-.04-.147.2-.165.247-.051.137-.1.276-.154.41-.026.058-.094.288-.179.282-.156-.011.114-.616.135-.677s.147-.337.042-.4c-.053-.03-.109.029-.142.063a2.616,2.616,0,0,0-.249.344c-.034.051-.07.1-.107.149s-.083.124-.141.134c-.142.026.006-.224.027-.259.067-.111.13-.223.192-.337a2.674,2.674,0,0,0,.23-.481c.021-.068.016-.146-.084-.127-.131.025-.213.193-.326.257a.581.581,0,0,1-.316.082c-.189-.024.073-.182.116-.22.26-.229.431-.544.694-.77a.488.488,0,0,1,.4-.12.713.713,0,0,1,.144.037.32.32,0,0,0,.079.032c.069,0,.053-.059.011-.084a.62.62,0,0,0-.182-.06,3.826,3.826,0,0,0,.357-1.177c.041-.272.055-.544.113-.814a5.622,5.622,0,0,1,.4-1.17.931.931,0,0,1,.116-.213.812.812,0,0,0,.139-.253.594.594,0,0,0,.046-.2q0-.159.009-.317a10.293,10.293,0,0,1,.156-1.261c.018-.1.038-.208.061-.311a.563.563,0,0,0,.021-.208,4.094,4.094,0,0,1-.026-.621,1.614,1.614,0,0,1,.1-.574,3.7,3.7,0,0,1,.292-.536.854.854,0,0,1,.39-.362,2.07,2.07,0,0,1,.571-.149,9.542,9.542,0,0,1,1.4-.025l-.618-.084c.112-.084.23-.16.347-.237l.21-.134a.935.935,0,0,0,.185-.115c.023-.025.021-.042.024-.078l.064-.7a3.922,3.922,0,0,0,.4.234.682.682,0,0,0,.772,0,3.934,3.934,0,0,0,.405-.234l.063.7c0,.036,0,.057.024.081a.97.97,0,0,0,.185.115l.184.117c.126.081.253.164.373.254l-.618.084c.367,0,.74-.025,1.107,0a1.794,1.794,0,0,1,1.1.326,1.942,1.942,0,0,1,.324.493,1.477,1.477,0,0,1,.2.525,3.722,3.722,0,0,1,.021.616c0,.1-.013.207-.025.31a.55.55,0,0,0,.018.208,10.477,10.477,0,0,1,.2,1.255c.02.211.032.422.034.634a.824.824,0,0,0,.182.452,1.984,1.984,0,0,1,.238.5,5.9,5.9,0,0,1,.2.6,5.989,5.989,0,0,1,.163.944,3.916,3.916,0,0,0,.378,1.336c-.049.01-.187.031-.215.084-.049.092.081.044.11.032a.527.527,0,0,1,.541.063,4.492,4.492,0,0,1,.511.577,1.764,1.764,0,0,0,.261.258C181.871,43.181,182.056,43.3,181.913,43.325Zm-6.47-2.981c-.006-.032-.011-.1.037-.116-.078-.05-.122.083-.115.142.018.155.231.107.168-.029C175.538,40.349,175.463,40.46,175.442,40.344Zm-.615,8.485h0Zm0,0h0a.538.538,0,0,1-.63-.146.615.615,0,0,1-.1-.6.57.57,0,0,0,.169.774.537.537,0,0,0,.763-.179.633.633,0,0,1-.2.15Zm1.124-.151a.537.537,0,0,0,.763.179.57.57,0,0,0,.169-.774.6.6,0,0,1-.239.722A.558.558,0,0,1,175.949,48.679Z" transform="translate(-168.932 -29.213)"/></g></svg>
