<svg xmlns="http://www.w3.org/2000/svg" width="99.763" height="254.512" viewBox="0 0 99.763 254.512"><defs><style>.a{fill:#feb6b9;}.b{fill:#5bc5c9;}.c{fill:#bacce0;}.d{fill:#b2adaa;}.e{fill:#e4e9ff;}.f{fill:#9e5d4e;}</style></defs><g transform="translate(-282.147 -545.688)"><path class="a" d="M291.53,750.7c-.5,5.6-.5,12.4.3,26.7a79.294,79.294,0,0,0,.8,9.8c.1.6.2,1.3.3,1.9.1.7.1,1.4.2,2.1a28.018,28.018,0,0,0,.8,5.8,2.475,2.475,0,0,0,.8,1.6,2.9,2.9,0,0,0,1.8.5c4.1.3,6.5.7,10.6,1,1.4.1,3.4,0,3.8-1.4.4-1.3-1.1-2.5-2.4-3.2a24.709,24.709,0,0,1-4.2-3c-.5-.4-1.7-.7-2.1-1.2l-.1-.1a2.092,2.092,0,0,1-.4-.6,5.381,5.381,0,0,1-.4-2.2c-.3-5.2,5-44.1,7.1-60.1C303.931,727.8,299.731,713.7,291.53,750.7Z"/><path class="b" d="M292.931,787.6h9c0,2.2.1,2,.1,2,.4.4,1.6,2.6,2.1,3a31.259,31.259,0,0,0,4.2,2.9c1.3.7,2.8,1.8,2.4,3.2s-2.3,1.4-3.8,1.3c-4.1-.4-6.5-1-10.6-1.3a4,4,0,0,1-1.8-1c-.4-.3-.6-1.9-.8-2.5a41.291,41.291,0,0,1-.8-7.7Z"/><path class="a" d="M328.631,729c1.5,4.2,9.2,61.8,9.2,62.2a28.021,28.021,0,0,0,.8,5.8,2.469,2.469,0,0,0,.8,1.6,2.9,2.9,0,0,0,1.8.5c4.1.3,6.5.7,10.6,1,1.5.1,3.5,0,3.9-1.4.4-1.3-1.1-2.5-2.4-3.2a24.709,24.709,0,0,1-4.2-3c-.5-.4-1.7-.7-2.1-1.2l-.1-.1a2.092,2.092,0,0,1-.4-.6c-.1-.3,1.5-57.1,0-61.6C343.531,729.1,331.531,728.8,328.631,729Z"/><path class="b" d="M337.831,789.8h9l.1.9a18.955,18.955,0,0,0,2.1,1.9,31.261,31.261,0,0,0,4.2,2.9c1.3.7,2.8,1.8,2.4,3.2s-2.3,1.5-3.8,1.4c-4.1-.3-6.5-.8-10.6-1.1a3.594,3.594,0,0,1-1.8-.7,5.988,5.988,0,0,1-.8-2,62.768,62.768,0,0,1-.8-6.6Z"/><path class="b" d="M353.031,684.5c-22.8-1.1-46.9,5.8-67.7-3.3a2.877,2.877,0,0,0-1.6-.3c-1,.3-1.2,1.5-1.3,2.5a226.4,226.4,0,0,0,6.2,65.1c1,4.3-1.7,10.3,2.4,12.3,1.5.8,7.6-.2,9.3,0a168.192,168.192,0,0,0,47-.9q2.1-38.1,4.2-76.3Z"/><path class="c" d="M351.731,601.1c-.8-1.7-2.3-1.9-3.1-3.7-5.7-.1-7.5,5.3-8.3,10.8-2.1,15.3-2.8,30.9.4,45.9,3.2,15.1,10.7,29.6,22.8,39.5,2.6,2.1,6.1,4.1,9.2,2.8,2.6-1.1,3.9-4.3,3.6-7.1s-1.6-5.4-2.8-8c-6.1-13.7-6.9-28.9-8.9-43.6-2-14.8-5.8-30.1-16.3-40.9Z"/><path class="d" d="M324.93,583.1c2-.2,4-.6,5.9-.9a119.178,119.178,0,0,1,16.8-1.5v-.3l-1.1-.1c7.5-2,5.2-15.9,3.8-20.7-2-6.4-5.8-12.4-13.4-12.4-4.5,0-8.9,3.1-9.9,7.3a6.534,6.534,0,0,0-11.2,1.9c-.9,2.7.1,5.8-1.5,8.2a4.262,4.262,0,0,1-1.1,1.2c0,6.6,3.1,13,10,15.8A3.135,3.135,0,0,1,324.93,583.1Z"/><path class="e" d="M354.931,689.3c-11.5,3.5-19,5.8-31.1,6.6-11.9,1-24.5-.8-34.5-7.2-2.4-1.6-4.7-3.5-5.9-6.1a17.774,17.774,0,0,1-1.1-6.5,311.723,311.723,0,0,1,1.7-41c1-8.6,2.3-17.2,5.8-25.2s9.5-15.2,17.6-18.8c6.2-2.7,13.2-3.2,20-2.5,5.4.6,10.9,1.8,15.6,4.6,9.8,5.8,14.8,17.1,15.9,28.2s-1.1,22.2-2.4,33.2c-1.3,11.1-5.9,24.4-1.6,34.7Z"/><path class="a" d="M325.231,583.8a12.758,12.758,0,0,0,10.4,7.7c11.2.9,14.2-10.2,12.6-18.7-.4-2.6-.9-5.3-1.4-7.9-5.1,3.2-12.5,2.4-16.5-2-.6,3.2-1.9,6.7-4.9,8.4-2.5,1.3-5.4,1.2-8.2,1.1-1.5,4.1,2.9,8.8,7.2,7.9a8.574,8.574,0,0,0,.5,2.7C325.031,583.3,325.131,583.5,325.231,583.8Z"/><path class="c" d="M288.231,651.1c.8,4.9,1.6,10,4.7,14,3.8,4.9,10.2,7.1,16.2,9.1,3.3,1.1,6.7,2.3,10.3,2.3s7.3-1.2,9.5-3.9c3.6-4.5,1.3-11.5-3.2-15.1s-10.5-4.7-16.3-5.7a139.859,139.859,0,0,0-6.5-54.1,15.262,15.262,0,0,0-1.6-1.1c-3.5.5-6.6,3.6-8.5,6.7C284.231,617.3,285.831,634.8,288.231,651.1Z"/><path class="a" d="M312.73,593.3a7.578,7.578,0,0,0,1.3,4.4,16.289,16.289,0,0,0,12.8,7.5,18.312,18.312,0,0,0,14-5.5,7.366,7.366,0,0,0,2.2-3.8V595l.8,1.1c-1.1-2.3-2.1-4.6-3.1-6.9a4.072,4.072,0,0,0-1.2-1.7,3.777,3.777,0,0,0-2.1-.4c-8.4-.3-12.8-2.6-13.9-10.7.5,3.8-4.2,7.4-7.6,11.1C314.231,589.4,312.831,591.3,312.73,593.3Z"/><path class="f" d="M327.831,799.6c4.5-36.9,7.3-74.4,8.4-111.5,0-2.3,0-4.1-.8-5.5a4.18,4.18,0,0,0-4.6-1.8,4.049,4.049,0,0,0-2.9,3.9l-5,.2a9,9,0,0,1,6.5-8.7,9.459,9.459,0,0,1,10.2,4c1.7,2.7,1.6,5.8,1.5,8.1-1.1,37.2-4,74.9-8.4,111.9Z"/><path class="a" d="M331.031,667.7c-1.9-.7-3.9,1.3-3.9,3.2s1.2,3.6,2.3,5.2c.7,1,1.5,2,2.2,3a9.582,9.582,0,0,0,1.7,1.8c2.8,2,7.2-.7,7.5-4s-2.3-6.4-5.3-8a16.039,16.039,0,0,0-6.4-1.7Z"/><path class="a" d="M381.431,704.2c1.2-3,0-6.5-2-9.1s-4.6-4.7-6.7-7.2l.6,1.3c-1.2-1.2-3.4-.2-4.2,1.2-2,3.6,1.1,7.7,2.4,11.6l.3.9a5.27,5.27,0,0,0,3.5,3.6c.8.3,1.7.5,2.5.8A5.845,5.845,0,0,0,381.431,704.2Z"/><path class="d" d="M328.231,551.9c-.5,5.1-1.8,11.2-6.7,13.2-2.4,1-5.1.7-7.7.3a7.814,7.814,0,0,1-3.4-.9c-1.8-1-2.6-3.1-2.8-5.1a12.866,12.866,0,0,1,3.9-10.8,11.631,11.631,0,0,1,11.3-2.3c3.8,1.4,6.6,5.4,6.2,9.3Z"/></g></svg>