<svg xmlns="http://www.w3.org/2000/svg" width="93.774" height="270.045" viewBox="0 0 93.774 270.045"><defs><style>.a{fill:#feb6b9;}.b{fill:#41657b;}.c{fill:#b2adaa;}.d{fill:#41657c;}.e{fill:#dfecfe;}.f{fill:#9e5f4b;}.g{fill:#ad6953;}.h{fill:#87acbf;}.i{fill:#7089a1;}</style></defs><g transform="translate(-416.531 -538.955)"><path class="a" d="M436.331,799.6l7.8-4.5a3.915,3.915,0,0,0,1-.8h0c.1-.1.2-.2.2-.3a3.545,3.545,0,0,0,.3-1.1c.1-.2,0-.3,0-.5l.4-8.5,9.6-1.4-.6,9.9v.1l-.3,4.4a4.2,4.2,0,0,1-3,3.8l-14.7,3.4h-.2a1.83,1.83,0,0,1-2-1.8A2.865,2.865,0,0,1,436.331,799.6Z"/><path class="b" d="M436.931,799.7l7.8-4.5a3.915,3.915,0,0,0,1-.8h0c1.5-.4,3.1-1,4.7-1.4a11.833,11.833,0,0,1,5.2-.5l-.3,4.4a4.2,4.2,0,0,1-3,3.8l-14.7,3.4h-.2a1.83,1.83,0,0,1-2-1.8A2.632,2.632,0,0,1,436.931,799.7Z"/><path class="c" d="M451.331,553.1a18.594,18.594,0,0,0-1.9,4.6c-.7,3-2.8,6.3-5.6,2.2a5.232,5.232,0,0,1-.5-3.5,22.1,22.1,0,0,1,1.1-5.1c2.2-5.5,8-8.6,13.4-11.1a14.491,14.491,0,0,1,3.5-1.2,9.469,9.469,0,0,1,4.6.9c5.7,2.4,10.8,8.5,12.8,14.3,1,2.7-.1,11.1-4.5,6.5a18.327,18.327,0,0,1-2.3-3.8c-2.1-3.6.8.9-3.4,2.7C465.531,560.9,452.731,550.2,451.331,553.1Z"/><path class="d" d="M489.231,796.2a13.9,13.9,0,0,0-4.1-4.6c-1.3-.9-3-1.6-4.6-.6a3.587,3.587,0,0,0-1.6,3.1c0,2.2,1.3,4,2.7,5.6a67.532,67.532,0,0,0,5.4,5.3c1.9,1.7,4.5,3.9,7.3,4a1,1,0,0,0,1-1.3,47.431,47.431,0,0,0-6.8-13.7Z"/><path class="a" d="M490.031,789.8c.8.2.8-1.1.4-1.8-1.3-2-3.1-4.4-5.5-4.2-2.3.3-3.7,2.9-4.2,5.2a9.249,9.249,0,0,0,0,5.7c.7,1.8,2.6,3.3,4.5,2.9,2.3-.4,3.4-2.9,4.1-5.1l1.5-4.5Z"/><path class="d" d="M473.131,697.1c-2.4,3.2-1.8,7.7-.9,11.6,3.2,14.5,11.1,28.7,11.9,43.6a86.989,86.989,0,0,1-.5,11.4c-.6,6.9-1.2,16.2-1.8,23.1a3.019,3.019,0,0,0,.2,2.1,3.114,3.114,0,0,0,1.7,1.2c6.1,2.5,11.7,4.1,13.7-2.8,1.4-4.9,2.3-12.3,3.2-17.3,1.5-8.2,3.7-16.9,3.8-25.2.1-14.5-2.6-46.7-19.9-50.8C480.531,693.1,475.631,693.7,473.131,697.1Z"/><path class="d" d="M461.231,691.4c.4-1.6-.9-3.1-2.2-4.1a13.552,13.552,0,0,0-17.5,1.8c-4.1,4.5-4.6,11.1-4.7,17.2a356.1,356.1,0,0,0,5.8,70.6c.6,3.3,1.4,7,4.1,9.1,2.3,1.8,5.4,2,8.3,2.2,1.1,0,2.3,0,3-.8a2.809,2.809,0,0,0,.6-2c2.5-32.3,3.5-64.8,3-97.2Z"/><path class="e" d="M445.731,703.8h0a5.651,5.651,0,0,0,2.5,1.1,113.891,113.891,0,0,0,31.9,2.7v-.5q.3-32.1.8-64.2c.1-5.9,1.6-7.9,2.3-13.7,1-8.5-3.9-23.3-3.5-31.9.2-4.4,7.6-8.4,4.7-11.9-4.2-5.1-13.8-8.6-21-8.8-5.9-.2-16.8,2.6-21,6.2-4.2,3.5,4.8,11.4,4.5,16.5-.7,10.8-6.6,21.1-4.7,31.8,1.1,6.1,2.8,12.1,3.6,18.2,1,7.9.7,15.8.3,23.7-.4,9.4-.9,18.7-1.3,28C444.831,702,444.831,703.2,445.731,703.8Z"/><path class="f" d="M475.731,704.3v.5h.6A2.651,2.651,0,0,1,475.731,704.3Z"/><path class="f" d="M423.931,666.5c1,14.5-4,27.7-2.9,42.2a67.393,67.393,0,0,0,23.8,9.8,3.016,3.016,0,0,0,3.7-2.6c.6-4.9,1.7-9.1,1.4-14-.2-2.9.2-6,.3-9,.7-21.2,2.6-42.4,3.9-63.6.8-12-1.4-21.9-4.4-33.4-1.4-5.3-3.9-9.7.3-13.9,3-2.9,9.5-4.7,13.5-4.5,5.3.2,12.3,3.6,15.4,8.8,2.1,3.6-3.5,13-4.5,16.8-4.5,16.1-.8,32.2-.8,48.5,0,14.2-1.1,28.3-.3,42.5.3,6.7,2.5,13.5,3.5,20.2,1,6.3,6.1,6.2,13.7,4.5,5.5-1.2,12-3.1,15.2-8h0c-.3-4.5-.7-8.9-1.2-13.3-.7-6.8-3.9-12.4-3.6-19.4.7-17.4,1.2-36.3.5-53.7-.4-10,4.3-22.3-2.9-31-6.1-7.3-15-12-23.7-16.3-11.7-5.9-20.3-5.1-30.5,2.7-8.9,6.8-18.2,14.2-22.2,24.4-2.3,5.9-2.6,12.3-2.9,18.6C419.231,637.1,422.931,652.5,423.931,666.5Z"/><path class="f" d="M476.231,704.9h-.6v.9l.8-.8.2-.2A.756.756,0,0,0,476.231,704.9Z"/><path class="g" d="M455.931,658.5l4.5,8.8a57.778,57.778,0,0,0,46.9-16.2,10.537,10.537,0,0,0,2.7-3.9,10.208,10.208,0,0,0,0-4.6c-1.3-8.6-2.6-17.1-3.9-25.7-1.3-8.5-2.8-17.5-8.3-24-2.9-3.5-10.9-13-13.1-5-1.6,5.9-3.3,11.8-3.6,17.9a79.546,79.546,0,0,0,.5,10.9c.4,5,.8,10,1.3,15,.2,2.4,2.1,7.7,1,10a4.714,4.714,0,0,1-1.9,1.5c-.7.4-1.5.8-2.2,1.2C472.331,648.4,463.231,653.9,455.931,658.5Z"/><path class="a" d="M449.931,670.7a2.533,2.533,0,0,0,1,1.7c1.5,1,3.1-.7,4.4-1.9a9.535,9.535,0,0,1,7.2-2.5,17.324,17.324,0,0,0-5.5-9.6,29.063,29.063,0,0,0-3.9,1.2A11.5,11.5,0,0,0,449.931,670.7Z"/><path class="a" d="M445.031,564.4a3.049,3.049,0,0,0,.3,1.6c2.5,6.6,5.4,13.4,11.1,17.4a10.724,10.724,0,0,0,7.3,2.2,12.834,12.834,0,0,0,4.9-1.9c2.8-1.6,5.7-3.4,7.2-6.2a13.78,13.78,0,0,0,1.3-3.9,32.5,32.5,0,0,0,.5-11.2,20.988,20.988,0,0,0-1.3-5.5,19.641,19.641,0,0,0-1.5-3.3,5.152,5.152,0,0,1-2.7,1.5c-2.4.6-5-.3-7.2-1.2-2.5-1-4.9-2.3-7.4-3.3-1.8-.8-4.1-1.6-5.9-.3a1.565,1.565,0,0,1-2.2,0,29.492,29.492,0,0,0-2.5,2.5,13.566,13.566,0,0,0-.6,2.9c-.2,2.5.4,5.2-.6,7.5-.1.1-.2.2-.2.3A9.009,9.009,0,0,0,445.031,564.4Z"/><path class="c" d="M445.531,563.2c-.8-6.8.1-16.1,9-17.5.7-.1,1.7.1,1.9.8.2.9-.7,1.4-1.5,1.8-3.6,1.8-4.2,5-4.3,8.7,0,.8.2,5.6,0,6.4-.4,1.6-4,0-5.1-.2Z"/><path class="g" d="M466.531,655.5a3.961,3.961,0,0,1,1.6,5.3l-3.2,6.2c-2.8,5.4-28.5-3.9-32.2-5.7-12.6-6.2-16.1-13.1-16.2-27.4,0-13,2.5-31,11.1-41.2,2.3-2.8,6-6.4,9.4-7.7,4.5-1.8,5.3,2.3,5.7,6.6,1.6,16.4-.8,31.9-1.4,48.2a3.591,3.591,0,0,0,.2,1.8,4.713,4.713,0,0,0,1.9,1.5c.7.4,1.5.8,2.2,1.2C452.031,647.8,459.931,651.7,466.531,655.5Z"/><path class="a" d="M475.03,673.1c-2.8,2-4.8,1.2-5.6-.5-.6-1.3-3.3-3.5-5-3.5a1.216,1.216,0,0,1-1.2-1.2,6.977,6.977,0,0,1,.7-4,14.349,14.349,0,0,1,2.9-3.6,3.588,3.588,0,0,1,1.4-1c1-.3,3.7,1.2,4.7,1.6C478.631,663,479.531,669.7,475.03,673.1Z"/><path class="h" d="M461.431,597.7c-.3,9.5,1.4,19,5.5,27a37.912,37.912,0,0,0,4.4,6.6c1,.9,2.1,1.9,3.2,2.8,1.7,1.6,3.6,3.3,5.5,5.2l.7.7a29.2,29.2,0,0,1,6.3,9.5c.8-2.3,1.6-4.6,2.5-6.8-.2-5.8-3.4-10.5-6.6-14.4-1.7-2-3.3-3.9-5-5.8-.8-.8-1.6-1.6-2.3-2.4a47.1,47.1,0,0,1-4.4-5.6c-.6-.7-1.1-1.4-1.7-2.2-3.3-4.5-6.2-10-6.5-16.1.3-.3.6-.7.9-1a.349.349,0,0,0,.2-.1,5.439,5.439,0,0,0,1.4-2.4,19.181,19.181,0,0,0-2.7-4.6,37.913,37.913,0,0,1-3,4A18.013,18.013,0,0,0,461.431,597.7Zm.3-6.2c.1.2.1.5.2.7v.3C461.831,592.2,461.831,591.8,461.731,591.5Z"/><path class="i" d="M466.13,670.8a8.637,8.637,0,0,1,1.6,1l.4.3.3.3c.2.2.4.5.6.7a8.635,8.635,0,0,1,1,1.6,3.552,3.552,0,0,1,.4.9l.3.9c.1.3.1.7.2,1l.2,1,.6,4h.4l-.4-4-.1-1c-.1-.3-.1-.7-.2-1s-.2-.7-.3-1a4.178,4.178,0,0,1-.4-1,16.183,16.183,0,0,0-1-1.8,5.714,5.714,0,0,0-.7-.8c-.1-.1-.2-.3-.3-.4l-.4-.4a10.383,10.383,0,0,0-1.7-1.2c-.3-.2-.7-.3-1-.5-.3-.1-.7-.2-1-.3a2.959,2.959,0,0,0-1-.2,4.1,4.1,0,0,0-1.1-.1h-1.6l-.5.1a4.332,4.332,0,0,1-.5.1c-.1.1-.3.1-.5.2a4.18,4.18,0,0,0-1,.4,18.77,18.77,0,0,0-1.8,1.2,10.871,10.871,0,0,0-2.7,3.3c-.1.3-.3.7-.4,1l-.2.5-.2.5a15.52,15.52,0,0,0-.4,2.1h0v.1c.1,5.1.2,10.2.4,15.2l.4,15.2.4,15.2.2,7.6.2,7.6c0,2.6.1,5.1.2,7.6.1,2.6.2,5.1.3,7.6.1,2.6.2,5.1.4,7.6l1.3,43,.1,1.4h3.5v-1.6l-1-43c0-2.6-.1-5.1-.2-7.6-.1-2.6-.3-5.1-.4-7.6-.2-2.6-.3-5.1-.5-7.6l-.5-7.6-.5-7.6-.9-15.1-.9-15.1c-.3-5-.6-10.1-.9-15.1a11.019,11.019,0,0,1,.2-1.8l.1-.5.1-.4.3-.9a5.072,5.072,0,0,1,.9-1.6,5.263,5.263,0,0,1,1.2-1.4,4.349,4.349,0,0,1,.7-.6l.4-.3.4-.2a2.01,2.01,0,0,1,.8-.4.758.758,0,0,1,.4-.2c.1,0,.2-.1.4-.1l.5-.1a.6.6,0,0,1,.4-.1l.5-.1h.5a2.718,2.718,0,0,1,.9,0c.3,0,.6.1.9.1a2.921,2.921,0,0,1,.9.2A5.976,5.976,0,0,1,466.13,670.8Z"/></g></svg>