<svg xmlns="http://www.w3.org/2000/svg" width="89.255" height="219.279" viewBox="0 0 89.255 219.279"><defs><style>.a{fill:#feb6b9;}.b{fill:#ff6e8b;}.c{fill:#dfecfe;}.d{fill:#bacce0;}.e{fill:#5193a2;}.f{fill:#f7a09c;}</style></defs><g transform="translate(-1184.676 -117.487)"><path class="a" d="M1216.831,255.9c-2.2.9-4.4,1.8-6.6,2.9a61.884,61.884,0,0,0-9,5.2,18.568,18.568,0,0,0-2.7,2.2c.6,1.6,1.2,3.2,1.8,4.9,0,.5.1,1,.1,1.5a30.47,30.47,0,0,1-2.2,12.3,239.67,239.67,0,0,1-10.5,22.4h0a26831.258,26831.258,0,0,1-1.6,3c-.7,1.3-1.7,3.1-1.4,5.1a8.356,8.356,0,0,0,1.5,3.3,25.949,25.949,0,0,0,9.7,8,3.08,3.08,0,0,0,1.3.3,2.935,2.935,0,0,0,1.6-.4l.5-.5a3.288,3.288,0,0,0,.8-2,7.058,7.058,0,0,0-.6-2.8c-.4-1.3-1.7-2.6-2.3-3.8-.1-.2-1.5-.4-1.5-.6h0c0-1.8-.5-3.4-.3-4.9.2-.9,1.9-1.8,2.5-2.8,2.2-3.3,4.5-6.4,6.8-9.4,5.5-7.3,11.3-14.9,13.5-24.8C1219.531,269.3,1218.331,262.1,1216.831,255.9Z"/><path class="a" d="M1248.931,330.9c.1,1.8-2.7,3.4-1.4,4.5l.4.3.4.1a36.383,36.383,0,0,0,5.9.9,35.5,35.5,0,0,0,5.6-.1h.6a3.554,3.554,0,0,0,1-.2,17.323,17.323,0,0,1,2-.4c.8-.1,1.5-.3,2.1-.4h.2c.3-.1.5-.2.8-.3l.2-.1.2-.1a3.189,3.189,0,0,0,1.4-2.7,3.646,3.646,0,0,0-1.5-2.9,27.137,27.137,0,0,0-5.1-2.6c-.7-.3-1.5-1.5-2.2-1.5h0a4.13,4.13,0,0,1-4.1-2.8c-1.9-7.6-1.5-18.4-1.2-28.4.2-5.7.4-11,.2-15.4-.1-2.5-.1-4.1-.1-5.5a65.663,65.663,0,0,0-.4-7.9,182.23,182.23,0,0,0-3.1-19.9l-.3-1.5-1.5.1a11.484,11.484,0,0,0-1.9.1c-5.7.3-11.7.5-16.8,2.8l-1.3.6.4,1.4c.6,2.6,1.2,5.3,1.7,7.9.8,4.1,1.7,8.2,2.9,12.3.6,2.3,1.3,4.2,1.9,5.9a59.863,59.863,0,0,1,3.4,13.2c.3,2.2,1.1,5,1.4,7.9a149.159,149.159,0,0,0,4.4,22.3c0,.1,1.8,6.2,1.8,6.3,1,3.4,2.7,6.6,2.7,10.4"/><path class="b" d="M1220.331,164.7c4.8,2.3,43.8,1.2,38.7-8.3-2.6-4.8-6.2-9.6-5.9-15.2.2-4.4,3-8.7,2-13-.9-3.9-4.5-6.2-7.9-7.8-13.8-6.5-24.1-1.7-32.1,10.2C1207.331,142.3,1205.731,157.9,1220.331,164.7Z"/><path class="a" d="M1199.631,199.7c3.9-11.4,9.5-22.1,19-29.2,2-1.5,4.7-2.8,6.9-1.7,3,1.5,2.7,5.9,1.7,9.2a99.074,99.074,0,0,1-8.2,19.6c-1.7,3.2-3.6,6.3-5.4,9.4a45.779,45.779,0,0,0-2.8,5.4c-.2.4-.3.8-.5,1.2h0a126.381,126.381,0,0,0-4.3,13.6,147.807,147.807,0,0,1-9.3,23.9,6.485,6.485,0,0,1-1.6,3.2l-.3.6.2-.4c-2.4,2.9-6.7,4.2-10.1,2.5,3.2-13,6.5-26.1,9.7-39.2C1196.131,211.8,1197.731,205.7,1199.631,199.7Z"/><path class="c" d="M1227.431,178.1a99.074,99.074,0,0,1-8.2,19.6c-.8,1.3-1.6,2.7-2.4,4.1a6.4,6.4,0,0,0-3.4-.9c-5.3-.1-9.6-1.1-12.1-5.5,3.8-9.7,9.1-18.6,17.4-24.8,2-1.5,4.7-2.8,6.9-1.7C1228.631,170.4,1228.331,174.8,1227.431,178.1Z"/><path class="a" d="M1244.531,213.3c-4.3-11.3-7-23-4.2-34.6.6-2.5,1.8-5.2,4.2-5.8,3.3-.8,5.8,2.8,7.2,5.9a100.752,100.752,0,0,1,6.3,20.2c.7,3.6,1.2,7.2,1.9,10.7.4,2,.8,4,1.4,6,.1.4.3.8.4,1.2h0c1.4,4.6,3.5,8.8,5.4,13.2,3.4,7.8,4.2,12.2,6.2,20.5,1.7,6.7-.4,9.1-3.9,14.9-2.3-3.3-4.9-7.1-5.4-11.2-.2-1.3,1.1-5.2.7-6-1-2-2.7-1.5-3.9-3.1-4.5-5.7-5.2-8-8.6-14.9C1249.531,224.8,1246.831,219.1,1244.531,213.3Z"/><path class="d" d="M1243.531,210.7c-3.7-10.4-5.7-21.2-3.2-31.8.6-2.5,1.8-5.2,4.2-5.8,3.3-.8,5.8,2.8,7.2,5.9a100.752,100.752,0,0,1,6.3,20.2c.7,3.1,1.1,6.3,1.7,9.4A21.361,21.361,0,0,1,1243.531,210.7Z"/><path class="c" d="M1257.031,291.1c-6.8,4.4-18.3,1.5-25.5-.1a162.669,162.669,0,0,1-24.5-7.9c-8.8-3.5-12.6-5.7-19.4-12.2a6.314,6.314,0,0,1-2.2-3.4c-.2-1.9,6.7-9.4,7.9-12.2,2.9-6.7,6.2-13.4,9.2-20.1,5.7-12.7,8.9-25.7,11.5-39.3,1.9-10,3.8-28.9,16.1-31.9,8.5-2,18,9.3,21.3,15.8,1.9,3.7,1.9,8.1,1.7,12.3-.9,16.2-1.5,29.9,2.3,46.1,2.1,8.7,5.1,17.2,6.6,26.1.8,4.6,1.5,11.3.5,17C1261.731,285.4,1260.131,289.1,1257.031,291.1Z"/><path class="a" d="M1229.731,144.4l1.3-9.4s12,3,19-3.3c0,0,6,22-5.2,29.5-3.2,2.1-10.1,0-10.1,0v.4a27.968,27.968,0,0,1-8.2-7.5A25.257,25.257,0,0,0,1229.731,144.4Z"/><path class="a" d="M1229.531,145.3c.3,0,0,.5-.2.4-.3,0-.4-.3-.4-.6-.1-1.2,1.1-2.3,2.3-2.6a6.714,6.714,0,0,1,3.7.3,32.909,32.909,0,0,1,6.8,2.6,6.8,6.8,0,0,1,2.9,2.1c1.9,2.6.6,6.1-.1,9.2-1.6,6.5-.3,13.3.9,19.9a33.352,33.352,0,0,1-20-6.4c5.5-7.7,7.2-12,5.6-21.3Z"/><path class="e" d="M1266.631,329.3a27.134,27.134,0,0,0-5.1-2.6c-.7-.3-1.5-1.5-2.2-1.5h0c-4.5,0-5.4.8-9.8,1.1a13.207,13.207,0,0,0-.2,2.8h0v1.1l-.4.5c.1,1.8-2.7,3.4-1.4,4.5l.4.3.4.1a36.387,36.387,0,0,0,5.9.9,35.49,35.49,0,0,0,5.6-.1h.6a3.555,3.555,0,0,0,1-.2,17.322,17.322,0,0,1,2-.4c.8-.1,1.5-.3,2.1-.4h.2c.3-.1.5-.2.8-.3l.2-.1.2-.1a3.189,3.189,0,0,0,1.4-2.7A3.358,3.358,0,0,0,1266.631,329.3Z"/><path class="f" d="M1187.931,307.3c-.3.5-.5,1-.8,1.5a10.933,10.933,0,0,0,.8-1.5Z"/><path class="f" d="M1186.831,306.5l.9,1A1.789,1.789,0,0,0,1186.831,306.5Z"/><path class="e" d="M1200.131,322.2c-.1-.3-.4-.5-.5-.8-.4-1.3-1.7-2.6-2.3-3.8-.1-.2-1.5-.4-1.5-.6h0c-1.6-3.6-5.4-6.6-9-9.6h1.1a10.933,10.933,0,0,0-.8,1.5,10.932,10.932,0,0,1-.8,1.5c-.7,1.3-1.7,3.1-1.4,5.1a8.355,8.355,0,0,0,1.5,3.3,25.194,25.194,0,0,0,9.7,8,3.079,3.079,0,0,0,1.3.3,2.934,2.934,0,0,0,1.6-.4c.2-.2.4-.3.6-.5a2.975,2.975,0,0,0,1-2A4.551,4.551,0,0,0,1200.131,322.2Z"/></g></svg>