<svg xmlns="http://www.w3.org/2000/svg" width="102.133" height="295.031" viewBox="0 0 102.133 295.031"><defs><style>.a{fill:#feb6b9;}.b{fill:#f6be8f;}.c{fill:#41657c;}.d{fill:#6cceff;}.e{fill:#dfecfe;}.f{fill:#3093d0;}.g{fill:#b2adaa;}.h{fill:#9e5d4e;}.i{fill:#ff6e8b;}.j{fill:#e96c5a;}.k{fill:#ffe7e4;}</style></defs><g transform="translate(-1085.758 -740.714)"><g transform="translate(71.926 215.944)"><path class="a" d="M1099.531,664.3a7.561,7.561,0,0,1,1,4.1c-.2,1.5-1.2,2.7-1.7,4a6.622,6.622,0,0,0,2.9,7.8,1.323,1.323,0,0,0,1.2.2c.1-.1.2-.1.2-.2.5,1.9,1,3.7,1.5,5.6a8.6,8.6,0,0,0,7.3-7.6,13.527,13.527,0,0,0-2.7-10.3,11.226,11.226,0,0,1-2-3,8.1,8.1,0,0,1-.1-3.1c1.1-12.4-1.4-24.9-5.5-36.7a1.794,1.794,0,0,1-.5-.7c-.5-1.3-1.4-1.2-2.6-.8a26.093,26.093,0,0,0-5.2,2.8c-1.6,1.1-3.4,2.4-5.3,3.5a3.291,3.291,0,0,0-1.6,3.7,42.891,42.891,0,0,0,1.9,5C1092.231,647.2,1096.031,655.7,1099.531,664.3Z"/></g><g transform="translate(71.926 215.944)"><path class="b" d="M1098.731,783.6l4.2,21.7v.6a4.325,4.325,0,0,0,.5,1.2c.1.1.1.2.2.3a4.443,4.443,0,0,0,1.1.8l9.5,4a2.754,2.754,0,0,1,1.6,2.9,2.59,2.59,0,0,1-2.6,2.2h-.3l-18.2-1.9a3.811,3.811,0,0,1-3.5-3.8l-.1-5-4-24.8Z"/></g><g transform="translate(71.926 215.944)"><path class="c" d="M1093.631,806.4a38.087,38.087,0,0,1,10.1,1,4.442,4.442,0,0,0,1.1.8l9.5,4a2.754,2.754,0,0,1,1.6,2.9,2.59,2.59,0,0,1-2.6,2.2h-.3l-18.2-1.9a3.811,3.811,0,0,1-3.5-3.8l-.1-5A8.968,8.968,0,0,1,1093.631,806.4Z"/></g><g transform="translate(71.926 215.944)"><path class="b" d="M1048.931,798.6V808c0,.2,1.1.4,1.1.6-.1.4.8.9.6,1.2-.1.1-.1.2-.2.3a3.134,3.134,0,0,1-1.1.8l-9.6,3.9a2.558,2.558,0,0,0-1.6,2.8,2.59,2.59,0,0,0,2.6,2.2h.2l18.1-1.7a3.725,3.725,0,0,0,3.4-3.8l-.2-5-.3-10.9Z"/></g><g transform="translate(71.926 215.944)"><path class="c" d="M1060.531,809.1a42.688,42.688,0,0,0-10.1.9,3.135,3.135,0,0,1-1.1.8l-9.6,3.9a2.558,2.558,0,0,0-1.6,2.8,2.59,2.59,0,0,0,2.6,2.2h.3l18.2-1.7a3.89,3.89,0,0,0,3.5-3.8l.1-5A8.684,8.684,0,0,0,1060.531,809.1Z"/></g><g transform="translate(71.926 215.944)"><path class="d" d="M1035.731,717c.8,3.4,2.2,6.8,2.2,10.3-.2,15.1-1.3,18.8,1.3,33.8,2.4,14.1,3,28.1,5.5,42.2a4.914,4.914,0,0,0,2.6,3.5c4,1.9,8.7,1.3,12.1.4a4.945,4.945,0,0,0,3.7-5.4c-1.9-16.2-.8-65.6,1.9-109.3l10.1,30.3c6.6,15.4,4.3,31.4,6.9,48l1.6,32.2a1.638,1.638,0,0,0,1,1.5c5.9,3.1,14.3,1.4,17.8.5a1.993,1.993,0,0,0,1.5-2.2l-2.3-60.4c-1.6-11.5,1.4-23-1.9-34.1-2.1-6.9,1.3-13.5-.4-20.5a73.515,73.515,0,0,1-2-11.4c-.2-2.3.9-7.1-.5-9-1.6-2.1-9.9.4-12.6.2-5.9-.4-11.9-.9-17.9-1.3-8.9-.7-18.9-9.4-27.4-9.6a108.661,108.661,0,0,1-1.2,13.8c-.1.5-.1,1-.2,1.5C1037.531,684.9,1035.031,704.2,1035.731,717Z"/></g><g transform="translate(71.926 215.944)"><path class="e" d="M1098.731,659c1.8.8,2.6,3.4,4.6,3.4a3.371,3.371,0,0,0,1.7-.5,16.329,16.329,0,0,0,7.3-9.7c1.2-4-5.1-30-5.5-34.1-1.7-15.3-10.2-34.2-24.8-41.2Z"/></g><g transform="translate(71.926 215.944)"><path class="f" d="M1023.031,610.4c-.5-3.4-1.8-6.7-2.7-10.1-.8-3.3-1.1-7.1.4-10.2a17.883,17.883,0,0,1,3.6-4.6c9.1-9.4,21.6-16.9,35.2-15.9a34.035,34.035,0,0,1,7.7,1.6c.5.2,1.1.3,1.6.5,4.7,1.6,10.5,2.6,14.1,6.1,3.7,3.6,6.2,8.5,7.9,13.3,4.6,13.4,4.9,28,5,42.1,0,5.7.6,11.3,1,17,.1,2.4-.2,5.4.6,7.7,1.2,3.6,3.8,7.8-1.7,9.9l1-.2c-4.3.7-8.6,3.5-12.9,4.5a61.387,61.387,0,0,1-13.5,1.5c-8.9,0-17-3.1-25.8-3.9-8.1-.7-9.7-2.3-8.5-10.7,1.2-8.7-.1-16.9-2.4-25.3-1.5-5.5-6.6-13.8-6.5-19.3-1.5-4-2.9-7-3.9-10.4a30.91,30.91,0,0,1-1.2-7.3,15.978,15.978,0,0,1,.8-7.5,24.3,24.3,0,0,1,7.2-9.5Z"/></g><g transform="translate(71.926 215.944)"><path class="e" d="M1036.731,575.2a68.953,68.953,0,0,1,7-3.9c4.9-2.3,10.2-3.9,15.7-3.5,7.1.6,9.2,2,9.3,9.1a55.171,55.171,0,0,1-2.9,18c-.4,1.1-.8,2.2-1.2,3.2a5.093,5.093,0,0,1-2,2.7c-1.6.8-3.4-.2-4.9-1.2-1.6-1.1-3.2-2.1-4.7-3.2-6.6-4.5-12.9-9.4-17.4-16-.9-1.3-1.4-2.1-1.4-2.7C1034.231,576.9,1034.931,576.3,1036.731,575.2Z"/></g><g transform="translate(71.926 215.944)"><path class="g" d="M1067.831,539a2.921,2.921,0,0,0,.2.9,23.812,23.812,0,0,1-1.3,8.8,18.628,18.628,0,0,1-1,2l-.1-.8c1-3.5-.9-7.1-2.5-10.3-1.6-3.3-3.1-7.2-1.5-10.4a4.349,4.349,0,0,1,.4-.7,14.876,14.876,0,0,1,5.9,6.3v1.5C1067.931,537.2,1067.831,538,1067.831,539Z"/></g><g transform="translate(71.926 215.944)"><path class="g" d="M1068.731,532.2l.3.6a11.226,11.226,0,0,1-1.6,2.2,15.461,15.461,0,0,1-2.4,2.7l-.3-.3c-.9.8-1.6,1.6-1.1,3.1-2.6.2-5.4.6-7.1,2.9-1.8,2.5-1.4,7.1-1.7,10.1-.2,1.8-.5,3.8-1.9,5a6.046,6.046,0,0,1-3,1.1c-1.3.2-3.7,1-5.1.6-1.5-.5-1.4-9.7-2.5-11.2-1.4-2-4.2-3-4.7-5.3-.7-2.8,2.4-5.4,2-8.2a10.623,10.623,0,0,1-.4-1.9c0-1.5,1.5-2.6,2.8-3.4,6-3.5,13.8-7.5,20.6-4.2a11.8,11.8,0,0,1,6.7,11.7c-.3,3.4-2.1,6.5-2.6,9.8Z"/></g><g transform="translate(71.926 215.944)"><path class="h" d="M1066.831,542.9l-1.7-.2A8.8,8.8,0,0,1,1066.831,542.9Z"/></g><g transform="translate(71.926 215.944)"><path class="a" d="M1068.431,550.9c.3,2.5-.3,9.2-2,11.7-1.8,2.7-6.7,6.8-19.4-7.8-.6-1.4-3.2-4-3.1-5.3,2.1-1.2,3.4-.6,3.5-3.4,0-2.4-.9-4.6.2-7.1,0-.1.1-.1.1-.2a29.715,29.715,0,0,0,6.8-3.1c2-1.1,4.1-2.2,6.4-2C1066.331,535.9,1067.731,546.2,1068.431,550.9Z"/></g><g transform="translate(71.926 215.944)"><path class="a" d="M1065.031,577.8a2.03,2.03,0,0,1-1.1,1.3,19.22,19.22,0,0,1-13.9,1.9c-3.3-.8-7.6-1.9-7.4-5.7.3-4.4,2-9,2.6-13.5.3-2.5.5-4.9.8-7.3.1-1,0-4.3.6-4.9a1.613,1.613,0,0,1,.9-.3,13.41,13.41,0,0,1,4.4,1c1.7.6,3.3,1.2,4.9,1.8a6.37,6.37,0,0,1,1.8,1c1.2,1,1.2,2.7,1.6,4.1a20.194,20.194,0,0,1,.3,4.9,28.012,28.012,0,0,0,4.1,14.6A1.374,1.374,0,0,1,1065.031,577.8Z"/></g><g transform="translate(71.926 215.944)"><path class="g" d="M1043.431,548.7c-1.7-6.5,1.6-13.9,7.2-16.5-2.4,2.3-2.7,6.2-2.1,9.7.3,2.1.9,4.2,1.2,6.3a2.577,2.577,0,0,1-3,3,13.327,13.327,0,0,0-2.8-.3,7.836,7.836,0,0,0-.2-1.4A2.614,2.614,0,0,1,1043.431,548.7Z"/></g><g transform="translate(71.926 215.944)"><path class="g" d="M1048.131,534.1c-.8.5,4.6-2,5.3-1.6a6.491,6.491,0,0,0,2.6.8c-4.6-.9,15.6,15.9,6.9,4.6-.5-.6,4.9,6.4,4.4,7a12.068,12.068,0,0,0,2.9-5.6c.5-3-1-8.2-4.6-8.5a4.734,4.734,0,0,1-1.7-.1c-1.5-.4-2-2.2-3.2-3.1-2-1.5-4.9-.4-6.9,1a27.079,27.079,0,0,0-5.7,5.5Z"/></g><g transform="translate(71.926 215.944)"><path class="e" d="M1040.931,580.9a18.044,18.044,0,0,0,5.4,5.6,37.515,37.515,0,0,0,9.5,5c1.5.6,3.2,1,4.6.3a4.861,4.861,0,0,0,1.7-1.5,18.153,18.153,0,0,0,4.2-8.7,13.191,13.191,0,0,0-1.2-8.3h-.1a4.007,4.007,0,0,1-2.3-.8,66.985,66.985,0,0,1-4.5,6,4.774,4.774,0,0,1-2.2,1.8,5.059,5.059,0,0,1-2.7-.2,34.889,34.889,0,0,1-11.3-5.5c-.4.2-.8.5-1.2.7a4.052,4.052,0,0,0-.9.5A9.741,9.741,0,0,0,1040.931,580.9Z"/></g><g transform="translate(71.926 215.944)"><path class="i" d="M1055.231,584.4c.4-.4.9-.8,1.4-1.3h0a21.421,21.421,0,0,1,1.9,1.3,3.178,3.178,0,0,1,1.2,1.1,2.4,2.4,0,0,1-.2,2.3,2.736,2.736,0,0,0,.4,3.2c1.4,1.5,2.9,2.9,4.4,4.3a2.746,2.746,0,0,1,.7,3,7.84,7.84,0,0,1-.5,1.4,5.245,5.245,0,0,1-2,2.6c-1.6.8-3.4-.2-4.9-1.2-1-.6-1.9-1.2-2.8-1.8a2.849,2.849,0,0,1-1-3.4,31.386,31.386,0,0,1,1.9-4.1,2.768,2.768,0,0,0-.6-3.4h0A2.6,2.6,0,0,1,1055.231,584.4Z"/></g><g transform="translate(71.926 215.944)"><path class="j" d="M1049.731,600a1.446,1.446,0,0,1-.2-.7C1049.531,599.1,1049.631,599.5,1049.731,600Z"/></g><g transform="translate(71.926 215.944)"><path class="k" d="M1074.831,636"/><path class="e" d="M1057.631,635.5c-1,1.4-2.7,3.9-3.6,5.4-3.7,6.1-4.2,10.4-10.7,13.5a30.471,30.471,0,0,1-11,3.3c-3.7.3-8.5-.3-11.1-3.1-3.1-3.2-4.3-8.7-5.2-12.9a87.287,87.287,0,0,1-1.3-31.8,68.366,68.366,0,0,1,4.1-16.6c2-4.7,6.4-16.3,13.2-9.4,3.4,3.5,4.5,8.6,5.1,13.4,1.6,12,3.5,25.5,1.3,37.5,5.4-3.3,5.5-4.4,9.9-7.6,0-.1,7.5-.2,7.6-.2h0"/></g><g transform="translate(71.926 215.944)"><path class="b" d="M1054.731,630.7l.1-.2h0A.31.31,0,0,1,1054.731,630.7Z"/></g><g transform="translate(71.926 215.944)"><path class="a" d="M1045.031,549.1a2.734,2.734,0,0,0-.8,3.8,2.8,2.8,0,0,0,3.6,1.5,2.734,2.734,0,0,0,.8-3.8A2.8,2.8,0,0,0,1045.031,549.1Z"/></g><g transform="translate(71.926 215.944)"><path class="c" d="M1074.631,610.8c-.2,4.1-.1,8.2.1,12.2a3.89,3.89,0,0,1-.7,3,3.166,3.166,0,0,1-2.3.7c-1.3,0-2.7.1-4.1.2a2.751,2.751,0,0,1-1.8-.2c-.9-.5-1.2-1.8-1.4-2.9a110.316,110.316,0,0,1-1.6-15.2,3.733,3.733,0,0,1,.3-2.1c.5-1,1.8-1.2,2.9-1.3,1.6-.2,3.2-.3,4.8-.5a3.966,3.966,0,0,1,3.2.7c1.4,1.4.3,3.7.6,5.4Z"/><path class="a" d="M1047.931,627.3a15.918,15.918,0,0,0,2.8,5.5,7.313,7.313,0,0,0,4.7,3,4.878,4.878,0,0,0,1.7-.1c1.2-2.8,2.2-5.7,3.4-8.5a6.883,6.883,0,0,1,.2-1.3,6.47,6.47,0,0,1,.4-2c.6-.7,2.4-.8,3.2-1.2a24.644,24.644,0,0,0,3.4-2.2,13.674,13.674,0,0,0,2.2-1.9,9.136,9.136,0,0,0,2.2-7.8c-4.6,1.1-9.3,2.4-13.4,5.1C1054.631,618.7,1050.931,623.1,1047.931,627.3Z"/></g></g></svg>