<svg xmlns="http://www.w3.org/2000/svg" width="78.823" height="243.561" viewBox="0 0 78.823 243.561"><defs><style>.a{fill:#9e5f4b;}.b{fill:#e4e9ff;}.c{fill:#feb6b9;}.d{fill:#f6be8f;}.e{fill:#f67b6b;}.f{fill:#856c58;}.g{fill:#feac96;}.h,.i{fill:#41657c;}.i{opacity:0.4;isolation:isolate;}</style></defs><g transform="translate(-52.074 -83.967)"><path class="a" d="M90.831,104.3a3.548,3.548,0,0,0,2.2-2.7,4.624,4.624,0,0,0-.4-2.6,15.383,15.383,0,0,0-9.1-8.9,2.126,2.126,0,0,0-1.9-.1c-.9.5-.7,1.8-.2,2.7s1.2,1.8.9,2.8c-.3,1.2-2,1.5-3.2,1.2s-2.2-1.2-3.4-1.6a5.549,5.549,0,0,0-5.3.8,4.01,4.01,0,0,0-1,4.9,7.6,7.6,0,0,0-7.7,3.2,12.011,12.011,0,0,0-1.5,8.3c1.3,8.1,9.3,14.7,17.8,14.6a8.6,8.6,0,0,0,4.7-1.1,4.231,4.231,0,0,0,2.1-4c-.2-1.5-1.5-3.2-.3-4.3a3.115,3.115,0,0,1,1.8-.7,8.635,8.635,0,0,0,6.1-5.9,19.645,19.645,0,0,0,.4-8.7Z"/><path class="b" d="M86.631,123.6a23.144,23.144,0,0,1,4.2,7.9c1.6,4.9,2.2,10.1,3.1,15.2,2.4,13,7.6,25.2,13.2,37.2,2.4,5.4,4.9,10.6,7.3,16a19.565,19.565,0,0,1,1.3,4.1,3.435,3.435,0,0,1,.1,1c2.2-.2,4.4-.7,5.8-2.1-.3-2.9-.7-5.8-1-8.7a88.156,88.156,0,0,0-2.1-12.5,8.414,8.414,0,0,0-.4-1.5c-1.4-4.5-3.6-8.6-5.1-13-1.8-5.5-2.5-11.4-3.2-17.2-.6-3.6-1.2-7.2-1.9-10.7-.9-4.2-2.1-8.4-5-11.6a7.518,7.518,0,0,0-1.5-1.6,14.565,14.565,0,0,0-5.5-2.5C92.931,122.9,89.631,123.6,86.631,123.6Z"/><path class="c" d="M114.831,204.5c.9-2.5,3.6-3.8,5.7-2.7,1.6.9,2.6,2.7,3.5,4.5.7,1.4,1.5,2.9,2.2,4.3a4.842,4.842,0,0,1,.7,1.8c.3,2.3-2.1,3.8-4,3.4-4.5-.9-6.9-7.5-6.5-13.1Z"/><path class="d" d="M101.431,177.9s-1.4-6.5-.4-11.8c-1.8.1-3.6.9-5.4,1.2a23.32,23.32,0,0,1-5.3.2c-8-.3-16-.6-23.9-.9a3.284,3.284,0,0,0-2.2.5c-1.5,1.4,1.5,14,2.5,15.4.6.8-.1-5.8.9-5.4a43.494,43.494,0,0,0,13.8,2.8C85.931,180.1,101.431,177.9,101.431,177.9Z"/><path class="e" d="M72.631,124.4l-.6-.8.2-.2A6.9,6.9,0,0,1,72.631,124.4Z"/><path class="c" d="M70.531,279.6c-.4,5.4-.5,12.1.3,25.9a59.87,59.87,0,0,0,.7,9.5l.3,1.8c.1.6.1,1.3.2,2a50.318,50.318,0,0,0,.8,5.6,2.469,2.469,0,0,0,.8,1.6,2.618,2.618,0,0,0,1.7.5c3.8.3,6,.7,9.9,1,1.4.1,3.2,0,3.6-1.4s-1.1-2.5-2.3-3.2a35.8,35.8,0,0,1-3.9-2.9,18.575,18.575,0,0,1-1.9-1.1l-.1-.1a2.092,2.092,0,0,1-.4-.6,5.7,5.7,0,0,1-.4-2.2c-.3-5.1,1.4-20,3.3-35.5Q76.831,279.9,70.531,279.6Z"/><path class="f" d="M72.031,319.6h8.6l.1-.4c.3.5,1.4.3,1.9.7,1.9,1.5,1.7,1.7,3.9,2.9,1.2.7,2.7,1.8,2.3,3.2-.4,1.3-2.2,1.5-3.6,1.4-3.8-.3-6-.6-9.9-.9-.6-.1-1.3,0-1.7-.4a1.826,1.826,0,0,1-.8-1.3c-.5-1.8-.6-5.1-.8-5.1Z"/><path class="g" d="M77.93,213.1c17.5,24.1,23.5,59.8,30.8,88.7,2,8.3,2.6,8.1,2.6,8.1,2.8,2.2,11.3.8,11.1-2.4,0-1.1.3-2.2.2-3.3-3.4-42.5-13.8-84.4-21.2-126.4a3.672,3.672,0,0,0-.9-2c-.5-.5-1.3-.4-2.1-.4-11,.5-22.1,1-33.2,1.5-5.6,16.2-4.9,27.3-1.6,43.6,2.3,11.4,2.9,23.1,3.4,34.8.9,19.2,1.7,38.5,2.6,57.7,1.7,1.9,10.7,3,11.6,1.7,1.6-2.1,2.4-13,2.4-17.8-.1-31.5,1-63,.9-94.5Z"/><path class="b" d="M58.431,161.1c.1.1.1.1.1.2.8,2.9,1.6,6.4,3.6,8.8.2.8.6,8.6,1,9.4a8.651,8.651,0,0,1,1.7-.7c2.3.8,5.3.7,8.1.5,1.5.4,3,1,4.6,1.4a34.351,34.351,0,0,0,13.9.9c2.2-.3,7.5-.9,9.7-3l.1-6.9h0a3.426,3.426,0,0,0,.9-1.8c.9-7.2,2.5-14.3,3.2-21.5a69.512,69.512,0,0,0,.2-12.9c-.5-5.1-.6-7.2-5.4-9.8-6.5-3.5-13.8-6.9-21.2-6.1a26.231,26.231,0,0,0-12.9,5.6c-4.1,3.1-4.8,5.3-6,10.1C58.131,143.3,56.731,152.9,58.431,161.1Z"/><path class="c" d="M111.831,309.1a47.019,47.019,0,0,1,2.1,8.9,50.318,50.318,0,0,0,.8,5.6,2.469,2.469,0,0,0,.8,1.6,2.618,2.618,0,0,0,1.7.5c3.8.3,6,.7,9.9,1,1.4.1,3.2,0,3.6-1.4s-1.1-2.5-2.3-3.2a35.8,35.8,0,0,1-3.9-2.9,18.58,18.58,0,0,1-1.9-1.1l-.1-.1a2.092,2.092,0,0,1-.4-.6,58.292,58.292,0,0,0-1.9-8.9Q116.181,308.8,111.831,309.1Z"/><path class="f" d="M114.031,319.8h8.6l.1-.7c.3.4,1.4-.1,1.9.3,1.9,1.5,1.7,1.7,3.9,2.9,1.2.7,2.7,1.8,2.3,3.2-.4,1.3-2.2,1.5-3.6,1.4-3.8-.3-6-.6-9.9-.9-.6-.1-1.3.1-1.7-.3a1.644,1.644,0,0,1-.8-1.2c-.5-1.8-.6-4.8-.8-4.8Z"/><path class="h" d="M98.831,149.9c-1.5,5.3-4.3,4.8-6.8,4.2a1.874,1.874,0,0,1-1.3-2.5c1.4-4.2,3.4-9.1,4.4-13.2a11.876,11.876,0,0,1,6.9-1.5c.9.1,1.9.4,2,1.6a2.78,2.78,0,0,1-.3,1.3l-5.7,11.4Z"/><path class="c" d="M54.631,140.9a66.883,66.883,0,0,1,2.2-6.8c.7-1.3,1.5-2.6,2.3-3.9,3.1-4.8,9.4-6.4,8.6.6-1,8.1-1.9,16.3-2.8,24.5a34.15,34.15,0,0,0,19.5-7.5,5.547,5.547,0,0,0,.8-.6c.5-.5,1.1-.9,1.6-1.4,4.4-4.1,6.2-8.1,12.9-6.9a1.854,1.854,0,0,1,.7.2c1,.6-2.8,8.7-3.8,9.5a10.389,10.389,0,0,1-3.4,1.5,20.8,20.8,0,0,1-5,.7c-.7.5-1.3.9-2,1.4-.3.2-.6.5-.9.7-4.9,4.2-9.5,8.9-14.5,12.4-4,2.8-10.9,7.8-13.9,7.6-2.7-.1-3.8-4.2-4.3-7.1a28.184,28.184,0,0,1-.5-4.3A70.959,70.959,0,0,1,54.631,140.9Z"/><path class="a" d="M104.331,98c-.5,1.8-2.1,3-3.6,4.1-2.4,1.7-4.7,3.5-7.1,5.2a15.062,15.062,0,0,1-7.3,3.2c-2.7-.7-4.6-3.2-6.1-5.8a.758.758,0,0,0-.2-.4,14.31,14.31,0,0,1-1.8-6.4,13.908,13.908,0,0,1,3-9.7,12.781,12.781,0,0,1,13.2-3.7,14.747,14.747,0,0,1,9.6,10.1A8.15,8.15,0,0,1,104.331,98Z"/><path class="c" d="M85.131,105.3a2.507,2.507,0,0,1,.7.4c-2.4-1.5,5.2-11.9,6.8-12.8,6.6-3.8,8.8.9,9.6,6.5a18.946,18.946,0,0,1-3.9,14.3.1.1,0,0,0-.1.1c-5,6.2-10.5-.7-13.1-7.4A2.045,2.045,0,0,1,85.131,105.3Z"/><path class="c" d="M79.131,122a6.042,6.042,0,0,0,3,3.1,8.034,8.034,0,0,0,4.3,1,4.917,4.917,0,0,0,3.7-2.3,9.51,9.51,0,0,0,.7-2.4c.4-2.2.8-4.5,1.2-6.7.6-3,.1-9.7-2.9-11.3a3.263,3.263,0,0,0-3-.4c-.9.4-1.2,1.5-1.5,2.4a63.47,63.47,0,0,1-4,10.2,17.678,17.678,0,0,0-1.5,3.8A5.7,5.7,0,0,0,79.131,122Z"/><path class="a" d="M84.431,99.6c.3.8-1,1.2-1.6.5a2.133,2.133,0,0,1-.1-2.3c2.1-5.6,9.1-8.9,15.1-7.1a5.3,5.3,0,0,1,3.3,2.3,3.714,3.714,0,0,1-.6,3.9,8.243,8.243,0,0,1-3.5,2.3,23.194,23.194,0,0,1-12.8,1Z"/><path class="d" d="M89.83,101.4a1.2,1.2,0,0,1,.3,2.1c-1.2.9-3.6.6-5-.6-1.3-1.2-1.3-3.3.3-3.7,1.9-.4,4,1.3,5.1,2.9Z"/><path class="b" d="M54.731,140.8a66.885,66.885,0,0,1,2.2-6.8c.7-1.3,1.5-2.6,2.3-3.9,3.1-4.8,9.4-6.4,8.6.6-1,8.1-1.9,16.3-2.8,24.5a34.15,34.15,0,0,0,19.5-7.5c.6,1.4,1.2,3,1.7,4.5-.3.2-.6.5-.9.7-4.9,4.2-9.5,8.9-14.5,12.4-4,2.8-10.9,7.8-13.9,7.6-2.7-.1-3.8-4.2-4.3-7.1a28.184,28.184,0,0,1-.5-4.3A68.987,68.987,0,0,1,54.731,140.8Z"/><path class="i" d="M101.331,170.7a.474.474,0,1,0,.9.3c.3-1.1.7-2.2.9-3.3a8.675,8.675,0,0,0,.5-2.8c-.1-.7-.4-.9-.8-1.4-.9-1-.8-1.7-.8-3a26.387,26.387,0,0,1,1.3-6.8,16.883,16.883,0,0,0,.4-6.7c-.1-.6-1.1-.6-1,0a19.008,19.008,0,0,1-.7,7.5,21.883,21.883,0,0,0-.9,5.7c0,1.7-.1,2.7,1,3.9a2.523,2.523,0,0,1,.6,1.7c-.1.6-.3,1.2-.4,1.7A13.133,13.133,0,0,1,101.331,170.7Z"/></g></svg>