<svg xmlns="http://www.w3.org/2000/svg" width="124.123" height="225.886" viewBox="0 0 124.123 225.886"><defs><style>.a{fill:#feb6b9;}.b{fill:#dfecfe;}.c{fill:#41657c;}.d{fill:#5bc5c9;}.e{fill:#3093d0;}</style></defs><g transform="translate(-503.508 -108.7)"><path class="a" d="M619.431,229.3c-1.3-1.3-2.5-3-4.1-4.9-3.9-4.8-10.8-6.8-15.6-10.4a75.379,75.379,0,0,1-15.9-16,68.421,68.421,0,0,1-4.7-7.2c-.6-1-1.1-1.9-1.6-2.9a76.351,76.351,0,0,1-8.2-25.1,29.01,29.01,0,0,1,.1-8.8c.6-3,2-5.5,4.8-5a7.59,7.59,0,0,1,1.8.6,15.073,15.073,0,0,1,2,1.2,13.882,13.882,0,0,1,3.7,4.3,82.445,82.445,0,0,1,5.6,11.1,142.09,142.09,0,0,1,6.4,20.4.367.367,0,0,1,.1.3,2.921,2.921,0,0,0,.2.9,10.1,10.1,0,0,0,1.3,1.6c3.6,3.6,7.3,5.9,10.3,10.2,1.5,2.1,2.9,4.1,4.4,6.2,2,2.9,3.5,6.5,6,9.1,2.2,2.2,5.1,2.7,7.4,4.6a8.872,8.872,0,0,1,1.9,3.7c1,3,1.8,6.4,2.3,8.5A59.142,59.142,0,0,1,619.431,229.3Z"/><path class="b" d="M587.431,166.2a72.109,72.109,0,0,0-5.6-11.1,15.344,15.344,0,0,0-3.7-4.3,15.065,15.065,0,0,0-2-1.2,9.415,9.415,0,0,0-1.8-.6c-2.8-.5-4.2,1.9-4.8,5a29.01,29.01,0,0,0-.1,8.8,76.35,76.35,0,0,0,8.2,25.1c.5,1,1,1.9,1.6,2.9a57.769,57.769,0,0,0,14.6-4.1A143.383,143.383,0,0,0,587.431,166.2Z"/><path class="c" d="M576.131,193.1c-3,3.5-6.4,6.5-10.5,8.1a13.5,13.5,0,0,1-12.5-1,3.483,3.483,0,0,1-1.3-1.4c-.6-1.5.8-3.1,2-4.1a86.186,86.186,0,0,0,20.1-25c3.6-6.6,7.1-16.1-5.7-10.1-4.2,2-8.6.1-10.9,4.1-.1-5.7,9.7-8.5,14.5-11.7,10.7-7,19.2-6.1,18,8A59.2,59.2,0,0,1,576.131,193.1Z"/><path class="c" d="M557.131,150.6a196.632,196.632,0,0,1-14.6,67.3c-1.2,3-2.7,6.1-5.6,7.5-2.2,1.1-4.9.8-7.4.4-3.5-.5-7.4-1.2-9.8-3.9-2.5-2.7-2.7-6.8-2.7-10.6-.1-13.7.4-27.9,6.7-40.1,6.3-12.1,20.1-21.5,33.4-18.4Z"/><path class="a" d="M592.131,310.6l1.7,6.5,9.6-13.8,2.8,19.9v.5a2.01,2.01,0,0,0,.4.8c-3,1.5-6,3-9,4.6h0Z"/><path class="c" d="M598.831,327.9a34.711,34.711,0,0,1,7.6-2.8,1.978,1.978,0,0,0,1.1.2l8.2-.6a2.041,2.041,0,0,1,2.1,1.4,2.081,2.081,0,0,1-1.1,2.4c-.1.1-.1.1-.2.1l-13.6,5.1a2.942,2.942,0,0,1-3.8-1.4l-1.8-3.5Z"/><path class="d" d="M558.231,252.1c-8.4-10.7-26-41.2-11.5-53.6,7-6,9.4-2.6,14.1,2.4,2.9,3.2,5.4,13.4,8.4,17.8,3.7,5.6,8.5,10.1,12.2,15.9,9.9,15.4,16.1,33.8,20,52.6,1.8,8.7,3.2,20.2,4.2,29.1.6,4.8-10.8,8-11.9,3.5-.4-1.6-.8-3.2-1.2-4.7C585.531,289.5,573.331,271.2,558.231,252.1Z"/><path class="a" d="M571.431,136.8c4.5.1,6.9,1.4,10.7,3.7a14.525,14.525,0,0,0-4.4,10.4,37.978,37.978,0,0,1-13-1c-.4-.1-.9-.3-1-.7s.2-.8.4-1.1a44.682,44.682,0,0,0,6.1-11.9l1.8.7"/><path class="a" d="M518.831,316.2l-4.2,6-.3.3a3.179,3.179,0,0,0-.3.9v.3a2.994,2.994,0,0,0,.4,1l4.5,6.7a1.853,1.853,0,0,1-.2,2.5,2.269,2.269,0,0,1-2.7.3.349.349,0,0,1-.2-.1l-11.1-9a2.969,2.969,0,0,1-.6-4l2.2-3.2,4.8-7Z"/><path class="c" d="M507.731,318.7a30.207,30.207,0,0,1,6.2,5,2.994,2.994,0,0,0,.4,1l4.5,6.7a1.852,1.852,0,0,1-.2,2.5,2.017,2.017,0,0,1-2.7.3.349.349,0,0,1-.2-.1l-11.1-9a2.969,2.969,0,0,1-.6-4l2.2-3.2A7.143,7.143,0,0,1,507.731,318.7Z"/><path class="d" d="M560.331,258c6.3-11.4,11.1-24,10.9-37,.1,5.4-13.5,4.1-16.5,4-8.2-.4-15.2-3.7-17.4,6.1-4.3,18.9-2.8,39.2-12.1,56.6-4.4,8.3-11.1,14.2-15.1,22.7a3.559,3.559,0,0,0,1.5,4.6,37.447,37.447,0,0,0,4.5,2.2,3.716,3.716,0,0,0,4.2-1,322.309,322.309,0,0,0,35.3-50C557.231,263.5,558.831,260.8,560.331,258Z"/><path class="b" d="M586.231,168.1c.2-6.2-1.3-12.7-5.3-17.5a19.275,19.275,0,0,0-9.2-5.9c-5.7-1.6-9.8-1.2-16.5,3.7-5.6,4-9.3,13.1-12.5,19.2a81.412,81.412,0,0,0-7.9,23,70.4,70.4,0,0,0-.7,22.9c.6,4-2.9,15.4,3.9,15.7,2.8.1,5.8.1,8.8.2,8.1.4,16-.3,24.1-.7,8.8-.5,8.3-2.9,9.6-11.4,1.4-8.7,2.8-17.8,2.8-26.6a44.028,44.028,0,0,1,.6-7.3C584.731,178.3,585.931,173.4,586.231,168.1Z"/><path class="b" d="M571.131,191.5l6.2,1.9a14.919,14.919,0,0,1-2.9-2C573.331,191.5,572.331,191.5,571.131,191.5Z"/><path class="a" d="M561.731,146.3c-1.3-.6.3-2.4,1.7-2.6a20.943,20.943,0,0,1,16.9,5.2,2.8,2.8,0,0,1,.9,1.3c.1,1-.9,1.7-1.9,2.1-6.3,2.5-14.2-.5-17.5-6.4Z"/><path class="a" d="M569.531,133a31.825,31.825,0,0,1,2.3-5.8c1.1-2.2,2.3-4.3,4.8-5.8s5.8-5.1,8.8-4.3c12,3,8.9,22.1,1,25.8-2.7,1.3-10.2-.4-13.2-1.6a10.845,10.845,0,0,1-2.2-1.2C567.731,137.7,571.931,136,569.531,133Z"/><path class="e" d="M597.931,119l-.2.8a5.667,5.667,0,0,1-1.2,2.3l-.2.2a1.236,1.236,0,0,1-.2.3,1.521,1.521,0,0,1-.4.6.1.1,0,0,0-.1.1,9.007,9.007,0,0,1-1,.9c-.1,0-.1.1-.2.1-.4.2-.8.5-1.3.7-.4.1-.9.3-1.3.4h-.2a5.7,5.7,0,0,0-1.3.1h-.6a4.671,4.671,0,0,1-1.7-.3,6.891,6.891,0,0,1-.8-.3c-.5-.1-.9-.1-1.4-.2a4.842,4.842,0,0,1-1.8-.7,6.418,6.418,0,0,1-3.7,1.4,3.083,3.083,0,0,1-1-.1v.3a4.012,4.012,0,0,1-.3,1.5h-.1a3.3,3.3,0,0,0-1.4,0c-.2,0-.3.1-.5.2-.2,0-.3.1-.5.2a1.818,1.818,0,0,0-1,1.6,1.873,1.873,0,0,0,.8,1.4,3.1,3.1,0,0,0,1.3.6,3.626,3.626,0,0,1-2.5,2.3,4.689,4.689,0,0,1-3.3,1.3,4.94,4.94,0,0,1-4.9-3.2,2.212,2.212,0,0,1,.5-2.2c0-.1-.1-.1-.1-.2a4.178,4.178,0,0,1-.4-1,3.4,3.4,0,0,1,.3-2,5.547,5.547,0,0,0,.6-.8.781.781,0,0,1,.4-.4l-.3-.9v-.1a6.632,6.632,0,0,1-.9-1.9c-.6-2.4,1.4-7.7,4-7.9a3.359,3.359,0,0,1,.5-1.4,5.738,5.738,0,0,1,2-2.1,4.592,4.592,0,0,1,2.8-.8c.5.1,1,.1,1.5.2a1.854,1.854,0,0,1,.7.2,3.506,3.506,0,0,1,1.4-.6c.5-.1,1-.1,1.5-.2.2,0,.5.1.8.1a4.714,4.714,0,0,1,1.5-.6c.5-.1,1-.1,1.5-.2a4.193,4.193,0,0,1,2.2.5,5.229,5.229,0,0,1,1.7,1.2,5.493,5.493,0,0,1,.7.9h.5c.5-.3,1,2.7,1.6,2.5.5-.1,1-.1,1.5-.2a4.648,4.648,0,0,1,2.1.5,3.088,3.088,0,0,1,1.6,1.1,2.982,2.982,0,0,1,.8,1.7A3.733,3.733,0,0,1,597.931,119Z"/><path class="c" d="M559.531,189.4c-3,3.5-6.4,6.5-10.5,8.1a13.5,13.5,0,0,1-12.5-1,3.483,3.483,0,0,1-1.3-1.4c-.6-1.5.8-3.1,2-4.1a86.187,86.187,0,0,0,20.1-25c3.6-6.6,7.1-16.1-5.7-10.1-4.2,2-8.6.1-10.9,4.1-.1-5.7,9.7-8.5,14.5-11.7,10.7-7,19.2-6.2,18,8A57.824,57.824,0,0,1,559.531,189.4Z"/><path class="a" d="M563.031,168.2c-2.5,4.9-6.7,8.7-9.5,13.6-1.1,1.8-2.2,3.6-3.4,5.4a49.154,49.154,0,0,0-5.8,10.8c0,.3.1.6.1.9-1.1,4.2-2.4,8.5-3.2,12.8-.5,2.5-.8,12.5-1,14a1.521,1.521,0,0,0,1,1.3c1.3.6,2.6,1.1,3.8,1.8a36.914,36.914,0,0,0,4.1,3.8c-.8,3.1-4.7,5.2-7.4,6.4a14.3,14.3,0,0,1-4.9-3.9c-3.7-5.2-7.5-15-8.5-21.1-2.2-12.6.6-25.7,5.8-36.9a65.576,65.576,0,0,1,10.4-16.1c2.9-3.3,11.8-13.7,16.9-12.2a5.677,5.677,0,0,1,4,4.2C566.831,157.7,564.631,165.1,563.031,168.2Z"/><path class="b" d="M565.331,153.1a5.677,5.677,0,0,0-4-4.2c-5.1-1.5-14,8.9-16.9,12.2a67.518,67.518,0,0,0-10.4,16.1,37.644,37.644,0,0,0,16,10.1c1.2-1.8,2.4-3.6,3.4-5.4,2.7-4.9,6.9-8.7,9.5-13.6C564.631,165.1,566.831,157.7,565.331,153.1Z"/></g></svg>