<svg xmlns="http://www.w3.org/2000/svg" width="132.87" height="384.106" viewBox="0 0 132.87 384.106"><defs><style>.a{fill:#feb6b9;}.b{fill:#f6be8f;}.c{fill:#043955;}.d{fill:#1061f3;}.e{fill:#dfecfe;}.f{fill:#b2adaa;}.g{fill:#b47c6f;}.h{fill:#9e5d4e;}.i{fill:#e96c5a;}.j,.k{fill:#e4e9ff;}.j{stroke:#d4dcf9;stroke-width:0.2px;}.l{fill:#ffe7e4;}.m{fill:#e634a7;}</style></defs><g transform="translate(98.516 128.35)"><path class="a" d="M266.646,643.2a47.128,47.128,0,0,1-2.447-6.535,4.221,4.221,0,0,1,2.081-4.808c2.474-1.385,4.8-3.15,6.932-4.512a30.327,30.327,0,0,1,6.843-3.688c1.62-.519,2.792-.591,3.434,1.039a2.075,2.075,0,0,0,.681.9c5.329,15.324,8.626,31.708,7.208,47.8a10.135,10.135,0,0,0,.155,4,12.29,12.29,0,0,0,2.58,3.837c3.148,3.8,4.073,8.591,3.5,13.411s-4.447,9.42-9.477,9.918q-1-3.651-2-7.294a.626.626,0,0,1-.258.23,1.775,1.775,0,0,1-1.557-.28,8.523,8.523,0,0,1-3.71-10.152c.682-1.748,1.968-3.3,2.233-5.147.26-1.813-.505-3.6-1.262-5.287Q274.112,659.919,266.646,643.2Z" transform="translate(-264.049 -623.331)"/></g><g transform="translate(95.555 334.699)"><path class="b" d="M260.541,781.786l5.272,32.29.073,6.537a5.055,5.055,0,0,0,4.536,4.972l23.65,2.444c.113.007.229.012.341.012a3.429,3.429,0,0,0,1.336-6.593l-12.4-5.188a3.925,3.925,0,0,1-1.475-1.059c-.1-.115-.191-.238-.274-.356a3.915,3.915,0,0,1-.645-1.547,3.681,3.681,0,0,1-.071-.759l-5.49-28.224Z" transform="translate(-260.541 -781.786)"/></g><g transform="translate(100.827 366.738)"><path class="c" d="M260.541,806.639l.073,6.538a5.054,5.054,0,0,0,4.536,4.972l23.65,2.444c.113.008.229.013.341.013a3.429,3.429,0,0,0,1.336-6.593l-12.4-5.188a3.925,3.925,0,0,1-1.475-1.059,55.352,55.352,0,0,0-13.165-1.37A17.12,17.12,0,0,0,260.541,806.639Z" transform="translate(-260.541 -806.389)"/></g><g transform="translate(31.697 356.287)"><path class="b" d="M344.928,798.364l.43,14.156.224,6.538a4.89,4.89,0,0,1-4.4,4.924L317.6,826.167c-.117.008-.186.015-.3.015a3.43,3.43,0,0,1-1.225-6.613l12.46-5.048a3.976,3.976,0,0,0,1.491-1.044c.1-.115.2-.237.28-.354.329-.457-.921-.988-.817-1.544.053-.254-1.4-.51-1.4-.77l.069-12.184Z" transform="translate(-313.919 -798.364)"/></g><g transform="translate(31.717 370.153)"><path class="c" d="M345.68,809.307l-.141,6.535a5.055,5.055,0,0,1-4.594,4.921l-23.676,2.186c-.112.008-.229.016-.34.016a3.432,3.432,0,0,1-1.259-6.613l12.455-5.048a3.977,3.977,0,0,0,1.488-1.044,55.486,55.486,0,0,1,13.179-1.229A18,18,0,0,1,345.68,809.307Z" transform="translate(-313.524 -809.011)"/></g><g transform="translate(28.444 171.693)"><path class="d" d="M274.89,676.65c.094-.668.184-1.336.274-2.005a150.848,150.848,0,0,0,1.6-18.031c11.024.221,24.148,11.584,35.677,12.448q11.67.867,23.346,1.75c3.458.256,14.355-3,16.4-.293,1.861,2.463.443,8.766.682,11.7a93.19,93.19,0,0,0,2.607,14.831c2.267,9.116-2.227,17.77.479,26.755,4.352,14.44.415,29.468,2.413,44.429l3,78.688a2.636,2.636,0,0,1-1.953,2.884c-4.627,1.209-15.485,3.342-23.154-.605a2.637,2.637,0,0,1-1.37-1.9l-2.067-41.883c-3.347-21.564-.411-42.417-8.971-62.489l-13.146-39.519c-3.5,56.888-4.945,121.226-2.426,142.3a6.493,6.493,0,0,1-4.823,7.064c-4.36,1.136-10.569,1.927-15.764-.568a6.273,6.273,0,0,1-3.387-4.578c-3.236-18.312-3.989-36.573-7.229-54.885-3.448-19.485-1.941-24.4-1.652-43.983.068-4.6-1.83-8.983-2.876-13.425C271.6,718.563,274.954,693.434,274.89,676.65Z" transform="translate(-272.379 -656.614)"/></g><g transform="translate(26.643 56.119)"><path class="e" d="M307.8,580.683c.023.837.681,1.868,1.834,3.547,5.885,8.551,14.109,15.018,22.6,20.9,2.015,1.392,4.042,2.752,6.065,4.1,1.9,1.278,4.3,2.582,6.335,1.552a6.268,6.268,0,0,0,2.55-3.446q.846-2.037,1.556-4.138a70.13,70.13,0,0,0,3.738-23.44c-.105-9.195-2.856-11.121-12.086-11.8-7.105-.526-14.057,1.513-20.414,4.528a90.069,90.069,0,0,0-9.1,5.069C308.724,578.892,307.778,579.641,307.8,580.683Z" transform="translate(-307.802 -567.866)"/></g><g transform="translate(61.479 4.788)"><g transform="translate(0)"><path class="f" d="M317.422,538.686c-.021-.656-.034-1.318-.042-1.977-1.879-3.317-4.049-6.314-7.654-8.262a9.736,9.736,0,0,0-.513.867c-2.129,4.218-.176,9.282,1.961,13.492s4.532,8.909,3.184,13.437l.159,1.107a22.557,22.557,0,0,0,1.255-2.631,30.62,30.62,0,0,0,1.724-11.443,2.38,2.38,0,0,1-.275-1.2C317.248,540.944,317.32,539.818,317.422,538.686Z" transform="translate(-308.294 -528.448)"/></g></g><g transform="translate(30.827)"><path class="g" d="M345.151,554.414c.7-4.349,2.978-8.373,3.334-12.768a15.454,15.454,0,0,0-8.687-15.253c-8.883-4.329-18.974.888-26.859,5.416-1.745,1-3.633,2.448-3.623,4.454a19.374,19.374,0,0,0,.475,2.5c.525,3.685-3.493,7.006-2.66,10.636.7,3.038,4.3,4.335,6.136,6.855,1.406,1.943,1.3,13.938,3.319,14.561,1.779.551,4.967-.541,6.643-.772a7.93,7.93,0,0,0,3.945-1.4c1.875-1.5,2.261-4.151,2.508-6.543.4-3.957-.139-9.9,2.223-13.188,2.188-3.039,5.834-3.49,9.263-3.794-.677-1.992.245-3.053,1.432-4.05l.369.345a17.166,17.166,0,0,0,3.075-3.449,14.019,14.019,0,0,0,2.086-2.833c-.141-.251-.282-.5-.424-.744Z" transform="translate(-307.016 -524.771)"/></g><g transform="translate(66.877 23.315)"><g transform="translate(0)"><path class="h" d="M309.476,542.675l2.267.236C311,542.82,310.246,542.738,309.476,542.675Z" transform="translate(-309.476 -542.675)"/></g></g><g transform="translate(38.064 9.669)"><g transform="translate(0)"><path class="g" d="M326.647,554.67c.109.616.211,1.239.307,1.858a30.724,30.724,0,0,1,3.676.393,3.392,3.392,0,0,0,3.949-3.842c-.427-2.752-1.168-5.5-1.611-8.263-.723-4.49-.432-9.658,2.68-12.622-7.355,3.422-11.542,13.047-9.357,21.5A3.921,3.921,0,0,0,326.647,554.67Z" transform="translate(-325.712 -532.196)"/></g></g><g transform="translate(34.019 62.197)"><path class="e" d="M309.8,576.844c.409-.232.819-.472,1.228-.7.512-.3,1.014-.619,1.513-.941a45.866,45.866,0,0,0,14.753,7.157,6.36,6.36,0,0,0,3.553.237,6.587,6.587,0,0,0,2.869-2.284,85.055,85.055,0,0,0,5.829-7.776,5.909,5.909,0,0,0,3.034,1.025c.027,0,.049,0,.073,0a17.285,17.285,0,0,1,1.609,10.875,24.256,24.256,0,0,1-5.438,11.3,7.274,7.274,0,0,1-2.241,1.978c-1.844.928-4.066.36-6.007-.344a50.6,50.6,0,0,1-12.331-6.521,22.655,22.655,0,0,1-6.979-7.308A11.986,11.986,0,0,1,309.8,576.844Z" transform="translate(-309.755 -572.532)"/></g><g transform="translate(46.617 97.006)"><g transform="translate(0)"><path class="i" d="M326.536,599.315a1.907,1.907,0,0,0,.31.954C326.657,599.573,326.538,599.1,326.536,599.315Z" transform="translate(-326.536 -599.262)"/></g></g><g transform="translate(53.372 137.611)"><g transform="translate(0)"><path class="b" d="M321.613,630.473a.117.117,0,0,0,.013-.03l-.17.257C321.512,630.625,321.565,630.549,321.613,630.473Z" transform="translate(-321.456 -630.443)"/></g></g><g transform="translate(39.1 31.356)"><g transform="translate(0)"><path class="a" d="M333.606,551.1c1,1.9.512,4.118-1.081,4.95s-3.69-.028-4.687-1.927-.507-4.116,1.084-4.95S332.614,549.2,333.606,551.1Z" transform="translate(-327.321 -548.849)"/></g></g><g transform="translate(88.931 67.851)"><path class="j" d="M263.885,576.874c18.983,9.089,30.122,33.736,32.249,53.67.57,5.369,8.692,39.2,7.139,44.376s-4.812,10-9.551,12.587a4.553,4.553,0,0,1-2.206.692c-2.546-.046-3.641-3.421-5.964-4.46Z" transform="translate(-263.885 -576.874)"/></g><g transform="translate(7.291 58.078)"><path class="k" d="M291.229,582.793a33.109,33.109,0,0,0-9.41,12.328c-1.264,3.07-1.232,6.5-1.085,9.813a39.325,39.325,0,0,0,1.563,9.487c1.283,4.408,3.167,8.358,5.048,13.53-.169,7.226,6.523,18.026,8.5,25.188,3.029,10.943,4.678,21.63,3.1,32.925-1.526,10.927.455,12.952,11.065,13.913,11.4,1.039,22.01,5.084,33.628,5.044a81.109,81.109,0,0,0,17.608-1.994c5.61-1.265,11.263-4.893,16.744-5.788l-1.374.225c7.22-2.741,3.792-8.207,2.159-12.948-1.017-2.965-.6-6.847-.828-9.96-.542-7.382-1.264-14.757-1.293-22.164-.084-18.376-.483-37.333-6.562-54.882-2.177-6.3-5.455-12.6-10.288-17.277-4.759-4.6-12.208-5.912-18.344-7.951-.7-.232-1.4-.461-2.1-.688a45.1,45.1,0,0,0-10.06-2.109c-17.7-1.292-34.041,8.425-45.865,20.676a24.522,24.522,0,0,0-4.662,5.962c-2.007,4.083-1.582,8.938-.458,13.343s2.909,8.657,3.53,13.158Z" transform="translate(-277.368 -569.369)"/></g><g transform="translate(0 74.119)"><path class="l" d="M301.482,635.968" transform="translate(-221.929 -565.281)"/><path class="k" d="M373.787,640.674a.363.363,0,0,0-.057.016c-.068.021-9.859.152-9.91.191-5.716,4.222-5.912,5.57-12.948,9.953,2.831-15.588.343-33.219-1.677-48.858-.815-6.308-2.253-12.944-6.7-17.489-8.823-9.02-14.644,6.111-17.169,12.261-2.83,6.886-4.287,14.3-5.38,21.642a113.922,113.922,0,0,0,1.744,41.383c1.211,5.446,2.786,12.616,6.727,16.838,3.4,3.64,9.659,4.456,14.4,4.091a40.746,40.746,0,0,0,14.365-4.314c8.513-4.072,9.1-9.659,13.915-17.6,1.15-1.9,3.388-5.249,4.7-7" transform="translate(-318.806 -581.688)"/></g><g transform="translate(53.985 80.336)"><g transform="translate(0 0)"><path class="m" d="M1085.808,124.241c-.432,12.686,1.884,25.577,7.412,36.365a48.19,48.19,0,0,0,5.9,8.946c1.474,1.219,2.944,2.454,4.389,3.729,2.363,2.078,4.971,4.4,7.477,6.989.318.315.63.643.932.981a40.673,40.673,0,0,1,8.5,12.89c1.029-3.112,2.137-6.181,3.348-9.2-.333-7.814-4.6-14.138-8.925-19.415-2.18-2.656-4.427-5.238-6.679-7.819-1.056-1.054-2.088-2.112-3.072-3.184a61.717,61.717,0,0,1-5.98-7.527q-1.177-1.482-2.314-3.007c-4.509-6.056-8.37-13.532-8.806-21.7a10.591,10.591,0,0,0,1.211-1.334.568.568,0,0,0,.229-.122,7.743,7.743,0,0,0,1.875-3.256,31.025,31.025,0,0,0-3.658-6.186,64.566,64.566,0,0,1-4.074,5.428A18.5,18.5,0,0,0,1085.808,124.241Zm.279-8.355a9.239,9.239,0,0,1,.286,1l-.046.42C1086.222,116.835,1086.147,116.363,1086.087,115.886Z" transform="translate(-1083.574 -111.388)"/></g></g><g transform="translate(44.696 112.057)"><g transform="translate(0 0)"><path class="a" d="M317.876,617.46c5.3-3.532,11.489-5.147,17.5-6.64A12.1,12.1,0,0,1,332.568,621a18.521,18.521,0,0,1-2.843,2.435,28,28,0,0,1-4.468,2.8c-1.033.49-3.425.63-4.128,1.494-.412.514-.372,1.979-.486,2.633-.1.585-.211,1.16-.315,1.742-1.6,3.638-2.856,7.451-4.365,11.126a5.905,5.905,0,0,1-2.222.129,10.125,10.125,0,0,1-6.157-3.933A18.554,18.554,0,0,1,304,632.2C307.774,626.761,312.474,621.059,317.876,617.46Z" transform="translate(-304.001 -610.82)"/></g></g><g transform="translate(39.167 11.619)"><path class="a" d="M330.2,533.712c-2.955-.191-5.694,1.148-8.362,2.615a39.275,39.275,0,0,1-8.8,4.051c-.04.074-.087.147-.121.224-1.478,3.19-.216,6.076-.3,9.23-.093,3.592-1.843,2.795-4.628,4.436-.168,1.758,3.248,5.107,3.982,6.959,16.586,19.05,22.908,13.737,25.267,10.139,2.171-3.3,2.976-11.975,2.565-15.262C339.038,550.044,337.229,536.533,330.2,533.712Z" transform="translate(-307.981 -533.694)"/></g><g transform="translate(37.738 32.118)"><path class="a" d="M339.782,584.978a36.236,36.236,0,0,1-5.385-19.024,22.71,22.71,0,0,0-.4-6.339c-.525-1.823-.566-4-2.09-5.352a7.333,7.333,0,0,0-2.39-1.232q-3.174-1.159-6.351-2.325a14.947,14.947,0,0,0-5.669-1.264,1.72,1.72,0,0,0-1.112.346c-.844.787-.619,5.044-.781,6.38-.376,3.146-.63,6.319-1.03,9.466-.729,5.808-2.969,11.81-3.343,17.573-.322,4.926,5.3,6.417,9.614,7.42a25.53,25.53,0,0,0,18.06-2.441c.656-.379,1.358-.887,1.438-1.637A2.654,2.654,0,0,0,339.782,584.978Z" transform="translate(-311.222 -549.435)"/></g><g transform="translate(44.636 2.854)"><path class="g" d="M306.14,536.311a33.713,33.713,0,0,1,7.429-7.109c2.658-1.858,6.435-3.276,8.957-1.246,1.518,1.221,2.241,3.49,4.119,4.023a11.214,11.214,0,0,0,2.22.155c4.74.348,6.707,7.156,6.023,11.054a14.76,14.76,0,0,1-3.805,7.285c.711-.779-6.338-9.913-5.678-9.06,11.333,14.681-15.028-7.181-8.975-6.044a11.131,11.131,0,0,1-3.347-1c-.945-.7-7.924,2.591-6.944,1.943Z" transform="translate(-306.046 -526.963)"/></g></svg>