<svg xmlns="http://www.w3.org/2000/svg" width="113.531" height="233.775" viewBox="0 0 113.531 233.775"><defs><style>.a{fill:#feb6b9;}.b{fill:#7089a1;}.c{fill:#ff6e8b;}.d{fill:#deebfd;}.e{fill:#f6be8f;}.f{fill:#b97b6e;}.g{fill:#9e5d4e;}.h{fill:#87acbf;}</style></defs><g transform="translate(-683.716 -98.925)"><path class="a" d="M736.231,314c1.1-1.8,1.1-3.7,2.2-5.6h0c5.5-8.2,9-16.5,12.5-25,2.1-5.4,3.8-10.5,3.6-15.5a16.206,16.206,0,0,0-.1-2.2c-6.1-16-14.9-38.7-16.7-40.5l6.8-.4a48.735,48.735,0,0,1-.2-5.4l16.2-5.2a173.8,173.8,0,0,1,8.1,28.4c1.6,8.3,4.5,19.5,2.6,27.9-3.6,16.2-15.2,26.7-23.8,40.1a11.376,11.376,0,0,0-1.9,4.2,8.554,8.554,0,0,0,0,1.6c.4,4.5,5,8.9,4.7,13a1.675,1.675,0,0,1-2.4,1.4,28.3,28.3,0,0,1-10.8-8.9,8.256,8.256,0,0,1-1.4-3A7.565,7.565,0,0,1,736.231,314Z"/><path class="b" d="M737.131,314c1-1.8,2-3.7,3-5.6-.1,2.6.3,5.3,2.2,7a4.011,4.011,0,0,0,3.2,1c.4,4.5,5,8.9,4.7,13a1.675,1.675,0,0,1-2.4,1.4,28.3,28.3,0,0,1-10.8-8.9,8.256,8.256,0,0,1-1.4-3C735.431,317.2,736.231,315.6,737.131,314Z"/><path class="c" d="M735.731,135.4a29.909,29.909,0,0,1-13.9-1.8c-.9-.3-2-.9-2.1-1.9a7.566,7.566,0,0,1,.1-1.5c-.1-1.3-1.4-2.1-2.6-2.6-1.2-.4-2.6-.9-3.2-2-.9-1.6.4-3.6,1.8-4.8,2.6-2.1,5.1-4.8,5.8-8.2.6-3-.6-6.5.8-9.2,1.2-2.5,4.1-3.5,6.7-4,10.4-2.1,16.6,2.9,20,12.3C753.231,123.2,748.331,133.9,735.731,135.4Z"/><path class="d" d="M739.231,134.3c-3.7,1.9-1.7,2.2-.9,5.8,1.9,8.3,3.4,16.8,5.9,25,1.6,5.2,3.6,10.5,7.1,14.7s9,7.1,14.4,6.4c7.1-1,11.5-8.4,8.1-14.8-1.5-2.7-3.9-3.6-5.8-5.8-2.7-3.1-4.3-7.4-5.7-11.2-1.3-3.5-2.3-7.1-3.9-10.4a17.188,17.188,0,0,0-7.3-8.2,24.516,24.516,0,0,0-7.4-2A8.041,8.041,0,0,0,739.231,134.3Z"/><path class="e" d="M697.431,186.1a3.147,3.147,0,0,1-1.7,1.3A5.154,5.154,0,0,1,697.431,186.1Z"/><path class="a" d="M726.131,217.5c4.5-1.9,9.4-4,12.7-7.7,3.4,12.9,4.3,26.6,4.5,39.8.1,7.6-.5,8.3-.8,15.9-.6,14.7-5.7,38.5-3.5,53.1a6.232,6.232,0,0,0,2,3.5c2.9,2.7,8.3,4.2,11.7,6.8a1.68,1.68,0,0,1-.2,2.8c-.2.1-.5.1-.8.2-1.4.2-3.9.4-4.9.5a5.019,5.019,0,0,1-1.2.2,47.953,47.953,0,0,1-6.7-.5,47.442,47.442,0,0,1-6.5-1.6,4.961,4.961,0,0,1-1.2-4,17.663,17.663,0,0,0,.4-2v-.1c0-4.6-1.1-8.4-2-12.9-2.7-11-1.8-24.4-2.3-36.4-.5-10.2-2-13.6-4-23.6-2-10.1-2-20.5-4.2-30.5C721.431,219.7,723.931,218.6,726.131,217.5Z"/><path class="d" d="M719.831,141.3a23.441,23.441,0,0,0-1.8,6.4,219.541,219.541,0,0,0-4.2,37.1c-.3,12,4.2,23,4,35.1-.2,7.8,2.5,22-2.2,28.2-2,2.6-4.4,4.9-5.5,8-1.9,5.4,1.2,11.7,6.3,14.4s11.4.6,16.5-1.9c6.3-3,9.7-5.8,16.9-5.2,8.6.8,15.6-.8,23.5-4.5a5.854,5.854,0,0,0,2-1.5,4.4,4.4,0,0,0,.4-2.8c-1.5-25.8-12.3-53.5-17.1-78.6-2.1-11.5-1.4-21.2-7.7-31.5-3.2-5.3-8.1-11.6-14.7-12.7-2.8-.5-6.2.6-9.2,2.4A19.574,19.574,0,0,0,719.831,141.3Z"/><path class="a" d="M737.631,111.1l-.6,5.8a17.383,17.383,0,0,0,2.2,10.2c1.3,2.4,4.6,5.2,4.8,8,.1,2.1-4,4.5-5.7,5.1-2.6,1-5.2-.2-7.3-1.9a4.313,4.313,0,0,1-1.4-4.3l1.9-7.7s-4.5.3-6.1-1.5c-5.6-6.1,1.3-18.4,1.3-18.4C730.031,111.2,737.631,111.1,737.631,111.1Z"/><path class="f" d="M683.731,200.4a7.74,7.74,0,0,0,1.1,3c8.6,15.2,26,25,43.5,24.7h.3c2.9-2.7,4.6-6.3,6.4-9.9.6-1.2,1.1-2.3,1.6-3.4l1.2-2.7a7.255,7.255,0,0,0,.5-1.2,50.966,50.966,0,0,0,3-10.1.367.367,0,0,0,.1-.3v-.2a3.4,3.4,0,0,0,.1-1v-1.9c0-.1-.1-.3-.1-.4h0c-7.4-.5-14.6-4-21.4-7.4-6.5-3.3-13.6-7.1-17.3-13.1a3.469,3.469,0,0,0-5.7-.4,81.63,81.63,0,0,0-12.5,20.8A7.449,7.449,0,0,0,683.731,200.4Z"/><path class="f" d="M717.331,142.5c.4-1.4,2.7-1.2,3.4.2s.1,2.9-.4,4.3c-3.6,9.1-7.1,18.3-10.7,27.5-1.3,3.4-2.7,7-5.5,9.5l-3.9-5.7a3.464,3.464,0,0,1-.8-1.6,4.05,4.05,0,0,1,.7-2.1c6.1-11,12.3-22.1,18.4-33.1Z"/><path class="d" d="M702.431,192.5c.4,2.3,1.1,4.7,2.8,6.3,4,3.6,10.8-.1,12.8-5.1s1.1-10.7,1.9-16c1-6.8,4.5-12.9,7.1-19.2a16.586,16.586,0,0,0,1.2-3.1,42.043,42.043,0,0,0,1.4-5.9,19.232,19.232,0,0,0-1.3-10.9,5.37,5.37,0,0,0-2.5-2.2,22.454,22.454,0,0,0-4.6,2.4c-1.1,1-2.2,2.1-3.2,3.2-.9,1-1.8,2-2.7,3.1C704.731,158.1,699.531,175.8,702.431,192.5Z"/><path class="a" d="M774.231,182.9c10.4-8.4,20.2-20.1,22.3-33.8a15.258,15.258,0,0,1,.7-2.4.391.391,0,0,0-.6-.4c-3,2.2-6.5,4.8-9.4,6.8-.1.1-.2.1-.3.2a5.244,5.244,0,0,0-2.4,2.7,3.719,3.719,0,0,0,.5,2,2.092,2.092,0,0,1,.4.6c.5,1-19.2,14.6-20.3,17.8a5.854,5.854,0,0,0,1.1,6.2A5.72,5.72,0,0,0,774.231,182.9Z"/><path class="g" d="M783.631,159l.2.1c-.1-.1-.1-.1-.1-.2A.1.1,0,0,0,783.631,159Z"/><path class="g" d="M795.331,146.4a.716.716,0,0,0-1.2-.3l-6.6,7.8c0,.1-.1.2-.2.3a5.444,5.444,0,0,0-1.6,3.2,2.83,2.83,0,0,0,.9,1.8c3.1-3.7,6.1-7.5,8.9-11.4A9.318,9.318,0,0,0,795.331,146.4Z"/><path class="h" d="M752.631,148.1c5.2,4.6,1.5,12.5,3.7,18.2.7,1.8,1.8,3.3,1.9,5.2.1,1.8-.3,3.5-.3,5.3a22.14,22.14,0,0,0,1.7,9.2c.2.6,1.2.3,1-.3a22.866,22.866,0,0,1-1.5-11,14.5,14.5,0,0,0-.2-5.1c-.5-1.7-1.6-3.1-2-4.7-1.5-5.7,1.5-13-3.6-17.5C752.831,146.9,752.031,147.6,752.631,148.1Z"/><path class="g" d="M695.831,198.5a30.391,30.391,0,0,0,1.9,7.9,5.267,5.267,0,0,0,3.8,3.7c2.4.6,5.2.1,7.6-.4a65.01,65.01,0,0,0,8.6-2.5c5.1-1.7,10.3-3.5,15.4-5.2-1.7,3.4-3.6,6.7-5.3,9.9l-4.1,7.9c-1.2,2.2-2.4,5.6-5.2,5.9-.7.1-.7,1.1,0,1,2.2-.3,3.5-1.9,4.6-3.7,1.7-2.8,3.1-5.8,4.6-8.7,1.5-3,3.1-6.1,4.7-9.1.6-1.1,1.2-2.3,1.8-3.5h0c.3-.9.6-1.7.9-2.6a3.765,3.765,0,0,1,.9-1.5,3,3,0,0,0,.4-1,.522.522,0,0,0-1-.3,36.564,36.564,0,0,1-1.8,4.6c-4.8,1.6-9.6,3.3-14.4,4.9-5,1.7-10.2,3.8-15.6,3.8-1.6,0-3.3-.3-4.3-1.7a10.187,10.187,0,0,1-1.4-3.4,40.142,40.142,0,0,1-1.4-7.7,101.644,101.644,0,0,1,.4-15.6c.1-.7-1-.7-1,0C695.431,187.1,695.031,193.1,695.831,198.5Z"/><path class="f" d="M741.131,197.4V197a4.179,4.179,0,0,0,1-.4Z"/><path class="f" d="M718.031,142c.2,0,.5.1.8.1,4.1.6,7.7,3.3,10.2,6.6.2.3.4.5.6.8a54.407,54.407,0,0,1,5.2,10.2,90.4,90.4,0,0,1,5.1,14.9c1.6,7.3,1.4,15,1.1,22.5a10.685,10.685,0,0,1-5.6.3c.2-14.3-.1-29.3-7.1-41.7-.1-.1-.1-.2-.2-.3-2.8-4.9-7.3-9.5-12.8-10.3C716.231,144,717.131,143,718.031,142Z"/><path class="h" d="M715.231,186.7h1.2a.483.483,0,0,0,.7.1,1.269,1.269,0,0,1,.6.1h.3a6.445,6.445,0,0,1,3.2,2c.4.5,1.2-.2.7-.7a7.855,7.855,0,0,0-4.4-2.5c2.5-8.2,5.3-16.5,5.7-25.2.1-.7-1-.7-1,0-.4,8.6-3.2,16.9-5.7,25.1h-1.3C714.531,185.6,714.531,186.6,715.231,186.7Z"/><path class="a" d="M707.431,200.9c3.8,3.3,14.1,2.2,18.3.2a23.465,23.465,0,0,0,5.2-3.7c2.5-2.1,4.6-5,7.3-6.8,1-.7,2.7-.3,3.6-.9,3.3-2.2-4.6-2.2-6-2.2a76.393,76.393,0,0,0-13.5.7,28.549,28.549,0,0,0-8,2.2C711.331,191.8,702.631,196.9,707.431,200.9Z"/><path class="a" d="M729.631,190.3v.6l1.9-.6.2.4a4.416,4.416,0,0,0,5.5,1.7,5.338,5.338,0,0,1,2.5-.5,11.107,11.107,0,0,1,2.9,1,3.186,3.186,0,0,0,3,0,2.188,2.188,0,0,0,.8-2.6c-.7-2.1-6.9-6.9-9.3-5.5A38.173,38.173,0,0,0,729.631,190.3Z"/><path class="b" d="M741.231,316.9c.1.2.2.3.2.5a5.02,5.02,0,0,0-1.2-.2Z"/><path class="b" d="M731.731,324.6v-.1c1.1,1.5,4.3,2,6.5,1a6.3,6.3,0,0,0,2.9-3.3c2.9,2.7,8.3,4.2,11.7,6.8a1.68,1.68,0,0,1-.2,2.8c-.2.1-.5.1-.8.2-1.4.2-3.9.4-4.9.5a5.02,5.02,0,0,1-1.2.2,47.953,47.953,0,0,1-6.7-.5,47.451,47.451,0,0,1-6.5-1.6,4.961,4.961,0,0,1-1.2-4C731.331,325.9,731.731,325.1,731.731,324.6Z"/></g></svg>