<svg xmlns="http://www.w3.org/2000/svg" width="90.451" height="200.605" viewBox="0 0 90.451 200.605"><defs><style>.a{fill:#feb6b9;}.b{fill:#013955;}.c{fill:#0361f3;}.d{fill:#b47c6f;}.e{fill:#41657c;}.f{fill:#4f97fe;}.g{fill:#e4e9ff;}.h{fill:#d4dcf9;}.i{fill:#e634a7;}</style></defs><g transform="translate(77.228 161.227)"><path class="a" d="M1142.395,288.657l4.47,5.552,2.065,2.564a2.414,2.414,0,0,1-.25,3.312l-8.812,8.119a1.542,1.542,0,0,1-.132.11,1.822,1.822,0,0,1-2.286-.093,1.652,1.652,0,0,1-.348-2.083l3.382-5.785a1.9,1.9,0,0,0,.263-.862,1.625,1.625,0,0,0,0-.224,1.736,1.736,0,0,0-.3-.744c-.059-.113-.2-.166-.283-.266l-3.9-4.743Z" transform="translate(-1136.262 -288.657)"/></g><g transform="translate(77.842 166.752)"><path class="b" d="M1147.121,296.168l2.048,2.578a2.423,2.423,0,0,1-.26,3.318l-8.817,8.124c-.041.038-.088.076-.134.11a1.821,1.821,0,0,1-2.288-.092,1.652,1.652,0,0,1-.348-2.082l3.381-5.785a1.891,1.891,0,0,0,.263-.862,27.934,27.934,0,0,1,4.9-4.528A9.383,9.383,0,0,1,1147.121,296.168Z" transform="translate(-1137.097 -296.168)"/></g><g transform="translate(34.662 90.506)"><path class="c" d="M1084.918,230.39c8.526,15.577,21.634,26.06,34.952,37.612a3.215,3.215,0,0,0,3.671.378,33.529,33.529,0,0,0,3.53-2.308,2.925,2.925,0,0,0,.708-3.981c-4.321-6.562-10.565-10.727-15.221-17.071a60.289,60.289,0,0,1-9.761-20.569,56.116,56.116,0,0,1-1.755-17.626c.2-3.076,3.432-11.617.038-13.727-2.261-1.407-9.67.174-12.369.28-1.914.073-7.176-.647-8.717.332-1.934,1.228-1.553,4.694-1.591,6.948C1078.245,210.369,1080.195,221.762,1084.918,230.39Z" transform="translate(-1078.396 -192.517)"/></g><g transform="translate(0 31.606)"><path class="a" d="M1031.328,176.811c.008.075.018.149.029.221,5.922,1.654,11.406-4.184,14.412-8.253,2.182-2.954,4.822-3.98,7.545-6.564,7.505-7.11,7.575-15.86,12.825-23.9a82.249,82.249,0,0,0,8.479-17.009c.7-1.95,1.321-4.133.475-6.031-1.289-2.886-5.511-3.537-8.365-2.07s-4.594,4.349-6.033,7.16c-3.94,7.694-4.959,15.76-7.862,23.6-1.328,3.585-4.344,7.194-6.183,10.621-.424.794-.855,1.571-1.3,2.335-1.009,1.751-2.119,3.631-3.342,5.414a32.06,32.06,0,0,1-3.079,3.893c-.7.743-2.953,1.79-4.947,3.293a14.609,14.609,0,0,0-2.357,4.067A7.851,7.851,0,0,0,1031.328,176.811Z" transform="translate(-1031.277 -112.448)"/></g><g transform="translate(7.751 177.08)"><path class="a" d="M1058.675,310.784l-1.755,7.655-.041,3.581a2.326,2.326,0,0,1-2.149,2.486l-11.151.091c-.052,0-.107-.005-.16-.01a1.949,1.949,0,0,1-1.586-1.75,1.752,1.752,0,0,1,.988-1.934l5.866-2.187a1.636,1.636,0,0,0,.7-.5,2.124,2.124,0,0,0,.132-.182,2.093,2.093,0,0,0,.227-.819,2.664,2.664,0,0,0-.046-.424l1.685-6.581Z" transform="translate(-1041.814 -310.208)"/></g><g transform="translate(6.049 185.808)"><path class="b" d="M1058.164,323.055l-.558,3.9a2.339,2.339,0,0,1-2.626,2.264l-11.808-2.262a1.639,1.639,0,0,1-.169-.043,2.34,2.34,0,0,1-1.438-2.252,1.8,1.8,0,0,1,1.31-1.907l6.506-1.151a1.614,1.614,0,0,0,.81-.4,23.47,23.47,0,0,1,6.573,1.249A8.583,8.583,0,0,1,1058.164,323.055Z" transform="translate(-1041.564 -321.204)"/></g><g transform="translate(41.856 17.901)"><path class="d" d="M1090.5,94.031a5.71,5.71,0,0,0-1.968,2.06,2.929,2.929,0,0,0-.037,2.738,2.147,2.147,0,0,0,2.483.995,3.752,3.752,0,0,0,0-1.9q-.349-2.039-.7-4.076c-.015-.09.113.051.04.107Z" transform="translate(-1088.176 -93.816)"/></g><g transform="translate(14.472 200.567)"><path class="e" d="M1050.985,342.174l.012-.013-.047-.024A.324.324,0,0,1,1050.985,342.174Z" transform="translate(-1050.951 -342.137)"/></g><g transform="translate(16.441 85.285)"><path class="f" d="M1063.731,277.093q-.437,1.757-.813,3.56c-.707,3.4-9.6.45-9.283-3.232.583-6.774,1.348-15.491,2.534-22.09,2.56-14.233,6.866-28.057,14.127-39.435,3.093-4.848,7.037-8.682,10.308-13.32a27.7,27.7,0,0,0,5.067-13.387c2.6-2.923,7.185-3.756,11.2-3.768,2.062-.005,4.283.124,6.068,1.5.069.047.14.1.209.161a5.493,5.493,0,0,1,1.678,5.574c.037.145.07.288.1.432,3.272,15.523-9.1,29.6-17.519,38.621C1076.008,243.909,1068.177,259.253,1063.731,277.093Z" transform="translate(-1053.628 -185.42)"/></g><g transform="translate(8.316 22.232)"><path class="g" d="M1068.428,133.281l1.239,4.763a5.89,5.89,0,0,1,.278,1.879,5.962,5.962,0,0,1-.926,2.433c-3.573,6.37-7.911,10.474-12.769,15.747-1.795,1.95-2.937,4.425-5.116,6.064-3.835,2.881-4.7.226-8.551-1.833.171-2.928,2.492-3.692,2.63-6.08.439-.765,4-4.247,4.428-5.042,1.839-3.427,10.1-26.524,14.044-34.217.318-.619.651-1.241,1.006-1.852.742-6.424,6.223-11.379,12.005-14.564,3.769-2.075,7.787.062,11.537.986a29.162,29.162,0,0,1,12.366,6.445,12.663,12.663,0,0,1,3.693,4.911,15.2,15.2,0,0,1,.711,4.495,189.3,189.3,0,0,1-.68,31.766c-.387,3.232-1.435,6.607-1.536,9.841-.082,2.6.92,4.958-.816,7.385-1.892,2.648-6.643,3.95-9.658,4.545-5.945,1.173-12.334,2.306-17.913-.039-3.816-1.6-4.935-2.706-5.372-6.309a55.4,55.4,0,0,1-.446-10.912c.013-.122.03-.244.04-.365a110.076,110.076,0,0,0-.2-17.243c-4.562,7.721-4.966,15.985-12.118,22.761-.291.277-.567.548-.831.814Z" transform="translate(-1042.582 -99.703)"/></g><g transform="translate(53.006 25.969)"><path class="a" d="M1106.131,105.033c4.483-1.63,11.22,5.18,13.964,7.878a46.977,46.977,0,0,1,10.964,16.792,44.74,44.74,0,0,1,1.75,5.78c.816,3.535,1.865,7.977,1.808,11.581-.077,5.005-3.041,10.466-4.54,15.18a34.8,34.8,0,0,1-2.394,5.236c-1.25,2.4-2.468,4.817-2.65,7.269-.029.4.188,2.795.251,5.22-.008.008-.015.02-.022.027-.118.129-.244.244-.367.371-.038.04-.175.145-.234.192-.162.093-.39.213-.488.268-.107.032-.321.1-.325.1-.137.037-.276.061-.416.088.52-.1-.425.01-.627,0-.149,0-.3-.019-.442-.03-.018,0-.03,0-.045,0a.365.365,0,0,0-.055-.013,13.173,13.173,0,0,1-2.044-.612.433.433,0,0,0-.051-.018c-.026-.013-.059-.031-.105-.052-.188-.089-.375-.179-.56-.274q-.5-.256-.991-.546c-.264-.155-.52-.319-.776-.486-1.223-4.49-.2-5.6,1.382-9.578a27.916,27.916,0,0,0,1.214-3.925c.91-3.838,1.245-7.95,1.881-11.765.854-5.126.9-10.479-1.645-15.242-2.759-5.151-7.8-9.578-11.295-14.4a33.785,33.785,0,0,1-4.915-8.635C1103.3,112.359,1102.115,106.5,1106.131,105.033Z" transform="translate(-1103.334 -104.784)"/></g><g transform="translate(34.394 9.098)"><path class="a" d="M1085.365,83.778c2.824,2.291,4.759,5.308,6.913,8.153,2.5,3.3,2.466,4.772-1.726,7.139-2.353,1.329-5.961,3.518-8.278,1.619-1.447-1.184-2.328-5.959-2.845-7.7-.74-2.486-3.459-11.089,1.591-11.139A7.19,7.19,0,0,1,1085.365,83.778Z" transform="translate(-1078.033 -81.85)"/></g><g transform="translate(27.902)"><path class="d" d="M1069.427,72.907a4.592,4.592,0,0,1,.83-1.724,4.3,4.3,0,0,1,1.608-1.2c3.26-1.452,7.01.755,10.594.589,1.4-.066,2.869-.5,4.176.013a4.934,4.934,0,0,1,1.953,1.593c.13.162.255.327.375.5,1.848,1.539,2.441,4.087,2.214,6.548a12.5,12.5,0,0,1-1.669,4.884,29.256,29.256,0,0,0-1.834,3.386c-.16.042-.322.079-.484.11-.074.014-.587.079-.606.093-.311.015-.624.014-.933,0a16.763,16.763,0,0,1-1.891-.207,17.558,17.558,0,0,1-2.5-.691c-.106-.069-.216-.136-.322-.207-.44-.534-.888-1.061-1.351-1.578a24.213,24.213,0,0,0-4.157-3.535c-.589-.417-1.212-.814-1.829-1.217h-.01c-.135-.088-.268-.179-.4-.27C1070.7,78.334,1068.492,76.51,1069.427,72.907Z" transform="translate(-1069.208 -69.481)"/></g><g transform="translate(30.496 5.889)"><path class="a" d="M1075.533,95.669c-.52-1.084-1.033-2.172-1.578-3.243a11.472,11.472,0,0,1-1.164-6.325,77.412,77.412,0,0,1,1.2-7.7,1.173,1.173,0,0,1,1.871-.656c1.187.935,2.416,2.1,3.583,2.3a18.99,18.99,0,0,0,4.556.281.628.628,0,0,1,.679.666l-.409,5.126a.63.63,0,0,0,.135.441.456.456,0,0,0,.72-.012l.348-.458a2.448,2.448,0,0,1,1.357-.887l.468-.116a1.068,1.068,0,0,1,1.367.909,1.95,1.95,0,0,1-.949,2.063l-1.05.259-.1,1.728a1.741,1.741,0,0,1-.3.877A10.981,10.981,0,0,1,1075.533,95.669Z" transform="translate(-1072.733 -77.487)"/></g><g transform="translate(53.006 25.969)"><path class="g" d="M1104.358,115.437a33.785,33.785,0,0,0,4.915,8.635c3.5,4.826,8.536,9.252,11.295,14.4,2.547,4.763,2.5,10.116,1.645,15.242-.636,3.815-.971,7.928-1.881,11.765-.13.541,4.838,1.815,5.387,1.828,2.4.055,2.427.013,4.117-1.47,2.351-2.063,3.786-6.115,4.6-9.007,2.416-8.535-.293-18.959-3.382-27.131a46.977,46.977,0,0,0-10.964-16.792c-2.744-2.7-9.48-9.508-13.964-7.878C1102.115,106.5,1103.3,112.359,1104.358,115.437Z" transform="translate(-1103.334 -104.784)"/></g><g transform="translate(68.55 85.865)"><g transform="translate(0 0)"><path class="b" d="M1124.708,186.478l-.243-.27c.039.09.076.182.11.274l.071,0Z" transform="translate(-1124.465 -186.208)"/></g></g><g transform="translate(35.5 27.029)"><path class="h" d="M1079.55,110.766c0-.016-.01-.032-.013-.049,1.15-.433,2.242-1.136,3.527-1.091,2.116.074,2.033,2.124,3.58,2.967,2.153,1.175,4.5-.7,6.119-1.916a53.82,53.82,0,0,0,5.081-4.353c.327-.315.8.207.477.522a53.669,53.669,0,0,1-5.43,4.61c-1.459,1.078-3.1,2.289-5.037,2.175a3.6,3.6,0,0,1-1.967-.68c-.734-.555-.916-1.457-1.543-2.08-1.161-1.149-2.845-.221-4.055.3-.224.1-.446.186-.669.265A3.266,3.266,0,0,0,1079.55,110.766Z" transform="translate(-1079.537 -106.225)"/></g><g transform="translate(31.145 43.488)"><path class="h" d="M1074.317,128.869c.338,3.625.555,7.284,1.034,10.894a15.162,15.162,0,0,0,1.573,4.551,6.393,6.393,0,0,1,.791,3.738c-.067.439-.782.4-.714-.041.251-1.666-.586-3.082-1.279-4.546a12.223,12.223,0,0,1-1.119-3.952c-.4-3.49-.659-7-.986-10.5C1073.577,128.573,1074.276,128.424,1074.317,128.869Z" transform="translate(-1073.616 -128.6)"/></g><g transform="translate(40.252 58.274)"><path class="h" d="M1086,150.577c.021-.626.062-1.251.113-1.877a31.406,31.406,0,0,0,1.189,3.148c1.159,3.376-.134,6.929.532,10.362.592,3.039,2.461,5.668,3.162,8.676a9.639,9.639,0,0,1-.129,4.683c-.525,2.042-1.5,4.178-.633,6.268.171.413-.466.73-.636.314-1.236-2.988.758-5.79.927-8.768.183-3.248-1.807-6.15-2.851-9.118-1.151-3.268-.391-6.439-.594-9.789a12.407,12.407,0,0,0-1.07-3.824C1086,150.627,1086,150.6,1086,150.577Z" transform="translate(-1085.996 -148.7)"/></g><g transform="translate(56.94 44.603)"><path class="h" d="M1109.245,130.166l8.155,4.616c1.292.73,2.586,1.457,3.874,2.193a3.538,3.538,0,0,1,1.933,1.973c.136.439-.565.584-.7.149-.38-1.223-2.251-1.878-3.26-2.45q-1.733-.983-3.466-1.963l-6.932-3.922C1108.447,130.535,1108.845,129.94,1109.245,130.166Z" transform="translate(-1108.682 -130.116)"/></g><g transform="translate(38.47 30.827)"><path class="i" d="M1084.817,118.539a41.712,41.712,0,0,0,4.124,20.232,26.819,26.819,0,0,0,3.281,4.977c.82.678,1.638,1.365,2.442,2.074,1.315,1.156,2.766,2.449,4.16,3.888.177.175.351.357.519.546a22.629,22.629,0,0,1,4.731,7.171c.572-1.732,1.189-3.439,1.863-5.118-.185-4.347-2.558-7.866-4.965-10.8-1.213-1.478-2.463-2.914-3.716-4.35-.588-.586-1.162-1.175-1.709-1.771a34.356,34.356,0,0,1-3.327-4.188q-.654-.824-1.287-1.673c-2.508-3.369-4.656-7.529-4.9-12.074a5.9,5.9,0,0,0,.674-.742.317.317,0,0,0,.127-.068,4.3,4.3,0,0,0,1.043-1.812,17.24,17.24,0,0,0-2.035-3.442,35.838,35.838,0,0,1-2.267,3.02A10.3,10.3,0,0,0,1084.817,118.539Zm.155-4.648a5.068,5.068,0,0,1,.159.554l-.026.234C1085.047,114.419,1085.005,114.156,1084.972,113.891Z" transform="translate(-1083.574 -111.388)"/></g></svg>