<svg xmlns="http://www.w3.org/2000/svg" width="126.4" height="236.344" viewBox="0 0 126.4 236.344"><defs><style>.a{fill:#feb6b9;}.b{fill:#e4e9ff;}.c{fill:#5193a2;}.d{fill:#6cceff;}.e{fill:#9e5d4e;}.f{fill:#3093d0;}.g{fill:#7089a1;}</style></defs><g transform="translate(-962.534 -91.193)"><path class="a" d="M1021.531,155.7c.4,8.6,5.8,15.9,11.4,21.9a141.168,141.168,0,0,0,14.4,13.5c1.5,1.3,3.1,2.5,4.7,3.7a6.1,6.1,0,0,0,3,1.5,4.845,4.845,0,0,0,2.6-.7c15.9-7.4,26.8-25.9,26.8-44.8a25.037,25.037,0,0,0,2.2-2.4c2.9-3.8,2.9-10.3.9-11.4-2.9-.7-4.2,1.2-5.9,2.6-2.7,2.3-3.9,7.1-1.5,9.8-7.9,9.2-16.1,18-24.7,26.4-.4-.6-.8-1.3-1.2-1.9a82.64,82.64,0,0,0-21.3-23.1c-2.9-2.2-7.2-4.1-9.8-1.4C1021.631,150.9,1021.331,153.4,1021.531,155.7Z"/><path class="b" d="M1023.031,149.3c2.6-2.6,6.8-.8,9.8,1.4a84.151,84.151,0,0,1,21.3,23.1,80.632,80.632,0,0,1-7,17.2,140.477,140.477,0,0,1-14.4-13.5c-5.6-6-11-13.3-11.4-21.9C1021.331,153.4,1021.631,150.9,1023.031,149.3Z"/><path class="a" d="M1039.531,323.2l-.5-2.7-.2-1.1-1.7-9.8,10.1-1.4,1.2,7.5.1.6a6.867,6.867,0,0,0,.3.8,2.177,2.177,0,0,0,.7.9c.1.1.1.2.2.2a.35.35,0,0,0,.2.1h0c.2.1.4.1.6.2l8.8,2.1a2.161,2.161,0,0,1,1.8,2.2,2.2,2.2,0,0,1-.8,1.8,2.39,2.39,0,0,1-1.4.5l-15.9,1A3.3,3.3,0,0,1,1039.531,323.2Z"/><path class="c" d="M1039.431,323.2l-.5-2.7c.3-.2.6-.3.9-.5a16.52,16.52,0,0,1,9.8-1.9c.3,0,.6.1.8.1a.6.6,0,0,0,.4.1h-.9c.2.1.4.1.6.2l8.8,2.1a2.161,2.161,0,0,1,1.8,2.2,2.2,2.2,0,0,1-.8,1.8,2.39,2.39,0,0,1-1.4.5l-15.9,1A3.463,3.463,0,0,1,1039.431,323.2Z"/><path class="a" d="M996.831,321.8l.1-2.7V318l.3-10,10.2.7-.4,7.6v.6a2.2,2.2,0,0,0,.1.8,3.13,3.13,0,0,0,.5,1l.2.2.2.2h0a2.185,2.185,0,0,0,.5.3l8.1,3.8a2.225,2.225,0,0,1,1.3,2.5,2.1,2.1,0,0,1-1.1,1.5,2.059,2.059,0,0,1-1.5.3l-15.8-2.3A2.983,2.983,0,0,1,996.831,321.8Z"/><path class="c" d="M996.731,321.8l.1-2.7a6.892,6.892,0,0,1,1-.4,16.269,16.269,0,0,1,10,.1c.2.1.5.2.7.3.1.1.3.1.4.2l-.9-.2a2.185,2.185,0,0,0,.5.3l8.1,3.8a2.225,2.225,0,0,1,1.3,2.5,2.1,2.1,0,0,1-1.1,1.5,2.059,2.059,0,0,1-1.5.3l-15.8-2.3A3.126,3.126,0,0,1,996.731,321.8Z"/><path class="d" d="M996.131,308.1a2.348,2.348,0,0,0,2.3,2.4l7.8.1a4.465,4.465,0,0,0,2.8-.6,4.869,4.869,0,0,0,1.1-1.8c5.3-13,3.2-45.2,7.7-58.4,8.4,9.8,15.3,49.9,18.6,62.8.3,1.2,10.4-1.1,11.7-2.3,2.2-2.3,3.6-13.5,4.5-16.9a36.525,36.525,0,0,0,1.1-5.2,59.145,59.145,0,0,0-1.9-25.1c-3-10.2-9.3-36.5-10.1-47.2-6.1-13.7-11.6-8-24.5-8.2-7.4-.1-14.6,2.2-21.1,5.5-2.5,1.3-5,2.8-6.5,5.1C984.531,226.2,996.631,294.5,996.131,308.1Z"/><path class="e" d="M1025.531,116.4l-2.2.2A17.961,17.961,0,0,1,1025.531,116.4Z"/><path class="b" d="M987.731,181c.2,16.4.3,32.9.4,49.3a104.143,104.143,0,0,0,52.8,4.1c1.5-.3,3.4-1.7,2.3-2.7l1.8.5a4.282,4.282,0,0,1,.6-2.2,398.81,398.81,0,0,1-5.1-40.8c-.8-10.9-1.3-22.3-6.7-32s-17.6-17.2-28.7-13.8c-7.5,2.3-12.7,8.8-15.1,15.8S987.731,173.6,987.731,181Z"/><path class="a" d="M974.231,187.1c2.8-12.8,7.5-24.9,16.8-33.6,2-1.9,4.7-3.6,7.2-2.7,3.5,1.2,3.6,6,3,9.6a112.1,112.1,0,0,1-6.4,21.9c-1.4,3.6-3.1,7.1-4.6,10.7-.8,2.1-1.6,4.1-2.3,6.2-.1.4-.3.9-.4,1.3h0c-1.5,5-2.1,10.1-3,15.1-1.9,11.2-3.8,31.5-18.5,32.9a3.62,3.62,0,0,1-2.3-.3,3.186,3.186,0,0,1-.8-4.1,19.346,19.346,0,0,1,2.8-3.6c5.9-7.5,4.2-24.5,5.4-33.7C972.031,200.2,972.931,193.5,974.231,187.1Z"/><path class="e" d="M1025.631,125.9a19.8,19.8,0,0,0-3.5-8c-2.5-3.8-18.2.9-21.2-2.5-1.5-1.7,9.6-12.3,10.3-14.5.7-2.4,3.7-3.2,6.2-3.3a44.223,44.223,0,0,1,6.3.2,2.947,2.947,0,0,1,1.3.5,2.1,2.1,0,0,1,.5,1.5,219.046,219.046,0,0,1,.9,25.6Z"/><path class="a" d="M1028.731,138.6s-9.1,10.1-25.8-6.4c2.7-3.7,2-8.5,1.3-13.2-.6-3.7-1.3-8.7.9-12,2.4,1.9,5.9,2.4,8.9,2.4a20.543,20.543,0,0,0,5.4-.7,1.268,1.268,0,0,0,.6-.1,22.557,22.557,0,0,1,3.9,1.5C1027.031,118.9,1036.731,126.8,1028.731,138.6Z"/><path class="a" d="M1026.931,150.8c-.1.7-.9,1.2-1.6,1.5a28.805,28.805,0,0,1-22.5,0,4.352,4.352,0,0,1-1.9-6.5,6.348,6.348,0,0,0,.7-1.2,31.388,31.388,0,0,0,3.1-8.9c.7-4.4-.1-8.8-.4-13.2-.1-2.2-.2-4.5-.1-6.7a1.741,1.741,0,0,1,.5-1.4,1.676,1.676,0,0,1,1.2-.3,17.154,17.154,0,0,1,5.8,1.5c2.1.9,4.3,1.7,6.4,2.6a6.176,6.176,0,0,1,2.4,1.3c1.2,1.2,1.3,2.9,1.6,4.5a23.337,23.337,0,0,1,.2,5.9,32,32,0,0,0,4.1,19.3A2.353,2.353,0,0,1,1026.931,150.8Z"/><path class="f" d="M989.831,119.1c.7,2.7,2.3,5,3.7,7.4,1.9,3.3,4.8,6.2,5.5,10,.3,1.6.6,3.3,1.9,4.2a3.5,3.5,0,0,0,4.1-.6,7.945,7.945,0,0,0,2.1-3.8c1.7-5.3-.2-10.4-1.3-15.9-2.6-13.2,8.7-8.9,17.4-12.1a10.891,10.891,0,0,0,6.6-6.5,8.043,8.043,0,0,0-2.2-8.8c-3.2-2.7-8.2-2.1-11.9,0s-6.5,5.3-9.9,7.9c-3.7,2.9-8.4,3.3-11.8,6.2C990.731,110,988.731,114.7,989.831,119.1Z"/><path class="g" d="M992.731,201.1h0c-.7-.1-1.4-.2-2-.3l2.2-1.1C992.831,200.2,992.831,200.6,992.731,201.1Z"/><path class="b" d="M991.031,153.5c2-1.9,4.7-3.6,7.2-2.7,3.5,1.2,3.6,6,3,9.6a112.1,112.1,0,0,1-6.4,21.9c-1.4,3.6-3.1,7.1-4.6,10.7a65.048,65.048,0,0,1-15.9-6C977.131,174.2,981.731,162.2,991.031,153.5Z"/></g></svg>