<svg xmlns="http://www.w3.org/2000/svg" width="103.901" height="264.929" viewBox="0 0 103.901 264.929"><defs><style>.a{fill:#b2adaa;}.b{fill:#feac96;}.c{fill:#feb6b9;}.d{fill:#ffe7e4;}.e{fill:#65372f;}.f{fill:#41657c;}.g{fill:#9e5d4e;}.h{opacity:0.42;}.i{fill:#ce8b7e;}.j{opacity:0.51;}.k{fill:#9e5f4b;}</style></defs><g transform="translate(-1165.03 -538.033)"><path class="a" d="M1223.031,542.7c1.4,2.7.1,5.5.7,8.3.6,2.6,2.6,5.1,4,7.4,2.2,3.7,4.4,7.6,4.8,11.9s-1.8,9.1-5.9,10.4a10.818,10.818,0,0,1-3.6.5,40.722,40.722,0,0,1-13.4-2c-4.4-1.4-9.3-2.4-13.6-4.1-3-1.2-5.7-4.5-4.6-7.6,1.1-3,5.2-4.2,6-7.4.4-1.8-.4-3.5-.7-5.3-2.2-11.4,8.9-18.5,19.2-16.4C1218.731,539,1221.731,540,1223.031,542.7Z"/><path class="b" d="M1214.731,578.5c1.6-3,4.4-2.8,7.3-1.5a29.308,29.308,0,0,1,7.9,5.7c.8.8,1.6,1.6,2.3,2.4a1.382,1.382,0,0,0,.3.4,1.2,1.2,0,0,1,.5.5l.1.1a5.011,5.011,0,0,1,.7.8l.1.1c.2.2.4.5.6.7.1,0,.1.1.2.2.2.2.4.5.6.7a.349.349,0,0,0,.1.2c.2.2.3.5.5.7,0,.1.1.2.2.3s.2.3.3.4c.2.3.4.5.5.7a.349.349,0,0,0,.1.2,4.346,4.346,0,0,0,.4.7,1,1,0,0,1,.4.5,16.435,16.435,0,0,1,1.4,2.2c.1.2.3.5.4.7,1,1.7,1.9,3.4,2.8,5.2.2.4.4.9.6,1.3,0,.1.1.2.1.3a6.111,6.111,0,0,1,.7,1.4c.2.4.4.9.6,1.4l.6,1.5c.2.5.3.9.5,1.4a55.109,55.109,0,0,0,.9-7.1c.1-1.2,0-2.3,0-3.5h0c0-1.2.3-2.3.3-3.5,0-1.8.1-3.6,0-5.4a6.458,6.458,0,0,1,.2-3.1c.6-1.6,7.3-11.7,8.3-12,3.3-1.1,1.5,4.8,1.2,6.1-1.1,4.7-2.8,7-1.7,11.8l.6,2.4v.1a17.4,17.4,0,0,0,.5,2.2l.9,3.6c2.2,9.5,3.7,18.7.5,28.6-.9,2.8-1.9,7.5-5.7,6.3-8.4-2.6-14.2-10.3-19.9-16.5-9-9.7-16.5-22.2-17.4-35.7A6.5,6.5,0,0,1,1214.731,578.5Z"/><path class="c" d="M1247.631,583.5c.6-1.6,6.7-10.1,7.7-10.4,3.3-1.1,1.5,4.8,1.2,6.1-1.1,4.7-2.8,7-1.7,11.8.2.8.3,1.6.5,2.4v.1c.2.7.2,1.5.4,2.2-2.7,1.6-3.9,2.1-9.3,1.3h0c0-1.2.3-2.3.3-3.5,0-1.8.1-3.6,0-5.4A14.458,14.458,0,0,1,1247.631,583.5Z"/><path class="d" d="M1246.531,597h0c0-1.2.3-2.3.3-3.5,2.8,0,5.8-.1,8.6-.1v.1c.2.7.3,1.5.5,2.2.3,1.2.5,2.4.8,3.6a2.566,2.566,0,0,1-1.2.5c-3,.5-6.2,1.1-9.1.7C1246.531,599.4,1246.431,598.2,1246.531,597Z"/><path class="e" d="M1258.531,567.1c-1.8,3.1-4.7,8-6.6,9.9a63.188,63.188,0,0,1-1.8,6.2,104.448,104.448,0,0,0,10.1-15.1.954.954,0,0,0-.3-1.2h0A.95.95,0,0,0,1258.531,567.1Z"/><path class="f" d="M1257.231,657.1h-1.6c1.5,0,2.9,0,4.3.1-.6-7.9-3.2-16.1-5.1-24-.8,1.7-1.9,1.4-2.9.7Z"/><path class="c" d="M1194.031,796.8c1.4-1.6,2.9-3.1,3.4-3.7,1.3-1.5,2.9-3,3.4-4.9a48.509,48.509,0,0,0,.9-5.5,4.864,4.864,0,0,0,.1-1.2l.6-6.4a55.521,55.521,0,0,0,9.9.6c-.9,4.4-2.7,8.2-2.7,12.8,0,.6.1,1.3.1,2,0,1.3.1,2.7-.4,3.5-.9,1.7-4.4,3-6.1,4-2.6,1.6-7.3,5.5-10.7,4.9C1189.931,802.4,1191.831,799.5,1194.031,796.8Z"/><path class="f" d="M1194.031,796.8c.2.3.1.7.3,1,.4.6,1.2.4,1.8.2a50.17,50.17,0,0,0,13.6-7.5c0,1.3.1,2.7-.4,3.5-.9,1.7-4.4,3-6.1,4-2.6,1.6-7.3,5.5-10.7,4.9C1189.931,802.4,1191.831,799.5,1194.031,796.8Z"/><path class="c" d="M1244.531,796.8c-1.4-1.6-2.9-3.1-3.4-3.7-1.3-1.5-2.9-3-3.4-4.9a48.509,48.509,0,0,1-.9-5.5,4.864,4.864,0,0,1-.1-1.2l-.6-6.4a55.521,55.521,0,0,1-9.9.6c.9,4.4,2.7,8.2,2.7,12.8,0,.6-.1,1.3-.1,2a9.113,9.113,0,0,0,.4,3.5c.9,1.7,4.4,3,6.1,4,2.6,1.6,7.3,5.5,10.7,4.9C1248.631,802.4,1246.731,799.5,1244.531,796.8Z"/><path class="f" d="M1244.531,796.8c-.2.3-.1.7-.3,1-.4.6-1.2.4-1.8.2a50.17,50.17,0,0,1-13.6-7.5,9.113,9.113,0,0,0,.4,3.5c.9,1.7,4.4,3,6.1,4,2.6,1.6,7.3,5.5,10.7,4.9C1248.631,802.4,1246.731,799.5,1244.531,796.8Z"/><path class="b" d="M1234.231,653.3l1.8-2.7c-13.1-1.9-26.3-3.8-39.4-5.7-1.3-.2-5.8-1.6-7-.9-3.9,2.3-2.6,14.9-2.4,18.9.9,14.5,3.4,28.4,5.1,42.8,2.7,23.4,6,47,5.2,70.5a2.263,2.263,0,0,0,2.3,2.3c4-.2,7.5-.3,11.5-.5a2.14,2.14,0,0,0,2.1-1.7c4.9-23.4,8-47.5,6.9-71.4-2.2,24.4,1.6,44.9,3.1,72.9,3.6.2,8.5.2,12.1,0a4.807,4.807,0,0,0,4-1.5,4.618,4.618,0,0,0,.7-2.6c2.8-41.5,2.1-83.3-5.2-124.2Z"/><path class="d" d="M1184.731,585.1c-5.1,9.6-4.8,21.1-4.3,31.9.5,10.1.9,20.1,1.3,30.1.6,12.3,8.9,17.1,19.2,20,3.5,1,7.2,1.8,10.9,2.6,6.9,1.5,14.4,1.4,20.9-1.3,11.8-4.9,3.7-28.8,1.5-38.1-1.7-7.2-1.8-14.4-2.7-21.7-1.3-11.3-4-24.3-12.8-32.2a3.235,3.235,0,0,1-4-.5c-.2-.1-.3-.3-.5-.4h-.1a6.728,6.728,0,0,0-1.1-.7,5.9,5.9,0,0,0-.8-.4c-.3-.1-.7-.2-1-.3-.4-.1-.9-.2-1.3-.3h-3.1a14.614,14.614,0,0,0-2.2.3,24.605,24.605,0,0,0-2.9.7,35.624,35.624,0,0,0-4.9,1.9,40.91,40.91,0,0,0-9.6,6.3A21.422,21.422,0,0,1,1184.731,585.1Z"/><path class="g" d="M1194.431,655c0-.2-.1-.4-.1-.6a14.33,14.33,0,0,0,1.1-1.5Z"/><path class="d" d="M1199.831,667.5c.8.2,1.1,1.1,1.3,1.9,1.6,6.5-1.3,13.4-5.3,18.8a1.206,1.206,0,0,1-.5.5,1.232,1.232,0,0,1-1-.2c-2.9-1.7-4.4-5.1-5.6-8.3a36,36,0,0,0,11.8-11.5Z"/><path class="c" d="M1220.131,567.1c3.6-3.8,3.2-12.9.4-18.8-1.2-.5-2.5-1-3.7-1.5a19.87,19.87,0,0,1-2.7,2.2,16.453,16.453,0,0,1-6.9,3.7c-.1.1-.1.1-.1.2.1,3.7,1,9.2.4,12.8-.6,3.9-3.6,6.3-6,8.4l-.5.5h0a13.323,13.323,0,0,0,.5,1.9,36.7,36.7,0,0,0,1.4,3.7,19.812,19.812,0,0,0,1.1,2l.6.9c.3.5.1.2.4.5a9.052,9.052,0,0,0,5,3.2,15.313,15.313,0,0,0,4-2.2,4.853,4.853,0,0,0,1.6-4.8l-2.1-11.1S1218.431,569,1220.131,567.1Z"/><path class="b" d="M1185.031,585.2c3.4-6.1,12.1-11.7,18.9-13.1.2.3-1.8,1.3-1.6,1.6,1.7,2.4,2.2,5.5,2.7,8.4,3.6,22.7,2.9,45.8-.3,68.5a97.183,97.183,0,0,1-3.8,16.8c-10.3-2.9-21.2,22.9-19.2-20,.4-10.1-.9-20.1-1.3-30.1C1180.031,606.3,1179.631,594.8,1185.031,585.2Z"/><path class="c" d="M1165.931,628.7c1.7-5.6,3.4-11.1,5.1-16.7,2.8-9.2,5.9-18.8,12.8-25.6a6.522,6.522,0,0,1,3.4-2.2c7.3-1.7,7.5,11.3,7.2,15.6-.8,12.6-6.1,24.5-12.2,35.7a1,1,0,0,1-.4.5l.5,1.9v-1.8c4.1,6.6,8.3,13.4,11.4,20.6,3.4,7.8,5.3,16,4.2,24.4-3.6-.8-5.7-4.5-6.6-8s-1-7.2-2.6-10.5a10.592,10.592,0,0,0-1.2-2c-.8-1.1-1.6-2-2.4-3-5.9-6.9-11.7-13.7-17.6-20.6a8.785,8.785,0,0,1-2.4-4A6.775,6.775,0,0,1,1165.931,628.7Z"/><path class="b" d="M1166.031,628.8c1.7-5.6,3.4-11.1,5.1-16.7,2.8-9.2,5.9-18.8,12.8-25.6a6.522,6.522,0,0,1,3.4-2.2c7.3-1.7,7.5,11.3,7.2,15.6-.8,12.6-6.1,24.5-12.2,35.7a1,1,0,0,1-.4.5l.5,1.9v-1.8c4.1,6.6,8.3,13.4,11.4,20.6a32.954,32.954,0,0,1-6.3,3.8c-.8-1.1-1.6-2-2.4-3-5.9-6.9-11.7-13.7-17.6-20.6a8.785,8.785,0,0,1-2.4-4A5.911,5.911,0,0,1,1166.031,628.8Z"/><g class="h"><path class="i" d="M1206.831,628.2c-1.2-3.2-2.9-6.3-3.8-9.6a.75.75,0,0,1,.1-.5c-1.2-4.3-2.4-8.5-3.6-12.8-.5-1.9-1.3-3.9-1.3-5.8,0-2,1.2-3.2,1.9-5,.4-1,.6-2.7-.6-3.2-.7-.3-1.6.2-2.3,0-1.5-.4-1.1-1.5-.9-2.7,1-4.8,2-12.4,3.1-14.2h0s.1-.7.1-.9c.1-.4.5-.9.8-.7.2.1.3.2.2.4-1,5-2.1,9.9-3.1,14.9-.2.8-.7,1.8.5,2.2a4.05,4.05,0,0,0,1.1,0,2.01,2.01,0,0,1,1.3.4,3,3,0,0,1,1.1,2.8c-.1,1.8-1.6,3.1-2,4.8-.7,2.3.6,5.1,1.2,7.3,1.4,4.9,2.7,9.7,4.1,14.6.1.1,0,.2,0,.3.7,1.9,1.5,3.7,2.3,5.6Z"/></g><path class="b" d="M1214.731,574.5c.8,4.5.9,12.3,1.1,14,.6,6,1,12,1.3,18,.3,5.6-.4,11.7.5,17.2.7,4.7,2.1,9.4,3.1,14.1a57.385,57.385,0,0,0,18.1,30.7,1.927,1.927,0,0,0,3.2-1.5,293.149,293.149,0,0,0-5.4-46.6c-1.1-6.3-2.9-12.7-3.1-19-.4-11.6-6.7-21.3-15.9-27.7a18.49,18.49,0,0,0-2.3-.9.544.544,0,0,0-.7.7A1.644,1.644,0,0,1,1214.731,574.5Z"/><path class="i" d="M1218.431,627.6c.5-1.9,1.2-3.8,1.6-5.8a.367.367,0,0,1-.1-.3c.7-5,1.5-10,2.2-15,.3-2.3,1.2-5.2.3-7.4-.6-1.6-2.2-2.7-2.6-4.5a3.04,3.04,0,0,1,.7-2.9,1.743,1.743,0,0,1,1.2-.6,3.751,3.751,0,0,0,1.1-.1c1.2-.5.5-1.5.3-2.2-1.6-4.8-3.3-9.6-5-14.4a.44.44,0,0,1,.1-.5c.2-.2.7-.3.8.1.1.1.1.2.2.2h0c1.7,1.8,3.3,9.7,4.9,14.4.4,1.1.9,2.8-.5,3.3-.6.3-1.6,0-2.2.4-1.1.7-.7,2.4-.2,3.3.9,1.7,2.3,2.8,2.5,4.8a23.654,23.654,0,0,1-.6,5.9c-.6,4.4-1.3,8.8-1.9,13.2a.55.55,0,0,1,.2.5c-.4,3.4-1.7,6.7-2.5,10Z"/><path class="f" d="M1234.731,657.2l3.3,1.1c1.2-3.3,7.6-42.3,8.5-48.1a1.483,1.483,0,0,1,.1-.7,18.035,18.035,0,0,1-.5-1.9c-.1,0-.3-.1-.4-.1C1241.231,624,1239.831,640.6,1234.731,657.2Z"/><path class="f" d="M1232.831,661.6c-.4,3.8.5,7.7.5,11.5.1,7.5.3,14.9.8,22.4a238.571,238.571,0,0,1,34.8-3.5,102.052,102.052,0,0,0-7.9-34.4h-1.3c.1,2.1.3,4.1.4,6.2l-17.1-5.7h-.8c-1.3.2-2.5.3-3.8.5.1-.6.3-1.3.4-1.9.1-.7-4-.9-4.6-.5a3.145,3.145,0,0,0-1,1.9A26.806,26.806,0,0,0,1232.831,661.6Z"/><g class="j"><path class="k" d="M1235.031,662.7c1.7,8.7,8.7,15.2,15.5,20.2,1.5,1.1,3.3,2.1,5.2,1.3,1.6-.6,2.6-2.2,3.3-3.7a58.685,58.685,0,0,0,4.4-14.8c.1-.6-.8-.9-.9-.3a66.345,66.345,0,0,1-3.7,13c-.7,1.7-1.5,4-3.4,4.8-2.3,1-4.6-1.4-6.3-2.7-6-4.7-11.7-10.4-13.2-18.1C1235.831,661.8,1234.831,662,1235.031,662.7Z"/></g><path class="f" d="M1238.231,662.1l8.1,5.6c3.8,2.7,8.7,5.9,13,2.2,3.8-3.3,3.4-8.7,1.3-12.9l-.1-.1c-.1,0-.1-.1-.2-.2-5-4.4-10.8,2.6-16.2,1.2-2.2-.6-4-2.7-6.4-2.5a2.91,2.91,0,0,0-3,2.3C1234.531,659.8,1236.831,661.1,1238.231,662.1Z"/><path class="i" d="M1181.531,635.7l-.3.1.1.2c.5.7,1,1.4,1.4,2.1v-.6c1.8,2.9,3.7,5.9,5.4,8.9.5.9.9,1.7,1.4,2.6s1,1.7,1.4,2.6l.7,1.3.6,1.3.6,1.3.1.1a1.268,1.268,0,0,1,.6.1c.1.1.1.1.2.1l-.2-.5-.6-1.3-.6-1.3-.6-1.3c-.5-.9-.9-1.7-1.4-2.6-.4-.9-.9-1.7-1.4-2.6-1.9-3.4-4-6.8-6.1-10.1l-.1-.2.1-.2.4-.8a7.974,7.974,0,0,1,.8-1.6c.5-1.1,1.1-2.1,1.6-3.2,1-2.1,2.1-4.2,3-6.4.9-2.1,1.8-4.4,2.6-6.6s1.5-4.5,2.1-6.8c.5-2.3,1-4.6,1.3-7l.1-.9.1-.9c0-.6.1-1.2.1-1.8.1-1.2.1-2.4.1-3.6a29.747,29.747,0,0,0-1-7.2,8.858,8.858,0,0,0-1.6-3.4,7.41,7.41,0,0,0-1.3-1.2,18.079,18.079,0,0,1,2.7,11,.6.6,0,0,0-.1.4v.3a20.434,20.434,0,0,1,0,3.5c0,.5-.1,1.1-.1,1.7l-.1.9-.1.9a55.388,55.388,0,0,1-1.2,6.9c-.6,2.3-1.2,4.6-2,6.8-.7,2.3-1.6,4.4-2.5,6.6s-2,4.3-3,6.4c-.5,1.1-1.1,2.2-1.6,3.2a7.974,7.974,0,0,1-.8,1.6l-.3.5-.1-.2v.3h0l-.1.2a.349.349,0,0,1-.1.2Z"/><path class="d" d="M1187.631,662.1a12.962,12.962,0,0,1,4.6-2.8,2.844,2.844,0,0,0,1.7-3.8l-1-2.3a7.033,7.033,0,0,0-.6-.9h-.7a4.325,4.325,0,0,1-.5.1,17.487,17.487,0,0,0-7.1,3.8,1.2,1.2,0,0,0-.5.5A15.511,15.511,0,0,0,1187.631,662.1Z"/><path class="d" d="M1200.031,666.3c0,2.4-.2,4.8-.4,7.2a38.637,38.637,0,0,0,1.9-5.4Z"/><path class="d" d="M1193.931,690.2a3.871,3.871,0,0,0,3.1-1.3,6.787,6.787,0,0,0,.9-2.5q1.2-6.45,1.8-12.9a33.609,33.609,0,0,1-8.4,11,33.526,33.526,0,0,0,2,3.7A4.274,4.274,0,0,1,1193.931,690.2Z"/></g></svg>