<svg xmlns="http://www.w3.org/2000/svg" width="86.885" height="257.285" viewBox="0 0 86.885 257.285"><defs><style>.a{fill:#feb6b9;}.b{fill:#f6be8f;}.c{fill:#41657c;}.d{fill:#5bc5c9;}.e{fill:#dfecfe;}.f{fill:#b2adaa;}.g{fill:#b47c6f;}.h{fill:#9e5d4e;}.i{fill:#e96c5a;}.j,.k{fill:#e4e9ff;}.j{stroke:#d4dcf9;stroke-width:0.2px;}.l{fill:#ffe7e4;}.m{fill:#6cceff;}.n{fill:#d4dcf9;}</style></defs><g transform="translate(-224.249 -70.032)"><path class="a" d="M234.757,193.415a6.48,6.48,0,0,0-.7,3.6,15.085,15.085,0,0,0,1.6,3.4,5.717,5.717,0,0,1-2.2,6.9,1.163,1.163,0,0,1-1,.2c-.1,0-.2,0-.2-.1-.4,1.6-.8,3.3-1.2,4.9a7.534,7.534,0,0,1-6.6-6.4,11.739,11.739,0,0,1,2-9.1,7.6,7.6,0,0,0,1.6-2.6,6.15,6.15,0,0,0,0-2.7c-1.3-10.8.5-21.9,3.7-32.3.2-.1.3-.4.4-.6.4-1.1,1.2-1.1,2.3-.8a20.492,20.492,0,0,1,4.7,2.3c1.5.9,3.1,2,4.8,2.9a2.826,2.826,0,0,1,1.5,3.2,32.55,32.55,0,0,1-1.5,4.4C240.858,178.215,237.758,185.815,234.757,193.415Z"/><path class="b" d="M242.188,297.516l-3,19.1v.5a3.582,3.582,0,0,1-.4,1.1c-.1,0-.1.1-.2.2a3.577,3.577,0,0,1-1,.7l-8.2,3.8a2.484,2.484,0,0,0-1.3,2.2,2.329,2.329,0,0,0,2.4,2.2h.2l15.8-2.2a3.362,3.362,0,0,0,2.9-3.4l-.1-4.4,2.8-21.8Z"/><path class="c" d="M247.442,317.2a32.767,32.767,0,0,0-8.8,1.2,3.591,3.591,0,0,1-1,.7l-8.2,3.8a2.485,2.485,0,0,0-1.3,2.2,2.263,2.263,0,0,0,2.4,2.2h.2l15.8-2.2a3.361,3.361,0,0,0,2.9-3.4l-.1-4.4C248.742,317.3,248.042,317.2,247.442,317.2Z"/><path class="b" d="M286.042,308.847l.3,8.2c0,.2-.9.4-.9.6.1.4-.7.8-.5,1.1.1,0,.1.1.2.2a2.286,2.286,0,0,0,1,.7l8.5,3.1a2.328,2.328,0,0,1-.7,4.5h-.2l-15.9-.9a3.272,3.272,0,0,1-3.1-3.2v-4.4l-.1-9.5Z"/><path class="c" d="M276.133,318.446a37.726,37.726,0,0,1,8.9.5,2.286,2.286,0,0,0,1,.7l8.5,3.1a2.256,2.256,0,0,1,1.5,2.1,2.208,2.208,0,0,1-2.2,2.4h-.2l-15.9-.9a3.441,3.441,0,0,1-3.2-3.2l-.3-4.4C274.833,318.646,275.533,318.546,276.133,318.446Z"/><path class="d" d="M295.215,237.456c-.6,3-1.8,6-1.6,9.1.6,13.1,1.7,16.3-.1,29.5-1.7,12.4-1.8,24.6-3.5,37a4.174,4.174,0,0,1-2.2,3.2c-3.5,1.8-7.6,1.5-10.6.8a4.283,4.283,0,0,1-3.4-4.6c1.1-14.2-1.4-57.3-5.1-95.4l-7.9,26.8c-5.2,13.6-2.8,27.6-4.5,42.1l-.4,28.1a1.964,1.964,0,0,1-.9,1.3c-5,2.9-12.4,1.7-15.5,1a1.75,1.75,0,0,1-1.4-1.9l.1-52.9c1-10.1-2-20.1.6-29.9,1.6-6.1-1.6-11.8-.3-18a66.862,66.862,0,0,0,1.4-10c.1-2-1-6.2.2-7.9,1.3-1.9,8.7.1,11-.2,5.2-.5,10.4-1.1,15.6-1.7,7.7-.8,16.2-8.8,23.6-9.2a121.148,121.148,0,0,0,1.5,12.1,5.852,5.852,0,0,0,.2,1.3C292.415,209.356,295.215,226.156,295.215,237.456Z"/><path class="e" d="M289.785,113.615a51.991,51.991,0,0,0-6.2-3.2,27.405,27.405,0,0,0-13.8-2.5c-6.2.7-8,2-7.8,8.2a49.182,49.182,0,0,0,3.1,15.6c.3.9.7,1.8,1.1,2.7a4.181,4.181,0,0,0,1.8,2.3c1.4.6,3-.3,4.2-1.2,1.4-1,2.7-1.9,4-2.9,5.6-4.2,11-8.7,14.7-14.6a6.59,6.59,0,0,0,1.1-2.4C291.985,114.915,291.285,114.415,289.785,113.615Z"/><path class="f" d="M261.453,82.913a2.353,2.353,0,0,1-.2.8,19.714,19.714,0,0,0,1.4,7.6c.3.6.6,1.1.9,1.7l.1-.7c-1-3,.5-6.2,1.8-9.1s2.5-6.3,1-9.1c-.1-.2-.3-.4-.4-.6a13.618,13.618,0,0,0-4.9,5.7v1.3Q261.3,81.563,261.453,82.913Z"/><path class="g" d="M260.463,76.8c-.1.2-.2.3-.3.5a8.961,8.961,0,0,0,1.5,1.9,10.93,10.93,0,0,0,2.1,2.2l.2-.2a2.3,2.3,0,0,1,1.1,2.7c2.3.1,4.8.3,6.3,2.3,1.7,2.2,1.4,6.2,1.8,8.8a5.816,5.816,0,0,0,1.8,4.3,5.029,5.029,0,0,0,2.7.8c1.2.2,3.3.8,4.5.4,1.4-.4,1-8.5,1.9-9.8,1.2-1.7,3.6-2.6,4-4.7.5-2.5-2.3-4.6-2-7.1a5.079,5.079,0,0,0,.3-1.7c0-1.3-1.3-2.3-2.5-2.9-5.4-2.9-12.3-6.1-18.2-3a10.376,10.376,0,0,0-5.5,10.4c.3,3,1.9,5.6,2.5,8.5Z"/><path class="h" d="M262.345,86.165l1.5-.2A7.719,7.719,0,0,0,262.345,86.165Z"/><path class="g" d="M282.967,90.672c1.3-5.7-1.8-12.1-6.8-14.2,2.2,1.9,2.5,5.4,2.1,8.4-.2,1.9-.7,3.7-.9,5.6a.854.854,0,0,0,0,.7,2.268,2.268,0,0,0,2.7,1.7c.9-.2,1.7-.3,2.5-.4.1-.5.1-.9.2-1.3A1.689,1.689,0,0,0,282.967,90.672Z"/><path class="e" d="M286.221,118.651a14.705,14.705,0,0,1-4.5,5.1,32.914,32.914,0,0,1-8.1,4.7,4.024,4.024,0,0,1-5.6-.9,16.412,16.412,0,0,1-3.9-7.5,10.888,10.888,0,0,1,.8-7.3h0a4.958,4.958,0,0,0,2-.8,50.816,50.816,0,0,0,4.1,5.1,4.261,4.261,0,0,0,2,1.5,3.973,3.973,0,0,0,2.4-.2,32.46,32.46,0,0,0,9.7-5.2,8.794,8.794,0,0,0,1,.6,5.939,5.939,0,0,0,.8.4A8.73,8.73,0,0,1,286.221,118.651Z"/><path class="i" d="M279.034,135.57a1.072,1.072,0,0,0,.2-.6C279.234,134.77,279.134,135.07,279.034,135.57Z"/><path class="b" d="M275.67,162.389l-.1-.1h0A.1.1,0,0,0,275.67,162.389Z"/><path class="a" d="M281.566,90.95a2.188,2.188,0,1,1-3,1.4A2.256,2.256,0,0,1,281.566,90.95Z"/><path class="j" d="M238.29,188.583c-1.5.7-2.2,3-3.9,3.1a2.822,2.822,0,0,1-1.5-.4,14.036,14.036,0,0,1-6.7-8.2c-1.2-3.4,3.4-26.3,3.7-29.9.9-13.4,7.8-30.2,20.3-36.8Z"/><path class="k" d="M302.835,143.661a88.563,88.563,0,0,1,2.1-8.9,12.459,12.459,0,0,0-.6-8.9,15.538,15.538,0,0,0-3.3-3.9c-8.3-8-19.5-14.1-31.3-12.8a31.362,31.362,0,0,0-6.7,1.7c-.5.2-.9.3-1.4.5-4,1.5-9,2.6-12.1,5.8a28.572,28.572,0,0,0-6.5,11.8c-3.7,11.9-3.5,24.7-3.1,37,.2,5-.1,9.9-.3,14.9-.1,2.1.3,4.7-.3,6.7-.9,3.2-3.1,6.9,1.8,8.6l-.9-.1c3.7.5,7.6,2.8,11.4,3.5a59.1,59.1,0,0,0,11.9.9c7.8-.3,14.8-3.2,22.4-4.2,7.1-.9,8.4-2.3,7.1-9.6a53.648,53.648,0,0,1,1.3-22.2c1.2-4.8,5.4-12.3,5.1-17.1,1.2-3.5,2.3-6.2,3.1-9.2a27.362,27.362,0,0,0,.8-6.4,16.32,16.32,0,0,0-1-6.6,22.18,22.18,0,0,0-6.6-8Z"/><path class="l" d="M258.258,167.812"/><path class="k" d="M273.258,166.912c.9,1.2,2.5,3.4,3.3,4.6,3.5,5.2,4,9,9.8,11.5a26.741,26.741,0,0,0,9.7,2.5c3.2.1,7.4-.6,9.6-3.1,2.5-3,3.4-7.8,4.1-11.5a76.411,76.411,0,0,0,.2-27.8,59.369,59.369,0,0,0-4.1-14.4c-1.8-4.1-6.1-14.1-11.8-7.8-2.9,3.2-3.7,7.6-4.1,11.9-.9,10.5-2.2,22.4.1,32.8-4.8-2.8-5-3.7-8.9-6.4,0,0-6.6.1-6.7.1h0"/><path class="m" d="M274.074,127.616a31.655,31.655,0,0,1-2.9-3.5,21.345,21.345,0,0,0-2.3,4.2,4.648,4.648,0,0,0,1.3,2.1c.1.1.1.1.2.1a6.47,6.47,0,0,0,.8.9,27.258,27.258,0,0,1-5.4,14.8l-1.5,2.1a38.45,38.45,0,0,1-3.8,5.2c-.6.7-1.3,1.5-2,2.2-1.5,1.8-2.9,3.6-4.3,5.4-2.8,3.6-5.5,7.9-5.5,13.2.9,2,1.7,4,2.5,6.1a27.956,27.956,0,0,1,5.4-8.9,4.348,4.348,0,0,1,.6-.7c1.6-1.8,3.3-3.5,4.8-4.9,1-.9,1.9-1.7,2.9-2.6a34.19,34.19,0,0,0,3.7-6.1,50.626,50.626,0,0,0,4.1-24.6A12.949,12.949,0,0,0,274.074,127.616Zm-1.8-.6a1.978,1.978,0,0,1-.2,1v-.3a6.38,6.38,0,0,1,.2-.7Z"/><path class="a" d="M281.462,159.542a11.437,11.437,0,0,1-2.2,4.9,6.739,6.739,0,0,1-4,2.8,3.788,3.788,0,0,1-1.5,0c-1.1-2.5-2-5-3.2-7.4l-.3-1.2c-.1-.5-.1-1.5-.4-1.8-.5-.6-2.1-.6-2.8-.9a19.235,19.235,0,0,1-3.1-1.8,15.584,15.584,0,0,1-2-1.6,8.044,8.044,0,0,1-2.1-6.8,35.624,35.624,0,0,1,11.9,4A36.2,36.2,0,0,1,281.462,159.542Z"/><path class="a" d="M261.434,93.314c-.2,2.2.6,8,2.1,10.2,1.7,2.4,6,5.8,16.7-7.4.4-1.3,2.7-3.6,2.5-4.8-1.9-1.1-3.1-.5-3.2-2.9-.1-2.1.7-4.1-.4-6.2l-.1-.1a26.255,26.255,0,0,1-6-2.5,10.461,10.461,0,0,0-5.7-1.6C262.634,80.014,261.734,89.114,261.434,93.314Z"/><path class="a" d="M265.124,116.718a1.818,1.818,0,0,0,1,1.1,17.18,17.18,0,0,0,12.2,1.2c2.9-.8,6.6-1.9,6.3-5.2-.4-3.8-2.1-7.8-2.7-11.7l-.9-6.3c-.2-.9-.1-3.8-.7-4.3a2.354,2.354,0,0,0-.8-.2,10.207,10.207,0,0,0-3.8,1c-1.4.6-2.8,1.1-4.2,1.7a5.072,5.072,0,0,0-1.6.9c-1,.9-1,2.4-1.3,3.6a15.5,15.5,0,0,0-.1,4.3,25.22,25.22,0,0,1-3.2,12.9A1.163,1.163,0,0,0,265.124,116.718Z"/><path class="g" d="M278.491,77.979c.7.4-4.1-1.6-4.8-1.1a5.838,5.838,0,0,1-2.2.8c4-.9-13.2,14.4-5.9,4.3.4-.6-4.1,5.7-3.6,6.2a10.013,10.013,0,0,1-2.7-4.8c-.5-2.6.6-7.3,3.8-7.6a7.719,7.719,0,0,0,1.5-.2c1.3-.4,1.7-1.9,2.7-2.8,1.6-1.4,4.2-.6,6,.6a22.9,22.9,0,0,1,5.2,4.6Z"/><path class="n" d="M267.386,124.786c.3-.1.6-.3.9-.4,1.5-.8,3.7-2.1,5.3-.6.8.8,1.1,2,2.1,2.7a4.7,4.7,0,0,0,2.6.8c2.6.1,4.7-1.6,6.6-3.1a59.454,59.454,0,0,0,7-6.3c.4-.5-.3-1.1-.7-.7a74.491,74.491,0,0,1-6.5,6c-2.1,1.7-5.1,4.3-8,2.8-2.1-1.1-2.1-3.8-4.9-3.8a11.179,11.179,0,0,0-4.6,1.7h0A5.074,5.074,0,0,0,267.386,124.786Z"/><path class="n" d="M294.276,136.445c-.3,4.6-.4,9.3-.8,13.9a16.479,16.479,0,0,1-1.3,5.3c-.9,2-1.9,3.9-1.5,6.1.2.6-.8.7-.9.1a8.629,8.629,0,0,1,.9-5,18.831,18.831,0,0,0,1.9-6.1c.5-4.7.6-9.6.9-14.4C293.476,135.745,294.376,135.945,294.276,136.445Z"/><path class="n" d="M250.544,135.276a14.651,14.651,0,0,0-1.9,4.884c-.725,4.442-.107,8.669-2.106,12.831-1.745,3.794-4.764,7.309-4.966,11.622-.246,3.9,2.026,7.859-.016,11.611a.494.494,0,0,1-.836-.521c1.479-2.62.483-5.587.066-8.373a13,13,0,0,1,.467-6.2c1.349-3.85,4.227-7.081,5.377-10.958,1.32-4.359.092-9.278,2.1-13.539.69-1.317,1.38-2.634,1.971-3.964-.026.9-.138,1.7-.15,2.5Z"/><path class="n" d="M275.688,168.743l8.012,6.86c1.414,1.117,2.734,2.266,4.053,3.414,1.163.989,2.886,3.058,4.532,2.944.506-.06.72.922.088.918a5.1,5.1,0,0,1-3.341-1.544c-1.571-1.277-3.016-2.489-4.493-3.8l-9.457-8.072C274.643,169.083,275.123,168.3,275.688,168.743Z"/></g></svg>