<svg xmlns="http://www.w3.org/2000/svg" xmlns:xlink="http://www.w3.org/1999/xlink" width="851.428" height="486.905" viewBox="0 0 851.428 486.905"><defs><style>.a{fill:url(#a);}.b{fill:#3367c4;}.c,.q,.r{fill:none;}.d{clip-path:url(#d);}.e{fill:#73d7ff;}.f,.u{fill:#fff;}.g{clip-path:url(#ei);}.h{fill:#3d7bc7;}.ac,.ad,.i,.y{fill:#f9bcaa;}.j{fill:#004687;}.k{fill:#467de4;}.l{fill:#074687;}.m{fill:#e6a677;}.n{fill:#a5c8e8;}.o{fill:#b5dcff;}.p{fill:#db4127;}.q{stroke:#db4127;stroke-width:5.555px;}.q,.r{stroke-linecap:round;stroke-linejoin:round;}.r{stroke:#003669;stroke-width:2.222px;}.s{fill:#b9a7fc;}.t{opacity:0.4;}.ac,.ad,.af,.t,.v,.x{mix-blend-mode:overlay;}.ac,.ad,.af,.ah,.t,.v,.x{isolation:isolate;}.u{opacity:0.7;}.ac,.v{opacity:0.2;}.aa,.w{fill:#3f536f;}.ad,.x{opacity:0.3;}.aa,.y{fill-rule:evenodd;}.z{fill:#8d7fa2;}.ab{fill:#f1bd9a;}.ae{fill:#ffd76a;}.af{opacity:0.1;}.ag{fill:#4432db;}.ai{fill:#002f70;}.aj{fill:#00204c;}.ak{fill:#003886;}.al{fill:#628bd8;}.am{fill:#78a5fa;}.an{fill:#1f629a;}.ao{clip-path:url(#ej);}.ap{fill:#174b76;}.aq{fill:#39a2ea;}.ar{fill:#8c24b5;}.as{clip-path:url(#ek);}.at{fill:#62197e;}.au{fill:#d19fc6;}.av{fill:#9d8d2a;}.aw{fill:#288873;}.ax{fill:#31a88e;}.ay{fill:#ad89a5;}</style><linearGradient id="a" x1="-1.558" y1="-1.012" x2="5.435" y2="4.034" gradientUnits="objectBoundingBox"><stop offset="0" stop-color="#003575"/><stop offset="0.022" stop-color="#a6cbff"/><stop offset="0.495" stop-color="#7bbdff"/><stop offset="1" stop-color="#6773f7"/></linearGradient><clipPath id="d"><path class="a" d="M1772.008,2640.4c-.321-.793.965-1.138,1.283-.353,3.685,9.11,8.9,17.391,14.348,25.522a18.484,18.484,0,0,1,5.991-12.411c.63-.579,1.573.36.941.94a17.114,17.114,0,0,0-5.639,12.005.639.639,0,0,1-.523.613c1.36,2.02,2.729,4.033,4.09,6.049q2.736,4.054,5.313,8.176a22.85,22.85,0,0,1,10.632-19.417c.725-.459,1.393.691.671,1.148a21.508,21.508,0,0,0-9.836,20.664,134.686,134.686,0,0,1,10.461,20.923c1.451,3.752,2.729,7.554,3.863,11.4.167.187.682,1.289.441,1.523.773,2.719,1.469,5.46,2.108,8.213a17.1,17.1,0,0,1,13.718-11.814c.837-.126,1.2,1.155.354,1.282a15.826,15.826,0,0,0-13.142,12.2.56.56,0,0,1-.451.452,262.716,262.716,0,0,1,4.705,31.494c.629-1.178,2.139-1.78,3.467-2.3a89.874,89.874,0,0,1,12.138-3.714c.833-.195,1.188,1.088.354,1.283-2.4.561-15.187,3-14.919,6.229a.6.6,0,0,1-.847.6c.5,5.563,1.256,16.737,1.258,16.771.182.225.522,1.538.107,1.625.95,14.392,2.271,29.074-.528,43.318-.165.839-1.447.484-1.283-.354,2.668-13.575,1.415-27.5.584-41.2-.058-.968-.12-1.935-.181-2.9a17.453,17.453,0,0,0-9.027-5.353c-3.4-.914-9.364-2.549-12.735-.91-.767.373-1.442-.774-.672-1.148,3.826-1.86,9.839-.278,13.76.775a19.478,19.478,0,0,1,8.542,4.577c-.678-10.416-1.534-20.826-2.974-31.166a.652.652,0,0,1-.27.039,19.885,19.885,0,0,0-17.861,8.752c-.477.706-1.63.041-1.149-.671a21.225,21.225,0,0,1,19.01-9.411.646.646,0,0,1,.1.025c-.036-.249-.067-.5-.1-.748-.7-4.745-1.531-9.474-2.533-14.168a.746.746,0,0,1-.108-.054,44.074,44.074,0,0,0-23.52-6.928.666.666,0,0,1,0-1.331,45.4,45.4,0,0,1,23.237,6.528c-.815-3.651-1.732-7.278-2.78-10.866a37.152,37.152,0,0,0-22.411-11.837c-.844-.12-.485-1.4.354-1.283a38.226,38.226,0,0,1,21.2,10.324c-.651-2.081-1.33-4.153-2.073-6.2-2.848-7.858-12.717-25.567-13.363-26.6a.655.655,0,0,1-.09-.053,46.205,46.205,0,0,0-21.071-10.933c-.835-.188-.482-1.471.353-1.283a47.475,47.475,0,0,1,18.467,8.622q-.882-1.345-1.779-2.685C1784.634,2663.443,1776.975,2652.676,1772.008,2640.4Z" transform="translate(-1771.957 -2639.602)"/></clipPath><clipPath id="ei"><path class="b" d="M382.389,186.27c6.926-1.2,11.736,6.026,13.088,12.362.726,3.393.744,7.355,3.381,9.61a19.279,19.279,0,0,0,3.851,2.106c7.654,3.947,8.157,11.325,8.3,18.728a7.24,7.24,0,0,0,.7,3.61c.716,1.2,2.071,1.9,2.865,3.057a7.654,7.654,0,0,1,1.006,2.676c1.932,8.405.915,16.129.852,24.538-.458,59.779-32.975,56.992-32.975,56.992a10.68,10.68,0,0,1-1.29-.011c-7.878-.375-14.975-5.23-19.646-11.334-4.816-6.3-7.479-14.032-9.068-21.717a117.768,117.768,0,0,1-1.982-17.189c-.358-6.228-1.685-12.032.753-18.087,1.113-2.769,2.8-5.445,2.812-8.429.011-3.263-2-6.254-2.106-9.513a14.839,14.839,0,0,1,1.273-5.7,93.152,93.152,0,0,1,5.931-13.251c1.889-3.214,6.11-5.059,7.236-8.721a17.628,17.628,0,0,0,.319-4.616c.256-7.615,6.878-12.991,13.763-14.9C381.768,186.395,382.081,186.324,382.389,186.27Z" transform="translate(-350.788 -186.138)"/></clipPath><clipPath id="ej"><path class="c" d="M1915.069,3308.138l1.128-18.782q-.015.248-.025.5l-1.127,18.782Q1915.055,3308.386,1915.069,3308.138Z" transform="translate(-1915.045 -3289.356)"/></clipPath><clipPath id="ek"><path class="c" d="M1926.907,3332.889l-.677,11.27c-7.7-7.157-11.449-15.4-11.132-23.466l.677-11.269C1915.458,3317.492,1919.212,3325.733,1926.907,3332.889Z" transform="translate(-1915.08 -3309.423)"/></clipPath></defs><g transform="translate(-412.557 -454.151)"><g transform="translate(417.518 -578.856)"><g transform="translate(306.551 1066.515)"><path class="a" d="M1860.845,2637.737c.663-.638,1.747.306,1.087.941-5.538,5.327-7.689,12.458-5.878,19.447.216.833-1.265,1.189-1.481.353C1852.634,2651,1854.925,2643.431,1860.845,2637.737Z" transform="translate(-1836.639 -2628.551)"/><g transform="translate(7.752 10.193)"><g transform="translate(0)"><path class="a" d="M1772.008,2640.4c-.321-.793.965-1.138,1.283-.353,3.685,9.11,8.9,17.391,14.348,25.522a18.484,18.484,0,0,1,5.991-12.411c.63-.579,1.573.36.941.94a17.114,17.114,0,0,0-5.639,12.005.639.639,0,0,1-.523.613c1.36,2.02,2.729,4.033,4.09,6.049q2.736,4.054,5.313,8.176a22.85,22.85,0,0,1,10.632-19.417c.725-.459,1.393.691.671,1.148a21.508,21.508,0,0,0-9.836,20.664,134.686,134.686,0,0,1,10.461,20.923c1.451,3.752,2.729,7.554,3.863,11.4.167.187.682,1.289.441,1.523.773,2.719,1.469,5.46,2.108,8.213a17.1,17.1,0,0,1,13.718-11.814c.837-.126,1.2,1.155.354,1.282a15.826,15.826,0,0,0-13.142,12.2.56.56,0,0,1-.451.452,262.716,262.716,0,0,1,4.705,31.494c.629-1.178,2.139-1.78,3.467-2.3a89.874,89.874,0,0,1,12.138-3.714c.833-.195,1.188,1.088.354,1.283-2.4.561-15.187,3-14.919,6.229a.6.6,0,0,1-.847.6c.5,5.563,1.256,16.737,1.258,16.771.182.225.522,1.538.107,1.625.95,14.392,2.271,29.074-.528,43.318-.165.839-1.447.484-1.283-.354,2.668-13.575,1.415-27.5.584-41.2-.058-.968-.12-1.935-.181-2.9a17.453,17.453,0,0,0-9.027-5.353c-3.4-.914-9.364-2.549-12.735-.91-.767.373-1.442-.774-.672-1.148,3.826-1.86,9.839-.278,13.76.775a19.478,19.478,0,0,1,8.542,4.577c-.678-10.416-1.534-20.826-2.974-31.166a.652.652,0,0,1-.27.039,19.885,19.885,0,0,0-17.861,8.752c-.477.706-1.63.041-1.149-.671a21.225,21.225,0,0,1,19.01-9.411.646.646,0,0,1,.1.025c-.036-.249-.067-.5-.1-.748-.7-4.745-1.531-9.474-2.533-14.168a.746.746,0,0,1-.108-.054,44.074,44.074,0,0,0-23.52-6.928.666.666,0,0,1,0-1.331,45.4,45.4,0,0,1,23.237,6.528c-.815-3.651-1.732-7.278-2.78-10.866a37.152,37.152,0,0,0-22.411-11.837c-.844-.12-.485-1.4.354-1.283a38.226,38.226,0,0,1,21.2,10.324c-.651-2.081-1.33-4.153-2.073-6.2-2.848-7.858-12.717-25.567-13.363-26.6a.655.655,0,0,1-.09-.053,46.205,46.205,0,0,0-21.071-10.933c-.835-.188-.482-1.471.353-1.283a47.475,47.475,0,0,1,18.467,8.622q-.882-1.345-1.779-2.685C1784.634,2663.443,1776.975,2652.676,1772.008,2640.4Z" transform="translate(-1771.957 -2639.602)"/><g class="d" transform="translate(0)"><rect class="a" width="1.773" height="183.784" transform="translate(64.273 0.127)"/><rect class="a" width="0.591" height="183.784" transform="translate(63.682 0.127)"/><rect class="a" width="0.591" height="183.784" transform="translate(63.091 0.127)"/><rect class="a" width="0.591" height="183.784" transform="translate(62.5 0.127)"/><rect class="a" width="0.591" height="183.784" transform="translate(61.91 0.127)"/><rect class="a" width="1.182" height="183.784" transform="translate(60.728 0.127)"/><rect class="a" width="0.591" height="183.784" transform="translate(60.137 0.127)"/><rect class="a" width="0.591" height="183.784" transform="translate(59.546 0.127)"/><rect class="a" width="0.591" height="183.784" transform="translate(58.955 0.127)"/><rect class="a" width="0.591" height="183.784" transform="translate(58.364 0.127)"/><rect class="a" width="1.182" height="183.784" transform="translate(57.182 0.127)"/><rect class="a" width="0.591" height="183.784" transform="translate(56.591 0.127)"/><rect class="a" width="0.591" height="183.784" transform="translate(56 0.127)"/><rect class="a" width="1.182" height="183.784" transform="translate(54.818 0.127)"/><rect class="a" width="0.591" height="183.784" transform="translate(54.227 0.127)"/><rect class="a" width="0.591" height="183.784" transform="translate(53.636 0.127)"/><rect class="a" width="0.591" height="183.784" transform="translate(53.045 0.127)"/><rect class="a" width="1.182" height="183.784" transform="translate(51.863 0.127)"/><rect class="a" height="183.784" transform="translate(51.863 -0.106)"/><rect class="a" width="0.591" height="183.784" transform="translate(51.273 0.127)"/><rect class="a" width="0.591" height="183.784" transform="translate(50.682 0.127)"/><rect class="a" width="1.182" height="183.784" transform="translate(49.5 0.127)"/><rect class="a" width="0.591" height="183.784" transform="translate(48.909 0.127)"/><rect class="a" width="0.591" height="183.784" transform="translate(48.318 0.127)"/><rect class="a" width="1.182" height="183.784" transform="translate(47.136 0.127)"/><rect class="a" width="0.591" height="183.784" transform="translate(46.545 0.127)"/><rect class="a" width="0.591" height="183.784" transform="translate(45.954 0.127)"/><rect class="a" width="0.591" height="183.784" transform="translate(45.363 0.127)"/><rect class="a" width="0.591" height="183.784" transform="translate(44.772 0.127)"/><rect class="a" width="1.182" height="183.784" transform="translate(43.59 0.127)"/><rect class="a" width="0.591" height="183.784" transform="translate(42.999 0.127)"/><rect class="a" width="0.591" height="183.784" transform="translate(42.408 0.127)"/><rect class="a" width="1.182" height="183.784" transform="translate(41.226 0.127)"/><rect class="a" height="183.784" transform="translate(41.226 -0.106)"/><rect class="a" width="0.591" height="183.784" transform="translate(40.636 0.127)"/><rect class="a" width="0.591" height="183.784" transform="translate(40.045 0.127)"/><rect class="a" width="1.773" height="183.784" transform="translate(38.272 0.127)"/><rect class="a" width="0.591" height="183.784" transform="translate(37.681 0.127)"/><rect class="a" width="0.591" height="183.784" transform="translate(37.09 0.127)"/><rect class="a" width="1.182" height="183.784" transform="translate(35.908 0.127)"/><rect class="a" width="0.591" height="183.784" transform="translate(35.317 0.127)"/><rect class="a" width="0.591" height="183.784" transform="translate(34.726 0.127)"/><rect class="a" width="1.182" height="183.784" transform="translate(33.544 0.127)"/><rect class="a" width="0.591" height="183.784" transform="translate(32.953 0.127)"/><rect class="a" height="184.013" transform="translate(32.953 -0.177)"/><rect class="a" width="0.591" height="183.784" transform="translate(32.362 0.127)"/><rect class="a" width="0.591" height="183.784" transform="translate(31.771 0.127)"/><rect class="a" width="0.591" height="183.784" transform="translate(31.18 0.127)"/><rect class="a" height="184.013" transform="translate(31.18 -0.177)"/><rect class="a" width="1.182" height="183.784" transform="translate(29.999 0.127)"/><rect class="a" height="184.375" transform="translate(29.999 -0.388)"/><rect class="a" height="183.784" transform="translate(29.999 -0.106)"/><rect class="a" width="0.591" height="183.784" transform="translate(29.408 0.127)"/><rect class="a" height="184.013" transform="translate(29.408 -0.177)"/><rect class="a" width="0.591" height="183.784" transform="translate(28.817 0.127)"/><rect class="a" width="0.591" height="183.784" transform="translate(28.226 0.127)"/><rect class="a" width="0.591" height="183.784" transform="translate(27.635 0.127)"/><rect class="a" height="184.013" transform="translate(27.635 -0.177)"/><rect class="a" width="0.591" height="183.784" transform="translate(27.044 0.127)"/><rect class="a" width="0.591" height="183.784" transform="translate(26.453 0.127)"/><rect class="a" width="0.591" height="183.784" transform="translate(25.862 0.127)"/><rect class="a" width="0.591" height="183.784" transform="translate(25.271 0.127)"/><rect class="a" width="0.591" height="183.784" transform="translate(24.68 0.127)"/><rect class="a" height="184.013" transform="translate(24.68 -0.177)"/><rect class="a" width="0.591" height="183.784" transform="translate(24.089 0.127)"/><rect class="a" width="0.591" height="183.784" transform="translate(23.498 0.127)"/><rect class="a" height="184.375" transform="translate(23.498 -0.388)"/><rect class="a" width="1.182" height="183.784" transform="translate(22.316 0.127)"/><rect class="a" height="184.013" transform="translate(22.316 -0.177)"/><rect class="a" width="0.591" height="183.784" transform="translate(21.725 0.127)"/><rect class="a" width="0.591" height="183.784" transform="translate(21.134 0.127)"/><rect class="a" height="184.375" transform="translate(21.134 -0.388)"/><rect class="a" width="1.182" height="183.784" transform="translate(19.953 0.127)"/><rect class="a" height="184.375" transform="translate(19.952 -0.388)"/><rect class="a" width="0.591" height="183.784" transform="translate(19.361 0.127)"/><rect class="a" height="183.784" transform="translate(19.362 -0.106)"/><rect class="a" width="0.591" height="183.784" transform="translate(18.771 0.127)"/><rect class="a" height="184.013" transform="translate(18.771 -0.177)"/><rect class="a" width="0.591" height="183.784" transform="translate(18.18 0.127)"/><rect class="a" width="0.591" height="183.784" transform="translate(17.589 0.127)"/><rect class="a" width="0.591" height="183.784" transform="translate(16.998 0.127)"/><rect class="a" width="0.591" height="183.784" transform="translate(16.407 0.127)"/><rect class="a" height="184.013" transform="translate(16.407 -0.177)"/><rect class="a" width="0.591" height="183.784" transform="translate(15.816 0.127)"/><rect class="a" width="0.591" height="183.784" transform="translate(15.225 0.127)"/><rect class="a" width="0.591" height="183.784" transform="translate(14.634 0.127)"/><rect class="a" width="0.591" height="183.784" transform="translate(14.043 0.127)"/><rect class="a" width="0.591" height="183.784" transform="translate(13.452 0.127)"/><rect class="a" height="184.013" transform="translate(13.452 -0.177)"/><rect class="a" width="0.591" height="183.784" transform="translate(12.861 0.127)"/><rect class="a" width="0.591" height="183.784" transform="translate(12.27 0.127)"/><rect class="a" width="0.591" height="183.784" transform="translate(11.679 0.127)"/><rect class="a" height="184.375" transform="translate(11.679 -0.388)"/><rect class="a" width="0.591" height="183.784" transform="translate(11.088 0.127)"/><rect class="a" width="0.591" height="183.784" transform="translate(10.497 0.127)"/><rect class="a" height="184.013" transform="translate(10.497 -0.177)"/><rect class="a" width="0.591" height="183.784" transform="translate(9.906 0.127)"/><rect class="a" width="0.591" height="183.784" transform="translate(9.315 0.127)"/><rect class="a" width="0.591" height="183.784" transform="translate(8.725 0.127)"/><rect class="a" height="183.784" transform="translate(8.724 -0.106)"/><rect class="a" width="0.591" height="183.784" transform="translate(8.134 0.127)"/><rect class="a" height="184.013" transform="translate(8.134 -0.177)"/><rect class="a" width="0.591" height="183.784" transform="translate(7.543 0.127)"/><rect class="a" width="0.591" height="183.784" transform="translate(6.952 0.127)"/><rect class="a" width="1.182" height="183.784" transform="translate(5.77 0.127)"/><rect class="a" width="0.591" height="183.784" transform="translate(5.179 0.127)"/><rect class="a" height="184.013" transform="translate(5.179 -0.177)"/><rect class="a" width="0.591" height="183.784" transform="translate(4.588 0.127)"/><rect class="a" width="0.591" height="183.784" transform="translate(3.997 0.127)"/><rect class="a" width="0.591" height="183.784" transform="translate(3.406 0.127)"/><rect class="a" height="184.375" transform="translate(3.406 -0.388)"/><rect class="a" width="1.182" height="183.784" transform="translate(2.224 0.127)"/><rect class="a" height="184.013" transform="translate(2.224 -0.177)"/><rect class="a" width="0.591" height="183.784" transform="translate(1.633 0.127)"/><rect class="a" width="0.591" height="183.784" transform="translate(1.042 0.127)"/><rect class="a" height="184.375" transform="translate(1.042 -0.388)"/><rect class="a" width="0.591" height="183.784" transform="translate(0.451 0.127)"/><rect class="a" width="0.591" height="183.784" transform="translate(-0.14 0.127)"/><rect class="a" width="0.591" height="183.784" transform="translate(-0.731 0.127)"/></g></g></g><path class="a" d="M1817.475,2715.7c.862-.519,1.643.853.782,1.371a18.369,18.369,0,0,0-8.709,13.129c-.157,1.007-1.651.58-1.5-.422A19.866,19.866,0,0,1,1817.475,2715.7Z" transform="translate(-1766.233 -2660.822)"/><path class="a" d="M1832.425,2715.621a36.374,36.374,0,0,1,19.876,6.349c.7.479.039,1.632-.671,1.148a35.121,35.121,0,0,0-19.2-6.167A.665.665,0,0,1,1832.425,2715.621Z" transform="translate(-1814.129 -2660.837)"/><path class="a" d="M1883.435,2622.226c7.7,0,7.717,11.973,0,11.973S1875.718,2622.226,1883.435,2622.226Z" transform="translate(-1877.652 -2622.226)"/><path class="a" d="M1836.23,2833.144l.444-.443a3.772,3.772,0,0,1,2.587-1.072,3.723,3.723,0,0,1,2.587,1.072,3.678,3.678,0,0,1,1.071,2.587,3.815,3.815,0,0,1-1.071,2.587l-.443.444a3.774,3.774,0,0,1-2.587,1.071,3.723,3.723,0,0,1-2.587-1.071,3.68,3.68,0,0,1-1.072-2.587A3.811,3.811,0,0,1,1836.23,2833.144Z" transform="translate(-1806.427 -2708.797)"/><path class="a" d="M1837.125,2861.794l.572-.74a3.651,3.651,0,0,1,1.614-.941,4.044,4.044,0,0,1,2.307-.033,4.439,4.439,0,0,1,1.936,1.132,4.49,4.49,0,0,1,1.131,1.938,4.019,4.019,0,0,1-.036,2.306,4.089,4.089,0,0,1-1.681,2.187,3.735,3.735,0,0,1-2.819.369,3.848,3.848,0,0,1-2.031-1.428,3.647,3.647,0,0,1-.994-4.79Z" transform="translate(-1809.213 -2720.496)"/><path class="a" d="M1857.049,2742.047c4.708,0,4.716,7.316,0,7.316S1852.333,2742.047,1857.049,2742.047Z" transform="translate(-1834.859 -2671.762)"/><path class="a" d="M1775.752,2761.262a3.8,3.8,0,0,1,2.587-1.072h.443a3.774,3.774,0,0,1,2.587,1.072,3.658,3.658,0,0,1,0,5.174,3.8,3.8,0,0,1-2.587,1.071h-.443a3.774,3.774,0,0,1-2.587-1.071,3.658,3.658,0,0,1,0-5.174Z" transform="translate(-1710.475 -2679.263)"/><path class="a" d="M1802.213,2706.83a3.683,3.683,0,0,1,2.587-1.071,3.816,3.816,0,0,1,2.587,1.071l.443.444a3.774,3.774,0,0,1,1.072,2.587,3.722,3.722,0,0,1-1.072,2.587,3.682,3.682,0,0,1-2.587,1.072,3.813,3.813,0,0,1-2.587-1.072l-.444-.443a3.775,3.775,0,0,1-1.072-2.587A3.725,3.725,0,0,1,1802.213,2706.83Z" transform="translate(-1752.456 -2656.759)"/><path class="a" d="M1816.227,2669.474c4.708,0,4.716,7.316,0,7.316S1811.511,2669.474,1816.227,2669.474Z" transform="translate(-1770.091 -2641.759)"/><path class="a" d="M1839.662,2652.843c4.708,0,4.715,7.316,0,7.316S1834.946,2652.843,1839.662,2652.843Z" transform="translate(-1807.273 -2634.884)"/><path class="a" d="M1847.569,2631.236a3.8,3.8,0,0,1,2.587-1.072h.443a3.774,3.774,0,0,1,2.587,1.072,3.657,3.657,0,0,1,0,5.173,3.8,3.8,0,0,1-2.587,1.072h-.443a3.772,3.772,0,0,1-2.587-1.072,3.657,3.657,0,0,1,0-5.173Z" transform="translate(-1824.419 -2625.508)"/><path class="a" d="M1880.077,2682.639a3.684,3.684,0,0,1,2.587-1.072,3.818,3.818,0,0,1,2.587,1.072l.443.444a3.775,3.775,0,0,1,1.071,2.587,3.722,3.722,0,0,1-1.071,2.587,3.683,3.683,0,0,1-2.587,1.072,3.812,3.812,0,0,1-2.587-1.072l-.443-.443a3.774,3.774,0,0,1-1.071-2.587A3.724,3.724,0,0,1,1880.077,2682.639Z" transform="translate(-1875.995 -2646.758)"/><path class="a" d="M1865.239,2712.166a3.5,3.5,0,0,1,3.136-1.789,3.079,3.079,0,0,1,1.319.111,3.525,3.525,0,0,1,2.186,1.681,3.946,3.946,0,0,1,.519,1.927,3.755,3.755,0,0,1-1.085,2.617,3.919,3.919,0,0,1-5.512,0,3.757,3.757,0,0,1-1.085-2.618A3.9,3.9,0,0,1,1865.239,2712.166Z" transform="translate(-1853.247 -2658.659)"/><path class="a" d="M1849.489,2774.554c4.708,0,4.716,7.316,0,7.316S1844.774,2774.554,1849.489,2774.554Z" transform="translate(-1822.865 -2685.201)"/><path class="a" d="M1768.6,2828.983c4.708,0,4.716,7.317,0,7.317S1763.885,2828.983,1768.6,2828.983Z" transform="translate(-1694.529 -2707.703)"/></g><g transform="translate(333.346 1092.443)"><g transform="translate(0 19.463) rotate(-9)"><g transform="translate(0 0)"><path class="e" d="M117.529,82.137c-6.437-8.34-13.9-17.629-11.286-41.148C108.269,22.756,97.35,2.038,86.359.107V.1l-.038,0a7.286,7.286,0,0,0-2.861.1C78.619.65,68.6,2.982,60.578,14.085l0,0A49.277,49.277,0,0,0,52.2,28.565C41.744,56,14.306,57.311,6.466,84.751s3.92,39.2,0,52.264S-4.281,165.761,3.706,185.36s24.973,35.278,22.36,69.251H32.6c13.72-35.932,43.118-35.279,60.1-61.411,8.6-13.238,3.014-35.678,18.946-50.305C128.636,127.3,126.606,93.9,117.529,82.137Z"/></g><g transform="translate(28.327 25.435)"><path class="f" d="M.517,229.691c-.024,0-.05,0-.073,0a.518.518,0,0,1-.439-.584C.24,227.468,23.685,64.962,50.834.317a.516.516,0,0,1,.952.4C24.686,65.239,1.26,227.616,1.027,229.248A.516.516,0,0,1,.517,229.691Z" transform="translate(0 0)"/></g><g transform="translate(50.048 54.02)"><path class="f" d="M12.16,27.472a.519.519,0,0,1-.473-.308L.044.724A.516.516,0,0,1,.989.308L12.447,26.328l37.9-11.607a.516.516,0,1,1,.3.987L12.311,27.449A.482.482,0,0,1,12.16,27.472Z" transform="translate(0 0)"/></g><g transform="translate(25.55 98.606)"><path class="f" d="M24.026,38.169a.517.517,0,0,1-.436-.24L.08.793A.517.517,0,0,1,.953.241l23.3,36.81,50.594-14.49a.509.509,0,0,1,.638.354.516.516,0,0,1-.353.638l-50.967,14.6A.484.484,0,0,1,24.026,38.169Z" transform="translate(0 0)"/></g><g transform="translate(17.22 164.266)"><path class="f" d="M21.222,31.346a.517.517,0,0,1-.426-.224L.09.807A.518.518,0,0,1,.224.088.521.521,0,0,1,.942.224L21.422,30.21,66.978,13.748a.516.516,0,1,1,.351.971L21.4,31.316A.523.523,0,0,1,21.222,31.346Z" transform="translate(0 0)"/></g></g><path class="f" d="M379.725,400.331H366.817l4.232-158.022,1.915-3.943Z" transform="translate(-303.332 -76.507)"/></g><g transform="translate(476.447 1058.945)"><g transform="translate(0 0)"><path class="b" d="M382.389,186.27c6.926-1.2,11.736,6.026,13.088,12.362.726,3.393.744,7.355,3.381,9.61a19.279,19.279,0,0,0,3.851,2.106c7.654,3.947,8.157,11.325,8.3,18.728a7.24,7.24,0,0,0,.7,3.61c.716,1.2,2.071,1.9,2.865,3.057a7.654,7.654,0,0,1,1.006,2.676c1.932,8.405.915,16.129.852,24.538-.458,59.779-32.975,56.992-32.975,56.992a10.68,10.68,0,0,1-1.29-.011c-7.878-.375-14.975-5.23-19.646-11.334-4.816-6.3-7.479-14.032-9.068-21.717a117.768,117.768,0,0,1-1.982-17.189c-.358-6.228-1.685-12.032.753-18.087,1.113-2.769,2.8-5.445,2.812-8.429.011-3.263-2-6.254-2.106-9.513a14.839,14.839,0,0,1,1.273-5.7,93.152,93.152,0,0,1,5.931-13.251c1.889-3.214,6.11-5.059,7.236-8.721a17.628,17.628,0,0,0,.319-4.616c.256-7.615,6.878-12.991,13.763-14.9C381.768,186.395,382.081,186.324,382.389,186.27Z" transform="translate(-350.788 -186.138)"/><g class="g"><g transform="translate(0.623 -13.81)"><g transform="translate(31.591)"><path class="f" d="M368.595,327.011a.451.451,0,0,0,.455-.447l1.128-147.413a.452.452,0,0,0-.9-.007l-1.128,147.413A.452.452,0,0,0,368.595,327.011Z" transform="translate(-368.146 -178.696)"/></g><path class="f" d="M377.428,205.149c-.152-.063-11.766-4.955-18.8-13.99.13-.323.262-.646.392-.965,6.82,9.092,18.6,14.056,18.752,14.119Z" transform="translate(-344.7 -168.854)"/><path class="f" d="M373.5,186.433a56.914,56.914,0,0,1-10.025-5.77q.214-.4.425-.8a56.07,56.07,0,0,0,9.946,5.733Z" transform="translate(-340.557 -177.695)"/><path class="f" d="M379.1,214.926c-.18-.074-15.287-6.432-22.554-18.1q.192-.562.386-1.115c6.924,11.811,22.333,18.308,22.513,18.382Z" transform="translate(-346.484 -164.135)"/><path class="f" d="M383.262,252.648c-.258-.106-22.183-9.335-32.138-26.234.015-.581.035-1.16.056-1.737,9.389,17.436,32.168,27.029,32.428,27.136Z" transform="translate(-351.124 -139.343)"/><path class="f" d="M382.785,263.079l-.343.835c-.243-.1-19.581-8.242-30.184-23.222q-.2-1.066-.382-2.175C361.985,254.32,382.539,262.975,382.785,263.079Z" transform="translate(-350.48 -127.497)"/><path class="f" d="M381.752,229.847c-.226-.093-18.423-7.752-28.352-21.847.089-.4.182-.792.273-1.19,9.637,14.292,28.2,22.109,28.424,22.2Z" transform="translate(-349.176 -154.634)"/><path class="f" d="M384.913,187.088a56.062,56.062,0,0,1-15.806,10.231l-.332-.841a54.917,54.917,0,0,0,15.758-10.267C384.66,186.5,384.786,186.795,384.913,187.088Z" transform="translate(-336.018 -172.263)"/><path class="f" d="M369.034,209.227l-.334-.841c.169-.065,13.325-5.376,20.956-15.352.121.332.241.668.362,1C382.168,203.934,369.2,209.162,369.034,209.227Z" transform="translate(-336.081 -166.424)"/><path class="f" d="M368.8,243.513l-.332-.841c.254-.1,21.838-8.8,31.941-25.11q.072.721.141,1.448C390.041,234.956,369.056,243.413,368.8,243.513Z" transform="translate(-336.276 -145.431)"/><path class="f" d="M368.344,259.869c.26-.1,22.677-9.142,32.511-26.064q-.095,1.044-.2,2.056c-10.435,16.17-31.722,24.748-31.976,24.848Z" transform="translate(-336.386 -131.53)"/><path class="f" d="M395.847,203.689c.091.366.178.733.269,1.1-10.339,12.746-27.044,19.477-27.263,19.563l-.332-.839C368.74,223.424,385.723,216.578,395.847,203.689Z" transform="translate(-336.234 -157.305)"/></g></g></g><path class="f" d="M374.646,336.6h-7.829l2.566-95.839,1.161-2.391Z" transform="translate(-337.07 -141.437)"/></g></g><g transform="translate(-11578.677 -6812.775)"><path class="h" d="M1285.973,631.352s-27.746-20.362-29.946-44.808,33.008,0,33.008,0Z" transform="translate(11456.493 6813.293)"/><path class="i" d="M1252.89,574.627h0a4.8,4.8,0,0,0-2.353,6.022l3.228,7.673a4.119,4.119,0,0,0,5.723,2.007h0a4.8,4.8,0,0,0,2.353-6.021l-3.228-7.674A4.12,4.12,0,0,0,1252.89,574.627Z" transform="translate(11456.234 6813.224)"/><path class="j" d="M1322.865,548.505s9.839,2.4,10.145,6.763a45.225,45.225,0,0,1-.284,8.475L1302.08,560.6l2.275-12.1Z" transform="translate(11458.582 6812.063)"/><path class="k" d="M1281.394,787.31l16.255-11.443a14.687,14.687,0,0,1,8.787-.075c1.521.425,1.789-.714,1.678.71l1.49,6.014c1.431,4.02-1.735,6.489-6.33,7.941l-15.616,4.675c-3.234,1.09-7.816.555-10.184-1.189l-.671-.495C1274.436,791.7,1277.947,789.231,1281.394,787.31Z" transform="translate(11457.404 6822.319)"/><path class="l" d="M1307.155,778.179c-.208,4.68-11.592,4.173-11.383-.507l.677-15.208,11.383.506Z" transform="translate(11458.298 6821.745)"/><path class="j" d="M1309.289,778.612c-4.739,3.617-9.5,3.527-14.291-.2,0,0-9.155-93.89-7.093-142.195l35.713-11.639c-4.13,29.655-13.289,78.378-13.289,78.378C1321.026,727.189,1312.027,757.452,1309.289,778.612Z" transform="translate(11457.928 6815.506)"/><path class="l" d="M1346.115,788.88c.539,4.652-10.779,5.965-11.318,1.312l-1.752-15.122,11.318-1.312Z" transform="translate(11459.984 6822.256)"/><path class="j" d="M1348.043,789.452c-4.829,4.041-9.56,4.792-14.178,1.8,0,0-4.454-31.165-11.257-64.333-5.265-25.671-12.913-51.428-14.851-71.889l33.068-19.827c-.069,18.209,1.782,58.266,2.624,75.451a28.821,28.821,0,0,0,3.057,11.512C1354.354,737.818,1348.043,789.452,1348.043,789.452Z" transform="translate(11458.839 6815.987)"/><path class="h" d="M1285.218,641.9a567.786,567.786,0,0,0-.465-61.371c-.728-20.379,2.982-32.751,30.681-30.99l7.334,2.4c21.091,12.951,26.979,8.932,26.979,35.79l-4.477,54.583C1343.8,668.3,1282.1,672.368,1285.218,641.9Z" transform="translate(11457.794 6812.103)"/><path class="h" d="M1348.822,586.074l-4.477,54.583c-.857,15.151-22.2,22.85-39.22,20.6C1325.117,650.922,1338.661,623.09,1348.822,586.074Z" transform="translate(11458.72 6813.764)"/><g transform="translate(12762.519 7358.219)"><g transform="translate(0 0)"><path class="f" d="M1331.265,556.767s1.139,7.57-10.595,14.181c-6.052,3.411-9.1,9.018-10.627,13.65-.894,2.7-2.537,1.4-2.821-1.422-.739-7.353-.987-9.484-2.554-14.905-2.534-8.769,1.618-21.906,2.125-22.013S1331.265,556.767,1331.265,556.767Z" transform="translate(-1303.855 -546.257)"/></g></g><path class="j" d="M1315.4,551.433s-11.22,3.534-8.827,13.461l.046,11.8s-8.417-13.248-4.172-25.827S1315.4,551.433,1315.4,551.433Z" transform="translate(11458.545 6811.923)"/><path class="j" d="M1310.54,551.5s1.988,3.167,3.251,3.809,18.824-7.091,17.15-21.555c-1.061-9.161-18.435-6.921-18.435-6.921Z" transform="translate(11458.966 6811.072)"/><path class="i" d="M1318.039,564.316l-.869.135a5.412,5.412,0,0,1-6.161-4.5l-2.568-16.537a5.413,5.413,0,0,1,4.5-6.161l.869-.135a5.412,5.412,0,0,1,6.161,4.5l4.8,15.528C1325.235,560.079,1320.972,563.861,1318.039,564.316Z" transform="translate(11458.867 6811.545)"/><path class="m" d="M1309.766,551.957a14.774,14.774,0,0,0,11.8-6.471s-4.606,10.3-11.083,11.1Z" transform="translate(11458.93 6811.927)"/><path class="j" d="M1325.323,549.745s7.7,9.036-6.669,16.478c0,0-5.6,5.537-5.786,11.5,0,0,4.832-3.677,7.63-5.682S1344.156,557.457,1325.323,549.745Z" transform="translate(11459.071 6812.12)"/><path class="i" d="M1314.733,547.167c-3.515,6.913-9.356,7.922-13.045,2.252s-3.831-15.872-.316-22.786,9.356-7.922,13.046-2.251S1318.248,540.253,1314.733,547.167Z" transform="translate(11458.436 6810.806)"/><path class="i" d="M1322.787,546.365c-3.515,6.914-16.468,10.128-20.157,4.458s.763-17.955,4.278-24.869,9.356-7.923,13.046-2.252S1326.3,539.451,1322.787,546.365Z" transform="translate(11458.544 6810.775)"/><path class="j" d="M1315.866,528.151s-3.011,14.066,7.948,18.358c0,0,13.43-6.1,5.435-20.707-7.047-12.875-21.134-4.981-21.134-4.981Z" transform="translate(11458.855 6810.703)"/><path class="j" d="M1298.93,535.879s2.1-5.95,9.771-7.8l-5.506-4.063S1297.083,524.795,1298.93,535.879Z" transform="translate(11458.424 6810.956)"/><path class="j" d="M1321.453,537.148c-2.147-3.57-7.434-4.048-15.214-2.075a6.666,6.666,0,0,1-3.6.012c-5.474-1.7-5.641-8.709-5.641-8.709-.754-4.751,2.517-6.543,7.268-7.3l12.371-1.963c7-1.15,13.07,5.107,13.824,9.857l.241.794C1331.453,532.517,1326.2,536.395,1321.453,537.148Z" transform="translate(11458.348 6810.637)"/><path class="m" d="M1324.666,545.2a3.415,3.415,0,1,1-1.5-4.592A3.416,3.416,0,0,1,1324.666,545.2Z" transform="translate(11459.313 6811.69)"/><path class="k" d="M1334.663,788.912l.926,9.627a57.894,57.894,0,0,0,1.79,8.151,6.955,6.955,0,0,0,5.985,4.269c2.954.165,8.819-5.127,6.625-11.576-1.914-5.621-3.982-11.545-3.982-11.545C1341.867,789.8,1338.007,790.512,1334.663,788.912Z" transform="translate(11460.057 6822.893)"/><path class="n" d="M1349.924,691.2,1325.077,631.7l0-.005-66.286-158.711a18.825,18.825,0,0,0-24.555-10.087l-4.351,1.818a18.826,18.826,0,0,0-10.087,24.555l24.847,59.491,0,.006,66.285,158.711a18.826,18.826,0,0,0,24.555,10.087l4.351-1.818A18.825,18.825,0,0,0,1349.924,691.2Z" transform="translate(11454.794 6808.125)"/><path class="o" d="M1355.545,688.655,1330.7,629.162l0-.005-66.286-158.711a18.825,18.825,0,0,0-24.555-10.087l-4.352,1.817a18.827,18.827,0,0,0-10.087,24.555l24.847,59.492,0,.005,66.285,158.711a18.826,18.826,0,0,0,24.555,10.088l4.351-1.818A18.825,18.825,0,0,0,1355.545,688.655Z" transform="translate(11455.048 6808.01)"/><path class="i" d="M1323.212,641.4h0a4.8,4.8,0,0,0,6.2,1.816l7.361-3.889a4.119,4.119,0,0,0,1.5-5.876h0a4.8,4.8,0,0,0-6.2-1.816l-7.36,3.889A4.119,4.119,0,0,0,1323.212,641.4Z" transform="translate(11459.509 6815.802)"/><path class="h" d="M1340.359,563.083s41.937,31.828,42.448,49.82-42.652,28.065-42.652,28.065l-5.085-10.248,24.306-19.858-29.269-24.576Z" transform="translate(11459.851 6812.723)"/><path class="p" d="M1352.234,743.769h0a9.616,9.616,0,0,0,4.959-12.619l-19.115-43.857c-2.107-4.833-4.091,38.6-4.091,38.6l5.629,12.914A9.616,9.616,0,0,0,1352.234,743.769Z" transform="translate(11460.026 6818.327)"/><path class="n" d="M1351.936,717.692l-8.178-18.763-18,6.68,8.606,19.744Z" transform="translate(11459.653 6818.871)"/><path class="p" d="M1355.545,743.155h0a9.614,9.614,0,0,0,4.958-12.618l-5.409-12.41-13.706-31.446a9.615,9.615,0,0,0-12.619-4.959h0a9.616,9.616,0,0,0-4.959,12.619l19.115,43.857A9.615,9.615,0,0,0,1355.545,743.155Z" transform="translate(11459.529 6818.056)"/><path class="o" d="M1355.118,718.181,1336,674.324a9.615,9.615,0,0,0-12.619-4.958h0a9.614,9.614,0,0,0-4.958,12.618l19.115,43.857Z" transform="translate(11459.286 6817.497)"/><line class="q" x2="116.804" y2="274.726" transform="translate(12694.103 7279.327)"/><line class="r" y1="2.911" x2="7.117" transform="translate(12694.777 7299.638)"/><line class="r" y1="3.279" x2="8.019" transform="translate(12708.327 7332.407)"/><line class="r" y1="3.581" x2="8.755" transform="translate(12721.877 7365.244)"/><line class="r" y1="2.964" x2="7.247" transform="translate(12736.031 7398.359)"/><line class="r" y1="3.279" x2="8.019" transform="translate(12750.229 7430.867)"/><line class="r" y1="3.639" x2="8.897" transform="translate(12763.978 7464.601)"/><line class="r" y1="3.07" x2="7.506" transform="translate(12777.676 7497.682)"/></g><g transform="translate(-11476 -7012.736)"><g transform="translate(11952.146 7584.986)"><path class="s" d="M1202.437,292.254l79.291,45.777a11.171,11.171,0,0,1,5.068,8.766l0,74.621c0,3.23-2.261,4.538-5.063,2.918a3.561,3.561,0,0,0,3.586.359l1.68-.971h0a3.545,3.545,0,0,0,1.488-3.28V345.823a11.163,11.163,0,0,0-5.065-8.767l-79.292-45.778a3.554,3.554,0,0,0-3.583-.351v0l-1.684.969h0A3.574,3.574,0,0,1,1202.437,292.254Z" transform="translate(-1197.371 -290.587)"/><path class="t" d="M1202.437,292.254l79.291,45.777a11.171,11.171,0,0,1,5.068,8.766l0,74.621c0,3.23-2.261,4.538-5.063,2.918a3.561,3.561,0,0,0,3.586.359l1.68-.971h0a3.545,3.545,0,0,0,1.488-3.28V345.823a11.163,11.163,0,0,0-5.065-8.767l-79.292-45.778a3.554,3.554,0,0,0-3.583-.351v0l-1.684.969h0A3.574,3.574,0,0,1,1202.437,292.254Z" transform="translate(-1197.371 -290.587)"/><path class="s" d="M1296.572,425.235c0,3.23-2.261,4.538-5.063,2.918l-79.291-45.775a11.184,11.184,0,0,1-5.063-8.768l0-74.623c0-3.226,2.27-4.533,5.066-2.917l79.291,45.777a11.171,11.171,0,0,1,5.067,8.766Z" transform="translate(-1207.153 -294.404)"/><path class="s" d="M1310.823,438.3v10.124a.885.885,0,0,1-.271.69h0a.588.588,0,0,0,.213-.122.652.652,0,0,0,.209-.122.52.52,0,0,0,.211-.123.536.536,0,0,0,.212-.121.556.556,0,0,0,.211-.123.571.571,0,0,0,.212-.121.6.6,0,0,0,.211-.122.765.765,0,0,0,.479-.813l0-10.124a2.713,2.713,0,0,0-1.218-2.1l-8.773-5.065a.77.77,0,0,0-.948.01.6.6,0,0,0-.211.122.551.551,0,0,0-.213.123.543.543,0,0,0-.209.121.622.622,0,0,0-.214.123.574.574,0,0,0-.209.121.629.629,0,0,0-.213.123.594.594,0,0,0-.208.123.9.9,0,0,1,.735.109l8.775,5.067A2.7,2.7,0,0,1,1310.823,438.3Zm1.208,26.781a.593.593,0,0,1-.211.124.611.611,0,0,1-.212.121.576.576,0,0,1-.215.122.534.534,0,0,1-.208.122.551.551,0,0,1-.211.122.518.518,0,0,1-.213.122.511.511,0,0,1-.209.122h0a.878.878,0,0,0,.271-.688V455.124a2.666,2.666,0,0,0-1.216-2.1l-8.775-5.069a.9.9,0,0,0-.735-.112,21.791,21.791,0,0,0,.421-.244.572.572,0,0,1,.213-.12.581.581,0,0,1,.211-.124.6.6,0,0,1,.209-.122.649.649,0,0,1,.213-.123.612.612,0,0,1,.211-.121.763.763,0,0,1,.943-.011l8.781,5.07a2.684,2.684,0,0,1,1.214,2.1l0,10.126A.759.759,0,0,1,1312.031,465.085Zm-14.586-25.242a.66.66,0,0,1-.209.121.579.579,0,0,1-.214.122.588.588,0,0,1-.209.123.6.6,0,0,1-.21.12.568.568,0,0,1-.214.123,24.457,24.457,0,0,0-.422.243h0a.884.884,0,0,0,.271-.689V429.888a2.678,2.678,0,0,0-1.215-2.1l-8.777-5.067a.9.9,0,0,0-.735-.114h0a.552.552,0,0,1,.209-.122,94.207,94.207,0,0,1,.422-.243.548.548,0,0,1,.216-.123.588.588,0,0,1,.208-.122.576.576,0,0,1,.21-.122.679.679,0,0,1,.212-.123.765.765,0,0,1,.945-.006l8.78,5.068a2.68,2.68,0,0,1,1.211,2.1l.005,10.123A.765.765,0,0,1,1297.445,439.844Zm-11.934-34.062h0a.537.537,0,0,1,.212-.125.548.548,0,0,1,.21-.118.506.506,0,0,1,.208-.122.563.563,0,0,1,.216-.122.543.543,0,0,1,.208-.126.549.549,0,0,1,.214-.118.527.527,0,0,1,.209-.123.767.767,0,0,1,.945-.011l8.78,5.069a2.685,2.685,0,0,1,1.211,2.1v10.124a.763.763,0,0,1-.479.812.635.635,0,0,1-.209.122.6.6,0,0,1-.214.122.548.548,0,0,1-.213.122.518.518,0,0,1-.211.122,48.559,48.559,0,0,1-.422.244.583.583,0,0,1-.21.123h0a.888.888,0,0,0,.271-.692V413.062a2.687,2.687,0,0,0-1.215-2.1l-8.777-5.07A.874.874,0,0,0,1285.511,405.782Zm-2.657,42.465a.518.518,0,0,1-.208.12.527.527,0,0,1-.209.123.638.638,0,0,1-.214.123.553.553,0,0,1-.21.123.588.588,0,0,1-.212.123.578.578,0,0,1-.209.121.587.587,0,0,1-.213.123.862.862,0,0,0,.27-.69V438.282a2.688,2.688,0,0,0-1.211-2.1l-8.777-5.066a.9.9,0,0,0-.734-.11.547.547,0,0,1,.209-.123.515.515,0,0,1,.21-.121.583.583,0,0,1,.213-.123.54.54,0,0,1,.209-.122.609.609,0,0,1,.214-.123.576.576,0,0,1,.21-.123.606.606,0,0,1,.212-.12.766.766,0,0,1,.946-.011l8.78,5.065a2.685,2.685,0,0,1,1.207,2.1l0,10.129A.761.761,0,0,1,1282.854,448.247Zm-.731-29.859a2.681,2.681,0,0,1,1.214,2.1v10.122a.758.758,0,0,1-.479.811.562.562,0,0,1-.213.122.492.492,0,0,1-.209.12.513.513,0,0,1-.209.124.57.57,0,0,1-.215.121.488.488,0,0,1-.212.122.51.51,0,0,1-.209.123.483.483,0,0,1-.21.121.872.872,0,0,0,.27-.689V421.464a2.685,2.685,0,0,0-1.215-2.1l-8.777-5.066a.873.873,0,0,0-.734-.112.578.578,0,0,1,.209-.124.7.7,0,0,1,.213-.119.529.529,0,0,1,.21-.121.5.5,0,0,1,.209-.121.549.549,0,0,1,.214-.122.483.483,0,0,1,.21-.123.53.53,0,0,1,.208-.123.775.775,0,0,1,.95-.011Zm-13.853,21.439a.613.613,0,0,1-.21.121.574.574,0,0,1-.209.122.566.566,0,0,1-.213.12.508.508,0,0,1-.211.123.564.564,0,0,1-.212.123.54.54,0,0,1-.21.122.591.591,0,0,1-.208.123.9.9,0,0,0,.269-.689V429.864a2.7,2.7,0,0,0-1.215-2.1l-8.781-5.067a.863.863,0,0,0-.73-.11h0a.5.5,0,0,1,.209-.122.509.509,0,0,1,.213-.123.518.518,0,0,1,.209-.123.547.547,0,0,1,.21-.12.531.531,0,0,1,.213-.122.508.508,0,0,1,.214-.122.484.484,0,0,1,.21-.122.763.763,0,0,1,.944-.013l8.777,5.067a2.694,2.694,0,0,1,1.215,2.1v10.125A.765.765,0,0,1,1268.27,439.826Zm46.414-34.025a.59.59,0,0,1,.21-.123.545.545,0,0,1,.209-.119.561.561,0,0,1,.213-.123.59.59,0,0,1,.211-.122.532.532,0,0,1,.208-.123.623.623,0,0,1,.216-.123.548.548,0,0,1,.208-.121.772.772,0,0,1,.948-.011l8.777,5.07a2.692,2.692,0,0,1,1.215,2.1l0,10.126a.753.753,0,0,1-.48.81,32.259,32.259,0,0,0-.423.244,63.256,63.256,0,0,1-.423.245.448.448,0,0,1-.215.12,11.8,11.8,0,0,1-.419.243.872.872,0,0,0,.268-.689l0-10.123a2.685,2.685,0,0,0-1.21-2.1l-8.781-5.069A.893.893,0,0,0,1314.684,405.8Zm-14.588-8.419a.5.5,0,0,1,.208-.124.554.554,0,0,1,.213-.119.509.509,0,0,1,.209-.121.582.582,0,0,1,.214-.127.551.551,0,0,1,.209-.119.508.508,0,0,1,.21-.12.6.6,0,0,1,.214-.125.756.756,0,0,1,.943-.008l8.781,5.065a2.68,2.68,0,0,1,1.214,2.1l0,10.123a.765.765,0,0,1-.479.817,189.109,189.109,0,0,1-.423.244.626.626,0,0,1-.215.122.549.549,0,0,1-.208.121.562.562,0,0,1-.211.123.546.546,0,0,1-.213.121.518.518,0,0,1-.209.123.89.89,0,0,0,.271-.693V404.659a2.678,2.678,0,0,0-1.216-2.1l-8.775-5.067A.868.868,0,0,0,1300.1,397.382Zm17.011,41.2,8.777,5.066a2.675,2.675,0,0,1,1.211,2.1l0,10.122a.771.771,0,0,1-.485.814.543.543,0,0,1-.209.122.558.558,0,0,1-.214.122.545.545,0,0,1-.211.122.555.555,0,0,1-.212.123.6.6,0,0,1-.211.123.611.611,0,0,1-.208.122.6.6,0,0,1-.215.12h0a.882.882,0,0,0,.271-.693v-10.12a2.687,2.687,0,0,0-1.215-2.1l-8.776-5.066a.884.884,0,0,0-.735-.111v0a.61.61,0,0,1,.213-.122.6.6,0,0,1,.209-.12.615.615,0,0,1,.209-.122.642.642,0,0,1,.214-.122.582.582,0,0,1,.208-.122.645.645,0,0,1,.21-.122.653.653,0,0,1,.214-.123A.765.765,0,0,1,1317.107,438.583Zm0-16.821,8.777,5.066a2.681,2.681,0,0,1,1.211,2.1v10.127a.769.769,0,0,1-.48.813.748.748,0,0,1-.213.123.654.654,0,0,1-.21.122.539.539,0,0,1-.214.116.512.512,0,0,1-.209.126.6.6,0,0,1-.211.123,46.728,46.728,0,0,0-.422.243h0a.882.882,0,0,0,.271-.689V429.9a2.679,2.679,0,0,0-1.215-2.1l-8.776-5.066a.871.871,0,0,0-.735-.111h0a.5.5,0,0,1,.209-.125.539.539,0,0,1,.214-.123.565.565,0,0,1,.209-.122.638.638,0,0,1,.214-.122.571.571,0,0,1,.208-.121.559.559,0,0,1,.21-.122.543.543,0,0,1,.214-.119A.76.76,0,0,1,1317.107,421.762Zm-60.766-49.643a.525.525,0,0,1,.209-.123.531.531,0,0,1,.213-.123.558.558,0,0,1,.209-.121.588.588,0,0,1,.21-.123.578.578,0,0,1,.213-.121.539.539,0,0,1,.214-.122.57.57,0,0,1,.21-.124.765.765,0,0,1,.944-.01l8.777,5.068a2.673,2.673,0,0,1,1.215,2.1v10.123a.763.763,0,0,1-.484.81.558.558,0,0,1-.21.123.533.533,0,0,1-.214.123.516.516,0,0,1-.208.122.565.565,0,0,1-.211.122.553.553,0,0,1-.212.122.5.5,0,0,1-.21.122.6.6,0,0,1-.208.122h0a.892.892,0,0,0,.273-.69V379.4a2.678,2.678,0,0,0-1.215-2.1l-8.777-5.071A.9.9,0,0,0,1256.341,372.119Zm29.17,16.841h0a.545.545,0,0,1,.209-.121.528.528,0,0,1,.214-.122.49.49,0,0,1,.213-.12.516.516,0,0,1,.211-.123.526.526,0,0,1,.208-.122.559.559,0,0,1,.214-.121.514.514,0,0,1,.209-.123.772.772,0,0,1,.949-.012l8.773,5.066a2.682,2.682,0,0,1,1.215,2.1v10.123a.765.765,0,0,1-.479.813.615.615,0,0,1-.213.121.542.542,0,0,1-.21.122,195.837,195.837,0,0,0-.633.367.584.584,0,0,1-.212.12.526.526,0,0,1-.21.123h0a.88.88,0,0,0,.271-.689l0-10.126a2.674,2.674,0,0,0-1.211-2.1l-8.777-5.067A.889.889,0,0,0,1285.511,388.96Zm-26.749-.883,8.78,5.068a2.691,2.691,0,0,1,1.211,2.1v10.123a.765.765,0,0,1-.48.814.644.644,0,0,1-.214.123.653.653,0,0,1-.209.122.739.739,0,0,1-.209.121.638.638,0,0,1-.214.121.585.585,0,0,1-.208.122.609.609,0,0,1-.214.122.534.534,0,0,1-.208.123h0a.88.88,0,0,0,.273-.692l0-10.122a2.683,2.683,0,0,0-1.206-2.1l-8.78-5.066a.9.9,0,0,0-.738-.115h0a.637.637,0,0,1,.213-.121.6.6,0,0,1,.208-.123.651.651,0,0,1,.211-.122.672.672,0,0,1,.213-.122.621.621,0,0,1,.213-.124.655.655,0,0,1,.21-.119.6.6,0,0,1,.21-.123A.765.765,0,0,1,1258.762,388.076Zm12.163,9.283a374.328,374.328,0,0,1,.422-.244.542.542,0,0,1,.21-.121.581.581,0,0,1,.212-.123.614.614,0,0,1,.211-.122.6.6,0,0,1,.213-.122.533.533,0,0,1,.209-.116.763.763,0,0,1,.949-.015l8.772,5.065a2.689,2.689,0,0,1,1.214,2.1v10.124a.762.762,0,0,1-.484.811.541.541,0,0,1-.208.122.559.559,0,0,1-.209.123.642.642,0,0,1-.214.122.553.553,0,0,1-.213.121.547.547,0,0,1-.209.123.53.53,0,0,1-.209.121.521.521,0,0,1-.213.123.889.889,0,0,0,.27-.69V404.639a2.672,2.672,0,0,0-1.211-2.1l-8.772-5.068A.916.916,0,0,0,1270.925,397.359Z" transform="translate(-1247.674 -354.732)"/><path class="t" d="M1310.823,438.3v10.124a.885.885,0,0,1-.271.69h0a.588.588,0,0,0,.213-.122.652.652,0,0,0,.209-.122.52.52,0,0,0,.211-.123.536.536,0,0,0,.212-.121.556.556,0,0,0,.211-.123.571.571,0,0,0,.212-.121.6.6,0,0,0,.211-.122.765.765,0,0,0,.479-.813l0-10.124a2.713,2.713,0,0,0-1.218-2.1l-8.773-5.065a.77.77,0,0,0-.948.01.6.6,0,0,0-.211.122.551.551,0,0,0-.213.123.543.543,0,0,0-.209.121.622.622,0,0,0-.214.123.574.574,0,0,0-.209.121.629.629,0,0,0-.213.123.594.594,0,0,0-.208.123.9.9,0,0,1,.735.109l8.775,5.067A2.7,2.7,0,0,1,1310.823,438.3Zm1.208,26.781a.593.593,0,0,1-.211.124.611.611,0,0,1-.212.121.576.576,0,0,1-.215.122.534.534,0,0,1-.208.122.551.551,0,0,1-.211.122.518.518,0,0,1-.213.122.511.511,0,0,1-.209.122h0a.878.878,0,0,0,.271-.688V455.124a2.666,2.666,0,0,0-1.216-2.1l-8.775-5.069a.9.9,0,0,0-.735-.112,21.791,21.791,0,0,0,.421-.244.572.572,0,0,1,.213-.12.581.581,0,0,1,.211-.124.6.6,0,0,1,.209-.122.649.649,0,0,1,.213-.123.612.612,0,0,1,.211-.121.763.763,0,0,1,.943-.011l8.781,5.07a2.684,2.684,0,0,1,1.214,2.1l0,10.126A.759.759,0,0,1,1312.031,465.085Zm-14.586-25.242a.66.66,0,0,1-.209.121.579.579,0,0,1-.214.122.588.588,0,0,1-.209.123.6.6,0,0,1-.21.12.568.568,0,0,1-.214.123,24.457,24.457,0,0,0-.422.243h0a.884.884,0,0,0,.271-.689V429.888a2.678,2.678,0,0,0-1.215-2.1l-8.777-5.067a.9.9,0,0,0-.735-.114h0a.552.552,0,0,1,.209-.122,94.207,94.207,0,0,1,.422-.243.548.548,0,0,1,.216-.123.588.588,0,0,1,.208-.122.576.576,0,0,1,.21-.122.679.679,0,0,1,.212-.123.765.765,0,0,1,.945-.006l8.78,5.068a2.68,2.68,0,0,1,1.211,2.1l.005,10.123A.765.765,0,0,1,1297.445,439.844Zm-11.934-34.062h0a.537.537,0,0,1,.212-.125.548.548,0,0,1,.21-.118.506.506,0,0,1,.208-.122.563.563,0,0,1,.216-.122.543.543,0,0,1,.208-.126.549.549,0,0,1,.214-.118.527.527,0,0,1,.209-.123.767.767,0,0,1,.945-.011l8.78,5.069a2.685,2.685,0,0,1,1.211,2.1v10.124a.763.763,0,0,1-.479.812.635.635,0,0,1-.209.122.6.6,0,0,1-.214.122.548.548,0,0,1-.213.122.518.518,0,0,1-.211.122,48.559,48.559,0,0,1-.422.244.583.583,0,0,1-.21.123h0a.888.888,0,0,0,.271-.692V413.062a2.687,2.687,0,0,0-1.215-2.1l-8.777-5.07A.874.874,0,0,0,1285.511,405.782Zm-2.657,42.465a.518.518,0,0,1-.208.12.527.527,0,0,1-.209.123.638.638,0,0,1-.214.123.553.553,0,0,1-.21.123.588.588,0,0,1-.212.123.578.578,0,0,1-.209.121.587.587,0,0,1-.213.123.862.862,0,0,0,.27-.69V438.282a2.688,2.688,0,0,0-1.211-2.1l-8.777-5.066a.9.9,0,0,0-.734-.11.547.547,0,0,1,.209-.123.515.515,0,0,1,.21-.121.583.583,0,0,1,.213-.123.54.54,0,0,1,.209-.122.609.609,0,0,1,.214-.123.576.576,0,0,1,.21-.123.606.606,0,0,1,.212-.12.766.766,0,0,1,.946-.011l8.78,5.065a2.685,2.685,0,0,1,1.207,2.1l0,10.129A.761.761,0,0,1,1282.854,448.247Zm-.731-29.859a2.681,2.681,0,0,1,1.214,2.1v10.122a.758.758,0,0,1-.479.811.562.562,0,0,1-.213.122.492.492,0,0,1-.209.12.513.513,0,0,1-.209.124.57.57,0,0,1-.215.121.488.488,0,0,1-.212.122.51.51,0,0,1-.209.123.483.483,0,0,1-.21.121.872.872,0,0,0,.27-.689V421.464a2.685,2.685,0,0,0-1.215-2.1l-8.777-5.066a.873.873,0,0,0-.734-.112.578.578,0,0,1,.209-.124.7.7,0,0,1,.213-.119.529.529,0,0,1,.21-.121.5.5,0,0,1,.209-.121.549.549,0,0,1,.214-.122.483.483,0,0,1,.21-.123.53.53,0,0,1,.208-.123.775.775,0,0,1,.95-.011Zm-13.853,21.439a.613.613,0,0,1-.21.121.574.574,0,0,1-.209.122.566.566,0,0,1-.213.12.508.508,0,0,1-.211.123.564.564,0,0,1-.212.123.54.54,0,0,1-.21.122.591.591,0,0,1-.208.123.9.9,0,0,0,.269-.689V429.864a2.7,2.7,0,0,0-1.215-2.1l-8.781-5.067a.863.863,0,0,0-.73-.11h0a.5.5,0,0,1,.209-.122.509.509,0,0,1,.213-.123.518.518,0,0,1,.209-.123.547.547,0,0,1,.21-.12.531.531,0,0,1,.213-.122.508.508,0,0,1,.214-.122.484.484,0,0,1,.21-.122.763.763,0,0,1,.944-.013l8.777,5.067a2.694,2.694,0,0,1,1.215,2.1v10.125A.765.765,0,0,1,1268.27,439.826Zm46.414-34.025a.59.59,0,0,1,.21-.123.545.545,0,0,1,.209-.119.561.561,0,0,1,.213-.123.59.59,0,0,1,.211-.122.532.532,0,0,1,.208-.123.623.623,0,0,1,.216-.123.548.548,0,0,1,.208-.121.772.772,0,0,1,.948-.011l8.777,5.07a2.692,2.692,0,0,1,1.215,2.1l0,10.126a.753.753,0,0,1-.48.81,32.259,32.259,0,0,0-.423.244,63.256,63.256,0,0,1-.423.245.448.448,0,0,1-.215.12,11.8,11.8,0,0,1-.419.243.872.872,0,0,0,.268-.689l0-10.123a2.685,2.685,0,0,0-1.21-2.1l-8.781-5.069A.893.893,0,0,0,1314.684,405.8Zm-14.588-8.419a.5.5,0,0,1,.208-.124.554.554,0,0,1,.213-.119.509.509,0,0,1,.209-.121.582.582,0,0,1,.214-.127.551.551,0,0,1,.209-.119.508.508,0,0,1,.21-.12.6.6,0,0,1,.214-.125.756.756,0,0,1,.943-.008l8.781,5.065a2.68,2.68,0,0,1,1.214,2.1l0,10.123a.765.765,0,0,1-.479.817,189.109,189.109,0,0,1-.423.244.626.626,0,0,1-.215.122.549.549,0,0,1-.208.121.562.562,0,0,1-.211.123.546.546,0,0,1-.213.121.518.518,0,0,1-.209.123.89.89,0,0,0,.271-.693V404.659a2.678,2.678,0,0,0-1.216-2.1l-8.775-5.067A.868.868,0,0,0,1300.1,397.382Zm17.011,41.2,8.777,5.066a2.675,2.675,0,0,1,1.211,2.1l0,10.122a.771.771,0,0,1-.485.814.543.543,0,0,1-.209.122.558.558,0,0,1-.214.122.545.545,0,0,1-.211.122.555.555,0,0,1-.212.123.6.6,0,0,1-.211.123.611.611,0,0,1-.208.122.6.6,0,0,1-.215.12h0a.882.882,0,0,0,.271-.693v-10.12a2.687,2.687,0,0,0-1.215-2.1l-8.776-5.066a.884.884,0,0,0-.735-.111v0a.61.61,0,0,1,.213-.122.6.6,0,0,1,.209-.12.615.615,0,0,1,.209-.122.642.642,0,0,1,.214-.122.582.582,0,0,1,.208-.122.645.645,0,0,1,.21-.122.653.653,0,0,1,.214-.123A.765.765,0,0,1,1317.107,438.583Zm0-16.821,8.777,5.066a2.681,2.681,0,0,1,1.211,2.1v10.127a.769.769,0,0,1-.48.813.748.748,0,0,1-.213.123.654.654,0,0,1-.21.122.539.539,0,0,1-.214.116.512.512,0,0,1-.209.126.6.6,0,0,1-.211.123,46.728,46.728,0,0,0-.422.243h0a.882.882,0,0,0,.271-.689V429.9a2.679,2.679,0,0,0-1.215-2.1l-8.776-5.066a.871.871,0,0,0-.735-.111h0a.5.5,0,0,1,.209-.125.539.539,0,0,1,.214-.123.565.565,0,0,1,.209-.122.638.638,0,0,1,.214-.122.571.571,0,0,1,.208-.121.559.559,0,0,1,.21-.122.543.543,0,0,1,.214-.119A.76.76,0,0,1,1317.107,421.762Zm-60.766-49.643a.525.525,0,0,1,.209-.123.531.531,0,0,1,.213-.123.558.558,0,0,1,.209-.121.588.588,0,0,1,.21-.123.578.578,0,0,1,.213-.121.539.539,0,0,1,.214-.122.57.57,0,0,1,.21-.124.765.765,0,0,1,.944-.01l8.777,5.068a2.673,2.673,0,0,1,1.215,2.1v10.123a.763.763,0,0,1-.484.81.558.558,0,0,1-.21.123.533.533,0,0,1-.214.123.516.516,0,0,1-.208.122.565.565,0,0,1-.211.122.553.553,0,0,1-.212.122.5.5,0,0,1-.21.122.6.6,0,0,1-.208.122h0a.892.892,0,0,0,.273-.69V379.4a2.678,2.678,0,0,0-1.215-2.1l-8.777-5.071A.9.9,0,0,0,1256.341,372.119Zm29.17,16.841h0a.545.545,0,0,1,.209-.121.528.528,0,0,1,.214-.122.49.49,0,0,1,.213-.12.516.516,0,0,1,.211-.123.526.526,0,0,1,.208-.122.559.559,0,0,1,.214-.121.514.514,0,0,1,.209-.123.772.772,0,0,1,.949-.012l8.773,5.066a2.682,2.682,0,0,1,1.215,2.1v10.123a.765.765,0,0,1-.479.813.615.615,0,0,1-.213.121.542.542,0,0,1-.21.122,195.837,195.837,0,0,0-.633.367.584.584,0,0,1-.212.12.526.526,0,0,1-.21.123h0a.88.88,0,0,0,.271-.689l0-10.126a2.674,2.674,0,0,0-1.211-2.1l-8.777-5.067A.889.889,0,0,0,1285.511,388.96Zm-26.749-.883,8.78,5.068a2.691,2.691,0,0,1,1.211,2.1v10.123a.765.765,0,0,1-.48.814.644.644,0,0,1-.214.123.653.653,0,0,1-.209.122.739.739,0,0,1-.209.121.638.638,0,0,1-.214.121.585.585,0,0,1-.208.122.609.609,0,0,1-.214.122.534.534,0,0,1-.208.123h0a.88.88,0,0,0,.273-.692l0-10.122a2.683,2.683,0,0,0-1.206-2.1l-8.78-5.066a.9.9,0,0,0-.738-.115h0a.637.637,0,0,1,.213-.121.6.6,0,0,1,.208-.123.651.651,0,0,1,.211-.122.672.672,0,0,1,.213-.122.621.621,0,0,1,.213-.124.655.655,0,0,1,.21-.119.6.6,0,0,1,.21-.123A.765.765,0,0,1,1258.762,388.076Zm12.163,9.283a374.328,374.328,0,0,1,.422-.244.542.542,0,0,1,.21-.121.581.581,0,0,1,.212-.123.614.614,0,0,1,.211-.122.6.6,0,0,1,.213-.122.533.533,0,0,1,.209-.116.763.763,0,0,1,.949-.015l8.772,5.065a2.689,2.689,0,0,1,1.214,2.1v10.124a.762.762,0,0,1-.484.811.541.541,0,0,1-.208.122.559.559,0,0,1-.209.123.642.642,0,0,1-.214.122.553.553,0,0,1-.213.121.547.547,0,0,1-.209.123.53.53,0,0,1-.209.121.521.521,0,0,1-.213.123.889.889,0,0,0,.27-.69V404.639a2.672,2.672,0,0,0-1.211-2.1l-8.772-5.068A.916.916,0,0,0,1270.925,397.359Z" transform="translate(-1247.674 -354.732)"/><path class="u" d="M1275.871,400l0,10.122h0c0,.776-.546,1.089-1.219.7l-8.772-5.066a2.691,2.691,0,0,1-1.22-2.1h0V393.522c0-.77.541-1.086,1.22-.693l8.78,5.066A2.684,2.684,0,0,1,1275.871,400Zm14.586,8.418V418.54h0c0,.778-.542,1.089-1.212.7l-8.777-5.067a2.686,2.686,0,0,1-1.218-2.106h0l0-10.121c0-.774.541-1.087,1.219-.7l8.772,5.068A2.672,2.672,0,0,1,1290.457,408.415Zm14.589,8.423v10.123h0c0,.775-.544,1.091-1.215.7l-8.776-5.066a2.676,2.676,0,0,1-1.215-2.106h0V410.366c0-.774.546-1.086,1.215-.7l8.776,5.07A2.687,2.687,0,0,1,1305.046,416.838Zm-29.17-33.664V393.3h0c0,.778-.549,1.09-1.219.7l-8.772-5.064a2.688,2.688,0,0,1-1.22-2.1h0V376.7c0-.769.546-1.086,1.22-.7l8.777,5.071A2.678,2.678,0,0,1,1275.876,383.174Zm29.167,16.842,0,10.126h0c0,.771-.544,1.089-1.215.7l-8.776-5.066a2.712,2.712,0,0,1-1.22-2.106h0l.005-10.126c0-.772.546-1.084,1.215-.7l8.776,5.067A2.674,2.674,0,0,1,1305.043,400.016Zm-14.583,25.225v10.121h0c0,.779-.546,1.09-1.215.7L1280.469,431a2.683,2.683,0,0,1-1.215-2.1h0l0-10.127c0-.772.544-1.084,1.218-.7l8.777,5.066A2.685,2.685,0,0,1,1290.46,425.241Zm14.586,8.423v10.119h0c0,.777-.544,1.087-1.211.7l-8.78-5.067a2.69,2.69,0,0,1-1.215-2.106h0V427.187c-.005-.77.541-1.086,1.215-.693l8.776,5.067A2.677,2.677,0,0,1,1305.046,433.664Zm-29.17-.023v10.125h0c0,.776-.549,1.084-1.214.7l-8.781-5.066a2.7,2.7,0,0,1-1.216-2.106h0V427.171c0-.772.549-1.087,1.216-.7l8.781,5.067A2.7,2.7,0,0,1,1275.876,433.64Zm14.581,8.417v10.129h0c0,.777-.542,1.086-1.212.7l-8.78-5.07a2.684,2.684,0,0,1-1.215-2.1h0V435.59c0-.774.544-1.087,1.218-.7l8.777,5.066A2.687,2.687,0,0,1,1290.457,442.058Zm29.175-33.623v10.124h0c0,.777-.546,1.09-1.211.7l-8.781-5.07a2.679,2.679,0,0,1-1.216-2.1h0V401.966c0-.772.542-1.085,1.216-.7l8.776,5.068A2.678,2.678,0,0,1,1319.632,408.435Zm0,33.645V452.2h0c0,.778-.546,1.087-1.216.7l-8.776-5.066a2.671,2.671,0,0,1-1.216-2.106h0l0-10.124c0-.769.546-1.086,1.22-.7l8.776,5.067A2.7,2.7,0,0,1,1319.632,442.081Zm0,16.819v10.127h0c0,.772-.546,1.087-1.216.7l-8.776-5.068a2.7,2.7,0,0,1-1.216-2.1h0V452.434c0-.776.546-1.084,1.216-.7l8.776,5.069A2.666,2.666,0,0,1,1319.632,458.9Zm14.584-25.222v10.128h0c0,.773-.541,1.086-1.21.7l-8.781-5.071a2.682,2.682,0,0,1-1.215-2.1h0V427.209c0-.772.541-1.084,1.215-.7l8.776,5.066A2.679,2.679,0,0,1,1334.216,433.678Zm0-16.82,0,10.123h0c0,.779-.541,1.09-1.207.7l-8.777-5.066a2.686,2.686,0,0,1-1.218-2.108h0V410.384c0-.77.544-1.081,1.215-.7l8.781,5.069A2.684,2.684,0,0,1,1334.216,416.857Zm0,33.645v10.12h0c0,.783-.544,1.09-1.21.7l-8.781-5.067a2.7,2.7,0,0,1-1.219-2.1h0l0-10.124c0-.775.541-1.087,1.215-.7L1333,448.4A2.687,2.687,0,0,1,1334.216,450.5Z" transform="translate(-1256.484 -358.509)"/><path class="v" d="M1300.854,447.323l8.775,5.066a2.689,2.689,0,0,1,1.216,2.1v10.129a.876.876,0,0,1-.271.688.544.544,0,0,0,.21-.122.608.608,0,0,0,.212-.12.641.641,0,0,0,.211-.122,53.772,53.772,0,0,1,.423-.245.589.589,0,0,0,.212-.122.6.6,0,0,0,.211-.122.765.765,0,0,0,.482-.81V453.512a2.708,2.708,0,0,0-1.215-2.1l-8.78-5.066a.761.761,0,0,0-.944.011.521.521,0,0,0-.211.122,62.956,62.956,0,0,1-.427.244.553.553,0,0,0-.209.122.526.526,0,0,0-.209.124.5.5,0,0,0-.213.122.525.525,0,0,0-.208.12h0A.887.887,0,0,1,1300.854,447.323Zm-42.069-9.416,8.777,5.066a2.687,2.687,0,0,1,1.215,2.1V455.2a.762.762,0,0,1-.48.814.559.559,0,0,1-.214.123.537.537,0,0,1-.209.123.594.594,0,0,1-.213.122.55.55,0,0,1-.211.123.654.654,0,0,1-.208.122.589.589,0,0,1-.214.122.558.558,0,0,1-.208.122h0a.9.9,0,0,0,.27-.694v-10.12a2.686,2.686,0,0,0-1.219-2.1l-8.772-5.066a.9.9,0,0,0-.738-.111h0a.528.528,0,0,1,.213-.122.472.472,0,0,1,.213-.121,6585.98,6585.98,0,0,1,.419-.245.51.51,0,0,1,.213-.122.516.516,0,0,1,.21-.123.543.543,0,0,1,.21-.121A.771.771,0,0,1,1258.785,437.907Zm12.163-24.357a.544.544,0,0,1,.209-.122.572.572,0,0,1,.21-.123.542.542,0,0,1,.212-.123.633.633,0,0,1,.213-.122.585.585,0,0,1,.211-.122.529.529,0,0,1,.209-.122.547.547,0,0,1,.212-.122.768.768,0,0,1,.946-.011l8.781,5.07a2.667,2.667,0,0,1,1.206,2.093l0,10.128a.765.765,0,0,1-.484.812.561.561,0,0,1-.208.123,36.737,36.737,0,0,1-.424.243.533.533,0,0,1-.21.122.563.563,0,0,1-.209.122.625.625,0,0,1-.213.123.591.591,0,0,1-.209.12.9.9,0,0,0,.266-.689V420.824a2.673,2.673,0,0,0-1.211-2.1l-8.777-5.068A.889.889,0,0,0,1270.949,413.55Zm43.756,75.727a.509.509,0,0,1,.213-.122,8.6,8.6,0,0,1,.422-.243.5.5,0,0,1,.211-.123.518.518,0,0,1,.208-.121.536.536,0,0,1,.216-.122.524.524,0,0,1,.208-.123.773.773,0,0,1,.948-.011l8.777,5.066a2.687,2.687,0,0,1,1.21,2.1V505.7a.756.756,0,0,1-.48.812.638.638,0,0,1-.209.123.6.6,0,0,1-.213.12,103.683,103.683,0,0,1-.419.243.546.546,0,0,1-.215.123.521.521,0,0,1-.211.123.559.559,0,0,1-.211.123h0a.887.887,0,0,0,.271-.691V496.556a2.687,2.687,0,0,0-1.214-2.1l-8.776-5.067A.883.883,0,0,0,1314.7,489.277Zm-26.745-17.71,8.773,5.072a2.667,2.667,0,0,1,1.21,2.1l0,10.128a.756.756,0,0,1-.479.807.519.519,0,0,1-.213.122.486.486,0,0,1-.211.122.529.529,0,0,1-.213.121.543.543,0,0,1-.211.127.646.646,0,0,1-.209.117.524.524,0,0,1-.212.122.543.543,0,0,1-.21.125h0a.881.881,0,0,0,.268-.689V479.714a2.681,2.681,0,0,0-1.211-2.1l-8.772-5.07a.9.9,0,0,0-.739-.109.521.521,0,0,1,.209-.123.585.585,0,0,1,.21-.122.6.6,0,0,1,.211-.121.654.654,0,0,1,.216-.123.551.551,0,0,1,.208-.12.542.542,0,0,1,.21-.123.568.568,0,0,1,.212-.121A.773.773,0,0,1,1287.96,471.567Z" transform="translate(-1247.697 -387.741)"/><path class="t" d="M1300.854,447.323l8.775,5.066a2.689,2.689,0,0,1,1.216,2.1v10.129a.876.876,0,0,1-.271.688.544.544,0,0,0,.21-.122.608.608,0,0,0,.212-.12.641.641,0,0,0,.211-.122,53.772,53.772,0,0,1,.423-.245.589.589,0,0,0,.212-.122.6.6,0,0,0,.211-.122.765.765,0,0,0,.482-.81V453.512a2.708,2.708,0,0,0-1.215-2.1l-8.78-5.066a.761.761,0,0,0-.944.011.521.521,0,0,0-.211.122,62.956,62.956,0,0,1-.427.244.553.553,0,0,0-.209.122.526.526,0,0,0-.209.124.5.5,0,0,0-.213.122.525.525,0,0,0-.208.12h0A.887.887,0,0,1,1300.854,447.323Zm-42.069-9.416,8.777,5.066a2.687,2.687,0,0,1,1.215,2.1V455.2a.762.762,0,0,1-.48.814.559.559,0,0,1-.214.123.537.537,0,0,1-.209.123.594.594,0,0,1-.213.122.55.55,0,0,1-.211.123.654.654,0,0,1-.208.122.589.589,0,0,1-.214.122.558.558,0,0,1-.208.122h0a.9.9,0,0,0,.27-.694v-10.12a2.686,2.686,0,0,0-1.219-2.1l-8.772-5.066a.9.9,0,0,0-.738-.111h0a.528.528,0,0,1,.213-.122.472.472,0,0,1,.213-.121,6585.98,6585.98,0,0,1,.419-.245.51.51,0,0,1,.213-.122.516.516,0,0,1,.21-.123.543.543,0,0,1,.21-.121A.771.771,0,0,1,1258.785,437.907Zm12.163-24.357a.544.544,0,0,1,.209-.122.572.572,0,0,1,.21-.123.542.542,0,0,1,.212-.123.633.633,0,0,1,.213-.122.585.585,0,0,1,.211-.122.529.529,0,0,1,.209-.122.547.547,0,0,1,.212-.122.768.768,0,0,1,.946-.011l8.781,5.07a2.667,2.667,0,0,1,1.206,2.093l0,10.128a.765.765,0,0,1-.484.812.561.561,0,0,1-.208.123,36.737,36.737,0,0,1-.424.243.533.533,0,0,1-.21.122.563.563,0,0,1-.209.122.625.625,0,0,1-.213.123.591.591,0,0,1-.209.12.9.9,0,0,0,.266-.689V420.824a2.673,2.673,0,0,0-1.211-2.1l-8.777-5.068A.889.889,0,0,0,1270.949,413.55Zm43.756,75.727a.509.509,0,0,1,.213-.122,8.6,8.6,0,0,1,.422-.243.5.5,0,0,1,.211-.123.518.518,0,0,1,.208-.121.536.536,0,0,1,.216-.122.524.524,0,0,1,.208-.123.773.773,0,0,1,.948-.011l8.777,5.066a2.687,2.687,0,0,1,1.21,2.1V505.7a.756.756,0,0,1-.48.812.638.638,0,0,1-.209.123.6.6,0,0,1-.213.12,103.683,103.683,0,0,1-.419.243.546.546,0,0,1-.215.123.521.521,0,0,1-.211.123.559.559,0,0,1-.211.123h0a.887.887,0,0,0,.271-.691V496.556a2.687,2.687,0,0,0-1.214-2.1l-8.776-5.067A.883.883,0,0,0,1314.7,489.277Zm-26.745-17.71,8.773,5.072a2.667,2.667,0,0,1,1.21,2.1l0,10.128a.756.756,0,0,1-.479.807.519.519,0,0,1-.213.122.486.486,0,0,1-.211.122.529.529,0,0,1-.213.121.543.543,0,0,1-.211.127.646.646,0,0,1-.209.117.524.524,0,0,1-.212.122.543.543,0,0,1-.21.125h0a.881.881,0,0,0,.268-.689V479.714a2.681,2.681,0,0,0-1.211-2.1l-8.772-5.07a.9.9,0,0,0-.739-.109.521.521,0,0,1,.209-.123.585.585,0,0,1,.21-.122.6.6,0,0,1,.211-.121.654.654,0,0,1,.216-.123.551.551,0,0,1,.208-.12.542.542,0,0,1,.21-.123.568.568,0,0,1,.212-.121A.773.773,0,0,1,1287.96,471.567Z" transform="translate(-1247.697 -387.741)"/><path class="v" d="M1290.457,424.595v10.128h0c0,.777-.542,1.09-1.207.7l-8.777-5.07a2.671,2.671,0,0,1-1.223-2.1h0l0-10.122c0-.776.541-1.087,1.215-.7l8.777,5.068A2.673,2.673,0,0,1,1290.457,424.595Zm-14.581,25.227v10.12h0c0,.783-.546,1.091-1.214.706l-8.781-5.071a2.691,2.691,0,0,1-1.211-2.1h0l0-10.125c0-.774.546-1.087,1.22-.7l8.772,5.066A2.685,2.685,0,0,1,1275.876,449.822Zm29.167,33.663v10.127h0c0,.774-.546,1.087-1.212.7l-8.776-5.066a2.7,2.7,0,0,1-1.215-2.1h0l-.005-10.125c0-.774.551-1.086,1.224-.7l8.772,5.07A2.681,2.681,0,0,1,1305.043,483.485Zm14.589-25.225v10.129h0c0,.772-.546,1.084-1.216.7l-8.772-5.071a2.676,2.676,0,0,1-1.223-2.1h0l0-10.123c0-.774.542-1.085,1.216-.7l8.776,5.066A2.689,2.689,0,0,1,1319.632,458.26Zm14.584,42.067v10.125h0c0,.777-.544,1.086-1.215.7l-8.772-5.07a2.657,2.657,0,0,1-1.218-2.1h0V493.856c0-.773.544-1.085,1.215-.7l8.776,5.067A2.687,2.687,0,0,1,1334.216,500.327Z" transform="translate(-1256.484 -391.512)"/></g><path class="i" d="M1823.515,1600.228c-.282,6.043.2,7.068,2.385,13.878,3,9.38,2.782,7.287,6.426,8.371s2.228,4,.247,7.97-9.907.609-14.764-.744-2.582-5.637-4.678-9.933,2.312-3.23,1.871-17.354c-.007-.263-.032-.5-.044-.755C1817.174,1603.352,1821.812,1602.193,1823.515,1600.228Z" transform="translate(10083.919 6250.988)"/><path class="w" d="M1832.645,1689.953c-1.98,3.973-9.907.609-14.764-.744s-2.53-5.664-4.679-9.934c-1.054-2.108-.6-2.665-.036-4.092a9.666,9.666,0,0,1,5.18.19c3.128.805,4.963,1.817,6.871,5.033s4.422,6.19,5.84,4.618c1.161-1.293-.473-2.5-1.642-3.769a26.425,26.425,0,0,0,2.983.727C1836.039,1683.076,1834.626,1685.98,1832.645,1689.953Z" transform="translate(10083.847 6191.482)"/><path class="w" d="M1812.643,1670.033a6.017,6.017,0,0,1,.944-2.613c1.094-1.147,5.063-.511,7.39.85,1.2.7,2.491,2.444,4.1,5.516.039.061.076.109.11.174,1.9,3.211,4.422,6.19,5.84,4.618,1.161-1.293-.473-2.5-1.642-3.769a26.425,26.425,0,0,0,2.983.727c3.641,1.093,2.228,4,.247,7.97s-9.907.609-14.765-.744c-3.5-.975-3.267-3.492-3.675-6.418a10.882,10.882,0,0,0-1-3.516,5.566,5.566,0,0,1-.605-1.738A7.751,7.751,0,0,1,1812.643,1670.033Z" transform="translate(10083.877 6197.929)"/><path class="i" d="M1781.275,1000.693c.069-.429.148-.856.223-1.283.112-.622.235-1.234.366-1.84.076-.347.153-.693.237-1.036.229-.956.7-4.656.7-4.656,2.138-16.22-.122-34.479-2.136-44.873-.027-.195-.058-.39-.084-.573a50.752,50.752,0,0,1-1.421-12.148c0-.852.025-1.691.063-2.521v-.059a33.886,33.886,0,0,1,2.49-13.366,25.5,25.5,0,0,1,1.692-3.714c.608-1.25,1.2-2.447,1.708-3.664a7.646,7.646,0,0,0,.492.625,7.655,7.655,0,0,1,2.975-2.019,16.853,16.853,0,0,1,1.632-4.586c6.173-6.887,7.593-2.162,11.637,1.517,4.047,8.636,8.35,23.684,9.219,28.332,1.536,8.231-16.149,83.475-17.163,99.153-.282,4.289-.492,7.255-.6,9.53-1.7,1.965-6.34,3.125-8.559,1.433-.065-1.344-5.687-27.476-3.719-42.529C1781.106,1001.837,1781.183,1001.263,1781.275,1000.693Z" transform="translate(10114.121 6807.704)"/><path class="w" d="M1824.242,1693.676c2.728,4.2,5.848,10.2,8.363,7.523a41.792,41.792,0,0,0,2.688-3.2,25.3,25.3,0,0,1-1.8,4.153c-1.98,3.973-9.907.609-14.764-.744s-2.582-5.637-4.678-9.933a6.189,6.189,0,0,1-.456-1.246C1817.416,1690.312,1822.461,1690.925,1824.242,1693.676Z" transform="translate(10082.996 6179.284)"/><path class="x" d="M1824.242,1693.676c2.728,4.2,5.848,10.2,8.363,7.523a41.792,41.792,0,0,0,2.688-3.2,25.3,25.3,0,0,1-1.8,4.153c-1.98,3.973-9.907.609-14.764-.744s-2.582-5.637-4.678-9.933a6.189,6.189,0,0,1-.456-1.246C1817.416,1690.312,1822.461,1690.925,1824.242,1693.676Z" transform="translate(10082.996 6179.284)"/><path class="i" d="M1663.676,1649.045a32.932,32.932,0,0,0,1.66,13.2c3.313,9.977,6.234,16.8,9.409,17.156s8.844,3.787,4.729,6.923-6.97,3.227-12.174.381-6.61-11.078-13.722-11.955c-3.791-.464-5.479-3.166-4.007-6.673s3.557-6.5,3.251-16.273c0-.105-.015-.2-.019-.31C1654.979,1653.883,1661.8,1651.612,1663.676,1649.045Z" transform="translate(10270.824 6212.095)"/><path class="y" d="M1697.035,953.039c-1.77-3.482-13.749-18.692-5.343-36.225,10.087-21.031,17.981-22.015,24.953-9.462,4.744,8.545,8.385,17.678,8.968,36.234.656,20.964-8.844,103.506-9.139,108.031-1.876,2.568-8.7,4.839-10.874,2.452,0-.078-.006-.173-.01-.258l-.039.258c-2.4-12.224-5.909-33.733-3.238-51.5-.174-3.327-.312-6.382-.4-8.992C1701.707,986.885,1698.113,955.158,1697.035,953.039Z" transform="translate(10218.027 6809.523)"/><path class="z" d="M1690.2,947.46c-.029-.2-.058-.389-.086-.576a50.737,50.737,0,0,1-1.419-12.147c0-.849.023-1.69.06-2.522v-.057a33.8,33.8,0,0,1,2.5-13.367,25.467,25.467,0,0,1,1.687-3.713c.609-1.249,1.2-2.446,1.711-3.663a7.288,7.288,0,0,0,.491.623,7.665,7.665,0,0,1,2.973-2.019,16.665,16.665,0,0,1,1.632-4.584c6.173-6.888,7.595-2.165,11.637,1.515.117.244.231.515.347.769,7.053-9.394,12.975-7.774,18.347,1.907,4.747,8.542,8.387,17.678,8.97,36.231.244,7.827-.924,24.238-2.506,41.966-12,10.414-33.7-1.875-43.348-10.007A168.765,168.765,0,0,0,1690.2,947.46Z" transform="translate(10204.594 6807.708)"/><path class="v" d="M1690.489,921.76a149.192,149.192,0,0,0-1.79-19.933c.068-.016.119-.136.163-.305,3.516-.252,6.747,2.637,9.8,8.142,4.747,8.542,8.388,17.677,8.971,36.23.244,7.827-.924,24.238-2.506,41.966A16.672,16.672,0,0,1,1695,991.807c.286-10.958.722-23.069,1.387-36.308C1697.511,933.058,1690.517,927.658,1690.489,921.76Z" transform="translate(10236.012 6807.67)"/><path class="aa" d="M1649.042,1730.325a15.446,15.446,0,0,1,1.9-6.246c5.783-.243,12.1,6.911,15,12.126l.7,1.153-.015,0c.256.351.506.7.728,1.059,2.3,3.707,4.567,6.516,7.98,4.485,3.013-1.79,1.325-2.515-.753-3.759.052.01.1.032.158.041,3.167.349,8.844,3.787,4.729,6.924s-6.97,3.226-12.174.381-6.61-11.078-13.722-11.955c-2.819-.346-4.437-1.946-4.482-4.186Z" transform="translate(10270.831 6152.318)"/><path class="w" d="M1663.656,1766.521c4.342,5.508,6.341,11.65,12.987,7.72a27.285,27.285,0,0,0,4.16-2.984,2.78,2.78,0,0,1-1.383,2.787c-4.115,3.135-6.97,3.227-12.175.381s-6.61-11.078-13.722-11.955c-2.45-.3-4-1.543-4.414-3.327C1652.923,1760.394,1659.79,1761.623,1663.656,1766.521Z" transform="translate(10270.878 6124.378)"/><path class="x" d="M1663.656,1766.521c4.342,5.508,6.341,11.65,12.987,7.72a27.285,27.285,0,0,0,4.16-2.984,2.78,2.78,0,0,1-1.383,2.787c-4.115,3.135-6.97,3.227-12.175.381s-6.61-11.078-13.722-11.955c-2.45-.3-4-1.543-4.414-3.327C1652.923,1760.394,1659.79,1761.623,1663.656,1766.521Z" transform="translate(10270.878 6124.378)"/><path class="w" d="M1775.923,1767.956c2.35,1.048,3.229-.1,2.414,2.636s.46,13.487-.089,14.066a1.122,1.122,0,0,1-1.8.057c-.659-.617-.842-12.381-2.579-15.037S1773.713,1766.973,1775.923,1767.956Z" transform="translate(10147.882 6117.824)"/><path class="w" d="M1887.418,1696.841c2.351,1.042,3.231-.1,2.418,2.631s.456,13.484-.089,14.067a1.128,1.128,0,0,1-1.806.058c-.658-.618-.838-12.384-2.576-15.039S1885.209,1695.853,1887.418,1696.841Z" transform="translate(10013.718 6174.485)"/><path class="ab" d="M1790.223,531.7c-1.5-.533-2.878,8.232,1.567,10.544s-22.712,1.9-20.761-.468,1.233-4.854,2.872-4.766,8.4-6.439,4.562-13.2,7.9-5.931,9.251-4.146,6.476,3.11,5.318,5.365S1792.532,532.53,1790.223,531.7Z" transform="translate(10133.762 7112.893)"/><path class="v" d="M1790.223,531.7c-1.5-.533-2.878,8.232,1.567,10.544s-22.712,1.9-20.761-.468,1.233-4.854,2.872-4.766,8.4-6.439,4.562-13.2,7.9-5.931,9.251-4.146,6.476,3.11,5.318,5.365S1792.532,532.53,1790.223,531.7Z" transform="translate(10133.762 7112.893)"/><path class="ab" d="M1760.543,449.163c-.589-2.541-5.05-4.479-7.754-1.046-3.627,4.6-3.884,6.612-8.218,11.494a15.181,15.181,0,0,1-1.143,1.155,6.848,6.848,0,0,0-.218-1.217c-.719-2.6-2.733-4.318-4.5-3.836s-2.634,2.995-1.914,5.6a6.013,6.013,0,0,0,2.025,3.2c2.919,4.711,3.617,6.464,8.69,8.516,4.075,1.65,9.385,2.451,10.433-.853.856-2.694,3.556-4.771,3.556-8.773,0-2.6-1.39-7.339-1-9.609A13.465,13.465,0,0,0,1760.543,449.163Z" transform="translate(10172.458 7170.365)"/><path class="ac" d="M1760.543,449.163c-.589-2.541-5.05-4.479-7.754-1.046-3.627,4.6-3.884,6.612-8.218,11.494a15.181,15.181,0,0,1-1.143,1.155,6.848,6.848,0,0,0-.218-1.217c-.719-2.6-2.733-4.318-4.5-3.836s-2.634,2.995-1.914,5.6a6.013,6.013,0,0,0,2.025,3.2c2.919,4.711,3.617,6.464,8.69,8.516,4.075,1.65,9.385,2.451,10.433-.853.856-2.694,3.556-4.771,3.556-8.773,0-2.6-1.39-7.339-1-9.609A13.465,13.465,0,0,0,1760.543,449.163Z" transform="translate(10172.458 7170.365)"/><path class="ac" d="M1739.16,472.171c2.777-1.159,2.6,1.217,5.608-3.737s1.865-9.672,2.194-13.732.289-4.06-2.194-7.478c-.217-.294-.422-.586-.634-.879a4.332,4.332,0,0,1,4.624,2.86,13.467,13.467,0,0,1-.044,4.636c-.394,2.27,1,7.005,1,9.609,0,4-2.7,6.079-3.556,8.773-.68,2.14-3.154,2.545-5.917,2.126a1.235,1.235,0,0,1-.5-.076c-1.5-.533-2.878,8.232,1.567,10.544,1.516.792-.66,1.12-4.1,1.237-.266-2.889-.3-5.557-.469-6.717C1736.291,476.163,1736.38,473.327,1739.16,472.171Z" transform="translate(10184.243 7170.324)"/><g transform="translate(11893.631 7623.637)"><g transform="translate(59.752)"><path class="i" d="M1548.326,512.974c2.861-2.129,8.854-6.926,10.185-7.274a6.988,6.988,0,0,0,3.651-2.808,18.663,18.663,0,0,0,1.9-4.585c.629-1.8,1.752-4.675,0-4.675s-2.53,1.965-2.53,1.965a27.943,27.943,0,0,0-.122-5.439c-.37-2.211-1.137-6.037-1.6-6.6a1.073,1.073,0,0,0-.982-.454s-.175-2.387-1.473-2.387-1.053,1.616-1.053,1.616-1.05.033-1.05,1.786-.546,1.825-.835,3.228-.484,6.019-1.325,8.86.052,4.37-2.1,5.683-6.259,3.207-5.2,4.994S1546,514.714,1548.326,512.974Z" transform="translate(-1545.615 -480.719)"/><path class="ad" d="M1548.1,522.387c2.861-2.129,8.853-6.926,10.185-7.274a6.99,6.99,0,0,0,3.65-2.808,18.668,18.668,0,0,0,1.9-4.585c.629-1.8,1.752-4.675,0-4.675s-2.53,1.965-2.53,1.965a27.957,27.957,0,0,0-.122-5.439c-.37-2.211-1.137-6.037-1.6-6.6a1.2,1.2,0,0,0-.669-.44,16.18,16.18,0,0,1,.716,2.733,62.525,62.525,0,0,1,.911,9.993c-.135,1.752-.222,6.106-3.334,7.129a41.682,41.682,0,0,0-11.591,7.343C1546.342,521.281,1546.215,523.795,1548.1,522.387Z" transform="translate(-1545.386 -490.131)"/></g><path class="i" d="M1623.781,607.171a4.217,4.217,0,0,0-1.593-.557,4.571,4.571,0,0,0,1.551-.695l20.453-12.745,1.314,8.59-13.975,12.87a15.019,15.019,0,0,1-3.828,2.4,3.785,3.785,0,0,0,.564-2.088A9.906,9.906,0,0,0,1623.781,607.171Z" transform="translate(-1581.937 -570.314)"/><path class="ae" d="M1707.12,637.141a6.992,6.992,0,0,1,8.242-5.572l29.943,5.573a4.5,4.5,0,0,0,1.937-.047,4.216,4.216,0,0,1,1.593.557,9.9,9.9,0,0,1,4.485,7.779,3.786,3.786,0,0,1-.564,2.088,15.089,15.089,0,0,1-7.411,1.187l-31.581-2.764A7.468,7.468,0,0,1,1707.12,637.141Z" transform="translate(-1706.992 -600.795)"/><path class="ad" d="M1627.068,624.758a5.505,5.505,0,0,1-4.88,1.059s0,0,0,0a10.723,10.723,0,0,1,1.672,2.789c.022.052.039.105.058.16a9.156,9.156,0,0,1,.385,1.226c.026.11.057.224.075.338a6.878,6.878,0,0,1,.157,1.379,3.785,3.785,0,0,1-.563,2.088,15.024,15.024,0,0,0,3.828-2.4l13.975-12.87-.658-4.312C1640.314,614.843,1627.076,624.753,1627.068,624.758Z" transform="translate(-1578.211 -587.077)"/><path class="af" d="M1714.5,631.62c3.563,2.792,31.916,9.546,36.469,8.049a9.781,9.781,0,0,1,2.352,5.9,3.784,3.784,0,0,1-.564,2.088,15.089,15.089,0,0,1-7.411,1.187l-31.581-2.764a7.468,7.468,0,0,1-6.646-8.8A6.971,6.971,0,0,1,1714.5,631.62Z" transform="translate(-1706.992 -600.929)"/></g><path class="ag" d="M1680.92,609.058c8.045.26,14.315,1.571,20.011,4.249a87.8,87.8,0,0,1,12.34,6.987c.062.046.114.076.177.122.094.068.18.132.266.2.6.429,1.176.862,1.713,1.3,1.056.683,10.8,9.65,4.567,5.764,1.737,7.931,7,10.414,4.662,17.081-2.083,5.934-6.531,5.244-7.668,12.2s-.651,27.4-1.523,28.328-13.532,5.841-25.572.949c-.19-.078-.354-.152-.539-.227-7.4-3.048-11.707-5.586-13.292-8.009a17.651,17.651,0,0,0,1.523-7.046c0-9.346-1.02-10.792-3.188-19.971a4.889,4.889,0,0,0-.247-.73c-.153-.5-.3-.961-.446-1.349-.7-1.6-1.432-3.123-2.191-4.505-5.364-9.763-6.131-18.677-6.131-27.094C1665.384,609.486,1677.336,609,1680.92,609.058Z" transform="translate(10223.173 7040.671)"/><path class="v" d="M1659.489,615.49c1.072-3.784,5.479-5.37,9.432-6.015l.032,0c.372-.062.745-.112,1.111-.158.037-.007.08-.01.119-.014.338-.041.67-.077.994-.1.063,0,.122-.009.188-.013.292-.025.581-.046.859-.063.1,0,.184-.01.275-.011.237-.014.469-.023.687-.031.143-.005.273-.006.407-.007s.308-.008.443-.008c.266,0,.51,0,.719,0,8.045.26,14.315,1.571,20.011,4.249.749.351,1.556.75,2.37,1.162a14.769,14.769,0,0,0,1.554.812c.529.28,1.057.547,1.593.841,2.015,1.013,3.671,2.4,5.417,3.217,5.624,3.686,10.8,9.368,10.2,9.658.159.733,7.143,10.591,3.15,12.873a8.755,8.755,0,0,1-.084.97q-.029.192-.07.392a10.6,10.6,0,0,1-.4,1.52c-2.083,5.934-6.531,5.244-7.668,12.2a26,26,0,0,1-.362,3.228c-.672,8.6-.4,24.29-1.161,25.1a1.8,1.8,0,0,1-.373.256c-.049.028-.123.064-.183.1-.149.079-.319.163-.525.254-.085.039-.175.077-.271.117-.244.1-.517.211-.819.322-.089.033-.169.063-.261.1a30.366,30.366,0,0,1-3.108.911.193.193,0,0,1-.034.008c-.578.139-1.2.27-1.839.388l-.295.052c-.586.106-1.2.2-1.83.278-.115.016-.229.032-.344.046-.716.084-1.451.153-2.21.2a.31.31,0,0,0-.049,0l0,0c0-7.645,3.225-7.645,3.225-18.448,0-7.588-2.056-16.555-2.056-21.786,0-7.924,2.03-10.573,5.115-17.437.271-.6.523-1.134.758-1.622a.013.013,0,0,0,0-.011c1.08-2.473,1.453-4.247.011-5.262-.065-.046-.129-.092-.2-.138-.194-.134-.388-.27-.59-.4q-.646-.43-1.319-.851c-.073-.047-.144-.094-.217-.14-.511-.318-1.027-.635-1.551-.945-2.8-1.664-5.724-3.176-8.221-4.35-5.7-2.676-11.965-3.989-20.008-4.246-2.46-.045-8.843.174-12.622,2.83C1659.486,615.492,1659.486,615.492,1659.489,615.49Z" transform="translate(10229.34 7040.667)"/><path class="w" d="M1732.118,390.219a14.944,14.944,0,0,1,2.564-2.975c.136-.127.275-.255.414-.378.1-.079.195-.156.291-.232.132-.111.265-.221.4-.324l.02.007a19.61,19.61,0,0,1,11.78-3.779c9.678,0,17.525,6.475,17.525,14.467a12.172,12.172,0,0,1-1.086,4.972c-.01.034-.015.07-.026.1-2.642,7.92-3.66,5.942-4.625,13.462-2.291,17.84,7.1,15.224,8.191,23.795a81.271,81.271,0,0,0-7.935-4.666l-.031-.018c-3.665-1.813-5.044.271-12.168-1.366s-12.117-3.31-17.367-15.5C1726.709,409.995,1726.714,397.932,1732.118,390.219Z" transform="translate(10168.173 7221.139)"/><path class="v" d="M1763.119,397.005a12.17,12.17,0,0,1-1.086,4.972c-.01.034-.015.07-.026.1-2.642,7.92-3.66,5.942-4.625,13.462-2.291,17.84,7.1,15.224,8.191,23.795a81.269,81.269,0,0,0-7.934-4.666l-.031-.018c-3.665-1.813-5.044.271-12.168-1.366s-12.118-3.31-17.367-15.5c-.111-.256-.205-.529-.312-.8,5.652,9.567,19.975,13.019,18.9,3.851-1.92-16.445,4.961-21.987,6.77-28.866,1.624-6.193-8.9-8.084-14.552-8.32a20.6,20.6,0,0,1,6.71-1.116C1755.272,382.539,1763.119,389.014,1763.119,397.005Z" transform="translate(10170.166 7221.139)"/><g transform="translate(11932.517 7666.296)"><g transform="translate(25.77 2.943)"><g transform="translate(22.873)"><path class="i" d="M1379.05,731.739c1.06-.937,6.525-6.25,8.712-6.551s3.511-.6,4.716-2.19,1.165-1.075,1.557-1.129,1.3.283,1.971.192,1.463-.945,1.994-1.643.61-1.6,1.07-2.205-.357-1.8.023-2.3.457-1.248-1.135-2.455a13,13,0,0,0-2.015-1.38s.774-1.018,1.523-1.807a10.768,10.768,0,0,1,2.611-2.183c1.161-.672,2.544-2.231,1.717-2.86s-3.016.473-4.582,1.542a33.483,33.483,0,0,1-4.964,2.906,15.488,15.488,0,0,0-4.524,3.19c-2.084,1.882-4.625,4.749-7.878,7.325-3.625,2.874-4.735,5.135-3.271,7.048S1377.249,733.339,1379.05,731.739Z" transform="translate(-1375.949 -705.048)"/><path class="ad" d="M1386.126,727.56c2.183-.3,3.511-.6,4.716-2.19s1.165-1.075,1.557-1.129,1.3.283,1.971.192,1.463-.945,1.994-1.643.61-1.6,1.07-2.205-.357-1.8.023-2.3.457-1.248-1.135-2.454a12.964,12.964,0,0,0-2.015-1.38s.774-1.018,1.523-1.807a10.76,10.76,0,0,1,2.611-2.183,5.85,5.85,0,0,0,.651-.46c.034-.029.071-.059.107-.088a5.138,5.138,0,0,0,.6-.594.106.106,0,0,0,.016-.016,1.907,1.907,0,0,0,.572-1.276v0c-2.716,1.912-7.87,6.023-7.033,6.858a4.666,4.666,0,0,1,1.47,3.893c-.2,1.585-1.859,2.329-3.709,3.2-1.741.826-3.927.24-15.062,8.141.515.567.979,2.931,1.1,4.192a1.818,1.818,0,0,0,.266-.2C1378.474,733.174,1383.939,727.861,1386.126,727.56Z" transform="translate(-1374.313 -707.42)"/></g><path class="i" d="M1486.744,804.057a4.291,4.291,0,0,0-1.591-.559,4.525,4.525,0,0,0,1.549-.693l23.764-16.867,1.458,9.541-17.43,16.041a15.069,15.069,0,0,1-3.829,2.4,3.777,3.777,0,0,0,.565-2.09A9.912,9.912,0,0,0,1486.744,804.057Z" transform="translate(-1485.153 -769.495)"/><path class="ad" d="M1490.033,825.376a5.5,5.5,0,0,1-4.88,1.06s0,0,0,.006a10.689,10.689,0,0,1,1.671,2.789c.023.051.037.106.062.158a9.6,9.6,0,0,1,.38,1.229c.028.112.057.224.08.336a6.976,6.976,0,0,1,.154,1.379,3.776,3.776,0,0,1-.565,2.09,15.07,15.07,0,0,0,3.829-2.4l17.43-16.041-.659-4.311C1506.736,812.292,1490.041,825.372,1490.033,825.376Z" transform="translate(-1481.429 -789.991)"/></g><path class="ag" d="M1573.793,691.614a6.991,6.991,0,0,1,9.667,2.347l20.039,31.681a8.28,8.28,0,0,1-.728,11.5,3.775,3.775,0,0,1-1.923.991,15.1,15.1,0,0,1-5.872-4.681l-23.217-31A7.467,7.467,0,0,1,1573.793,691.614Z" transform="translate(-1570.255 -690.57)"/><path class="v" d="M1573.8,691.682a7.192,7.192,0,0,1,1.236-.6c.162-.06.332-.09.5-.139.26-.073.514-.153.773-.2.232-.038.461-.043.694-.059.194-.014.383-.036.575-.031a7.072,7.072,0,0,1,.849.079c.127.017.256.031.381.055a6.892,6.892,0,0,1,.961.269c.068.024.141.046.21.072a7.114,7.114,0,0,1,1.01.488c.026.017.057.032.083.049a7.024,7.024,0,0,1,.979.715.073.073,0,0,1,.018.019,6.813,6.813,0,0,1,.877.925.088.088,0,0,0,.011.015c1.489,2.3,2.866,4.433,4.156,6.448L1603.5,725.71a8.172,8.172,0,0,1,.511,10.048,12.066,12.066,0,0,1-1.239,1.457,3.775,3.775,0,0,1-1.923.991,14.715,14.715,0,0,1-1.486-.78c-.236-.141-.461-.3-.688-.45s-.432-.292-.641-.449c-.292-.218-.578-.446-.853-.688-.109-.094-.212-.189-.316-.286-.32-.292-.629-.592-.922-.908,2.11,1.807,6.629.431,3.264-3.821-2.231-2.823-8.009-9.8-13.048-16.4-6.011-7.882-11.424-9.565-9.94-5.948l-4.458-5.951A7.467,7.467,0,0,1,1573.8,691.682Z" transform="translate(-1570.262 -690.638)"/></g></g><g transform="translate(-10221 -6922.852)"><g transform="translate(10773.823 7762.252)"><g class="ah"><g transform="translate(33.353 12.28)"><path class="ai" d="M2119.377,3219.964l-1.409,23.478-43.519,26.81,1.409-23.477Z" transform="translate(-2074.449 -3219.964)"/></g><g transform="translate(0 4.613)"><path class="aj" d="M2025.566,3235.213l-1.409,23.478-33.353-34.476,1.409-23.478Z" transform="translate(-1990.804 -3200.737)"/></g><g transform="translate(1.409)"><path class="ak" d="M2069.679,3200.534c.521.3,1.028.606,1.53.913l-43.519,26.81-33.352-34.477C2017.5,3185.882,2048.181,3188.122,2069.679,3200.534Z" transform="translate(-1994.338 -3189.167)"/></g></g></g><path class="al" d="M2218.78,3314.7c.01-.082.021-.163.03-.245.015-.136.028-.272.041-.408.007-.069.014-.137.02-.206q.026-.307.045-.615l1.691-28.173q-.019.308-.045.615c-.006.069-.014.137-.021.206-.013.136-.025.272-.041.408-.009.082-.02.164-.03.246-.015.123-.03.245-.047.368-.012.087-.026.174-.039.26-.018.118-.035.237-.055.355-.012.076-.026.152-.04.228-.021.123-.043.245-.066.368-.015.08-.031.16-.047.24-.024.119-.048.238-.074.357-.018.08-.035.16-.053.24-.027.121-.056.242-.085.362-.019.077-.037.154-.057.231-.032.129-.067.258-.1.387-.019.067-.036.135-.055.2-.047.168-.1.336-.147.5l-.024.083q-.089.292-.187.584c-.02.059-.041.117-.061.176-.046.136-.093.272-.142.407-.028.078-.057.156-.086.233-.043.118-.088.237-.134.355-.031.081-.063.162-.1.244q-.069.172-.139.343l-.1.246c-.048.114-.1.227-.147.34l-.11.244q-.078.172-.16.344c-.038.079-.074.157-.113.237-.058.12-.118.239-.178.359-.036.073-.072.145-.109.218-.07.135-.142.271-.214.406-.03.056-.059.112-.089.168q-.155.285-.318.569c-.044.077-.09.153-.135.23-.071.12-.14.24-.213.36-.05.083-.1.165-.154.248-.07.113-.139.226-.21.339-.055.086-.112.171-.167.257-.071.109-.141.218-.213.327-.059.088-.121.176-.18.263-.072.105-.144.211-.218.317-.062.089-.127.177-.19.265s-.148.208-.224.311-.133.177-.2.266-.153.2-.231.306-.14.178-.21.267-.157.2-.238.3-.146.178-.219.267-.166.2-.251.3l-.121.141c-.107.126-.216.252-.326.377l-.148.168q-.17.19-.343.38l-.121.132q-.232.252-.471.5c-.031.033-.064.066-.1.1-.13.135-.261.269-.394.4l-.16.16q-.179.178-.362.355l-.155.15q-.257.246-.519.49l-1.691,28.173c.176-.162.348-.326.519-.49l.155-.15c.122-.118.243-.237.362-.356l.16-.16c.133-.134.264-.268.394-.4l.1-.1q.239-.25.471-.5l.121-.132q.174-.19.343-.381l.147-.167q.166-.189.327-.378l.12-.14.046-.054c.07-.083.137-.167.206-.251s.147-.177.219-.266.159-.2.238-.3l.21-.267c.078-.1.155-.2.231-.307s.134-.177.2-.265.15-.208.226-.312c.063-.088.127-.176.189-.264.074-.106.146-.211.218-.317.061-.088.122-.175.18-.263.072-.108.142-.217.213-.325.056-.086.113-.172.168-.258.072-.112.14-.225.21-.338.051-.083.1-.166.154-.249.073-.12.143-.242.214-.362.044-.076.09-.152.134-.228l0-.009q.16-.279.313-.561c.031-.056.06-.112.089-.169.072-.135.144-.27.213-.4.038-.073.073-.146.11-.219.06-.119.119-.238.177-.357.038-.079.075-.158.113-.238q.081-.171.16-.342l.11-.245q.075-.169.147-.339c.036-.083.07-.165.1-.248.047-.114.093-.228.139-.342.032-.081.065-.163.1-.244.046-.118.09-.236.134-.355.028-.078.058-.155.085-.232l.027-.073c.04-.111.077-.223.115-.334l.06-.175q.1-.292.187-.584c.009-.028.016-.055.024-.083q.076-.252.147-.5c.019-.067.036-.135.055-.2.035-.129.069-.257.1-.387.02-.077.038-.154.057-.231q.044-.181.085-.361c.018-.08.036-.16.053-.24.026-.119.051-.238.074-.357.017-.08.032-.16.047-.24.023-.122.045-.245.066-.366.013-.076.027-.153.04-.229,0-.028.009-.054.014-.082.015-.091.027-.182.041-.273s.026-.174.039-.261C2218.75,3314.949,2218.765,3314.826,2218.78,3314.7Z" transform="translate(8651.805 4515.43)"/><g transform="translate(10807.192 7796.648)"><path class="am" d="M2129.83,3298.385l-1.691,28.173-53.648-22.953,1.691-28.173Z" transform="translate(-2074.491 -3275.432)"/></g><g transform="translate(10808.841 7769.839)"><path class="am" d="M2122.251,3208.2c22.5,13.8,26.336,34.772,10.129,49.762l-53.648-22.953Z" transform="translate(-2078.732 -3208.196)"/></g><g transform="translate(10743.615 7771.561)"><g class="ah"><g transform="translate(0 31.136)"><path class="an" d="M1979.723,3293.939l-1.127,18.782-63.551-3.34,1.127-18.782Z" transform="translate(-1915.045 -3290.599)"/></g><g class="ah" transform="translate(0 30.64)"><g class="ao"><g class="ah"><path class="ap" d="M1916.172,3289.852l-1.127,18.782q.01-.248.024-.5l1.128-18.782q-.015.248-.025.5" transform="translate(-1915.045 -3289.356)"/></g></g></g><g transform="translate(1.127)"><path class="aq" d="M1948.071,3212.513l33.352,34.476-63.551-3.34c.347-8.825,5.56-17.445,15.818-24.218A62.957,62.957,0,0,1,1948.071,3212.513Z" transform="translate(-1917.872 -3212.513)"/></g></g></g><g class="ah" transform="translate(10743.629 7810.202)"><g transform="translate(11.15 3.341)"><path class="ar" d="M1996.139,3317.8l-.677,11.269-52.418,20.125.677-11.269Z" transform="translate(-1943.044 -3317.801)"/></g><g class="ah"><g class="as"><g class="ah"><path class="at" d="M1926.907,3332.889l-.677,11.27c-7.7-7.157-11.449-15.4-11.132-23.466l.677-11.269c-.318,8.069,3.436,16.31,11.131,23.466" transform="translate(-1915.08 -3309.423)"/></g></g></g><g transform="translate(0.677)"><path class="au" d="M1916.8,3309.423l63.55,3.34-52.418,20.125C1920.232,3325.733,1916.478,3317.492,1916.8,3309.423Z" transform="translate(-1916.777 -3309.423)"/></g></g><g transform="translate(10754.77 7807.853)"><g transform="translate(40.915)"><path class="av" d="M2058.148,3303.53l-1.015,16.9-11.5,37.947,1.015-16.9Z" transform="translate(-2045.631 -3303.53)"/></g><path class="aw" d="M1984.17,3371.7l-.287-.045c-.323-.052-.646-.1-.968-.16l-.164-.029q-.4-.07-.8-.142c-.112-.02-.224-.041-.336-.062-.21-.039-.419-.077-.629-.118-.127-.023-.254-.049-.38-.073l-.584-.115-.395-.081-.571-.119-.394-.084-.576-.126-.382-.085-.552-.127-.432-.1c-.186-.043-.371-.089-.556-.134l-.419-.1-.572-.145-.4-.1-.616-.163-.349-.093c-.254-.068-.506-.139-.759-.21l-.2-.056q-.48-.136-.957-.277l-.26-.078c-.231-.069-.461-.137-.691-.208l-.358-.112c-.194-.06-.388-.12-.582-.182q-.484-.154-.965-.313l-.066-.021q-.513-.17-1.023-.347l-.329-.116c-.23-.081-.46-.161-.689-.244l-.392-.143q-.312-.114-.622-.229l-.411-.155q-.3-.114-.6-.23l-.414-.162-.594-.238c-.135-.054-.27-.109-.4-.164-.2-.083-.406-.168-.609-.253l-.378-.159c-.223-.1-.445-.192-.667-.289l-.312-.136c-.164-.072-.326-.146-.489-.219-.141-.064-.283-.126-.424-.191-.163-.074-.324-.15-.487-.226-.139-.064-.279-.128-.418-.194-.163-.076-.324-.155-.486-.233-.136-.066-.274-.131-.41-.2-.164-.08-.327-.162-.49-.243-.132-.066-.266-.131-.4-.2-.167-.084-.332-.17-.5-.256-.127-.065-.255-.13-.381-.2-.174-.091-.346-.183-.519-.275l-.352-.187c-.194-.1-.386-.211-.579-.318l-.282-.155q-.428-.24-.852-.484a57.41,57.41,0,0,1-10.429-7.6l-1.015,16.9a57.42,57.42,0,0,0,10.429,7.6q.424.245.852.484c.091.051.183.1.275.151.195.107.389.216.586.322.114.062.23.122.344.184.175.093.35.187.526.279.123.064.248.127.371.191.169.087.337.175.507.261l.391.195c.166.083.331.166.5.247.134.065.269.129.4.194.164.079.329.159.494.237l.414.193c.163.076.326.152.49.228l.423.191c.163.073.325.147.489.219l.052.023.261.112q.333.146.667.289l.379.159.607.253.4.164q.3.12.594.238l.413.161c.2.078.4.154.6.23l.411.155c.207.078.415.154.623.23l.39.142c.231.083.462.164.694.246l.325.114q.51.176,1.024.347l.055.018q.487.161.976.317l.061.02c.171.054.342.106.513.16l.366.114q.337.1.676.2l.275.083q.476.14.955.276l.22.061q.37.1.741.205l.358.1c.2.054.4.108.607.161l.4.1c.189.048.379.1.569.144l.42.1.554.134.434.1.4.093.153.034.382.085.576.126.394.084.572.119.394.081.583.115.382.074c.208.04.416.078.625.117l.34.063c.267.048.534.095.8.141l.164.029q.484.082.968.16l.286.044.575.09.2.031,1.015-16.9Q1984.558,3371.766,1984.17,3371.7Z" transform="translate(-1943.019 -3333.877)"/><g transform="translate(1.015 0)"><path class="ax" d="M1997.982,3303.53l-11.5,37.947a87.216,87.216,0,0,1-30.486-10.224,57.435,57.435,0,0,1-10.429-7.6Z" transform="translate(-1945.564 -3303.53)"/></g></g><g transform="translate(10795.69 7804.161)"><path class="ay" d="M2109.341,3373.777l.219-.186q.222-.19.439-.38c.064-.057.129-.113.193-.17q.306-.272.6-.545l0,0,1.24-20.66c-.2.184-.4.366-.6.547l-.193.169c-.145.127-.291.254-.439.381l-.219.186q-.229.193-.463.385l-.19.156c-.2.166-.412.331-.621.495l-.129.1q-.331.256-.67.511l-.024.018q-.333.248-.675.494l-.129.093q-.34.243-.688.483l-.137.094c-.241.166-.485.331-.733.495s-.469.307-.706.458l-.243.152c-.158.1-.315.2-.475.3-.1.06-.194.118-.29.176-.146.088-.291.177-.437.264-.1.062-.209.123-.314.184-.141.083-.281.165-.423.247l-.33.188c-.139.078-.277.157-.417.234l-.34.187c-.139.075-.277.151-.416.226-.116.063-.233.124-.35.185l-.416.218-.356.182-.42.212-.362.179-.421.205-.369.176-.425.2-.371.171-.43.195-.376.167-.434.189-.379.163-.439.185-.382.159-.445.18-.384.154-.451.176-.384.148-.46.172-.384.143-.469.169c-.127.045-.254.092-.382.136q-.24.085-.482.167l-.375.129-.5.167c-.121.04-.241.081-.362.12-.177.058-.356.114-.534.171l-.337.107q-.3.094-.61.187l-.268.082q-.44.132-.884.259l-.136.039-.755.211-.315.084-.581.156-.365.094-.538.137-.387.095-.52.126-.4.095-.51.117c-.138.032-.276.062-.414.092l-.5.111-.422.089-.5.1-.425.085-.5.1-.43.082-.454.084q-.47.086-.943.167l-.2.035q-.567.1-1.137.186l-.312.048q-.426.065-.854.127l-.37.053q-.449.063-.9.121l-.267.035q-.576.073-1.154.14l-.277.031q-.449.05-.9.1l-.375.038q-.439.043-.879.083l-.308.028q-.584.051-1.17.095l-.414.029-.593.041-.443.027-.575.034-.454.023-.565.027-.465.019-.555.021-.472.015-.551.015-.475.01-.549.01-.479.005-.547,0h-1.028l-.514,0-.444-.005-.538-.009-.441-.009-.543-.015-.436-.013-.553-.021-.426-.017-.57-.026-.409-.02-.6-.034-.376-.021-.7-.046-.273-.018q-.489-.035-.978-.074l-.125-.011q-.412-.033-.823-.07l-.325-.03-.623-.06-.374-.038-.578-.061-.386-.043-.57-.065-.384-.045-.583-.072-.366-.047-.631-.085-.313-.042q-.464-.065-.927-.135h-.012l-1.24,20.66q.47.07.94.136l.31.042.633.085.367.047.581.072.386.046.568.065.387.043.578.061.374.038.623.059.325.03c.274.025.549.048.823.071l.126.01h.012q.483.039.966.073l.27.018c.236.016.473.033.708.047l.372.021.606.034.409.02.57.026.427.017.552.02.436.013.543.015.441.009.538.009.444.005.3,0h1.241l.549,0,.478-.005.55-.01.474-.01.554-.016.469-.015c.186-.006.372-.014.558-.021l.463-.019.564-.027.455-.023.574-.034.443-.027q.3-.019.6-.042l.367-.025.043,0q.586-.043,1.171-.095l.307-.028q.441-.04.88-.083l.374-.038q.45-.047.9-.1l.278-.031q.579-.067,1.155-.14l.266-.035q.45-.059.9-.122l.368-.052q.43-.062.857-.128l.309-.047q.571-.089,1.138-.186l.2-.035q.472-.081.943-.167l.154-.027.3-.057.432-.082.5-.1.427-.086c.167-.034.334-.069.5-.1l.422-.089.5-.111.414-.092.51-.118.4-.094c.173-.041.345-.084.518-.126l.39-.1c.179-.044.357-.09.536-.136l.367-.095c.193-.05.384-.1.576-.154l.32-.086q.378-.1.752-.21l.138-.039q.443-.127.883-.259l.268-.082c.2-.062.408-.124.61-.187l.337-.107c.179-.057.357-.113.535-.171l.362-.12c.168-.055.335-.11.5-.167l.376-.129c.161-.055.321-.11.481-.167l.382-.136.469-.169.384-.143.46-.172.385-.148.451-.175.385-.154.444-.18.383-.159.438-.184.381-.164c.145-.063.289-.125.433-.189l.376-.167.43-.195.372-.171.425-.2.369-.176.421-.206.362-.179q.211-.1.42-.212l.356-.182.416-.218.35-.186c.139-.074.277-.149.416-.225l.341-.187.417-.234.331-.187c.142-.082.282-.165.423-.247.1-.062.21-.122.314-.184.147-.087.292-.176.438-.264l.29-.176c.159-.1.317-.2.475-.3l.242-.152q.356-.227.707-.458c.248-.164.492-.329.733-.495l.137-.094q.349-.24.688-.483l.129-.093q.341-.245.675-.494l.024-.018q.339-.254.669-.511l.13-.1c.185-.145.37-.291.551-.437l.069-.057.191-.157Q2109.111,3373.97,2109.341,3373.777Z" transform="translate(-2045.645 -3328.882)"/><g transform="translate(1.24)"><path class="au" d="M2113.906,3317.223a46.15,46.15,0,0,1-5.915,4.606c-15.3,10.1-37.994,13.569-59.236,10.388l11.5-37.946Z" transform="translate(-2048.755 -3294.271)"/></g></g></g></g></svg>