<svg id="Livello_1" data-name="Livello 1" xmlns="http://www.w3.org/2000/svg" xmlns:xlink="http://www.w3.org/1999/xlink" viewBox="0 0 402.73 185.21"><defs><style>.cls-1{fill:none;}.cls-2{fill:#a55056;}.cls-3{fill:#f7c5b7;}.cls-4{fill:#3c1a16;}.cls-5{fill:#602a25;}.cls-6{fill:#f0bdaf;}.cls-7{fill:#141213;}.cls-8{fill:#f6d9d2;}.cls-9{fill:#d8545a;}.cls-10{fill:#69282d;}.cls-11{fill:#813136;}.cls-12{fill:#171717;}.cls-13{fill:#ec5b62;}.cls-14{fill:#f6f6f6;}.cls-15{fill:#ededed;}.cls-16{fill:#a2a1a1;}.cls-17{fill:#b9dcf3;}.cls-18{fill:#5277b8;}.cls-19{fill:#bedef4;}.cls-20{fill:#5378b8;}.cls-21{fill:#9a9a9a;}.cls-22{fill:#d0d0cf;}.cls-23{fill:#b8b9b9;}.cls-24{fill:#f3f3f4;}.cls-25{fill:#fbfcfd;}.cls-26{fill:#f1c3a6;}.cls-27{fill:#488bc6;}.cls-28{fill:#fbceb1;}.cls-29{fill:#61ba64;}.cls-30{fill:#603f1b;}.cls-31{fill:#594741;}.cls-32{fill:#664b22;}.cls-33{fill:#d13a93;}.cls-34{fill:#faccc0;}.cls-35{fill:#31338a;}.cls-36{fill:#484d9d;}.cls-37{fill:#977a72;}.cls-38{fill:#d64496;}.cls-39{fill:#7a625b;}.cls-40{fill:#7bd2f5;}.cls-41{fill:#fff;}.cls-42{fill:#4067ad;}.cls-43{clip-path:url(#clip-path);}.cls-44{clip-path:url(#clip-path-2);}.cls-45{fill:#85b1dc;}.cls-46{opacity:0.3;}.cls-47{clip-path:url(#clip-path-4);}.cls-48{fill:#adccea;}.cls-49{fill:#3653a0;}.cls-50{fill:#506baf;}.cls-51{fill:#71a1d3;}.cls-52{fill:#5386c3;}.cls-53{fill:#9dc7e9;}</style><clipPath id="clip-path" transform="translate(-33.53 -22.72)"><path class="cls-1" d="M92.79,53.7c2.64-.46,4.47,2.3,5,4.71.28,1.29.29,2.8,1.29,3.66a7.47,7.47,0,0,0,1.47.8c2.91,1.5,3.1,4.31,3.16,7.13a2.76,2.76,0,0,0,.27,1.38c.27.45.78.72,1.09,1.16a2.86,2.86,0,0,1,.38,1c.74,3.2.35,6.14.32,9.34-.17,22.77-12.55,21.7-12.55,21.7a4,4,0,0,1-.49,0,10.41,10.41,0,0,1-7.49-4.32A20.33,20.33,0,0,1,81.77,92,45.15,45.15,0,0,1,81,85.47c-.14-2.37-.64-4.58.28-6.89a8.83,8.83,0,0,0,1.07-3.21c0-1.24-.76-2.38-.8-3.62a5.59,5.59,0,0,1,.49-2.17,34.59,34.59,0,0,1,2.26-5c.72-1.22,2.32-1.92,2.75-3.32a6.5,6.5,0,0,0,.12-1.76c.1-2.9,2.62-4.94,5.24-5.67Z"/></clipPath><clipPath id="clip-path-2" transform="translate(-33.53 -22.72)"><rect class="cls-1" x="320.15" y="22.72" width="116.1" height="141.9"/></clipPath><clipPath id="clip-path-4" transform="translate(-33.53 -22.72)"><rect class="cls-1" x="367.7" y="117.29" width="37.42" height="47.33"/></clipPath></defs><g id="Raggruppa_9330" data-name="Raggruppa 9330"><g id="Raggruppa_9329" data-name="Raggruppa 9329"><path id="Tracciato_60222" data-name="Tracciato 60222" class="cls-2" d="M239.39,92.31s-3.28-.35-2.17,4,3.49,9.76,2.84,10.52c-.51.59-7.51,6.12-11.26,8.64a4.7,4.7,0,0,1,2.38,2.12c4.23-2.41,11.92-6.8,12.35-7.83C244.07,108.45,242,93.94,239.39,92.31Z" transform="translate(-33.53 -22.72)"/><path id="Tracciato_60223" data-name="Tracciato 60223" class="cls-3" d="M228.8,115.46a8.24,8.24,0,0,1-2.19,1.23c-1.3.11-3.13,5.26-2.53,5.26s2.53-1.68,4.7-3c.44-.27,1.31-.76,2.4-1.39A4.7,4.7,0,0,0,228.8,115.46Z" transform="translate(-33.53 -22.72)"/><path id="Tracciato_60224" data-name="Tracciato 60224" class="cls-4" d="M243.72,158.18l-3.21,1s-1.83,3.55-2.61,4.8-2.09,3.69-1.64,4.18,4.45.2,5.28-.79,1.08-3.77,1.88-4,1.3,2.71,1.48,3.09.95,0,.95,0l-.9-3.46a21.5,21.5,0,0,0-.32-2.88A16.14,16.14,0,0,0,243.72,158.18Z" transform="translate(-33.53 -22.72)"/><path id="Tracciato_60225" data-name="Tracciato 60225" class="cls-5" d="M249.06,161.7h-4.37a23.29,23.29,0,0,1-2.83,3.93c-1.09,1-3,3-2.73,3.56s4.22,1.43,5.29.72,2.08-3.34,2.92-3.34.56,2.59.62,3,.92.23.92.23l.05-3.2a22.94,22.94,0,0,0,.49-2.85A14.18,14.18,0,0,0,249.06,161.7Z" transform="translate(-33.53 -22.72)"/><path id="Tracciato_60226" data-name="Tracciato 60226" class="cls-3" d="M243.69,132.72s.65,10.9,1,13.1.08,15.13.08,16.35-3.33,4.19-3.33,4.19,2.85.77,3.82-.2,3.5-3.17,3.74-4.48.44-5.43,1.28-10c.76-4.12-.22-5.26-.3-7.46-.12-3.33,1.14-9.35,1.06-11.55Z" transform="translate(-33.53 -22.72)"/><path id="Tracciato_60227" data-name="Tracciato 60227" class="cls-6" d="M243.44,130.61s-4.55,7.24-4.23,8.78,2.28,2.77,3.09,5.45,1.14,12.53,1.14,12.53l.41,1.55s-3.66,9.92-5.21,5.2l1.87-5c-1.3-4.31-7.24-17.16-7.89-18.55s1.79-10.49,3.1-12Z" transform="translate(-33.53 -22.72)"/><path id="Tracciato_60228" data-name="Tracciato 60228" class="cls-7" d="M243.92,85.77l1.29,6.52s-5.89,0-6.43-.68c-2.35-2.9.1-14.86.1-14.86s3.72-1.54,5.53-1S243.92,85.77,243.92,85.77Z" transform="translate(-33.53 -22.72)"/><path id="Tracciato_60229" data-name="Tracciato 60229" class="cls-8" d="M250.22,92.47l-.84-.45-2-.5V86.08s8.25-7.48,2.88-9.65-9.89-2.39-10.4,0-.18,10.41,1,11.39,1.73.76,1.73.76l.44,2.27-1.6.67-2.09,7.79,1.63,3.58a38.4,38.4,0,0,0,5.26-.87c.48-.32,2.42-6.29,2.42-6.29Z" transform="translate(-33.53 -22.72)"/><path id="Tracciato_60230" data-name="Tracciato 60230" class="cls-9" d="M239.76,109.28c2.86,1.66,6.68,3.22,10.07,1.87a4.54,4.54,0,0,1-.1-.74c0-1.17,2.83-12.69,3.53-15.56a.87.87,0,0,0-.42-1L249.38,92a.85.85,0,0,0-1.15.33c-1.23,2.2-5.89,4.19-5.89,4.19s-.88-5.12-.16-5.34a28.58,28.58,0,0,0-3.4.41s-2.82,7-2.5,9,3.51,7.15,3.54,8.24A3,3,0,0,1,239.76,109.28Z" transform="translate(-33.53 -22.72)"/><path id="Tracciato_60231" data-name="Tracciato 60231" class="cls-10" d="M250.45,113.56c-.26-.92-.49-1.78-.62-2.41-3.39,1.35-7.21-.21-10.07-1.87-.08.4-.23,1.08-.44,2C242.73,113.56,246.83,115,250.45,113.56Z" transform="translate(-33.53 -22.72)"/><path id="Tracciato_60232" data-name="Tracciato 60232" class="cls-11" d="M257.59,149.28c-.35-2.6-5.36-29.81-5.55-30.58-.14-.52-1-3-1.58-5.14-3.63,1.46-7.73,0-11.14-2.32-2,8.23-9,34.93-9.66,37.13-.76,2.57,15.24,5.08,16.57,4.2,1.06-.7,9.94-1.78,11-2.48A.82.82,0,0,0,257.59,149.28Z" transform="translate(-33.53 -22.72)"/><path id="Tracciato_60233" data-name="Tracciato 60233" class="cls-12" d="M246.86,81.17s3.07,3,2.12,3c0,0-8.2-7.32-9-7.39s-.22,3.59-.4,3.4c-.88-.92-1.6-5.16,1.32-7.27s12-2,11.88,5.36,2.27,9.74.12,12.88-1.79,1.09-4.82,2.09C242.86,95,246.86,81.17,246.86,81.17Z" transform="translate(-33.53 -22.72)"/><path id="Tracciato_60234" data-name="Tracciato 60234" class="cls-6" d="M245.72,124.38s-2.66,3.88-1.54,5.7,3.85-4.44,4.13-5.47c.1-.36.71-1.76,1.52-3.54a22.45,22.45,0,0,0-3-.17Z" transform="translate(-33.53 -22.72)"/><path id="Tracciato_60235" data-name="Tracciato 60235" class="cls-13" d="M254.27,95.3s-2.55-3.41-3.53-1.12l-.67,16.75-3.4,10.22a22.35,22.35,0,0,1,3,.17c1.51-3.34,3.7-8.07,4.54-10.13C254.57,110.2,255,96.29,254.27,95.3Z" transform="translate(-33.53 -22.72)"/><path id="Tracciato_60236" data-name="Tracciato 60236" class="cls-14" d="M247.3,102.12l-3.41-.58-.57-1.88,3.41.58Z" transform="translate(-33.53 -22.72)"/><path id="Tracciato_60237" data-name="Tracciato 60237" class="cls-15" d="M153.35,105.46,257.52,157.6l13.06-6.53L166.4,98.93Z" transform="translate(-33.53 -22.72)"/><path id="Tracciato_60238" data-name="Tracciato 60238" class="cls-16" d="M172.57,109.51V109l-6.2-3.11v.55Z" transform="translate(-33.53 -22.72)"/><path id="Tracciato_60239" data-name="Tracciato 60239" class="cls-17" d="M142.28,106.22l104.17,52.13,15.43-7.71L157.7,98.51Z" transform="translate(-33.53 -22.72)"/><g id="Raggruppa_7771" data-name="Raggruppa 7771"><path id="Tracciato_60242" data-name="Tracciato 60242" class="cls-18" d="M142.28,109.79l104.18,52.15v-3.58L142.28,106.21Z" transform="translate(-33.53 -22.72)"/><path id="Tracciato_60243" data-name="Tracciato 60243" class="cls-19" d="M306,128.21l-59.52,30.14L231,150.64l59.53-30.14Z" transform="translate(-33.53 -22.72)"/><path id="Tracciato_60244" data-name="Tracciato 60244" class="cls-20" d="M306,131.75,246.43,161.9v-3.54L306,128.21Z" transform="translate(-33.53 -22.72)"/></g><path id="Tracciato_60245" data-name="Tracciato 60245" class="cls-21" d="M269.16,135.26l7.73,3.87a3.7,3.7,0,0,0,2.92,0l8.95-4.48c.8-.4.8-1.05,0-1.46L281,129.33a3.6,3.6,0,0,0-2.91,0l-9.26,4c-.46.22-.35,1-.29,1.33A1,1,0,0,0,269.16,135.26Z" transform="translate(-33.53 -22.72)"/><path id="Tracciato_60246" data-name="Tracciato 60246" class="cls-22" d="M269.16,134.51l7.73,3.87a3.7,3.7,0,0,0,2.92,0l8.95-4.47c.8-.41.8-1.06,0-1.46L281,128.58a3.7,3.7,0,0,0-2.92,0l-8.95,4.48C268.35,133.46,268.35,134.11,269.16,134.51Z" transform="translate(-33.53 -22.72)"/><path id="Tracciato_60247" data-name="Tracciato 60247" class="cls-23" d="M280.23,134.56l2.3,1.15,1.77-.88L282,133.67Z" transform="translate(-33.53 -22.72)"/><path id="Tracciato_60248" data-name="Tracciato 60248" class="cls-23" d="M277.47,133.2l2.3,1.15,1.77-.88-2.31-1.16Z" transform="translate(-33.53 -22.72)"/><path id="Tracciato_60249" data-name="Tracciato 60249" class="cls-23" d="M274.72,131.82,277,133l1.77-.88-2.31-1.15Z" transform="translate(-33.53 -22.72)"/><path id="Tracciato_60250" data-name="Tracciato 60250" class="cls-23" d="M278,135.66l2.3,1.15,1.77-.88-2.31-1.16Z" transform="translate(-33.53 -22.72)"/><path id="Tracciato_60251" data-name="Tracciato 60251" class="cls-23" d="M275.29,134.29l2.3,1.15,1.77-.88-2.31-1.16Z" transform="translate(-33.53 -22.72)"/><path id="Tracciato_60252" data-name="Tracciato 60252" class="cls-23" d="M272.54,132.91l2.31,1.15,1.76-.88L274.3,132Z" transform="translate(-33.53 -22.72)"/><path id="Tracciato_60253" data-name="Tracciato 60253" class="cls-23" d="M275.84,136.75l2.31,1.15,1.76-.88-2.3-1.15Z" transform="translate(-33.53 -22.72)"/><path id="Tracciato_60254" data-name="Tracciato 60254" class="cls-23" d="M273.1,135.38l2.31,1.15,1.76-.88-2.31-1.15Z" transform="translate(-33.53 -22.72)"/><path id="Tracciato_60255" data-name="Tracciato 60255" class="cls-23" d="M270.35,134l2.31,1.16,1.76-.89-2.3-1.15Z" transform="translate(-33.53 -22.72)"/><path id="Tracciato_60256" data-name="Tracciato 60256" class="cls-24" d="M280.23,134.44l2.3,1.15,1.77-.88L282,133.56Z" transform="translate(-33.53 -22.72)"/><path id="Tracciato_60257" data-name="Tracciato 60257" class="cls-24" d="M277.47,133.08l2.3,1.15,1.77-.88-2.31-1.15Z" transform="translate(-33.53 -22.72)"/><path id="Tracciato_60258" data-name="Tracciato 60258" class="cls-24" d="M274.72,131.7l2.3,1.16,1.77-.89-2.31-1.15Z" transform="translate(-33.53 -22.72)"/><path id="Tracciato_60259" data-name="Tracciato 60259" class="cls-24" d="M278,135.54l2.3,1.15,1.77-.88-2.31-1.15Z" transform="translate(-33.53 -22.72)"/><path id="Tracciato_60260" data-name="Tracciato 60260" class="cls-24" d="M275.29,134.17l2.3,1.15,1.77-.88-2.31-1.15Z" transform="translate(-33.53 -22.72)"/><path id="Tracciato_60261" data-name="Tracciato 60261" class="cls-24" d="M272.54,132.79l2.31,1.16,1.76-.88-2.31-1.16Z" transform="translate(-33.53 -22.72)"/><path id="Tracciato_60262" data-name="Tracciato 60262" class="cls-24" d="M275.84,136.63l2.31,1.15,1.76-.88-2.3-1.15Z" transform="translate(-33.53 -22.72)"/><path id="Tracciato_60263" data-name="Tracciato 60263" class="cls-24" d="M273.1,135.26l2.31,1.15,1.76-.88-2.31-1.15Z" transform="translate(-33.53 -22.72)"/><path id="Tracciato_60264" data-name="Tracciato 60264" class="cls-24" d="M270.35,133.89l2.31,1.15,1.76-.88-2.3-1.16Z" transform="translate(-33.53 -22.72)"/><path id="Tracciato_60265" data-name="Tracciato 60265" class="cls-23" d="M276.11,129.73l9.95,5a2.18,2.18,0,0,0,1.7,0l1.6-.81c.47-.23.57-1.12.1-1.35l-10-4.47a2.18,2.18,0,0,0-1.7,0l-1.77.35C275.48,128.88,275.47,129.38,276.11,129.73Z" transform="translate(-33.53 -22.72)"/><path id="Tracciato_60266" data-name="Tracciato 60266" class="cls-25" d="M276.12,129.16l9.94,5a2.07,2.07,0,0,0,1.69,0l1.61-.8c.47-.23.47-.61,0-.85l-9.94-5a2.18,2.18,0,0,0-1.7,0l-1.6.8C275.65,128.55,275.65,128.93,276.12,129.16Z" transform="translate(-33.53 -22.72)"/><path id="Tracciato_60267" data-name="Tracciato 60267" class="cls-26" d="M219.19,162.42,216.88,183s-3.43,13.62-3.3,16.05c0,.6,4.8,3.07,4.62,3.3-3.7,4.68-7.41-2.41-7.41-2.41V198.2s-.74-9.34-.82-10.94.82-4,.91-5.47-.17-16.49-.17-16.49Z" transform="translate(-33.53 -22.72)"/><path id="Tracciato_60268" data-name="Tracciato 60268" class="cls-27" d="M212.19,205s-.88-3.23-1-3.56-1.12-2.43-.33-3.2c1.33-1.29,3,2.59,5,3.52s2,.1,2,.1a19.15,19.15,0,0,1,2.78,2.47c.17.47-2,1.19-3.78,1.08a7.19,7.19,0,0,1-2.77-.88l-1.33-2.76S212.36,205.26,212.19,205Z" transform="translate(-33.53 -22.72)"/><path id="Tracciato_60269" data-name="Tracciato 60269" class="cls-28" d="M218.88,124.2s-1.9,4.33-3.49,3.88S213,125,213,124.2v-2.73s-2.52.2-3.14-.67c-.79-1.13-1-7.59-.5-9.29s3.87-2.43,3.87-2.43l5.24,1.52Z" transform="translate(-33.53 -22.72)"/><path id="Tracciato_60270" data-name="Tracciato 60270" class="cls-28" d="M225.46,161.66s3.63,17,2.64,19-4,5.55-6.72,10.52-5,6.92-4.54,8.78,1.57,5.55,1.57,5.55l-4.95-4.07-.29-5.39a12.41,12.41,0,0,0,2.68-4c.74-2.13,1.69-7.79,3.3-9.53s2.81-3.35,2.81-3.35l-6.8-16.24Z" transform="translate(-33.53 -22.72)"/><path id="Tracciato_60271" data-name="Tracciato 60271" class="cls-29" d="M210,202.71s1.14-3.17,1.22-3.52.44-2.65,1.61-2.85c2-.34,1.18,3.82,2.43,5.7a5.66,5.66,0,0,0,2.84,2.33,15.5,15.5,0,0,1,.83,3.29c-.12.5-2.43.34-4-.74a16.43,16.43,0,0,1-2.89-3.51l.46-3S210,203,210,202.71Z" transform="translate(-33.53 -22.72)"/><path id="Tracciato_60272" data-name="Tracciato 60272" class="cls-26" d="M211.29,124.59a1.4,1.4,0,0,0-1.75,0c-.81.55-7.23,10.08-9.55,13.55a1.9,1.9,0,0,0,.19,2.35L210,151.44l4.67,1V147.6L210,147l-4.17-6.86a2,2,0,0,1,0-2.54l5-6.39S215.24,126.19,211.29,124.59Z" transform="translate(-33.53 -22.72)"/><path id="Tracciato_60273" data-name="Tracciato 60273" class="cls-20" d="M222.38,125.19s2.48,5.62,2.79,8.21-4.23,8.58-3.47,9.95,7.67,22.41,7.67,22.41a18.43,18.43,0,0,1-5.85,2.52c-6.5,1.53-16.12,2.25-16.37-.83-.23-2.87-1.16-10.71.52-15,2-5.08,3.14-6.79,2.93-8.49-.94-7.89-3.42-18.16-1.06-19.39S221.24,124.43,222.38,125.19Z" transform="translate(-33.53 -22.72)"/><path id="Tracciato_60274" data-name="Tracciato 60274" class="cls-28" d="M227.37,145.31a19.11,19.11,0,0,1-3.08-9.52c-.19-4.62-.77-10.32-2.49-10.95a2.69,2.69,0,0,0-3.85,2.93c.23,1.89,2.45,14,2.76,15.68a.9.9,0,0,0,.16.36l8.84,11.58s1.72,1.9,1.26,3.79a16,16,0,0,0,0,3.91c.13.85,1.28-.5,1.62-1.29l1.47-3.45a.85.85,0,0,0,0-.7,17.13,17.13,0,0,0-2.19-3.56C231,153.07,229.62,148.81,227.37,145.31Z" transform="translate(-33.53 -22.72)"/><path id="Tracciato_60275" data-name="Tracciato 60275" class="cls-30" d="M222.33,107.41a28,28,0,0,1,1.84,13.07c-.62,7.85-11.83,4.35-11.83,4.35l-1.12-7.72a3.43,3.43,0,0,0,.34-2.9c-.62-1.37-1.45.21-1.45.21s-1.7-5.51.69-7.3C214.93,104,219.75,104.75,222.33,107.41Z" transform="translate(-33.53 -22.72)"/><path id="Tracciato_60276" data-name="Tracciato 60276" class="cls-31" d="M194.69,187.29l-.14,2.56s.42,3.57,6,1.14c.31-.13.18-.5.18-.5l1,.28s11.11-3.93,8.43-5.26-7.66-1-7.66-1Z" transform="translate(-33.53 -22.72)"/><path id="Tracciato_60277" data-name="Tracciato 60277" class="cls-32" d="M194.71,186.9l-.13,2.56s.41,3.57,6,1.14c.31-.14.18-.51.18-.51l1,.28s11.11-3.93,8.43-5.25-7.66-1-7.66-1Z" transform="translate(-33.53 -22.72)"/><path id="Tracciato_60278" data-name="Tracciato 60278" class="cls-33" d="M182,109.48s-7.47,15-7.79,18.45S180,141.66,180,141.66,192.3,108.89,182,109.48Z" transform="translate(-33.53 -22.72)"/><path id="Tracciato_60279" data-name="Tracciato 60279" class="cls-34" d="M186.06,109.8s.1-2.38.2-4.66S187.81,95,192.41,94.6s5.18,2.53,5.18,2.94a46.51,46.51,0,0,1-.78,6.41c-.62,2.31-.11,6.28-4.71,5-.43-.13-.28.88-.28.88l1.16,4.91Z" transform="translate(-33.53 -22.72)"/><path id="Tracciato_60280" data-name="Tracciato 60280" class="cls-31" d="M180.38,183.36v2.57s.61,3.54,6.07.81c.31-.15.16-.51.16-.51l1,.23s10.88-4.52,8.14-5.7-7.7-.6-7.7-.6Z" transform="translate(-33.53 -22.72)"/><path id="Tracciato_60281" data-name="Tracciato 60281" class="cls-32" d="M180.38,183v2.56s.61,3.55,6.07.82c.31-.15.16-.51.16-.51l1,.23s10.88-4.52,8.14-5.7-7.7-.6-7.7-.6Z" transform="translate(-33.53 -22.72)"/><path id="Tracciato_60282" data-name="Tracciato 60282" class="cls-35" d="M180.43,144l.36,20v0L179.55,183a.22.22,0,0,0,.08.2,5.6,5.6,0,0,0,6.69.33c3.21-2.1,3.53-3,3.53-3.31l-.73-.86,1-14.8v0l-.76-18.79Z" transform="translate(-33.53 -22.72)"/><path id="Tracciato_60283" data-name="Tracciato 60283" class="cls-36" d="M183.07,145.64s6.51,18.49,7.44,21.38,3.62,20.58,3.62,20.58,4.94,3.71,10.8-3l-1.17-1.76-3.27-17-3.58-19.75Z" transform="translate(-33.53 -22.72)"/><path id="Tracciato_60284" data-name="Tracciato 60284" class="cls-37" d="M194.93,92.13s-4.06-2.33-7.5.25-3.11,3.16-3.3,4.47a3.13,3.13,0,0,1-.59,1.52l.72.36s0,2,.08,3.35a19.33,19.33,0,0,1,0,2.15l.55-.88.62,4,.48-1.09.19,1.09,4.36-.46,2.24-3s2.61-4.3,2.66-2.62.5,1.52.5,1.52,2.07-3.92,2.49-4.85a5.16,5.16,0,0,0,.57-2.7C198.83,94.66,198.77,93.9,194.93,92.13Z" transform="translate(-33.53 -22.72)"/><path id="Tracciato_60285" data-name="Tracciato 60285" class="cls-38" d="M179.9,126.1c.18,7.13-.36,18.67-.36,18.67s5.68,5.07,10,5.43,9.48-2.47,9.48-2.47l-.24-15.4s2.23-14.62-4.29-19c-2.91-2-5.64-2.64-7.49-3.56-2.31-1.15-3.52-2.16-4.9-.49C179.66,112.27,179.9,126.1,179.9,126.1Z" transform="translate(-33.53 -22.72)"/><path id="Tracciato_60286" data-name="Tracciato 60286" class="cls-39" d="M182.2,110.22" transform="translate(-33.53 -22.72)"/><path id="Tracciato_60287" data-name="Tracciato 60287" class="cls-34" d="M196.84,147.9l1.55,2.49a16.74,16.74,0,0,0,1.08,2c.45.62.67,5.26,1.71,5.26.86,0,1.68-7.7,1.68-7.7L201,145.27Z" transform="translate(-33.53 -22.72)"/><path id="Tracciato_60288" data-name="Tracciato 60288" class="cls-33" d="M195.38,115.47c-2-.41-3.08.2-3.81,2.75s.29,15.34.29,15.34l5.35,16.84a3.76,3.76,0,0,0,3.28.35,10.1,10.1,0,0,0,2.73-2l-4.31-15.16-.31-11.88S198.62,116.12,195.38,115.47Z" transform="translate(-33.53 -22.72)"/></g><g id="Raggruppa_9327" data-name="Raggruppa 9327"><g id="Raggruppa_7293" data-name="Raggruppa 7293"><g id="Raggruppa_3743" data-name="Raggruppa 3743"><g id="Raggruppa_2678" data-name="Raggruppa 2678"><path id="Tracciato_6851" data-name="Tracciato 6851" class="cls-40" d="M75.36,97.71c-2.92-2.75-6.28-5.8-6.69-14.81-.33-7-5.67-14.12-9.92-14.19h0a2.8,2.8,0,0,0-1.07.21,12.11,12.11,0,0,0-7.78,6.59h0a18.6,18.6,0,0,0-2.29,5.94c-2.3,10.94-12.54,13.07-13.86,23.86s3.81,14.51,3.12,19.65-2.33,11.46,1.84,18.35S50.19,155.09,51.24,168l2.45-.39c3-14.33,14.12-15.84,19-26.68,2.44-5.49-1-13.6,4.13-20.05C82.23,114,79.48,101.59,75.36,97.71Z" transform="translate(-33.53 -22.72)"/></g><g id="Raggruppa_2679" data-name="Raggruppa 2679"><path id="Tracciato_6852" data-name="Tracciato 6852" class="cls-41" d="M52.31,168.05h0a.21.21,0,0,1-.2-.19c0-.63-.87-63.15,5.49-89.08a.2.2,0,1,1,.38.09c-6.35,25.88-5.48,88.35-5.47,89A.19.19,0,0,1,52.31,168.05Z" transform="translate(-33.53 -22.72)"/></g><g id="Raggruppa_2680" data-name="Raggruppa 2680"><path id="Tracciato_6853" data-name="Tracciato 6853" class="cls-41" d="M54.52,100.76a.2.2,0,0,1-.2-.09l-6-9.25a.19.19,0,0,1,.05-.27.21.21,0,0,1,.28.06l5.86,9.1,13.56-6.62a.19.19,0,0,1,.26.08.2.2,0,0,1-.08.27h0l-13.72,6.7Z" transform="translate(-33.53 -22.72)"/></g><g id="Raggruppa_2681" data-name="Raggruppa 2681"><path id="Tracciato_6854" data-name="Tracciato 6854" class="cls-41" d="M53.06,122.31a.2.2,0,0,1-.18-.07L41.83,109.68a.19.19,0,0,1,0-.28.19.19,0,0,1,.26,0l11,12.45,18.16-8.46a.19.19,0,0,1,.26.09h0a.2.2,0,0,1-.09.27l-18.3,8.52Z" transform="translate(-33.53 -22.72)"/></g><g id="Raggruppa_2682" data-name="Raggruppa 2682"><path id="Tracciato_6855" data-name="Tracciato 6855" class="cls-41" d="M52.38,145.1a.2.2,0,0,1-.18-.06l-9.59-10.17a.19.19,0,0,1,0-.28.19.19,0,0,1,.27,0l9.49,10.06,16.16-8.91a.2.2,0,0,1,.26.08.19.19,0,0,1-.07.27l-16.29,9Z" transform="translate(-33.53 -22.72)"/></g></g><path id="Tracciato_24326" data-name="Tracciato 24326" class="cls-41" d="M55.35,189.72H50.44l1.61-60.18.73-1.5Z" transform="translate(-33.53 -22.72)"/></g><g id="Raggruppa_3741" data-name="Raggruppa 3741"><g id="Raggruppa_3740" data-name="Raggruppa 3740"><g id="Raggruppa_3739" data-name="Raggruppa 3739"><path id="Tracciato_23095" data-name="Tracciato 23095" class="cls-42" d="M92.79,53.7c2.64-.46,4.47,2.3,5,4.71.28,1.29.29,2.8,1.29,3.66a7.47,7.47,0,0,0,1.47.8c2.91,1.5,3.1,4.31,3.16,7.13a2.76,2.76,0,0,0,.27,1.38c.27.45.78.72,1.09,1.16a2.86,2.86,0,0,1,.38,1c.74,3.2.35,6.14.32,9.34-.17,22.77-12.55,21.7-12.55,21.7a4,4,0,0,1-.49,0,10.41,10.41,0,0,1-7.49-4.32A20.33,20.33,0,0,1,81.77,92,45.15,45.15,0,0,1,81,85.47c-.14-2.37-.64-4.58.28-6.89a8.83,8.83,0,0,0,1.07-3.21c0-1.24-.76-2.38-.8-3.62a5.59,5.59,0,0,1,.49-2.17,34.59,34.59,0,0,1,2.26-5c.72-1.22,2.32-1.92,2.75-3.32a6.5,6.5,0,0,0,.12-1.76c.1-2.9,2.62-4.94,5.24-5.67Z" transform="translate(-33.53 -22.72)"/><g class="cls-43"><g id="Raggruppa_3738" data-name="Raggruppa 3738"><g id="Raggruppa_3702" data-name="Raggruppa 3702"><g id="Raggruppa_3701" data-name="Raggruppa 3701"><path id="Tracciato_23096" data-name="Tracciato 23096" class="cls-41" d="M93.19,104.87a.18.18,0,0,0,.18-.17h0l.43-56.14a.17.17,0,0,0-.19-.15.15.15,0,0,0-.15.15L93,104.7A.17.17,0,0,0,93.19,104.87Z" transform="translate(-33.53 -22.72)"/></g><path id="Tracciato_23097" data-name="Tracciato 23097" class="cls-41" d="M93.46,62.21a19.94,19.94,0,0,1-7.16-5.33l.15-.36a19.4,19.4,0,0,0,7.14,5.37Z" transform="translate(-33.53 -22.72)"/><path id="Tracciato_23098" data-name="Tracciato 23098" class="cls-41" d="M93.54,51.72a22,22,0,0,1-3.82-2.2c.06-.1.11-.2.16-.3a22.29,22.29,0,0,0,3.79,2.18Z" transform="translate(-33.53 -22.72)"/><path id="Tracciato_23099" data-name="Tracciato 23099" class="cls-41" d="M93.41,67.73c-.06,0-5.82-2.45-8.58-6.89,0-.14.09-.28.14-.42,2.64,4.49,8.51,7,8.58,7Z" transform="translate(-33.53 -22.72)"/><path id="Tracciato_23100" data-name="Tracciato 23100" class="cls-41" d="M93.23,91.54c-.1,0-8.44-3.56-12.24-10l0-.66c3.57,6.64,12.25,10.29,12.34,10.33Z" transform="translate(-33.53 -22.72)"/><path id="Tracciato_23101" data-name="Tracciato 23101" class="cls-41" d="M93.3,100l-.13.32c-.1,0-7.46-3.14-11.5-8.84,0-.27-.1-.55-.14-.83C85.38,96.69,93.2,100,93.3,100Z" transform="translate(-33.53 -22.72)"/><path id="Tracciato_23102" data-name="Tracciato 23102" class="cls-41" d="M93.4,77c-.09,0-7-3-10.8-8.32,0-.15.07-.3.11-.45,3.67,5.44,10.74,8.42,10.82,8.45Z" transform="translate(-33.53 -22.72)"/><path id="Tracciato_23103" data-name="Tracciato 23103" class="cls-41" d="M99.61,54a21.15,21.15,0,0,1-6,3.89l-.12-.32a20.91,20.91,0,0,0,6-3.91C99.52,53.81,99.56,53.92,99.61,54Z" transform="translate(-33.53 -22.72)"/><path id="Tracciato_23104" data-name="Tracciato 23104" class="cls-41" d="M93.54,64.69l-.12-.32a21.43,21.43,0,0,0,8-5.85c0,.13.09.26.13.39A21.94,21.94,0,0,1,93.54,64.69Z" transform="translate(-33.53 -22.72)"/><path id="Tracciato_23105" data-name="Tracciato 23105" class="cls-41" d="M93.38,85.74l-.13-.32c.1,0,8.32-3.35,12.17-9.56,0,.18,0,.37,0,.55C101.47,82.48,93.48,85.7,93.38,85.74Z" transform="translate(-33.53 -22.72)"/><path id="Tracciato_23106" data-name="Tracciato 23106" class="cls-41" d="M93.16,97.26c.1,0,8.64-3.48,12.38-9.92,0,.26-.05.52-.07.78-4,6.16-12.08,9.42-12.18,9.46Z" transform="translate(-33.53 -22.72)"/><path id="Tracciato_23107" data-name="Tracciato 23107" class="cls-41" d="M103.69,66.05c0,.14.07.28.11.42-3.94,4.86-10.3,7.42-10.38,7.45l-.13-.32C93.37,73.57,99.84,71,103.69,66.05Z" transform="translate(-33.53 -22.72)"/></g></g></g></g></g><path id="Tracciato_24325" data-name="Tracciato 24325" class="cls-41" d="M95.07,128h-3l1-36.5.44-.91Z" transform="translate(-33.53 -22.72)"/></g></g><g id="Raggruppa_8596" data-name="Raggruppa 8596"><g class="cls-44"><g id="Raggruppa_8086" data-name="Raggruppa 8086"><g id="Raggruppa_8085" data-name="Raggruppa 8085"><g class="cls-44"><g id="Raggruppa_8084" data-name="Raggruppa 8084"><path id="Tracciato_61599" data-name="Tracciato 61599" class="cls-45" d="M404.66,130.7c-.07.21-6.39,22.41-6.46,22.55-1.13,4.71-1.76,6.68-5.41,8.79-8.81,5.11-23.92,2.21-25.72-5-.07-.21-7.59-26.63-7.66-26.84-1.33-4.15.84-8.65,6.47-11.88,15.38-8.84,43.17-1.8,38.78,12.37" transform="translate(-33.53 -22.72)"/><g id="Raggruppa_8083" data-name="Raggruppa 8083" class="cls-46"><g id="Raggruppa_8082" data-name="Raggruppa 8082"><g class="cls-47"><g id="Raggruppa_8081" data-name="Raggruppa 8081"><path id="Tracciato_61600" data-name="Tracciato 61600" class="cls-45" d="M404.66,130.7c-.07.21-6.39,22.41-6.47,22.56-1.11,4.7-1.75,6.67-5.4,8.78-8.14,4.73-21.68,2.6-25.08-3.44,5.54,2,13.2,1.89,18.61-1.27,3.66-2.11,4.29-4.07,5.42-8.78.07-.15,6.39-22.34,6.46-22.56a9,9,0,0,0-1.68-8.7c6.18,2.79,10,7.48,8.14,13.41" transform="translate(-33.53 -22.72)"/></g></g></g></g><path id="Tracciato_61601" data-name="Tracciato 61601" class="cls-48" d="M365.85,118.31c-9,5.22-9.09,13.68-.11,18.9s23.58,5.21,32.62,0,9.08-13.68.1-18.89-23.58-5.22-32.61,0" transform="translate(-33.53 -22.72)"/><path id="Tracciato_61602" data-name="Tracciato 61602" class="cls-49" d="M402.81,128.24a5.62,5.62,0,0,1-.32,1.22c-3,8.51-23.22,12.11-35.1,5.72-3-1.61-4.88-3.6-5.65-5.65-1.28-3.5.61-7.29,5.72-10,13.64-7.25,36.92-1.54,35.35,8.7" transform="translate(-33.53 -22.72)"/><path id="Tracciato_61603" data-name="Tracciato 61603" class="cls-50" d="M402.49,129.47c-3,8.5-23.22,12.1-35.1,5.71-3-1.6-4.88-3.6-5.65-5.65.74-2.09,2.67-4.11,5.72-5.75,12-6.39,32-2.76,35,5.69" transform="translate(-33.53 -22.72)"/><path id="Tracciato_61604" data-name="Tracciato 61604" class="cls-51" d="M382.9,132.13c-1.89-2-12.65-17.33-19.23-28.6S351,87.21,351,87.21l-1.14,1s12.15,16.83,14.68,21.51,14.3,20.88,14.68,21.77,3.66.63,3.66.63" transform="translate(-33.53 -22.72)"/><path id="Tracciato_61605" data-name="Tracciato 61605" class="cls-52" d="M361.4,84.32c1.92-2.38,8.31,3.25,10.72,4.82-1-6.2-7.13-11.09-7.94-11.78-10.5-9-18.6.88-18.6.88a11,11,0,0,0-4.81-5.57c-5.47-2.92-11.58.84-12.52,1.42a13,13,0,0,0-1.37,1c3.87-.24,9.59-.26,9.34,1.67s-8.21,2.47-12.61,1.89A22.74,22.74,0,0,0,320.15,90a21.84,21.84,0,0,0,.46,4.48,15.41,15.41,0,0,0,3.33-1.32c7.85-3.92,14.05-7.08,7.72,0-4.32,4.84-6.4,8.21-8.29,8.85a23.48,23.48,0,0,0,3.36,4.69c1.65,1.77,4.63,4.32,5.57,8.73a13.6,13.6,0,0,1,.25,3.54c9.36-7,10.43-7.71,12.4-8.73,3.36-1.72,3.66-1.28,8.51-3.07a21.91,21.91,0,0,1-.29-9.07c1-4.61,6.59,2,6.83,6.4,4.06-1.81,5.78-3,7.34-4.5,1.76-1.7,3.93-3.8,4.66-7a10,10,0,0,0,.22-1.44c-3.86-.9-12.62-5-10.82-7.21m-16.57,22.14c-1.65-.89-.3-6.79.38-7.85.88-1.39,1.26,8.73-.38,7.85" transform="translate(-33.53 -22.72)"/><path id="Tracciato_61606" data-name="Tracciato 61606" class="cls-53" d="M372.4,38.11A31.81,31.81,0,0,0,364,30.33l-.13,2a40.69,40.69,0,0,1,9.86,12.49c6.92,13.76.6,22.11,1.78,49.82.62,14.59,3.22,32.27,3.22,32.27a2.47,2.47,0,0,0,2.1-.2c1.5-1.17.15-5.06-.66-8-1.27-4.69-1.19-9.64-1.84-14.46-.43-3.19-1.07-6.57-.79-20.5.28-13.3,5.69-31.2-5.09-45.59" transform="translate(-33.53 -22.72)"/><path id="Tracciato_61607" data-name="Tracciato 61607" class="cls-51" d="M384,128.67c2.08-22.71,5.07-39.42,7.7-44.48s6.66-6.42,11.69-5.14c-9.86,1.79-12.14,8.86-16.83,49.34Z" transform="translate(-33.53 -22.72)"/><path id="Tracciato_61608" data-name="Tracciato 61608" class="cls-53" d="M384.77,125.39c-5.8-28.63-2.41-49,1.93-62.46,3.37-10.48,9.53-23.72,9.07-23.93s-5.23,9.52-7.23,13.94C383.43,64.21,376,87,381.14,125c0,0,1.28,9.19,3.63.42" transform="translate(-33.53 -22.72)"/><path id="Tracciato_61609" data-name="Tracciato 61609" class="cls-51" d="M389.69,128.84c-.72,5.12-13.4,5.14-14.11,0,.71-5.12,13.4-5.14,14.11,0" transform="translate(-33.53 -22.72)"/><path id="Tracciato_61610" data-name="Tracciato 61610" class="cls-52" d="M434.26,89.74c-2.56-3.11,1.28-.19-8.41-3.84S412.14,83.16,414,80.6s9.69.73,9.69.73l10.6,5.12s-2-6.4-9.32-11.52-2.74-3.47-14.08-4.38-9.32-2-12.06,2.55-1.46,6.77-4.75,5.49c0,0-2-16.82-13.34-14.26s-9.32,4.21-7.86,9.87a11.39,11.39,0,0,0,1.64,4c.72-.9,1.59-3.1,6.77-1.47,6.39,2,4.38,1.83-1.1,3.47-9.09,2.73,1.1,12.39,1.1,13.16,0,.55,3.84-7.68,7.67-7.68s5.31.92.55,5.49-9.68,2.37-3.1,12.06c14.94,22,1.95-.11,6.57-7.31,3.29-5.12,5.49-9.87,4.94-3.29-1.63,19.6-2.29,20.94,10.82,25.15,1.69.54,3.79,1,4.85,2.88,1.18,2.06.27,4.25,1.5,5.18.48.36,1.35.29,3.12-.31,6.39-2.19,7.12-7.31,10.78-11.52s-5.12-7.31-6.76-11.51-4.39-2.74-6.76-7.86-2.93-9,3.28-5.48,11.34,4.75,13.16,8.22.92,5.3,2.93,8,2-12.61-.55-15.71m-18.64,15.53c-2.38-.91-5.67-9-5.67-9,3.66-.55,8,9.87,5.67,9" transform="translate(-33.53 -22.72)"/><path id="Tracciato_61611" data-name="Tracciato 61611" class="cls-51" d="M398.48,32.31c3.73-2.66,8.5-1.09,11-.27.59.2,10.78,3.7,11.43,10.25.41,4.08-3.16,6.38-2.69,12.81.05.69.22,2.33-.15,2.38s-1.49-8.34-11.44-8.95c-12.75-.77-13.52,7-20.86-1.15-.7-.78-2.2-2.82-1.91-4.66.44-2.75,4.93-5.12,11.18-5a9.51,9.51,0,0,1,3.48-5.41" transform="translate(-33.53 -22.72)"/><path id="Tracciato_61612" data-name="Tracciato 61612" class="cls-53" d="M363.69,31c.89-.76,5.2-6.26,10.52-1.45S371.63,46.15,369,48.17s.13-10.12-2.65-10.24,1.77,9-1.77,14.8a20.6,20.6,0,0,1-9,8s6.46-10.5,4.31-13.92-2.16-6.07-3.42-1.39-1.52,11.89-5.82,14.55-5.7,2-5.7,2c6.46-5.38,6.74-10.9,5.95-11.39-.52-.32-1.73,1-2.78,2.15-5.61,6.26-6.09,8.59-9.25,10.59-2.52,1.6-6.06,2.56-7.08,1.38s.56-4,1.16-5.06c2-3.65,4.31-4.62,9.2-9.59,2-2,3.68-3.75,3.35-4.21s-4.28.23-6.75,2.84c-4.42,4.68-8.6,13.67-10.37,11.39a12.18,12.18,0,0,1-1-12.65,17.45,17.45,0,0,1,15-9.11c6.33,0,13.42-1.78,9-2.54s-12.28,1-16.58,3-4.3-2.28-1.14-5.06,7.34-1,15.06-2.15,11.26-3,2.78-2.91-12.65,1.39-11.38-.38c2.14-3,18.75-9.12,22.9-2.91.62.92,1.27,2.59.66,5.59" transform="translate(-33.53 -22.72)"/></g></g></g></g></g></g></g></svg>