<?xml version="1.0" encoding="utf-8"?>
<!-- Generator: Adobe Illustrator 21.0.2, SVG Export Plug-In . SVG Version: 6.00 Build 0)  -->
<svg version="1.1" id="Livello_1" xmlns="http://www.w3.org/2000/svg" xmlns:xlink="http://www.w3.org/1999/xlink" x="0px" y="0px"
	 viewBox="0 0 629 500.4" style="enable-background:new 0 0 629 500.4;" xml:space="preserve">
<style type="text/css">
	.st0{opacity:0.3;fill:#E2E2E2;}
	.st1{opacity:0.3;fill:#73D7FF;}
	.st2{opacity:0.32;fill:#73D7FF;}
	.st3{fill:#003575;}
	.st4{fill:#BFDEFF;}
	.st5{fill:#FFFFFF;}
	.st6{fill:none;stroke:#295082;stroke-width:2;stroke-miterlimit:10;}
	.st7{fill:#1E3A6D;}
	.st8{fill:#7ECEF5;}
	.st9{fill:#73D7FF;}
</style>
<path class="st0" d="M6.1,485.6c0-169.7,137.5-307.2,307.2-307.2s307.2,137.5,307.2,307.2"/>
<path class="st1" d="M44.9,485.6c0-145,120.2-262.5,268.4-262.5s268.4,117.5,268.4,262.5"/>
<path class="st2" d="M98.1,485.6c0-119.8,96.3-216.9,215.2-216.9s215.2,97.1,215.2,216.9"/>
<path class="st3" d="M618.7,491.5H7.8c-1,0-1.8-0.8-1.8-1.8v-2.4c0-1,0.8-1.8,1.8-1.8h610.9c1,0,1.8,0.8,1.8,1.8v2.4
	C620.4,490.7,619.6,491.5,618.7,491.5z"/>
<g>
	<g>
		<path class="st4" d="M560.2,169.7l-4.9-8.5h-12.6v-32.1h70.5v32.1h-48L560.2,169.7z M546,157.8h11.2l3,5.1l3-5.1h46.6v-25.3H546
			V157.8z"/>
	</g>
	<g>
		<path class="st4" d="M557.1,143.6h-14.5v-14.5h14.5V143.6z M546,140.2h7.7v-7.7H546V140.2z"/>
	</g>
	<g>
		<rect x="563.1" y="137.2" class="st4" width="34.9" height="3.4"/>
	</g>
	<g>
		<rect x="563.1" y="142.6" class="st4" width="34.9" height="3.4"/>
	</g>
	<g>
		<rect x="563.1" y="147.9" class="st4" width="34.9" height="3.4"/>
	</g>
</g>
<g>
	<g>
		<path class="st4" d="M364.8,85.8l-1-0.1c-2.6-0.3-5.2-1-7.6-2.2l-1-0.5l0.2-4.1l-4,1.3l-0.7-0.7c-1.8-1.8-3.3-3.9-4.3-6.3l-0.5-1
			l3.1-3.4l-4.5-1.9l-0.1-1c0-0.5-0.1-1.1-0.1-1.6c0-1.9,0.3-3.8,0.8-5.6l0.3-1.1l5.2-0.6l-2.5-4.8l0.6-0.9c1.4-1.9,3.2-3.5,5.1-4.8
			l0.9-0.6l4.7,3l1.2-5.4l1.1-0.2c2.3-0.4,4.6-0.5,7-0.2l1.1,0.1l1.6,5.2l4.2-3.2l1,0.6c2.1,1.2,4,2.8,5.6,4.6L383,51l-1.9,4.6
			l4.8,0.2l0.4,1.1c0.9,2.4,1.3,4.8,1.3,7.4l0,1.1l-0.9,0.5l-3,1.5l3.1,2.8l-0.4,1c-0.9,2.5-2.1,4.8-3.8,6.8l-0.7,0.8L378,78
			l0.5,3.8l-0.9,0.6c-2.3,1.5-4.7,2.5-7.4,3l-1,0.2l-2.3-3L364.8,85.8z M358.8,80.9c1.4,0.6,2.9,1,4.4,1.3l3.5-5.6l3.9,5.2
			c1.5-0.4,2.9-1,4.3-1.7l-0.9-6.5l6.5,1.5c0.9-1.2,1.6-2.5,2.2-3.9l-5-4.6l6.4-3.3c-0.1-1.4-0.3-2.8-0.7-4.2l-7.4-0.3l3-7.1
			c-0.9-1-1.9-1.8-3-2.5l-6.3,4.8l-2.4-7.8c-1.3-0.1-2.5-0.1-3.8,0.1l-1.8,8l-6.8-4.4c-1,0.8-1.9,1.6-2.8,2.6l3.7,7.1l-7.7,1
			c-0.3,1.2-0.4,2.4-0.4,3.7c0,0.1,0,0.2,0,0.3l7,2.9l-4.9,5.3c0.7,1.3,1.5,2.5,2.5,3.5l6.7-2.1L358.8,80.9z"/>
	</g>
	<g>
		<path class="st4" d="M366,71.4c-4,0-7.2-3.2-7.2-7.2c0-4,3.2-7.2,7.2-7.2s7.2,3.2,7.2,7.2C373.1,68.2,369.9,71.4,366,71.4z
			 M366,60.4c-2.1,0-3.8,1.7-3.8,3.8c0,2.1,1.7,3.8,3.8,3.8s3.8-1.7,3.8-3.8C369.8,62.1,368.1,60.4,366,60.4z"/>
	</g>
</g>
<g>
	<g>
		<g>
			<g>
				<g>
					<g>
						<g>
							<path class="st3" d="M317.6,138.9h-11.1c-0.9,0-1.7-0.8-1.7-1.7c0-0.9,0.8-1.7,1.7-1.7h11.1c0.9,0,1.7,0.8,1.7,1.7
								C319.3,138.1,318.6,138.9,317.6,138.9z"/>
						</g>
					</g>
				</g>
			</g>
		</g>
		<g>
			<g>
				<g>
					<g>
						<g>
							<path class="st3" d="M312.1,144.5c-0.9,0-1.7-0.8-1.7-1.7v-11.1c0-0.9,0.8-1.7,1.7-1.7c0.9,0,1.7,0.8,1.7,1.7v11.1
								C313.7,143.7,313,144.5,312.1,144.5z"/>
						</g>
					</g>
				</g>
			</g>
		</g>
	</g>
</g>
<g>
	<g>
		<g>
			<g>
				<g>
					<g>
						<g>
							<path class="st3" d="M240.1,464.8h-11.1c-0.9,0-1.7-0.8-1.7-1.7c0-0.9,0.8-1.7,1.7-1.7h11.1c0.9,0,1.7,0.8,1.7,1.7
								C241.8,464.1,241,464.8,240.1,464.8z"/>
						</g>
					</g>
				</g>
			</g>
		</g>
		<g>
			<g>
				<g>
					<g>
						<g>
							<path class="st3" d="M234.5,470.4c-0.9,0-1.7-0.8-1.7-1.7v-11.1c0-0.9,0.8-1.7,1.7-1.7c0.9,0,1.7,0.8,1.7,1.7v11.1
								C236.2,469.6,235.4,470.4,234.5,470.4z"/>
						</g>
					</g>
				</g>
			</g>
		</g>
	</g>
</g>
<g>
	<g>
		<g>
			<g>
				<g>
					<g>
						<g>
							<path class="st3" d="M528,292.6h-11.1c-0.9,0-1.7-0.8-1.7-1.7c0-0.9,0.8-1.7,1.7-1.7H528c0.9,0,1.7,0.8,1.7,1.7
								C529.7,291.8,528.9,292.6,528,292.6z"/>
						</g>
					</g>
				</g>
			</g>
		</g>
		<g>
			<g>
				<g>
					<g>
						<g>
							<path class="st3" d="M522.4,298.2c-0.9,0-1.7-0.8-1.7-1.7v-11.1c0-0.9,0.8-1.7,1.7-1.7c0.9,0,1.7,0.8,1.7,1.7v11.1
								C524.1,297.4,523.3,298.2,522.4,298.2z"/>
						</g>
					</g>
				</g>
			</g>
		</g>
	</g>
</g>
<g>
	<path class="st5" d="M216.8,255.7c-6.4,0-11.6-5.2-11.6-11.6s5.2-11.6,11.6-11.6s11.6,5.2,11.6,11.6S223.2,255.7,216.8,255.7z"/>
	<path class="st3" d="M216.8,233.5c5.8,0,10.6,4.8,10.6,10.6s-4.8,10.6-10.6,10.6c-5.8,0-10.6-4.8-10.6-10.6S211,233.5,216.8,233.5
		 M216.8,231.5c-7,0-12.6,5.6-12.6,12.6c0,7,5.6,12.6,12.6,12.6c7,0,12.6-5.6,12.6-12.6C229.4,237.1,223.8,231.5,216.8,231.5
		L216.8,231.5z"/>
</g>
<g>
	<path class="st5" d="M216.8,255.2c-6.1,0-11.1-5-11.1-11.1c0-6.1,5-11.1,11.1-11.1c6.1,0,11.1,5,11.1,11.1
		C227.9,250.2,222.9,255.2,216.8,255.2z"/>
	<path class="st3" d="M216.8,234.5c5.3,0,9.6,4.3,9.6,9.6s-4.3,9.6-9.6,9.6c-5.3,0-9.6-4.3-9.6-9.6S211.5,234.5,216.8,234.5
		 M216.8,231.5c-7,0-12.6,5.6-12.6,12.6s5.6,12.6,12.6,12.6s12.6-5.6,12.6-12.6S223.8,231.5,216.8,231.5L216.8,231.5z"/>
</g>
<g>
	<path class="st5" d="M453.1,358.1c-6.1,0-11.1-5-11.1-11.1s5-11.1,11.1-11.1c6.1,0,11.1,5,11.1,11.1S459.3,358.1,453.1,358.1z"/>
	<path class="st3" d="M453.1,337.4c5.3,0,9.6,4.3,9.6,9.6s-4.3,9.6-9.6,9.6s-9.6-4.3-9.6-9.6S447.8,337.4,453.1,337.4 M453.1,334.4
		c-7,0-12.6,5.6-12.6,12.6c0,7,5.6,12.6,12.6,12.6c7,0,12.6-5.6,12.6-12.6C465.7,340.1,460.1,334.4,453.1,334.4L453.1,334.4z"/>
</g>
<g>
	<path class="st5" d="M106.4,465.5c-6.1,0-11.1-5-11.1-11.1s5-11.1,11.1-11.1c6.1,0,11.1,5,11.1,11.1S112.6,465.5,106.4,465.5z"/>
	<path class="st3" d="M106.4,444.8c5.3,0,9.6,4.3,9.6,9.6s-4.3,9.6-9.6,9.6s-9.6-4.3-9.6-9.6S101.1,444.8,106.4,444.8 M106.4,441.8
		c-7,0-12.6,5.6-12.6,12.6s5.6,12.6,12.6,12.6s12.6-5.6,12.6-12.6S113.4,441.8,106.4,441.8L106.4,441.8z"/>
</g>
<g>
	<path class="st4" d="M102.9,88.3c-5.1,0-9.3-4.2-9.3-9.3c0-5.1,4.2-9.3,9.3-9.3c5.1,0,9.3,4.2,9.3,9.3
		C112.2,84.1,108,88.3,102.9,88.3z M102.9,73.1c-3.3,0-5.9,2.7-5.9,5.9c0,3.3,2.7,5.9,5.9,5.9c3.3,0,5.9-2.7,5.9-5.9
		C108.8,75.7,106.2,73.1,102.9,73.1z"/>
</g>
<g>
	<path class="st4" d="M59.9,287.2c-5.1,0-9.3-4.2-9.3-9.3c0-5.1,4.2-9.3,9.3-9.3c5.1,0,9.3,4.2,9.3,9.3
		C69.2,283.1,65,287.2,59.9,287.2z M59.9,272c-3.3,0-5.9,2.7-5.9,5.9s2.7,5.9,5.9,5.9c3.3,0,5.9-2.7,5.9-5.9S63.2,272,59.9,272z"/>
</g>
<g>
	<g>
		<g>
			<g>
				<g>
					<g>
						<g>
							<path class="st3" d="M116.5,145.1h-11.1c-0.9,0-1.7-0.8-1.7-1.7c0-0.9,0.8-1.7,1.7-1.7h11.1c0.9,0,1.7,0.8,1.7,1.7
								C118.2,144.3,117.4,145.1,116.5,145.1z"/>
						</g>
					</g>
				</g>
			</g>
		</g>
		<g>
			<g>
				<g>
					<g>
						<g>
							<path class="st3" d="M110.9,150.6c-0.9,0-1.7-0.8-1.7-1.7v-11.1c0-0.9,0.8-1.7,1.7-1.7c0.9,0,1.7,0.8,1.7,1.7V149
								C112.6,149.9,111.8,150.6,110.9,150.6z"/>
						</g>
					</g>
				</g>
			</g>
		</g>
	</g>
</g>
<path class="st6" d="M275.2,324.5"/>
<path class="st6" d="M302.6,377.4"/>
<g>
	<g>
		<g>
			<g>
				<rect x="177.6" y="147.2" class="st5" width="84.1" height="48.3"/>
			</g>
		</g>
		<g>
			<g>
				<g>
					<g>
						<path class="st7" d="M186.6,162.7c-0.5,0-1-0.5-1-1s0.5-1,1-1h19.4c0.5,0,1,0.5,1,1s-0.5,1-1,1H186.6z"/>
					</g>
				</g>
			</g>
			<g>
				<g>
					<g>
						<path class="st7" d="M186.6,156.3c-0.5,0-1-0.5-1-1s0.5-1,1-1h8c0.5,0,1,0.5,1,1s-0.5,1-1,1H186.6z"/>
					</g>
				</g>
			</g>
			<g>
				<g>
					<g>
						<path class="st7" d="M186.6,169.2c-0.5,0-1-0.5-1-1s0.5-1,1-1h19.4c0.5,0,1,0.5,1,1s-0.5,1-1,1H186.6z"/>
					</g>
				</g>
			</g>
			<g>
				<g>
					<g>
						<path class="st7" d="M186.6,177.9c-0.5,0-1-0.5-1-1c0-0.5,0.5-1,1-1h65.3c0.5,0,1,0.5,1,1s-0.5,1-1,1H186.6z"/>
					</g>
				</g>
			</g>
			<g>
				<g>
					<g>
						<path class="st7" d="M178.6,196.5c-1.5,0-2.6-1.3-2.6-2.6v-45.4c0-1.5,1.3-2.6,2.6-2.6h81.6c1.5,0,2.6,1.3,2.6,2.6v45.2
							c0,1.5-1.3,2.6-2.6,2.6h-81.6V196.5z M178.6,148c-0.3,0-0.5,0.3-0.5,0.5v45.2c0,0.5,0.3,0.8,0.5,0.8h81.6
							c0.3,0,0.5-0.3,0.5-0.5v-45.2c0-0.3,0-0.3-0.3-0.3l-0.3-0.3h-81.6V148z"/>
					</g>
				</g>
			</g>
		</g>
	</g>
	<g>
		<g>
			<g>
				<path class="st7" d="M251.9,159.9c0,0.5-0.5,1-1,1c-0.5,0-1-0.5-1-1v-9c0-0.5,0.5-1,1-1c0.5,0,1,0.5,1,1V159.9z"/>
			</g>
		</g>
	</g>
	<g>
		<g>
			<g>
				<path class="st7" d="M255.2,159.9c0,0.5-0.5,1-1,1c-0.5,0-1-0.5-1-1v-9c0-0.5,0.5-1,1-1c0.5,0,1,0.5,1,1V159.9z"/>
			</g>
		</g>
	</g>
	<g>
		<g>
			<g>
				<path class="st7" d="M258.9,159.9c0,0.5-0.5,1-1,1s-1-0.5-1-1v-9c0-0.5,0.5-1,1-1s1,0.5,1,1V159.9z"/>
			</g>
		</g>
	</g>
	<g>
		<g>
			<g>
				<path class="st7" d="M248.3,159.9c0,0.5-0.5,1-1,1s-1-0.5-1-1v-9c0-0.5,0.5-1,1-1s1,0.5,1,1V159.9z"/>
			</g>
		</g>
	</g>
	<g>
		<g>
			<g>
				<path class="st7" d="M244.9,159.9c0,0.5-0.5,1-1,1s-1-0.5-1-1v-9c0-0.5,0.5-1,1-1s1,0.5,1,1V159.9z"/>
			</g>
		</g>
	</g>
	<path class="st8" d="M230.2,190.3h-40c-2.3,0-4.4-2.1-4.4-4.4l0,0c0-2.6,2.1-4.4,4.4-4.4h40c2.3,0,4.4,2.1,4.4,4.4l0,0
		C234.9,188.3,232.8,190.3,230.2,190.3z"/>
</g>
<g>
	<g>
		<g>
			<polygon class="st9" points="234.5,51.8 243,56 251.3,58.5 257.9,59.3 257,79 248.9,97.7 234.4,106.6 226.5,102.1 219.5,96.4 
				213.6,85.5 211,68.6 211.4,58.7 219.4,58.6 224.3,57.4 229.5,55.1 			"/>
		</g>
	</g>
	<g>
		<polygon class="st5" points="246.8,74.9 237.7,74.9 237.7,65.7 231,65.7 231,74.9 221.9,74.9 221.9,81.5 231,81.5 231,90.7 
			237.7,90.7 237.7,81.5 246.8,81.5 		"/>
	</g>
	<g>
		<g>
			<g>
				<g>
					<path class="st3" d="M234.5,107.5c-0.3,0-0.6,0-0.8-0.1c-24.4-7.4-24.5-38-24-47.3c0.1-1.6,1.4-2.8,3-2.8c0,0,0.1,0,0.1,0
						c0.5,0,1,0,1.5,0c9.3,0,16-4.5,18.4-6.4c0.5-0.4,1.1-0.6,1.8-0.6c0.6,0,1.3,0.2,1.8,0.6c2.4,1.9,9.1,6.4,18.4,6.4
						c0.5,0,1.1,0,1.6,0c0,0,0.1,0,0.1,0c1.5,0,2.9,1.2,2.9,2.8c0.5,9.2,0.4,39.9-24,47.3C235,107.5,234.8,107.5,234.5,107.5z
						 M212.6,59.8c-0.1,0-0.3,0.1-0.4,0.2c-0.1,0.1-0.2,0.3-0.2,0.4c-0.5,11.2,0.7,38.1,22.4,44.7c0.1,0,0.1,0,0.2,0
						c0.1,0,0.1,0,0.2,0c22.5-6.8,22.6-35.9,22.1-44.7c0-0.3-0.3-0.6-0.6-0.6c0,0,0,0,0,0c-0.5,0-1,0-1.5,0c-10,0-17.2-4.8-19.9-6.9
						c-0.1-0.1-0.2-0.1-0.4-0.1s-0.3,0-0.4,0.1c-2.6,2.1-9.9,6.9-19.9,6.9C213.7,59.9,213.2,59.9,212.6,59.8
						C212.6,59.8,212.6,59.8,212.6,59.8z"/>
				</g>
			</g>
		</g>
		<g>
			<g>
				<g>
					<path class="st3" d="M230.8,92.4c-0.7,0-1.2-0.5-1.2-1.2v-7.3c0-0.3-0.3-0.6-0.6-0.6h-7.3c-0.7,0-1.2-0.5-1.2-1.2v-7.3
						c0-0.7,0.5-1.2,1.2-1.2h7.3c0.3,0,0.6-0.3,0.6-0.6v-7.3c0-0.7,0.5-1.2,1.2-1.2h7.3c0.7,0,1.2,0.5,1.2,1.2v7.3
						c0,0.3,0.3,0.6,0.6,0.6h7.3c0.7,0,1.2,0.5,1.2,1.2V82c0,0.7-0.5,1.2-1.2,1.2H240c-0.3,0-0.6,0.3-0.6,0.6v7.3
						c0,0.7-0.5,1.2-1.2,1.2H230.8z M223.6,75.9c-0.3,0-0.6,0.3-0.6,0.6v3.6c0,0.3,0.3,0.6,0.6,0.6h7.3c0.7,0,1.2,0.5,1.2,1.2v7.3
						c0,0.3,0.3,0.6,0.6,0.6h3.6c0.3,0,0.6-0.3,0.6-0.6V82c0-0.7,0.5-1.2,1.2-1.2h7.3c0.3,0,0.6-0.3,0.6-0.6v-3.6
						c0-0.3-0.3-0.6-0.6-0.6h-7.3c-0.7,0-1.2-0.5-1.2-1.2v-7.3c0-0.3-0.3-0.6-0.6-0.6h-3.6c-0.3,0-0.6,0.3-0.6,0.6v7.3
						c0,0.7-0.5,1.2-1.2,1.2H223.6z"/>
				</g>
			</g>
		</g>
	</g>
</g>
<g>
	<g>
		<g>
			<polygon class="st9" points="61.2,227 92.2,196 94.8,196.8 103,205 102.4,208.6 72.4,238.6 69,238 61.2,230.1 			"/>
		</g>
	</g>
	<g>
		<g>
			<polygon class="st9" points="91.8,238.2 60.8,207.2 61.6,204.6 69.8,196.4 73.5,197.1 103.4,227 102.8,230.4 95,238.2 			"/>
		</g>
	</g>
	<g>
		<g>
			
				<rect x="74.5" y="209.7" transform="matrix(0.7071 -0.7071 0.7071 0.7071 -129.6055 121.7205)" class="st5" width="15.2" height="15.2"/>
		</g>
	</g>
	<g>
		<g>
			<g>
				<path class="st3" d="M93.1,239.4c-1.1,0-2.1-0.4-2.9-1.2l-8-8c-0.1-0.1-0.2-0.1-0.3-0.1c-0.1,0-0.2,0-0.3,0.1l-8,8
					c-0.8,0.8-1.8,1.2-2.9,1.2c-1.1,0-2.1-0.4-2.9-1.2l-6.8-6.8c-0.8-0.8-1.2-1.8-1.2-2.9c0-1.1,0.4-2.1,1.2-2.9l8-8
					c0.2-0.2,0.2-0.5,0-0.7l-8-8c-0.8-0.8-1.2-1.8-1.2-2.9s0.4-2.1,1.2-2.9l6.8-6.8c0.7-0.7,1.8-1.1,2.9-1.1c1.1,0,2.1,0.4,2.9,1.1
					l8,8c0.1,0.1,0.2,0.1,0.3,0.1s0.2,0,0.3-0.1l8-8c0.7-0.7,1.8-1.1,2.9-1.1s2.1,0.4,2.9,1.1l6.8,6.8c0.8,0.8,1.2,1.8,1.2,2.9
					s-0.4,2.1-1.2,2.9l-8,8c-0.2,0.2-0.2,0.5,0,0.7l8,8c0.8,0.8,1.2,1.8,1.2,2.9c0,1.1-0.4,2.1-1.2,2.9l-6.8,6.8
					C95.2,239,94.2,239.4,93.1,239.4z M93.1,218.9c-0.1,0-0.2,0-0.3,0.1l-9.2,9.2c-0.2,0.2-0.2,0.5,0,0.7l8,8
					c0.4,0.4,0.9,0.6,1.5,0.6s1.1-0.2,1.5-0.6l6.8-6.8c0.4-0.4,0.6-0.9,0.6-1.5c0-0.6-0.2-1.1-0.6-1.5l-8-8
					C93.3,218.9,93.2,218.9,93.1,218.9z M70.7,218.9c-0.1,0-0.2,0-0.3,0.1l-8,8c-0.4,0.4-0.6,0.9-0.6,1.5c0,0.6,0.2,1.1,0.6,1.5
					l6.8,6.8c0.4,0.4,0.9,0.6,1.5,0.6c0.6,0,1.1-0.2,1.5-0.6l8-8c0.2-0.2,0.2-0.5,0-0.7l-9.2-9.2C71,218.9,70.9,218.9,70.7,218.9z
					 M81.9,207.7c-0.1,0-0.2,0-0.3,0.1l-9.2,9.2c-0.2,0.2-0.2,0.5,0,0.7l9.2,9.2c0.1,0.1,0.2,0.1,0.3,0.1c0.1,0,0.2,0,0.3-0.1
					l9.2-9.2c0.1-0.1,0.1-0.2,0.1-0.3s0-0.2-0.1-0.3l-9.2-9.2C82.1,207.8,82,207.7,81.9,207.7z M93.1,197.2c-0.6,0-1.1,0.2-1.5,0.6
					l-8,8c-0.2,0.2-0.2,0.5,0,0.7l9.2,9.2c0.1,0.1,0.2,0.1,0.3,0.1s0.2,0,0.3-0.1l8-8c0.8-0.8,0.8-2.2,0-3l-6.8-6.8
					C94.2,197.5,93.7,197.2,93.1,197.2z M70.7,197.2c-0.6,0-1.1,0.2-1.5,0.6l-6.8,6.8c-0.4,0.4-0.6,0.9-0.6,1.5
					c0,0.6,0.2,1.1,0.6,1.5l8,8c0.1,0.1,0.2,0.1,0.3,0.1c0.1,0,0.2,0,0.3-0.1l9.2-9.2c0.2-0.2,0.2-0.5,0-0.7l-8-8
					C71.9,197.5,71.3,197.2,70.7,197.2z"/>
			</g>
		</g>
		<g>
			<g>
				
					<rect x="81" y="212.4" transform="matrix(0.7067 -0.7076 0.7076 0.7067 -126.9595 120.552)" class="st3" width="1.9" height="1.9"/>
			</g>
		</g>
		<g>
			<g>
				
					<rect x="84.9" y="216.4" transform="matrix(0.7067 -0.7075 0.7075 0.7067 -128.6004 124.512)" class="st3" width="1.9" height="1.9"/>
			</g>
		</g>
		<g>
			<g>
				
					<rect x="77" y="216.4" transform="matrix(0.7067 -0.7075 0.7075 0.7067 -130.9292 118.8933)" class="st3" width="1.9" height="1.9"/>
			</g>
		</g>
		<g>
			<g>
				
					<rect x="81" y="220.4" transform="matrix(0.7067 -0.7076 0.7076 0.7067 -132.5837 122.8837)" class="st3" width="1.9" height="1.9"/>
			</g>
		</g>
	</g>
</g>
<g>
	<g>
		<polygon class="st9" points="101.6,364.7 95.4,364.7 95.4,358.6 88.1,358.6 88.1,364.7 81.9,364.7 81.9,372.1 88.1,372.1 
			88.1,378.3 95.4,378.3 95.4,372.1 101.6,372.1 		"/>
	</g>
	<g>
		<g>
			<rect x="46.4" y="367.2" class="st9" width="24.2" height="52.8"/>
		</g>
	</g>
	<g>
		<g>
			<rect x="71.8" y="387.3" class="st5" width="36.2" height="32.7"/>
		</g>
	</g>
	<g>
		<g>
			<g>
				<g>
					<path class="st3" d="M46.3,421.4c-0.8,0-1.4-0.6-1.4-1.4v-53.5c0-0.8,0.6-1.4,1.4-1.4h24.7c0.8,0,1.4,0.6,1.4,1.4v18.5
						c0,0.4,0.3,0.7,0.7,0.7h16.5c0.4,0,0.7-0.3,0.7-0.7V381c0-0.4-0.3-0.7-0.7-0.7h-2.1c-0.8,0-1.4-0.6-1.4-1.4v-4.1
						c0-0.4-0.3-0.7-0.7-0.7h-4.1c-0.8,0-1.4-0.6-1.4-1.4v-8.2c0-0.8,0.6-1.4,1.4-1.4h4.1c0.4,0,0.7-0.3,0.7-0.7v-4.1
						c0-0.8,0.6-1.4,1.4-1.4h8.2c0.8,0,1.4,0.6,1.4,1.4v4.1c0,0.4,0.3,0.7,0.7,0.7h4.1c0.8,0,1.4,0.6,1.4,1.4v8.2
						c0,0.8-0.6,1.4-1.4,1.4h-4.1c-0.4,0-0.7,0.3-0.7,0.7v4.1c0,0.8-0.6,1.4-1.4,1.4h-2.1c-0.4,0-0.7,0.3-0.7,0.7v4.1
						c0,0.4,0.3,0.7,0.7,0.7H108c0.8,0,1.4,0.6,1.4,1.4v32.9c0,0.8-0.6,1.4-1.4,1.4H46.3z M99.7,410.5c0.8,0,1.4,0.6,1.4,1.4v6.2
						c0,0.4,0.3,0.7,0.7,0.7h4.1c0.4,0,0.7-0.3,0.7-0.7v-28.8c0-0.4-0.3-0.7-0.7-0.7H73c-0.4,0-0.7,0.3-0.7,0.7V418
						c0,0.4,0.3,0.7,0.7,0.7h4.1c0.4,0,0.7-0.3,0.7-0.7v-6.2c0-0.8,0.6-1.4,1.4-1.4c0.8,0,1.4,0.6,1.4,1.4v6.2
						c0,0.4,0.3,0.7,0.7,0.7h16.5c0.4,0,0.7-0.3,0.7-0.7v-6.2C98.4,411.1,99,410.5,99.7,410.5z M48.3,368c-0.4,0-0.7,0.3-0.7,0.7
						V418c0,0.4,0.3,0.7,0.7,0.7h20.6c0.4,0,0.7-0.3,0.7-0.7v-49.4c0-0.4-0.3-0.7-0.7-0.7H48.3z M83.3,365.9c-0.4,0-0.7,0.3-0.7,0.7
						v4.1c0,0.4,0.3,0.7,0.7,0.7h4.1c0.8,0,1.4,0.6,1.4,1.4v4.1c0,0.4,0.3,0.7,0.7,0.7h4.1c0.4,0,0.7-0.3,0.7-0.7v-4.1
						c0-0.8,0.6-1.4,1.4-1.4h4.1c0.4,0,0.7-0.3,0.7-0.7v-4.1c0-0.4-0.3-0.7-0.7-0.7h-4.1c-0.8,0-1.4-0.6-1.4-1.4v-4.1
						c0-0.4-0.3-0.7-0.7-0.7h-4.1c-0.4,0-0.7,0.3-0.7,0.7v4.1c0,0.8-0.6,1.4-1.4,1.4H83.3z"/>
				</g>
			</g>
		</g>
		<g>
			<g>
				<g>
					<rect x="53.1" y="375.5" class="st3" width="2.8" height="2.8"/>
				</g>
			</g>
		</g>
		<g>
			<g>
				<g>
					<rect x="61.3" y="375.5" class="st3" width="2.8" height="2.8"/>
				</g>
			</g>
		</g>
		<g>
			<g>
				<g>
					<rect x="53.1" y="383.7" class="st3" width="2.8" height="2.8"/>
				</g>
			</g>
		</g>
		<g>
			<g>
				<g>
					<rect x="61.3" y="383.7" class="st3" width="2.8" height="2.8"/>
				</g>
			</g>
		</g>
		<g>
			<g>
				<g>
					<rect x="53.1" y="392" class="st3" width="2.8" height="2.8"/>
				</g>
			</g>
		</g>
		<g>
			<g>
				<g>
					<rect x="61.3" y="392" class="st3" width="2.8" height="2.8"/>
				</g>
			</g>
		</g>
		<g>
			<g>
				<g>
					<rect x="53.1" y="400.2" class="st3" width="2.8" height="2.8"/>
				</g>
			</g>
		</g>
		<g>
			<g>
				<g>
					<rect x="61.3" y="400.2" class="st3" width="2.8" height="2.8"/>
				</g>
			</g>
		</g>
		<g>
			<g>
				<g>
					<rect x="77.8" y="394" class="st3" width="2.8" height="2.8"/>
				</g>
			</g>
		</g>
		<g>
			<g>
				<g>
					<rect x="88.1" y="394" class="st3" width="2.8" height="2.8"/>
				</g>
			</g>
		</g>
		<g>
			<g>
				<g>
					<rect x="98.4" y="394" class="st3" width="2.8" height="2.8"/>
				</g>
			</g>
		</g>
		<g>
			<g>
				<g>
					<rect x="77.8" y="402.2" class="st3" width="2.8" height="2.8"/>
				</g>
			</g>
		</g>
		<g>
			<g>
				<g>
					<rect x="88.1" y="402.2" class="st3" width="2.8" height="2.8"/>
				</g>
			</g>
		</g>
		<g>
			<g>
				<g>
					<rect x="88.1" y="410.5" class="st3" width="2.8" height="2.8"/>
				</g>
			</g>
		</g>
		<g>
			<g>
				<g>
					<rect x="98.4" y="402.2" class="st3" width="2.8" height="2.8"/>
				</g>
			</g>
		</g>
		<g>
			<g>
				<g>
					<rect x="53.1" y="408.4" class="st3" width="2.8" height="2.8"/>
				</g>
			</g>
		</g>
		<g>
			<g>
				<g>
					<rect x="61.3" y="408.4" class="st3" width="2.8" height="2.8"/>
				</g>
			</g>
		</g>
	</g>
</g>
<g>
	<g>
		<g>
			<circle class="st9" cx="588.8" cy="353.7" r="8.3"/>
		</g>
	</g>
	<g>
		<g>
			<g>
				<g>
					<path class="st3" d="M547.4,397.3c-2.7,0-4.8-2.1-4.8-4.8s2.1-4.8,4.8-4.8h25.2c1.3,0,2.4-1.1,2.4-2.4s-1.1-2.4-2.4-2.4h-10.8
						c-2.7,0-4.8-2.1-4.8-4.8v-3c0-0.3-0.2-0.5-0.5-0.6c-8-0.9-13.9-7.5-13.9-15.5v-12.6c0-0.7,0.5-1.2,1.2-1.2h5.4
						c0.3,0,0.6-0.2,0.6-0.6c0-0.7,0.5-1.2,1.2-1.2c0.7,0,1.2,0.5,1.2,1.2v3.6c0,0.7-0.5,1.2-1.2,1.2c-0.7,0-1.2-0.5-1.2-1.2
						c0-0.3-0.2-0.6-0.6-0.6h-3.6c-0.3,0-0.6,0.2-0.6,0.6V359c0,7.3,5.9,13.2,13.2,13.2s13.2-5.9,13.2-13.2v-10.7
						c0-0.3-0.2-0.6-0.6-0.6h-3.6c-0.3,0-0.6,0.2-0.6,0.6c0,0.7-0.5,1.2-1.2,1.2c-0.7,0-1.2-0.5-1.2-1.2v-3.6c0-0.7,0.5-1.2,1.2-1.2
						s1.2,0.5,1.2,1.2c0,0.3,0.2,0.6,0.6,0.6h5.4c0.7,0,1.2,0.5,1.2,1.2v12.6c0,8-6,14.7-13.9,15.5c-0.3,0-0.5,0.3-0.5,0.6v3
						c0,1.3,1.1,2.4,2.4,2.4h10.8c2.7,0,4.8,2.1,4.8,4.8c0,2.7-2.1,4.8-4.8,4.8h-25.2c-1.3,0-2.4,1.1-2.4,2.4s1.1,2.4,2.4,2.4h37.7
						c1.3,0,2.4-1.1,2.4-2.4v-28v-0.1c0-0.3-0.2-0.6-0.5-0.6c-4.9-0.8-8.5-5.1-8.5-10c0-5.6,4.6-10.2,10.2-10.2s10.2,4.6,10.2,10.2
						c0,5-3.6,9.3-8.5,10c-0.3,0.1-0.5,0.3-0.5,0.6v0.1v28c0,2.7-2.1,4.8-4.8,4.8C585.1,397.3,547.4,397.3,547.4,397.3z
						 M588.8,345.9c-4.3,0-7.8,3.5-7.8,7.8c0,4.3,3.5,7.8,7.8,7.8c4.3,0,7.8-3.5,7.8-7.8C596.6,349.4,593,345.9,588.8,345.9z"/>
				</g>
			</g>
		</g>
		<g>
			<g>
				<g>
					<rect x="587.5" y="352.5" class="st3" width="2.4" height="2.4"/>
				</g>
			</g>
		</g>
	</g>
</g>
<g>
	<g>
		<g>
			<path class="st5" d="M480.6,457.8l-2.1-4.6l-4.1-0.7l-3-0.7l-2.1-2.1l-0.4-1.8c-2,1-4.4,1.6-7,1.6c-2.7,0-5.2-0.6-7.3-1.7
				l-0.2,0.8l-2,2.9l-4.7,0.6l-2.8,1.5l-2.4,8.3v4.3h38.4l0.7-1L480.6,457.8z"/>
		</g>
	</g>
	<g>
		<g>
			<ellipse class="st5" cx="461.9" cy="434.9" rx="6.7" ry="9.8"/>
		</g>
	</g>
	<g>
		<g>
			<rect x="453.3" y="413.7" class="st9" width="17.3" height="16.8"/>
		</g>
	</g>
	<g>
		<g>
			<g>
				<g>
					<path class="st3" d="M442.6,467.2c-0.6,0-1.1-0.5-1.2-1.1c-0.1-1-0.5-10.1,2.9-13.7c1-1,2.2-1.6,3.5-1.6c2.6,0,4.5,0,5.9-2.9
						c0.2-0.4,0.6-0.6,1.1-0.6c0.2,0,0.4,0,0.5,0.1c0.6,0.3,0.8,1,0.5,1.6c-2.1,4.1-5.3,4.1-8,4.1c-0.7,0-1.3,0.3-1.8,0.8
						c-1.7,1.8-2.3,6.5-2.3,10.3c0,0.3,0.3,0.6,0.6,0.6H460c0.3,0,0.6-0.3,0.6-0.6V459c0-0.6,0.5-1.2,1.2-1.2c0.6,0,1.2,0.5,1.2,1.2
						v5.2c0,0.3,0.3,0.6,0.6,0.6h15.8c0.3,0,0.6-0.3,0.6-0.6c0-3.8-0.6-8.4-2.3-10.3c-0.5-0.6-1.1-0.8-1.8-0.8l-0.5,0
						c-3,0-5.8-0.3-7.5-4.2c-0.3-0.6,0-1.3,0.6-1.6c0.2-0.1,0.3-0.1,0.5-0.1c0.5,0,0.9,0.3,1.1,0.7c1.2,2.7,2.9,2.7,5.6,2.8l0.3,0
						c1.3,0,2.5,0.5,3.5,1.6c3.4,3.6,2.9,12.7,2.9,13.7c0,0.6-0.6,1.1-1.2,1.1H442.6z"/>
				</g>
			</g>
		</g>
		<g>
			<g>
				<g>
					<path class="st3" d="M461.8,446.2c-4.2,0-8.2-5.7-8.2-11.7c0-0.5,0-1.1,0.1-1.7c0-0.2,0-0.3-0.1-0.5c-0.1-0.1-0.3-0.2-0.4-0.2
						H453c-0.6,0-1.2-0.5-1.2-1.2v-17.5c0-0.6,0.5-1.2,1.2-1.2h17.5c0.6,0,1.2,0.5,1.2,1.2V431c0,0.6-0.5,1.2-1.2,1.2h-0.1
						c-0.2,0-0.3,0.1-0.4,0.2c-0.1,0.1-0.2,0.3-0.1,0.5c0.1,0.6,0.1,1.1,0.1,1.7C469.9,440.5,466,446.2,461.8,446.2z M456.7,432.2
						c-0.3,0-0.5,0.2-0.6,0.4c-0.1,0.6-0.2,1.2-0.2,1.9c0,4.9,3.3,9.3,5.8,9.3c2.6,0,5.8-4.4,5.8-9.3c0-0.7-0.1-1.3-0.2-1.9
						c-0.1-0.3-0.3-0.4-0.6-0.4H456.7z M454.8,414.7c-0.3,0-0.6,0.3-0.6,0.6v14c0,0.3,0.3,0.6,0.6,0.6h14c0.3,0,0.6-0.3,0.6-0.6v-14
						c0-0.3-0.3-0.6-0.6-0.6H454.8z"/>
				</g>
			</g>
		</g>
		<g>
			<g>
				<g>
					<path class="st3" d="M461.8,426.9c-0.6,0-1.2-0.5-1.2-1.2V424c0-0.3-0.3-0.6-0.6-0.6h-1.7c-0.6,0-1.2-0.5-1.2-1.2
						s0.5-1.2,1.2-1.2h1.7c0.3,0,0.6-0.3,0.6-0.6v-1.7c0-0.6,0.5-1.2,1.2-1.2c0.6,0,1.2,0.5,1.2,1.2v1.7c0,0.3,0.3,0.6,0.6,0.6h1.7
						c0.6,0,1.2,0.5,1.2,1.2s-0.5,1.2-1.2,1.2h-1.7c-0.3,0-0.6,0.3-0.6,0.6v1.7C462.9,426.4,462.4,426.9,461.8,426.9z"/>
				</g>
			</g>
		</g>
		<g>
			<g>
				<g>
					<path class="st3" d="M449.5,460.2c-0.6,0-1.2-0.5-1.2-1.2c0-0.6,0.5-1.2,1.2-1.2h5.2c0.6,0,1.2,0.5,1.2,1.2
						c0,0.6-0.5,1.2-1.2,1.2H449.5z"/>
				</g>
			</g>
		</g>
		<g>
			<g>
				<g>
					<rect x="460.6" y="452.8" class="st3" width="2.3" height="2.3"/>
				</g>
			</g>
		</g>
	</g>
</g>
<g>
	<path class="st5" d="M467.8,179.2c-6.1,0-11.1-5-11.1-11.1c0-6.1,5-11.1,11.1-11.1c6.1,0,11.1,5,11.1,11.1
		C478.9,174.2,474,179.2,467.8,179.2z"/>
	<path class="st3" d="M467.8,158.5c5.3,0,9.6,4.3,9.6,9.6s-4.3,9.6-9.6,9.6s-9.6-4.3-9.6-9.6S462.5,158.5,467.8,158.5 M467.8,155.5
		c-7,0-12.6,5.6-12.6,12.6s5.6,12.6,12.6,12.6s12.6-5.6,12.6-12.6S474.8,155.5,467.8,155.5L467.8,155.5z"/>
</g>
<g>
	<g>
		<g>
			<polygon class="st5" points="230.5,287.2 230.5,411.4 248.4,398.3 260.5,412.9 273.6,399.1 286.3,413.7 297.7,399.1 310.7,413.7 
				325.7,397.2 339.9,412 339.9,287.2 			"/>
		</g>
	</g>
	<g>
		<g>
			<g>
				<g>
					<path class="st3" d="M229.9,417.2c-0.4,0-0.7-0.1-1.1-0.2c-1.1-0.4-1.8-1.5-1.8-2.6V286.6c0-1.6,1.3-2.9,2.9-2.9h110.7
						c1.6,0,2.9,1.3,2.9,2.9v127.8c0,1.2-0.7,2.2-1.8,2.6c-0.4,0.1-0.7,0.2-1.1,0.2c-0.8,0-1.5-0.3-2-0.8L325,402.8
						c-0.3-0.3-0.6-0.4-1-0.4c0,0-0.1,0-0.1,0c-0.4,0-0.8,0.2-1,0.6l-9.8,13.1c-0.5,0.7-1.4,1.1-2.3,1.1c-0.9,0-1.8-0.4-2.3-1.1
						l-9.4-12.5c-0.3-0.4-0.7-0.6-1.1-0.6c-0.4,0-0.9,0.2-1.1,0.6l-9.4,12.5c-0.5,0.7-1.4,1.1-2.3,1.1c-0.9,0-1.7-0.4-2.3-1.1
						l-9.4-12.5c-0.3-0.4-0.7-0.6-1.1-0.6c-0.4,0-0.9,0.2-1.1,0.6L262,416c-0.5,0.7-1.4,1.1-2.3,1.1c-0.9,0-1.8-0.4-2.3-1.1
						l-9.8-13.1c-0.2-0.3-0.6-0.5-1-0.6c0,0-0.1,0-0.1,0c-0.4,0-0.7,0.1-1,0.4l-13.6,13.6C231.4,416.9,230.6,417.2,229.9,417.2z
						 M272.5,394.4c0.9,0,1.7,0.4,2.3,1.1l9.4,12.5c0.3,0.4,0.7,0.6,1.1,0.6h0c0.4,0,0.9-0.2,1.1-0.6l9.4-12.5
						c0.5-0.7,1.4-1.1,2.3-1.1c0.9,0,1.8,0.4,2.3,1.1l9.4,12.5c0.3,0.4,0.7,0.6,1.1,0.6h0c0.4,0,0.9-0.2,1.1-0.6l9.3-12.5
						c0.5-0.7,1.3-1.1,2.1-1.1c0.1,0,0.2,0,0.2,0c0.7,0,1.5,0.3,2,0.8l9.8,9.8c0.3,0.3,0.6,0.4,1,0.4c0.2,0,0.4,0,0.5-0.1
						c0.5-0.2,0.9-0.7,0.9-1.3V290.8c0-0.8-0.6-1.4-1.4-1.4H234.1c-0.8,0-1.4,0.6-1.4,1.4V404c0,0.6,0.3,1.1,0.9,1.3
						c0.2,0.1,0.4,0.1,0.5,0.1c0.4,0,0.7-0.1,1-0.4l9.8-9.8c0.5-0.5,1.3-0.8,2-0.8c0.1,0,0.1,0,0.2,0c0.9,0.1,1.6,0.5,2.1,1.1
						l9.3,12.5c0.3,0.4,0.7,0.6,1.1,0.6h0c0.4,0,0.9-0.2,1.1-0.6l9.4-12.5C270.7,394.8,271.6,394.4,272.5,394.4z"/>
				</g>
			</g>
		</g>
		<g>
			<g>
				<g>
					<path class="st9" d="M246.9,336.3c-1.6,0-2.9-1.3-2.9-2.9s1.3-2.9,2.9-2.9h8.5c1.6,0,2.9,1.3,2.9,2.9s-1.3,2.9-2.9,2.9H246.9z"
						/>
				</g>
			</g>
		</g>
		<g>
			<g>
				<g>
					<path class="st9" d="M272.5,336.3c-1.6,0-2.9-1.3-2.9-2.9s1.3-2.9,2.9-2.9h50.4c1.6,0,2.9,1.3,2.9,2.9s-1.3,2.9-2.9,2.9H272.5z
						"/>
				</g>
			</g>
		</g>
		<g>
			<g>
				<g>
					<path class="st9" d="M246.9,353.3c-1.6,0-2.9-1.3-2.9-2.9s1.3-2.9,2.9-2.9h8.5c1.6,0,2.9,1.3,2.9,2.9s-1.3,2.9-2.9,2.9H246.9z"
						/>
				</g>
			</g>
		</g>
		<g>
			<g>
				<g>
					<path class="st9" d="M272.5,353.3c-1.6,0-2.9-1.3-2.9-2.9s1.3-2.9,2.9-2.9h50.4c1.6,0,2.9,1.3,2.9,2.9s-1.3,2.9-2.9,2.9H272.5z
						"/>
				</g>
			</g>
		</g>
		<g>
			<g>
				<g>
					<path class="st9" d="M246.9,370.3c-1.6,0-2.9-1.3-2.9-2.9c0-1.6,1.3-2.9,2.9-2.9h8.5c1.6,0,2.9,1.3,2.9,2.9
						c0,1.6-1.3,2.9-2.9,2.9H246.9z"/>
				</g>
			</g>
		</g>
		<g>
			<g>
				<g>
					<path class="st9" d="M272.5,370.3c-1.6,0-2.9-1.3-2.9-2.9c0-1.6,1.3-2.9,2.9-2.9h50.4c1.6,0,2.9,1.3,2.9,2.9
						c0,1.6-1.3,2.9-2.9,2.9H272.5z"/>
				</g>
			</g>
		</g>
		<g>
			<g>
				<g>
					<path class="st3" d="M246.9,315c-1.6,0-2.9-1.3-2.9-2.9s1.3-2.9,2.9-2.9h76.7c1.6,0,2.9,1.3,2.9,2.9s-1.3,2.9-2.9,2.9H246.9z"
						/>
				</g>
			</g>
		</g>
	</g>
</g>
<g>
	<g>
		<g>
			<rect x="315.7" y="328.9" class="st5" width="86" height="56.2"/>
		</g>
	</g>
	<g>
		<g>
			<rect x="373.5" y="340.4" class="st9" width="16.9" height="10.2"/>
		</g>
	</g>
	<g>
		<g>
			<g>
				<g>
					<path class="st3" d="M318.4,387.8c-2.7,0-4.8-2.2-4.8-4.8V331c0-2.7,2.2-4.8,4.8-4.8h80.8c2.7,0,4.8,2.2,4.8,4.8V383
						c0,2.7-2.2,4.8-4.8,4.8H318.4z M318.4,330.1c-0.5,0-0.9,0.4-0.9,0.9V383c0,0.5,0.4,0.9,0.9,0.9h80.8c0.5,0,0.9-0.4,0.9-0.9V331
						c0-0.5-0.4-0.9-0.9-0.9H318.4z"/>
				</g>
			</g>
		</g>
		<g>
			<g>
				<g>
					<path class="st3" d="M329.9,376.2c-1.1,0-1.9-0.9-1.9-1.9s0.9-1.9,1.9-1.9h5.8c1.1,0,1.9,0.9,1.9,1.9s-0.9,1.9-1.9,1.9H329.9z"
						/>
				</g>
			</g>
		</g>
		<g>
			<g>
				<g>
					<path class="st3" d="M347.3,376.2c-1.1,0-1.9-0.9-1.9-1.9s0.9-1.9,1.9-1.9h5.8c1.1,0,1.9,0.9,1.9,1.9s-0.9,1.9-1.9,1.9H347.3z"
						/>
				</g>
			</g>
		</g>
		<g>
			<g>
				<g>
					<path class="st3" d="M364.6,376.2c-1.1,0-1.9-0.9-1.9-1.9s0.9-1.9,1.9-1.9h5.8c1.1,0,1.9,0.9,1.9,1.9s-0.9,1.9-1.9,1.9H364.6z"
						/>
				</g>
			</g>
		</g>
		<g>
			<g>
				<g>
					<path class="st3" d="M381.9,376.2c-1.1,0-1.9-0.9-1.9-1.9s0.9-1.9,1.9-1.9h5.8c1.1,0,1.9,0.9,1.9,1.9s-0.9,1.9-1.9,1.9H381.9z"
						/>
				</g>
			</g>
		</g>
		<g>
			<g>
				<g>
					<path class="st3" d="M348.7,356c-5,0-9.2-4.1-9.2-9.2c0-5,4.1-9.2,9.2-9.2c5,0,9.2,4.1,9.2,9.2
						C357.8,351.9,353.7,356,348.7,356z M348.7,341.6c-2.9,0-5.3,2.4-5.3,5.3c0,2.9,2.4,5.3,5.3,5.3c2.9,0,5.3-2.4,5.3-5.3
						C354,344,351.6,341.6,348.7,341.6z"/>
				</g>
			</g>
		</g>
		<g>
			<g>
				<g>
					<path class="st3" d="M334.3,356c-5,0-9.2-4.1-9.2-9.2c0-5,4.1-9.2,9.2-9.2c1.1,0,1.9,0.9,1.9,1.9s-0.9,1.9-1.9,1.9
						c-2.9,0-5.3,2.4-5.3,5.3c0,2.9,2.4,5.3,5.3,5.3c1.1,0,1.9,0.9,1.9,1.9S335.3,356,334.3,356z"/>
				</g>
			</g>
		</g>
		<g>
			<g>
				<g>
					<path class="st3" d="M373.2,353.2c-1.1,0-1.9-0.9-1.9-1.9v-11.5c0-1.1,0.9-1.9,1.9-1.9h17.3c1.1,0,1.9,0.9,1.9,1.9v11.5
						c0,1.1-0.9,1.9-1.9,1.9H373.2z M376.1,341.6c-0.5,0-0.9,0.4-0.9,0.9v5.8c0,0.5,0.4,0.9,0.9,0.9h11.5c0.5,0,0.9-0.4,0.9-0.9
						v-5.8c0-0.5-0.4-0.9-0.9-0.9H376.1z"/>
				</g>
			</g>
		</g>
	</g>
	<g>
		<g>
			<circle class="st9" cx="348.7" cy="346.9" r="5.3"/>
		</g>
	</g>
	<g>
		<g>
			<circle class="st9" cx="334.3" cy="346.9" r="5.3"/>
		</g>
	</g>
</g>
<g>
	<g>
		<g>
			<rect x="370.1" y="212.7" class="st5" width="62.3" height="52.5"/>
		</g>
	</g>
	<g>
		<g>
			<g>
				<g>
					<rect x="383.5" y="227.7" class="st3" width="2.8" height="2.8"/>
				</g>
			</g>
		</g>
		<g>
			<g>
				<g>
					<rect x="391.8" y="227.7" class="st3" width="2.8" height="2.8"/>
				</g>
			</g>
		</g>
		<g>
			<g>
				<g>
					<rect x="400.1" y="227.7" class="st3" width="2.8" height="2.8"/>
				</g>
			</g>
		</g>
		<g>
			<g>
				<g>
					<rect x="408.4" y="227.7" class="st3" width="2.8" height="2.8"/>
				</g>
			</g>
		</g>
		<g>
			<g>
				<g>
					<rect x="416.8" y="227.7" class="st3" width="2.8" height="2.8"/>
				</g>
			</g>
		</g>
		<g>
			<g>
				<g>
					<rect x="383.5" y="236.1" class="st3" width="2.8" height="2.8"/>
				</g>
			</g>
		</g>
		<g>
			<g>
				<g>
					<rect x="391.8" y="236.1" class="st3" width="2.8" height="2.8"/>
				</g>
			</g>
		</g>
		<g>
			<g>
				<g>
					<rect x="400.1" y="236.1" class="st3" width="2.8" height="2.8"/>
				</g>
			</g>
		</g>
		<g>
			<g>
				<g>
					<rect x="408.4" y="236.1" class="st3" width="2.8" height="2.8"/>
				</g>
			</g>
		</g>
		<g>
			<g>
				<g>
					<rect x="416.8" y="236.1" class="st3" width="2.8" height="2.8"/>
				</g>
			</g>
		</g>
		<g>
			<g>
				<g>
					<rect x="383.5" y="244.4" class="st3" width="2.8" height="2.8"/>
				</g>
			</g>
		</g>
		<g>
			<g>
				<g>
					<rect x="391.8" y="244.4" class="st3" width="2.8" height="2.8"/>
				</g>
			</g>
		</g>
		<g>
			<g>
				<g>
					<rect x="400.1" y="244.4" class="st3" width="2.8" height="2.8"/>
				</g>
			</g>
		</g>
		<g>
			<g>
				<g>
					<rect x="408.4" y="244.4" class="st3" width="2.8" height="2.8"/>
				</g>
			</g>
		</g>
		<g>
			<g>
				<g>
					<rect x="416.8" y="244.4" class="st3" width="2.8" height="2.8"/>
				</g>
			</g>
		</g>
		<g>
			<g>
				<g>
					<rect x="383.5" y="252.7" class="st3" width="2.8" height="2.8"/>
				</g>
			</g>
		</g>
		<g>
			<g>
				<g>
					<rect x="391.8" y="252.7" class="st3" width="2.8" height="2.8"/>
				</g>
			</g>
		</g>
		<g>
			<g>
				<g>
					<rect x="400.1" y="252.7" class="st3" width="2.8" height="2.8"/>
				</g>
			</g>
		</g>
		<g>
			<g>
				<g>
					<rect x="408.4" y="252.7" class="st3" width="2.8" height="2.8"/>
				</g>
			</g>
		</g>
		<g>
			<g>
				<g>
					<path class="st3" d="M370.3,268c-0.8,0-1.4-0.6-1.4-1.4v-54.7c0-0.8,0.6-1.4,1.4-1.4h8.3c0.4,0,0.7-0.3,0.7-0.7v-2.7
						c0-0.8,0.6-1.4,1.4-1.4c0.8,0,1.4,0.6,1.4,1.4v2.7c0,0.4,0.3,0.7,0.7,0.7h4.2c0.4,0,0.7-0.3,0.7-0.7v-2.7
						c0-0.8,0.6-1.4,1.4-1.4c0.8,0,1.4,0.6,1.4,1.4v2.7c0,0.4,0.3,0.7,0.7,0.7h4.2c0.4,0,0.7-0.3,0.7-0.7v-2.7
						c0-0.8,0.6-1.4,1.4-1.4c0.8,0,1.4,0.6,1.4,1.4v2.7c0,0.4,0.3,0.7,0.7,0.7h4.2c0.4,0,0.7-0.3,0.7-0.7v-2.7
						c0-0.8,0.6-1.4,1.4-1.4c0.8,0,1.4,0.6,1.4,1.4v2.7c0,0.4,0.3,0.7,0.7,0.7h4.2c0.4,0,0.7-0.3,0.7-0.7v-2.7
						c0-0.8,0.6-1.4,1.4-1.4c0.8,0,1.4,0.6,1.4,1.4v2.7c0,0.4,0.3,0.7,0.7,0.7h4.2c0.4,0,0.7-0.3,0.7-0.7v-2.7
						c0-0.8,0.6-1.4,1.4-1.4c0.8,0,1.4,0.6,1.4,1.4v2.7c0,0.4,0.3,0.7,0.7,0.7h8.3c0.8,0,1.4,0.6,1.4,1.4v54.7
						c0,0.8-0.6,1.4-1.4,1.4H370.3z M372.4,213.3c-0.4,0-0.7,0.3-0.7,0.7v50.5c0,0.4,0.3,0.7,0.7,0.7h58.2c0.4,0,0.7-0.3,0.7-0.7
						V214c0-0.4-0.3-0.7-0.7-0.7h-6.2c-0.4,0-0.7,0.3-0.7,0.7v2.7c0,0.8-0.6,1.4-1.4,1.4c-0.8,0-1.4-0.6-1.4-1.4V214
						c0-0.4-0.3-0.7-0.7-0.7h-4.2c-0.4,0-0.7,0.3-0.7,0.7v2.7c0,0.8-0.6,1.4-1.4,1.4c-0.8,0-1.4-0.6-1.4-1.4V214
						c0-0.4-0.3-0.7-0.7-0.7h-4.2c-0.4,0-0.7,0.3-0.7,0.7v2.7c0,0.8-0.6,1.4-1.4,1.4c-0.8,0-1.4-0.6-1.4-1.4V214
						c0-0.4-0.3-0.7-0.7-0.7h-4.2c-0.4,0-0.7,0.3-0.7,0.7v2.7c0,0.8-0.6,1.4-1.4,1.4c-0.8,0-1.4-0.6-1.4-1.4V214
						c0-0.4-0.3-0.7-0.7-0.7h-4.2c-0.4,0-0.7,0.3-0.7,0.7v2.7c0,0.8-0.6,1.4-1.4,1.4c-0.8,0-1.4-0.6-1.4-1.4V214
						c0-0.4-0.3-0.7-0.7-0.7h-4.2c-0.4,0-0.7,0.3-0.7,0.7v2.7c0,0.8-0.6,1.4-1.4,1.4c-0.8,0-1.4-0.6-1.4-1.4V214
						c0-0.4-0.3-0.7-0.7-0.7H372.4z"/>
				</g>
			</g>
		</g>
	</g>
</g>
<g>
	<g>
		<path class="st9" d="M572.4,237.8l-5-12.8l-6.5-3.1l4.7-12.4l-9.8,1.6l-2.1,4.5c0,0-5.9-1.1-7.7,2.8c-0.5,1-2,2.2-2,2.2l-10.2,2.3
			l-5.4-4.8c-6.8,1.6-11,5.1-12.9,7.2c-0.9,0.9-2.6,1.4-2.6,1.4l-5.8,11.6l5.4,16.9l8.7,7.2l3.7,9.9h7.8l2.9-6.7h3.6v0.5h6.4l2,6.2
			h9.4l2.4-9.5l7.7-5.2l2.9-6.4l7.6-0.8l0.5-12.6L572.4,237.8z"/>
	</g>
	<g>
		<g>
			<circle class="st5" cx="536.8" cy="213.1" r="9.2"/>
		</g>
	</g>
	<g>
		<g>
			<g>
				<g>
					<rect x="557.3" y="231.2" class="st3" width="3.1" height="3.1"/>
				</g>
			</g>
		</g>
		<g>
			<g>
				<g>
					<path class="st3" d="M536.8,225.1c-6.6,0-12-5.4-12-12s5.4-12,12-12s12,5.4,12,12S543.4,225.1,536.8,225.1z M536.8,204.2
						c-4.9,0-8.9,4-8.9,8.9c0,4.9,4,8.9,8.9,8.9c4.9,0,8.9-4,8.9-8.9C545.7,208.2,541.7,204.2,536.8,204.2z"/>
				</g>
			</g>
		</g>
		<g>
			<g>
				<g>
					<path class="st3" d="M547.2,273.8c-0.7,0-1.3-0.4-1.5-1.1l-1.8-5.4c-0.1-0.3-0.4-0.5-0.7-0.5h-5.9c-0.3,0-0.6,0.2-0.7,0.5
						l-1.8,5.4c-0.2,0.6-0.8,1.1-1.5,1.1H524c-0.7,0-1.3-0.5-1.5-1.2l-2.1-8.3c-0.1-0.2-0.2-0.4-0.4-0.5
						c-8.4-4.5-13.8-13.5-13.8-22.9c0-9,4.6-17.3,12.3-22.1c0.2-0.2,0.5-0.2,0.8-0.2c0.5,0,1,0.3,1.3,0.7c0.5,0.7,0.2,1.7-0.5,2.1
						c-6.8,4.2-10.9,11.5-10.9,19.4c0,8.7,5.1,16.8,13,20.6c0,0,0.1,0,0.1,0.1c0.1,0,0.1,0.1,0.2,0.2l0.1,0.1c0,0,0.1,0.1,0.1,0.1
						c0,0,0,0,0,0.1c0,0,0,0.1,0.1,0.1c0.1,0.1,0.1,0.2,0.2,0.3c0,0,0,0.1,0,0.1l1.9,7.4c0.1,0.3,0.4,0.6,0.7,0.6h5.8
						c0.3,0,0.6-0.2,0.7-0.5l1.8-5.4c0.2-0.6,0.8-1.1,1.5-1.1h9.3c0.7,0,1.3,0.4,1.5,1.1l1.8,5.4c0.1,0.3,0.4,0.5,0.7,0.5h5.8
						c0.3,0,0.7-0.2,0.7-0.6l1.9-7.5c0-0.1,0.1-0.2,0.1-0.2c0.1-0.1,0.1-0.2,0.1-0.3c0.1-0.1,0.1-0.2,0.2-0.2l0.1-0.1
						c0.1-0.1,0.1-0.1,0.1-0.1c0.1-0.1,0.2-0.1,0.3-0.2c0.1,0,0.1-0.1,0.2-0.1c8.4-2.3,9.2-10.1,9.2-10.2c0.1-0.8,0.7-1.4,1.6-1.4
						h5.8c0.4,0,0.8-0.3,0.8-0.8v-9.3c0-0.4-0.3-0.8-0.8-0.8h-3.7c-0.8,0-1.4-0.6-1.5-1.3c-1.2-8.1-4-12.6-9.3-15c0,0,0,0,0,0
						c-0.1,0-0.1-0.1-0.2-0.1c0,0-0.1-0.1-0.1-0.1c0,0-0.1-0.1-0.1-0.1c0,0-0.1-0.1-0.1-0.1c0,0,0-0.1-0.1-0.1c0,0-0.1-0.1-0.1-0.1
						c0,0-0.1-0.1-0.1-0.1c0,0,0-0.1,0-0.1c0,0,0-0.1,0-0.1c0,0,0-0.1,0-0.1c0,0,0-0.1,0-0.1c0,0,0-0.1,0-0.2c0-0.1,0-0.1,0-0.2
						c0-0.1,0-0.1,0-0.2c0,0,0,0,0-0.1l3.4-8.5c0.1-0.2,0.1-0.5-0.1-0.7c-0.1-0.2-0.4-0.3-0.6-0.3c0,0,0,0-0.1,0
						c-3.6,0.3-5.9,1.5-6.7,3.7c-0.2,0.6-0.8,1-1.5,1c-0.2,0-0.4,0-0.5-0.1c-0.4-0.1-0.7-0.4-0.9-0.8c-0.2-0.4-0.2-0.8,0-1.2
						c1.9-5,7.6-5.8,10.9-5.8c1.4,0,2.3,0.1,2.4,0.1c0.5,0.1,0.9,0.3,1.1,0.8c0.2,0.4,0.3,0.9,0.1,1.4l-3.9,9.7
						c-0.1,0.3,0,0.7,0.3,0.9c4.8,2.9,7.6,7.5,8.9,14.4c0.1,0.4,0.4,0.6,0.7,0.6h4.1c0.9,0,1.6,0.7,1.6,1.6v13.9
						c0,0.9-0.7,1.6-1.6,1.6h-6.3c-0.3,0-0.6,0.2-0.7,0.6c-0.8,2.9-3.1,8.2-9.9,10.5c-0.2,0.1-0.4,0.3-0.5,0.5l-2,8.1
						c-0.2,0.7-0.8,1.2-1.5,1.2H547.2z"/>
				</g>
			</g>
		</g>
	</g>
</g>
<g>
	<g>
		<g>
			<g>
				<g>
					<g>
						<g>
							<path class="st3" d="M432.6,100.9h-11.1c-0.9,0-1.7-0.8-1.7-1.7c0-0.9,0.8-1.7,1.7-1.7h11.1c0.9,0,1.7,0.8,1.7,1.7
								C434.3,100.1,433.6,100.9,432.6,100.9z"/>
						</g>
					</g>
				</g>
			</g>
		</g>
		<g>
			<g>
				<g>
					<g>
						<g>
							<path class="st3" d="M427.1,106.4c-0.9,0-1.7-0.8-1.7-1.7V93.6c0-0.9,0.8-1.7,1.7-1.7c0.9,0,1.7,0.8,1.7,1.7v11.1
								C428.7,105.7,428,106.4,427.1,106.4z"/>
						</g>
					</g>
				</g>
			</g>
		</g>
	</g>
</g>
</svg>
