<?xml version="1.0" encoding="utf-8"?>
<!-- Generator: Adobe Illustrator 21.0.2, SVG Export Plug-In . SVG Version: 6.00 Build 0)  -->
<svg version="1.1" id="Livello_1" xmlns="http://www.w3.org/2000/svg" xmlns:xlink="http://www.w3.org/1999/xlink" x="0px" y="0px"
	 viewBox="0 0 629 500.4" style="enable-background:new 0 0 629 500.4;" xml:space="preserve">
<style type="text/css">
	.st0{opacity:0.3;}
	.st1{fill:#E2E2E2;}
	.st2{fill:#73D7FF;}
	.st3{opacity:0.32;}
	.st4{fill:#003575;}
	.st5{fill:#BFDEFF;}
	.st6{fill:#FFFFFF;}
	.st7{fill:none;stroke:#295082;stroke-width:2;stroke-miterlimit:10;}
	.st8{fill:#E20613;}
</style>
<g class="st0">
	<path class="st1" d="M6.1,484.6c0-169.7,137.5-307.2,307.2-307.2s307.2,137.5,307.2,307.2"/>
</g>
<g class="st0">
	<path class="st2" d="M44.9,484.6c0-145,120.2-262.5,268.4-262.5s268.4,117.5,268.4,262.5"/>
</g>
<g class="st3">
	<path class="st2" d="M98.1,484.6c0-119.8,96.3-216.9,215.2-216.9s215.2,97.1,215.2,216.9"/>
</g>
<g>
	<path class="st4" d="M618.7,490.5H7.8c-1,0-1.8-0.8-1.8-1.8v-2.4c0-1,0.8-1.8,1.8-1.8h610.9c1,0,1.8,0.8,1.8,1.8v2.4
		C620.4,489.7,619.6,490.5,618.7,490.5z"/>
</g>
<g>
	<g>
		<g>
			<path class="st5" d="M560.2,168.7l-4.9-8.5h-12.6v-32.1h70.5v32.1h-48L560.2,168.7z M546,156.8h11.2l3,5.1l3-5.1h46.6v-25.3H546
				V156.8z"/>
		</g>
	</g>
	<g>
		<g>
			<path class="st5" d="M557.1,142.6h-14.5v-14.5h14.5V142.6z M546,139.2h7.7v-7.7H546V139.2z"/>
		</g>
	</g>
	<g>
		<g>
			<rect x="563.1" y="136.2" class="st5" width="34.9" height="3.4"/>
		</g>
	</g>
	<g>
		<g>
			<rect x="563.1" y="141.6" class="st5" width="34.9" height="3.4"/>
		</g>
	</g>
	<g>
		<g>
			<rect x="563.1" y="146.9" class="st5" width="34.9" height="3.4"/>
		</g>
	</g>
</g>
<g>
	<g>
		<g>
			<path class="st5" d="M334.6,56l-1-0.1c-2.6-0.3-5.2-1-7.6-2.2l-1-0.5l0.2-4.1l-4,1.3l-0.7-0.7c-1.8-1.8-3.3-3.9-4.3-6.3l-0.5-1
				l3.1-3.4l-4.5-1.9l-0.1-1c0-0.5-0.1-1.1-0.1-1.6c0-1.9,0.3-3.8,0.8-5.6l0.3-1.1l5.2-0.6l-2.5-4.8l0.6-0.9
				c1.4-1.9,3.2-3.5,5.1-4.8l0.9-0.6l4.7,3l1.2-5.4l1.1-0.2c2.3-0.4,4.6-0.5,7-0.2l1.1,0.1l1.6,5.2l4.2-3.2l1,0.6
				c2.1,1.2,4,2.8,5.6,4.6l0.7,0.8l-1.9,4.6l4.8,0.2l0.4,1.1c0.9,2.4,1.3,4.8,1.3,7.4l0,1.1l-0.9,0.5l-3,1.5l3.1,2.8l-0.4,1
				c-0.9,2.5-2.1,4.8-3.8,6.8l-0.7,0.8l-3.8-0.9l0.5,3.8l-0.9,0.6c-2.3,1.5-4.7,2.5-7.4,3l-1,0.2l-2.3-3L334.6,56z M328.6,51.2
				c1.4,0.6,2.9,1,4.4,1.3l3.5-5.6l3.9,5.2c1.5-0.4,2.9-1,4.3-1.7l-0.9-6.5l6.5,1.5c0.9-1.2,1.6-2.5,2.2-3.9l-5-4.6l6.4-3.3
				c-0.1-1.4-0.3-2.8-0.7-4.2l-7.4-0.3l3-7.1c-0.9-1-1.9-1.8-3-2.5l-6.3,4.8l-2.4-7.8c-1.3-0.1-2.5-0.1-3.8,0.1l-1.8,8l-6.8-4.4
				c-1,0.8-1.9,1.6-2.8,2.6l3.7,7.1l-7.7,1c-0.3,1.2-0.4,2.4-0.4,3.7c0,0.1,0,0.2,0,0.3l7,2.9l-4.9,5.3c0.7,1.3,1.5,2.5,2.5,3.5
				l6.7-2.1L328.6,51.2z"/>
		</g>
	</g>
	<g>
		<g>
			<path class="st5" d="M335.8,41.6c-4,0-7.2-3.2-7.2-7.2s3.2-7.2,7.2-7.2s7.2,3.2,7.2,7.2S339.7,41.6,335.8,41.6z M335.8,30.7
				c-2.1,0-3.8,1.7-3.8,3.8c0,2.1,1.7,3.8,3.8,3.8s3.8-1.7,3.8-3.8C339.5,32.4,337.8,30.7,335.8,30.7z"/>
		</g>
	</g>
</g>
<g>
	<g>
		<g>
			<g>
				<g>
					<g>
						<g>
							<g>
								<path class="st4" d="M317.6,137.9h-11.1c-0.9,0-1.7-0.8-1.7-1.7c0-0.9,0.8-1.7,1.7-1.7h11.1c0.9,0,1.7,0.8,1.7,1.7
									C319.3,137.1,318.6,137.9,317.6,137.9z"/>
							</g>
						</g>
					</g>
				</g>
			</g>
		</g>
		<g>
			<g>
				<g>
					<g>
						<g>
							<g>
								<path class="st4" d="M312.1,143.5c-0.9,0-1.7-0.8-1.7-1.7v-11.1c0-0.9,0.8-1.7,1.7-1.7c0.9,0,1.7,0.8,1.7,1.7v11.1
									C313.7,142.7,313,143.5,312.1,143.5z"/>
							</g>
						</g>
					</g>
				</g>
			</g>
		</g>
	</g>
</g>
<g>
	<g>
		<g>
			<g>
				<g>
					<g>
						<g>
							<g>
								<path class="st4" d="M240.1,463.8h-11.1c-0.9,0-1.7-0.8-1.7-1.7c0-0.9,0.8-1.7,1.7-1.7h11.1c0.9,0,1.7,0.8,1.7,1.7
									C241.8,463.1,241,463.8,240.1,463.8z"/>
							</g>
						</g>
					</g>
				</g>
			</g>
		</g>
		<g>
			<g>
				<g>
					<g>
						<g>
							<g>
								<path class="st4" d="M234.5,469.4c-0.9,0-1.7-0.8-1.7-1.7v-11.1c0-0.9,0.8-1.7,1.7-1.7c0.9,0,1.7,0.8,1.7,1.7v11.1
									C236.2,468.6,235.4,469.4,234.5,469.4z"/>
							</g>
						</g>
					</g>
				</g>
			</g>
		</g>
	</g>
</g>
<g>
	<g>
		<g>
			<g>
				<g>
					<g>
						<g>
							<g>
								<path class="st4" d="M528,291.6h-11.1c-0.9,0-1.7-0.8-1.7-1.7c0-0.9,0.8-1.7,1.7-1.7H528c0.9,0,1.7,0.8,1.7,1.7
									C529.7,290.8,528.9,291.6,528,291.6z"/>
							</g>
						</g>
					</g>
				</g>
			</g>
		</g>
		<g>
			<g>
				<g>
					<g>
						<g>
							<g>
								<path class="st4" d="M522.4,297.2c-0.9,0-1.7-0.8-1.7-1.7v-11.1c0-0.9,0.8-1.7,1.7-1.7c0.9,0,1.7,0.8,1.7,1.7v11.1
									C524.1,296.4,523.3,297.2,522.4,297.2z"/>
							</g>
						</g>
					</g>
				</g>
			</g>
		</g>
	</g>
</g>
<g>
	<g>
		<path class="st6" d="M148.5,293.8c-6.1,0-11.1-5-11.1-11.1s5-11.1,11.1-11.1c6.1,0,11.1,5,11.1,11.1S154.6,293.8,148.5,293.8z"/>
	</g>
	<g>
		<path class="st4" d="M148.5,273.1c5.3,0,9.6,4.3,9.6,9.6s-4.3,9.6-9.6,9.6s-9.6-4.3-9.6-9.6S143.2,273.1,148.5,273.1 M148.5,270.1
			c-7,0-12.6,5.6-12.6,12.6s5.6,12.6,12.6,12.6s12.6-5.6,12.6-12.6S155.5,270.1,148.5,270.1L148.5,270.1z"/>
	</g>
</g>
<g>
	<g>
		<path class="st6" d="M303.3,237.8c-6.1,0-11.1-5-11.1-11.1c0-6.1,5-11.1,11.1-11.1c6.1,0,11.1,5,11.1,11.1
			C314.4,232.9,309.5,237.8,303.3,237.8z"/>
	</g>
	<g>
		<path class="st4" d="M303.3,217.1c5.3,0,9.6,4.3,9.6,9.6s-4.3,9.6-9.6,9.6c-5.3,0-9.6-4.3-9.6-9.6S298,217.1,303.3,217.1
			 M303.3,214.1c-7,0-12.6,5.6-12.6,12.6s5.6,12.6,12.6,12.6c7,0,12.6-5.6,12.6-12.6S310.3,214.1,303.3,214.1L303.3,214.1z"/>
	</g>
</g>
<g>
	<g>
		<path class="st6" d="M453.1,357.1c-6.1,0-11.1-5-11.1-11.1s5-11.1,11.1-11.1c6.1,0,11.1,5,11.1,11.1S459.3,357.1,453.1,357.1z"/>
	</g>
	<g>
		<path class="st4" d="M453.1,336.4c5.3,0,9.6,4.3,9.6,9.6s-4.3,9.6-9.6,9.6s-9.6-4.3-9.6-9.6S447.8,336.4,453.1,336.4 M453.1,333.4
			c-7,0-12.6,5.6-12.6,12.6c0,7,5.6,12.6,12.6,12.6c7,0,12.6-5.6,12.6-12.6C465.7,339.1,460.1,333.4,453.1,333.4L453.1,333.4z"/>
	</g>
</g>
<g>
	<g>
		<path class="st6" d="M106.4,464.5c-6.1,0-11.1-5-11.1-11.1s5-11.1,11.1-11.1c6.1,0,11.1,5,11.1,11.1S112.6,464.5,106.4,464.5z"/>
	</g>
	<g>
		<path class="st4" d="M106.4,443.8c5.3,0,9.6,4.3,9.6,9.6s-4.3,9.6-9.6,9.6s-9.6-4.3-9.6-9.6S101.1,443.8,106.4,443.8 M106.4,440.8
			c-7,0-12.6,5.6-12.6,12.6s5.6,12.6,12.6,12.6s12.6-5.6,12.6-12.6S113.4,440.8,106.4,440.8L106.4,440.8z"/>
	</g>
</g>
<g>
	<g>
		<path class="st5" d="M102.9,87.3c-5.1,0-9.3-4.2-9.3-9.3c0-5.1,4.2-9.3,9.3-9.3c5.1,0,9.3,4.2,9.3,9.3
			C112.2,83.1,108,87.3,102.9,87.3z M102.9,72.1c-3.3,0-5.9,2.7-5.9,5.9c0,3.3,2.7,5.9,5.9,5.9c3.3,0,5.9-2.7,5.9-5.9
			C108.8,74.7,106.2,72.1,102.9,72.1z"/>
	</g>
</g>
<g>
	<g>
		<path class="st5" d="M59.9,286.2c-5.1,0-9.3-4.2-9.3-9.3c0-5.1,4.2-9.3,9.3-9.3c5.1,0,9.3,4.2,9.3,9.3
			C69.2,282.1,65,286.2,59.9,286.2z M59.9,271c-3.3,0-5.9,2.7-5.9,5.9c0,3.3,2.7,5.9,5.9,5.9c3.3,0,5.9-2.7,5.9-5.9
			C65.8,273.7,63.2,271,59.9,271z"/>
	</g>
</g>
<g>
	<g>
		<g>
			<g>
				<g>
					<g>
						<g>
							<g>
								<path class="st4" d="M116.5,144.1h-11.1c-0.9,0-1.7-0.8-1.7-1.7c0-0.9,0.8-1.7,1.7-1.7h11.1c0.9,0,1.7,0.8,1.7,1.7
									C118.2,143.3,117.4,144.1,116.5,144.1z"/>
							</g>
						</g>
					</g>
				</g>
			</g>
		</g>
		<g>
			<g>
				<g>
					<g>
						<g>
							<g>
								<path class="st4" d="M110.9,149.6c-0.9,0-1.7-0.8-1.7-1.7v-11.1c0-0.9,0.8-1.7,1.7-1.7c0.9,0,1.7,0.8,1.7,1.7V148
									C112.6,148.9,111.8,149.6,110.9,149.6z"/>
							</g>
						</g>
					</g>
				</g>
			</g>
		</g>
	</g>
</g>
<g>
</g>
<g>
	<path class="st7" d="M275.2,323.5"/>
</g>
<g>
	<path class="st7" d="M302.6,376.4"/>
</g>
<g>
	<g>
		<g>
			<g>
				<polygon class="st2" points="234.5,50.8 243,55 251.3,57.5 257.9,58.3 257,78 248.9,96.7 234.4,105.6 226.5,101.1 219.5,95.4 
					213.6,84.5 211,67.6 211.4,57.7 219.4,57.6 224.3,56.4 229.5,54.1 				"/>
			</g>
		</g>
	</g>
	<g>
		<g>
			<polygon class="st6" points="246.8,73.9 237.7,73.9 237.7,64.7 231,64.7 231,73.9 221.9,73.9 221.9,80.5 231,80.5 231,89.7 
				237.7,89.7 237.7,80.5 246.8,80.5 			"/>
		</g>
	</g>
	<g>
		<g>
			<g>
				<g>
					<g>
						<path class="st4" d="M234.5,106.5c-0.3,0-0.6,0-0.8-0.1c-24.4-7.4-24.5-38-24-47.3c0.1-1.6,1.4-2.8,3-2.8c0,0,0.1,0,0.1,0
							c0.5,0,1,0,1.5,0c9.3,0,16-4.5,18.4-6.4c0.5-0.4,1.1-0.6,1.8-0.6c0.6,0,1.3,0.2,1.8,0.6c2.4,1.9,9.1,6.4,18.4,6.4
							c0.5,0,1.1,0,1.6,0c0,0,0.1,0,0.1,0c1.5,0,2.9,1.2,2.9,2.8c0.5,9.2,0.4,39.9-24,47.3C235,106.5,234.8,106.5,234.5,106.5z
							 M212.6,58.8c-0.1,0-0.3,0.1-0.4,0.2c-0.1,0.1-0.2,0.3-0.2,0.4c-0.5,11.2,0.7,38.1,22.4,44.7c0.1,0,0.1,0,0.2,0
							c0.1,0,0.1,0,0.2,0c22.5-6.8,22.6-35.9,22.1-44.7c0-0.3-0.3-0.6-0.6-0.6c0,0,0,0,0,0c-0.5,0-1,0-1.5,0
							c-10,0-17.2-4.8-19.9-6.9c-0.1-0.1-0.2-0.1-0.4-0.1s-0.3,0-0.4,0.1c-2.6,2.1-9.9,6.9-19.9,6.9
							C213.7,58.9,213.2,58.9,212.6,58.8C212.6,58.8,212.6,58.8,212.6,58.8z"/>
					</g>
				</g>
			</g>
		</g>
		<g>
			<g>
				<g>
					<g>
						<path class="st4" d="M230.8,91.4c-0.7,0-1.2-0.5-1.2-1.2v-7.3c0-0.3-0.3-0.6-0.6-0.6h-7.3c-0.7,0-1.2-0.5-1.2-1.2v-7.3
							c0-0.7,0.5-1.2,1.2-1.2h7.3c0.3,0,0.6-0.3,0.6-0.6v-7.3c0-0.7,0.5-1.2,1.2-1.2h7.3c0.7,0,1.2,0.5,1.2,1.2v7.3
							c0,0.3,0.3,0.6,0.6,0.6h7.3c0.7,0,1.2,0.5,1.2,1.2V81c0,0.7-0.5,1.2-1.2,1.2H240c-0.3,0-0.6,0.3-0.6,0.6v7.3
							c0,0.7-0.5,1.2-1.2,1.2H230.8z M223.6,74.9c-0.3,0-0.6,0.3-0.6,0.6v3.6c0,0.3,0.3,0.6,0.6,0.6h7.3c0.7,0,1.2,0.5,1.2,1.2v7.3
							c0,0.3,0.3,0.6,0.6,0.6h3.6c0.3,0,0.6-0.3,0.6-0.6V81c0-0.7,0.5-1.2,1.2-1.2h7.3c0.3,0,0.6-0.3,0.6-0.6v-3.6
							c0-0.3-0.3-0.6-0.6-0.6h-7.3c-0.7,0-1.2-0.5-1.2-1.2v-7.3c0-0.3-0.3-0.6-0.6-0.6h-3.6c-0.3,0-0.6,0.3-0.6,0.6v7.3
							c0,0.7-0.5,1.2-1.2,1.2H223.6z"/>
					</g>
				</g>
			</g>
		</g>
	</g>
</g>
<g>
	<g>
		<g>
			<g>
				<circle class="st2" cx="575.3" cy="357.8" r="8.3"/>
			</g>
		</g>
	</g>
	<g>
		<g>
			<g>
				<g>
					<g>
						<path class="st4" d="M533.9,401.4c-2.7,0-4.8-2.1-4.8-4.8c0-2.7,2.1-4.8,4.8-4.8h25.2c1.3,0,2.4-1.1,2.4-2.4s-1.1-2.4-2.4-2.4
							h-10.8c-2.7,0-4.8-2.1-4.8-4.8v-3c0-0.3-0.2-0.5-0.5-0.6c-8-0.9-13.9-7.5-13.9-15.5v-12.6c0-0.7,0.5-1.2,1.2-1.2h5.4
							c0.3,0,0.6-0.2,0.6-0.6c0-0.7,0.5-1.2,1.2-1.2c0.7,0,1.2,0.5,1.2,1.2v3.6c0,0.7-0.5,1.2-1.2,1.2s-1.2-0.5-1.2-1.2
							c0-0.3-0.2-0.6-0.6-0.6h-3.6c-0.3,0-0.6,0.2-0.6,0.6v10.8c0,7.3,5.9,13.2,13.2,13.2s13.2-5.9,13.2-13.2v-10.7
							c0-0.3-0.2-0.6-0.6-0.6h-3.6c-0.3,0-0.6,0.2-0.6,0.6c0,0.7-0.5,1.2-1.2,1.2c-0.7,0-1.2-0.5-1.2-1.2v-3.6
							c0-0.7,0.5-1.2,1.2-1.2c0.7,0,1.2,0.5,1.2,1.2c0,0.3,0.2,0.6,0.6,0.6h5.4c0.7,0,1.2,0.5,1.2,1.2v12.6c0,8-6,14.7-13.9,15.5
							c-0.3,0-0.5,0.3-0.5,0.6v3c0,1.3,1.1,2.4,2.4,2.4h10.8c2.7,0,4.8,2.1,4.8,4.8c0,2.7-2.1,4.8-4.8,4.8h-25.2
							c-1.3,0-2.4,1.1-2.4,2.4s1.1,2.4,2.4,2.4h37.7c1.3,0,2.4-1.1,2.4-2.4v-28v-0.1c0-0.3-0.2-0.6-0.5-0.6c-4.9-0.8-8.5-5.1-8.5-10
							c0-5.6,4.6-10.2,10.2-10.2c5.6,0,10.2,4.6,10.2,10.2c0,5-3.6,9.3-8.5,10c-0.3,0.1-0.5,0.3-0.5,0.6v0.1v28
							c0,2.7-2.1,4.8-4.8,4.8C571.7,401.4,533.9,401.4,533.9,401.4z M575.3,350c-4.3,0-7.8,3.5-7.8,7.8c0,4.3,3.5,7.8,7.8,7.8
							s7.8-3.5,7.8-7.8C583.1,353.5,579.6,350,575.3,350z"/>
					</g>
				</g>
			</g>
		</g>
		<g>
			<g>
				<g>
					<g>
						<rect x="574.1" y="356.6" class="st4" width="2.4" height="2.4"/>
					</g>
				</g>
			</g>
		</g>
	</g>
</g>
<g>
	<g>
		<path class="st6" d="M467.8,178.2c-6.1,0-11.1-5-11.1-11.1c0-6.1,5-11.1,11.1-11.1c6.1,0,11.1,5,11.1,11.1
			C478.9,173.2,474,178.2,467.8,178.2z"/>
	</g>
	<g>
		<path class="st4" d="M467.8,157.5c5.3,0,9.6,4.3,9.6,9.6s-4.3,9.6-9.6,9.6s-9.6-4.3-9.6-9.6S462.5,157.5,467.8,157.5 M467.8,154.5
			c-7,0-12.6,5.6-12.6,12.6s5.6,12.6,12.6,12.6s12.6-5.6,12.6-12.6S474.8,154.5,467.8,154.5L467.8,154.5z"/>
	</g>
</g>
<g>
	<g>
		<g>
			<g>
				<polygon class="st6" points="230.5,286.2 230.5,410.4 248.4,397.3 260.5,411.9 273.6,398.1 286.3,412.7 297.7,398.1 
					310.7,412.7 325.7,396.2 339.9,411 339.9,286.2 				"/>
			</g>
		</g>
	</g>
	<g>
		<g>
			<g>
				<g>
					<g>
						<path class="st4" d="M229.9,416.2c-0.4,0-0.7-0.1-1.1-0.2c-1.1-0.4-1.8-1.5-1.8-2.6V285.6c0-1.6,1.3-2.9,2.9-2.9h110.7
							c1.6,0,2.9,1.3,2.9,2.9v127.8c0,1.2-0.7,2.2-1.8,2.6c-0.4,0.1-0.7,0.2-1.1,0.2c-0.8,0-1.5-0.3-2-0.8L325,401.8
							c-0.3-0.3-0.6-0.4-1-0.4c0,0-0.1,0-0.1,0c-0.4,0-0.8,0.2-1,0.6l-9.8,13.1c-0.5,0.7-1.4,1.1-2.3,1.1c-0.9,0-1.8-0.4-2.3-1.1
							l-9.4-12.5c-0.3-0.4-0.7-0.6-1.1-0.6c-0.4,0-0.9,0.2-1.1,0.6l-9.4,12.5c-0.5,0.7-1.4,1.1-2.3,1.1c-0.9,0-1.7-0.4-2.3-1.1
							l-9.4-12.5c-0.3-0.4-0.7-0.6-1.1-0.6c-0.4,0-0.9,0.2-1.1,0.6L262,415c-0.5,0.7-1.4,1.1-2.3,1.1c-0.9,0-1.8-0.4-2.3-1.1
							l-9.8-13.1c-0.2-0.3-0.6-0.5-1-0.6c0,0-0.1,0-0.1,0c-0.4,0-0.7,0.1-1,0.4l-13.6,13.6C231.4,415.9,230.6,416.2,229.9,416.2z
							 M272.5,393.4c0.9,0,1.7,0.4,2.3,1.1l9.4,12.5c0.3,0.4,0.7,0.6,1.1,0.6h0c0.4,0,0.9-0.2,1.1-0.6l9.4-12.5
							c0.5-0.7,1.4-1.1,2.3-1.1c0.9,0,1.8,0.4,2.3,1.1l9.4,12.5c0.3,0.4,0.7,0.6,1.1,0.6h0c0.4,0,0.9-0.2,1.1-0.6l9.3-12.5
							c0.5-0.7,1.3-1.1,2.1-1.1c0.1,0,0.2,0,0.2,0c0.7,0,1.5,0.3,2,0.8l9.8,9.8c0.3,0.3,0.6,0.4,1,0.4c0.2,0,0.4,0,0.5-0.1
							c0.5-0.2,0.9-0.7,0.9-1.3V289.8c0-0.8-0.6-1.4-1.4-1.4H234.1c-0.8,0-1.4,0.6-1.4,1.4V403c0,0.6,0.3,1.1,0.9,1.3
							c0.2,0.1,0.4,0.1,0.5,0.1c0.4,0,0.7-0.1,1-0.4l9.8-9.8c0.5-0.5,1.3-0.8,2-0.8c0.1,0,0.1,0,0.2,0c0.9,0.1,1.6,0.5,2.1,1.1
							l9.3,12.5c0.3,0.4,0.7,0.6,1.1,0.6h0c0.4,0,0.9-0.2,1.1-0.6l9.4-12.5C270.7,393.8,271.6,393.4,272.5,393.4z"/>
					</g>
				</g>
			</g>
		</g>
		<g>
			<g>
				<g>
					<g>
						<path class="st2" d="M246.9,335.3c-1.6,0-2.9-1.3-2.9-2.9s1.3-2.9,2.9-2.9h8.5c1.6,0,2.9,1.3,2.9,2.9s-1.3,2.9-2.9,2.9H246.9z
							"/>
					</g>
				</g>
			</g>
		</g>
		<g>
			<g>
				<g>
					<g>
						<path class="st2" d="M272.5,335.3c-1.6,0-2.9-1.3-2.9-2.9s1.3-2.9,2.9-2.9h50.4c1.6,0,2.9,1.3,2.9,2.9s-1.3,2.9-2.9,2.9H272.5
							z"/>
					</g>
				</g>
			</g>
		</g>
		<g>
			<g>
				<g>
					<g>
						<path class="st2" d="M246.9,352.3c-1.6,0-2.9-1.3-2.9-2.9c0-1.6,1.3-2.9,2.9-2.9h8.5c1.6,0,2.9,1.3,2.9,2.9
							c0,1.6-1.3,2.9-2.9,2.9H246.9z"/>
					</g>
				</g>
			</g>
		</g>
		<g>
			<g>
				<g>
					<g>
						<path class="st2" d="M272.5,352.3c-1.6,0-2.9-1.3-2.9-2.9c0-1.6,1.3-2.9,2.9-2.9h50.4c1.6,0,2.9,1.3,2.9,2.9
							c0,1.6-1.3,2.9-2.9,2.9H272.5z"/>
					</g>
				</g>
			</g>
		</g>
		<g>
			<g>
				<g>
					<g>
						<path class="st2" d="M246.9,369.3c-1.6,0-2.9-1.3-2.9-2.9c0-1.6,1.3-2.9,2.9-2.9h8.5c1.6,0,2.9,1.3,2.9,2.9
							c0,1.6-1.3,2.9-2.9,2.9H246.9z"/>
					</g>
				</g>
			</g>
		</g>
		<g>
			<g>
				<g>
					<g>
						<path class="st2" d="M272.5,369.3c-1.6,0-2.9-1.3-2.9-2.9c0-1.6,1.3-2.9,2.9-2.9h50.4c1.6,0,2.9,1.3,2.9,2.9
							c0,1.6-1.3,2.9-2.9,2.9H272.5z"/>
					</g>
				</g>
			</g>
		</g>
		<g>
			<g>
				<g>
					<g>
						<path class="st4" d="M246.9,314c-1.6,0-2.9-1.3-2.9-2.9c0-1.6,1.3-2.9,2.9-2.9h76.7c1.6,0,2.9,1.3,2.9,2.9
							c0,1.6-1.3,2.9-2.9,2.9H246.9z"/>
					</g>
				</g>
			</g>
		</g>
	</g>
</g>
<g>
	<g>
		<g>
			<g>
				<rect x="378.4" y="203.3" class="st6" width="62.3" height="52.5"/>
			</g>
		</g>
	</g>
	<g>
		<g>
			<g>
				<g>
					<g>
						<rect x="391.8" y="218.4" class="st4" width="2.8" height="2.8"/>
					</g>
				</g>
			</g>
		</g>
		<g>
			<g>
				<g>
					<g>
						<rect x="400.1" y="218.4" class="st4" width="2.8" height="2.8"/>
					</g>
				</g>
			</g>
		</g>
		<g>
			<g>
				<g>
					<g>
						<rect x="408.4" y="218.4" class="st4" width="2.8" height="2.8"/>
					</g>
				</g>
			</g>
		</g>
		<g>
			<g>
				<g>
					<g>
						<rect x="416.8" y="218.4" class="st4" width="2.8" height="2.8"/>
					</g>
				</g>
			</g>
		</g>
		<g>
			<g>
				<g>
					<g>
						<rect x="425.1" y="218.4" class="st4" width="2.8" height="2.8"/>
					</g>
				</g>
			</g>
		</g>
		<g>
			<g>
				<g>
					<g>
						<rect x="391.8" y="226.7" class="st4" width="2.8" height="2.8"/>
					</g>
				</g>
			</g>
		</g>
		<g>
			<g>
				<g>
					<g>
						<rect x="400.1" y="226.7" class="st4" width="2.8" height="2.8"/>
					</g>
				</g>
			</g>
		</g>
		<g>
			<g>
				<g>
					<g>
						<rect x="408.4" y="226.7" class="st4" width="2.8" height="2.8"/>
					</g>
				</g>
			</g>
		</g>
		<g>
			<g>
				<g>
					<g>
						<rect x="416.8" y="226.7" class="st4" width="2.8" height="2.8"/>
					</g>
				</g>
			</g>
		</g>
		<g>
			<g>
				<g>
					<g>
						<rect x="425.1" y="226.7" class="st4" width="2.8" height="2.8"/>
					</g>
				</g>
			</g>
		</g>
		<g>
			<g>
				<g>
					<g>
						<rect x="391.8" y="235.1" class="st4" width="2.8" height="2.8"/>
					</g>
				</g>
			</g>
		</g>
		<g>
			<g>
				<g>
					<g>
						<rect x="400.1" y="235.1" class="st4" width="2.8" height="2.8"/>
					</g>
				</g>
			</g>
		</g>
		<g>
			<g>
				<g>
					<g>
						<rect x="408.4" y="235.1" class="st4" width="2.8" height="2.8"/>
					</g>
				</g>
			</g>
		</g>
		<g>
			<g>
				<g>
					<g>
						<rect x="416.8" y="235.1" class="st4" width="2.8" height="2.8"/>
					</g>
				</g>
			</g>
		</g>
		<g>
			<g>
				<g>
					<g>
						<rect x="425.1" y="235.1" class="st4" width="2.8" height="2.8"/>
					</g>
				</g>
			</g>
		</g>
		<g>
			<g>
				<g>
					<g>
						<rect x="391.8" y="243.4" class="st4" width="2.8" height="2.8"/>
					</g>
				</g>
			</g>
		</g>
		<g>
			<g>
				<g>
					<g>
						<rect x="400.1" y="243.4" class="st4" width="2.8" height="2.8"/>
					</g>
				</g>
			</g>
		</g>
		<g>
			<g>
				<g>
					<g>
						<rect x="408.4" y="243.4" class="st4" width="2.8" height="2.8"/>
					</g>
				</g>
			</g>
		</g>
		<g>
			<g>
				<g>
					<g>
						<rect x="416.8" y="243.4" class="st4" width="2.8" height="2.8"/>
					</g>
				</g>
			</g>
		</g>
		<g>
			<g>
				<g>
					<g>
						<path class="st4" d="M378.7,258.6c-0.8,0-1.4-0.6-1.4-1.4v-54.7c0-0.8,0.6-1.4,1.4-1.4h8.3c0.4,0,0.7-0.3,0.7-0.7v-2.7
							c0-0.8,0.6-1.4,1.4-1.4c0.8,0,1.4,0.6,1.4,1.4v2.7c0,0.4,0.3,0.7,0.7,0.7h4.2c0.4,0,0.7-0.3,0.7-0.7v-2.7
							c0-0.8,0.6-1.4,1.4-1.4c0.8,0,1.4,0.6,1.4,1.4v2.7c0,0.4,0.3,0.7,0.7,0.7h4.2c0.4,0,0.7-0.3,0.7-0.7v-2.7
							c0-0.8,0.6-1.4,1.4-1.4c0.8,0,1.4,0.6,1.4,1.4v2.7c0,0.4,0.3,0.7,0.7,0.7h4.2c0.4,0,0.7-0.3,0.7-0.7v-2.7
							c0-0.8,0.6-1.4,1.4-1.4c0.8,0,1.4,0.6,1.4,1.4v2.7c0,0.4,0.3,0.7,0.7,0.7h4.2c0.4,0,0.7-0.3,0.7-0.7v-2.7
							c0-0.8,0.6-1.4,1.4-1.4c0.8,0,1.4,0.6,1.4,1.4v2.7c0,0.4,0.3,0.7,0.7,0.7h4.2c0.4,0,0.7-0.3,0.7-0.7v-2.7
							c0-0.8,0.6-1.4,1.4-1.4c0.8,0,1.4,0.6,1.4,1.4v2.7c0,0.4,0.3,0.7,0.7,0.7h8.3c0.8,0,1.4,0.6,1.4,1.4v54.7
							c0,0.8-0.6,1.4-1.4,1.4H378.7z M380.7,204c-0.4,0-0.7,0.3-0.7,0.7v50.5c0,0.4,0.3,0.7,0.7,0.7h58.2c0.4,0,0.7-0.3,0.7-0.7
							v-50.5c0-0.4-0.3-0.7-0.7-0.7h-6.2c-0.4,0-0.7,0.3-0.7,0.7v2.7c0,0.8-0.6,1.4-1.4,1.4c-0.8,0-1.4-0.6-1.4-1.4v-2.7
							c0-0.4-0.3-0.7-0.7-0.7h-4.2c-0.4,0-0.7,0.3-0.7,0.7v2.7c0,0.8-0.6,1.4-1.4,1.4c-0.8,0-1.4-0.6-1.4-1.4v-2.7
							c0-0.4-0.3-0.7-0.7-0.7h-4.2c-0.4,0-0.7,0.3-0.7,0.7v2.7c0,0.8-0.6,1.4-1.4,1.4c-0.8,0-1.4-0.6-1.4-1.4v-2.7
							c0-0.4-0.3-0.7-0.7-0.7h-4.2c-0.4,0-0.7,0.3-0.7,0.7v2.7c0,0.8-0.6,1.4-1.4,1.4c-0.8,0-1.4-0.6-1.4-1.4v-2.7
							c0-0.4-0.3-0.7-0.7-0.7h-4.2c-0.4,0-0.7,0.3-0.7,0.7v2.7c0,0.8-0.6,1.4-1.4,1.4c-0.8,0-1.4-0.6-1.4-1.4v-2.7
							c0-0.4-0.3-0.7-0.7-0.7h-4.2c-0.4,0-0.7,0.3-0.7,0.7v2.7c0,0.8-0.6,1.4-1.4,1.4c-0.8,0-1.4-0.6-1.4-1.4v-2.7
							c0-0.4-0.3-0.7-0.7-0.7H380.7z"/>
					</g>
				</g>
			</g>
		</g>
	</g>
</g>
<g>
	<g>
		<g>
			<g>
				<g>
					<circle class="st6" cx="335.8" cy="401.3" r="35.7"/>
				</g>
			</g>
		</g>
	</g>
	<g>
		<g>
			<g>
				<g>
					<g>
						<g>
							<path class="st4" d="M335.8,436.7c-19.5,0-35.4-15.9-35.4-35.4s15.9-35.4,35.4-35.4c4,0,8.1,0.7,12.1,2.2
								c3.8,1.4,7.2,3.3,10.1,5.7c3.7,3,6.7,6.6,8.9,10.8c0.2,0.4,0.4,0.7,0.6,1.1l0.3,0.6c0.5,1.1,1,2.1,1.4,3.2l0.1,0.2
								c0.5,1.3,0.9,2.8,1.2,4.4l0.1,0.3c0.1,0.4,0.2,0.9,0.2,1.3c0.1,0.5,0.1,1,0.2,1.5c0.2,1.6,0.3,2.8,0.3,4
								c0,1.2-0.1,2.5-0.2,3.9c-0.1,1.3-0.4,2.5-0.7,3.9l-0.1,0.6c-0.3,1.3-0.6,2.2-0.9,3.2c-0.1,0.4-0.3,0.7-0.4,1.1
								c-0.3,0.8-0.7,1.7-1.1,2.6l-0.2,0.3c-0.1,0.3-0.2,0.5-0.4,0.8c-0.4,0.7-0.9,1.5-1.5,2.5c-0.7,1.1-1.5,2.2-2.2,3.1
								c-0.4,0.5-0.8,1-1.3,1.5c-0.4,0.5-0.6,0.7-0.9,0.9c-0.4,0.4-0.9,0.9-1.4,1.4c-0.2,0.2-0.4,0.4-0.7,0.6
								c-0.6,0.5-1.1,1-1.7,1.4l-0.3,0.2c-3,2.3-6.2,4-9.7,5.3c-1,0.4-1.8,0.6-2.7,0.9l-0.6,0.2c-0.7,0.2-1.5,0.4-2.3,0.5
								c-0.5,0.1-0.9,0.1-1.3,0.2l-0.5-1.4l0.2,1.4c-0.5,0.1-0.9,0.1-1.4,0.2C337.8,436.7,336.7,436.7,335.8,436.7z M335.8,368.8
								c-17.9,0-32.5,14.6-32.5,32.5s14.6,32.5,32.5,32.5c0.9,0,1.8,0,3-0.2c0.4,0,0.8-0.1,1.3-0.2l0.3,0c0.4-0.1,0.8-0.1,1.2-0.2
								c0.7-0.1,1.4-0.3,2.1-0.4l0.6-0.1c0.8-0.2,1.6-0.5,2.3-0.7c3.4-1.2,6.3-2.8,9-4.9l1.2,0.9l-0.9-1.1c0.5-0.4,1-0.8,1.6-1.3
								l0.6-0.5c0.5-0.5,0.9-0.9,1.3-1.3c0.2-0.2,0.4-0.4,0.6-0.6c0.6-0.7,1-1.1,1.4-1.6c0.7-0.9,1.3-1.8,2-2.9
								c0.6-0.9,1-1.6,1.3-2.3c0.1-0.2,0.2-0.5,0.3-0.7l0.2-0.4c0.4-0.8,0.7-1.6,1-2.4c0.1-0.3,0.2-0.6,0.4-1
								c0.3-0.9,0.6-1.8,0.8-2.7l0.2-0.8c0.3-1.3,0.5-2.4,0.6-3.6c0.1-1.3,0.2-2.5,0.2-3.6c0-1.1-0.1-2.2-0.2-3.7
								c-0.1-0.5-0.1-0.9-0.2-1.4c-0.1-0.4-0.1-0.8-0.2-1.2l-0.1-0.3c-0.3-1.6-0.7-3-1.2-4.2l-0.1-0.3c-0.4-1-0.8-1.8-1.1-2.6
								l-0.3-0.7c-0.1-0.3-0.3-0.6-0.5-1c-2.1-3.9-4.8-7.2-8.2-9.9c-2.8-2.2-5.9-4-9.4-5.3C343.2,369.5,339.4,368.8,335.8,368.8z"/>
						</g>
					</g>
				</g>
			</g>
		</g>
		<g>
			<g>
				<g>
					<g>
						<g>
							<path class="st4" d="M323.5,351c-1.5,0-2.7-1.2-2.7-2.7v-8.2c0-1.5,1.2-2.7,2.7-2.7s2.7,1.2,2.7,2.7v8.2
								C326.3,349.8,325,351,323.5,351z"/>
						</g>
					</g>
				</g>
			</g>
		</g>
		<g>
			<g>
				<g>
					<g>
						<g>
							<path class="st4" d="M303.1,363.3c-0.7,0-1.4-0.3-1.9-0.8l-4.1-4.1c-1.1-1.1-1.1-2.8,0-3.9c0.5-0.5,1.2-0.8,1.9-0.8
								c0.7,0,1.4,0.3,1.9,0.8l4.1,4.1c1.1,1.1,1.1,2.8,0,3.9C304.5,363,303.9,363.3,303.1,363.3z"/>
						</g>
					</g>
				</g>
			</g>
		</g>
	</g>
</g>
<g>
	<g>
		<g>
			<g>
				<rect x="317.1" y="414.7" class="st2" width="30.8" height="5.5"/>
			</g>
		</g>
	</g>
	<g>
		<g>
			<g>
				<rect x="334.6" y="408.2" class="st6" width="7.6" height="6.9"/>
			</g>
		</g>
	</g>
	<g>
		<g>
			<g>
				<polygon class="st2" points="339.4,392.3 332.7,399 328.7,395 335.6,388.1 				"/>
			</g>
		</g>
	</g>
	<g>
		<g>
			<g>
				<polygon class="st2" points="349.1,382.6 342.4,389.4 338.3,385.3 345.2,378.4 				"/>
			</g>
		</g>
	</g>
	<g>
		<g>
			<g>
				<polygon class="st6" points="328.3,395.9 324.6,399.6 328,403.1 331.9,399.2 				"/>
			</g>
		</g>
	</g>
	<g>
		<g>
			<g>
				<circle class="st6" cx="340.4" cy="387.2" r="4"/>
			</g>
		</g>
	</g>
	<g>
		<g>
			<g>
				<g>
					<g>
						<path class="st4" d="M345.5,387.8c0-0.1,0.1-0.2,0.1-0.3l4.5-4.5c0.4-0.4,0.4-1,0-1.3l-4.2-4.2c-0.2-0.2-0.4-0.3-0.7-0.3
							c-0.3,0-0.5,0.1-0.7,0.3l-4.5,4.5c-0.1,0.1-0.2,0.1-0.3,0.1c-2.4,0.3-4.3,2.2-4.6,4.6c0,0.1-0.1,0.2-0.1,0.3l-6.4,6.4
							c-0.1,0.1-0.2,0.1-0.3,0.1c-0.1,0-0.2,0-0.3-0.1l-0.4-0.4c-0.2-0.2-0.4-0.3-0.7-0.3c-0.3,0-0.5,0.1-0.7,0.3
							c-0.2,0.2-0.3,0.4-0.3,0.7c0,0.3,0.1,0.5,0.3,0.7l0.4,0.4c0.2,0.2,0.2,0.5,0,0.7l-3.2,3.2c-0.2,0.2-0.3,0.4-0.3,0.7
							c0,0.3,0.1,0.5,0.3,0.7l4.2,4.2c0.2,0.2,0.4,0.3,0.7,0.3c0.3,0,0.5-0.1,0.7-0.3l3.2-3.2c0.1-0.1,0.2-0.1,0.3-0.1
							c0.1,0,0.2,0,0.3,0.1l0.4,0.4c0.2,0.2,0.4,0.3,0.7,0.3c0.3,0,0.5-0.1,0.7-0.3c0.4-0.4,0.4-1,0-1.3l-0.4-0.4
							c-0.1-0.1-0.1-0.2-0.1-0.3c0-0.1,0-0.2,0.1-0.3l6.4-6.4c0.1-0.1,0.2-0.1,0.3-0.1c1.2-0.1,2.4-0.7,3.2-1.6
							c0.1-0.1,0.2-0.1,0.3-0.1c0,0,0,0,0,0c0.1,0,0.3,0.1,0.3,0.2c1.5,2,2.3,4.4,2.3,7c0,3.9-1.9,7.5-5.2,9.7c0,0-0.1,0.1-0.1,0.1
							c-0.1,0.1-0.2,0.1-0.3,0.1c-0.1,0-0.2,0-0.3-0.1c-0.9-0.6-1.9-1-3-1H320c-0.5,0-0.9,0.4-0.9,0.9c0,0.5,0.4,0.9,0.9,0.9h13.4
							c0.2,0,0.3,0.1,0.4,0.2c0.1,0.1,0.1,0.3,0,0.5c-0.5,0.8-0.7,1.7-0.7,2.6v1.4c0,0.3-0.2,0.5-0.5,0.5h-15.4
							c-0.5,0-0.9,0.4-0.9,0.9v5.6c0,0.5,0.4,0.9,0.9,0.9h30.9c0.5,0,0.9-0.4,0.9-0.9v-5.6c0-0.5-0.4-0.9-0.9-0.9h-4.2
							c-0.3,0-0.5-0.2-0.5-0.5v-1.4c0-0.8-0.2-1.5-0.5-2.2c-0.1-0.2,0-0.5,0.2-0.6c3.7-2.5,6-6.7,6-11.2c0-3.3-1.2-6.6-3.5-9.1l0,0
							c-0.1-0.1-0.1-0.3-0.1-0.4C345.5,388.1,345.5,388,345.5,387.8z M335,411.8c0-1.8,1.5-3.3,3.3-3.3c1.8,0,3.3,1.5,3.3,3.3v1.4
							c0,0.3-0.2,0.5-0.5,0.5h-5.6c-0.3,0-0.5-0.2-0.5-0.5V411.8z M346.7,415.6c0.3,0,0.5,0.2,0.5,0.5v2.8c0,0.3-0.2,0.5-0.5,0.5
							h-28.1c-0.3,0-0.5-0.2-0.5-0.5V416c0-0.3,0.2-0.5,0.5-0.5H346.7z M331,399.5l-2.2,2.2c-0.1,0.1-0.2,0.1-0.3,0.1
							c-0.1,0-0.2,0-0.3-0.1l-2.2-2.2c-0.1-0.1-0.1-0.2-0.1-0.3c0-0.1,0-0.2,0.1-0.3l2.2-2.2c0.1-0.1,0.2-0.1,0.3-0.1
							c0.1,0,0.2,0,0.3,0.1l2.2,2.2C331.2,399,331.2,399.3,331,399.5z M338,392.5l-5,5c-0.1,0.1-0.2,0.1-0.3,0.1
							c-0.1,0-0.2,0-0.3-0.1l-2.2-2.2c-0.1-0.1-0.1-0.2-0.1-0.3c0-0.1,0-0.2,0.1-0.3l5-5c0.1-0.1,0.2-0.1,0.3-0.1c0,0,0,0,0.1,0
							c0.1,0,0.3,0.1,0.3,0.2l0,0c0,0.1,0.1,0.2,0.1,0.2l0.1,0.1c0.1,0.1,0.1,0.2,0.2,0.3c0,0,0,0,0,0c0.1,0.1,0.1,0.2,0.2,0.2
							l0.1,0.1c0.1,0.2,0.3,0.3,0.5,0.5l0.1,0.1c0.1,0.1,0.2,0.1,0.2,0.2l0,0c0.1,0.1,0.2,0.1,0.3,0.2l0.1,0c0.1,0,0.1,0.1,0.2,0.1
							l0,0c0.1,0.1,0.2,0.2,0.2,0.3C338.2,392.2,338.1,392.4,338,392.5z M340.4,390.5c-1.8,0-3.3-1.5-3.3-3.3c0-1.8,1.5-3.3,3.3-3.3
							c1.8,0,3.3,1.5,3.3,3.3C343.6,389,342.2,390.5,340.4,390.5z M345.3,385C345.3,385,345.3,385,345.3,385c-0.2,0-0.3-0.1-0.4-0.2
							l0,0c0-0.1-0.1-0.2-0.1-0.2l-0.1-0.1c-0.1-0.1-0.1-0.2-0.2-0.3c0,0,0,0,0,0c-0.1-0.1-0.1-0.2-0.2-0.2l-0.1-0.1
							c-0.1-0.2-0.3-0.3-0.5-0.5l-0.1-0.1c-0.1-0.1-0.2-0.1-0.2-0.2l0,0c-0.1-0.1-0.2-0.1-0.3-0.2l-0.1-0.1c-0.1,0-0.1-0.1-0.2-0.1
							l0,0c-0.1-0.1-0.2-0.2-0.2-0.3c0-0.1,0-0.3,0.1-0.4l2.2-2.2c0.1-0.1,0.2-0.1,0.3-0.1c0.1,0,0.2,0,0.3,0.1l2.2,2.2
							c0.1,0.1,0.1,0.2,0.1,0.3c0,0.1,0,0.2-0.1,0.3l-2.2,2.2C345.5,385,345.4,385,345.3,385z"/>
					</g>
				</g>
			</g>
		</g>
		<g>
			<g>
				<g>
					<g>
						<circle class="st4" cx="340.4" cy="387.2" r="0.9"/>
					</g>
				</g>
			</g>
		</g>
	</g>
</g>
<g>
	<path class="st8" d="M195.1,420.8c-0.9,0-1.8-0.4-2.4-1.2c-1-1.3-0.8-3.2,0.5-4.2l167.6-130.3c1.3-1,3.2-0.8,4.2,0.5
		c1,1.3,0.8,3.2-0.5,4.2L196.9,420.2C196.4,420.6,195.7,420.8,195.1,420.8z"/>
</g>
<g>
	<g>
		<rect x="427.2" y="408" class="st6" width="50.1" height="40.5"/>
	</g>
	<g>
		<polygon class="st2" points="445.8,419.7 445.8,439.6 461.1,429.6 		"/>
	</g>
	<g>
		<g>
			<g>
				<g>
					<path class="st4" d="M461.5,427.5l-13.8-9.4c-0.8-0.5-1.7-0.6-2.6-0.1c-0.8,0.4-1.3,1.3-1.3,2.2V439c0,0.9,0.5,1.8,1.3,2.2
						c0.4,0.2,0.8,0.3,1.2,0.3c0.5,0,1-0.1,1.4-0.4l13.8-9.4c0.7-0.5,1.1-1.2,1.1-2.1C462.6,428.8,462.1,428,461.5,427.5z
						 M447.2,437.3v-15.4l11.3,7.7L447.2,437.3z"/>
				</g>
			</g>
		</g>
		<g>
			<g>
				<g>
					<path class="st4" d="M475,407.4h-45.3c-2.6,0-4.7,2.1-4.7,4.7v35.1c0,2.6,2.1,4.7,4.7,4.7H475c2.6,0,4.7-2.1,4.7-4.7v-35.1
						C479.6,409.5,477.5,407.4,475,407.4z M476.2,447.1c0,0.7-0.6,1.2-1.2,1.2h-45.3c-0.7,0-1.2-0.6-1.2-1.2v-35.1
						c0-0.7,0.6-1.2,1.2-1.2H475c0.7,0,1.2,0.6,1.2,1.2V447.1z"/>
				</g>
			</g>
		</g>
	</g>
</g>
<g>
	<g>
		<g>
			<g>
				<rect x="376.9" y="118.6" class="st2" width="10.3" height="23.9"/>
			</g>
		</g>
	</g>
	<g>
		<g>
			<g>
				<rect x="396.3" y="118.6" class="st6" width="10.3" height="23.9"/>
			</g>
		</g>
	</g>
	<g>
		<g>
			<g>
				<rect x="415.7" y="118.6" class="st2" width="10.3" height="23.9"/>
			</g>
		</g>
	</g>
	<g>
		<g>
			<g>
				<rect x="372.9" y="106.2" class="st6" width="57.3" height="11.9"/>
			</g>
		</g>
	</g>
	<g>
		<g>
			<g>
				<rect x="376.5" y="96.1" class="st2" width="11.1" height="10"/>
			</g>
		</g>
	</g>
	<g>
		<g>
			<g>
				<rect x="395.9" y="96.1" class="st6" width="11.1" height="10"/>
			</g>
		</g>
	</g>
	<g>
		<g>
			<g>
				<rect x="414.9" y="96.1" class="st2" width="11.1" height="10"/>
			</g>
		</g>
	</g>
	<g>
		<g>
			<g>
				<rect x="376.9" y="88.6" class="st6" width="10.7" height="7.5"/>
			</g>
		</g>
	</g>
	<g>
		<g>
			<g>
				<rect x="396.2" y="88.6" class="st6" width="10.7" height="7.5"/>
			</g>
		</g>
	</g>
	<g>
		<g>
			<g>
				<rect x="415.5" y="88.6" class="st6" width="10.7" height="7.5"/>
			</g>
		</g>
	</g>
	<g>
		<g>
			<g>
				<g>
					<path class="st4" d="M420.8,145.1c-3.9,0-7.1-3.2-7.1-7.1v-18c0-0.4-0.3-0.6-0.6-0.6h-3.9c-0.4,0-0.6,0.3-0.6,0.6v18
						c0,3.9-3.2,7.1-7.1,7.1c-3.9,0-7.1-3.2-7.1-7.1v-18c0-0.4-0.3-0.6-0.6-0.6h-3.9c-0.4,0-0.6,0.3-0.6,0.6v18
						c0,3.9-3.2,7.1-7.1,7.1c-3.9,0-7.1-3.2-7.1-7.1v-18c0-0.4-0.3-0.6-0.6-0.6c-1.8,0-3.2-1.4-3.2-3.2v-7.7c0-1.8,1.4-3.2,3.2-3.2
						c0.4,0,0.6-0.3,0.6-0.6v-16c0-0.7,0.6-1.3,1.3-1.3h11.6c0.7,0,1.3,0.6,1.3,1.3v16c0,0.4,0.3,0.6,0.6,0.6h3.9
						c0.4,0,0.6-0.3,0.6-0.6v-16c0-0.7,0.6-1.3,1.3-1.3h11.6c0.7,0,1.3,0.6,1.3,1.3v16c0,0.4,0.3,0.6,0.6,0.6h3.9
						c0.4,0,0.6-0.3,0.6-0.6v-16c0-0.7,0.6-1.3,1.3-1.3h11.6c0.7,0,1.3,0.6,1.3,1.3v16c0,0.4,0.3,0.6,0.6,0.6c1.8,0,3.2,1.4,3.2,3.2
						v7.7c0,1.8-1.4,3.2-3.2,3.2c-0.4,0-0.6,0.3-0.6,0.6v18C427.9,141.9,424.7,145.1,420.8,145.1z M416.9,119.4
						c-0.4,0-0.6,0.3-0.6,0.6v18c0,2.5,2,4.5,4.5,4.5s4.5-2,4.5-4.5v-18c0-0.4-0.3-0.6-0.6-0.6H416.9z M397.6,119.4
						c-0.4,0-0.6,0.3-0.6,0.6v18c0,2.5,2,4.5,4.5,4.5s4.5-2,4.5-4.5v-18c0-0.4-0.3-0.6-0.6-0.6H397.6z M378.3,119.4
						c-0.4,0-0.6,0.3-0.6,0.6v18c0,2.5,2,4.5,4.5,4.5c2.5,0,4.5-2,4.5-4.5v-18c0-0.4-0.3-0.6-0.6-0.6H378.3z M374.4,107.8
						c-0.4,0-0.6,0.3-0.6,0.6v7.7c0,0.4,0.3,0.6,0.6,0.6h54.1c0.3,0,0.6-0.3,0.6-0.6l0-7.7c0-0.2-0.1-0.3-0.2-0.4
						c-0.1-0.1-0.3-0.2-0.4-0.2H374.4z M416.9,97.6c-0.4,0-0.6,0.3-0.6,0.6v6.4c0,0.4,0.3,0.6,0.6,0.6h7.7c0.4,0,0.6-0.3,0.6-0.6
						v-6.4c0-0.4-0.3-0.6-0.6-0.6H416.9z M397.6,97.6c-0.4,0-0.6,0.3-0.6,0.6v6.4c0,0.4,0.3,0.6,0.6,0.6h7.7c0.4,0,0.6-0.3,0.6-0.6
						v-6.4c0-0.4-0.3-0.6-0.6-0.6H397.6z M378.3,97.6c-0.4,0-0.6,0.3-0.6,0.6v6.4c0,0.4,0.3,0.6,0.6,0.6h7.7c0.4,0,0.6-0.3,0.6-0.6
						v-6.4c0-0.4-0.3-0.6-0.6-0.6H378.3z M416.9,89.8c-0.4,0-0.6,0.3-0.6,0.6v3.9c0,0.4,0.3,0.6,0.6,0.6h7.7c0.4,0,0.6-0.3,0.6-0.6
						v-3.9c0-0.4-0.3-0.6-0.6-0.6H416.9z M397.6,89.8c-0.4,0-0.6,0.3-0.6,0.6v3.9c0,0.4,0.3,0.6,0.6,0.6h7.7c0.4,0,0.6-0.3,0.6-0.6
						v-3.9c0-0.4-0.3-0.6-0.6-0.6H397.6z M378.3,89.8c-0.4,0-0.6,0.3-0.6,0.6v3.9c0,0.4,0.3,0.6,0.6,0.6h7.7c0.4,0,0.6-0.3,0.6-0.6
						v-3.9c0-0.4-0.3-0.6-0.6-0.6H378.3z"/>
				</g>
			</g>
		</g>
		<g>
			<g>
				<g>
					<rect x="419.5" y="111" class="st4" width="2.6" height="2.6"/>
				</g>
			</g>
		</g>
		<g>
			<g>
				<g>
					<rect x="400.2" y="111" class="st4" width="2.6" height="2.6"/>
				</g>
			</g>
		</g>
		<g>
			<g>
				<g>
					<rect x="380.8" y="111" class="st4" width="2.6" height="2.6"/>
				</g>
			</g>
		</g>
	</g>
</g>
<g>
	<g>
		<g>
			<g>
				<rect x="176.6" y="151.1" class="st6" width="54.7" height="69.4"/>
			</g>
		</g>
	</g>
	<g>
		<g>
			<g>
				<circle class="st2" cx="212.9" cy="201.7" r="8.7"/>
			</g>
		</g>
	</g>
	<g>
		<g>
			<g>
				<g>
					<g>
						<path class="st4" d="M189.7,173.1c-0.9,0-1.6-0.7-1.6-1.6c0-0.9,0.7-1.6,1.6-1.6h27.8c0.9,0,1.6,0.7,1.6,1.6
							c0,0.9-0.7,1.6-1.6,1.6H189.7z"/>
					</g>
				</g>
			</g>
		</g>
		<g>
			<g>
				<g>
					<g>
						<path class="st4" d="M199,163.9c-0.9,0-1.6-0.7-1.6-1.6c0-0.9,0.7-1.6,1.6-1.6h11.6c0.9,0,1.6,0.7,1.6,1.6
							c0,0.9-0.7,1.6-1.6,1.6H199z"/>
					</g>
				</g>
			</g>
		</g>
		<g>
			<g>
				<g>
					<g>
						<path class="st4" d="M189.7,182.4c-0.9,0-1.6-0.7-1.6-1.6s0.7-1.6,1.6-1.6h27.8c0.9,0,1.6,0.7,1.6,1.6s-0.7,1.6-1.6,1.6H189.7
							z"/>
					</g>
				</g>
			</g>
		</g>
		<g>
			<g>
				<g>
					<g>
						<path class="st4" d="M178.1,221.9c-2.1,0-3.9-1.7-3.9-3.9V153c0-2.1,1.7-3.9,3.9-3.9h51c2.1,0,3.9,1.7,3.9,3.9V218
							c0,2.1-1.7,3.9-3.9,3.9H178.1z M178.1,152.3c-0.4,0-0.8,0.3-0.8,0.8V218c0,0.4,0.3,0.8,0.8,0.8h51c0.4,0,0.8-0.3,0.8-0.8
							l0-64.9c0-0.2-0.1-0.4-0.2-0.5c-0.1-0.1-0.3-0.2-0.5-0.2H178.1z"/>
					</g>
				</g>
			</g>
		</g>
		<g>
			<g>
				<g>
					<g>
						<path class="st4" d="M212.9,212.6c-6,0-10.8-4.9-10.8-10.8c0-6,4.9-10.8,10.8-10.8s10.8,4.9,10.8,10.8
							C223.7,207.7,218.9,212.6,212.9,212.6z M212.9,194c-4.3,0-7.7,3.5-7.7,7.7c0,4.3,3.5,7.7,7.7,7.7s7.7-3.5,7.7-7.7
							C220.6,197.5,217.2,194,212.9,194z"/>
					</g>
				</g>
			</g>
		</g>
		<g>
			<g>
				<g>
					<g>
						<path class="st4" d="M189.7,205.6c-0.9,0-1.6-0.7-1.6-1.6c0-0.9,0.7-1.6,1.6-1.6h4.6c0.9,0,1.6,0.7,1.6,1.6
							c0,0.9-0.7,1.6-1.6,1.6H189.7z"/>
					</g>
				</g>
			</g>
		</g>
		<g>
			<g>
				<g>
					<g>
						<rect x="211.3" y="200.2" class="st4" width="3.1" height="3.1"/>
					</g>
				</g>
			</g>
		</g>
	</g>
</g>
<g>
	<g>
		<g>
			<path class="st2" d="M113.2,215.9l-3.6-9.3l-4.8-2.3l3.4-9l-7.1,1.2l-1.5,3.3c0,0-4.3-0.8-5.6,2c-0.3,0.8-1.4,1.6-1.4,1.6
				l-7.4,1.7l-4-3.5c-5,1.2-8,3.7-9.4,5.2c-0.6,0.7-1.9,1-1.9,1l-4.2,8.4l3.9,12.3l6.3,5.3l2.7,7.2h5.7l2.1-4.9H89v0.4h4.6l1.5,4.5
				h6.8l1.8-6.9l5.6-3.8l2.1-4.7l5.5-0.6l0.4-9.2L113.2,215.9z"/>
		</g>
	</g>
	<g>
		<g>
			<g>
				<circle class="st6" cx="87.3" cy="197.8" r="6.7"/>
			</g>
		</g>
	</g>
	<g>
		<g>
			<g>
				<g>
					<g>
						<rect x="102.3" y="211.1" class="st4" width="2.3" height="2.3"/>
					</g>
				</g>
			</g>
		</g>
		<g>
			<g>
				<g>
					<g>
						<path class="st4" d="M87.3,206.6c-4.8,0-8.7-3.9-8.7-8.7c0-4.8,3.9-8.7,8.7-8.7s8.7,3.9,8.7,8.7
							C96.1,202.7,92.1,206.6,87.3,206.6z M87.3,191.4c-3.6,0-6.5,2.9-6.5,6.5c0,3.6,2.9,6.5,6.5,6.5c3.6,0,6.5-2.9,6.5-6.5
							C93.8,194.3,90.9,191.4,87.3,191.4z"/>
					</g>
				</g>
			</g>
		</g>
		<g>
			<g>
				<g>
					<g>
						<path class="st4" d="M94.9,242.1c-0.5,0-0.9-0.3-1.1-0.8l-1.3-3.9c-0.1-0.2-0.3-0.4-0.5-0.4h-4.3c-0.2,0-0.5,0.2-0.5,0.4
							l-1.3,3.9c-0.2,0.5-0.6,0.8-1.1,0.8H78c-0.5,0-1-0.4-1.1-0.9l-1.5-6c0-0.2-0.1-0.3-0.3-0.4c-6.1-3.3-10.1-9.8-10.1-16.7
							c0-6.6,3.4-12.6,9-16.1c0.2-0.1,0.4-0.2,0.6-0.2c0.4,0,0.8,0.2,1,0.5c0.3,0.5,0.2,1.2-0.4,1.6c-5,3.1-7.9,8.4-7.9,14.1
							c0,6.4,3.7,12.2,9.4,15c0,0,0,0,0.1,0.1c0.1,0,0.1,0.1,0.2,0.1l0.1,0.1c0,0,0.1,0.1,0.1,0.1c0,0,0,0,0,0.1c0,0,0,0.1,0.1,0.1
							c0.1,0.1,0.1,0.2,0.1,0.2c0,0,0,0.1,0,0.1l1.4,5.4c0.1,0.2,0.3,0.4,0.5,0.4h4.2c0.2,0,0.5-0.2,0.5-0.4l1.3-3.9
							c0.2-0.5,0.6-0.8,1.1-0.8h6.8c0.5,0,0.9,0.3,1.1,0.8l1.3,3.9c0.1,0.2,0.3,0.4,0.5,0.4h4.2c0.3,0,0.5-0.2,0.5-0.4l1.4-5.4
							c0-0.1,0.1-0.1,0.1-0.2c0-0.1,0.1-0.2,0.1-0.2c0-0.1,0.1-0.1,0.2-0.2l0,0c0,0,0.1-0.1,0.1-0.1c0.1,0,0.1-0.1,0.2-0.1
							c0.1,0,0.1,0,0.1-0.1c6.1-1.6,6.7-7.4,6.7-7.4c0.1-0.6,0.5-1,1.1-1h4.3c0.3,0,0.6-0.2,0.6-0.6v-6.8c0-0.3-0.2-0.6-0.6-0.6
							h-2.7c-0.6,0-1-0.4-1.1-1c-0.9-5.9-2.9-9.2-6.8-11c0,0,0,0,0,0c0,0-0.1-0.1-0.1-0.1c0,0-0.1,0-0.1-0.1c0,0-0.1,0-0.1-0.1
							c0,0,0-0.1-0.1-0.1c0,0,0-0.1-0.1-0.1c0,0,0-0.1-0.1-0.1c0,0,0-0.1-0.1-0.1c0,0,0-0.1,0-0.1c0,0,0-0.1,0-0.1c0,0,0-0.1,0-0.1
							c0,0,0-0.1,0-0.1c0,0,0-0.1,0-0.1c0,0,0-0.1,0-0.1c0-0.1,0-0.1,0-0.2c0,0,0,0,0-0.1l2.5-6.2c0.1-0.2,0-0.4-0.1-0.5
							c-0.1-0.1-0.3-0.2-0.4-0.2c0,0,0,0,0,0c-2.6,0.2-4.3,1.1-4.9,2.7c-0.2,0.4-0.6,0.7-1.1,0.7c-0.1,0-0.3,0-0.4-0.1
							c-0.3-0.1-0.5-0.3-0.6-0.6c-0.1-0.3-0.1-0.6,0-0.9c1.4-3.7,5.6-4.2,7.9-4.2c1,0,1.7,0.1,1.8,0.1c0.3,0,0.6,0.3,0.8,0.6
							c0.2,0.3,0.2,0.7,0.1,1l-2.8,7.1c-0.1,0.3,0,0.5,0.2,0.7c3.5,2.1,5.5,5.4,6.5,10.5c0,0.3,0.3,0.5,0.5,0.5h3
							c0.6,0,1.1,0.5,1.1,1.1v10.1c0,0.6-0.5,1.1-1.1,1.1h-4.6c-0.3,0-0.5,0.2-0.5,0.4c-0.6,2.1-2.3,6-7.2,7.7
							c-0.2,0.1-0.3,0.2-0.4,0.4l-1.5,5.9c-0.1,0.5-0.6,0.9-1.1,0.9H94.9z"/>
					</g>
				</g>
			</g>
		</g>
	</g>
</g>
<g>
	<g>
		<g>
			<g>
				<circle class="st6" cx="58" cy="396.5" r="15.9"/>
			</g>
		</g>
	</g>
	<g>
		<g>
			<g>
				<polygon class="st2" points="65.8,412.9 72.4,405.6 92.7,405.6 92.7,412.4 				"/>
			</g>
		</g>
	</g>
	<g>
		<g>
			<g>
				<polygon class="st2" points="72.6,404.4 75.7,398.3 96.3,398.3 96.3,405.6 				"/>
			</g>
		</g>
	</g>
	<g>
		<g>
			<g>
				<polygon class="st2" points="74.7,397.5 92.7,397.5 92.7,391.2 74,391.2 				"/>
			</g>
		</g>
	</g>
	<g>
		<g>
			<g>
				<polygon class="st2" points="74,390.3 89.6,390.3 89.6,384.4 71.2,384.4 				"/>
			</g>
		</g>
	</g>
	<g>
		<g>
			<g>
				<polygon class="st2" points="62.9,376.6 92.9,376.6 92.9,383.5 68.6,383.5 62.9,380.1 				"/>
			</g>
		</g>
	</g>
	<g>
		<g>
			<g>
				<rect x="67" y="368.9" class="st2" width="29.3" height="6.9"/>
			</g>
		</g>
	</g>
	<g>
		<g>
			<g>
				<rect x="62" y="362.2" class="st2" width="28.5" height="6.4"/>
			</g>
		</g>
	</g>
	<g>
		<g>
			<g>
				<g>
					<g>
						<path class="st4" d="M58,414.1c-9.7,0-17.6-7.9-17.6-17.6c0-9.7,7.9-17.6,17.6-17.6c1.1,0,2.2,0.1,3.5,0.4c0,0,0.1,0,0.1,0
							c0.1,0,0.3,0,0.4-0.1c0.1-0.1,0.2-0.3,0.2-0.5v-2.2c0-0.7,0.5-1.2,1.2-1.2h1.8c0.3,0,0.6-0.3,0.6-0.6V371
							c0-0.3-0.3-0.6-0.6-0.6h-3.6c-0.7,0-1.2-0.5-1.2-1.2v-7.3c0-0.7,0.5-1.2,1.2-1.2h29.1c0.7,0,1.2,0.5,1.2,1.2v5.5
							c0,0.3,0.3,0.6,0.6,0.6h3.6c0.7,0,1.2,0.5,1.2,1.2v7.3c0,0.7-0.5,1.2-1.2,1.2h-1.8c-0.3,0-0.6,0.3-0.6,0.6v5.5
							c0,0.7-0.5,1.2-1.2,1.2h-1.8c-0.3,0-0.6,0.3-0.6,0.6v3.6c0,0.3,0.3,0.6,0.6,0.6h1.8c0.7,0,1.2,0.5,1.2,1.2v5.5
							c0,0.3,0.3,0.6,0.6,0.6h1.8c0.7,0,1.2,0.5,1.2,1.2v7.3c0,0.7-0.5,1.2-1.2,1.2h-1.8c-0.3,0-0.6,0.3-0.6,0.6v5.5
							c0,0.7-0.5,1.2-1.2,1.2H58z M72.6,406.8c-0.2,0-0.4,0.1-0.5,0.2c0,0-0.1,0.1-0.1,0.1c0,0.1-0.1,0.1-0.1,0.2
							c-0.2,0.2-0.4,0.5-0.6,0.8c0,0-0.1,0.1-0.1,0.1c0,0,0,0.1-0.1,0.1l-0.2,0.3c0,0-0.1,0-0.1,0.1c-0.6,0.6-1.1,1.1-1.8,1.6
							c0,0-0.1,0-0.1,0.1c-0.1,0.1-0.2,0.2-0.3,0.2c-0.2,0.2-0.3,0.4-0.2,0.7c0.1,0.2,0.3,0.4,0.6,0.4h21.9c0.3,0,0.6-0.3,0.6-0.6
							v-3.6c0-0.3-0.3-0.6-0.6-0.6H72.6z M58,381.3c-8.4,0-15.2,6.8-15.2,15.2c0,8.4,6.8,15.2,15.2,15.2c0.4,0,0.9,0,1.4-0.1
							c0.2,0,0.4-0.1,0.6-0.1l0.1,0c0.2,0,0.4-0.1,0.6-0.1c0.3-0.1,0.6-0.1,1-0.2c0.1,0,0.2,0,0.3-0.1c0.4-0.1,0.7-0.2,1.1-0.3
							l0.1,0c1.5-0.5,2.9-1.3,4.1-2.2l0,0c0,0,0.1,0,0.1-0.1c0.2-0.2,0.5-0.4,0.7-0.6c0.1-0.1,0.2-0.2,0.3-0.3
							c0.2-0.2,0.4-0.4,0.6-0.6c0.1-0.1,0.2-0.2,0.3-0.4l0,0c0.2-0.2,0.4-0.4,0.5-0.6c0.3-0.4,0.6-0.8,0.9-1.3
							c0.3-0.4,0.5-0.8,0.6-1.1c0.1-0.1,0.1-0.2,0.2-0.3l0.1-0.2c0.2-0.4,0.3-0.7,0.5-1.1c0.1-0.1,0.1-0.3,0.2-0.5
							c0.1-0.4,0.3-0.8,0.4-1.3l0-0.1c0-0.1,0-0.2,0.1-0.3c0.1-0.6,0.2-1.1,0.3-1.7c0.1-0.6,0.1-1.2,0.1-1.7c0-0.5,0-1-0.1-1.7
							c0-0.2,0-0.4-0.1-0.6c0-0.2-0.1-0.4-0.1-0.5l0-0.2c-0.2-0.7-0.3-1.4-0.5-2c0,0,0,0,0,0c-0.2-0.5-0.4-0.9-0.6-1.4
							c0,0-0.1-0.2-0.1-0.3c-0.1-0.2-0.1-0.3-0.2-0.5c-1-1.8-2.2-3.4-3.8-4.6c0,0,0,0,0,0l0,0c-1.3-1-2.7-1.8-4.3-2.4
							C61.5,381.7,59.8,381.3,58,381.3z M75.9,399.6c-0.3,0-0.5,0.2-0.6,0.5c-0.2,1.2-0.6,2.3-1.1,3.5l0,0.1c-0.1,0.2-0.1,0.4,0,0.6
							c0.1,0.2,0.3,0.3,0.5,0.3h19.7c0.3,0,0.6-0.3,0.6-0.6v-3.6c0-0.3-0.3-0.6-0.6-0.6H75.9z M75.9,392.3c-0.2,0-0.4,0.1-0.5,0.2
							c-0.1,0.1-0.2,0.3-0.1,0.5c0,0.1,0,0.1,0,0.2c0,0.1,0,0.2,0,0.2c0,0.1,0,0.2,0.1,0.3c0,0.1,0.1,0.3,0.1,0.4c0,0,0,0.1,0,0.1
							c0,0.1,0,0.1,0,0.2c0.1,0.8,0.1,1.4,0.1,2c0,0.3,0.3,0.6,0.6,0.6h14.6c0.3,0,0.6-0.3,0.6-0.6v-3.6c0-0.3-0.3-0.6-0.6-0.6H75.9
							z M73.3,387.8c0.3,0.5,0.6,1,0.8,1.7c0.1,0.2,0.3,0.4,0.5,0.4h12.5c0.3,0,0.6-0.3,0.6-0.6v-3.6c0-0.3-0.3-0.6-0.6-0.6H72.6
							c-0.2,0-0.4,0.1-0.5,0.3c-0.1,0.2-0.1,0.4,0.1,0.6c0.4,0.5,0.8,1.1,1.1,1.7C73.3,387.7,73.3,387.7,73.3,387.8z M66.8,381.2
							C66.8,381.2,66.8,381.3,66.8,381.2c0.7,0.4,1.3,0.8,1.8,1.2c0.1,0.1,0.2,0.1,0.4,0.1h21.9c0.3,0,0.6-0.3,0.6-0.6v-3.6
							c0-0.3-0.3-0.6-0.6-0.6H65.3c-0.3,0-0.6,0.3-0.6,0.6v1.5c0,0.2,0.1,0.5,0.4,0.5c0,0,0.1,0,0.1,0.1c0.1,0,0.1,0.1,0.2,0.1
							l0.1,0.1C66,380.8,66.4,381,66.8,381.2z M69,370.4c-0.3,0-0.6,0.3-0.6,0.6v3.6c0,0.3,0.3,0.6,0.6,0.6h25.5
							c0.3,0,0.6-0.3,0.6-0.6V371c0-0.3-0.3-0.6-0.6-0.6H69z M63.5,363.1c-0.3,0-0.6,0.3-0.6,0.6v3.6c0,0.3,0.3,0.6,0.6,0.6H89
							c0.3,0,0.6-0.3,0.6-0.6v-3.6c0-0.3-0.3-0.6-0.6-0.6H63.5z"/>
					</g>
				</g>
			</g>
		</g>
		<g>
			<g>
				<g>
					<g>
						<path class="st4" d="M52.6,374.1c-0.7,0-1.2-0.5-1.2-1.2v-3.6c0-0.7,0.5-1.2,1.2-1.2c0.7,0,1.2,0.5,1.2,1.2v3.6
							C53.8,373.5,53.3,374.1,52.6,374.1z"/>
					</g>
				</g>
			</g>
		</g>
		<g>
			<g>
				<g>
					<g>
						<path class="st4" d="M43.5,379.5c-0.3,0-0.6-0.1-0.9-0.4l-1.8-1.8c-0.5-0.5-0.5-1.3,0-1.7c0.2-0.2,0.5-0.4,0.9-0.4
							c0.3,0,0.6,0.1,0.9,0.4l1.8,1.8c0.5,0.5,0.5,1.3,0,1.7C44.1,379.4,43.8,379.5,43.5,379.5z"/>
					</g>
				</g>
			</g>
		</g>
	</g>
</g>
<g>
	<g>
		<path class="st4" d="M61.3,399.8c0.3-0.2,0.6-0.4,0.9-0.4c0.3,0,0.5,0.1,0.7,0.3c0.2,0.2,0.3,0.5,0.3,0.8c0,0.2,0,0.4-0.1,0.6
			c-0.7,1-1.5,1.9-2.4,2.7c-0.9,0.7-2,1.1-3.2,1.1c-0.7,0-1.4-0.2-1.9-0.5c-0.6-0.3-1-0.7-1.4-1.2c-0.4-0.5-0.7-1.1-1-1.7
			c-0.3-0.6-0.4-1.3-0.6-1.9c-0.4,0-0.8,0-1.2,0c-0.4,0-0.8,0-1.1-0.1c-0.3-0.1-0.6-0.2-0.8-0.3c-0.2-0.2-0.3-0.4-0.3-0.7
			c0-0.3,0.1-0.5,0.3-0.8c0.2-0.2,0.5-0.4,1-0.4c0.3,0,0.7,0,1,0c0.3,0,0.7,0,1,0c0-0.2,0-0.5,0-0.7c0-0.2,0-0.5,0.1-0.7
			c-0.8,0-1.5-0.1-2-0.2c-0.5-0.1-0.8-0.4-0.8-1c0-0.3,0.1-0.5,0.3-0.8c0.2-0.2,0.5-0.4,1-0.4c0.3,0,0.7,0,1,0c0.3,0,0.7,0,1,0
			c0.1-0.3,0.2-0.5,0.3-0.7c0.1-0.2,0.2-0.5,0.3-0.7c0.2-0.4,0.6-0.9,1-1.4c0.5-0.5,1-1,1.6-1.5c0.6-0.5,1.3-0.8,1.9-1.2
			c0.7-0.3,1.3-0.5,2-0.5c0.3,0,0.7,0.1,1,0.3c0.4,0.2,0.7,0.4,1,0.7s0.6,0.6,0.8,0.9c0.2,0.3,0.3,0.7,0.3,1.1
			c0,0.3-0.1,0.6-0.3,0.8c-0.2,0.2-0.5,0.3-0.7,0.3c-0.3,0-0.5-0.1-0.7-0.3c-0.2-0.2-0.3-0.4-0.5-0.6c-0.1-0.2-0.3-0.4-0.4-0.6
			c-0.1-0.2-0.3-0.3-0.5-0.3c-0.1,0-0.3,0-0.5,0.1c-0.2,0.1-0.3,0.1-0.3,0.1c-0.9,0.3-1.7,0.8-2.4,1.4s-1.2,1.3-1.7,2.2
			c0.6,0,1.2,0,1.9,0c0.6,0,1.2,0,1.9,0c0.3,0.1,0.6,0.2,0.8,0.5c0.2,0.2,0.2,0.4,0.2,0.7c0,0.3-0.1,0.5-0.3,0.7
			c-0.2,0.2-0.5,0.3-0.8,0.4c-0.7,0-1.5,0-2.2,0c-0.7,0-1.4,0-2.2,0c-0.1,0.4-0.1,0.9-0.1,1.4c0.6,0,1.3,0,1.9,0c0.7,0,1.3,0,2,0
			c0.3,0.1,0.6,0.2,0.8,0.5c0.2,0.2,0.2,0.4,0.2,0.7c0,0.3-0.1,0.5-0.3,0.7c-0.2,0.2-0.5,0.3-0.8,0.4c-0.6,0-1.2,0-1.8,0
			c-0.6,0-1.2,0-1.8,0c0.1,0.5,0.2,0.9,0.4,1.3c0.2,0.4,0.4,0.7,0.7,0.9c0.3,0.3,0.5,0.5,0.8,0.6c0.3,0.1,0.6,0.2,0.9,0.2
			c0.6,0,1.3-0.3,1.9-0.8C60.2,401.3,60.8,400.6,61.3,399.8z"/>
	</g>
</g>
</svg>
