<?xml version="1.0" encoding="utf-8"?>
<!-- Generator: Adobe Illustrator 21.0.2, SVG Export Plug-In . SVG Version: 6.00 Build 0)  -->
<svg version="1.1" id="Livello_1" xmlns="http://www.w3.org/2000/svg" xmlns:xlink="http://www.w3.org/1999/xlink" x="0px" y="0px"
	 viewBox="0 0 629 500.4" style="enable-background:new 0 0 629 500.4;" xml:space="preserve">
<style type="text/css">
	.st0{opacity:0.3;}
	.st1{fill:#E2E2E2;}
	.st2{fill:#73D7FF;}
	.st3{opacity:0.32;}
	.st4{fill:#003575;}
	.st5{fill:#BFDEFF;}
	.st6{fill:#FFFFFF;}
	.st7{fill:none;stroke:#295082;stroke-width:2;stroke-miterlimit:10;}
	.st8{fill:#1E3A6D;}
	.st9{fill:#7ECEF5;}
	.st10{fill:#1E3B6E;}
	.st11{fill:#80CBED;}
</style>
<g class="st0">
	<g>
		<g>
			<path class="st1" d="M6.1,484.6c0-169.7,137.5-307.2,307.2-307.2s307.2,137.5,307.2,307.2"/>
		</g>
	</g>
</g>
<g class="st0">
	<g>
		<g>
			<path class="st2" d="M44.9,484.6c0-145,120.2-262.5,268.4-262.5s268.4,117.5,268.4,262.5"/>
		</g>
	</g>
</g>
<g class="st3">
	<g>
		<g>
			<path class="st2" d="M98.1,484.6c0-119.8,96.3-216.9,215.2-216.9s215.2,97.1,215.2,216.9"/>
		</g>
	</g>
</g>
<g>
	<g>
		<g>
			<path class="st4" d="M618.7,490.5H7.8c-1,0-1.8-0.8-1.8-1.8v-2.4c0-1,0.8-1.8,1.8-1.8h610.9c1,0,1.8,0.8,1.8,1.8v2.4
				C620.4,489.7,619.6,490.5,618.7,490.5z"/>
		</g>
	</g>
</g>
<g>
	<g>
		<g>
			<g>
				<g>
					<path class="st5" d="M437.8,108.3l-4.9-8.5h-12.6V67.7h70.5v32.1h-48L437.8,108.3z M423.6,96.4h11.2l3,5.1l3-5.1h46.6V71.1
						h-63.7V96.4z"/>
				</g>
			</g>
		</g>
	</g>
	<g>
		<g>
			<g>
				<g>
					<path class="st5" d="M434.7,82.2h-14.5V67.7h14.5V82.2z M423.6,78.8h7.7v-7.7h-7.7V78.8z"/>
				</g>
			</g>
		</g>
	</g>
	<g>
		<g>
			<g>
				<g>
					<rect x="440.7" y="75.8" class="st5" width="34.9" height="3.4"/>
				</g>
			</g>
		</g>
	</g>
	<g>
		<g>
			<g>
				<g>
					<rect x="440.7" y="81.2" class="st5" width="34.9" height="3.4"/>
				</g>
			</g>
		</g>
	</g>
	<g>
		<g>
			<g>
				<g>
					<rect x="440.7" y="86.5" class="st5" width="34.9" height="3.4"/>
				</g>
			</g>
		</g>
	</g>
</g>
<g>
	<g>
		<g>
			<g>
				<g>
					<path class="st5" d="M334.6,56l-1-0.1c-2.6-0.3-5.2-1-7.6-2.2l-1-0.5l0.2-4.1l-4,1.3l-0.7-0.7c-1.8-1.8-3.3-3.9-4.3-6.3l-0.5-1
						l3.1-3.4l-4.5-1.9l-0.1-1c0-0.5-0.1-1.1-0.1-1.6c0-1.9,0.3-3.8,0.8-5.6l0.3-1.1l5.2-0.6l-2.5-4.8l0.6-0.9
						c1.4-1.9,3.2-3.5,5.1-4.8l0.9-0.6l4.7,3l1.2-5.4l1.1-0.2c2.3-0.4,4.6-0.5,7-0.2l1.1,0.1l1.6,5.2l4.2-3.2l1,0.6
						c2.1,1.2,4,2.8,5.6,4.6l0.7,0.8l-1.9,4.6l4.8,0.2l0.4,1.1c0.9,2.4,1.3,4.8,1.3,7.4l0,1.1l-0.9,0.5l-3,1.5l3.1,2.8l-0.4,1
						c-0.9,2.5-2.1,4.8-3.8,6.8l-0.7,0.8l-3.8-0.9l0.5,3.8l-0.9,0.6c-2.3,1.5-4.7,2.5-7.4,3l-1,0.2l-2.3-3L334.6,56z M328.6,51.2
						c1.4,0.6,2.9,1,4.4,1.3l3.5-5.6l3.9,5.2c1.5-0.4,2.9-1,4.3-1.7l-0.9-6.5l6.5,1.5c0.9-1.2,1.6-2.5,2.2-3.9l-5-4.6l6.4-3.3
						c-0.1-1.4-0.3-2.8-0.7-4.2l-7.4-0.3l3-7.1c-0.9-1-1.9-1.8-3-2.5l-6.3,4.8l-2.4-7.8c-1.3-0.1-2.5-0.1-3.8,0.1l-1.8,8l-6.8-4.4
						c-1,0.8-1.9,1.6-2.8,2.6l3.7,7.1l-7.7,1c-0.3,1.2-0.4,2.4-0.4,3.7c0,0.1,0,0.2,0,0.3l7,2.9l-4.9,5.3c0.7,1.3,1.5,2.5,2.5,3.5
						l6.7-2.1L328.6,51.2z"/>
				</g>
			</g>
		</g>
	</g>
	<g>
		<g>
			<g>
				<g>
					<path class="st5" d="M335.8,41.6c-4,0-7.2-3.2-7.2-7.2s3.2-7.2,7.2-7.2s7.2,3.2,7.2,7.2S339.7,41.6,335.8,41.6z M335.8,30.7
						c-2.1,0-3.8,1.7-3.8,3.8c0,2.1,1.7,3.8,3.8,3.8s3.8-1.7,3.8-3.8C339.5,32.4,337.8,30.7,335.8,30.7z"/>
				</g>
			</g>
		</g>
	</g>
</g>
<g>
	<g>
		<g>
			<g>
				<g>
					<g>
						<g>
							<g>
								<g>
									<g>
										<path class="st4" d="M317.6,137.9h-11.1c-0.9,0-1.7-0.8-1.7-1.7c0-0.9,0.8-1.7,1.7-1.7h11.1c0.9,0,1.7,0.8,1.7,1.7
											C319.3,137.1,318.6,137.9,317.6,137.9z"/>
									</g>
								</g>
							</g>
						</g>
					</g>
				</g>
			</g>
		</g>
		<g>
			<g>
				<g>
					<g>
						<g>
							<g>
								<g>
									<g>
										<path class="st4" d="M312.1,143.5c-0.9,0-1.7-0.8-1.7-1.7v-11.1c0-0.9,0.8-1.7,1.7-1.7c0.9,0,1.7,0.8,1.7,1.7v11.1
											C313.7,142.7,313,143.5,312.1,143.5z"/>
									</g>
								</g>
							</g>
						</g>
					</g>
				</g>
			</g>
		</g>
	</g>
</g>
<g>
	<g>
		<g>
			<g>
				<g>
					<g>
						<g>
							<g>
								<g>
									<g>
										<path class="st4" d="M240.1,463.8h-11.1c-0.9,0-1.7-0.8-1.7-1.7c0-0.9,0.8-1.7,1.7-1.7h11.1c0.9,0,1.7,0.8,1.7,1.7
											C241.8,463.1,241,463.8,240.1,463.8z"/>
									</g>
								</g>
							</g>
						</g>
					</g>
				</g>
			</g>
		</g>
		<g>
			<g>
				<g>
					<g>
						<g>
							<g>
								<g>
									<g>
										<path class="st4" d="M234.5,469.4c-0.9,0-1.7-0.8-1.7-1.7v-11.1c0-0.9,0.8-1.7,1.7-1.7c0.9,0,1.7,0.8,1.7,1.7v11.1
											C236.2,468.6,235.4,469.4,234.5,469.4z"/>
									</g>
								</g>
							</g>
						</g>
					</g>
				</g>
			</g>
		</g>
	</g>
</g>
<g>
	<g>
		<g>
			<g>
				<g>
					<g>
						<g>
							<g>
								<g>
									<g>
										<path class="st4" d="M526.9,316.1h-11.1c-0.9,0-1.7-0.8-1.7-1.7c0-0.9,0.8-1.7,1.7-1.7h11.1c0.9,0,1.7,0.8,1.7,1.7
											C528.6,315.3,527.9,316.1,526.9,316.1z"/>
									</g>
								</g>
							</g>
						</g>
					</g>
				</g>
			</g>
		</g>
		<g>
			<g>
				<g>
					<g>
						<g>
							<g>
								<g>
									<g>
										<path class="st4" d="M521.4,321.6c-0.9,0-1.7-0.8-1.7-1.7v-11.1c0-0.9,0.8-1.7,1.7-1.7c0.9,0,1.7,0.8,1.7,1.7v11.1
											C523,320.9,522.3,321.6,521.4,321.6z"/>
									</g>
								</g>
							</g>
						</g>
					</g>
				</g>
			</g>
		</g>
	</g>
</g>
<g>
	<g>
		<g>
			<g>
				<path class="st6" d="M148.5,293.8c-6.1,0-11.1-5-11.1-11.1s5-11.1,11.1-11.1c6.1,0,11.1,5,11.1,11.1S154.6,293.8,148.5,293.8z"
					/>
			</g>
		</g>
	</g>
	<g>
		<g>
			<g>
				<path class="st4" d="M148.5,273.1c5.3,0,9.6,4.3,9.6,9.6s-4.3,9.6-9.6,9.6s-9.6-4.3-9.6-9.6S143.2,273.1,148.5,273.1
					 M148.5,270.1c-7,0-12.6,5.6-12.6,12.6s5.6,12.6,12.6,12.6s12.6-5.6,12.6-12.6S155.5,270.1,148.5,270.1L148.5,270.1z"/>
			</g>
		</g>
	</g>
</g>
<g>
	<g>
		<g>
			<g>
				<path class="st6" d="M303.3,237.8c-6.1,0-11.1-5-11.1-11.1c0-6.1,5-11.1,11.1-11.1c6.1,0,11.1,5,11.1,11.1
					C314.4,232.9,309.5,237.8,303.3,237.8z"/>
			</g>
		</g>
	</g>
	<g>
		<g>
			<g>
				<path class="st4" d="M303.3,217.1c5.3,0,9.6,4.3,9.6,9.6s-4.3,9.6-9.6,9.6c-5.3,0-9.6-4.3-9.6-9.6S298,217.1,303.3,217.1
					 M303.3,214.1c-7,0-12.6,5.6-12.6,12.6s5.6,12.6,12.6,12.6c7,0,12.6-5.6,12.6-12.6S310.3,214.1,303.3,214.1L303.3,214.1z"/>
			</g>
		</g>
	</g>
</g>
<g>
	<g>
		<g>
			<g>
				<path class="st6" d="M453.1,357.1c-6.1,0-11.1-5-11.1-11.1s5-11.1,11.1-11.1c6.1,0,11.1,5,11.1,11.1S459.3,357.1,453.1,357.1z"
					/>
			</g>
		</g>
	</g>
	<g>
		<g>
			<g>
				<path class="st4" d="M453.1,336.4c5.3,0,9.6,4.3,9.6,9.6s-4.3,9.6-9.6,9.6s-9.6-4.3-9.6-9.6S447.8,336.4,453.1,336.4
					 M453.1,333.4c-7,0-12.6,5.6-12.6,12.6c0,7,5.6,12.6,12.6,12.6c7,0,12.6-5.6,12.6-12.6C465.7,339.1,460.1,333.4,453.1,333.4
					L453.1,333.4z"/>
			</g>
		</g>
	</g>
</g>
<g>
	<g>
		<g>
			<g>
				<path class="st6" d="M157.7,434c-6.1,0-11.1-5-11.1-11.1s5-11.1,11.1-11.1c6.1,0,11.1,5,11.1,11.1S163.8,434,157.7,434z"/>
			</g>
		</g>
	</g>
	<g>
		<g>
			<g>
				<path class="st4" d="M157.7,413.3c5.3,0,9.6,4.3,9.6,9.6s-4.3,9.6-9.6,9.6s-9.6-4.3-9.6-9.6S152.4,413.3,157.7,413.3
					 M157.7,410.3c-7,0-12.6,5.6-12.6,12.6s5.6,12.6,12.6,12.6s12.6-5.6,12.6-12.6S164.6,410.3,157.7,410.3L157.7,410.3z"/>
			</g>
		</g>
	</g>
</g>
<g>
	<g>
		<g>
			<g>
				<path class="st5" d="M192.1,95.8c-5.1,0-9.3-4.2-9.3-9.3s4.2-9.3,9.3-9.3c5.1,0,9.3,4.2,9.3,9.3S197.2,95.8,192.1,95.8z
					 M192.1,80.6c-3.3,0-5.9,2.7-5.9,5.9s2.7,5.9,5.9,5.9s5.9-2.7,5.9-5.9S195.3,80.6,192.1,80.6z"/>
			</g>
		</g>
	</g>
</g>
<g>
	<g>
		<g>
			<g>
				<path class="st5" d="M39.9,296.2c-5.1,0-9.3-4.2-9.3-9.3s4.2-9.3,9.3-9.3s9.3,4.2,9.3,9.3S45,296.2,39.9,296.2z M39.9,281
					c-3.3,0-5.9,2.7-5.9,5.9s2.7,5.9,5.9,5.9s5.9-2.7,5.9-5.9S43.2,281,39.9,281z"/>
			</g>
		</g>
	</g>
</g>
<g>
	<g>
		<g>
			<g>
				<g>
					<g>
						<g>
							<g>
								<g>
									<g>
										<path class="st4" d="M116.5,144.1h-11.1c-0.9,0-1.7-0.8-1.7-1.7c0-0.9,0.8-1.7,1.7-1.7h11.1c0.9,0,1.7,0.8,1.7,1.7
											C118.2,143.3,117.4,144.1,116.5,144.1z"/>
									</g>
								</g>
							</g>
						</g>
					</g>
				</g>
			</g>
		</g>
		<g>
			<g>
				<g>
					<g>
						<g>
							<g>
								<g>
									<g>
										<path class="st4" d="M110.9,149.6c-0.9,0-1.7-0.8-1.7-1.7v-11.1c0-0.9,0.8-1.7,1.7-1.7c0.9,0,1.7,0.8,1.7,1.7V148
											C112.6,148.9,111.8,149.6,110.9,149.6z"/>
									</g>
								</g>
							</g>
						</g>
					</g>
				</g>
			</g>
		</g>
	</g>
</g>
<g>
	<g>
		<g>
			<path class="st7" d="M275.2,323.5"/>
		</g>
	</g>
</g>
<g>
	<g>
		<g>
			<path class="st7" d="M302.6,376.4"/>
		</g>
	</g>
</g>
<g>
	<g>
		<g>
			<g>
				<g>
					<g>
						<circle class="st2" cx="281.3" cy="77.4" r="9.7"/>
					</g>
				</g>
			</g>
		</g>
	</g>
	<g>
		<g>
			<g>
				<g>
					<g>
						<g>
							<g>
								<path class="st4" d="M232.8,128.4c-3.1,0-5.6-2.5-5.6-5.6c0-3.1,2.5-5.6,5.6-5.6h29.5c1.5,0,2.8-1.2,2.8-2.8
									s-1.2-2.8-2.8-2.8h-12.6c-3.1,0-5.6-2.5-5.6-5.6v-3.6c0-0.4-0.3-0.6-0.6-0.7c-9.3-1.1-16.3-8.8-16.3-18.1V68.9
									c0-0.8,0.6-1.4,1.4-1.4h6.3c0.4,0,0.7-0.3,0.7-0.7c0-0.8,0.6-1.4,1.4-1.4c0.8,0,1.4,0.6,1.4,1.4V71c0,0.8-0.6,1.4-1.4,1.4
									s-1.4-0.6-1.4-1.4c0-0.4-0.3-0.7-0.7-0.7h-4.2c-0.4,0-0.7,0.3-0.7,0.7v12.6c0,8.5,6.9,15.5,15.5,15.5
									c8.5,0,15.5-6.9,15.5-15.5V71.1c0-0.4-0.3-0.7-0.7-0.7h-4.2c-0.4,0-0.7,0.3-0.7,0.7c0,0.8-0.6,1.4-1.4,1.4
									c-0.8,0-1.4-0.6-1.4-1.4v-4.2c0-0.8,0.6-1.4,1.4-1.4c0.8,0,1.4,0.6,1.4,1.4c0,0.4,0.3,0.7,0.7,0.7h6.3
									c0.8,0,1.4,0.6,1.4,1.4v14.8c0,9.3-7,17.2-16.3,18.1c-0.4,0-0.6,0.4-0.6,0.7v3.5c0,1.5,1.2,2.8,2.8,2.8h12.6
									c3.1,0,5.6,2.5,5.6,5.6c0,3.1-2.5,5.6-5.6,5.6h-29.5c-1.5,0-2.8,1.2-2.8,2.8s1.2,2.8,2.8,2.8H277c1.5,0,2.8-1.2,2.8-2.8V90
									v-0.1c0-0.4-0.2-0.7-0.5-0.7c-5.8-1-10-6-10-11.7c0-6.6,5.3-11.9,11.9-11.9s11.9,5.3,11.9,11.9c0,5.9-4.2,10.8-10,11.7
									c-0.4,0.1-0.6,0.4-0.5,0.7V90v32.8c0,3.1-2.5,5.6-5.6,5.6C277,128.4,232.8,128.4,232.8,128.4z M281.3,68.2
									c-5.1,0-9.2,4.1-9.2,9.2s4.1,9.2,9.2,9.2c5.1,0,9.2-4.1,9.2-9.2S286.3,68.2,281.3,68.2z"/>
							</g>
						</g>
					</g>
				</g>
			</g>
		</g>
		<g>
			<g>
				<g>
					<g>
						<g>
							<g>
								<rect x="279.9" y="75.9" class="st4" width="2.8" height="2.8"/>
							</g>
						</g>
					</g>
				</g>
			</g>
		</g>
	</g>
</g>
<g>
	<g>
		<g>
			<g>
				<path class="st6" d="M528.5,215.1c-6.1,0-11.1-5-11.1-11.1c0-6.1,5-11.1,11.1-11.1c6.1,0,11.1,5,11.1,11.1
					C539.6,210.1,534.6,215.1,528.5,215.1z"/>
			</g>
		</g>
	</g>
	<g>
		<g>
			<g>
				<path class="st4" d="M528.4,194.3c5.3,0,9.6,4.3,9.6,9.6s-4.3,9.6-9.6,9.6s-9.6-4.3-9.6-9.6S523.2,194.3,528.4,194.3
					 M528.4,191.3c-7,0-12.6,5.6-12.6,12.6s5.6,12.6,12.6,12.6s12.6-5.6,12.6-12.6S535.4,191.3,528.4,191.3L528.4,191.3z"/>
			</g>
		</g>
	</g>
</g>
<g>
	<g>
		<g>
			<g>
				<g>
					<g>
						<rect x="184.8" y="177.9" class="st6" width="55.5" height="46.7"/>
					</g>
				</g>
			</g>
		</g>
	</g>
	<g>
		<g>
			<g>
				<g>
					<g>
						<g>
							<g>
								<rect x="196.8" y="191.3" class="st4" width="2.5" height="2.5"/>
							</g>
						</g>
					</g>
				</g>
			</g>
		</g>
		<g>
			<g>
				<g>
					<g>
						<g>
							<g>
								<rect x="204.2" y="191.3" class="st4" width="2.5" height="2.5"/>
							</g>
						</g>
					</g>
				</g>
			</g>
		</g>
		<g>
			<g>
				<g>
					<g>
						<g>
							<g>
								<rect x="211.6" y="191.3" class="st4" width="2.5" height="2.5"/>
							</g>
						</g>
					</g>
				</g>
			</g>
		</g>
		<g>
			<g>
				<g>
					<g>
						<g>
							<g>
								<rect x="219" y="191.3" class="st4" width="2.5" height="2.5"/>
							</g>
						</g>
					</g>
				</g>
			</g>
		</g>
		<g>
			<g>
				<g>
					<g>
						<g>
							<g>
								<rect x="226.4" y="191.3" class="st4" width="2.5" height="2.5"/>
							</g>
						</g>
					</g>
				</g>
			</g>
		</g>
		<g>
			<g>
				<g>
					<g>
						<g>
							<g>
								<rect x="196.8" y="198.7" class="st4" width="2.5" height="2.5"/>
							</g>
						</g>
					</g>
				</g>
			</g>
		</g>
		<g>
			<g>
				<g>
					<g>
						<g>
							<g>
								<rect x="204.2" y="198.7" class="st4" width="2.5" height="2.5"/>
							</g>
						</g>
					</g>
				</g>
			</g>
		</g>
		<g>
			<g>
				<g>
					<g>
						<g>
							<g>
								<rect x="211.6" y="198.7" class="st4" width="2.5" height="2.5"/>
							</g>
						</g>
					</g>
				</g>
			</g>
		</g>
		<g>
			<g>
				<g>
					<g>
						<g>
							<g>
								<rect x="219" y="198.7" class="st4" width="2.5" height="2.5"/>
							</g>
						</g>
					</g>
				</g>
			</g>
		</g>
		<g>
			<g>
				<g>
					<g>
						<g>
							<g>
								<rect x="226.4" y="198.7" class="st4" width="2.5" height="2.5"/>
							</g>
						</g>
					</g>
				</g>
			</g>
		</g>
		<g>
			<g>
				<g>
					<g>
						<g>
							<g>
								<rect x="196.8" y="206.1" class="st4" width="2.5" height="2.5"/>
							</g>
						</g>
					</g>
				</g>
			</g>
		</g>
		<g>
			<g>
				<g>
					<g>
						<g>
							<g>
								<rect x="204.2" y="206.1" class="st4" width="2.5" height="2.5"/>
							</g>
						</g>
					</g>
				</g>
			</g>
		</g>
		<g>
			<g>
				<g>
					<g>
						<g>
							<g>
								<rect x="211.6" y="206.1" class="st4" width="2.5" height="2.5"/>
							</g>
						</g>
					</g>
				</g>
			</g>
		</g>
		<g>
			<g>
				<g>
					<g>
						<g>
							<g>
								<rect x="219" y="206.1" class="st4" width="2.5" height="2.5"/>
							</g>
						</g>
					</g>
				</g>
			</g>
		</g>
		<g>
			<g>
				<g>
					<g>
						<g>
							<g>
								<rect x="226.4" y="206.1" class="st4" width="2.5" height="2.5"/>
							</g>
						</g>
					</g>
				</g>
			</g>
		</g>
		<g>
			<g>
				<g>
					<g>
						<g>
							<g>
								<rect x="196.8" y="213.5" class="st4" width="2.5" height="2.5"/>
							</g>
						</g>
					</g>
				</g>
			</g>
		</g>
		<g>
			<g>
				<g>
					<g>
						<g>
							<g>
								<rect x="204.2" y="213.5" class="st4" width="2.5" height="2.5"/>
							</g>
						</g>
					</g>
				</g>
			</g>
		</g>
		<g>
			<g>
				<g>
					<g>
						<g>
							<g>
								<rect x="211.6" y="213.5" class="st4" width="2.5" height="2.5"/>
							</g>
						</g>
					</g>
				</g>
			</g>
		</g>
		<g>
			<g>
				<g>
					<g>
						<g>
							<g>
								<rect x="219" y="213.5" class="st4" width="2.5" height="2.5"/>
							</g>
						</g>
					</g>
				</g>
			</g>
		</g>
		<g>
			<g>
				<g>
					<g>
						<g>
							<g>
								<path class="st4" d="M185,227.1c-0.7,0-1.2-0.6-1.2-1.2v-48.6c0-0.7,0.6-1.2,1.2-1.2h7.4c0.3,0,0.6-0.3,0.6-0.6V173
									c0-0.7,0.6-1.2,1.2-1.2c0.7,0,1.2,0.6,1.2,1.2v2.4c0,0.3,0.3,0.6,0.6,0.6h3.7c0.3,0,0.6-0.3,0.6-0.6V173
									c0-0.7,0.6-1.2,1.2-1.2c0.7,0,1.2,0.6,1.2,1.2v2.4c0,0.3,0.3,0.6,0.6,0.6h3.7c0.3,0,0.6-0.3,0.6-0.6V173
									c0-0.7,0.6-1.2,1.2-1.2c0.7,0,1.2,0.6,1.2,1.2v2.4c0,0.3,0.3,0.6,0.6,0.6h3.7c0.3,0,0.6-0.3,0.6-0.6V173
									c0-0.7,0.6-1.2,1.2-1.2s1.2,0.6,1.2,1.2v2.4c0,0.3,0.3,0.6,0.6,0.6h3.7c0.3,0,0.6-0.3,0.6-0.6V173c0-0.7,0.6-1.2,1.2-1.2
									c0.7,0,1.2,0.6,1.2,1.2v2.4c0,0.3,0.3,0.6,0.6,0.6h3.7c0.3,0,0.6-0.3,0.6-0.6V173c0-0.7,0.6-1.2,1.2-1.2
									c0.7,0,1.2,0.6,1.2,1.2v2.4c0,0.3,0.3,0.6,0.6,0.6h7.4c0.7,0,1.2,0.6,1.2,1.2v48.6c0,0.7-0.6,1.2-1.2,1.2H185z M186.9,178.5
									c-0.3,0-0.6,0.3-0.6,0.6V224c0,0.3,0.3,0.6,0.6,0.6h51.8c0.3,0,0.6-0.3,0.6-0.6v-44.9c0-0.3-0.3-0.6-0.6-0.6h-5.6
									c-0.3,0-0.6,0.3-0.6,0.6v2.4c0,0.7-0.6,1.2-1.2,1.2c-0.7,0-1.2-0.6-1.2-1.2v-2.4c0-0.3-0.3-0.6-0.6-0.6h-3.7
									c-0.3,0-0.6,0.3-0.6,0.6v2.4c0,0.7-0.6,1.2-1.2,1.2c-0.7,0-1.2-0.6-1.2-1.2v-2.4c0-0.3-0.3-0.6-0.6-0.6h-3.7
									c-0.3,0-0.6,0.3-0.6,0.6v2.4c0,0.7-0.6,1.2-1.2,1.2s-1.2-0.6-1.2-1.2v-2.4c0-0.3-0.3-0.6-0.6-0.6H211
									c-0.3,0-0.6,0.3-0.6,0.6v2.4c0,0.7-0.6,1.2-1.2,1.2c-0.7,0-1.2-0.6-1.2-1.2v-2.4c0-0.3-0.3-0.6-0.6-0.6h-3.7
									c-0.3,0-0.6,0.3-0.6,0.6v2.4c0,0.7-0.6,1.2-1.2,1.2c-0.7,0-1.2-0.6-1.2-1.2v-2.4c0-0.3-0.3-0.6-0.6-0.6h-3.7
									c-0.3,0-0.6,0.3-0.6,0.6v2.4c0,0.7-0.6,1.2-1.2,1.2c-0.7,0-1.2-0.6-1.2-1.2v-2.4c0-0.3-0.3-0.6-0.6-0.6H186.9z"/>
							</g>
						</g>
					</g>
				</g>
			</g>
		</g>
	</g>
</g>
<g>
	<g>
		<g>
			<g>
				<rect x="207.4" y="317.4" class="st6" width="187.9" height="107.8"/>
			</g>
		</g>
	</g>
	<g>
		<g>
			<g>
				<g>
					<g>
						<path class="st8" d="M227.5,352c-1.2,0-2.3-1.2-2.3-2.3s1.2-2.3,2.3-2.3h43.2c1.2,0,2.3,1.2,2.3,2.3s-1.2,2.3-2.3,2.3H227.5z"
							/>
					</g>
				</g>
			</g>
		</g>
		<g>
			<g>
				<g>
					<g>
						<path class="st8" d="M227.5,337.6c-1.2,0-2.3-1.2-2.3-2.3s1.2-2.3,2.3-2.3h17.9c1.2,0,2.3,1.2,2.3,2.3s-1.2,2.3-2.3,2.3H227.5
							z"/>
					</g>
				</g>
			</g>
		</g>
		<g>
			<g>
				<g>
					<g>
						<path class="st8" d="M227.5,366.4c-1.2,0-2.3-1.2-2.3-2.3c0-1.2,1.2-2.3,2.3-2.3h43.2c1.2,0,2.3,1.2,2.3,2.3
							c0,1.2-1.2,2.3-2.3,2.3H227.5z"/>
					</g>
				</g>
			</g>
		</g>
		<g>
			<g>
				<g>
					<g>
						<path class="st8" d="M227.5,386c-1.2,0-2.3-1.2-2.3-2.3s1.2-2.3,2.3-2.3h145.8c1.2,0,2.3,1.2,2.3,2.3c0,1.2-1.2,2.3-2.3,2.3
							H227.5z"/>
					</g>
				</g>
			</g>
		</g>
		<g>
			<g>
				<g>
					<g>
						<path class="st8" d="M209.7,427.5c-3.5,0-5.8-2.9-5.8-5.8V320.3c0-3.5,2.9-5.8,5.8-5.8h182.2c3.5,0,5.8,2.9,5.8,5.8v100.9
							c0,3.5-2.9,5.8-5.8,5.8H209.7V427.5z M209.7,319.1c-0.6,0-1.2,0.6-1.2,1.2v100.9c0,1.2,0.6,1.7,1.2,1.7h182.2
							c0.6,0,1.2-0.6,1.2-1.2V320.9c0-0.6,0-0.6-0.6-0.6l-0.6-0.6H209.7V319.1z"/>
					</g>
				</g>
			</g>
		</g>
	</g>
</g>
<g>
	<g>
		<g>
			<g>
				<path class="st8" d="M373.4,345.6c0,1.2-1.2,2.3-2.3,2.3s-2.3-1.2-2.3-2.3v-20.2c0-1.2,1.2-2.3,2.3-2.3s2.3,1.2,2.3,2.3V345.6z"
					/>
			</g>
		</g>
	</g>
</g>
<g>
	<g>
		<g>
			<g>
				<path class="st8" d="M380.9,345.6c0,1.2-1.2,2.3-2.3,2.3s-2.3-1.2-2.3-2.3v-20.2c0-1.2,1.2-2.3,2.3-2.3s2.3,1.2,2.3,2.3V345.6z"
					/>
			</g>
		</g>
	</g>
</g>
<g>
	<g>
		<g>
			<g>
				<path class="st8" d="M388.9,345.6c0,1.2-1.2,2.3-2.3,2.3c-1.2,0-2.3-1.2-2.3-2.3v-20.2c0-1.2,1.2-2.3,2.3-2.3
					c1.2,0,2.3,1.2,2.3,2.3V345.6z"/>
			</g>
		</g>
	</g>
</g>
<g>
	<g>
		<g>
			<g>
				<path class="st8" d="M365.3,345.6c0,1.2-1.2,2.3-2.3,2.3s-2.3-1.2-2.3-2.3v-20.2c0-1.2,1.2-2.3,2.3-2.3s2.3,1.2,2.3,2.3V345.6z"
					/>
			</g>
		</g>
	</g>
</g>
<g>
	<g>
		<g>
			<g>
				<path class="st8" d="M357.8,345.6c0,1.2-1.2,2.3-2.3,2.3s-2.3-1.2-2.3-2.3v-20.2c0-1.2,1.2-2.3,2.3-2.3s2.3,1.2,2.3,2.3V345.6z"
					/>
			</g>
		</g>
	</g>
</g>
<g>
	<path class="st9" d="M324.9,413.7h-89.3c-5.2,0-9.8-4.6-9.8-9.8l0,0c0-5.8,4.6-9.8,9.8-9.8h89.3c5.2,0,9.8,4.6,9.8,9.8l0,0
		C335.3,409.1,330.7,413.7,324.9,413.7z"/>
</g>
<g>
	<g>
		<g>
			<polygon class="st2" points="416.8,276.1 422.7,281.6 449.4,255.3 442.9,249.4 			"/>
		</g>
	</g>
	<g>
		<g>
			<polygon class="st2" points="410.2,270 416.1,275.5 442.8,249.1 436.3,243.3 			"/>
		</g>
	</g>
	<g>
		<g>
			<polygon class="st6" points="410.2,270.9 421.9,281.9 414.6,284.8 408,278.4 			"/>
		</g>
	</g>
	<g>
		<g>
			<polygon class="st6" points="436.8,242.9 441.8,237.5 454.3,249.2 449.4,254.4 			"/>
		</g>
	</g>
	<g>
		<g>
			<polygon class="st2" points="442.4,237.5 454.7,249 456.6,244.6 455.5,240.8 453.9,237.8 446.6,235.3 			"/>
		</g>
	</g>
	<g>
		<g>
			<path class="st4" d="M454.4,237.1c-2.1-2-4.9-3-7.6-3c-2.4,0.1-4.6,1-6.1,2.7l-5.1,5.5l-26.8,27c0,0,0,0,0,0l0,0
				c-0.1,0.1-0.2,0.2-0.2,0.3c0,0,0,0.1,0,0.1c0,0,0,0.1,0,0.1l-4.6,19.6c-0.1,0.4,0.1,0.9,0.4,1.2c0.2,0.2,0.5,0.3,0.8,0.3
				c0.2,0,0.3,0,0.4-0.1l17.4-7.7c0.1,0,0.2-0.1,0.3-0.2c0,0,0.1,0,0.1-0.1l26.8-27c0,0,0,0,0-0.1c0,0,0,0,0,0l5.1-5.4
				C458.8,246.6,458.5,240.8,454.4,237.1z M411.7,269.7l24.4-24.6c0.1-0.1,0.2-0.2,0.4-0.2c0.1,0,0.3,0,0.4,0.2l3.8,3.6
				c0.1,0.1,0.2,0.3,0.2,0.4c0,0.2-0.1,0.3-0.2,0.4l-24.4,24.5c-0.1,0.1-0.2,0.2-0.4,0.2c-0.1,0-0.3,0-0.4-0.2l-3.8-3.5
				c-0.1-0.1-0.2-0.3-0.2-0.4C411.5,270,411.6,269.8,411.7,269.7z M419.5,282.1l-4.1,1.8c-0.1,0-0.1,0-0.2,0c0,0-0.1,0-0.1,0
				l-1.8-1.7l0,0l-4.1-3.8c-0.2-0.1-0.2-0.4-0.2-0.6l1.1-4.4c0-0.2,0.2-0.4,0.4-0.4c0,0,0.1,0,0.1,0c0.2,0,0.3,0,0.4,0.2l8.6,8
				c0.1,0.1,0.2,0.3,0.2,0.5C419.8,281.9,419.6,282.1,419.5,282.1z M447.1,255.5l-24.4,24.6c-0.1,0.1-0.2,0.2-0.4,0.2
				c-0.1,0-0.3,0-0.4-0.2l-3.8-3.6c-0.1-0.1-0.2-0.3-0.2-0.4c0-0.2,0.1-0.3,0.2-0.4l24.4-24.5c0.1-0.1,0.2-0.2,0.4-0.2
				c0.1,0,0.3,0,0.4,0.2l3.8,3.5c0.1,0.1,0.2,0.3,0.2,0.4C447.3,255.3,447.2,255.4,447.1,255.5z M452.3,250.1l-2.7,2.9
				c-0.1,0.1-0.3,0.2-0.4,0.2s-0.3,0-0.4-0.2l-10.2-9.5c-0.1-0.1-0.2-0.3-0.2-0.4c0-0.2,0.1-0.3,0.2-0.4l2.7-2.9
				c0.1-0.1,0.3-0.2,0.4-0.2c0.1,0,0.3,0,0.4,0.2l10.2,9.5c0.1,0.1,0.2,0.3,0.2,0.4C452.4,249.8,452.4,250,452.3,250.1z
				 M454.6,247.2c-0.1,0.2-0.2,0.3-0.4,0.3c0,0-0.1,0-0.1,0c-0.2,0-0.3-0.1-0.4-0.2l-9.8-9.1c-0.1-0.1-0.2-0.3-0.2-0.5
				c0-0.2,0.1-0.3,0.3-0.4c0.9-0.5,1.8-0.7,2.8-0.7c2.1-0.1,4.3,0.8,5.9,2.3C455.3,241.1,456,244.4,454.6,247.2z"/>
		</g>
	</g>
</g>
<g>
	<g>
		<g>
			<g>
				<rect x="365.8" y="151.6" class="st6" width="7.6" height="26.6"/>
			</g>
		</g>
	</g>
	<g>
		<g>
			<g>
				<path class="st2" d="M374.3,172.6l22,5.6l9.7-1.1l17.1-8l-1.2-4.8l-17.8,4.3l-1-3.7c0,0-2.7-3.1-2.9-3.1c-0.2-0.1-8.2,0-8.2,0
					l-6.2-4.4h-6.3l-5.6,2.7L374.3,172.6z"/>
			</g>
		</g>
	</g>
	<g>
		<g>
			<path class="st6" d="M406,155.1c-0.4,0-0.8-0.1-1.1-0.3c-3.8-2.5-16.3-11.6-16.3-22.4c0-5.8,3.2-11.6,9.3-11.6
				c2.8,0,5.2,2.1,6.9,3.6c0.4,0.3,0.7,0.6,1,0.9c0,0,0.1,0,0.1,0.1c0,0,0.1,0,0.1-0.1c0.3-0.2,0.6-0.5,1-0.9
				c1.8-1.6,4.1-3.6,6.9-3.6c6.1,0,9.3,5.8,9.3,11.6c0,10.8-12.5,19.9-16.3,22.4C406.7,155,406.4,155.1,406,155.1z"/>
		</g>
	</g>
	<g>
		<g>
			<g>
				<g>
					<g>
						<path class="st4" d="M423.9,166c-0.8-1.9-2.3-2.9-4.5-2.9c-0.7,0-1.5,0.1-2.4,0.3c-1.1,0.3-2.3,0.6-3.4,0.9l0,0
							c-2.6,0.7-5.2,1.5-7.8,1.9c0,0-0.1,0-0.1,0c-0.3,0-0.6-0.2-0.6-0.5l0-0.1c0-0.1,0-0.2,0-0.2c-0.6-2.4-2.9-5-7.8-5
							c-0.6,0-1.3,0-2,0.1c-0.7,0.1-1.3,0.1-1.8,0.1c-2.8,0-3.8-1.1-4.7-2.3c-0.5-0.6-1.1-1.3-2-1.8c-1-0.5-2.1-0.7-3.5-0.7
							c-2.9,0-5.9,1.1-7.4,1.7c-0.1,0-0.2,0.1-0.2,0.1c-0.1,0-0.2,0-0.3-0.1c-0.2-0.1-0.3-0.3-0.3-0.5v-5.4c0-0.7-0.6-1.3-1.3-1.3
							h-8c-0.7,0-1.3,0.6-1.3,1.3v26.9c0,0.7,0.6,1.3,1.3,1.3h8c0.7,0,1.3-0.6,1.3-1.3v-3.7c0-0.2,0.1-0.4,0.3-0.5
							c0.1-0.1,0.2-0.1,0.4-0.1c0.1,0,0.1,0,0.2,0c5.3,1.7,17.9,5.6,22.2,5.6c4.6,0,20.9-5.9,25.6-8.9
							C424,170.5,425.4,169.6,423.9,166z M372.3,176.6c0,0.3-0.3,0.6-0.6,0.6h-4.1c-0.3,0-0.6-0.3-0.6-0.6v-23.1
							c0-0.3,0.3-0.6,0.6-0.6h4.1c0.3,0,0.6,0.3,0.6,0.6V176.6z M421.6,169c-5.2,3-20.2,8.2-23.7,8.2c-4.4,0-20.8-5.3-22.6-5.9
							c-0.3-0.1-0.4-0.3-0.4-0.6v-9.5c0-0.2,0.1-0.4,0.3-0.6c2.5-1.4,5.6-2.2,7.9-2.2c1,0,1.8,0.2,2.4,0.4c0.4,0.2,0.7,0.6,1.1,1.1
							l0,0c1.1,1.3,2.7,3.2,6.7,3.2c0.7,0,1.4,0,2.1-0.1c0.6-0.1,1.2-0.1,1.7-0.1c2.1,0,3.7,0.6,4.6,1.6c0.6,0.7,0.7,1.4,0.8,1.7
							c0,0.3-0.1,0.5-0.4,0.6c-0.2,0.1-0.5,0.2-0.8,0.3c-1.8,0.7-3.6,1.3-4.6,1.3c-0.2,0-0.3,0-0.5-0.1c-1-0.2-3.8-1-8.5-2.2
							c0,0,0,0,0,0l-3-0.8c0,0,0,0,0,0c0,0-0.1,0-0.1,0l0,0c-0.6-0.1-1.3,0.3-1.4,1c-0.2,0.6,0.2,1.3,0.8,1.5l0,0
							c0.7,0.2,1.8,0.5,3.1,0.8l0,0h0c3.1,0.8,7.3,1.9,8.5,2.2c0.3,0.1,0.7,0.1,1.1,0.1c1.8,0,3.9-0.8,5.6-1.5l0.1,0
							c0.5-0.2,0.9-0.4,1.3-0.5l0,0c0,0,0.1,0,0.1-0.1c0.1,0,0.1,0,0.2,0c3.4-0.2,6.7-1.1,10.4-2.1c1.2-0.4,2.3-0.6,3.4-0.9
							c0.7-0.2,1.3-0.3,1.8-0.3c1.5,0,1.9,0.9,2.1,1.3c0.2,0.5,0.4,0.9,0.4,1.3C422,168.5,421.9,168.8,421.6,169z"/>
					</g>
				</g>
			</g>
		</g>
		<g>
			<g>
				<g>
					<g>
						<path class="st4" d="M405.9,156.7c-0.1,0-0.2,0-0.3,0c-0.1,0-0.1,0-0.1,0c-0.1,0-0.2-0.1-0.2-0.1c0,0,0,0-0.1,0
							c-1.2-0.7-17.9-11-17.9-24.2c0-6.4,3.6-12.8,10.5-12.8c3.3,0,5.9,2.3,7.7,3.9c0.1,0.1,0.3,0.2,0.4,0.2s0.3-0.1,0.4-0.2
							c1.8-1.5,4.4-3.9,7.7-3.9c6.9,0,10.5,6.5,10.5,12.8c0,13.2-16.8,23.5-17.9,24.2c0,0,0,0,0,0c-0.1,0-0.2,0.1-0.2,0.1
							c0,0-0.1,0-0.1,0c0,0,0,0,0,0l0,0c-0.1,0-0.2,0-0.3,0C406,156.7,406,156.7,405.9,156.7C406,156.7,405.9,156.7,405.9,156.7z
							 M397.9,122.1c-5.2,0-7.9,5.2-7.9,10.2c0,10.1,12,18.9,15.7,21.3c0.1,0.1,0.2,0.1,0.3,0.1c0.1,0,0.2,0,0.3-0.1
							c3.7-2.4,15.7-11.2,15.7-21.3c0-5.1-2.7-10.2-7.9-10.2c-2.3,0-4.4,1.8-6,3.3c-0.5,0.4-0.9,0.7-1.2,1c0,0-0.1,0-0.1,0.1
							c-0.1,0-0.1,0.1-0.2,0.1l0,0c-0.1,0-0.1,0.1-0.2,0.1c-0.1,0-0.1,0-0.2,0l-0.1,0c-0.1,0-0.2,0-0.2,0c-0.1,0-0.1,0-0.2-0.1
							c-0.1,0-0.2-0.1-0.3-0.1c-0.1,0-0.1-0.1-0.1-0.1c-0.4-0.3-0.7-0.6-1.2-1C402.3,123.9,400.2,122.1,397.9,122.1z"/>
					</g>
				</g>
			</g>
		</g>
	</g>
</g>
<g>
	<g>
		<g>
			<path class="st6" d="M515.8,390.5h19.5c0.8,5.5,5.3,9.1,10.8,9.9c0,10.4,0,22.4,0,27.8c0,14.9-26.5,27.6-30.3,27.6
				c-3.8,0-30.3-12.8-30.3-27.6c0-5.4,0-17.4,0-27.8c5.5-0.8,10.1-4.4,10.8-9.9H515.8z"/>
		</g>
		<g>
			<path class="st10" d="M515.8,457.2c-4.6,0-31.7-13.5-31.7-29v-29l1.2-0.2c5.2-0.7,9-4.2,9.7-8.7l0.2-1.2h41.3l0.2,1.2
				c0.6,4.6,4.4,8,9.7,8.7l1.2,0.2v29C547.5,443.7,520.5,457.2,515.8,457.2z M486.9,401.6v26.6c0,13.8,25.9,26.3,28.9,26.3
				c3.1,0,28.9-12.4,28.9-26.3v-26.6c-5.4-1.2-9.4-4.8-10.6-9.7h-36.7C496.4,396.7,492.4,400.4,486.9,401.6z"/>
		</g>
	</g>
	<g>
		<g>
			<path class="st11" d="M537.6,455.8l-1.6-2.2c11.3-8,17-16.5,17-25.4v-12.9h2.8v12.9C555.8,437.9,549.7,447.2,537.6,455.8z"/>
		</g>
	</g>
	<g>
		<g>
			<rect x="525.5" y="382.2" class="st11" width="11" height="2.8"/>
		</g>
	</g>
	<g>
		<g>
			<rect x="495.2" y="382.2" class="st11" width="11" height="2.8"/>
		</g>
	</g>
	<g>
		<g>
			<path class="st11" d="M494.1,455.8c-12.1-8.6-18.2-17.8-18.2-27.6v-12.9h2.8v12.9c0,8.8,5.7,17.4,17,25.4L494.1,455.8z"/>
		</g>
	</g>
	<g>
		<g>
			<path class="st10" d="M514.6,442.8c-11.9,0-21.5-9.7-21.5-21.5s9.7-21.5,21.5-21.5c2.6,0,5.2,0.5,7.7,1.4l-1,2.6
				c-2.1-0.8-4.4-1.2-6.7-1.2c-10.3,0-18.8,8.4-18.8,18.8s8.4,18.8,18.8,18.8c10.3,0,18.8-8.4,18.8-18.8h2.8
				C536.1,433.2,526.4,442.8,514.6,442.8z"/>
		</g>
	</g>
	<g>
		<g>
			<polygon class="st11" points="534,401.3 515.8,419.5 508.3,411.9 502.2,418 515.8,431.6 540.1,407.4 			"/>
		</g>
		<g>
			<path class="st10" d="M515.8,433.5L500.3,418l8-8l7.6,7.6l18.2-18.2l8,8L515.8,433.5z M504.2,418l11.7,11.7l22.3-22.3l-4.1-4.1
				l-18.2,18.2l-7.6-7.6L504.2,418z"/>
		</g>
	</g>
	<g>
		<g>
			<rect x="553" y="398.8" class="st11" width="2.8" height="2.8"/>
		</g>
	</g>
	<g>
		<g>
			<rect x="553" y="404.3" class="st11" width="2.8" height="2.8"/>
		</g>
	</g>
	<g>
		<g>
			<rect x="553" y="409.8" class="st11" width="2.8" height="2.8"/>
		</g>
	</g>
	<g>
		<g>
			<rect x="475.9" y="398.8" class="st11" width="2.8" height="2.8"/>
		</g>
	</g>
	<g>
		<g>
			<rect x="475.9" y="404.3" class="st11" width="2.8" height="2.8"/>
		</g>
	</g>
	<g>
		<g>
			<rect x="475.9" y="409.8" class="st11" width="2.8" height="2.8"/>
		</g>
	</g>
	<g>
		<g>
			<rect x="514.5" y="382.2" class="st11" width="2.8" height="2.8"/>
		</g>
	</g>
	<g>
		<g>
			<rect x="509" y="382.2" class="st11" width="2.8" height="2.8"/>
		</g>
	</g>
	<g>
		<g>
			<rect x="520" y="382.2" class="st11" width="2.8" height="2.8"/>
		</g>
	</g>
</g>
<g>
	<g>
		<g>
			<polygon class="st10" points="113.1,223.5 90.1,201.2 98.8,192.4 100.9,194.4 94.2,201.2 112.8,219.2 118.6,211.7 120.9,213.5 
							"/>
		</g>
	</g>
	<g>
		<g>
			<path class="st10" d="M73.9,224.8c-1.1,0-2.2-0.4-3.1-1.1c-1.5-1.3-2.7-3.9-1.5-6.5c0.7-1.5,4.3-5.2,6.1-6.9
				c5.7-5.5,7.2-5.5,7.8-5.5c2,0,5.6-0.5,7-0.7l0.3,0c0.3,0,1-0.6,1.3-1c0.5-0.6,1.4-0.7,2-0.1c0.6,0.5,0.7,1.4,0.1,2
				c-0.3,0.3-1.6,1.8-3.1,2l-0.3,0c-1.5,0.2-5.1,0.7-7.3,0.7c-2,0.5-10.6,9.2-11.3,10.7c-0.6,1.4,0.2,2.6,0.7,3.1
				c1.4,1.2,3.3-0.3,3.7-0.6c1.3-1.1,7.3-6,8.8-7.3c0.6-0.5,1.5-0.4,2,0.2c0.5,0.6,0.4,1.5-0.2,2c-1.5,1.2-7.5,6.2-8.8,7.3
				C76.8,224.2,75.3,224.8,73.9,224.8z"/>
		</g>
	</g>
	<g>
		<g>
			<path class="st10" d="M103.7,232.9c-0.4,0-0.8-0.2-1.1-0.5c-0.5-0.6-0.5-1.5,0.1-2c0.8-0.7,3.1-2.8,3.8-3.8c0.7-1,1-2.7,1.3-4.1
				c0.2-0.9,0.3-1.7,0.6-2.3c0.3-0.7,1.2-1.1,1.9-0.8c0.7,0.3,1.1,1.2,0.8,1.9c-0.1,0.3-0.3,1-0.4,1.7c-0.3,1.7-0.7,3.8-1.8,5.3
				c-1.1,1.5-3.9,4-4.2,4.2C104.4,232.8,104,232.9,103.7,232.9z"/>
		</g>
	</g>
	<g>
		<g>
			<path class="st10" d="M87.9,255.5c-1.6,0-3.2-0.5-4.4-1.4c-0.1,0-0.3-0.2-0.5-0.3c-0.6-0.3-1-0.6-1.2-0.8c-0.6-0.5-0.7-1.4-0.2-2
				c0.5-0.6,1.4-0.7,2-0.2c0.1,0.1,0.6,0.4,0.9,0.5c0.4,0.2,0.6,0.4,0.8,0.5c1.2,0.9,3.5,1.1,4.7,0.3c0.4-0.3,0.9-0.8,0.5-2.1
				c-0.2-0.5,0-1.1,0.4-1.5c0.4-0.4,1-0.5,1.5-0.3c1.8,0.6,2.3,0.5,2.9,0c0.6-0.6,1.1-1.7,0.7-2.3c-0.3-0.5-0.3-1.1,0.1-1.6
				c0.3-0.5,0.9-0.7,1.5-0.6c1.6,0.4,2.2-0.2,2.6-0.6l0.1-0.1c0.6-0.6,0.9-1.7,0.2-2.6c0,0,0,0,0,0c-0.5-0.6-0.4-1.5,0.2-2
				c0.4-0.3,0.9-0.4,1.3-0.3c0.2-0.1,0.4-0.3,0.5-0.5c0.2-0.4,0.5-1,0.5-1.5c-0.1-1.1-0.7-2.7-1.5-3.6c-1-1.2-11.6-9.9-18.1-15.1
				c-0.6-0.5-0.7-1.4-0.2-2c0.5-0.6,1.4-0.7,2-0.2c1.7,1.4,17,13.7,18.5,15.5c1.2,1.4,2.1,3.5,2.2,5.3c0.1,1.3-0.5,2.4-0.9,3.1
				c-0.2,0.3-0.7,0.9-1.3,1.3c0.4,1.7-0.1,3.5-1.4,4.7l-0.1,0.1c-0.4,0.4-1.4,1.4-3.2,1.5c-0.1,1.4-0.8,2.7-1.8,3.6
				c-1.2,1.1-2.4,1.3-3.7,1.2c-0.2,1.2-0.8,2.3-1.9,3C90.5,255.1,89.2,255.5,87.9,255.5z"/>
		</g>
	</g>
	<g>
		<g>
			<path class="st10" d="M91.2,251l-4.5-3.8c-0.6-0.5-0.7-1.4-0.2-2c0.5-0.6,1.4-0.7,2-0.2l4.5,3.8L91.2,251z"/>
		</g>
	</g>
	<g>
		<g>
			<path class="st11" d="M84.9,245.2c-0.3,0-0.7-0.1-0.9-0.3c0,0,0,0,0,0c-0.2-0.1-0.4-0.3-0.6-0.5c-0.4-0.6-0.3-1.4,0.3-1.9
				c0.6-0.6,1.4-0.5,2.2,0.2c0.6,0.5,0.7,1.4,0.2,2C85.7,245,85.3,245.2,84.9,245.2z"/>
		</g>
	</g>
	<g>
		<g>
			<path class="st10" d="M96.6,246.5l-5.6-4.6c-0.6-0.5-0.7-1.4-0.2-2c0.5-0.6,1.4-0.7,2-0.2l5.6,4.6L96.6,246.5z"/>
		</g>
	</g>
	<g>
		<g>
			<path class="st11" d="M89.3,240.1c0,0-0.1,0-0.1,0c-0.3,0-0.6-0.1-0.8-0.3l-0.1-0.1c0,0,0,0,0,0l-0.1,0l0,0
				c-0.7-0.6-0.5-1.4-0.5-1.6c0.2-0.6,0.8-1,1.4-1c0.4,0,0.7,0.1,0.9,0.3l0,0l0.1,0.1c0.4,0.3,0.6,0.7,0.6,1.2
				C90.8,239.4,90.1,240.1,89.3,240.1z"/>
		</g>
	</g>
	<g>
		<g>
			<path class="st10" d="M101.8,241.2c-0.3,0-0.6-0.1-0.9-0.3l-6.9-5.4c-0.6-0.5-0.7-1.4-0.2-2c0.5-0.6,1.4-0.7,2-0.2l6.9,5.4
				c0.6,0.5,0.7,1.4,0.2,2C102.7,241,102.3,241.2,101.8,241.2z"/>
		</g>
	</g>
	<g>
		<g>
			<polygon class="st10" points="54.9,229 45.9,223.2 47.4,220.8 54.2,225.1 68.8,206.1 61.7,200.2 63.6,198 72.8,205.6 			"/>
		</g>
	</g>
	<g>
		<g>
			<path class="st10" d="M75.9,212.3c-0.3,0-0.6-0.1-0.9-0.3c-0.8-0.6-3.8-1.2-6.2-1.4c-0.8-0.1-1.4-0.8-1.3-1.6
				c0.1-0.8,0.8-1.4,1.6-1.3c1,0.1,5.9,0.6,7.8,2.1c0.6,0.5,0.7,1.4,0.2,2C76.8,212.1,76.4,212.3,75.9,212.3z"/>
		</g>
	</g>
	<g>
		<g>
			<path class="st10" d="M58.7,228.5c-0.6,0-1.2-0.4-1.4-1l-1.3-3.8c-0.3-0.8,0.2-1.6,0.9-1.8c0.8-0.3,1.6,0.2,1.8,0.9l1.3,3.8
				c0.3,0.8-0.2,1.6-0.9,1.8C59,228.5,58.8,228.5,58.7,228.5z"/>
		</g>
	</g>
	<g>
		<g>
			<path class="st10" d="M77.1,254.8c-1.3,0-2.4-0.5-3.3-1.4c-0.9-0.9-1.4-2.1-1.4-3.3c0-1.3,0.5-2.4,1.4-3.3l1.8-1.8
				c0.9-0.9,2.1-1.4,3.3-1.4c1.3,0,2.4,0.5,3.3,1.4c0.9,0.9,1.4,2.1,1.4,3.3c0,1.3-0.5,2.4-1.4,3.3l-1.8,1.8
				C79.5,254.3,78.4,254.8,77.1,254.8z M78.9,246.5c-0.5,0-0.9,0.2-1.3,0.5l-1.8,1.8c-0.3,0.3-0.5,0.8-0.5,1.3
				c0,0.5,0.2,0.9,0.5,1.3c0.3,0.3,0.8,0.5,1.3,0.5c0.5,0,0.9-0.2,1.3-0.5l1.8-1.8c0.3-0.3,0.5-0.8,0.5-1.3c0-0.5-0.2-0.9-0.5-1.3
				C79.9,246.7,79.4,246.5,78.9,246.5z"/>
		</g>
	</g>
	<g>
		<g>
			<path class="st10" d="M71.4,249.4c-1.3,0-2.4-0.5-3.3-1.4c-0.9-0.9-1.4-2.1-1.4-3.3c0-1.3,0.5-2.4,1.4-3.3l1.8-1.8
				c0.9-0.9,2.1-1.4,3.3-1.4c1.3,0,2.4,0.5,3.3,1.4c0.9,0.9,1.4,2.1,1.4,3.3c0,1.3-0.5,2.4-1.4,3.3l-1.8,1.8
				C73.8,248.9,72.6,249.4,71.4,249.4z M73.2,241.1c-0.5,0-0.9,0.2-1.3,0.5l-1.8,1.8c-0.3,0.3-0.5,0.8-0.5,1.3
				c0,0.5,0.2,0.9,0.5,1.3c0.3,0.3,0.8,0.5,1.3,0.5c0.5,0,0.9-0.2,1.3-0.5l1.8-1.8c0.3-0.3,0.5-0.8,0.5-1.3c0-0.5-0.2-0.9-0.5-1.3
				C74.2,241.3,73.7,241.1,73.2,241.1z"/>
		</g>
	</g>
	<g>
		<g>
			<path class="st10" d="M66.5,244.6c-1.3,0-2.4-0.5-3.3-1.4c-0.9-0.9-1.4-2.1-1.4-3.3c0-1.3,0.5-2.4,1.4-3.3l1.8-1.8
				c0.9-0.9,2.1-1.4,3.3-1.4c1.3,0,2.4,0.5,3.3,1.4c0.9,0.9,1.4,2.1,1.4,3.3c0,1.3-0.5,2.4-1.4,3.3l-1.8,1.8
				C69,244.1,67.8,244.6,66.5,244.6z M68.4,236.2c-0.5,0-0.9,0.2-1.3,0.5l-1.8,1.8c-0.3,0.3-0.5,0.8-0.5,1.3c0,0.5,0.2,0.9,0.5,1.3
				c0.3,0.3,0.8,0.5,1.3,0.5c0.5,0,0.9-0.2,1.3-0.5l1.8-1.8c0.3-0.3,0.5-0.8,0.5-1.3c0-0.5-0.2-0.9-0.5-1.3
				C69.3,236.4,68.8,236.2,68.4,236.2z"/>
		</g>
	</g>
	<g>
		<g>
			<path class="st10" d="M61.4,239.1c-1.3,0-2.4-0.5-3.3-1.4c-0.9-0.9-1.4-2.1-1.4-3.3c0-1.3,0.5-2.4,1.4-3.3l1.8-1.8
				c0.9-0.9,2.1-1.4,3.3-1.4c1.3,0,2.4,0.5,3.3,1.4c0.9,0.9,1.4,2.1,1.4,3.3c0,1.3-0.5,2.4-1.4,3.3l-1.8,1.8
				C63.8,238.6,62.7,239.1,61.4,239.1z M63.2,230.8c-0.5,0-0.9,0.2-1.3,0.5l-1.8,1.8c-0.3,0.3-0.5,0.8-0.5,1.3
				c0,0.5,0.2,0.9,0.5,1.3c0.3,0.3,0.8,0.5,1.3,0.5c0.5,0,0.9-0.2,1.3-0.5l1.8-1.8c0.3-0.3,0.5-0.8,0.5-1.3c0-0.5-0.2-0.9-0.5-1.3
				C64.2,231,63.7,230.8,63.2,230.8z"/>
		</g>
	</g>
</g>
<g>
	<rect x="46" y="362.9" class="st6" width="41.4" height="66.8"/>
</g>
<g>
	<g>
		<g>
			<g>
				<path class="st8" d="M84.1,432.1H49.5c-3,0-5.6-2.6-5.6-5.6v-59.3c0-3,2.6-5.6,5.6-5.6h34.4c3,0,5.6,2.6,5.6,5.6v59.3
					C89.7,429.5,87.1,432.1,84.1,432.1z M49.5,364.3c-1.5,0-2.8,1.3-2.8,2.8v59.3c0,1.5,1.3,2.8,2.8,2.8h34.4c1.5,0,2.8-1.3,2.8-2.8
					v-59.3c0-1.5-1.3-2.8-2.8-2.8C83.9,364.3,49.5,364.3,49.5,364.3z"/>
			</g>
		</g>
	</g>
	<g>
		<g>
			<path class="st8" d="M56.6,381.9c-3.7,0-6.5-3-6.5-6.5c0-3.7,3-6.5,6.5-6.5c3.7,0,6.5,3,6.5,6.5S60.1,381.9,56.6,381.9z
				 M56.6,371.5c-1.9,0-3.7,1.7-3.7,3.7s1.7,3.7,3.7,3.7s3.7-1.7,3.7-3.7S58.6,371.5,56.6,371.5z"/>
		</g>
	</g>
	<g>
		<g>
			<path class="st8" d="M77,381.9c-3.7,0-6.5-3-6.5-6.5c0-3.7,3-6.5,6.5-6.5c3.7,0,6.5,3,6.5,6.5S80.6,381.9,77,381.9z M77,371.5
				c-1.9,0-3.7,1.7-3.7,3.7s1.7,3.7,3.7,3.7c1.9,0,3.7-1.7,3.7-3.7S79.1,371.5,77,371.5z"/>
		</g>
	</g>
	<g>
		<g>
			<path class="st8" d="M56.6,403.5c-3.7,0-6.5-3-6.5-6.5c0-3.7,3-6.5,6.5-6.5c3.7,0,6.5,3,6.5,6.5
				C63.1,400.5,60.1,403.5,56.6,403.5z M56.6,393.1c-1.9,0-3.7,1.7-3.7,3.7s1.7,3.7,3.7,3.7s3.7-1.7,3.7-3.7S58.6,393.1,56.6,393.1z
				"/>
		</g>
	</g>
	<g>
		<g>
			<path class="st8" d="M77,403.5c-3.7,0-6.5-3-6.5-6.5c0-3.7,3-6.5,6.5-6.5c3.7,0,6.5,3,6.5,6.5C83.5,400.5,80.6,403.5,77,403.5z
				 M77,393.1c-1.9,0-3.7,1.7-3.7,3.7s1.7,3.7,3.7,3.7c1.9,0,3.7-1.7,3.7-3.7C80.6,394.9,79.1,393.1,77,393.1z"/>
		</g>
	</g>
	<g>
		<g>
			<path class="st8" d="M56.6,424.9c-3.7,0-6.5-3-6.5-6.5c0-3.7,3-6.5,6.5-6.5c3.7,0,6.5,3,6.5,6.5
				C63.1,422.1,60.1,424.9,56.6,424.9z M56.6,414.8c-1.9,0-3.7,1.7-3.7,3.7s1.7,3.7,3.7,3.7s3.7-1.7,3.7-3.7S58.6,414.8,56.6,414.8z
				"/>
		</g>
	</g>
	<g>
		<g>
			<path class="st8" d="M77,424.9c-3.7,0-6.5-3-6.5-6.5c0-3.7,3-6.5,6.5-6.5c3.7,0,6.5,3,6.5,6.5C83.5,422.1,80.6,424.9,77,424.9z
				 M77,414.8c-1.9,0-3.7,1.7-3.7,3.7s1.7,3.7,3.7,3.7c1.9,0,3.7-1.7,3.7-3.7C80.6,416.5,79.1,414.8,77,414.8z"/>
		</g>
	</g>
</g>
<g>
	<ellipse class="st6" cx="87.1" cy="429.5" rx="13" ry="6.1"/>
</g>
<g>
	<path class="st9" d="M100.1,424.9c0,3.2-5.6,5-13,5c-3.9-0.2-3.9-1.1-3.9-1.1l8.4-8.9C91.9,420.2,99.7,420.4,100.1,424.9z"/>
</g>
<g>
	<g>
		<polygon class="st6" points="100.3,412.4 94.1,419.3 91.9,420.2 82.4,429.3 77.6,434.7 70.9,435.1 65.5,431 64.6,426.7 65.1,421 
			85.4,400.7 91.9,399.6 96.9,402.2 100.1,406.1 		"/>
	</g>
	<g>
		<polygon class="st9" points="65.1,421 64.6,426.7 65.5,431 70.9,435.1 77.6,434.7 77.4,433.6 74.1,431 74.1,424.7 75.7,422.3 
			84.3,419.7 83.5,418.4 74.8,411.1 		"/>
	</g>
	<g>
		<g>
			<g>
				<g>
					<g>
						<path class="st8" d="M93.2,421L93.2,421c-1.9-0.4-4.1-0.6-6.1-0.6c-0.9,0-1.7,0-2.6,0c-0.2,0-0.4,0-0.6-0.2l-9.3-9.3
							c-0.2-0.2-0.2-0.9,0-1.1l8-8c1.9-1.9,4.5-3,7.4-3c2.8,0,5.4,1.1,7.4,3c4.1,4.1,4.1,10.8,0,14.9l-3.9,3.9
							C93.6,421,93.4,421,93.2,421z M87.1,418.9c1.9,0,4.1,0.2,5.8,0.4l3.7-3.7c3.5-3.5,3.5-9.3,0-12.8c-1.7-1.7-3.9-2.6-6.3-2.6
							c-2.4,0-4.8,0.9-6.3,2.6l-7.6,7.6l8.4,8.4C85.6,419.1,86.3,418.9,87.1,418.9z"/>
					</g>
				</g>
				<g>
					<g>
						<path class="st8" d="M74.1,436c-2.8,0-5.4-1.1-7.4-3c-4.1-4.1-4.1-10.8,0-14.9l8-8c0.2-0.2,0.9-0.2,1.1,0l9.3,9.3
							c0.2,0.2,0.2,0.4,0.2,0.9c0,0.2-0.4,0.4-0.6,0.4c-6.1,0.4-9.7,2.4-9.7,4.1v5.8c0,1.1,1.5,2.2,4.1,3c0.2,0,0.4,0.4,0.4,0.6
							c0,0.2-0.2,0.6-0.4,0.6C77.6,435.5,75.9,436,74.1,436z M75.2,411.7l-7.6,7.6c-3.5,3.5-3.5,9.3,0,12.8c1.7,1.7,3.9,2.6,6.3,2.6
							c0.9,0,1.7-0.2,2.6-0.4c-2.2-1.1-3.2-2.4-3.2-3.7v-5.8c0-3,4.5-4.8,9.5-5.4L75.2,411.7z"/>
					</g>
				</g>
				<g>
					<g>
						<path class="st8" d="M93.6,405.5c-0.2,0-0.4,0-0.4-0.2c-1.5-1.5-3.7-1.5-5.2,0c-0.2,0.2-0.9,0.2-1.1,0c-0.2-0.2-0.2-0.9,0-1.1
							c1.9-1.9,5.2-1.9,7.1,0c0.2,0.2,0.2,0.9,0,1.1C94.1,405.5,93.8,405.5,93.6,405.5z"/>
					</g>
				</g>
			</g>
			<g>
				<g>
					<g>
						<path class="st8" d="M87.1,420.4c-0.9,0-1.7,0-2.6,0c-6.1,0.4-9.7,2.4-9.7,4.1c0,1.5,3.5,3.5,9.3,4.1c0.9,0,1.9,0.2,2.8,0.2
							c7.1,0,12.1-2.2,12.1-4.1c0-1.3-2.6-2.8-6.3-3.7C91.2,420.6,89.1,420.4,87.1,420.4z M87.1,430.3c-1.1,0-2.2,0-3-0.2
							c-5.2-0.4-10.6-2.4-10.6-5.4c0-3.2,5.6-5.2,11-5.6c0.9,0,1.7,0,2.6,0c2.2,0,4.3,0.2,6.3,0.6c4.5,0.9,7.4,2.8,7.4,5
							C100.8,428.4,93.6,430.3,87.1,430.3z"/>
					</g>
				</g>
				<g>
					<g>
						<path class="st8" d="M87.1,436c-3,0-6.3-0.4-8.7-1.3c-3.2-1.1-5.2-2.6-5.2-4.5v-5.4c0-0.4,0.4-0.6,0.6-0.6
							c0.4,0,0.6,0.4,0.6,0.6c0,1.5,3.5,3.5,9.3,4.1c0.9,0,1.9,0.2,2.8,0.2c7.1,0,12.1-2.2,12.1-4.1c0-0.4,0.4-0.6,0.6-0.6
							c0.4,0,0.6,0.4,0.6,0.6v5.8C100.8,434,93.6,436,87.1,436z M74.8,427.3v3.2c0,1.1,1.5,2.2,4.1,3c2.2,0.6,5.2,1.1,8.2,1.1
							c7.1,0,12.1-2.2,12.1-4.1v-3c-2.4,1.9-7.4,3-12.1,3c-1.1,0-2.2,0-3-0.2C80.4,429.9,77,428.8,74.8,427.3z"/>
					</g>
				</g>
			</g>
		</g>
		<g>
			<g>
				<path class="st8" d="M82.6,429.9c-0.2,0-0.4,0-0.4-0.2c-0.2-0.2-0.2-0.9,0-1.1l8.9-8.9c0.2-0.2,0.9-0.2,1.1,0
					c0.2,0.2,0.2,0.9,0,1.1l-8.9,8.9C83,429.7,82.8,429.9,82.6,429.9z"/>
			</g>
		</g>
	</g>
</g>
<g>
	<circle class="st9" cx="56.6" cy="375.4" r="3.7"/>
</g>
<g>
	<circle class="st9" cx="77" cy="375.4" r="3.7"/>
</g>
<g>
	<circle class="st9" cx="77" cy="396.8" r="3.7"/>
</g>
<g>
	<circle class="st9" cx="56.6" cy="396.8" r="3.7"/>
</g>
<g>
	<circle class="st9" cx="56.6" cy="418.4" r="3.7"/>
</g>
</svg>
