<svg xmlns="http://www.w3.org/2000/svg" width="12.316" height="22.437" viewBox="0 0 12.316 22.437"><defs><style>.a{fill:#73d7ff;}.b{fill:#003575;}</style></defs><g transform="translate(-80.584 -173.052)"><circle class="a" cx="5.368" cy="5.368" r="5.368" transform="matrix(0.16, -0.987, 0.987, 0.16, 80.584, 183.649)"/><path class="b" d="M90.143,202.081a.587.587,0,0,1-.586-.586V191.034a.586.586,0,0,1,1.171,0v10.461A.587.587,0,0,1,90.143,202.081Z" transform="translate(-3.4 -6.592)"/><path class="b" d="M92.758,181.6a.587.587,0,0,1-.586-.586,2.032,2.032,0,0,0-2.03-2.03.586.586,0,1,1,0-1.171,3.2,3.2,0,0,1,3.2,3.2A.586.586,0,0,1,92.758,181.6Z" transform="translate(-3.4 -1.805)"/><path class="b" d="M86.951,185.235a5.817,5.817,0,1,1,5.817-5.817A5.824,5.824,0,0,1,86.951,185.235Zm0-10.462a4.645,4.645,0,1,0,4.645,4.645A4.651,4.651,0,0,0,86.951,174.773Z" transform="translate(-0.208 -0.208)"/></g></svg>