<?xml version="1.0" encoding="UTF-8"?>
<svg xmlns="http://www.w3.org/2000/svg" xmlns:xlink="http://www.w3.org/1999/xlink" width="40pt" height="40pt"
     viewBox="0 0 40 40" version="1.1">
  <g id="surface1">
    <path style=" stroke:none;fill-rule:nonzero;fill:rgb(100%,100%,100%);fill-opacity:1;"
          d="M 0.585938 17.191406 L 39.363281 17.191406 L 39.363281 22.480469 L 0.585938 22.480469 Z M 0.585938 17.191406 "/>
    <path style=" stroke:none;fill-rule:nonzero;fill:rgb(45.098039%,84.313725%,100%);fill-opacity:1;"
          d="M 5.136719 23.285156 L 35.460938 23.285156 L 32.632812 39.421875 L 7.390625 39.421875 Z M 5.136719 23.285156 "/>
    <path style=" stroke:none;fill-rule:nonzero;fill:rgb(45.098039%,84.313725%,100%);fill-opacity:1;"
          d="M 23.460938 18.039062 L 19.949219 18.957031 L 16.917969 18.039062 L 16.917969 1.730469 L 20.1875 0.8125 L 23.457031 1.730469 Z M 23.460938 18.039062 "/>
    <path style=" stroke:none;fill-rule:nonzero;fill:rgb(0%,20.784314%,45.882353%);fill-opacity:1;"
          d="M 38.226562 15.460938 L 24.878906 15.460938 C 24.890625 15.320312 24.921875 15.183594 24.921875 15.035156 L 24.921875 4.730469 C 24.921875 2.117188 22.800781 0 20.1875 0 C 17.574219 0 15.457031 2.117188 15.457031 4.730469 L 15.457031 15.035156 C 15.457031 15.179688 15.488281 15.316406 15.5 15.460938 L 2.152344 15.460938 C 0.964844 15.460938 0 16.425781 0 17.613281 L 0 21.476562 C 0 22.664062 0.964844 23.628906 2.152344 23.628906 L 3.625 23.628906 C 3.835938 23.628906 4.011719 23.78125 4.042969 23.988281 L 6.453125 39.644531 C 6.515625 40.066406 6.878906 40.378906 7.308594 40.378906 L 33.074219 40.378906 C 33.503906 40.378906 33.867188 40.066406 33.929688 39.644531 L 36.339844 23.988281 C 36.371094 23.78125 36.546875 23.628906 36.757812 23.628906 L 38.226562 23.628906 C 39.417969 23.628906 40.378906 22.664062 40.382812 21.476562 L 40.382812 17.609375 C 40.378906 16.421875 39.414062 15.460938 38.226562 15.460938 Z M 17.191406 4.730469 C 17.191406 3.070312 18.535156 1.730469 20.191406 1.730469 C 21.847656 1.730469 23.191406 3.070312 23.191406 4.730469 L 23.191406 15.035156 C 23.191406 16.691406 21.847656 18.035156 20.191406 18.035156 C 18.535156 18.035156 17.191406 16.691406 17.191406 15.035156 Z M 32.386719 38.289062 C 32.355469 38.496094 32.179688 38.648438 31.972656 38.648438 L 8.414062 38.648438 C 8.203125 38.648438 8.027344 38.496094 7.996094 38.289062 L 5.816406 24.117188 C 5.796875 23.996094 5.832031 23.871094 5.910156 23.777344 C 5.992188 23.683594 6.109375 23.628906 6.234375 23.628906 L 34.148438 23.628906 C 34.273438 23.628906 34.390625 23.683594 34.472656 23.777344 C 34.550781 23.871094 34.589844 23.996094 34.570312 24.117188 Z M 38.652344 21.476562 C 38.652344 21.710938 38.460938 21.902344 38.226562 21.902344 L 2.152344 21.902344 C 1.921875 21.902344 1.730469 21.710938 1.730469 21.476562 L 1.730469 17.613281 C 1.730469 17.5 1.773438 17.390625 1.855469 17.3125 C 1.933594 17.234375 2.042969 17.1875 2.152344 17.1875 L 16.007812 17.1875 C 16.804688 18.769531 18.425781 19.765625 20.195312 19.765625 C 21.964844 19.765625 23.585938 18.769531 24.382812 17.1875 L 38.238281 17.1875 C 38.472656 17.1875 38.660156 17.378906 38.660156 17.613281 Z M 38.652344 21.476562 "/>
    <path style=" stroke:none;fill-rule:nonzero;fill:rgb(0%,20.784314%,45.882353%);fill-opacity:1;"
          d="M 19.324219 13.75 C 19.324219 13.273438 19.714844 12.886719 20.191406 12.886719 C 20.667969 12.886719 21.054688 13.273438 21.054688 13.75 C 21.054688 14.226562 20.667969 14.613281 20.191406 14.617188 C 19.714844 14.617188 19.324219 14.226562 19.324219 13.75 Z M 19.324219 13.75 "/>
    <path style=" stroke:none;fill-rule:nonzero;fill:rgb(0%,20.784314%,45.882353%);fill-opacity:1;"
          d="M 25.402344 20.414062 C 25.386719 20.40625 25.371094 20.394531 25.355469 20.382812 C 23.878906 19.359375 22.152344 18.820312 20.363281 18.820312 C 18.570312 18.820312 16.84375 19.359375 15.367188 20.382812 C 15.351562 20.394531 15.335938 20.40625 15.320312 20.414062 L 25.402344 20.414062 M 31.332031 23.34375 L 9.390625 23.34375 C 10.289062 21.160156 11.78125 19.304688 13.703125 17.976562 C 15.671875 16.613281 17.972656 15.894531 20.363281 15.894531 C 22.75 15.894531 25.050781 16.613281 27.023438 17.976562 C 28.945312 19.304688 30.433594 21.160156 31.332031 23.339844 Z M 31.332031 23.34375 "/>
    <path style=" stroke:none;fill-rule:nonzero;fill:rgb(45.098039%,84.313725%,100%);fill-opacity:1;"
          d="M 31.21875 27.882812 C 31.21875 22.222656 26.414062 17.636719 20.488281 17.636719 C 14.5625 17.636719 9.757812 22.222656 9.757812 27.882812 C 9.757812 33.539062 14.5625 38.125 20.488281 38.125 C 26.414062 38.125 31.21875 33.539062 31.21875 27.882812 Z M 31.21875 27.882812 "/>
    <path
      style="fill-rule:nonzero;fill:rgb(0%,20.784314%,45.882353%);fill-opacity:1;stroke-width:0.6;stroke-linecap:butt;stroke-linejoin:miter;stroke:rgb(0%,20.784314%,45.882353%);stroke-opacity:1;stroke-miterlimit:4;"
      d="M 166.208434 184.238691 C 166.088316 188.687031 162.448766 192.230488 158.000426 192.230488 C 153.552086 192.230488 149.908531 188.687031 149.788414 184.238691 C 149.808434 181.307832 151.438023 178.621211 154.032555 177.251875 L 154.032555 178.044648 C 151.842418 179.341914 150.493102 181.696211 150.48109 184.242695 C 150.48109 185.495918 150.80941 186.729121 151.442027 187.810176 L 153.724254 186.681074 C 153.892418 186.605 154.092613 186.67707 154.176695 186.84123 C 154.256773 187.009395 154.192711 187.213594 154.028551 187.30168 L 151.818395 188.394746 C 153.251793 190.37668 155.554039 191.54582 158.000426 191.533809 C 162.092418 191.589863 165.455699 188.32668 165.519762 184.234688 C 165.519762 183.409883 165.375621 182.593086 165.095348 181.820332 L 162.765074 182.973457 C 162.717027 182.99748 162.664977 183.009492 162.612926 183.009492 C 162.45277 183.009492 162.316637 182.897383 162.276598 182.74123 C 162.240563 182.585078 162.316637 182.424922 162.460777 182.352852 L 164.827086 181.183711 C 164.214488 179.902461 163.245543 178.829414 162.036363 178.084688 L 162.036363 177.283906 C 164.594859 178.665254 166.192418 181.331855 166.208434 184.238691 Z M 166.208434 184.238691 "
      transform="matrix(0.97561,0,0,0.97561,-133.720976,-151.053659)"/>
    <path style=" stroke:none;fill-rule:nonzero;fill:rgb(100%,100%,100%);fill-opacity:1;"
          d="M 20.3125 19.554688 L 21.109375 20.425781 L 21.363281 21.761719 L 21.363281 22.433594 L 22.828125 21.996094 L 23.09375 22.730469 L 22.828125 23.933594 L 22.195312 25.316406 L 24.003906 25.316406 L 24.003906 26.175781 L 23.601562 27.039062 L 23.09375 28.089844 L 23.875 28.480469 L 23.875 29.402344 L 23.441406 30.550781 L 22.828125 31.4375 L 21.707031 31.925781 L 20.308594 32.15625 L 19.078125 31.925781 L 18.128906 31.4375 L 17.144531 30.550781 L 16.742188 29.089844 L 16.742188 28.34375 L 17.742188 28.34375 L 17.140625 27.265625 L 16.902344 26.40625 L 16.742188 25.316406 L 18.128906 25.316406 L 17.738281 24.070312 L 17.738281 21.761719 L 18.804688 22.292969 C 19.070312 22.425781 19.347656 22.125 19.347656 22.125 L 19.347656 21.152344 L 19.789062 20.429688 Z M 20.3125 19.554688 "/>
    <path
      style="fill-rule:nonzero;fill:rgb(0%,20.784314%,45.882353%);fill-opacity:1;stroke-width:0.6;stroke-linecap:butt;stroke-linejoin:miter;stroke:rgb(0%,20.784314%,45.882353%);stroke-opacity:1;stroke-miterlimit:4;"
      d="M 211.765191 150.47618 C 211.765191 150.47618 210.908355 150.400105 210.888336 150.400105 C 211.540973 149.519246 211.849273 148.430184 211.765191 147.337117 C 211.260699 147.241023 210.740191 147.233016 210.227691 147.313094 C 210.339801 147.160945 210.439898 147.000789 210.527984 146.836629 C 210.968414 145.86368 210.992438 144.750594 210.588043 143.761629 C 210.10357 143.829695 209.631109 143.981844 209.198688 144.218074 C 209.198688 144.137996 209.206695 144.053914 209.206695 143.965828 C 209.126617 142.908797 208.614117 141.931844 207.785309 141.267195 C 206.960504 141.931844 206.444 142.908797 206.367926 143.965828 C 206.367926 144.053914 206.367926 144.137996 206.375934 144.218074 C 205.943512 143.981844 205.471051 143.829695 204.982574 143.765633 C 204.582184 144.758602 204.606207 145.871688 205.046637 146.844637 C 205.134723 147.008797 205.230816 147.160945 205.338922 147.313094 C 204.830426 147.233016 204.313922 147.241023 203.80943 147.333113 C 203.725348 148.430184 204.037652 149.515242 204.686285 150.400105 C 204.666266 150.400105 203.80943 150.47618 203.80943 150.47618 C 203.689313 151.649324 204.069684 152.822469 204.850445 153.707332 C 205.414996 154.307918 206.183746 154.684285 207.004547 154.756355 C 207.14068 154.756355 207.272809 154.74034 207.404938 154.704305 L 207.404938 157.250789 L 208.181695 157.250789 L 208.181695 154.700301 C 208.301813 154.752352 208.429938 154.780379 208.562066 154.776375 C 209.386871 154.700301 210.151617 154.323934 210.716168 153.719344 C 211.504938 152.830477 211.885309 151.657332 211.765191 150.47618 Z M 211.068512 147.949715 C 211.040484 148.730477 210.752203 149.479207 210.247711 150.075789 C 210.007477 150.31202 209.739215 150.512215 209.44693 150.676375 C 209.178668 150.836531 208.878375 150.928621 208.56607 150.948641 C 208.417926 150.960652 208.269781 150.908602 208.16568 150.796492 C 207.873395 150.440145 208.201715 149.411141 209.07857 148.57032 C 209.635113 148.113875 210.351813 147.889656 211.068512 147.949715 Z M 208.245758 151.597273 C 208.07359 151.797469 207.921441 152.01368 207.789313 152.241902 C 207.65318 152.01368 207.501031 151.797469 207.328863 151.597273 C 207.440973 151.461141 207.609137 151.377059 207.785309 151.377059 C 207.965484 151.377059 208.133648 151.461141 208.245758 151.597273 Z M 207.264801 148.382137 C 207.348883 148.354109 207.428961 148.318074 207.501031 148.266023 C 207.497027 148.109871 207.625152 147.981746 207.781305 147.977742 C 207.937457 147.973738 208.069586 148.097859 208.07359 148.258016 C 208.149664 148.306063 208.229742 148.346102 208.317828 148.370125 C 208.117633 148.594344 207.937457 148.842586 207.785309 149.10284 C 207.637164 148.84659 207.464996 148.606355 207.268805 148.386141 Z M 210.095563 144.578426 C 210.247711 145.223055 210.187652 145.895711 209.923395 146.504305 C 209.422906 147.425203 208.722223 147.857625 208.453961 147.681453 C 208.181695 147.505281 208.14566 146.61241 208.690191 145.619441 C 209.014508 145.110945 209.519 144.742586 210.099566 144.578426 Z M 207.785309 142.248152 C 208.213727 142.724617 208.469977 143.329207 208.51402 143.965828 C 208.51402 144.250105 208.485992 144.534383 208.429938 144.810652 C 208.293805 144.954793 208.177691 145.114949 208.085602 145.287117 C 207.985504 145.467293 207.901422 145.651473 207.825348 145.84366 C 207.81734 145.859676 207.805328 145.867684 207.785309 145.867684 C 207.769293 145.867684 207.753277 145.859676 207.74527 145.84366 C 207.673199 145.651473 207.589117 145.467293 207.48902 145.287117 C 207.392926 145.114949 207.280816 144.954793 207.144684 144.810652 C 207.084625 144.534383 207.056598 144.250105 207.060602 143.965828 C 207.104645 143.329207 207.364898 142.724617 207.789313 142.248152 Z M 205.475055 144.578426 C 206.055621 144.74659 206.556109 145.118953 206.88443 145.627449 C 207.428961 146.620418 207.384918 147.517293 207.12066 147.693465 C 206.748297 147.941707 206.019586 147.184969 205.651227 146.516316 C 205.386969 145.903719 205.32691 145.227059 205.479059 144.578426 Z M 204.506109 147.949715 C 205.222809 147.889656 205.935504 148.113875 206.488043 148.57032 C 207.364898 149.411141 207.689215 150.436141 207.400934 150.796492 C 207.296832 150.904598 207.148688 150.960652 207.000543 150.944637 C 206.688238 150.924617 206.383941 150.832527 206.11568 150.668367 C 205.827398 150.508211 205.563141 150.308016 205.322906 150.075789 C 204.822418 149.479207 204.534137 148.730477 204.510113 147.949715 Z M 207.008551 154.087703 C 206.363922 154.003621 205.771344 153.69532 205.330914 153.218855 C 204.826422 152.622273 204.538141 151.873543 204.510113 151.092781 L 204.634234 151.092781 C 205.054645 151.088777 205.471051 151.160848 205.85943 151.312996 C 206.960504 151.75743 207.809332 153.43907 207.404938 153.939559 C 207.300836 154.04366 207.156695 154.099715 207.008551 154.087703 Z M 210.247711 153.218855 C 209.807281 153.69532 209.214703 154.003621 208.570074 154.087703 C 208.42193 154.099715 208.273785 154.047664 208.169684 153.935555 C 207.761285 153.435066 208.634137 151.741414 209.711188 151.312996 C 210.139605 151.148836 210.600055 151.072762 211.060504 151.092781 C 211.040484 151.873543 210.752203 152.622273 210.247711 153.218855 Z M 210.247711 153.218855 "
      transform="matrix(0.97561,0,0,0.97561,-182.40878,-118.626341)"/>
  </g>
</svg>
