<svg xmlns="http://www.w3.org/2000/svg" width="40.066" height="40.057" viewBox="0 0 40.066 40.057">
  <defs>
    <style>.a{fill:#003575;}.a,.b{fill-rule:evenodd;}.b{fill:#73d7ff;}</style>
  </defs>
  <g transform="translate(-233 -2837.519)">
    <path class="a" d="M280.428,798.192a12.537,12.537,0,1,1-12.546,12.537,12.539,12.539,0,0,1,12.546-12.537Z"
          transform="translate(-27.391 2046.819)"/>
    <path class="b"
          d="M183.746,694.019a2.191,2.191,0,0,1,2.191,2.191c0,1.418-2.022,3.143-.7,5.385a13.12,13.12,0,0,0-2.981,0c1.317-2.242-.7-3.967-.7-5.385a2.193,2.193,0,0,1,2.2-2.191Zm-6.158,3.975a1.5,1.5,0,0,1,1.937.858c.306.807-.348,2.157.484,3.219a13.287,13.287,0,0,0-1.495.577c-.085-1.35-1.478-1.92-1.784-2.727a1.494,1.494,0,0,1,.858-1.928Zm-9.87,9.819a1.491,1.491,0,0,1,1.937-.849c.8.306,1.367,1.7,2.718,1.8a11.245,11.245,0,0,0-.586,1.486c-1.062-.841-2.412-.2-3.211-.5a1.5,1.5,0,0,1-.858-1.937Zm.161,12.851a1.5,1.5,0,0,1,.8-1.953c.8-.331,2.166.28,3.211-.578a11.638,11.638,0,0,0,.612,1.469c-1.351.136-1.877,1.538-2.667,1.869a1.486,1.486,0,0,1-1.954-.807Zm9.19,9.225a1.5,1.5,0,0,1-.8-1.954c.331-.79,1.741-1.316,1.877-2.667a11.292,11.292,0,0,0,1.478.62c-.875,1.045-.263,2.412-.595,3.2a1.5,1.5,0,0,1-1.962.8Zm13.31.017a1.493,1.493,0,0,1-1.954-.807c-.331-.79.28-2.157-.586-3.2a13.072,13.072,0,0,0,1.469-.612c.136,1.342,1.537,1.869,1.869,2.667a1.488,1.488,0,0,1-.8,1.954Zm9.267-9.335a1.5,1.5,0,0,1-1.954.815c-.79-.323-1.325-1.724-2.676-1.852a14.2,14.2,0,0,0,.612-1.478c1.045.858,2.412.238,3.2.569a1.485,1.485,0,0,1,.815,1.945Zm-.144-13.395a1.5,1.5,0,0,1-.773,1.971c-.79.34-2.166-.246-3.194.637a11.984,11.984,0,0,0-.637-1.47c1.342-.153,1.852-1.563,2.633-1.911a1.5,1.5,0,0,1,1.971.773Zm-9.258-9.046a1.5,1.5,0,0,1,.815,1.954c-.323.79-1.724,1.333-1.843,2.675a12.665,12.665,0,0,0-1.486-.6c.858-1.045.238-2.412.561-3.2a1.494,1.494,0,0,1,1.954-.824Zm-20.666,1.75a2.2,2.2,0,0,1,3.109,0c.994,1,.79,3.652,3.313,4.306a12.468,12.468,0,0,0-2.115,2.115c-.654-2.523-3.3-2.31-4.307-3.313a2.2,2.2,0,0,1,0-3.109Zm-5.869,14.168a2.2,2.2,0,0,1,2.2-2.2c1.41,0,3.143,2.022,5.385.705a12.007,12.007,0,0,0,0,2.99c-2.242-1.325-3.975.7-5.385.7a2.193,2.193,0,0,1-2.2-2.191Zm5.869,14.159a2.189,2.189,0,0,1,0-3.1c1-1,3.652-.79,4.307-3.313A12.777,12.777,0,0,0,176,723.909c-2.523.654-2.319,3.3-3.313,4.3a2.2,2.2,0,0,1-3.109,0Zm14.168,5.869a2.2,2.2,0,0,1-2.2-2.191c0-1.419,2.022-3.143.7-5.385a13.12,13.12,0,0,0,2.981,0c-1.317,2.242.7,3.967.7,5.385a2.2,2.2,0,0,1-2.191,2.191Zm14.159-5.869a2.189,2.189,0,0,1-3.1,0c-1-.994-.8-3.644-3.313-4.3a12.726,12.726,0,0,0,2.106-2.115c.654,2.523,3.3,2.31,4.306,3.313a2.189,2.189,0,0,1,0,3.1Zm5.869-14.159a2.193,2.193,0,0,1-2.2,2.191c-1.41,0-3.143-2.021-5.385-.7a12,12,0,0,0,0-2.99c2.242,1.316,3.975-.705,5.385-.705a2.2,2.2,0,0,1,2.2,2.2Zm-5.869-14.168a2.2,2.2,0,0,1,0,3.109c-1,1-3.652.79-4.306,3.313a12.418,12.418,0,0,0-2.106-2.115c2.514-.654,2.31-3.3,3.313-4.306a2.189,2.189,0,0,1,3.1,0Z"
          transform="translate(69.291 2143.5)"/>
    <path class="b" d="M337.452,885.357a1.529,1.529,0,1,1-1.537,1.529,1.528,1.528,0,0,1,1.537-1.529Z"
          transform="translate(-90.531 1965.923)"/>
    <path class="b" d="M363.546,988.114a1.529,1.529,0,1,1-1.529,1.529,1.528,1.528,0,0,1,1.529-1.529Z"
          transform="translate(-114.755 1870.556)"/>
    <path class="b" d="M312.9,954.57a1.083,1.083,0,1,1-1.079,1.087,1.084,1.084,0,0,1,1.079-1.087Z"
          transform="translate(-68.169 1901.687)"/>
    <path class="b" d="M447.782,971.105a1.2,1.2,0,1,1-1.2,1.2,1.194,1.194,0,0,1,1.2-1.2Z"
          transform="translate(-193.241 1886.341)"/>
    <path class="b" d="M491.388,1055.318a.862.862,0,1,1-.866.866.865.865,0,0,1,.866-.866Z"
          transform="translate(-234.019 1808.184)"/>
    <path class="b" d="M418.309,1040.555a1.847,1.847,0,1,1-1.843,1.843,1.849,1.849,0,0,1,1.843-1.843Z"
          transform="translate(-165.289 1821.886)"/>
    <path class="b" d="M403.542,919.373a1.363,1.363,0,1,1-1.367,1.368,1.367,1.367,0,0,1,1.367-1.368Z"
          transform="translate(-152.026 1934.353)"/>
    <path class="b" d="M450.015,850.752A2.013,2.013,0,1,1,448,852.765a2.012,2.012,0,0,1,2.013-2.013Z"
          transform="translate(-194.557 1998.039)"/>
    <path class="b" d="M402.206,840.712a.862.862,0,1,1-.858.858.863.863,0,0,1,.858-.858Z"
          transform="translate(-151.258 2007.357)"/>
    <path class="b" d="M352.32,1055.438a.82.82,0,1,1-.815.815.823.823,0,0,1,.815-.815Z"
          transform="translate(-105 1808.073)"/>
    <path class="b" d="M518.209,958.586a2.3,2.3,0,1,1-2.293,2.293,2.295,2.295,0,0,1,2.293-2.293Z"
          transform="translate(-257.587 1897.96)"/>
    <path class="b" d="M525.4,910.869a.862.862,0,1,1-.866.867.865.865,0,0,1,.866-.867Z"
          transform="translate(-265.589 1942.245)"/>
  </g>
</svg>
