<?xml version="1.0" encoding="utf-8"?>
<!-- Generator: Adobe Illustrator 21.0.2, SVG Export Plug-In . SVG Version: 6.00 Build 0)  -->
<svg version="1.1" id="Livello_1" xmlns="http://www.w3.org/2000/svg" xmlns:xlink="http://www.w3.org/1999/xlink" x="0px" y="0px"
	 viewBox="0 0 40 40" style="enable-background:new 0 0 40 40;" xml:space="preserve">
<style type="text/css">
	.st0{fill:#FFFFFF;}
	.st1{fill:#7ECEF5;}
	.st2{fill:#1E3A6D;}
</style>
<g id="Livello_2">
	<g id="Layer_1">
		<ellipse class="st0" cx="12.4" cy="12.5" rx="4.1" ry="5.9"/>
		<path class="st1" d="M21.8,23.2l-0.7-0.5h-1.6L17.5,22l-0.4-0.8l-0.6-0.8c-2.2,2.3-5.8,2.4-8.1,0.2c-0.1-0.1-0.1-0.1-0.2-0.2
			l-0.1,0.9l-2.4,1.1l-2.2,0.2l-1.2,1.2l-0.9,7.9h21.9v-5L21.8,23.2z"/>
		<path class="st2" d="M12.4,19c-2.7,0-4.8-3.2-4.8-7.3c0-5.1,3.3-5.6,4.8-5.6s4.8,0.5,4.8,5.6C17.1,15.8,15,19,12.4,19z M12.4,7.2
			c-1.7,0-3.6,0.8-3.6,4.5c0,3.3,1.7,6.2,3.6,6.2S16,15,16,11.7C16,8,14,7.2,12.4,7.2z"/>
		<path class="st2" d="M1.5,32.4c-0.3,0-0.5-0.2-0.6-0.5c-0.2-2.6-0.1-7.5,1.5-9.2c0.4-0.4,1-0.7,1.6-0.7h0.5c1.3,0,2.3-0.1,3.2-1.4
			c0.1-0.2,0.3-0.2,0.5-0.2c0.1,0,0.2,0,0.3,0.1c0.3,0.2,0.3,0.5,0.1,0.8c0,0,0,0,0,0c-1.2,1.8-2.8,1.9-4.1,1.9H4
			c-0.3,0-0.5,0.1-0.7,0.4c-1.1,1.2-1.3,4.8-1.2,7.5c0,0.1,0.1,0.3,0.3,0.3h2.5c0.1,0,0.3-0.1,0.3-0.3v-3.4c0-0.3,0.3-0.6,0.6-0.6
			s0.6,0.3,0.6,0.6V31c0,0.2,0.1,0.3,0.3,0.3h11.8c0.2,0,0.3-0.1,0.3-0.3v-3.4c0-0.3,0.3-0.6,0.6-0.6c0.3,0,0.6,0.3,0.6,0.6V31
			c0,0.2,0.1,0.3,0.3,0.3h2.5c0.1,0,0.3-0.1,0.3-0.3c0.1-2.7-0.1-6.4-1.2-7.5c-0.2-0.2-0.4-0.3-0.7-0.3h-0.6c-1.3,0-2.9-0.1-4.1-1.9
			c-0.2-0.3-0.1-0.6,0.1-0.8c0.1-0.1,0.2-0.1,0.3-0.1c0.2,0,0.4,0.1,0.5,0.2c0.9,1.3,2,1.4,3.2,1.4h0.5c0.6,0,1.2,0.3,1.6,0.7
			c1.6,1.7,1.7,6.5,1.5,9.1c0,0.3-0.3,0.5-0.6,0.5L1.5,32.4z"/>
		<ellipse class="st0" cx="27.9" cy="12.6" rx="4.1" ry="5.9"/>
		<path class="st1" d="M37.3,23.2l-0.7-0.5h-1.6L33,22l-0.4-0.8L32,20.5c-2.2,2.3-5.8,2.4-8.1,0.2c-0.1-0.1-0.2-0.2-0.2-0.2
			l-0.1,0.9l-2.4,1.1L19,22.6l-1.2,1.2l-0.8,7.9h21.9v-5L37.3,23.2z"/>
		<path class="st2" d="M27.8,19c-2.7,0-4.8-3.2-4.8-7.3c0-5,3.4-5.6,4.8-5.6s4.8,0.6,4.8,5.6C32.6,15.8,30.5,19,27.8,19z M27.8,7.3
			c-1.7,0-3.6,0.8-3.6,4.5c0,3.3,1.7,6.2,3.6,6.2s3.7-2.8,3.7-6.2C31.5,8,29.5,7.3,27.8,7.3z"/>
		<path class="st2" d="M17,32.5c-0.3,0-0.5-0.2-0.6-0.5c-0.2-2.6-0.1-7.5,1.5-9.1c0.4-0.4,0.9-0.7,1.5-0.7H20c1.3,0,2.3-0.1,3.2-1.4
			c0.1-0.2,0.3-0.2,0.5-0.2c0.1,0,0.2,0,0.3,0.1c0.3,0.2,0.3,0.5,0.1,0.8c0,0,0,0,0,0c-1.2,1.8-2.8,1.9-4.1,1.9h-0.6
			c-0.3,0-0.5,0.1-0.7,0.3c-1.1,1.2-1.3,4.8-1.2,7.5c0,0.1,0.1,0.3,0.3,0.3h2.5c0.2,0,0.3-0.1,0.3-0.3v-3.4c0-0.3,0.3-0.6,0.6-0.6
			s0.6,0.3,0.6,0.6v3.4c0,0.2,0.1,0.3,0.3,0.3h11.7c0.2,0,0.3-0.1,0.3-0.3v-3.4c0-0.3,0.3-0.6,0.6-0.6c0.3,0,0.6,0.3,0.6,0.6v3.4
			c0,0.2,0.1,0.3,0.3,0.3H38c0.1,0,0.3-0.1,0.3-0.3c0.1-2.7-0.1-6.4-1.2-7.5c-0.2-0.2-0.4-0.3-0.7-0.3h-0.6c-1.3,0-2.9-0.1-4.1-1.9
			c-0.2-0.3-0.1-0.6,0.1-0.8c0.1-0.1,0.2-0.1,0.3-0.1c0.2,0,0.4,0.1,0.5,0.2c0.9,1.3,2,1.4,3.2,1.4h0.5c0.6,0,1.2,0.3,1.6,0.7
			c1.6,1.7,1.7,6.5,1.5,9.1c0,0.3-0.3,0.5-0.6,0.5L17,32.5z"/>
	</g>
</g>
</svg>
