<svg xmlns="http://www.w3.org/2000/svg" width="25.588" height="37.064" viewBox="0 0 25.588 37.064">
  <defs>
    <style>.a{fill:#fff;}.b{fill:#73d7ff;}.c{fill:#003575;}</style>
  </defs>
  <g transform="translate(-508.704 -597.468)">
    <g transform="translate(451.42 329.692)">
      <g transform="translate(57.284 267.776)">
        <g transform="translate(7.376 0.796)">
          <rect class="a" width="10.921" height="17.736"/>
        </g>
        <g transform="translate(0.757 19.328)">
          <path class="b" d="M64.761,289.678,58.142,305.75l1.489,1.136h21.9l.607-1.765-6.453-15.443Z"
                transform="translate(-58.142 -289.678)"/>
        </g>
        <path class="c"
              d="M59.193,304.84a1.911,1.911,0,0,1-1.909-1.909.8.8,0,0,1,.063-.316c2.356-5.7,6.03-14.658,6.5-15.994a.43.43,0,0,0,.022-.133V270.04a.347.347,0,0,1,.007-.061c0-.034.009-.067.011-.1a.408.408,0,0,0-.406-.438H62.218a.832.832,0,0,1,0-1.664H78.323a.832.832,0,0,1,0,1.664H77.065a.408.408,0,0,0-.406.436c0,.035.007.07.012.1a.459.459,0,0,1,.006.061V286.5a.406.406,0,0,0,.02.126c.424,1.3,3.976,10.507,6.117,16a.848.848,0,0,1,.056.3,1.911,1.911,0,0,1-1.91,1.909ZM65.561,287.5a.408.408,0,0,0-.381.265c-.688,1.847-2.605,6.567-6.032,14.852a.407.407,0,0,0,.376.562H80.647a.406.406,0,0,0,.379-.554c-3.217-8.263-5.02-12.982-5.679-14.853a.405.405,0,0,0-.383-.272Zm.374-4.073a.406.406,0,0,0-.407.407v1.595a.406.406,0,0,0,.407.407h8.671a.406.406,0,0,0,.407-.407V270.04a.608.608,0,0,0-.6-.6H66.127a.608.608,0,0,0-.6.6v1.4a.406.406,0,0,0,.407.406h2.477a.832.832,0,0,1,0,1.664H65.935a.407.407,0,0,0-.407.407V276.4a.406.406,0,0,0,.407.406h2.477a.833.833,0,0,1,0,1.665H65.935a.406.406,0,0,0-.407.406v2.478a.407.407,0,0,0,.407.407h2.477a.832.832,0,0,1,0,1.664Z"
              transform="translate(-57.284 -267.776)"/>
      </g>
    </g>
    <g transform="translate(449.458 325.896)">
      <path class="c" d="M73.68,298.1h1.944a1.306,1.306,0,1,1,0,2.612H67.848a1.306,1.306,0,0,1,0-2.612H73.68Z"/>
    </g>
  </g>
</svg>
