<svg xmlns="http://www.w3.org/2000/svg" width="292.988" height="48.211" viewBox="0 0 292.988 48.211"><defs><style>.a{fill:#fff;}.b{fill:#006cb4;}.c{isolation:isolate;}</style></defs><g transform="translate(-0.916 -0.567)"><g transform="translate(0.916 0.567)"><path class="a" d="M18.507,26.035a1,1,0,0,1-.477.9,2.272,2.272,0,0,1-1.36.257l-.663-.05a3.945,3.945,0,0,1-4.127-4.416V17.376H10.65a1.556,1.556,0,0,1-1.018-.3,1.211,1.211,0,0,1,0-1.715h0a1.565,1.565,0,0,1,1.018-.294h1.23V12.809a1.373,1.373,0,0,1,.413-1.055,1.575,1.575,0,0,1,1.128-.393,1.548,1.548,0,0,1,1.1.393,1.383,1.383,0,0,1,.413,1.055v2.257h2.081a1.565,1.565,0,0,1,1.018.294,1.215,1.215,0,0,1,0,1.717,1.559,1.559,0,0,1-1.018.3H14.952V22.94q0,1.818,1.669,1.938l.663.05Q18.507,25.006,18.507,26.035Z" transform="translate(2.224 3.486)"/><path class="a" d="M27.992,14.269a1.383,1.383,0,0,1,.413,1.055v9.518a1.325,1.325,0,0,1-.429,1.029,1.588,1.588,0,0,1-1.116.392A1.476,1.476,0,0,1,25.8,25.9a1.309,1.309,0,0,1-.393-1.006v-.614A3.9,3.9,0,0,1,23.89,25.79a4.393,4.393,0,0,1-2.158.527q-4.416,0-4.414-4.952V15.331a1.373,1.373,0,0,1,.413-1.055,1.547,1.547,0,0,1,1.1-.392,1.591,1.591,0,0,1,1.128.392,1.383,1.383,0,0,1,.413,1.055v6.053a2.889,2.889,0,0,0,.514,1.893,2,2,0,0,0,1.619.612,2.64,2.64,0,0,0,2.048-.846,3.2,3.2,0,0,0,.773-2.245V15.328a1.373,1.373,0,0,1,.413-1.055,1.547,1.547,0,0,1,1.1-.392A1.586,1.586,0,0,1,27.992,14.269Z" transform="translate(5.244 4.432)"/><path class="a" d="M45.925,23.074c0-2.16-.059-4.439-2.219-4.439s-1.988,2.279-1.963,4.439A18.328,18.328,0,1,1,23.4,4.761h.019c2.16.008,3.9-.026,3.9-2.186S25.579.57,23.419.57A22.5,22.5,0,1,0,45.925,23.081Z" transform="translate(-0.916 -0.567)"/><circle class="a" cx="3.909" cy="3.909" r="3.909" transform="translate(37.033 8.15)"/><circle class="a" cx="2.79" cy="2.79" r="2.79" transform="translate(29.18 9.27)"/><path class="a" d="M22.943,4.944a1.669,1.669,0,1,0,1.67-1.667h0a1.667,1.667,0,0,0-1.669,1.666h0Z" transform="translate(7.357 0.451)"/></g><g transform="translate(58.277 13.987)"><path class="a" d="M42.615,10.333v23.3h99.023V21.11s0-10.787-10.789-10.787Z" transform="translate(-42.615 -10.323)"/><path class="b" d="M129.911,26.4a1.548,1.548,0,0,0,.531-.077.639.639,0,0,0,.332-.275,1.4,1.4,0,0,0,.169-.539,6.692,6.692,0,0,0,.047-.879,8.485,8.485,0,0,0-.531-3.09,6.546,6.546,0,0,0-1.48-2.3,6.331,6.331,0,0,0-2.266-1.433,8.848,8.848,0,0,0-6.19.138,7.376,7.376,0,0,0-4.054,4.223,8.447,8.447,0,0,0-.55,3.036,10,10,0,0,0,.64,3.729,7.652,7.652,0,0,0,1.742,2.681,7.251,7.251,0,0,0,2.574,1.626,8.951,8.951,0,0,0,3.151.55,13.285,13.285,0,0,0,1.718-.116,9.416,9.416,0,0,0,1.8-.413,8.224,8.224,0,0,0,1.757-.825,7.127,7.127,0,0,0,1.6-1.376l-1.387-1.711a.991.991,0,0,0-.862-.413,1.792,1.792,0,0,0-.825.2q-.394.2-.864.447a7.222,7.222,0,0,1-1.072.447,4.555,4.555,0,0,1-1.433.2,3.617,3.617,0,0,1-2.543-.9,4.5,4.5,0,0,1-1.217-2.905Zm-9.155-2.775a4.054,4.054,0,0,1,1.017-2.242A2.862,2.862,0,0,1,123.9,20.6a3,3,0,0,1,1.31.261,2.441,2.441,0,0,1,.871.688,2.679,2.679,0,0,1,.477.963,4.205,4.205,0,0,1,.146,1.11Zm-7.566,9.809a6.563,6.563,0,0,0,2.08-1.04l-1.448-2.266a1.26,1.26,0,0,0-.275-.316.554.554,0,0,0-.347-.1.63.63,0,0,0-.275.054c-.077.036-.16.077-.246.124a1.8,1.8,0,0,1-.308.124,1.477,1.477,0,0,1-.439.054.907.907,0,0,1-.779-.362,1.5,1.5,0,0,1-.275-.918V20.85h3.96V17.583h-3.945V12.914h-2.5a.95.95,0,0,0-1.048.74l-.94,3.9-2.545.494v1.865a.862.862,0,0,0,.781.937.772.772,0,0,0,.113,0h1.356v8.26a5.694,5.694,0,0,0,.308,1.926,3.88,3.88,0,0,0,2.366,2.411,5.629,5.629,0,0,0,2.011.332,8.209,8.209,0,0,0,2.388-.347M97.07,17.554V28.942a5.9,5.9,0,0,1-1.333.9,3.329,3.329,0,0,1-1.472.332,1.946,1.946,0,0,1-1.587-.648,2.78,2.78,0,0,1-.539-1.834V17.554H87.357V27.695a7.979,7.979,0,0,0,.355,2.435,5.524,5.524,0,0,0,1.048,1.926,4.772,4.772,0,0,0,1.7,1.271,5.6,5.6,0,0,0,2.319.455,6.527,6.527,0,0,0,1.425-.146,6.216,6.216,0,0,0,1.217-.4,5.827,5.827,0,0,0,1.055-.616,9.086,9.086,0,0,0,.956-.809l.275.924a1.121,1.121,0,0,0,1.171.8h2.959V17.554ZM79.5,33.54h4.777V10.464H79.5ZM64.058,21.272a2.127,2.127,0,0,0,.55.586,1.371,1.371,0,0,0,.825.246,2.258,2.258,0,0,0,.956-.184q.4-.184.825-.413a6.262,6.262,0,0,1,.963-.413,4.382,4.382,0,0,1,1.387-.184,2.131,2.131,0,0,1,1.641.625,2.932,2.932,0,0,1,.578,2.026v.678a19.264,19.264,0,0,0-4.539.55,9.486,9.486,0,0,0-2.867,1.226,4.321,4.321,0,0,0-1.5,1.618,3.976,3.976,0,0,0-.432,1.75,4.977,4.977,0,0,0,.338,1.9,3.681,3.681,0,0,0,.963,1.376,4.141,4.141,0,0,0,1.513.84,6.484,6.484,0,0,0,1.988.285,7.7,7.7,0,0,0,1.487-.138,5.587,5.587,0,0,0,1.264-.4,7.3,7.3,0,0,0,1.149-.655q.551-.384,1.156-.894l.338.879a1.411,1.411,0,0,0,.578.77,2.223,2.223,0,0,0,1.025.184h2.189V23.547A7.2,7.2,0,0,0,76,21.02a5.754,5.754,0,0,0-1.238-2,5.635,5.635,0,0,0-1.973-1.31,6.957,6.957,0,0,0-2.614-.47,11.274,11.274,0,0,0-3.783.625,9.72,9.72,0,0,0-3.213,1.9Zm7.736,7.978a4.923,4.923,0,0,1-1.4,1.048,3.786,3.786,0,0,1-1.618.323,2.176,2.176,0,0,1-1.31-.332,1.336,1.336,0,0,1-.447-1.149,1.5,1.5,0,0,1,.208-.77,1.764,1.764,0,0,1,.747-.631,5.756,5.756,0,0,1,1.464-.462,15.953,15.953,0,0,1,2.358-.246ZM61.053,19.371a6.226,6.226,0,0,0-1.033-.825,7.327,7.327,0,0,0-1.294-.655,8.6,8.6,0,0,0-1.513-.432A8.979,8.979,0,0,0,55.54,17.3a8.553,8.553,0,0,0-2.775.413,5.8,5.8,0,0,0-1.973,1.1,4.493,4.493,0,0,0-1.179,1.611,5.224,5.224,0,0,0-.07,3.8,4.087,4.087,0,0,0,.847,1.3,4.677,4.677,0,0,0,1.194.879A10.887,10.887,0,0,0,52.948,27q.687.248,1.365.439a10.461,10.461,0,0,1,1.194.413,2.835,2.835,0,0,1,.847.532,1.037,1.037,0,0,1,.323.785,1.233,1.233,0,0,1-.447.956,1.633,1.633,0,0,1-.616.316,3.283,3.283,0,0,1-.94.116,3.91,3.91,0,0,1-1.3-.184,5.989,5.989,0,0,1-.9-.4l-.717-.4a1.526,1.526,0,0,0-.747-.184,1.375,1.375,0,0,0-.732.177,1.431,1.431,0,0,0-.47.486l-1.11,1.757a6.1,6.1,0,0,0,1.11.779,8.489,8.489,0,0,0,1.41.625,11.2,11.2,0,0,0,1.579.413,8.687,8.687,0,0,0,1.634.154,9.464,9.464,0,0,0,2.889-.4,6.069,6.069,0,0,0,2.112-1.125,4.632,4.632,0,0,0,1.286-1.726,5.456,5.456,0,0,0,.432-2.189,4,4,0,0,0-.316-1.664,3.647,3.647,0,0,0-.84-1.179,5.094,5.094,0,0,0-1.187-.817,12.128,12.128,0,0,0-1.356-.578q-.687-.246-1.356-.447a11.388,11.388,0,0,1-1.187-.424,2.89,2.89,0,0,1-.84-.516.957.957,0,0,1-.316-.74,1.119,1.119,0,0,1,.486-.963,2.39,2.39,0,0,1,1.395-.347,3.987,3.987,0,0,1,1.125.146,8.076,8.076,0,0,1,.886.316l.732.316a1.692,1.692,0,0,0,.678.146,1.013,1.013,0,0,0,.532-.124,1.241,1.241,0,0,0,.393-.413Z" transform="translate(-40.331 -10.27)"/><path class="a" d="M248.219,26.525a1.536,1.536,0,0,0,.53-.077.639.639,0,0,0,.331-.275,1.391,1.391,0,0,0,.169-.538,6.66,6.66,0,0,0,.045-.876,8.44,8.44,0,0,0-.53-3.081,6.521,6.521,0,0,0-1.476-2.3,6.306,6.306,0,0,0-2.259-1.429,8.829,8.829,0,0,0-6.178.138,7.362,7.362,0,0,0-4.041,4.211,8.431,8.431,0,0,0-.55,3.026,9.973,9.973,0,0,0,.638,3.714,7.623,7.623,0,0,0,1.736,2.674,7.2,7.2,0,0,0,2.567,1.622,8.911,8.911,0,0,0,3.143.55,13.22,13.22,0,0,0,1.714-.116,9.489,9.489,0,0,0,1.8-.413,8.258,8.258,0,0,0,1.753-.825,7.1,7.1,0,0,0,1.59-1.376l-1.384-1.706a.986.986,0,0,0-.86-.413,1.791,1.791,0,0,0-.825.2q-.392.2-.861.446a7.107,7.107,0,0,1-1.067.446,4.489,4.489,0,0,1-1.429.2,3.608,3.608,0,0,1-2.535-.9,4.49,4.49,0,0,1-1.215-2.9Zm-9.128-2.766a4.04,4.04,0,0,1,1.014-2.235,2.853,2.853,0,0,1,2.121-.776,2.987,2.987,0,0,1,1.307.261,2.432,2.432,0,0,1,.868.688,2.7,2.7,0,0,1,.476.963,4.191,4.191,0,0,1,.146,1.1Zm-7.547,9.782a6.571,6.571,0,0,0,2.074-1.037l-1.444-2.259a1.253,1.253,0,0,0-.275-.315.562.562,0,0,0-.345-.1.63.63,0,0,0-.275.054c-.077.036-.158.077-.246.122a1.8,1.8,0,0,1-.308.124,1.474,1.474,0,0,1-.437.054.909.909,0,0,1-.776-.362,1.487,1.487,0,0,1-.275-.915V20.992h3.949V17.733h-3.949V13.077h-2.49a.947.947,0,0,0-1.045.737l-.938,3.887-2.535.492v1.86a.86.86,0,0,0,.777.935.787.787,0,0,0,.114,0h1.352v8.237a5.661,5.661,0,0,0,.308,1.926,3.864,3.864,0,0,0,2.359,2.406,5.593,5.593,0,0,0,2.006.33,8.224,8.224,0,0,0,2.382-.345M210.257,18.508a1.122,1.122,0,0,0-1.168-.8h-2.951V33.646H210.9V22.269a6.011,6.011,0,0,1,1.329-.9,3.348,3.348,0,0,1,1.468-.33,1.929,1.929,0,0,1,1.583.653,2.788,2.788,0,0,1,.538,1.821V33.642h4.764V23.514a7.979,7.979,0,0,0-.354-2.421,5.439,5.439,0,0,0-1.045-1.926,4.814,4.814,0,0,0-1.7-1.26,5.59,5.59,0,0,0-2.312-.453,6.575,6.575,0,0,0-1.421.146,6.284,6.284,0,0,0-1.215.4,5.587,5.587,0,0,0-1.052.622,11.5,11.5,0,0,0-.953.8ZM193.151,29.2a8.309,8.309,0,0,1,0-7.047A2.781,2.781,0,0,1,195.627,21a2.712,2.712,0,0,1,2.42,1.153,8.389,8.389,0,0,1,0,7.047,2.705,2.705,0,0,1-2.42,1.161,2.769,2.769,0,0,1-2.476-1.161M192.3,18.03a7.39,7.39,0,0,0-2.571,1.625,7.235,7.235,0,0,0-1.675,2.574,9.274,9.274,0,0,0-.591,3.4,9.458,9.458,0,0,0,.591,3.439,7.267,7.267,0,0,0,1.675,2.594,7.405,7.405,0,0,0,2.582,1.651,9.818,9.818,0,0,0,6.629,0,7.267,7.267,0,0,0,2.559-1.651,7.375,7.375,0,0,0,1.66-2.6,9.458,9.458,0,0,0,.592-3.439,9.3,9.3,0,0,0-.592-3.4,7.352,7.352,0,0,0-1.66-2.574,7.255,7.255,0,0,0-2.559-1.629,9.952,9.952,0,0,0-6.629,0M166.9,33.638V22.11a4.451,4.451,0,0,1,1.084-.784,2.672,2.672,0,0,1,1.222-.292,2.116,2.116,0,0,1,1.583.55,2.726,2.726,0,0,1,.538,1.926V33.639h4.764V23.511a2.49,2.49,0,0,1,.638-1.836,2.176,2.176,0,0,1,1.605-.638q2.121,0,2.121,2.476V33.641h4.764V23.512a8.229,8.229,0,0,0-.369-2.559,5.114,5.114,0,0,0-1.084-1.907,4.625,4.625,0,0,0-1.775-1.183,6.763,6.763,0,0,0-2.428-.413,7.364,7.364,0,0,0-1.483.154,6.093,6.093,0,0,0-1.414.476,5.252,5.252,0,0,0-1.238.846,4.728,4.728,0,0,0-.977,1.26,4.652,4.652,0,0,0-1.436-1.99,3.749,3.749,0,0,0-2.389-.746,5.056,5.056,0,0,0-2.338.55,5.364,5.364,0,0,0-.93.6,8.82,8.82,0,0,0-.825.761l-.261-.861a1.122,1.122,0,0,0-1.168-.8h-2.951V33.639Zm-8.222-7.116a1.536,1.536,0,0,0,.53-.077.643.643,0,0,0,.33-.275,1.391,1.391,0,0,0,.169-.538,6.656,6.656,0,0,0,.047-.876,8.411,8.411,0,0,0-.53-3.081,6.539,6.539,0,0,0-1.476-2.3,6.324,6.324,0,0,0-2.259-1.429,8.829,8.829,0,0,0-6.178.138,7.362,7.362,0,0,0-4.041,4.211,8.431,8.431,0,0,0-.55,3.026,9.973,9.973,0,0,0,.638,3.714,7.626,7.626,0,0,0,1.737,2.674,7.2,7.2,0,0,0,2.567,1.622,8.934,8.934,0,0,0,3.142.55,13.222,13.222,0,0,0,1.714-.116,9.489,9.489,0,0,0,1.8-.413,8.258,8.258,0,0,0,1.753-.825,7.069,7.069,0,0,0,1.59-1.376l-1.382-1.706a.988.988,0,0,0-.861-.413,1.791,1.791,0,0,0-.825.2q-.392.2-.86.446a7.183,7.183,0,0,1-1.069.446,4.49,4.49,0,0,1-1.429.2,3.608,3.608,0,0,1-2.535-.9,4.492,4.492,0,0,1-1.213-2.9Zm-9.13-2.766a4.032,4.032,0,0,1,1.015-2.235,2.853,2.853,0,0,1,2.121-.776,2.987,2.987,0,0,1,1.307.261,2.432,2.432,0,0,1,.868.688,2.68,2.68,0,0,1,.477.963,4.25,4.25,0,0,1,.146,1.1Zm-7.054-11.511a2.878,2.878,0,0,0-.63-.891,2.918,2.918,0,0,0-.93-.6,2.97,2.97,0,0,0-1.129-.215,2.775,2.775,0,0,0-1.091.215,2.894,2.894,0,0,0-.9.6,2.864,2.864,0,0,0-.615.891,2.684,2.684,0,0,0-.223,1.091A2.593,2.593,0,0,0,137.2,14.4a2.753,2.753,0,0,0,.615.876,3.042,3.042,0,0,0,.9.6,2.679,2.679,0,0,0,1.091.223,2.867,2.867,0,0,0,1.129-.223,3.06,3.06,0,0,0,.93-.6,2.8,2.8,0,0,0,.63-.876,2.506,2.506,0,0,0,.23-1.067,2.615,2.615,0,0,0-.23-1.091m-5.025,21.393h4.764V17.7h-4.764ZM123.8,18.506a1.122,1.122,0,0,0-1.168-.8h-2.951V38.7h4.764V32.584a5.623,5.623,0,0,0,1.537.953,5.417,5.417,0,0,0,2.09.354,6.083,6.083,0,0,0,2.775-.63A6.431,6.431,0,0,0,133,31.509a8.318,8.318,0,0,0,1.4-2.643,10.57,10.57,0,0,0,.5-3.319,12.36,12.36,0,0,0-.437-3.439,8.118,8.118,0,0,0-1.206-2.559,5.323,5.323,0,0,0-1.828-1.6,4.923,4.923,0,0,0-2.305-.55,5.928,5.928,0,0,0-2.835.638,8.217,8.217,0,0,0-2.128,1.637Zm.645,4.041a4.806,4.806,0,0,1,1.292-1.122,3.462,3.462,0,0,1,1.721-.384,2.279,2.279,0,0,1,1.029.231,2,2,0,0,1,.791.761,4.384,4.384,0,0,1,.514,1.391,10.355,10.355,0,0,1,.184,2.121,9.391,9.391,0,0,1-.231,2.244,4.466,4.466,0,0,1-.638,1.5,2.473,2.473,0,0,1-.963.838,2.787,2.787,0,0,1-1.215.261,3.587,3.587,0,0,1-1.321-.246,3.137,3.137,0,0,1-1.168-.825Z" transform="translate(-13.668 -10.242)"/></g><g class="c" transform="translate(184.132 41.033)"><g class="c"><path class="a" d="M139.93,37.2h-.858a.366.366,0,0,1-.235-.072.457.457,0,0,1-.136-.179l-.446-1.219h-2.472l-.446,1.219a.4.4,0,0,1-.128.173.356.356,0,0,1-.235.077h-.867l2.348-5.967h1.131Zm-1.96-2.252-.726-1.986c-.036-.087-.073-.191-.111-.312s-.077-.253-.116-.392c-.036.139-.073.271-.111.393s-.076.23-.111.319l-.722,1.978Z" transform="translate(-134.107 -29.516)"/><path class="a" d="M142.1,32.333a.365.365,0,0,1-.106.125.229.229,0,0,1-.138.04.352.352,0,0,1-.187-.065c-.067-.043-.149-.091-.242-.143a2.032,2.032,0,0,0-.327-.142,1.384,1.384,0,0,0-.444-.063,1.325,1.325,0,0,0-.4.055.865.865,0,0,0-.292.154.633.633,0,0,0-.175.238.777.777,0,0,0-.058.3.54.54,0,0,0,.117.351,1,1,0,0,0,.312.238,2.892,2.892,0,0,0,.442.177c.165.052.334.109.508.166a4.787,4.787,0,0,1,.508.208,1.752,1.752,0,0,1,.442.3,1.322,1.322,0,0,1,.311.439,1.5,1.5,0,0,1,.118.631,2.061,2.061,0,0,1-.138.758,1.767,1.767,0,0,1-.4.615,1.921,1.921,0,0,1-.651.413,2.393,2.393,0,0,1-.879.15,2.87,2.87,0,0,1-1.091-.215,2.749,2.749,0,0,1-.477-.248,2.236,2.236,0,0,1-.4-.322l.326-.532a.345.345,0,0,1,.107-.1.27.27,0,0,1,.14-.039.392.392,0,0,1,.223.084c.08.056.175.118.285.188a2.25,2.25,0,0,0,.387.187,1.481,1.481,0,0,0,.53.084,1.088,1.088,0,0,0,.735-.224.809.809,0,0,0,.26-.647.6.6,0,0,0-.117-.384.969.969,0,0,0-.312-.249,2.326,2.326,0,0,0-.442-.172q-.248-.07-.5-.153a4.341,4.341,0,0,1-.5-.2,1.6,1.6,0,0,1-.442-.3,1.372,1.372,0,0,1-.311-.465,1.745,1.745,0,0,1-.118-.686,1.623,1.623,0,0,1,.131-.636,1.644,1.644,0,0,1,.377-.55,1.85,1.85,0,0,1,.611-.384,2.272,2.272,0,0,1,.834-.143,2.783,2.783,0,0,1,.974.165,2.178,2.178,0,0,1,.759.462Z" transform="translate(-132.478 -29.534)"/><path class="a" d="M145.388,32.333a.365.365,0,0,1-.106.125.229.229,0,0,1-.138.04.352.352,0,0,1-.187-.065c-.067-.043-.149-.091-.242-.143a2.032,2.032,0,0,0-.327-.142,1.384,1.384,0,0,0-.444-.063,1.325,1.325,0,0,0-.4.055.865.865,0,0,0-.292.154.633.633,0,0,0-.175.238.778.778,0,0,0-.058.3.54.54,0,0,0,.117.351,1,1,0,0,0,.312.238,2.893,2.893,0,0,0,.442.177c.165.052.334.109.508.166a4.788,4.788,0,0,1,.508.208,1.752,1.752,0,0,1,.442.3,1.322,1.322,0,0,1,.311.439,1.5,1.5,0,0,1,.118.631,2.061,2.061,0,0,1-.138.758,1.766,1.766,0,0,1-.4.615,1.921,1.921,0,0,1-.651.413,2.393,2.393,0,0,1-.879.15,2.87,2.87,0,0,1-1.091-.215,2.748,2.748,0,0,1-.477-.248,2.235,2.235,0,0,1-.4-.322l.326-.532a.346.346,0,0,1,.107-.1.27.27,0,0,1,.14-.039.392.392,0,0,1,.223.084c.08.056.175.118.285.188a2.25,2.25,0,0,0,.387.187,1.481,1.481,0,0,0,.53.084,1.088,1.088,0,0,0,.735-.224.809.809,0,0,0,.26-.647.6.6,0,0,0-.117-.384.969.969,0,0,0-.312-.249,2.326,2.326,0,0,0-.442-.172q-.248-.07-.5-.153a4.341,4.341,0,0,1-.5-.2,1.6,1.6,0,0,1-.442-.3,1.372,1.372,0,0,1-.311-.465,1.745,1.745,0,0,1-.118-.686,1.622,1.622,0,0,1,.131-.636,1.644,1.644,0,0,1,.377-.55,1.85,1.85,0,0,1,.611-.384,2.272,2.272,0,0,1,.834-.143,2.783,2.783,0,0,1,.974.165,2.178,2.178,0,0,1,.759.462Z" transform="translate(-131.242 -29.534)"/><path class="a" d="M146.486,32.112v1.655h2.088v.854h-2.088V36.31h2.649V37.2h-3.764V31.229h3.764v.883Z" transform="translate(-129.876 -29.516)"/><path class="a" d="M152.129,32.333a.365.365,0,0,1-.106.125.232.232,0,0,1-.138.04.36.36,0,0,1-.188-.065c-.066-.043-.147-.091-.241-.143a2,2,0,0,0-.329-.142,1.375,1.375,0,0,0-.443-.063,1.325,1.325,0,0,0-.4.055.852.852,0,0,0-.292.154.633.633,0,0,0-.175.238.778.778,0,0,0-.058.3.539.539,0,0,0,.117.351.982.982,0,0,0,.312.238,2.893,2.893,0,0,0,.442.177c.165.052.334.109.508.166a4.79,4.79,0,0,1,.508.208,1.752,1.752,0,0,1,.442.3,1.322,1.322,0,0,1,.311.439,1.526,1.526,0,0,1,.118.631,2.089,2.089,0,0,1-.138.758,1.766,1.766,0,0,1-.4.615,1.922,1.922,0,0,1-.651.413,2.393,2.393,0,0,1-.879.15,2.884,2.884,0,0,1-1.092-.215,2.737,2.737,0,0,1-.476-.248,2.235,2.235,0,0,1-.4-.322l.326-.532a.346.346,0,0,1,.107-.1.27.27,0,0,1,.14-.039.392.392,0,0,1,.223.084c.08.056.175.118.285.188a2.285,2.285,0,0,0,.385.187,1.489,1.489,0,0,0,.531.084,1.088,1.088,0,0,0,.735-.224.809.809,0,0,0,.26-.647.592.592,0,0,0-.118-.384.963.963,0,0,0-.311-.249,2.325,2.325,0,0,0-.442-.172q-.248-.07-.5-.153a4.343,4.343,0,0,1-.5-.2,1.6,1.6,0,0,1-.442-.3,1.375,1.375,0,0,1-.312-.465,1.771,1.771,0,0,1-.117-.686,1.622,1.622,0,0,1,.131-.636,1.645,1.645,0,0,1,.377-.55,1.85,1.85,0,0,1,.611-.384,2.272,2.272,0,0,1,.834-.143,2.784,2.784,0,0,1,.974.165,2.178,2.178,0,0,1,.759.462Z" transform="translate(-128.71 -29.534)"/><path class="a" d="M155.42,32.333a.365.365,0,0,1-.106.125.232.232,0,0,1-.138.04.36.36,0,0,1-.188-.065c-.066-.043-.147-.091-.241-.143a2,2,0,0,0-.329-.142,1.376,1.376,0,0,0-.443-.063,1.326,1.326,0,0,0-.4.055.852.852,0,0,0-.292.154.633.633,0,0,0-.175.238.778.778,0,0,0-.058.3.54.54,0,0,0,.117.351.982.982,0,0,0,.312.238,2.893,2.893,0,0,0,.442.177c.165.052.334.109.508.166a4.788,4.788,0,0,1,.508.208,1.752,1.752,0,0,1,.442.3,1.322,1.322,0,0,1,.311.439,1.526,1.526,0,0,1,.118.631,2.089,2.089,0,0,1-.138.758,1.766,1.766,0,0,1-.4.615,1.922,1.922,0,0,1-.651.413,2.393,2.393,0,0,1-.879.15,2.884,2.884,0,0,1-1.092-.215,2.737,2.737,0,0,1-.476-.248,2.235,2.235,0,0,1-.4-.322l.326-.532a.346.346,0,0,1,.107-.1.27.27,0,0,1,.14-.039.392.392,0,0,1,.223.084c.08.056.175.118.285.188a2.284,2.284,0,0,0,.385.187,1.489,1.489,0,0,0,.531.084,1.088,1.088,0,0,0,.735-.224.809.809,0,0,0,.26-.647.592.592,0,0,0-.118-.384.962.962,0,0,0-.311-.249,2.326,2.326,0,0,0-.442-.172q-.248-.07-.5-.153a4.34,4.34,0,0,1-.5-.2,1.6,1.6,0,0,1-.442-.3,1.375,1.375,0,0,1-.312-.465,1.772,1.772,0,0,1-.117-.686,1.623,1.623,0,0,1,.131-.636,1.645,1.645,0,0,1,.377-.55,1.85,1.85,0,0,1,.611-.384,2.272,2.272,0,0,1,.834-.143,2.784,2.784,0,0,1,.974.165,2.178,2.178,0,0,1,.759.462Z" transform="translate(-127.474 -29.534)"/><path class="a" d="M161.192,34.23a3.334,3.334,0,0,1-.217,1.216,2.848,2.848,0,0,1-.612.967,2.767,2.767,0,0,1-.953.638,3.459,3.459,0,0,1-2.472,0,2.791,2.791,0,0,1-.956-.638,2.88,2.88,0,0,1-.616-.967,3.486,3.486,0,0,1,0-2.431,2.879,2.879,0,0,1,.616-.967,2.791,2.791,0,0,1,.956-.638,3.216,3.216,0,0,1,1.234-.228,3.349,3.349,0,0,1,.854.1,3,3,0,0,1,.735.3,2.679,2.679,0,0,1,.6.466,2.882,2.882,0,0,1,.451.614,3.015,3.015,0,0,1,.282.733A3.434,3.434,0,0,1,161.192,34.23Zm-1.135,0a2.734,2.734,0,0,0-.132-.88,1.891,1.891,0,0,0-.376-.663,1.613,1.613,0,0,0-.591-.415,2.2,2.2,0,0,0-1.574,0,1.624,1.624,0,0,0-.594.415,1.873,1.873,0,0,0-.377.663,3.005,3.005,0,0,0,0,1.762,1.849,1.849,0,0,0,.377.66,1.654,1.654,0,0,0,.594.414,2.2,2.2,0,0,0,1.574,0,1.643,1.643,0,0,0,.591-.414,1.867,1.867,0,0,0,.376-.66A2.737,2.737,0,0,0,160.057,34.23Z" transform="translate(-126.205 -29.534)"/><path class="a" d="M164.911,37.2h-1a.437.437,0,0,1-.413-.223l-1.255-1.909a.459.459,0,0,0-.155-.154.558.558,0,0,0-.249-.045h-.475V37.2h-1.11V31.229h1.82a3.787,3.787,0,0,1,1.043.127,2.039,2.039,0,0,1,.714.352,1.4,1.4,0,0,1,.41.543,1.783,1.783,0,0,1,.132.7,1.808,1.808,0,0,1-.088.569,1.641,1.641,0,0,1-.256.486,1.7,1.7,0,0,1-.414.384,2.09,2.09,0,0,1-.558.261,1.021,1.021,0,0,1,.2.146,1.007,1.007,0,0,1,.165.2Zm-2.856-3.128a1.708,1.708,0,0,0,.546-.078,1.051,1.051,0,0,0,.385-.216.882.882,0,0,0,.224-.327,1.147,1.147,0,0,0,.074-.418.847.847,0,0,0-.3-.7,1.434,1.434,0,0,0-.915-.242h-.71v1.979Z" transform="translate(-124.287 -29.516)"/><path class="a" d="M169.417,37.2h-.858a.366.366,0,0,1-.235-.072.457.457,0,0,1-.136-.179l-.446-1.219h-2.472l-.446,1.219a.4.4,0,0,1-.128.173.356.356,0,0,1-.235.077h-.867l2.348-5.967h1.131Zm-1.96-2.252-.726-1.986c-.036-.087-.073-.191-.111-.312s-.077-.253-.116-.392c-.036.139-.073.271-.111.393s-.076.23-.111.319l-.722,1.978Z" transform="translate(-123.032 -29.516)"/><path class="a" d="M172.17,32.142h-1.8V37.2h-1.11V32.142h-1.8v-.913h4.71Z" transform="translate(-121.58 -29.516)"/><path class="a" d="M177.1,34.23a3.335,3.335,0,0,1-.217,1.216,2.849,2.849,0,0,1-.612.967,2.767,2.767,0,0,1-.953.638,3.459,3.459,0,0,1-2.472,0,2.778,2.778,0,0,1-.956-.638,2.861,2.861,0,0,1-.618-.967,3.507,3.507,0,0,1,0-2.431,2.861,2.861,0,0,1,.618-.967,2.778,2.778,0,0,1,.956-.638,3.214,3.214,0,0,1,1.233-.228,3.353,3.353,0,0,1,.856.1,3.021,3.021,0,0,1,.735.3,2.672,2.672,0,0,1,.6.466,2.843,2.843,0,0,1,.453.614A3.013,3.013,0,0,1,177,33.4,3.5,3.5,0,0,1,177.1,34.23Zm-1.135,0a2.734,2.734,0,0,0-.132-.88,1.9,1.9,0,0,0-.377-.663,1.591,1.591,0,0,0-.592-.415,2.192,2.192,0,0,0-1.572,0,1.624,1.624,0,0,0-.594.415,1.873,1.873,0,0,0-.377.663,2.976,2.976,0,0,0,0,1.762,1.849,1.849,0,0,0,.377.66,1.654,1.654,0,0,0,.594.414,2.192,2.192,0,0,0,1.572,0,1.62,1.62,0,0,0,.592-.414,1.87,1.87,0,0,0,.377-.66A2.737,2.737,0,0,0,175.963,34.23Z" transform="translate(-120.231 -29.534)"/><path class="a" d="M182.722,37.2h-.858a.368.368,0,0,1-.237-.072.454.454,0,0,1-.135-.179l-.446-1.219h-2.472l-.447,1.219a.392.392,0,0,1-.127.173.356.356,0,0,1-.235.077H176.9l2.348-5.967h1.132Zm-1.96-2.252-.726-1.986c-.036-.087-.074-.191-.111-.312s-.077-.253-.116-.392c-.036.139-.074.271-.111.393s-.077.23-.111.319l-.722,1.978Z" transform="translate(-118.035 -29.516)"/><path class="a" d="M185.077,36.28V37.2h-3.5V31.229h1.11V36.28Z" transform="translate(-116.276 -29.516)"/><path class="a" d="M188.194,36.28V37.2h-3.5V31.229h1.11V36.28Z" transform="translate(-115.105 -29.516)"/><path class="a" d="M193.123,37.2h-.858a.368.368,0,0,1-.237-.072.454.454,0,0,1-.135-.179l-.447-1.219h-2.471l-.447,1.219a.4.4,0,0,1-.127.173.356.356,0,0,1-.235.077H187.3l2.348-5.967h1.132Zm-1.962-2.252-.725-1.986c-.036-.087-.074-.191-.111-.312s-.078-.253-.116-.392c-.036.139-.074.271-.113.393s-.076.23-.111.319l-.721,1.978Z" transform="translate(-114.129 -29.516)"/><path class="a" d="M196.546,32.333a.379.379,0,0,1-.1.125.235.235,0,0,1-.138.04.36.36,0,0,1-.188-.065c-.067-.043-.149-.091-.241-.143a2.051,2.051,0,0,0-.329-.142,1.376,1.376,0,0,0-.443-.063,1.319,1.319,0,0,0-.4.055.852.852,0,0,0-.292.154.637.637,0,0,0-.176.238.778.778,0,0,0-.058.3.533.533,0,0,0,.118.351.976.976,0,0,0,.311.238,2.854,2.854,0,0,0,.443.177c.164.052.333.109.506.166a4.792,4.792,0,0,1,.508.208,1.752,1.752,0,0,1,.442.3,1.345,1.345,0,0,1,.312.439,1.526,1.526,0,0,1,.117.631,2.061,2.061,0,0,1-.138.758,1.747,1.747,0,0,1-.4.615,1.908,1.908,0,0,1-.651.413,2.393,2.393,0,0,1-.879.15,2.915,2.915,0,0,1-1.568-.462,2.225,2.225,0,0,1-.395-.322l.325-.532a.346.346,0,0,1,.107-.1.271.271,0,0,1,.142-.039.389.389,0,0,1,.221.084c.08.056.175.118.285.188a2.25,2.25,0,0,0,.387.187,1.48,1.48,0,0,0,.53.084,1.088,1.088,0,0,0,.735-.224.809.809,0,0,0,.26-.647.6.6,0,0,0-.117-.384.954.954,0,0,0-.312-.249,2.35,2.35,0,0,0-.44-.172c-.166-.047-.334-.1-.5-.153a4.225,4.225,0,0,1-.5-.2,1.6,1.6,0,0,1-.443-.3,1.393,1.393,0,0,1-.311-.465,1.77,1.77,0,0,1-.118-.686,1.622,1.622,0,0,1,.131-.636,1.644,1.644,0,0,1,.377-.55,1.864,1.864,0,0,1,.611-.384,2.277,2.277,0,0,1,.834-.143,2.784,2.784,0,0,1,.974.165,2.165,2.165,0,0,1,.759.462Z" transform="translate(-112.027 -29.534)"/><path class="a" d="M201.751,37.2h-.858a.367.367,0,0,1-.237-.072.454.454,0,0,1-.135-.179l-.447-1.219H197.6l-.447,1.219a.4.4,0,0,1-.127.173.359.359,0,0,1-.235.077h-.868l2.348-5.967h1.132Zm-1.962-2.252-.725-1.986c-.036-.087-.074-.191-.113-.312s-.077-.253-.116-.392c-.034.139-.073.271-.111.393s-.076.23-.111.319l-.722,1.978Z" transform="translate(-110.888 -29.516)"/><path class="a" d="M205.642,31.229V37.2h-.569a.5.5,0,0,1-.221-.043.532.532,0,0,1-.172-.146l-3.116-3.98q.025.272.025.5V37.2h-.978V31.229h.582a1.065,1.065,0,0,1,.122.006.335.335,0,0,1,.091.026.27.27,0,0,1,.077.054,1.029,1.029,0,0,1,.081.092l3.129,4c-.01-.1-.017-.193-.022-.285s-.007-.18-.007-.261V31.229Z" transform="translate(-109.129 -29.516)"/><path class="a" d="M206.347,37.2h-1.114V31.229h1.114Z" transform="translate(-107.393 -29.516)"/><path class="a" d="M211.328,32.142h-1.8V37.2h-1.11V32.142h-1.8v-.913h4.709Z" transform="translate(-106.872 -29.516)"/><path class="a" d="M215.5,37.664h-.858a.368.368,0,0,1-.237-.072.454.454,0,0,1-.135-.179l-.447-1.219H211.35l-.447,1.219a.392.392,0,0,1-.127.173.356.356,0,0,1-.235.077h-.868l2.348-5.967h1.132Zm-3.592-7.68c.055,0,.1,0,.143,0a.361.361,0,0,1,.107.023.333.333,0,0,1,.088.051.618.618,0,0,1,.087.091l.9,1.118h-.739a.968.968,0,0,1-.188-.014.356.356,0,0,1-.15-.084l-1.316-1.19Zm1.63,5.428-.725-1.986c-.036-.087-.074-.191-.111-.312s-.078-.253-.116-.392c-.036.139-.074.271-.111.393s-.077.23-.113.319l-.721,1.978Z" transform="translate(-105.725 -29.984)"/></g></g></g></svg>