<?xml version="1.0" encoding="utf-8"?>
<!-- Generator: Adobe Illustrator 24.0.3, SVG Export Plug-In . SVG Version: 6.00 Build 0)  -->
<svg version="1.1" id="Livello_1" xmlns="http://www.w3.org/2000/svg" xmlns:xlink="http://www.w3.org/1999/xlink" x="0px" y="0px"
	 viewBox="0 0 40 40" style="enable-background:new 0 0 40 40;" xml:space="preserve">
<style type="text/css">
	.st0{fill:#003575;}
	.st1{fill:#73D7FF;}
	.st2{fill:#FFFFFF;}
</style>
<title>img_consensi</title>
<desc>Created with Sketch.</desc>
<g id="Group_2630" transform="translate(-517.325 -659.087)">
	<g id="Group_2629" transform="translate(517.325 659.087)">
		<g id="Group_2628" transform="translate(0 0)">
			<g id="layer_1">
				<path id="Path_6809" class="st0" d="M32,25.6c-1.1-0.6-2.2-1.1-3.4-1.5c-0.5-0.2-1-0.4-1.5-0.5c-0.6-0.1-1.3-0.4-2-0.5
					c-0.6-0.6-0.9-1.3-1.1-2.1c1.6-1.2,2.7-2.9,3.2-4.9c0.3,0,0.6-0.1,0.8-0.4c1-1,1.3-2.6,0.7-3.9c0.1-0.7,0.2-1.4,0.3-2.1
					c0-4.9-3.4-8.1-9-8.1s-9,3.3-9,8.3c0,0.7,0.1,1.4,0.3,2.1c-0.3,0.6-0.4,1.2-0.3,1.9c0,0.8,0.4,1.6,1,2.1
					c0.2,0.2,0.5,0.3,0.8,0.4c0.5,2,1.6,3.7,3.2,4.9c-0.1,0.9-0.6,1.7-1.3,2.2c-0.6,0.2-1.2,0.3-1.9,0.4c-0.5,0.1-1,0.3-1.6,0.4
					c-1.2,0.4-2.3,0.9-3.4,1.5c-1.9,0.9-3.1,2.8-3.1,4.9v1.5c0,1.4,0.7,2.7,2,3.3c2.3,1.3,6.6,2.7,13.2,2.7s10.8-1.5,13.2-2.7
					c1.2-0.6,2-1.9,2-3.3v-1.5C35.1,28.4,34,26.5,32,25.6z M13.7,15.6c0-0.1-0.1-0.3-0.4-0.4c-0.1-0.1-0.3-0.1-0.5,0
					c-0.1,0-0.1,0-0.3-0.1c-0.4-0.4-0.6-0.9-0.6-1.4c0-0.6,0.2-1.2,0.6-1.7c0.2,0,0.4,0,0.6,0.1l0.1,0.1c0.3,0.1,0.6-0.1,0.8-0.4
					v-0.1c0.2-0.6,0.4-1.3,0.6-2c0.8,0.4,1.7,0.6,2.5,0.6c1.1,0,2.3-0.4,3.2-1c1.5-1,3.4-1,4.9-0.1c0.3,0.8,0.6,1.6,0.8,2.4
					c0,0.3,0.4,0.5,0.6,0.5h0.1l0.1-0.1c0.1-0.1,0.4-0.1,0.6-0.1c0.4,0.1,0.6,0.8,0.6,1.7c0,0.5-0.3,1-0.6,1.4
					c-0.1,0.1-0.2,0.1-0.3,0.1c-0.3-0.1-0.6,0-0.8,0.3v0.1c-0.5,2-1.6,3.8-3.2,5.1c-2,1.5-4.7,1.5-6.6,0
					C15.1,19.2,14.1,17.5,13.7,15.6z M5.9,32v-1.5c0-1.7,0.9-3.2,2.4-3.9c1.1-0.5,2.2-1,3.3-1.4h0.1c-0.1,0.8-0.4,1.5-0.4,2.2
					c-1.4,0.3-2.3,1.7-2.1,3.1l0.3,1.8c-0.2,0.4-0.1,0.9,0.3,1.1c0.4,0.2,0.8,0.1,1-0.3c0.2-0.2,0.3-0.5,0.1-0.8
					c0,0-0.1-0.1-0.1-0.1c-0.1-0.1-0.3-0.3-0.4-0.3l-0.3-1.6c-0.1-0.9,0.5-1.8,1.4-2c0.9-0.1,1.8,0.5,2,1.4c0,0,0,0,0,0l0.3,1.6
					c-0.1,0.1-0.3,0.3-0.3,0.4c-0.1,0.4,0.2,0.9,0.6,1c0.4,0.1,0.9-0.2,1-0.6c0.1-0.3,0-0.7-0.3-0.9l-0.3-1.6
					c-0.1-1.3-1.1-2.3-2.4-2.4c0.1-0.8,0.3-1.6,0.5-2.4l0.1-0.1c0,0,0.6-0.1,1.5-0.3c0.8,1.8,3.7,3.6,4.8,4.3v8.3
					c-6.2-0.2-10.2-1.9-11.8-2.6C6.4,33.9,5.9,33,5.9,32L5.9,32z M34,32c0,1-0.5,1.9-1.4,2.3c-1.9,1-5.8,2.5-12.1,2.5v-8.1
					c1.1-0.8,4.1-2.7,4.8-4.3c0.5,0.1,1,0.3,1.5,0.4h0.1c0.4,1.2,0.5,2.4,0.6,3.6c-1.1,0.4-1.6,1.5-1.3,2.5c0.4,1.1,1.5,1.6,2.5,1.3
					c1.1-0.4,1.6-1.5,1.3-2.5c0,0,0,0,0,0c-0.2-0.7-0.8-1.2-1.5-1.4c-0.1-1-0.3-2.1-0.5-3.1h0.1c1.1,0.4,2.2,0.9,3.3,1.4
					c1.5,0.7,2.4,2.3,2.4,3.9V32L34,32z M28.2,29.3L28.2,29.3"/>
			</g>
		</g>
		<path id="Path_6810" class="st1" d="M34,32c0,1-0.5,1.9-1.4,2.3c-1.9,1-5.8,2.5-12.1,2.5v-8.1c1.1-0.8,4.1-2.7,4.8-4.3
			c0.5,0.1,1,0.3,1.5,0.4h0.1c0.4,1.2,0.5,2.4,0.6,3.6c-1.1,0.4-1.6,1.5-1.3,2.5c0.4,1.1,1.5,1.6,2.5,1.3c1.1-0.4,1.6-1.5,1.3-2.5
			c0,0,0,0,0,0c-0.2-0.7-0.8-1.2-1.5-1.4c-0.1-1-0.3-2.1-0.5-3.1h0.1c1.1,0.4,2.2,0.9,3.3,1.4c1.5,0.7,2.4,2.3,2.4,3.9V32L34,32z"/>
		<path id="Path_6811" class="st1" d="M5.9,32v-1.5c0-1.7,0.9-3.2,2.4-3.9c1.1-0.5,2.2-1,3.3-1.4h0.1c-0.1,0.8-0.4,1.5-0.4,2.2
			c-1.4,0.3-2.3,1.7-2.1,3.1l0.3,1.8c-0.2,0.4-0.1,0.9,0.3,1.1c0.4,0.2,0.8,0.1,1-0.3c0.2-0.2,0.3-0.5,0.1-0.8c0,0-0.1-0.1-0.1-0.1
			c-0.1-0.1-0.3-0.3-0.4-0.3l-0.3-1.6c-0.1-0.9,0.5-1.8,1.5-2s1.8,0.5,2,1.5l0.3,1.6c-0.1,0.1-0.3,0.3-0.3,0.4
			c-0.1,0.4,0.2,0.9,0.6,1c0.4,0.1,0.9-0.2,1-0.6l0,0c0.1-0.3,0-0.7-0.3-0.9l-0.3-1.6c-0.1-1.3-1.1-2.3-2.4-2.4
			c0.1-0.8,0.3-1.6,0.5-2.4l0.1-0.1c0,0,0.6-0.1,1.5-0.3c0.8,1.8,3.7,3.6,4.8,4.3v8.3c-6.2-0.2-10.2-1.9-11.8-2.6
			C6.4,33.9,5.9,33,5.9,32z"/>
		<path id="Path_6812" class="st2" d="M16.8,21.8c1.9,1.1,4.2,1.1,6.2,0c0.2,0.8,0.7,1.6,1.3,2.2c-0.3,0.9-2.3,2.5-4.3,3.8
			c-2-1.3-4.1-2.9-4.3-3.8C16.2,23.4,16.6,22.6,16.8,21.8z"/>
		<path id="Path_6813" class="st2" d="M13.7,15.6c0-0.1-0.1-0.3-0.4-0.4c-0.1-0.1-0.3-0.1-0.5,0c-0.1,0-0.1,0-0.3-0.1
			c-0.4-0.4-0.6-0.9-0.6-1.4c0-0.6,0.2-1.2,0.6-1.7c0.2,0,0.4,0,0.6,0.1l0.1,0.1c0.3,0.1,0.6-0.1,0.8-0.4v-0.1
			c0.2-0.6,0.4-1.3,0.6-2c0.8,0.4,1.7,0.6,2.5,0.6c1.1,0,2.3-0.4,3.2-1c1.5-1,3.4-1,4.9-0.1c0.3,0.8,0.6,1.6,0.8,2.4
			c0,0.3,0.4,0.5,0.6,0.5h0.1l0.1-0.1c0.1-0.1,0.4-0.1,0.6-0.1c0.4,0.1,0.6,0.8,0.6,1.7c0,0.5-0.3,1-0.6,1.4
			c-0.1,0.1-0.2,0.1-0.3,0.1c-0.3-0.1-0.6,0-0.8,0.3v0.1c-0.5,2-1.6,3.8-3.2,5.1c-2,1.5-4.7,1.5-6.6,0
			C15.1,19.2,14.1,17.5,13.7,15.6z"/>
		<path id="Path_6814" class="st2" d="M20,2.8c4.8,0,7.9,2.7,7.9,7c0,0.4,0,0.9-0.1,1.3h-0.1c-0.3-0.1-0.6-0.1-0.9,0
			c-0.1-0.4-0.4-1-0.8-2.1l0,0V8.8l-0.1-0.1l0,0c-1.9-1.3-4.3-1.3-6.2,0c-1.5,1-3.4,1-4.9,0h-0.1l-0.3-0.1h-0.3l-0.1,0.1H14
			l-0.1,0.1l0,0V9c-0.1,0.6-0.3,1.3-0.6,1.9c-0.3-0.1-0.6-0.1-0.9,0h-0.1c0-0.4-0.1-0.8-0.1-1.1C12,5.5,15.2,2.8,20,2.8L20,2.8z"/>
		<path id="Path_6815" class="st2" d="M28.2,29.3L28.2,29.3c0.5,0,1,0.4,1,1c0,0.5-0.4,1-1,1c-0.5,0-1-0.4-1-1c0-0.5,0.4-0.9,0.9-1
			C28.1,29.3,28.1,29.3,28.2,29.3"/>
	</g>
</g>
</svg>
