<?xml version="1.0" encoding="utf-8"?>
<!-- Generator: Adobe Illustrator 23.1.1, SVG Export Plug-In . SVG Version: 6.00 Build 0)  -->
<svg version="1.1" id="Livello_1" xmlns="http://www.w3.org/2000/svg" xmlns:xlink="http://www.w3.org/1999/xlink" x="0px" y="0px"
	 viewBox="0 0 40 40" style="enable-background:new 0 0 40 40;" xml:space="preserve">
<style type="text/css">
	.st0{fill:#FFFFFF;}
	.st1{fill:#003575;}
	.st2{fill:#73D7FF;}
	.st3{fill:none;stroke:#D63333;stroke-linecap:round;stroke-miterlimit:10;}
	.st4{fill:#FFFFFF;stroke:#003575;stroke-miterlimit:10;}
</style>
<g>
	<g>
		<g>
			<polygon class="st0" points="7.7,4.6 7.7,32.6 11.7,29.7 14.5,32.9 17.4,29.8 20.3,33.1 22.9,29.8 25.8,33.1 29.2,29.4 
				32.4,32.7 32.4,4.6 			"/>
		</g>
	</g>
	<g>
		<g>
			<g>
				<g>
					<path class="st1" d="M7.6,33.9c-0.1,0-0.2,0-0.2,0c-0.2-0.1-0.4-0.3-0.4-0.6V4.4c0-0.4,0.3-0.6,0.6-0.6h25
						c0.4,0,0.6,0.3,0.6,0.6v28.8c0,0.3-0.2,0.5-0.4,0.6c-0.1,0-0.2,0-0.2,0c-0.2,0-0.3-0.1-0.5-0.2L29,30.7
						c-0.1-0.1-0.1-0.1-0.2-0.1c0,0,0,0,0,0c-0.1,0-0.2,0.1-0.2,0.1l-2.2,3c-0.1,0.2-0.3,0.3-0.5,0.3c-0.2,0-0.4-0.1-0.5-0.3
						l-2.1-2.8c-0.1-0.1-0.2-0.1-0.3-0.1c-0.1,0-0.2,0-0.3,0.1l-2.1,2.8c-0.1,0.2-0.3,0.3-0.5,0.3c-0.2,0-0.4-0.1-0.5-0.3l-2.1-2.8
						c-0.1-0.1-0.2-0.1-0.3-0.1c-0.1,0-0.2,0-0.3,0.1l-2.1,2.8c-0.1,0.2-0.3,0.3-0.5,0.3c-0.2,0-0.4-0.1-0.5-0.3l-2.2-3
						c-0.1-0.1-0.1-0.1-0.2-0.1c0,0,0,0,0,0c-0.1,0-0.2,0-0.2,0.1L8,33.7C7.9,33.8,7.7,33.9,7.6,33.9z M17.2,28.8
						c0.2,0,0.4,0.1,0.5,0.3l2.1,2.8c0.1,0.1,0.2,0.1,0.3,0.1h0c0.1,0,0.2,0,0.3-0.1l2.1-2.8c0.1-0.2,0.3-0.3,0.5-0.3
						c0.2,0,0.4,0.1,0.5,0.3l2.1,2.8c0.1,0.1,0.2,0.1,0.3,0.1h0c0.1,0,0.2,0,0.3-0.1l2.1-2.8c0.1-0.1,0.3-0.2,0.5-0.3c0,0,0,0,0.1,0
						c0.2,0,0.3,0.1,0.5,0.2l2.2,2.2c0.1,0.1,0.1,0.1,0.2,0.1c0,0,0.1,0,0.1,0c0.1,0,0.2-0.2,0.2-0.3V5.4c0-0.2-0.1-0.3-0.3-0.3H8.5
						c-0.2,0-0.3,0.1-0.3,0.3v25.6c0,0.1,0.1,0.2,0.2,0.3c0,0,0.1,0,0.1,0c0.1,0,0.2,0,0.2-0.1L11,29c0.1-0.1,0.3-0.2,0.4-0.2
						c0,0,0,0,0.1,0c0.2,0,0.4,0.1,0.5,0.3l2.1,2.8c0.1,0.1,0.2,0.1,0.3,0.1h0c0.1,0,0.2,0,0.3-0.1l2.1-2.8
						C16.8,28.9,17,28.8,17.2,28.8z"/>
				</g>
			</g>
		</g>
		<g>
			<g>
				<g>
					<path class="st2" d="M11.4,15.7c-0.4,0-0.6-0.3-0.6-0.6s0.3-0.6,0.6-0.6h1.9c0.4,0,0.6,0.3,0.6,0.6s-0.3,0.6-0.6,0.6H11.4z"/>
				</g>
			</g>
		</g>
		<g>
			<g>
				<g>
					<path class="st2" d="M17.2,15.7c-0.4,0-0.6-0.3-0.6-0.6s0.3-0.6,0.6-0.6h11.4c0.4,0,0.6,0.3,0.6,0.6s-0.3,0.6-0.6,0.6H17.2z"/>
				</g>
			</g>
		</g>
		<g>
			<g>
				<g>
					<path class="st2" d="M11.4,19.5c-0.4,0-0.6-0.3-0.6-0.6s0.3-0.6,0.6-0.6h1.9c0.4,0,0.6,0.3,0.6,0.6s-0.3,0.6-0.6,0.6H11.4z"/>
				</g>
			</g>
		</g>
		<g>
			<g>
				<g>
					<path class="st2" d="M17.2,19.5c-0.4,0-0.6-0.3-0.6-0.6s0.3-0.6,0.6-0.6h11.4c0.4,0,0.6,0.3,0.6,0.6s-0.3,0.6-0.6,0.6H17.2z"/>
				</g>
			</g>
		</g>
		<g>
			<g>
				<g>
					<path class="st2" d="M11.4,23.3c-0.4,0-0.6-0.3-0.6-0.6c0-0.4,0.3-0.6,0.6-0.6h1.9c0.4,0,0.6,0.3,0.6,0.6
						c0,0.4-0.3,0.6-0.6,0.6H11.4z"/>
				</g>
			</g>
		</g>
		<g>
			<g>
				<g>
					<path class="st2" d="M17.2,23.3c-0.4,0-0.6-0.3-0.6-0.6c0-0.4,0.3-0.6,0.6-0.6h11.4c0.4,0,0.6,0.3,0.6,0.6
						c0,0.4-0.3,0.6-0.6,0.6H17.2z"/>
				</g>
			</g>
		</g>
		<g>
			<g>
				<g>
					<path class="st1" d="M11.4,10.8c-0.4,0-0.6-0.3-0.6-0.6s0.3-0.6,0.6-0.6h17.3c0.4,0,0.6,0.3,0.6,0.6s-0.3,0.6-0.6,0.6H11.4z"/>
				</g>
			</g>
		</g>
	</g>
</g>
<line class="st3" x1="2.4" y1="35.4" x2="36.1" y2="1.7"/>
<circle class="st4" cx="27.7" cy="29.5" r="8.8"/>
<g>
	<g>
		<g>
			<rect x="23.4" y="33.6" class="st2" width="8.1" height="1.4"/>
		</g>
	</g>
	<g>
		<g>
			<rect x="28" y="31.9" class="st0" width="2" height="1.8"/>
		</g>
	</g>
	<g>
		<g>
			<polygon class="st2" points="29.3,27.7 27.5,29.5 26.5,28.4 28.3,26.6 			"/>
		</g>
	</g>
	<g>
		<g>
			<polygon class="st2" points="31.8,25.2 30,27 29,25.9 30.8,24.1 			"/>
		</g>
	</g>
	<g>
		<g>
			<polygon class="st0" points="26.3,28.7 25.4,29.6 26.3,30.5 27.3,29.5 			"/>
		</g>
	</g>
	<g>
		<g>
			<circle class="st0" cx="29.5" cy="26.4" r="1"/>
		</g>
	</g>
	<g>
		<g>
			<g>
				<g>
					<path class="st1" d="M30.9,26.6C30.9,26.5,30.9,26.5,30.9,26.6l1.2-1.3c0.1-0.1,0.1-0.3,0-0.3L31,23.8c0,0-0.1-0.1-0.2-0.1
						c-0.1,0-0.1,0-0.2,0.1L29.4,25c0,0,0,0-0.1,0c-0.6,0.1-1.1,0.6-1.2,1.2c0,0,0,0.1,0,0.1L26.5,28c0,0-0.1,0-0.1,0
						c0,0-0.1,0-0.1,0l-0.1-0.1c0,0-0.1-0.1-0.2-0.1c-0.1,0-0.1,0-0.2,0.1c0,0-0.1,0.1-0.1,0.2c0,0.1,0,0.1,0.1,0.2l0.1,0.1
						c0,0,0,0.1,0,0.2l-0.8,0.8c0,0-0.1,0.1-0.1,0.2s0,0.1,0.1,0.2l1.1,1.1c0,0,0.1,0.1,0.2,0.1c0.1,0,0.1,0,0.2-0.1l0.8-0.8
						c0,0,0.1,0,0.1,0c0,0,0.1,0,0.1,0l0.1,0.1c0,0,0.1,0.1,0.2,0.1s0.1,0,0.2-0.1c0.1-0.1,0.1-0.3,0-0.3l-0.1-0.1c0,0,0-0.1,0-0.1
						c0,0,0-0.1,0-0.1l1.7-1.7c0,0,0,0,0.1,0c0.3,0,0.6-0.2,0.8-0.4c0,0,0.1,0,0.1,0c0,0,0,0,0,0c0,0,0.1,0,0.1,0
						c0.4,0.5,0.6,1.2,0.6,1.8c0,1-0.5,2-1.4,2.5c0,0,0,0,0,0c0,0-0.1,0-0.1,0c0,0,0,0-0.1,0c-0.2-0.2-0.5-0.3-0.8-0.3h-4.8
						c-0.1,0-0.2,0.1-0.2,0.2c0,0.1,0.1,0.2,0.2,0.2h3.5c0,0,0.1,0,0.1,0.1c0,0,0,0.1,0,0.1c-0.1,0.2-0.2,0.4-0.2,0.7v0.4
						c0,0.1-0.1,0.1-0.1,0.1h-4c-0.1,0-0.2,0.1-0.2,0.2V35c0,0.1,0.1,0.2,0.2,0.2h8.1c0.1,0,0.2-0.1,0.2-0.2v-1.5
						c0-0.1-0.1-0.2-0.2-0.2h-1.1c-0.1,0-0.1-0.1-0.1-0.1v-0.4c0-0.2,0-0.4-0.1-0.6c0-0.1,0-0.1,0-0.2c1-0.7,1.6-1.8,1.6-2.9
						c0-0.9-0.3-1.7-0.9-2.4l0,0c0,0,0-0.1,0-0.1C30.8,26.6,30.9,26.6,30.9,26.6z M28.1,32.8c0-0.5,0.4-0.9,0.9-0.9
						c0.5,0,0.9,0.4,0.9,0.9v0.4c0,0.1-0.1,0.1-0.1,0.1h-1.5c-0.1,0-0.1-0.1-0.1-0.1V32.8z M31.2,33.8c0.1,0,0.1,0.1,0.1,0.1v0.7
						c0,0.1-0.1,0.1-0.1,0.1h-7.3c-0.1,0-0.1-0.1-0.1-0.1v-0.7c0-0.1,0.1-0.1,0.1-0.1H31.2z M27.1,29.6l-0.6,0.6c0,0-0.1,0-0.1,0
						c0,0-0.1,0-0.1,0l-0.6-0.6c0,0,0-0.1,0-0.1c0,0,0-0.1,0-0.1l0.6-0.6c0,0,0.1,0,0.1,0c0,0,0.1,0,0.1,0l0.6,0.6
						C27.1,29.5,27.1,29.6,27.1,29.6z M28.9,27.8l-1.3,1.3c0,0-0.1,0-0.1,0c0,0-0.1,0-0.1,0l-0.6-0.6c0,0,0-0.1,0-0.1
						c0,0,0-0.1,0-0.1l1.3-1.3c0,0,0.1,0,0.1,0c0,0,0,0,0,0c0,0,0.1,0,0.1,0.1l0,0c0,0,0,0,0,0.1l0,0c0,0,0,0,0,0.1c0,0,0,0,0,0
						c0,0,0,0,0,0.1l0,0c0,0,0.1,0.1,0.1,0.1l0,0c0,0,0,0,0.1,0l0,0c0,0,0,0,0.1,0l0,0c0,0,0,0,0.1,0l0,0c0,0,0.1,0.1,0.1,0.1
						C28.9,27.7,28.9,27.8,28.9,27.8z M29.5,27.3c-0.5,0-0.9-0.4-0.9-0.9c0-0.5,0.4-0.9,0.9-0.9c0.5,0,0.9,0.4,0.9,0.9
						C30.4,26.9,30,27.3,29.5,27.3z M30.8,25.8C30.8,25.8,30.8,25.8,30.8,25.8c-0.1,0-0.1,0-0.1-0.1l0,0c0,0,0,0,0-0.1l0,0
						c0,0,0,0,0-0.1c0,0,0,0,0,0c0,0,0,0,0-0.1l0,0c0,0-0.1-0.1-0.1-0.1l0,0c0,0,0,0-0.1,0l0,0c0,0,0,0-0.1,0l0,0c0,0,0,0-0.1,0l0,0
						c0,0-0.1-0.1-0.1-0.1c0,0,0-0.1,0-0.1l0.6-0.6c0,0,0.1,0,0.1,0c0,0,0.1,0,0.1,0l0.6,0.6c0,0,0,0.1,0,0.1c0,0,0,0.1,0,0.1
						L30.8,25.8C30.9,25.8,30.8,25.8,30.8,25.8z"/>
				</g>
			</g>
		</g>
		<g>
			<g>
				<g>
					<path class="st1" d="M29.5,26.2c-0.1,0-0.2,0.1-0.2,0.2c0,0.1,0.1,0.2,0.2,0.2c0.1,0,0.2-0.1,0.2-0.2
						C29.8,26.3,29.7,26.2,29.5,26.2z"/>
				</g>
			</g>
		</g>
	</g>
</g>
</svg>
