<?xml version="1.0" encoding="utf-8"?>
<!-- Generator: Adobe Illustrator 21.0.2, SVG Export Plug-In . SVG Version: 6.00 Build 0)  -->
<svg version="1.1" id="Livello_1" xmlns="http://www.w3.org/2000/svg" xmlns:xlink="http://www.w3.org/1999/xlink" x="0px" y="0px"
	 viewBox="0 0 40 40" style="enable-background:new 0 0 40 40;" xml:space="preserve">
<style type="text/css">
	.st0{fill:#73D7FF;}
	.st1{fill:#003575;}
</style>
<polygon class="st0" points="21.1,2.4 6.4,16.5 6.4,38 33.8,38 33.8,15.9 "/>
<title>ico_home</title>
<g id="Livello_2">
	<g id="Layer_2">
		<path class="st1" d="M38.3,20.9c-0.1,0-0.4-0.1-0.5-0.1l-17-17.1L3.6,20.8c-0.3,0.3-0.6,0.3-0.9,0s-0.3-0.6,0-0.9L20.2,2.4
			c0.3-0.3,0.6-0.3,0.9,0l0,0l17.5,17.5c0.3,0.3,0.3,0.6,0,0.9C38.6,20.9,38.4,20.9,38.3,20.9z"/>
		<path class="st1" d="M34.5,39.4H7c-0.4,0-0.6-0.3-0.6-0.6l0,0V16.5c0-0.4,0.3-0.6,0.6-0.6s0.6,0.3,0.6,0.6V38h26.2V16.5
			c0-0.4,0.3-0.6,0.6-0.6s0.6,0.3,0.6,0.6v22.2C35.2,39.1,34.9,39.4,34.5,39.4z"/>
		<path class="st1" d="M23.9,39.4h-7c-0.4,0-0.6-0.3-0.6-0.6l0,0V26.4c0-0.4,0.3-0.6,0.6-0.6h7c0.4,0,0.6,0.3,0.6,0.6v12.3
			C24.5,39.1,24.3,39.4,23.9,39.4L23.9,39.4z M17.5,38.1h5.7V27h-5.7V38.1z"/>
	</g>
</g>
</svg>
