<?xml version="1.0" encoding="utf-8"?>
<!-- Generator: Adobe Illustrator 21.0.2, SVG Export Plug-In . SVG Version: 6.00 Build 0)  -->
<svg version="1.1" id="Livello_1" xmlns="http://www.w3.org/2000/svg" xmlns:xlink="http://www.w3.org/1999/xlink" x="0px" y="0px"
	 viewBox="0 0 40 40" style="enable-background:new 0 0 40 40;" xml:space="preserve">
<style type="text/css">
	.st0{fill:#73D7FF;}
	.st1{fill:#003575;}
</style>
<title>ico_pagamento</title>
<g id="Livello_2">
	<g id="icon">
		<rect x="32.8" y="15.5" transform="matrix(0.1778 -0.9841 0.9841 0.1778 8.7666 48.7017)" class="st0" width="1.4" height="7.2"/>
		<rect x="32.9" y="12.2" transform="matrix(0.1778 -0.9841 0.9841 0.1778 11.6338 46.3976)" class="st0" width="1.4" height="8"/>
		<rect x="18.1" y="5.1" transform="matrix(0.1778 -0.9841 0.9841 0.1778 2.066 29.6797)" class="st0" width="1.4" height="17.1"/>
		<path class="st1" d="M28.6,35.1H3.9c-1.1,0-2.1-1-2.1-2.1V16.5c0-1.1,1-2.1,2.1-2.1h24.8c1.1,0,2.1,1,2.1,2.1V33
			C30.7,34.1,29.7,35.1,28.6,35.1z M3.9,15.8c-0.4,0-0.7,0.4-0.7,0.7V33c0,0.4,0.3,0.7,0.7,0.7h24.8c0.4,0,0.7-0.3,0.7-0.7V16.5
			c0-0.4-0.3-0.7-0.7-0.7H3.9z"/>
		<path class="st1" d="M33.8,31c-0.1,0-0.3,0-0.4,0l-3.6-0.7l0.3-1.4l3.7,0.7c0.4,0,0.7-0.1,0.8-0.6l0,0l2.9-16.2
			c0-0.4-0.1-0.7-0.6-0.8l0,0L12.7,7.7c-0.4-0.1-0.8,0.1-0.8,0.6l0,0l-1.2,7.2l-1.4-0.3L10.5,8c0.1-1.1,1.2-1.9,2.3-1.7l0,0
			l24.4,4.4c1.1,0.1,1.9,1.2,1.7,2.3l0,0l-3,16.2C35.8,30.3,34.9,31,33.8,31z"/>
		<path class="st0" d="M10.7,24.1H8c-1.1,0-2.1-0.8-2.1-2.1v-1.4c0-1.1,1-2.1,2.1-2.1h2.8c1.1,0,2.1,1,2.1,2.1V22
			C12.8,23.3,11.8,24.1,10.7,24.1z"/>
		<rect x="19.7" y="20" class="st0" width="6.9" height="1.4"/>
		<rect x="16.9" y="28.2" class="st0" width="3.4" height="1.4"/>
		<rect x="22.4" y="28.2" class="st0" width="3.4" height="1.4"/>
		<rect x="11.4" y="28.2" class="st0" width="3.4" height="1.4"/>
		<rect x="5.9" y="28.2" class="st0" width="3.4" height="1.4"/>
	</g>
</g>
</svg>
