<?xml version="1.0" encoding="utf-8"?>
<!-- Generator: Adobe Illustrator 21.0.2, SVG Export Plug-In . SVG Version: 6.00 Build 0)  -->
<svg version="1.1" id="Livello_1" xmlns="http://www.w3.org/2000/svg" xmlns:xlink="http://www.w3.org/1999/xlink" x="0px" y="0px"
	 viewBox="0 0 40 40" style="enable-background:new 0 0 40 40;" xml:space="preserve">
<style type="text/css">
	.st0{fill:#003575;}
	.st1{fill:#73D7FF;}
</style>
<title>Risorsa 2</title>
<g id="Livello_2">
	<g id="icon">
		<path class="st0" d="M37.8,39.2H2.5c-0.4,0-0.7-0.4-0.7-0.7v-0.1l3-16.9c0-0.4,0.4-0.6,0.7-0.6h29.4c0.4,0,0.6,0.2,0.7,0.6l3,16.9
			c0.1,0.4-0.2,0.7-0.6,0.9C38,39.2,37.8,39.2,37.8,39.2z M3.3,37.7h33.5l-2.7-15.5h-28L3.3,37.7z"/>
		<rect x="3.7" y="30.4" class="st0" width="32.8" height="1.5"/>
		<rect x="13.5" y="21.6" class="st0" width="1.5" height="16.9"/>
	</g>
</g>
<g>
	<path class="st1" d="M24.6,1c-5.7,0-10.3,4.6-10.3,10.3c0,1.9,0.5,3.6,1.5,5.2l5.7,10.6c1,1.7,3.1,2.3,4.8,1.5
		c0.6-0.4,1.1-0.9,1.5-1.5l5.7-10.5c1-1.6,1.5-3.3,1.5-5.2C34.9,5.6,30.3,1,24.6,1z M24.6,13.6c-1.3,0-2.4-1.1-2.4-2.4
		s1.1-2.4,2.4-2.4S27,9.9,27,11.2S25.9,13.6,24.6,13.6z"/>
</g>
<path class="st0" d="M24.6,27.5c-0.7,0-1.5-0.4-1.9-1.1L17,15.9c-0.7-1.4-1.2-3-1.2-4.4c0-4.8,4-8.8,8.8-8.8s8.8,4,8.8,8.8
	c0,1.6-0.5,3.2-1.2,4.6l-5.7,10.4C26.1,27.1,25.3,27.5,24.6,27.5z M24.6,4c-4.1,0-7.3,3.3-7.3,7.3c0,1.4,0.4,2.7,1.1,3.8L24,25.7
	c0.2,0.2,0.6,0.4,0.9,0.2c0.1,0,0.1-0.1,0.2-0.2l5.7-10.5c0.7-1.1,1.1-2.5,1.1-3.8C31.9,7.2,28.7,4,24.6,4z"/>
<path class="st0" d="M24.6,15c-2,0-3.7-1.6-3.7-3.7s1.6-3.7,3.7-3.7c2,0,3.7,1.6,3.7,3.7S26.6,15,24.6,15z M24.6,9
	c-1.2,0-2.2,1-2.2,2.2s1,2.2,2.2,2.2s2.2-1,2.2-2.2S25.8,9,24.6,9z"/>
</svg>
