<svg xmlns="http://www.w3.org/2000/svg" xmlns:xlink="http://www.w3.org/1999/xlink" width="1034.653" height="405.452" viewBox="0 0 1034.653 405.452"><defs><style>.a,.bq,.ce{fill:none;}.b{fill:#003575;}.c{fill:#8ec1ff;}.d{fill:#7cb4f7;}.e{clip-path:url(#a);}.f{fill:#abcffa;}.g{fill:#3551a2;}.h{fill:#4b6ccc;}.i{fill:#478bde;}.j{fill:#25c0da;}.k{fill:#97cbfd;}.l{clip-path:url(#b);}.m{fill:#dd785e;}.ad,.n,.y{mix-blend-mode:multiply;isolation:isolate;}.o{clip-path:url(#c);}.p{clip-path:url(#e);}.q{fill:#005ac7;}.r{fill:#316bb2;}.s{fill:#438be3;}.t{fill:#3fc97d;}.u{fill:#2c9157;}.v{clip-path:url(#f);}.w{clip-path:url(#g);}.x{fill:#2ea05f;}.y{opacity:0.79;}.z{clip-path:url(#h);}.aa{clip-path:url(#i);}.ab{clip-path:url(#k);}.ac{fill:#003a80;}.ad{opacity:0.44;}.ae{clip-path:url(#l);}.af{fill:#1e2933;}.ag{fill:#162028;}.ah{fill:#8d7fa2;}.ai{fill:#2b337c;}.aj{opacity:0.1;}.ak{clip-path:url(#o);}.al{fill:#fff;}.am{clip-path:url(#p);}.an{opacity:0.2;}.ao{clip-path:url(#q);}.ap{fill:#fa364d;}.aq{clip-path:url(#r);}.ar{fill:#ffce54;}.as{clip-path:url(#s);}.at{clip-path:url(#t);}.au{clip-path:url(#u);}.av{clip-path:url(#v);}.aw{clip-path:url(#y);}.ax{clip-path:url(#z);}.ay{clip-path:url(#ac);}.az{clip-path:url(#ad);}.ba{clip-path:url(#af);}.bb{clip-path:url(#ai);}.bc{clip-path:url(#aj);}.bd{clip-path:url(#al);}.be{clip-path:url(#am);}.bf{clip-path:url(#au);}.bg{clip-path:url(#ay);}.bh{clip-path:url(#bb);}.bi{clip-path:url(#bc);}.bj{fill:#394856;}.bk{clip-path:url(#bd);}.bl{fill:#bccacc;}.bm{fill:#4432db;}.bn{fill:#30239f;}.bo{clip-path:url(#be);}.bp{clip-path:url(#bf);}.bq{stroke:#ffce54;stroke-miterlimit:10;stroke-width:2px;}.bq,.ce{stroke-linecap:round;}.br{fill:#14dded;}.bs{fill:#303e49;}.bt{clip-path:url(#bg);}.bu{clip-path:url(#bh);}.bv{fill:#d1dffe;}.bw{fill:#768dbf;}.bx{fill:#94b1ef;}.by{clip-path:url(#bi);}.bz{fill:#191791;}.ca{fill:#c6d2f2;}.cb{fill:#726781;}.cc{fill:#f9bcaa;}.cd{fill:#467de4;}.ce{stroke:#fff;stroke-linejoin:round;stroke-width:3.205px;}.cf{fill:#e3ac9c;}.cg{fill:#21ded5;}.ch{fill:#98c1f5;}.ci{fill:#acaff2;}.cj{fill:#e1eaf4;}.ck{fill:#ffc2b0;}.cl{fill:#f0f5ff;}.cm{fill:#a1bfff;}.cn{fill:#57e0d8;}.co{fill:#292685;}.cp{fill:#e6eeff;}.cq{fill:#f09a82;}.cr{fill:#4285ff;}.cs{fill:#2c1f9c;}.ct{fill:#9ebcff;}</style><clipPath id="a"><rect class="a" width="58.692" height="74.235"/></clipPath><clipPath id="b"><rect class="a" width="311.405" height="186.614"/></clipPath><clipPath id="c"><rect class="a" width="268.286" height="133.605"/></clipPath><clipPath id="e"><rect class="b" width="268.286" height="133.605"/></clipPath><clipPath id="f"><rect class="a" width="90.739" height="69.273"/></clipPath><clipPath id="g"><rect class="a" width="90.738" height="69.273"/></clipPath><clipPath id="h"><rect class="b" width="197.817" height="137.417"/></clipPath><clipPath id="i"><rect class="a" width="213.335" height="144.067"/></clipPath><clipPath id="k"><rect class="c" width="213.335" height="144.067"/></clipPath><clipPath id="l"><rect class="a" width="271.016" height="114.788"/></clipPath><clipPath id="o"><rect class="a" width="110.885" height="31.774"/></clipPath><clipPath id="p"><rect class="a" width="105.9" height="20.608"/></clipPath><clipPath id="q"><rect class="a" width="3.756" height="1.768"/></clipPath><clipPath id="r"><rect class="a" width="6.549" height="2.103"/></clipPath><clipPath id="s"><rect class="a" width="5.93" height="2.496"/></clipPath><clipPath id="t"><rect class="a" width="7.811" height="3.126"/></clipPath><clipPath id="u"><rect class="a" width="3.332" height="1.502"/></clipPath><clipPath id="v"><rect class="a" width="11.093" height="4.099"/></clipPath><clipPath id="y"><rect class="a" width="3.756" height="1.769"/></clipPath><clipPath id="z"><rect class="a" width="10.049" height="3.875"/></clipPath><clipPath id="ac"><rect class="a" width="3.332" height="1.501"/></clipPath><clipPath id="ad"><rect class="a" width="11.092" height="4.1"/></clipPath><clipPath id="af"><rect class="a" width="7.81" height="3.126"/></clipPath><clipPath id="ai"><rect class="a" width="5.929" height="2.496"/></clipPath><clipPath id="aj"><rect class="a" width="7.811" height="3.125"/></clipPath><clipPath id="al"><rect class="a" width="11.091" height="4.1"/></clipPath><clipPath id="am"><rect class="a" width="5.93" height="2.497"/></clipPath><clipPath id="au"><rect class="a" width="5.929" height="2.497"/></clipPath><clipPath id="ay"><rect class="a" width="5.931" height="2.496"/></clipPath><clipPath id="bb"><rect class="a" width="11.092" height="4.099"/></clipPath><clipPath id="bc"><rect class="a" width="7.811" height="2.614"/></clipPath><clipPath id="bd"><rect class="a" width="90.511" height="68.178"/></clipPath><clipPath id="be"><rect class="a" width="30.76" height="16.289"/></clipPath><clipPath id="bf"><rect class="a" width="12.954" height="4.174"/></clipPath><clipPath id="bg"><rect class="a" width="122.6" height="18.118"/></clipPath><clipPath id="bh"><rect class="a" width="112.578" height="7.83"/></clipPath><clipPath id="bi"><rect class="a" width="158.701" height="276.992"/></clipPath></defs><g transform="translate(-196.048 -1302.994)"><g transform="translate(-634.79 268.118)"><path class="d" d="M56.716,335.483c.111.33,10.029,35.154,10.139,35.374,1.762,7.383,2.755,10.469,8.485,13.775,13.8,8.024,37.507,3.468,40.333-7.824.11-.33,11.9-41.766,12.012-42.1,2.093-6.5-1.323-13.554-10.14-18.624-24.132-13.873-67.708-2.825-60.829,19.4" transform="translate(1077.463 937.788)"/><g transform="translate(1133.456 1252.238)"><g class="e"><path class="d" d="M56.721,337.528c.107.337,10.03,35.154,10.137,35.376,1.76,7.383,2.755,10.473,8.484,13.778,12.777,7.421,34.014,4.078,39.346-5.4-8.713,3.083-20.724,2.976-29.208-1.982-5.73-3.312-6.717-6.4-8.484-13.778-.107-.221-10.03-35.046-10.137-35.375A14.078,14.078,0,0,1,69.489,316.5c-9.686,4.384-15.645,11.728-12.768,21.03" transform="translate(-55.995 -316.498)"/></g></g><path class="f" d="M117.56,316.035c14.175,8.184,14.25,21.451.167,29.636s-36.985,8.182-51.16,0-14.25-21.447-.167-29.631,36.989-8.184,51.16,0" transform="translate(1077.494 937.806)"/><path class="g" d="M61.222,332.96a8.909,8.909,0,0,0,.5,1.914c4.734,13.346,36.411,18.987,55.045,8.964,4.733-2.518,7.654-5.64,8.863-8.863,2.014-5.49-.957-11.432-8.964-15.663-21.4-11.381-57.915-2.417-55.447,13.648" transform="translate(1075.861 936.46)"/><path class="h" d="M62.009,337.913c4.734,13.346,36.411,18.987,55.044,8.964,4.734-2.518,7.655-5.64,8.864-8.864-1.159-3.273-4.18-6.445-8.964-9.014-18.886-10.022-50.21-4.331-54.944,8.914" transform="translate(1075.577 933.421)"/><path class="i" d="M105.167,275.6s9.157-54.94,37.166-99.109,37.435-48.746,37.435-48.746-39.32,50.362-50.632,80.794-21.275,68.406-21.275,68.406Z" transform="translate(1062.058 994.861)"/><path class="i" d="M167.214,109.708s10.234,19.93,7.541,42.282c-6.464-11.041-10.5-18.852-10.773-29.085s3.232-13.2,3.232-13.2" transform="translate(1043.641 1000.513)"/><path class="i" d="M220.415,181.126s-22.334,1.772-41.926-9.319c12.679-1.714,21.443-2.435,30.991,1.256s10.935,8.063,10.935,8.063" transform="translate(1039.092 981.501)"/><path class="i" d="M180.156,92.454s10.234,19.93,7.541,42.282c-6.463-11.042-10.5-18.852-10.772-29.085s3.231-13.2,3.231-13.2" transform="translate(1039.587 1005.917)"/><path class="i" d="M230.558,155.552s-21.324,6.87-42.945.591c11.943-4.589,20.3-7.31,30.447-5.918s12.5,5.327,12.5,5.327" transform="translate(1036.234 987.935)"/><path class="i" d="M203.254,79.577s3.694,20.979-2.4,42.576c-2.62-11.731-4.088-19.957-2.384-30.05s4.783-12.526,4.783-12.526" transform="translate(1033.063 1009.95)"/><path class="i" d="M241.051,129.133s-19.072,9.488-41.511,9.767c10.508-5.838,17.98-9.578,28.143-10.8s13.369,1.037,13.369,1.037" transform="translate(1032.498 994.867)"/><path class="i" d="M233.614,91.431s-10.2,18.7-28.437,31.778c5.272-10.8,9.255-18.147,16.884-24.972s11.553-6.806,11.553-6.806" transform="translate(1030.733 1006.237)"/><path class="i" d="M150.1,128.852s12.745,18.425,12.989,40.938c-7.848-10.105-12.871-17.321-14.472-27.433s1.483-13.505,1.483-13.505" transform="translate(1048.594 994.516)"/><path class="i" d="M207.853,195.728s-22.054,3.936-42.634-5.2c12.453-2.94,21.1-4.51,30.967-1.765s11.667,6.962,11.667,6.962" transform="translate(1043.248 976.195)"/><path class="i" d="M138.223,147.29s13.627,17.783,14.966,40.257c-8.331-9.71-13.7-16.674-15.791-26.7s.825-13.561.825-13.561" transform="translate(1052.2 988.741)"/><path class="i" d="M197.851,212.876s-22.236,2.734-42.289-7.5c12.594-2.259,21.318-3.358,31.017-.082s11.273,7.584,11.273,7.584" transform="translate(1046.273 971.217)"/><path class="i" d="M85.553,299.486s-6.485-38.913-26.323-70.2-26.514-34.525-26.514-34.525,27.849,35.67,35.861,57.224,15.069,48.45,15.069,48.45Z" transform="translate(1084.752 973.87)"/><path class="i" d="M62.074,181.988s-7.248,14.115-5.34,29.947c4.578-7.82,7.439-13.352,7.629-20.6s-2.289-9.346-2.289-9.346" transform="translate(1077.329 977.872)"/><path class="i" d="M14.482,232.571s15.818,1.255,29.695-6.6c-8.98-1.214-15.187-1.725-21.951.89s-7.744,5.711-7.744,5.711" transform="translate(1090.464 964.407)"/><path class="i" d="M52.909,169.766s-7.249,14.116-5.341,29.947c4.578-7.82,7.439-13.352,7.63-20.6s-2.289-9.347-2.289-9.347" transform="translate(1080.2 981.7)"/><path class="i" d="M6.968,214.456s15.1,4.866,30.417.419C28.927,211.625,23,209.7,15.82,210.684s-8.852,3.772-8.852,3.772" transform="translate(1092.817 968.965)"/><path class="i" d="M38.04,160.646a75.948,75.948,0,0,0,1.7,30.155c1.855-8.309,2.895-14.135,1.688-21.284s-3.389-8.872-3.389-8.872" transform="translate(1083.331 984.557)"/><path class="i" d="M0,195.746a75.961,75.961,0,0,0,29.4,6.917c-7.443-4.134-12.735-6.783-19.933-7.651S0,195.746,0,195.746" transform="translate(1095 973.873)"/><path class="i" d="M9.49,169.043a75.972,75.972,0,0,0,20.141,22.508C25.9,183.9,23.076,178.7,17.672,173.863s-8.182-4.82-8.182-4.82" transform="translate(1092.028 981.927)"/><path class="i" d="M73,195.546s-9.027,13.05-9.2,29c5.559-7.158,9.117-12.269,10.251-19.43S73,195.546,73,195.546" transform="translate(1075.015 973.626)"/><path class="i" d="M23.15,242.913s15.621,2.788,30.2-3.68c-8.82-2.082-14.948-3.194-21.933-1.25s-8.264,4.93-8.264,4.93" transform="translate(1087.749 960.649)"/><path class="j" d="M80.9,208.6s-9.652,12.6-10.6,28.513c5.9-6.878,9.7-11.81,11.185-18.909s-.584-9.6-.584-9.6" transform="translate(1072.982 969.535)"/><path class="i" d="M30.345,255.058s15.75,1.936,29.953-5.314c-8.92-1.6-15.1-2.378-21.968-.058s-7.984,5.371-7.984,5.371" transform="translate(1085.495 957.124)"/><path class="k" d="M106.217,322.844s.31-8.031,29.539-30.787S172.363,268.5,172.363,268.5s-38.25,24.184-53.064,41.771c-13.877,16.478-11.02,14.729-13.082,12.573" transform="translate(1061.73 950.775)"/><path class="k" d="M173.721,245.7s2.061,15.733-5.076,29.994c-1.671-8.907-2.5-15.079-.232-21.967s5.308-8.027,5.308-8.027" transform="translate(1042.683 957.916)"/><path class="k" d="M194.04,306.1s-15.314-4.156-25.728-16.233c8.863,1.887,14.879,3.5,20.363,8.243s5.364,7.989,5.364,7.989" transform="translate(1042.28 944.081)"/><path class="k" d="M186.472,237.286s2.062,15.733-5.076,29.993c-1.671-8.907-2.5-15.079-.232-21.967s5.308-8.026,5.308-8.026" transform="translate(1038.688 960.551)"/><path class="k" d="M206.381,292.93s-15.86-.514-28.775-9.867c9.06-.206,15.285-.022,21.715,3.329s7.06,6.538,7.06,6.538" transform="translate(1039.369 946.231)"/><path class="k" d="M203.323,234.465a75.963,75.963,0,0,1-11.774,27.815c1.058-8.448,2.043-14.284,5.592-20.606s6.182-7.209,6.182-7.209" transform="translate(1035.001 961.434)"/><path class="k" d="M219.158,278.694a75.97,75.97,0,0,1-30.01-3.407c8.4-1.382,14.277-2.09,21.345-.479s8.666,3.886,8.666,3.886" transform="translate(1035.754 949.088)"/><path class="k" d="M220.961,252.05a75.968,75.968,0,0,1-26.553,14.393c6.1-5.943,10.508-9.888,17.224-12.616s9.329-1.777,9.329-1.777" transform="translate(1034.106 955.977)"/><path class="k" d="M158.248,254.23s4.1,15.33-1.122,30.4c-2.818-8.613-4.443-14.625-3.095-21.749s4.216-8.651,4.216-8.651" transform="translate(1046.904 955.244)"/><path class="k" d="M181.98,313.378s-15.646-2.645-27.185-13.652c9,1.016,15.15,2.036,21.069,6.223s6.116,7.429,6.116,7.429" transform="translate(1046.514 940.993)"/><path class="k" d="M97.422,245.519s10.626-64.575-3.8-124.31-23.172-68.4-23.172-68.4S95.109,123.72,96.163,161.853,93.917,246,93.917,246Z" transform="translate(1072.932 1018.334)"/><path class="k" d="M116.313,49.83S97.382,68.12,91.91,94c11.372-9.833,18.823-16.99,23-28.271s1.4-15.9,1.4-15.9" transform="translate(1066.211 1019.268)"/><path class="k" d="M19.745,105.653s24.168,10.43,50.162,5.513c-13.454-6.708-22.928-10.83-34.946-10.34s-15.216,4.827-15.216,4.827" transform="translate(1088.815 1003.307)"/><path class="k" d="M108.454,25.737s-18.931,18.29-24.4,44.172c11.371-9.833,18.823-16.99,23-28.271s1.4-15.9,1.4-15.9" transform="translate(1068.673 1026.814)"/><path class="k" d="M18.5,71.956S39.618,87.674,66.045,88.88C54.5,79.252,46.231,73.058,34.422,70.765S18.5,71.956,18.5,71.956" transform="translate(1089.205 1012.955)"/><path class="k" d="M91.481,2.273S79.426,24.208,78.023,50.538C85.38,38.482,90.13,29.889,92.057,18.017s-.576-15.744-.576-15.744" transform="translate(1070.561 1034.164)"/><path class="k" d="M18.309,37.5S35.927,55.28,60.78,64.088C51.3,53.615,44.409,46.625,33.571,41.413S18.309,37.5,18.309,37.5" transform="translate(1089.266 1023.175)"/><path class="k" d="M47.734,0S52,24.663,67.326,46.116c-1.771-14.012-3.42-23.69-9.32-34.17S47.734,0,47.734,0" transform="translate(1080.048 1034.876)"/><path class="k" d="M126.227,77.831S105.072,93.5,96.274,118.445c12.556-8.267,20.876-14.391,26.487-25.031s3.465-15.583,3.465-15.583" transform="translate(1064.844 1010.497)"/><path class="k" d="M28.231,126.01s23.04,12.732,49.388,10.37c-12.736-7.986-21.764-13.01-33.774-13.693s-15.614,3.323-15.614,3.323" transform="translate(1086.157 996.472)"/><path class="k" d="M131.752,102.9s-21.891,14.617-31.894,39.107c12.944-7.645,21.552-13.358,27.675-23.711s4.22-15.4,4.22-15.4" transform="translate(1063.721 1002.646)"/><path class="k" d="M32.819,149.221s23.7,11.462,49.877,7.673c-13.151-7.283-22.438-11.809-34.468-11.839s-15.41,4.166-15.41,4.166" transform="translate(1084.72 989.44)"/><path class="k" d="M89.709,343.557c1.247,8.911,23.311,8.941,24.548-.041-1.233-8.911-23.306-8.958-24.548.041" transform="translate(1066.901 929.375)"/></g><g transform="translate(-418 347.713)"><g transform="translate(1080 1041.824)"><g class="l"><path class="m" d="M94.781,147.1c7.377,3.682,19.444,3.681,26.82,0L266.963,74.553c7.377-3.681,7.378-9.7,0-13.386L182.515,19.019c-7.375-3.68-19.444-3.68-26.82,0L10.332,91.569c-7.377,3.681-7.375,9.7,0,13.386Z" transform="translate(-1.478 -5.007)"/><path class="m" d="M94.781,154.319c7.377,3.682,19.444,3.681,26.82,0L266.963,81.769c7.377-3.682,8.5-12.925,1.119-16.608L182.515,26.236c-7.375-3.681-19.444-3.681-26.82,0L10.332,98.785c-7.377,3.681-7.375,9.7,0,13.386Z" transform="translate(-1.478 -7.229)"/><path class="m" d="M94.781,154.319c7.377,3.682,19.444,3.681,26.82,0L266.963,81.769c7.377-3.682,8.5-12.925,1.119-16.608L182.515,26.236c-7.375-3.681-19.444-3.681-26.82,0L10.332,98.785c-7.377,3.681-7.375,9.7,0,13.386Z" transform="translate(-1.478 -7.229)"/><g class="n" transform="translate(3.322 16.246)"><g class="o"><path class="m" d="M94.781,154.319c7.377,3.682,19.444,3.681,26.82,0L266.963,81.769c7.377-3.682,8.5-12.925,1.119-16.608L182.515,26.236c-7.375-3.681-19.444-3.681-26.82,0L10.332,98.785c-7.377,3.681-7.375,9.7,0,13.386Z" transform="translate(-4.801 -23.475)"/></g></g><g class="n" transform="translate(3.322 16.246)"><g class="o"><path class="m" d="M94.781,154.319c7.377,3.682,19.444,3.681,26.82,0L266.963,81.769c7.377-3.682,8.5-12.925,1.119-16.608L182.515,26.236c-7.375-3.681-19.444-3.681-26.82,0L10.332,98.785c-7.377,3.681-7.375,9.7,0,13.386Z" transform="translate(-4.801 -23.475)"/></g></g><g class="n" transform="translate(3.322 16.246)"><g class="p"><path class="b" d="M94.781,154.319c7.377,3.682,19.444,3.681,26.82,0L266.963,81.769c7.377-3.682,8.5-12.925,1.119-16.608L182.515,26.236c-7.375-3.681-19.444-3.681-26.82,0L10.332,98.785c-7.377,3.681-7.375,9.7,0,13.386Z" transform="translate(-4.801 -23.475)"/></g></g><path class="m" d="M94.781,147.1c7.377,3.682,19.444,3.681,26.82,0L266.963,74.553c7.377-3.681,7.378-9.7,0-13.386L182.515,19.019c-7.375-3.68-19.444-3.68-26.82,0L10.332,91.569c-7.377,3.681-7.375,9.7,0,13.386Z" transform="translate(-1.478 -5.007)"/><path class="q" d="M94.781,147.1c7.377,3.682,19.444,3.681,26.82,0L266.963,74.553c7.377-3.681,7.378-9.7,0-13.386L182.515,19.019c-7.375-3.68-19.444-3.68-26.82,0L10.332,91.569c-7.377,3.681-7.375,9.7,0,13.386Z" transform="translate(-1.478 -5.007)"/><path class="r" d="M166.326,101.038,279.97,136.593l46.961-33.717L213.286,67.32Z" transform="translate(-51.221 -20.732)"/><path class="s" d="M176.238,101.568l105.943,33.146L323.1,105.337,217.154,72.191Z" transform="translate(-54.273 -22.232)"/><path class="t" d="M187.41,98.8c9.069,3.5,10.01,10.758,2.028,16.871l-17.779-5.563Z" transform="translate(-52.863 -30.425)"/><path class="r" d="M302.932,152.938c9.022-5.7,23.506-7.913,33.64-5.068l-15.125,10.86Z" transform="translate(-93.289 -45.156)"/><path class="t" d="M366.318,127.922c-9.069-3.5-10.01-10.759-2.029-16.871l17.78,5.563Z" transform="translate(-110.513 -34.199)"/><path class="t" d="M246.152,75.905c-9.022,5.7-23.506,7.913-33.64,5.067l15.125-10.86Z" transform="translate(-65.444 -21.592)"/><path class="t" d="M258.709,107.283c-9.327,6.7-10.642,14.08-2.935,16.491s21.514-1.064,30.841-7.761,10.642-14.08,2.935-16.491-21.514,1.063-30.841,7.76" transform="translate(-77.221 -30.413)"/><path class="u" d="M277.465,117.057l3.759,1.176a15.811,15.811,0,0,1-6.006,2.306,15.55,15.55,0,0,1-6.23-.336l-1.928,1.384-1.573-.492,1.928-1.384a6.6,6.6,0,0,1-2.6-1.515,2.587,2.587,0,0,1-.747-1.566,2.136,2.136,0,0,1,.433-1.4,4.408,4.408,0,0,1,.966-1q.566-.406,1.386-.9a8.88,8.88,0,0,1,2.051-.854,15.1,15.1,0,0,1,2.967-.509,20.852,20.852,0,0,1,4.161.145c.309.035.6.07.865.107s.531.073.79.107l4.015-2.882a4.421,4.421,0,0,0-2.182-.028,5.9,5.9,0,0,0-2.208.9l-3.785-1.184a11.5,11.5,0,0,1,2.628-1.282,13.681,13.681,0,0,1,2.747-.626,14.768,14.768,0,0,1,2.759-.071,17.86,17.86,0,0,1,2.7.387l1.746-1.254,1.573.493-1.747,1.253a7.8,7.8,0,0,1,1.922,1.01,2.851,2.851,0,0,1,1.044,1.285,1.925,1.925,0,0,1-.113,1.5,4.452,4.452,0,0,1-1.521,1.628,8.769,8.769,0,0,1-2.347,1.218,11.479,11.479,0,0,1-2.484.533,15.448,15.448,0,0,1-2.536.048q-1.265-.081-2.479-.226-.311-.051-.6-.081c-.188-.021-.343-.033-.462-.039l-4.74,3.4a8.85,8.85,0,0,0,3.006-.042,6.654,6.654,0,0,0,2.841-1.215m5.811-7.114-3.7,2.654a9.8,9.8,0,0,0,2.5.1,3.651,3.651,0,0,0,1.716-.655,1.906,1.906,0,0,0,.628-.657.722.722,0,0,0,.044-.594,1.1,1.1,0,0,0-.421-.494,2.858,2.858,0,0,0-.767-.357m-13.231,7.878,4.355-3.127a14.554,14.554,0,0,0-3.031-.118,4.044,4.044,0,0,0-1.98.748,1.758,1.758,0,0,0-.675.759.917.917,0,0,0,.01.693,1.481,1.481,0,0,0,.514.594,4.131,4.131,0,0,0,.807.451" transform="translate(-81.321 -32.733)"/><path class="u" d="M234.2,79.688l1.534.48a6.45,6.45,0,0,1-2.451.941,6.347,6.347,0,0,1-2.543-.138l-.787.565-.642-.2.786-.565a2.686,2.686,0,0,1-1.06-.618,1.049,1.049,0,0,1-.3-.639.873.873,0,0,1,.176-.57,1.831,1.831,0,0,1,.394-.406q.23-.166.565-.367a3.679,3.679,0,0,1,.837-.348,6.2,6.2,0,0,1,1.211-.208,8.53,8.53,0,0,1,1.7.06q.189.021.353.044l.323.044,1.638-1.176a1.808,1.808,0,0,0-.89-.012,2.4,2.4,0,0,0-.9.367l-1.545-.484a4.689,4.689,0,0,1,1.073-.523,5.594,5.594,0,0,1,1.12-.255,6.012,6.012,0,0,1,1.127-.029,7.344,7.344,0,0,1,1.1.158l.713-.511.642.2-.713.511a3.177,3.177,0,0,1,.785.413,1.151,1.151,0,0,1,.426.524.785.785,0,0,1-.046.611,1.827,1.827,0,0,1-.621.664,3.582,3.582,0,0,1-.957.5,4.663,4.663,0,0,1-1.014.217,6.3,6.3,0,0,1-1.035.02q-.517-.033-1.012-.093c-.085-.014-.167-.025-.244-.033s-.14-.014-.188-.017l-1.934,1.39a3.625,3.625,0,0,0,1.226-.017,2.722,2.722,0,0,0,1.159-.5m2.372-2.9-1.509,1.083a3.984,3.984,0,0,0,1.019.042,1.485,1.485,0,0,0,.7-.267.779.779,0,0,0,.257-.268.3.3,0,0,0,.017-.243.446.446,0,0,0-.172-.2,1.193,1.193,0,0,0-.313-.145M231.175,80l1.777-1.276a5.953,5.953,0,0,0-1.237-.048,1.658,1.658,0,0,0-.808.306.709.709,0,0,0-.275.31.372.372,0,0,0,0,.282.6.6,0,0,0,.209.242,1.668,1.668,0,0,0,.33.184" transform="translate(-70.44 -23.187)"/><path class="u" d="M188.316,112.635l1.534.48a6.439,6.439,0,0,1-2.451.941,6.346,6.346,0,0,1-2.543-.137l-.787.565-.642-.2.786-.565a2.687,2.687,0,0,1-1.06-.617,1.06,1.06,0,0,1-.3-.639.872.872,0,0,1,.176-.57,1.8,1.8,0,0,1,.394-.406q.23-.166.565-.367a3.62,3.62,0,0,1,.837-.348,6.144,6.144,0,0,1,1.211-.208,8.475,8.475,0,0,1,1.7.059c.126.014.244.029.353.044l.322.044,1.638-1.176a1.8,1.8,0,0,0-.89-.011,2.392,2.392,0,0,0-.9.367l-1.545-.484a4.746,4.746,0,0,1,1.073-.523,5.543,5.543,0,0,1,1.12-.255,6.011,6.011,0,0,1,1.127-.03,7.342,7.342,0,0,1,1.1.158l.713-.511.642.2-.713.511a3.2,3.2,0,0,1,.785.413,1.156,1.156,0,0,1,.426.525.783.783,0,0,1-.046.61,1.826,1.826,0,0,1-.621.664,3.585,3.585,0,0,1-.957.5,4.7,4.7,0,0,1-1.014.217,6.3,6.3,0,0,1-1.035.019q-.517-.033-1.012-.092c-.085-.014-.167-.026-.244-.033s-.14-.014-.188-.017l-1.934,1.39a3.624,3.624,0,0,0,1.226-.017,2.731,2.731,0,0,0,1.159-.5m2.372-2.9-1.509,1.083a3.98,3.98,0,0,0,1.019.042,1.477,1.477,0,0,0,.7-.266.78.78,0,0,0,.257-.269.3.3,0,0,0,.017-.243.446.446,0,0,0-.172-.2,1.16,1.16,0,0,0-.313-.145m-5.4,3.215,1.777-1.277a5.9,5.9,0,0,0-1.237-.048,1.658,1.658,0,0,0-.808.305.713.713,0,0,0-.275.31.373.373,0,0,0,0,.283.6.6,0,0,0,.209.242,1.671,1.671,0,0,0,.33.185" transform="translate(-56.309 -33.333)"/><path class="u" d="M371.683,122.7l1.534.48a6.438,6.438,0,0,1-2.451.942,6.362,6.362,0,0,1-2.543-.138l-.787.565-.641-.2.787-.565a2.7,2.7,0,0,1-1.061-.618,1.058,1.058,0,0,1-.3-.639.881.881,0,0,1,.176-.57,1.832,1.832,0,0,1,.4-.406q.23-.166.565-.367a3.605,3.605,0,0,1,.837-.348,6.143,6.143,0,0,1,1.211-.208,8.415,8.415,0,0,1,1.7.059c.127.014.244.028.354.043l.322.044,1.639-1.177a1.809,1.809,0,0,0-.89-.011,2.412,2.412,0,0,0-.9.367l-1.545-.483a4.686,4.686,0,0,1,1.073-.523,5.553,5.553,0,0,1,1.121-.255,6.012,6.012,0,0,1,1.127-.029,7.324,7.324,0,0,1,1.1.158l.713-.512.642.2-.713.511a3.2,3.2,0,0,1,.785.412,1.165,1.165,0,0,1,.426.525.788.788,0,0,1-.046.611,1.827,1.827,0,0,1-.621.664,3.592,3.592,0,0,1-.957.5,4.714,4.714,0,0,1-1.014.217,6.155,6.155,0,0,1-1.035.019q-.517-.032-1.012-.092c-.084-.014-.166-.025-.243-.033s-.14-.014-.188-.017l-1.935,1.389a3.606,3.606,0,0,0,1.226-.017,2.725,2.725,0,0,0,1.16-.5m2.372-2.9-1.509,1.083a3.982,3.982,0,0,0,1.019.042,1.487,1.487,0,0,0,.7-.267.787.787,0,0,0,.257-.269.3.3,0,0,0,.017-.243.445.445,0,0,0-.172-.2,1.17,1.17,0,0,0-.313-.145m-5.4,3.215,1.777-1.276a5.943,5.943,0,0,0-1.237-.048,1.664,1.664,0,0,0-.808.305.718.718,0,0,0-.275.311.368.368,0,0,0,0,.282.6.6,0,0,0,.209.242,1.636,1.636,0,0,0,.33.184" transform="translate(-112.777 -36.433)"/><g class="n" transform="translate(162.284 39.947)"><g class="v"><path class="u" d="M234.5,93.765,310.3,127l14.94-13.145L243.615,57.723Z" transform="translate(-234.499 -57.723)"/></g></g><path class="r" d="M199.352,91.425,313,126.981l46.96-33.718L246.312,57.708Z" transform="translate(-61.391 -17.771)"/><path class="s" d="M209.265,91.955,315.208,125.1l40.916-29.377L250.18,62.579Z" transform="translate(-64.444 -19.271)"/><path class="t" d="M220.435,89.185c9.069,3.5,10.01,10.758,2.029,16.871l-17.78-5.563Z" transform="translate(-63.033 -27.465)"/><path class="r" d="M335.959,143.326c9.022-5.7,23.506-7.913,33.64-5.067l-15.125,10.86Z" transform="translate(-103.46 -42.196)"/><path class="r" d="M399.343,118.31c-9.069-3.5-10.01-10.759-2.028-16.871L415.094,107Z" transform="translate(-120.683 -31.239)"/><g class="n" transform="translate(188.645 13.053)"><g class="w"><path class="x" d="M272.591,54.9l75.8,33.231,14.94-13.145L281.707,18.861Z" transform="translate(-272.591 -18.861)"/></g></g><path class="t" d="M279.178,66.293c-9.022,5.7-23.506,7.913-33.64,5.068L260.663,60.5Z" transform="translate(-75.614 -18.632)"/><path class="t" d="M291.735,97.67c-9.328,6.7-10.642,14.08-2.936,16.491s21.514-1.064,30.842-7.761,10.641-14.08,2.935-16.491-21.514,1.063-30.841,7.76" transform="translate(-87.391 -27.453)"/><path class="u" d="M310.491,107.444l3.758,1.176a15.815,15.815,0,0,1-6.006,2.306,15.553,15.553,0,0,1-6.23-.336l-1.927,1.384-1.573-.492,1.927-1.384a6.607,6.607,0,0,1-2.6-1.514,2.6,2.6,0,0,1-.747-1.567,2.144,2.144,0,0,1,.432-1.4,4.438,4.438,0,0,1,.966-1q.567-.406,1.386-.9a8.894,8.894,0,0,1,2.051-.854,15.118,15.118,0,0,1,2.967-.509,20.9,20.9,0,0,1,4.161.145c.31.035.6.07.865.107s.531.073.79.107l4.015-2.882a4.418,4.418,0,0,0-2.181-.028,5.882,5.882,0,0,0-2.209.9l-3.785-1.185a11.534,11.534,0,0,1,2.628-1.282,13.74,13.74,0,0,1,2.747-.626,14.775,14.775,0,0,1,2.76-.071,17.857,17.857,0,0,1,2.7.387l1.745-1.254,1.574.492-1.747,1.254a7.816,7.816,0,0,1,1.922,1.011,2.845,2.845,0,0,1,1.043,1.284,1.925,1.925,0,0,1-.112,1.5,4.458,4.458,0,0,1-1.521,1.628,8.761,8.761,0,0,1-2.347,1.218,11.473,11.473,0,0,1-2.483.533,15.449,15.449,0,0,1-2.536.048q-1.265-.081-2.48-.226c-.207-.034-.406-.061-.594-.081s-.343-.033-.462-.039l-4.741,3.4a8.85,8.85,0,0,0,3.006-.042,6.661,6.661,0,0,0,2.842-1.215m5.81-7.114-3.7,2.654a9.772,9.772,0,0,0,2.5.1,3.653,3.653,0,0,0,1.716-.655,1.908,1.908,0,0,0,.628-.657.724.724,0,0,0,.044-.594,1.1,1.1,0,0,0-.421-.495,2.884,2.884,0,0,0-.767-.356m-13.23,7.878,4.354-3.127a14.553,14.553,0,0,0-3.031-.118,4.049,4.049,0,0,0-1.98.748,1.758,1.758,0,0,0-.675.759.917.917,0,0,0,.011.693,1.475,1.475,0,0,0,.513.594,4.075,4.075,0,0,0,.807.451" transform="translate(-91.491 -29.773)"/><path class="u" d="M267.229,70.076l1.534.48a6.448,6.448,0,0,1-2.451.941,6.35,6.35,0,0,1-2.543-.137l-.787.565-.642-.2.787-.565a2.694,2.694,0,0,1-1.061-.618,1.059,1.059,0,0,1-.3-.639.88.88,0,0,1,.176-.57,1.789,1.789,0,0,1,.4-.406q.23-.166.565-.367a3.6,3.6,0,0,1,.837-.348A6.189,6.189,0,0,1,264.946,68a8.571,8.571,0,0,1,1.7.059c.127.015.244.029.354.044l.322.044,1.639-1.177a1.812,1.812,0,0,0-.891-.011,2.408,2.408,0,0,0-.9.367l-1.545-.483a4.689,4.689,0,0,1,1.073-.523,5.6,5.6,0,0,1,1.121-.255,6.068,6.068,0,0,1,1.127-.03,7.337,7.337,0,0,1,1.1.158l.714-.511.641.2-.713.511a3.222,3.222,0,0,1,.785.412,1.164,1.164,0,0,1,.426.525.79.79,0,0,1-.046.61,1.821,1.821,0,0,1-.621.664,3.576,3.576,0,0,1-.957.5,4.721,4.721,0,0,1-1.014.217,6.305,6.305,0,0,1-1.035.019q-.517-.032-1.012-.092c-.084-.014-.166-.025-.243-.033s-.14-.013-.188-.016l-1.935,1.389a3.624,3.624,0,0,0,1.226-.017,2.728,2.728,0,0,0,1.16-.5m2.372-2.9-1.509,1.083a4.013,4.013,0,0,0,1.019.042,1.482,1.482,0,0,0,.7-.267.783.783,0,0,0,.257-.269.3.3,0,0,0,.017-.243.451.451,0,0,0-.172-.2,1.181,1.181,0,0,0-.313-.145m-5.4,3.215,1.777-1.276a5.945,5.945,0,0,0-1.237-.048,1.664,1.664,0,0,0-.808.305.724.724,0,0,0-.275.31.373.373,0,0,0,0,.283.6.6,0,0,0,.209.242,1.7,1.7,0,0,0,.329.184" transform="translate(-80.61 -20.227)"/><path class="u" d="M221.342,103.022l1.534.48a6.461,6.461,0,0,1-2.451.942,6.363,6.363,0,0,1-2.543-.138l-.787.565-.642-.2.787-.565a2.693,2.693,0,0,1-1.061-.618,1.058,1.058,0,0,1-.3-.639.879.879,0,0,1,.176-.57,1.807,1.807,0,0,1,.4-.407q.23-.165.565-.367a3.623,3.623,0,0,1,.837-.349,6.192,6.192,0,0,1,1.211-.208,8.518,8.518,0,0,1,1.7.059c.127.015.244.029.354.044l.322.043,1.639-1.176a1.812,1.812,0,0,0-.891-.011,2.4,2.4,0,0,0-.9.367l-1.545-.484a4.714,4.714,0,0,1,1.073-.522,5.552,5.552,0,0,1,1.121-.255,6.069,6.069,0,0,1,1.127-.03,7.337,7.337,0,0,1,1.1.158l.714-.511.642.2-.713.512a3.224,3.224,0,0,1,.785.412,1.161,1.161,0,0,1,.426.525.786.786,0,0,1-.046.61,1.821,1.821,0,0,1-.621.664,3.575,3.575,0,0,1-.957.5,4.679,4.679,0,0,1-1.014.217,6.229,6.229,0,0,1-1.035.02q-.517-.032-1.012-.092c-.084-.014-.166-.025-.243-.033s-.14-.013-.188-.016l-1.935,1.389a3.625,3.625,0,0,0,1.226-.017,2.737,2.737,0,0,0,1.16-.5m2.372-2.9L222.2,101.2a4.014,4.014,0,0,0,1.019.042,1.476,1.476,0,0,0,.7-.268.776.776,0,0,0,.257-.268.3.3,0,0,0,.017-.243.448.448,0,0,0-.172-.2,1.161,1.161,0,0,0-.313-.145m-5.4,3.215,1.777-1.276a5.943,5.943,0,0,0-1.237-.048,1.651,1.651,0,0,0-.808.305.72.72,0,0,0-.275.31.374.374,0,0,0,0,.283.594.594,0,0,0,.209.242,1.665,1.665,0,0,0,.329.185" transform="translate(-66.479 -30.373)"/><path class="r" d="M217.905,49.084,331.549,84.639,378.51,50.922,264.866,15.367Z" transform="translate(-67.105 -4.732)"/><path class="s" d="M227.817,49.614,333.761,82.76l40.916-29.377L268.733,20.237Z" transform="translate(-70.157 -6.232)"/><path class="t" d="M238.989,46.843c9.069,3.5,10.01,10.759,2.028,16.871l-17.779-5.563Z" transform="translate(-68.747 -14.425)"/><path class="r" d="M354.512,100.984c9.022-5.7,23.507-7.913,33.64-5.068l-15.125,10.86Z" transform="translate(-109.173 -29.157)"/><path class="r" d="M417.9,75.969c-9.069-3.5-10.01-10.759-2.029-16.871l17.78,5.563Z" transform="translate(-126.397 -18.199)"/><path class="r" d="M310.288,55.329c-9.327,6.7-10.642,14.08-2.935,16.491s21.514-1.064,30.841-7.761,10.642-14.08,2.936-16.491-21.514,1.063-30.842,7.76" transform="translate(-93.105 -14.413)"/><path class="u" d="M329.044,65.1l3.758,1.176a15.785,15.785,0,0,1-6,2.306,15.54,15.54,0,0,1-6.23-.336l-1.927,1.384-1.574-.492,1.928-1.384a6.6,6.6,0,0,1-2.6-1.514,2.591,2.591,0,0,1-.747-1.566,2.142,2.142,0,0,1,.433-1.4,4.39,4.39,0,0,1,.966-1q.567-.407,1.386-.9a8.821,8.821,0,0,1,2.051-.854,15.1,15.1,0,0,1,2.968-.509,20.846,20.846,0,0,1,4.161.144c.31.035.6.071.865.108l.79.106,4.015-2.882a4.42,4.42,0,0,0-2.182-.028,5.9,5.9,0,0,0-2.208.9l-3.786-1.184a11.522,11.522,0,0,1,2.628-1.282,13.728,13.728,0,0,1,2.747-.626,14.832,14.832,0,0,1,2.76-.071,17.925,17.925,0,0,1,2.695.387l1.746-1.253,1.573.492-1.746,1.253a7.829,7.829,0,0,1,1.922,1.011,2.846,2.846,0,0,1,1.043,1.285,1.92,1.92,0,0,1-.113,1.5A4.454,4.454,0,0,1,338.84,61.5a8.788,8.788,0,0,1-2.347,1.218,11.512,11.512,0,0,1-2.483.532,15.379,15.379,0,0,1-2.536.048q-1.265-.081-2.479-.226c-.208-.034-.406-.061-.6-.081s-.343-.033-.462-.039l-4.74,3.4a8.867,8.867,0,0,0,3.006-.042,6.664,6.664,0,0,0,2.841-1.215m5.811-7.114-3.7,2.655a9.8,9.8,0,0,0,2.5.1,3.644,3.644,0,0,0,1.716-.655,1.905,1.905,0,0,0,.628-.657.724.724,0,0,0,.044-.594,1.093,1.093,0,0,0-.421-.494,2.858,2.858,0,0,0-.767-.357m-13.23,7.878,4.354-3.127a14.515,14.515,0,0,0-3.031-.118,4.053,4.053,0,0,0-1.98.748,1.758,1.758,0,0,0-.675.759.915.915,0,0,0,.011.693,1.473,1.473,0,0,0,.514.593,4.04,4.04,0,0,0,.807.451" transform="translate(-97.205 -16.734)"/><path class="u" d="M285.783,27.734l1.534.48a6.47,6.47,0,0,1-2.452.941,6.346,6.346,0,0,1-2.543-.138l-.787.565-.642-.2.786-.565a2.686,2.686,0,0,1-1.06-.618,1.057,1.057,0,0,1-.3-.639.872.872,0,0,1,.176-.57,1.815,1.815,0,0,1,.394-.406q.23-.166.565-.367a3.681,3.681,0,0,1,.837-.348,6.2,6.2,0,0,1,1.211-.208,8.531,8.531,0,0,1,1.7.06c.126.014.244.028.353.044l.323.044,1.638-1.176a1.8,1.8,0,0,0-.89-.012,2.409,2.409,0,0,0-.9.367l-1.545-.484a4.688,4.688,0,0,1,1.073-.523,5.606,5.606,0,0,1,1.12-.255,6.012,6.012,0,0,1,1.127-.029,7.344,7.344,0,0,1,1.1.158l.713-.511.641.2-.712.511a3.185,3.185,0,0,1,.784.413,1.151,1.151,0,0,1,.426.524.785.785,0,0,1-.046.611,1.824,1.824,0,0,1-.621.664,3.587,3.587,0,0,1-.958.5,4.666,4.666,0,0,1-1.013.217,6.313,6.313,0,0,1-1.035.02q-.517-.033-1.012-.093-.128-.021-.243-.033c-.078-.008-.141-.013-.189-.016l-1.934,1.39a3.625,3.625,0,0,0,1.226-.017,2.728,2.728,0,0,0,1.16-.5m2.372-2.9-1.509,1.083a3.988,3.988,0,0,0,1.02.042,1.485,1.485,0,0,0,.7-.267.779.779,0,0,0,.257-.268.3.3,0,0,0,.017-.243.443.443,0,0,0-.172-.2,1.182,1.182,0,0,0-.313-.145m-5.4,3.215,1.777-1.276a5.952,5.952,0,0,0-1.237-.048,1.658,1.658,0,0,0-.808.306.714.714,0,0,0-.275.31.375.375,0,0,0,0,.282.6.6,0,0,0,.21.242,1.644,1.644,0,0,0,.329.184" transform="translate(-86.324 -7.188)"/><path class="u" d="M239.9,60.68l1.535.48a6.469,6.469,0,0,1-2.452.941,6.346,6.346,0,0,1-2.543-.138l-.787.565-.642-.2.786-.565a2.7,2.7,0,0,1-1.06-.618,1.059,1.059,0,0,1-.3-.639.873.873,0,0,1,.176-.57A1.8,1.8,0,0,1,235,59.53q.23-.166.565-.367a3.649,3.649,0,0,1,.837-.348,6.2,6.2,0,0,1,1.211-.208,8.531,8.531,0,0,1,1.7.06q.19.021.353.044l.323.044,1.638-1.176a1.8,1.8,0,0,0-.89-.012,2.419,2.419,0,0,0-.9.367l-1.545-.483a4.688,4.688,0,0,1,1.073-.523,5.605,5.605,0,0,1,1.12-.255,6.071,6.071,0,0,1,1.127-.03,7.422,7.422,0,0,1,1.1.158l.713-.511.642.2L243.35,57a3.207,3.207,0,0,1,.784.412,1.156,1.156,0,0,1,.426.525.783.783,0,0,1-.046.61,1.825,1.825,0,0,1-.621.665,3.587,3.587,0,0,1-.958.5,4.708,4.708,0,0,1-1.013.217,6.237,6.237,0,0,1-1.035.019q-.517-.032-1.012-.092-.128-.021-.243-.033c-.077-.008-.14-.013-.189-.016l-1.934,1.389a3.624,3.624,0,0,0,1.226-.017,2.722,2.722,0,0,0,1.159-.5m2.372-2.9-1.509,1.083a4.02,4.02,0,0,0,1.02.042,1.485,1.485,0,0,0,.7-.267.78.78,0,0,0,.257-.269.3.3,0,0,0,.017-.243.445.445,0,0,0-.172-.2,1.182,1.182,0,0,0-.313-.145m-5.4,3.215,1.777-1.276a5.952,5.952,0,0,0-1.237-.048,1.667,1.667,0,0,0-.808.305.719.719,0,0,0-.275.311.375.375,0,0,0,0,.282.608.608,0,0,0,.21.242,1.7,1.7,0,0,0,.329.184" transform="translate(-72.193 -17.334)"/><g class="y" transform="translate(75.702 5.828)"><g class="z"><path class="b" d="M301.674,53.329,217.226,11.182c-7.376-3.681-19.444-3.681-26.821,0L109.389,51.616h82.942l-49.323,94.221,103.336-46.1-2.109-1.357,41.271-19.988-2.371-.571,18.538-11.1c7.377-3.682,7.378-9.7,0-13.386" transform="translate(-109.389 -8.421)"/></g></g><path class="m" d="M291.01,47.846,206.68,7.573c-7.376-3.681-19.444-3.682-26.821,0L83.267,55.781h24.08V104.9h18.625l1.808,43.982,14.069-3.538c-5.521.208-5.747-4.571-4.062-5.411L291.127,63.107c7.377-3.682,7.26-11.579-.117-15.262" transform="translate(-25.642 -1.482)"/><g class="n" transform="translate(57.625 3.33)"><g class="aa"><path class="m" d="M291.01,47.846,206.68,7.573c-7.376-3.681-19.444-3.682-26.821,0L83.267,55.781h24.08V104.9h18.625l1.808,43.982,14.069-3.538c-5.521.208-5.747-4.571-4.062-5.411L291.127,63.107c7.377-3.682,7.26-11.579-.117-15.262" transform="translate(-83.267 -4.812)"/></g></g><g class="n" transform="translate(57.625 3.33)"><g class="aa"><path class="m" d="M291.01,47.846,206.68,7.573c-7.376-3.681-19.444-3.682-26.821,0L83.267,55.781h24.08V104.9h18.625l1.808,43.982,14.069-3.538c-5.521.208-5.747-4.571-4.062-5.411L291.127,63.107c7.377-3.682,7.26-11.579-.117-15.262" transform="translate(-83.267 -4.812)"/></g></g><g class="n" transform="translate(57.625 3.33)"><g class="ab"><path class="ac" d="M291.01,47.846,206.68,7.573c-7.376-3.681-19.444-3.682-26.821,0L83.267,55.781h24.08V104.9h18.625l1.808,43.982,14.069-3.538c-5.521.208-5.747-4.571-4.062-5.411L291.127,63.107c7.377-3.682,7.26-11.579-.117-15.262" transform="translate(-83.267 -4.812)"/></g></g><path class="b" d="M95.063,147.863c3.689,1.841,17.291,5.258,32.4-4.435,0,0-18.861,10.838-22.613-.4-1.741-5.213,13.586-11.341,15.274-12.183L265.485,58.3c7.377-3.682,7.378-9.7,0-13.386L181.036,2.762c-7.375-3.681-19.444-3.681-26.82,0L8.854,75.311c-9.949,4.032-13.527,23.274,0,29.631Z" transform="translate(0 0)"/><g class="ad" transform="translate(0.002 35.191)"><g class="ae"><path class="m" d="M265.486,60.569l-19.471-9.718c9.446,4.714,22.922,12.914,13.954,20.218-5.258,4.283-140.669,72.63-152.482,79.2-11.4,6.337-11.4,6.337-65.6-17.634C2.593,115.26,1.435,109.571,1.682,98.442c-3.33,7.416-2.089,17.807,7.172,22.16l86.209,42.92c3.689,1.841,17.291,5.258,32.4-4.435,0,0-18.861,10.837-22.614-.4-1.741-5.212,13.587-11.341,15.274-12.183L265.485,73.955c7.377-3.682,7.378-9.7,0-13.386" transform="translate(-0.003 -50.85)"/></g></g></g></g><rect class="a" width="311.405" height="186.614" transform="translate(1080 1041.824)"/><rect class="a" width="311.405" height="186.614" transform="translate(1080 1041.824)"/><rect class="a" width="311.405" height="186.614" transform="translate(1080 1041.824)"/><rect class="a" width="311.405" height="186.614" transform="translate(1080 1041.824)"/><rect class="a" width="311.405" height="186.614" transform="translate(1080 1041.824)"/><g transform="translate(1103.64 1046.564)"><g transform="translate(0 0)"><path class="af" d="M151.162,15c5.615.624,9.219,3.354,8.008,6.069L128.731,89.247c-1.21,2.714-6.8,4.424-12.416,3.8l-72.16-8.019c-5.615-.624-9.222-3.355-8.01-6.069L66.584,10.776c1.21-2.716,6.8-4.424,12.413-3.8Z" transform="translate(-34.699 -6.848)"/><path class="ag" d="M151.04,18.455c5.608.623,9.21,3.354,8,6.068L128.6,92.7c-1.212,2.714-6.792,4.424-12.4,3.8l-72.97-8.123c-5.61-.622-10.278-2.59-8.783-7.986L66.548,14.245c1.21-2.716,6.794-4.426,12.4-3.8Z" transform="translate(-34.159 -7.916)"/><path class="ag" d="M216.517,56.072c5.006,1.215,7.118,4.257,4.682,6.757L160.611,125.8c-2.438,2.5-5.765,5.161-16.806,2.475l-68.9-16.323a4.809,4.809,0,0,1-2.3-8.1l63.28-61.316c4.747-4.871,11.233-3.3,16.243-2.082Z" transform="translate(-45.571 -16.814)"/><path class="ah" d="M149.393,15.523c5.608.623,9.21,3.354,8,6.068L126.951,89.773c-1.211,2.714-6.792,4.424-12.4,3.8L42.46,85.562c-5.609-.622-9.211-3.354-8-6.068L64.9,11.313c1.21-2.716,6.794-4.426,12.4-3.8Z" transform="translate(-34.18 -7.013)"/><path class="ai" d="M67.132,88,101.626,9.824,81.245,7.584,46.75,85.76Z" transform="translate(-38.037 -7.075)"/><g class="aj" transform="translate(5.576 29.516)"><g class="ak"><path class="al" d="M49.247,65.339l-7.03,15.934L145.337,67.3,153.1,49.5Z" transform="translate(-42.217 -49.499)"/></g></g><g class="aj" transform="translate(15.7 17.738)"><g class="am"><path class="al" d="M59.254,47.63l-2.408,5.457L160.752,37.095l1.994-4.615Z" transform="translate(-56.846 -32.479)"/></g></g><path class="al" d="M120.014,48.959c2.739.3,4.471,1.653,3.868,3.02L104.994,94.785c-.6,1.367-3.313,2.23-6.051,1.93L91.564,95.9c-2.74-.3-4.471-1.653-3.868-3.02l18.887-42.805c.6-1.367,3.312-2.231,6.051-1.93Z" transform="translate(-50.609 -19.548)"/><g class="an" transform="translate(36.983 73.242)"><g class="ao"><path class="ap" d="M87.6,113.283l3.491,1.169.265-.6-3.492-1.168Z" transform="translate(-87.599 -112.683)"/></g></g><g class="an" transform="translate(42.904 75.224)"><g class="aq"><path class="ar" d="M102.7,117.65l-6.284-2.1-.265.6,3.485,1.167Z" transform="translate(-96.155 -115.546)"/></g></g><g class="an" transform="translate(37.999 70.941)"><g class="as"><path class="ar" d="M89.067,109.956l5.665,1.9.264-.6-5.665-1.9Z" transform="translate(-89.067 -109.357)"/></g></g><g class="an" transform="translate(46.157 73.671)"><g class="at"><path class="ap" d="M108.668,115.828l-7.546-2.525-.265.6,7.546,2.526Z" transform="translate(-100.856 -113.303)"/></g></g><g class="an" transform="translate(51.808 72.642)"><g class="au"><path class="ar" d="M112.352,112.717l-2.694-.9-.637.475,3.066,1.026Z" transform="translate(-109.021 -111.816)"/></g></g><g class="an" transform="translate(39.157 68.315)"><g class="av"><path class="ap" d="M90.741,106.163l10.455,3.5.637-.475-10.828-3.624Z" transform="translate(-90.741 -105.563)"/></g></g><g class="an" transform="translate(40.249 65.84)"><g class="as"><path class="ar" d="M92.318,102.587l5.666,1.9.264-.6-5.664-1.9Z" transform="translate(-92.319 -101.987)"/></g></g><g class="an" transform="translate(48.408 68.571)"><g class="at"><path class="ap" d="M111.919,108.459l-7.545-2.526-.265.6,7.547,2.525Z" transform="translate(-104.108 -105.933)"/></g></g><g class="an" transform="translate(41.392 63.25)"><g class="aw"><path class="ap" d="M93.971,98.844l3.491,1.169.264-.6-3.491-1.168Z" transform="translate(-93.97 -98.244)"/></g></g><g class="an" transform="translate(47.312 65.232)"><g class="ax"><path class="ar" d="M112.575,104.383l-9.785-3.275-.264.6,9.784,3.275Z" transform="translate(-102.525 -101.108)"/></g></g><g class="an" transform="translate(42.407 60.948)"><g class="as"><path class="ar" d="M95.437,95.518l5.666,1.9.264-.6-5.664-1.9Z" transform="translate(-95.437 -94.918)"/></g></g><g class="an" transform="translate(50.566 63.679)"><g class="at"><path class="ap" d="M115.038,101.39l-7.546-2.526-.264.6,7.546,2.526Z" transform="translate(-107.227 -98.864)"/></g></g><g class="an" transform="translate(56.216 62.651)"><g class="ay"><path class="ar" d="M118.723,98.279l-2.694-.9-.637.475,3.066,1.027Z" transform="translate(-115.391 -97.378)"/></g></g><g class="an" transform="translate(43.566 58.323)"><g class="az"><path class="ap" d="M97.112,91.724l10.454,3.5.637-.475L97.377,91.124Z" transform="translate(-97.112 -91.124)"/></g></g><g class="an" transform="translate(44.658 55.849)"><g class="as"><path class="ar" d="M98.689,88.149l5.666,1.9.264-.6-5.665-1.9Z" transform="translate(-98.689 -87.549)"/></g></g><g class="an" transform="translate(52.817 58.579)"><g class="ba"><path class="ap" d="M118.29,94.021,110.744,91.5l-.265.6,7.547,2.526Z" transform="translate(-110.479 -91.495)"/></g></g><g class="an" transform="translate(45.934 52.955)"><g class="aw"><path class="ap" d="M100.534,83.968l3.491,1.168.264-.6L100.8,83.368Z" transform="translate(-100.534 -83.368)"/></g></g><g class="an" transform="translate(51.855 54.937)"><g class="ax"><path class="ar" d="M119.138,89.507l-9.784-3.275-.265.6,9.784,3.275Z" transform="translate(-109.089 -86.232)"/></g></g><g class="an" transform="translate(46.95 50.653)"><g class="bb"><path class="ar" d="M102,80.642l5.665,1.9.264-.6-5.664-1.9Z" transform="translate(-102.002 -80.042)"/></g></g><g class="an" transform="translate(55.109 53.385)"><g class="bc"><path class="ap" d="M121.6,86.514l-7.546-2.525-.265.6,7.546,2.526Z" transform="translate(-113.791 -83.989)"/></g></g><g class="an" transform="translate(60.759 52.356)"><g class="au"><path class="ar" d="M125.287,83.4l-2.694-.9-.637.475L125.022,84Z" transform="translate(-121.955 -82.502)"/></g></g><g class="an" transform="translate(48.109 48.028)"><g class="bd"><path class="ap" d="M103.676,76.848l10.455,3.5.637-.475-10.826-3.625Z" transform="translate(-103.676 -76.248)"/></g></g><g class="an" transform="translate(49.2 45.553)"><g class="be"><path class="ar" d="M105.253,73.273l5.666,1.9.264-.6-5.664-1.9Z" transform="translate(-105.253 -72.672)"/></g></g><g class="an" transform="translate(57.359 48.284)"><g class="at"><path class="ap" d="M124.854,79.145l-7.546-2.525-.265.6,7.546,2.527Z" transform="translate(-117.043 -76.619)"/></g></g><g class="an" transform="translate(50.343 42.963)"><g class="ao"><path class="ap" d="M106.905,69.53,110.4,70.7l.266-.6L107.17,68.93Z" transform="translate(-106.905 -68.93)"/></g></g><g class="an" transform="translate(56.264 44.945)"><g class="ax"><path class="ar" d="M125.509,75.069l-9.784-3.275-.265.6,9.785,3.275Z" transform="translate(-115.46 -71.794)"/></g></g><g class="an" transform="translate(51.359 40.661)"><g class="be"><path class="ar" d="M108.372,66.2l5.666,1.9.264-.6-5.664-1.9Z" transform="translate(-108.372 -65.603)"/></g></g><g class="an" transform="translate(59.518 43.392)"><g class="ba"><path class="ap" d="M127.973,72.076l-7.545-2.526-.265.6,7.546,2.526Z" transform="translate(-120.162 -69.55)"/></g></g><g class="an" transform="translate(65.168 42.363)"><g class="au"><path class="ar" d="M131.658,68.965l-2.695-.9-.637.475,3.066,1.027Z" transform="translate(-128.326 -68.063)"/></g></g><g class="an" transform="translate(52.517 38.036)"><g class="av"><path class="ap" d="M110.047,62.41l10.454,3.5.637-.475L110.311,61.81Z" transform="translate(-110.046 -61.81)"/></g></g><g class="an" transform="translate(53.609 35.561)"><g class="bf"><path class="ar" d="M111.624,58.834l5.666,1.9.264-.6-5.664-1.9Z" transform="translate(-111.624 -58.234)"/></g></g><g class="an" transform="translate(61.768 38.292)"><g class="at"><path class="ap" d="M131.225,64.706l-7.545-2.526-.265.6,7.545,2.526Z" transform="translate(-123.413 -62.18)"/></g></g><g class="an" transform="translate(54.662 33.174)"><g class="ao"><path class="ap" d="M113.146,55.384l3.491,1.169.265-.6-3.492-1.169Z" transform="translate(-113.146 -54.785)"/></g></g><g class="an" transform="translate(60.583 35.156)"><g class="ax"><path class="ar" d="M131.751,60.923l-9.785-3.275-.264.6,9.784,3.275Z" transform="translate(-121.702 -57.648)"/></g></g><g class="an" transform="translate(55.678 30.872)"><g class="bg"><path class="ar" d="M114.613,52.059l5.666,1.9.264-.6-5.664-1.9Z" transform="translate(-114.613 -51.458)"/></g></g><g class="an" transform="translate(63.837 33.603)"><g class="at"><path class="ap" d="M134.214,57.93l-7.546-2.525-.265.6,7.546,2.526Z" transform="translate(-126.403 -55.405)"/></g></g><g class="an" transform="translate(69.487 32.574)"><g class="au"><path class="ar" d="M137.9,54.82l-2.694-.9-.637.475,3.066,1.027Z" transform="translate(-134.567 -53.918)"/></g></g><g class="an" transform="translate(56.837 28.247)"><g class="bh"><path class="ap" d="M116.288,48.265l10.454,3.5.638-.475-10.828-3.624Z" transform="translate(-116.288 -47.665)"/></g></g><g class="an" transform="translate(66.087 29.015)"><g class="bi"><path class="ap" d="M137.466,50.789l-5.16-1.727-2.612-.287-.039.089,7.546,2.525Z" transform="translate(-129.655 -48.775)"/></g></g><path class="bj" d="M111.534,72.18c.076-.172.317-.307.721-.409a4.02,4.02,0,0,1,1.2-.037,2.848,2.848,0,0,1,1.055.285c.283.176.385.351.31.522s-.32.319-.72.409a3.773,3.773,0,0,1-1.2.038,3.007,3.007,0,0,1-1.055-.285c-.286-.166-.39-.34-.31-.523m.969-.129c-.232.064-.361.129-.389.193q-.064.144.19.257a1.98,1.98,0,0,0,.724.2,2.456,2.456,0,0,0,.821-.027q.326-.049.389-.193.043-.1-.19-.257a1.842,1.842,0,0,0-.723-.2,2.645,2.645,0,0,0-.821.028" transform="translate(-57.979 -26.822)"/><path class="bj" d="M112.969,69.856l-.091-.482,3.282.361-.127.289-2.478-.272.026.171Z" transform="translate(-58.401 -26.103)"/><path class="bj" d="M117.173,67.2l-.5,1.14a1.432,1.432,0,0,1-.819-.586,1.2,1.2,0,0,0-.928-.5,1.014,1.014,0,0,0-.422.037c-.152.04-.244.1-.278.172s0,.157.108.214a.609.609,0,0,0,.319.119l-.135.305a1.241,1.241,0,0,1-.695-.262c-.192-.122-.252-.269-.176-.44a.81.81,0,0,1,.532-.363,1.966,1.966,0,0,1,.882-.088,1.591,1.591,0,0,1,.57.163,2.617,2.617,0,0,1,.4.246.9.9,0,0,1,.276.216l.076.059.163-.37Z" transform="translate(-58.627 -25.353)"/><path class="bj" d="M116.482,65.234l-.63.048.093-.208a.042.042,0,0,0,0-.034.037.037,0,0,1,0-.034l-.051-.039a.389.389,0,0,0-.2-.073.529.529,0,0,0-.215.026.177.177,0,0,0-.138.086c-.014.033,0,.069.053.107l-.51.163c-.129-.116-.17-.227-.123-.334a.7.7,0,0,1,.4-.293,2.008,2.008,0,0,1,.7-.057,1.336,1.336,0,0,1,.447.134l-.006.016.03,0,.026.02.007-.016a2.169,2.169,0,0,1,.818-.095l.033,0,.033,0,.033,0,.031,0,.032,0,.026.019.033,0,.032,0,.033,0a.919.919,0,0,1,.419.2q.25.2.165.388l-.007.017-.008.017a.729.729,0,0,1-.477.318l-.326-.255c.132-.042.208-.089.232-.143s-.006-.113-.091-.179a.388.388,0,0,0-.287-.116.315.315,0,0,0-.067,0,.466.466,0,0,1-.1,0l-.008.016a.477.477,0,0,0-.181.03.254.254,0,0,0-.192.13l-.007.016Z" transform="translate(-58.973 -24.628)"/><path class="bj" d="M116.851,60.173l.142-.322,1.808.57.305-.691,1.319.145-.128.29-.708-.078-.376.851Z" transform="translate(-59.624 -23.134)"/><path class="bj" d="M119.591,57.636l-.015.033-.007.016-.206.466-1.581-.241.318-.723.668-.061-.269.61.475.069-.018-.035A.374.374,0,0,1,119,57.6a.8.8,0,0,1,.516-.365,1.991,1.991,0,0,1,.866-.09,1.152,1.152,0,0,1,.695.262c.184.144.24.3.17.457a.652.652,0,0,1-.336.3,1.718,1.718,0,0,1-.542.159L120.306,58a.383.383,0,0,0,.325-.2.154.154,0,0,0-.075-.211q-.062-.09-.318-.119a.877.877,0,0,0-.421.038c-.131.042-.206.084-.225.127" transform="translate(-59.912 -22.331)"/><path class="bj" d="M119.185,54.914l.4-.225.641.306.014-.033a.806.806,0,0,1,.524-.347,2.363,2.363,0,0,1,.837-.06,1.441,1.441,0,0,1,.734.25q.237.228.145.437a.8.8,0,0,1-.5.366,2.1,2.1,0,0,1-.875.072,1.619,1.619,0,0,1-.486-.12c-.043,0-.063-.012-.058-.024a.372.372,0,0,0-.089-.026Zm1.617.161c-.028.064,0,.129.083.194a.676.676,0,0,0,.35.123,1.167,1.167,0,0,0,.422-.039.368.368,0,0,0,.246-.174c.033-.075.008-.145-.077-.21a.8.8,0,0,0-.35-.123,1.016,1.016,0,0,0-.422.038.332.332,0,0,0-.245.175Z" transform="translate(-60.343 -21.536)"/><path class="bj" d="M119.994,52.744l.5-1.124,3.055.875-.135.305-2.518-.715-.192.434Z" transform="translate(-60.593 -20.636)"/><path class="ar" d="M136.1,18.73c4.747.522,7.889,2.545,7.018,4.519l-3.923,8.889c-.871,1.973-5.424,3.15-10.172,2.628s-7.89-2.545-7.019-4.518l3.923-8.89c.871-1.974,5.425-3.15,10.172-2.629" transform="translate(-61.167 -10.469)"/><path class="af" d="M216.533,52.736c5.006,1.215,7.118,4.257,4.683,6.757l-60.59,62.967c-2.438,2.5-5.765,5.161-16.806,2.475l-64.709-15.6c-5.008-1.216-7.344-3.887-4.91-6.389L135.907,39.2c4.747-4.87,11.234-3.3,16.243-2.081Z" transform="translate(-46.192 -15.786)"/><g class="n" transform="translate(29.095 17.232)"><g class="bk"><path class="bl" d="M134.307,35.076,76.2,95.442l63.168,4.484,27.343-63.056L150.55,32.995c-5.01-1.217-11.5-2.789-16.243,2.082" transform="translate(-76.201 -31.749)"/></g></g><path class="bm" d="M214.646,53.064c5.006,1.215,7.118,4.257,4.682,6.757l-60.588,62.966c-2.438,2.5-5.765,5.161-16.806,2.476l-64.71-15.6c-5.007-1.216-7.343-3.887-4.909-6.389L134.02,39.527c4.747-4.871,11.233-3.3,16.243-2.082Z" transform="translate(-45.611 -15.887)"/><path class="bn" d="M91.913,105.326a24.612,24.612,0,0,1,2.206,10.389A21.232,21.232,0,0,1,90.935,127.4l27.734,6.687c3.532-4.464,6.246-9.536,6.165-18.442-.131-14.642-10.1-19.117-16.273-27.516Z" transform="translate(-51.644 -31.879)"/><path class="bn" d="M150.493,47.422a31.278,31.278,0,0,0-1.119,9.055c.19,21.13,20.866,21.083,21.057,42.212.11,12.179-8.371,17.614-14.569,24.048l11.091,2.674s5.7,1.705,10.059.707a11.55,11.55,0,0,0,5.527-3.079l18.212-18.669a34.88,34.88,0,0,0,.393-5.751c-.19-21.13-20.866-21.083-21.056-42.213-.066-7.213,2.731-11.888,6.435-15.978l-10.575-2.569s-7.824-2.362-12.338-1.37-7.792,5.433-7.792,5.433Z" transform="translate(-69.64 -15.901)"/><path class="bn" d="M231.468,49.4a31.232,31.232,0,0,0-1.129,9.072c.135,14.912,10.471,19.277,16.61,27.982l16.573-17.121A24.42,24.42,0,0,1,261.053,58.4c-.006-.638.019-1.251.06-1.853Z" transform="translate(-94.573 -19.953)"/><path class="ar" d="M120.136,120.056c.825.2,1.171.695.773,1.107L109.448,133a2.6,2.6,0,0,1-2.217.386L92.349,129.8c-.827-.2-1.172-.694-.773-1.107l2.752-2.842,8.71-9a2.6,2.6,0,0,1,2.217-.385Z" transform="translate(-51.79 -40.581)"/><g class="n" transform="translate(39.013 76.869)"><g class="bo"><path class="ar" d="M98.035,129.58a6.77,6.77,0,0,0-4.024.273l-3.478,3.592.419.1L93.8,130.6a4.588,4.588,0,0,1,3.9-.679c1.374.331,1.992,1.133,1.457,1.832-.041.035-.084.072-.121.11l-2.853,2.947.023,0,.658.159.024.006,2.853-2.947c.036-.038.066-.077.1-.116a4.783,4.783,0,0,1,3.781-.568c1.451.35,2.06,1.223,1.358,1.947l-2.853,2.947h0l.681.165,2.853-2.948a4.589,4.589,0,0,1,3.9-.678c1.451.349,2.06,1.224,1.36,1.947l-2.853,2.947.3.072,3.6-3.719c-.051-.657-.806-1.282-2.073-1.587a6.86,6.86,0,0,0-3.868.21c-.01-.678-.77-1.329-2.074-1.643a6.873,6.873,0,0,0-3.846.2c-.02-.673-.779-1.317-2.073-1.629" transform="translate(-90.533 -121.456)"/><path class="ar" d="M113.772,121.038l2.856-2.951-.68-.164-2.857,2.951c-.882.911-.114,2.011,1.711,2.452a6.866,6.866,0,0,0,3.869-.211c.009.678.768,1.329,2.073,1.643a6.9,6.9,0,0,0,3.779-.176l3.6-3.723-.3-.071-2.857,2.95a4.583,4.583,0,0,1-3.9.679c-1.449-.349-2.059-1.224-1.358-1.947l2.857-2.951-.682-.165h0l-2.856,2.951a4.581,4.581,0,0,1-3.9.678c-1.451-.349-2.062-1.223-1.361-1.947" transform="translate(-97.367 -117.923)"/></g></g><g class="n" transform="translate(47.782 82.214)"><g class="bp"><line class="bq" x2="11.57" y2="2.79" transform="translate(0.692 0.692)"/></g></g><path class="br" d="M263.025,65.812c2.89.7,4.1,2.431,2.7,3.873l-2.606,2.692c-1.4,1.442-4.871,2.046-7.761,1.35l-4.3-1.037c-2.89-.7-4.1-2.431-2.7-3.873l2.606-2.692c1.4-1.442,4.871-2.046,7.76-1.35Z" transform="translate(-99.945 -24.598)"/><path class="ap" d="M250.882,73.46c2.891.7,4.1,2.431,2.705,3.873l-2.606,2.692c-1.4,1.442-4.871,2.046-7.761,1.35l-4.3-1.037c-2.889-.7-4.1-2.43-2.7-3.873l2.606-2.692c1.4-1.442,4.871-2.046,7.761-1.35Z" transform="translate(-96.205 -26.953)"/><path class="al" d="M138.222,143.655a3.16,3.16,0,0,1,1.868-.661,8.14,8.14,0,0,1,2.48.214,4.31,4.31,0,0,1,1.878.837q.606.645.124,1.141a2.994,2.994,0,0,1-1.867.66,7.71,7.71,0,0,1-2.48-.215,4.541,4.541,0,0,1-1.878-.836c-.423-.408-.466-.788-.125-1.14m2.1-.03a1.964,1.964,0,0,0-.982.3c-.181.185-.134.376.14.57a2.972,2.972,0,0,0,1.283.578,5,5,0,0,0,1.7.143,1.407,1.407,0,0,0,.981-.3c.12-.124.074-.314-.139-.57a2.755,2.755,0,0,0-1.283-.577,5.408,5.408,0,0,0-1.7-.143" transform="translate(-66.136 -48.769)"/><path class="al" d="M143.565,139.127l.281-1,6.35,1.531-.541.559-4.793-1.156-.112.356Z" transform="translate(-67.851 -47.275)"/><path class="al" d="M154.562,134.843l-2.135,2.206a1.863,1.863,0,0,1-1.1-1.4q-.165-.939-1.409-1.241a2.209,2.209,0,0,0-.9-.025,1.221,1.221,0,0,0-.734.284.278.278,0,0,0,.012.462.865.865,0,0,0,.535.32l-.571.59c-.644-.18-1.031-.415-1.164-.7a.612.612,0,0,1,.067-.942,2.6,2.6,0,0,1,1.437-.611,4.329,4.329,0,0,1,1.887.033,2.409,2.409,0,0,1,1,.472,3.277,3.277,0,0,1,.573.6,1.139,1.139,0,0,1,.354.507l.1.138.691-.714Z" transform="translate(-68.879 -45.913)"/><path class="al" d="M155.135,130.634l-1.331-.053.392-.4a.1.1,0,0,0,.029-.07.088.088,0,0,1,.029-.069l-.065-.092a.559.559,0,0,0-.345-.2,1.151,1.151,0,0,0-.464,0,.542.542,0,0,0-.367.141c-.06.062-.059.139.006.231l-1.2.209a.544.544,0,0,1,.073-.711,2.3,2.3,0,0,1,1.1-.5,4.3,4.3,0,0,1,1.486.052,2,2,0,0,1,.783.38l-.03.031.063.016.03.045.03-.03a4.847,4.847,0,0,1,1.764,0l.062.015.062.015.062.015.063.015.062.015.032.046.064.015.062.015.062.015a1.215,1.215,0,0,1,.663.505.593.593,0,0,1-.039.833l-.03.032-.03.03a2.337,2.337,0,0,1-1.284.533l-.42-.6a1.146,1.146,0,0,0,.614-.236c.1-.1.1-.232-.011-.385-.024-.134-.181-.235-.471-.306a.626.626,0,0,0-.14-.014.873.873,0,0,1-.2-.03l-.03.031a1.071,1.071,0,0,0-.4.018.809.809,0,0,0-.52.22l-.03.03Z" transform="translate(-70.363 -44.491)"/><path class="al" d="M160.831,120.43l.6-.621,3.136,1.6,1.293-1.336,2.551.615-.541.559-1.37-.33-1.593,1.646Z" transform="translate(-73.168 -41.635)"/><path class="al" d="M168.741,115.88l-.06.062-.03.031-.872.9L164.786,116l1.353-1.4,1.423.037-1.142,1.181.9.256,0-.077a1.157,1.157,0,0,1,.238-.326,2.59,2.59,0,0,1,1.406-.619,4.414,4.414,0,0,1,1.857.026,1.625,1.625,0,0,1,1.163.7.7.7,0,0,1-.1.974,2.188,2.188,0,0,1-.975.531,4.538,4.538,0,0,1-1.263.194l.2-.68a1.2,1.2,0,0,0,.857-.329c.16-.166.178-.315.05-.448-.024-.134-.2-.24-.534-.32a1.924,1.924,0,0,0-.9-.025,1.18,1.18,0,0,0-.581.2" transform="translate(-74.386 -40.031)"/><path class="al" d="M170.738,110.31l1.042-.362,1.01.78.06-.062a2.582,2.582,0,0,1,1.407-.581,4.963,4.963,0,0,1,1.765.08,2.062,2.062,0,0,1,1.254.686.743.743,0,0,1-.129.927,2.586,2.586,0,0,1-1.375.626,4.518,4.518,0,0,1-1.855-.064,2.481,2.481,0,0,1-.876-.365c-.083-.019-.115-.04-.095-.062a.578.578,0,0,0-.156-.075Zm3.143.719a.3.3,0,0,0-.019.418.982.982,0,0,0,.6.335,2.517,2.517,0,0,0,.9.024,1.2,1.2,0,0,0,.674-.3.32.32,0,0,0,.048-.448,1.149,1.149,0,0,0-.6-.334,2.209,2.209,0,0,0-.9-.026,1.069,1.069,0,0,0-.672.3Z" transform="translate(-76.219 -38.598)"/><path class="al" d="M174.171,105.957l2.106-2.175,5.386,2.525-.571.59-4.446-2.069-.812.839Z" transform="translate(-77.277 -36.7)"/><path class="al" d="M186.807,96.965a3.794,3.794,0,0,1-1.083-.07,1.58,1.58,0,0,1-.976-.58.507.507,0,0,1,.073-.71,1.917,1.917,0,0,1,1.07-.47,3.616,3.616,0,0,1,1.486.051,1.542,1.542,0,0,1,.783.381l.063.015.031.046.03-.031a3.941,3.941,0,0,1,1.733.035l.062.015.061.015.062.015.062.015.062.015.062.015.063.015.062.015.062.015a1.677,1.677,0,0,1,.662.505.592.592,0,0,1-.038.833l-.03.031-.03.031a2.337,2.337,0,0,1-1.284.533,3.324,3.324,0,0,1-1.2.055l-.063-.015-.062-.015-.063-.015-.062-.015-.062-.015-.03.03-.063-.015-.062-.015-.062-.015-.062-.015q-.905-.257-1.1-.688l.03-.031-.091.017-.064-.015Zm1.387-.164a.382.382,0,0,0,.22.168l-.03.032.188.045.124.03a1.323,1.323,0,0,0,.742.026,1.151,1.151,0,0,0,.613-.235c.1-.1.1-.232-.012-.386,0-.1-.169-.194-.5-.274a1.433,1.433,0,0,0-.343-.044,1.082,1.082,0,0,0-.4.018.812.812,0,0,0-.52.219l-.03.031-.03.031c-.14.145-.146.258-.021.339m-1.041-.749a.224.224,0,0,0-.035-.123.562.562,0,0,0-.345-.2,1.149,1.149,0,0,0-.464,0,.687.687,0,0,0-.367.142c-.1.1-.1.18.006.231a.463.463,0,0,0,.284.183,1.3,1.3,0,0,0,.525.012l.184-.033a.887.887,0,0,0,.183-.109.329.329,0,0,1,.057-.139Z" transform="translate(-80.499 -34.02)"/><path class="al" d="M195.947,92.108l-1.041.362-.979-.734-.06.062a2.44,2.44,0,0,1-1.437.535,4.333,4.333,0,0,1-1.765-.08,1.805,1.805,0,0,1-1.193-.671.669.669,0,0,1,.067-.942,2.6,2.6,0,0,1,1.436-.611,4.09,4.09,0,0,1,1.794.049,2.2,2.2,0,0,1,.877.365.572.572,0,0,1,.155.075l.1.062Zm-3.121-1.136a.978.978,0,0,0-.6-.335,2.967,2.967,0,0,0-.9-.026,1.209,1.209,0,0,0-.671.3.321.321,0,0,0-.05.448,1.363,1.363,0,0,0,.6.336,2.2,2.2,0,0,0,.9.025.962.962,0,0,0,.673-.3q.24-.248.05-.448" transform="translate(-81.939 -32.44)"/><path class="al" d="M194.406,85.615a3.168,3.168,0,0,1,1.868-.661,8.161,8.161,0,0,1,2.48.215,4.322,4.322,0,0,1,1.878.835q.606.646.124,1.141a2.986,2.986,0,0,1-1.868.661,7.706,7.706,0,0,1-2.48-.215,4.548,4.548,0,0,1-1.878-.836q-.634-.612-.124-1.141m2.1-.029a1.968,1.968,0,0,0-.982.3c-.18.186-.134.377.14.57a2.976,2.976,0,0,0,1.283.578,5.02,5.02,0,0,0,1.7.143,1.406,1.406,0,0,0,.981-.3c.12-.124.074-.313-.139-.57a2.755,2.755,0,0,0-1.283-.578,5.388,5.388,0,0,0-1.7-.143" transform="translate(-83.438 -30.896)"/><path class="al" d="M199.749,81.086l.282-1.006,6.35,1.532-.542.559-4.793-1.156-.112.356Z" transform="translate(-85.153 -29.401)"/><path class="al" d="M215.09,72.313l-2.136,2.206a1.863,1.863,0,0,1-1.1-1.4q-.165-.939-1.409-1.24a2.2,2.2,0,0,0-.9-.025,1.221,1.221,0,0,0-.733.283.278.278,0,0,0,.011.462.869.869,0,0,0,.536.321l-.572.59q-.965-.27-1.163-.7a.611.611,0,0,1,.067-.942,2.593,2.593,0,0,1,1.436-.611,4.328,4.328,0,0,1,1.887.033,2.394,2.394,0,0,1,1,.472,3.277,3.277,0,0,1,.573.6,1.158,1.158,0,0,1,.354.507l.1.138.691-.714Z" transform="translate(-87.519 -26.657)"/><path class="al" d="M215.663,68.105l-1.331-.053.392-.4a.092.092,0,0,0,.029-.069.092.092,0,0,1,.029-.07l-.065-.092a.562.562,0,0,0-.345-.2,1.151,1.151,0,0,0-.464,0,.544.544,0,0,0-.367.142c-.06.062-.06.138.006.231l-1.2.208a.544.544,0,0,1,.073-.71,2.306,2.306,0,0,1,1.1-.5,4.34,4.34,0,0,1,1.487.052,2,2,0,0,1,.783.381l-.03.031.063.015.03.046.03-.031a4.844,4.844,0,0,1,1.763,0l.062.015.062.015.062.015.063.015.062.015.033.046.063.015.062.015.062.015a1.219,1.219,0,0,1,.662.5.593.593,0,0,1-.039.834l-.03.031-.03.031a2.337,2.337,0,0,1-1.284.533l-.419-.6a1.15,1.15,0,0,0,.613-.235c.1-.1.1-.232-.011-.386-.023-.134-.18-.235-.471-.305a.582.582,0,0,0-.14-.015.837.837,0,0,1-.2-.03l-.03.031a1.09,1.09,0,0,0-.4.019.805.805,0,0,0-.52.219l-.03.031Z" transform="translate(-89.003 -25.235)"/><path class="al" d="M217.016,62.389l.6-.621,3.136,1.6,1.293-1.336,2.551.615-.541.559-1.37-.33-1.593,1.646Z" transform="translate(-90.471 -23.761)"/><path class="al" d="M224.924,57.839l-.061.062-.03.03-.873.9-2.992-.875,1.354-1.4,1.423.037L222.6,57.777l.9.256,0-.078a1.147,1.147,0,0,1,.238-.325,2.6,2.6,0,0,1,1.4-.619,4.421,4.421,0,0,1,1.857.027,1.622,1.622,0,0,1,1.163.7.694.694,0,0,1-.1.973,2.189,2.189,0,0,1-.975.531,4.586,4.586,0,0,1-1.264.194l.2-.68a1.2,1.2,0,0,0,.857-.33c.16-.165.177-.315.05-.448-.025-.134-.2-.24-.534-.32a1.93,1.93,0,0,0-.9-.025,1.171,1.171,0,0,0-.581.2" transform="translate(-91.688 -22.157)"/><path class="al" d="M183.372,155.584a1.51,1.51,0,0,1,.891-.316,3.894,3.894,0,0,1,1.181.1,2.059,2.059,0,0,1,.9.4c.192.2.21.386.058.543a1.424,1.424,0,0,1-.889.315,3.688,3.688,0,0,1-1.183-.1,2.158,2.158,0,0,1-.895-.4c-.2-.2-.222-.375-.06-.544m1-.015a.948.948,0,0,0-.467.143c-.086.089-.064.18.066.272a1.417,1.417,0,0,0,.612.275,2.379,2.379,0,0,0,.812.069.671.671,0,0,0,.467-.143c.057-.06.035-.15-.066-.272a1.3,1.3,0,0,0-.612-.275,2.575,2.575,0,0,0-.812-.069" transform="translate(-80.077 -52.552)"/><path class="al" d="M185.919,153.426l.134-.479,3.026.729-.258.266-2.284-.551-.055.17Z" transform="translate(-80.894 -51.84)"/><path class="al" d="M191.16,151.383l-1.018,1.052a.883.883,0,0,1-.525-.666q-.08-.447-.672-.592a1.034,1.034,0,0,0-.428-.011.568.568,0,0,0-.35.135.131.131,0,0,0,.006.22.407.407,0,0,0,.255.152l-.273.282q-.46-.129-.554-.334a.292.292,0,0,1,.032-.449,1.241,1.241,0,0,1,.685-.291,2.065,2.065,0,0,1,.9.016,1.149,1.149,0,0,1,.478.224,1.564,1.564,0,0,1,.273.286.535.535,0,0,1,.168.242l.046.066.33-.341Z" transform="translate(-81.384 -51.191)"/><path class="al" d="M191.434,149.378l-.635-.025.187-.192a.051.051,0,0,0,.015-.033.041.041,0,0,1,.014-.033l-.031-.045a.268.268,0,0,0-.165-.094.546.546,0,0,0-.22,0,.264.264,0,0,0-.175.067c-.028.03-.027.066,0,.111l-.573.1a.26.26,0,0,1,.036-.338,1.087,1.087,0,0,1,.522-.239,2.073,2.073,0,0,1,.709.024.959.959,0,0,1,.374.182l-.015.015.03.008.015.021.014-.015a2.333,2.333,0,0,1,.842,0l.03.008.029.006.03.008.03.008.028.007.016.022.03.008.029.006.03.008a.583.583,0,0,1,.317.241.283.283,0,0,1-.02.4l-.014.015-.015.015a1.116,1.116,0,0,1-.61.255l-.2-.286a.543.543,0,0,0,.291-.112c.048-.049.048-.11,0-.184-.011-.064-.087-.112-.224-.145a.286.286,0,0,0-.067-.007.411.411,0,0,1-.1-.015l-.015.015a.523.523,0,0,0-.192.008.385.385,0,0,0-.247.1l-.015.015Z" transform="translate(-82.091 -50.513)"/><path class="al" d="M194.149,144.513l.286-.3,1.495.763.617-.637,1.215.293-.258.266-.653-.157-.758.785Z" transform="translate(-83.429 -49.152)"/><path class="al" d="M197.919,142.344l-.029.03-.014.015-.416.43-1.426-.417.646-.666.678.018-.545.563.43.122V142.4a.586.586,0,0,1,.114-.155,1.244,1.244,0,0,1,.67-.295,2.11,2.11,0,0,1,.885.012.771.771,0,0,1,.554.335.33.33,0,0,1-.046.463,1.032,1.032,0,0,1-.464.253,2.124,2.124,0,0,1-.6.093l.093-.325a.57.57,0,0,0,.41-.157q.114-.118.023-.213c-.012-.064-.1-.115-.254-.153a.9.9,0,0,0-.429-.012.555.555,0,0,0-.277.1" transform="translate(-84.009 -48.387)"/><path class="al" d="M198.872,139.689l.5-.172.482.372.028-.03a1.231,1.231,0,0,1,.671-.276,2.359,2.359,0,0,1,.842.037.991.991,0,0,1,.6.328.355.355,0,0,1-.064.442,1.23,1.23,0,0,1-.653.3,2.152,2.152,0,0,1-.886-.031,1.158,1.158,0,0,1-.417-.174c-.039-.008-.055-.019-.045-.029a.264.264,0,0,0-.074-.035Zm1.5.343a.141.141,0,0,0-.009.2.464.464,0,0,0,.284.161,1.216,1.216,0,0,0,.428.011.567.567,0,0,0,.32-.141.152.152,0,0,0,.024-.214.548.548,0,0,0-.284-.16,1.064,1.064,0,0,0-.429-.012.515.515,0,0,0-.32.143Z" transform="translate(-84.883 -47.704)"/><path class="al" d="M200.509,137.614l1-1.037,2.567,1.2-.272.281-2.119-.985-.387.4Z" transform="translate(-85.387 -46.799)"/><path class="al" d="M206.531,133.328a1.807,1.807,0,0,1-.517-.035.763.763,0,0,1-.465-.275.243.243,0,0,1,.037-.339.915.915,0,0,1,.508-.224,1.734,1.734,0,0,1,.708.025.742.742,0,0,1,.375.181l.03.007.015.022.015-.015a1.873,1.873,0,0,1,.826.017l.03.007.029.007.03.007.03.008.028.007.03.007.029.008.029.007.03.008a.8.8,0,0,1,.316.241.283.283,0,0,1-.019.4l-.014.015-.015.015a1.126,1.126,0,0,1-.611.255,1.619,1.619,0,0,1-.574.025l-.03-.008-.029-.007-.03-.007-.03-.008-.028-.007-.014.015-.03-.007-.03-.008-.029-.007-.03-.007c-.288-.082-.463-.191-.526-.328l.015-.015-.044.008-.03-.008Zm.662-.078a.188.188,0,0,0,.105.08l-.014.014.089.022.059.014a.631.631,0,0,0,.354.013.545.545,0,0,0,.291-.113c.048-.05.048-.111,0-.184,0-.048-.081-.093-.238-.131a.7.7,0,0,0-.163-.021.523.523,0,0,0-.192.008.39.39,0,0,0-.248.1l-.014.015-.015.015c-.066.07-.069.123-.009.163m-.5-.357a.121.121,0,0,0-.017-.06.271.271,0,0,0-.165-.094.559.559,0,0,0-.22,0,.334.334,0,0,0-.175.068c-.047.049-.046.087,0,.11a.217.217,0,0,0,.134.087.624.624,0,0,0,.251.006L206.6,133a.423.423,0,0,0,.087-.052.158.158,0,0,1,.029-.066Z" transform="translate(-86.923 -45.522)"/><path class="al" d="M210.887,131.012l-.495.173-.466-.349-.028.029a1.18,1.18,0,0,1-.686.255,2.07,2.07,0,0,1-.842-.039.861.861,0,0,1-.568-.32.319.319,0,0,1,.032-.449,1.243,1.243,0,0,1,.685-.291,1.957,1.957,0,0,1,.855.024,1.051,1.051,0,0,1,.417.174.252.252,0,0,1,.075.037l.044.029Zm-1.488-.54a.455.455,0,0,0-.284-.16,1.4,1.4,0,0,0-.427-.012.581.581,0,0,0-.32.142.152.152,0,0,0-.024.214.648.648,0,0,0,.284.16,1.048,1.048,0,0,0,.428.012.459.459,0,0,0,.321-.142c.075-.079.084-.15.022-.213" transform="translate(-87.609 -44.769)"/><path class="al" d="M210.153,127.917a1.5,1.5,0,0,1,.89-.316,3.853,3.853,0,0,1,1.182.1,2.064,2.064,0,0,1,.9.4q.287.307.058.543a1.427,1.427,0,0,1-.889.316,3.689,3.689,0,0,1-1.183-.1,2.162,2.162,0,0,1-.895-.4c-.2-.2-.222-.376-.059-.543m1-.015a.943.943,0,0,0-.467.143q-.13.134.066.272a1.421,1.421,0,0,0,.612.275,2.381,2.381,0,0,0,.813.068.67.67,0,0,0,.466-.143c.057-.06.035-.15-.065-.272a1.315,1.315,0,0,0-.612-.275,2.558,2.558,0,0,0-.812-.069" transform="translate(-88.324 -44.032)"/><path class="al" d="M212.7,125.759l.134-.479,3.026.729-.258.266-2.284-.551-.055.17Z" transform="translate(-89.142 -43.32)"/><path class="al" d="M220.013,121.577,219,122.629a.886.886,0,0,1-.525-.666q-.079-.447-.672-.591a1.025,1.025,0,0,0-.428-.012.576.576,0,0,0-.349.135.131.131,0,0,0,.006.22.409.409,0,0,0,.254.153l-.273.281q-.459-.129-.554-.334a.293.293,0,0,1,.032-.45,1.246,1.246,0,0,1,.686-.291,2.062,2.062,0,0,1,.9.016,1.136,1.136,0,0,1,.478.225,1.541,1.541,0,0,1,.273.285.534.534,0,0,1,.168.242l.046.066.33-.34Z" transform="translate(-90.27 -42.012)"/><path class="al" d="M220.287,119.571l-.635-.025.187-.192a.051.051,0,0,0,.014-.033.046.046,0,0,1,.015-.033l-.032-.044a.266.266,0,0,0-.165-.094.543.543,0,0,0-.219,0,.264.264,0,0,0-.175.067c-.029.03-.028.066,0,.11l-.574.1a.26.26,0,0,1,.037-.339,1.1,1.1,0,0,1,.522-.239,2.072,2.072,0,0,1,.709.025.95.95,0,0,1,.374.182l-.015.014.03.008.015.022.014-.015a2.314,2.314,0,0,1,.841,0l.03.008.029.006.03.008.03.008.028.007.017.022.03.008.029.006.03.008a.58.58,0,0,1,.317.241.283.283,0,0,1-.02.4l-.014.015-.015.015a1.121,1.121,0,0,1-.611.255l-.2-.286a.542.542,0,0,0,.292-.113c.048-.048.048-.109,0-.183-.012-.064-.087-.112-.224-.146a.3.3,0,0,0-.068-.006.381.381,0,0,1-.1-.015l-.015.016a.518.518,0,0,0-.192.008.385.385,0,0,0-.248.105l-.014.014Z" transform="translate(-90.977 -41.334)"/><path class="al" d="M220.932,116.846l.286-.3,1.495.763.617-.637,1.215.293-.257.266-.653-.157-.759.785Z" transform="translate(-91.677 -40.631)"/><path class="al" d="M224.7,114.677l-.028.03-.014.015-.416.43-1.426-.417.645-.666.679.018-.545.562.43.123v-.037a.57.57,0,0,1,.115-.155,1.242,1.242,0,0,1,.669-.295,2.114,2.114,0,0,1,.886.012.77.77,0,0,1,.553.335.331.331,0,0,1-.046.464,1.041,1.041,0,0,1-.464.253,2.142,2.142,0,0,1-.6.092l.094-.324a.572.572,0,0,0,.409-.158c.076-.079.084-.15.024-.213-.012-.064-.1-.115-.254-.153a.909.909,0,0,0-.429-.012.565.565,0,0,0-.277.1" transform="translate(-92.257 -39.867)"/><path class="al" d="M211.294,102.487a1.947,1.947,0,0,1,1.149-.406,5.016,5.016,0,0,1,1.525.131,2.669,2.669,0,0,1,1.156.516q.372.4.075.7a1.85,1.85,0,0,1-1.149.407,4.771,4.771,0,0,1-1.526-.133,2.813,2.813,0,0,1-1.156-.514c-.26-.252-.286-.486-.075-.7m1.293-.018a1.2,1.2,0,0,0-.6.185q-.166.171.086.35a1.823,1.823,0,0,0,.79.356,3.11,3.11,0,0,0,1.049.089.87.87,0,0,0,.6-.185c.074-.076.045-.193-.086-.35a1.7,1.7,0,0,0-.79-.356,3.323,3.323,0,0,0-1.049-.087" transform="translate(-88.666 -36.172)"/><path class="al" d="M214.4,99.282a1.951,1.951,0,0,1,1.149-.406,4.994,4.994,0,0,1,1.525.132,2.653,2.653,0,0,1,1.156.515q.372.4.076.7a1.85,1.85,0,0,1-1.149.407,4.774,4.774,0,0,1-1.527-.132,2.8,2.8,0,0,1-1.155-.514c-.26-.252-.286-.486-.076-.7m1.293-.018a1.21,1.21,0,0,0-.6.184c-.111.115-.082.232.085.352a1.835,1.835,0,0,0,.79.355,3.111,3.111,0,0,0,1.049.089.867.867,0,0,0,.6-.185q.111-.114-.085-.35a1.705,1.705,0,0,0-.79-.356,3.349,3.349,0,0,0-1.05-.087" transform="translate(-89.621 -35.185)"/><path class="al" d="M219.2,97.814l.3-.163,1.675.71.268.112-.3.163-.232-.1Z" transform="translate(-91.143 -34.811)"/><path class="al" d="M218.783,94.753a1.946,1.946,0,0,1,1.149-.407,4.992,4.992,0,0,1,1.525.132,2.653,2.653,0,0,1,1.156.515q.372.4.075.7a1.846,1.846,0,0,1-1.149.407,4.774,4.774,0,0,1-1.527-.132,2.805,2.805,0,0,1-1.155-.514c-.26-.252-.286-.486-.076-.7m1.293-.019a1.207,1.207,0,0,0-.6.185q-.166.172.086.351a1.843,1.843,0,0,0,.79.356,3.109,3.109,0,0,0,1.049.088.872.872,0,0,0,.6-.185c.074-.077.046-.193-.085-.351a1.7,1.7,0,0,0-.79-.356,3.3,3.3,0,0,0-1.049-.088" transform="translate(-90.972 -33.79)"/><path class="al" d="M221.885,91.547a1.946,1.946,0,0,1,1.149-.406,5,5,0,0,1,1.525.132,2.661,2.661,0,0,1,1.156.515q.372.4.075.7a1.846,1.846,0,0,1-1.149.407,4.775,4.775,0,0,1-1.527-.133,2.8,2.8,0,0,1-1.155-.513c-.26-.252-.287-.486-.076-.7m1.293-.018a1.2,1.2,0,0,0-.6.185c-.111.114-.082.232.086.35a1.819,1.819,0,0,0,.79.356,3.093,3.093,0,0,0,1.049.089.87.87,0,0,0,.6-.185q.111-.114-.085-.35a1.709,1.709,0,0,0-.79-.356,3.323,3.323,0,0,0-1.049-.087" transform="translate(-91.927 -32.803)"/><path class="al" d="M175.626,57.006c4.926,1.188,10.847.158,13.226-2.3s.316-5.413-4.609-6.6-10.847-.158-13.226,2.3-.314,5.413,4.61,6.6" transform="translate(-76.001 -19.401)"/><path class="bs" d="M177.262,58.552,177.8,58a1.81,1.81,0,0,1,.745-.5,1.592,1.592,0,0,1,.849-.006,1.023,1.023,0,0,1,.451.2.192.192,0,0,1,.053.257l.024.006a1.137,1.137,0,0,1,.518-.175,1.94,1.94,0,0,1,.621.057q.485.117.588.358c.069.16,0,.34-.189.541l-.642.664Zm1.772-.037.21-.218c.1-.1.138-.184.12-.244s-.1-.109-.248-.144a.656.656,0,0,0-.365,0,.815.815,0,0,0-.317.215l-.19.2Zm.6.144.926.224.237-.245c.1-.1.134-.189.1-.258s-.128-.122-.293-.162a.733.733,0,0,0-.747.209Z" transform="translate(-78.228 -22.43)"/><path class="bs" d="M184.367,56.019l-.969-.075-.626.646.72.333-.393.4-2.961-1.486.446-.46,4.174.232Zm-1.688-.138q-1.321-.1-1.493-.113c-.116-.01-.206-.017-.271-.026q.272.116,1.317.6Z" transform="translate(-79.114 -21.795)"/><path class="bs" d="M187.07,52.741l-.462.478-3.434.124-.011.011q.735.148,1.038.221l1.672.4-.325.335-3.552-.856.458-.474,3.407-.129.008-.008q-.709-.148-1-.218l-1.682-.406.327-.338Z" transform="translate(-79.686 -20.717)"/><path class="bs" d="M189.752,50.037l-.414.427-1.945.1.073.214,1.269.306-.364.376-3.552-.857.363-.376,1.626.392-.275-.249-.743-.772.4-.417.974,1Z" transform="translate(-80.556 -19.886)"/><path class="al" d="M248.447,82.053l-.387.4-3.106-.749-.495.511-.666-.161,1.376-1.421.666.161-.495.511Z" transform="translate(-98.717 -29.57)"/><path class="al" d="M248.151,79.331a.9.9,0,0,1,.151-.128l.709.208a.621.621,0,0,0-.137.109c-.123.126-.152.239-.091.34a.689.689,0,0,0,.44.235l1.467.354-.38.392-2.884-.695.288-.3.54.058.019-.019a.5.5,0,0,1-.215-.275.29.29,0,0,1,.093-.284" transform="translate(-99.836 -29.13)"/><path class="al" d="M252.977,78.161l-.465-.019-.01.011a.421.421,0,0,1,.149.287.491.491,0,0,1-.167.3.983.983,0,0,1-.554.269,1.937,1.937,0,0,1-.791-.044q-.46-.111-.522-.324t.228-.541l.226-.254-.127-.03a.647.647,0,0,0-.655.118.689.689,0,0,0-.184.456h-.657a.813.813,0,0,1,.272-.614,1.358,1.358,0,0,1,.684-.383,1.99,1.99,0,0,1,.918.03l1.922.463Zm-1.448-.206-.137.154c-.1.116-.145.21-.122.285s.11.129.266.167a.509.509,0,0,0,.517-.11c.088-.091.105-.176.053-.257a.542.542,0,0,0-.339-.182Z" transform="translate(-100.458 -28.56)"/><path class="al" d="M255.5,75.382l-.381.394-1.684-.407a1.7,1.7,0,0,0-.521-.057.5.5,0,0,0-.327.139c-.106.11-.109.207-.01.292a1.831,1.831,0,0,0,.66.249l1.357.327-.38.392-2.884-.7.291-.3.419.037.021-.021a.312.312,0,0,1-.14-.257.443.443,0,0,1,.146-.288,1.113,1.113,0,0,1,.642-.316,2.338,2.338,0,0,1,.911.059Z" transform="translate(-101.038 -27.789)"/><path class="al" d="M256.845,73.095q.443.107.526.317t-.212.516a1.906,1.906,0,0,1-.3.257,2.091,2.091,0,0,1-.326.177l-.651-.157a2.921,2.921,0,0,0,.412-.2,1.525,1.525,0,0,0,.3-.225c.138-.143.123-.234-.042-.274a.445.445,0,0,0-.178-.008,1.385,1.385,0,0,0-.227.066q-.141.051-.35.144a3.538,3.538,0,0,1-.495.182,1.483,1.483,0,0,1-.381.047,1.814,1.814,0,0,1-.412-.055c-.257-.062-.407-.159-.451-.293s.022-.29.2-.472a2.1,2.1,0,0,1,.717-.452l.452.256c-.131.057-.246.112-.347.165a.96.96,0,0,0-.245.177c-.112.116-.106.19.02.22a.47.47,0,0,0,.237-.012,3.945,3.945,0,0,0,.466-.19,3.12,3.12,0,0,1,.495-.185,1.49,1.49,0,0,1,.386-.05,1.7,1.7,0,0,1,.406.051" transform="translate(-101.874 -27.116)"/><path class="al" d="M256.6,70.958l-.33.34,2.293.553-.381.392-2.292-.552-.209.216-.381-.092v-.266l-.212-.051a1,1,0,0,1-.6-.295q-.109-.175.148-.442a1.614,1.614,0,0,1,.472-.333l.48.24a1.156,1.156,0,0,0-.286.2c-.054.056-.061.1-.018.145a.464.464,0,0,0,.217.1l.18.044.33-.34Z" transform="translate(-101.999 -26.428)"/><path class="al" d="M260.734,70.262a1.624,1.624,0,0,1-.911.45,3.105,3.105,0,0,1-1.278-.066,1.756,1.756,0,0,1-.945-.451c-.147-.185-.117-.383.089-.6a1.409,1.409,0,0,1,.807-.392,2.8,2.8,0,0,1,1.126.062l.383.092-.9.928a1.616,1.616,0,0,0,.619.027.773.773,0,0,0,.44-.215.914.914,0,0,0,.184-.259.706.706,0,0,0,.061-.284l.609.147a.533.533,0,0,1-.059.257,1.265,1.265,0,0,1-.226.3m-2.484-.531c-.081.083-.091.161-.031.234a.759.759,0,0,0,.372.19l.534-.552a1.408,1.408,0,0,0-.525-.033.6.6,0,0,0-.35.161" transform="translate(-102.94 -26.042)"/><path class="al" d="M259.919,67.174a.832.832,0,0,1,.15-.127l.71.208a.6.6,0,0,0-.138.109q-.183.188-.09.339a.687.687,0,0,0,.44.235l1.467.354-.38.393-2.884-.7.288-.3.54.058.019-.019a.5.5,0,0,1-.215-.275.291.291,0,0,1,.093-.283" transform="translate(-103.46 -25.387)"/><g class="aj" transform="translate(26.156 69.833)"><g class="bt"><path class="al" d="M86.175,111.184,71.954,125.875l106.8-1.7,15.8-16.42Z" transform="translate(-71.954 -107.757)"/></g></g><g class="aj" transform="translate(46.634 58.967)"><g class="bu"><path class="al" d="M106.415,94.854l-4.87,5.031,108.5-3.57,4.079-4.26Z" transform="translate(-101.545 -92.055)"/></g></g></g></g><rect class="a" width="311.405" height="186.614" transform="translate(1080 1041.824)"/></g><g transform="translate(1072 1372.904)"><path class="bv" d="M30.178,123.714,89.222,157.8l59.255-33.947L88.852,89.839Z" transform="translate(10.224 30.437)"/><path class="bw" d="M73.507,149.336v79.585L133.8,192.78V115.248Z" transform="translate(24.904 39.046)"/><path class="bx" d="M89.286,228.814V149.23L30.242,115.14v79.585Z" transform="translate(10.246 39.009)"/><g class="by"><path class="ah" d="M48.334,130.971c2.534,0,53.239,18.281,53.19-23.714s-64.729,5.952-64.729,5.952Z" transform="translate(12.466 30.498)"/><path class="bz" d="M2.427,193.236l16.633-16.9c2.244-1.335,7.322-1.953,10.784-1.541a3.318,3.318,0,0,1,2.881,3.026l.293,3.364c.592,4.836.166,5.544-2.8,7.306L12.636,198.95c-2.961,1.762-7.516,2.011-10.12.553l-.738-.412c-2.605-1.458-2.312-4.093.649-5.855" transform="translate(0 59.176)"/><path class="ca" d="M26.58,180.5c0,4.978-12.109,4.978-12.109,0V164.32H26.58Z" transform="translate(4.903 55.671)"/><path class="bz" d="M26.188,207.375l14.405-18.837c2.062-1.6,7.023-2.849,10.51-2.87a3.318,3.318,0,0,1,3.235,2.647l.71,3.3c1.186,4.725.851,5.48-1.868,7.595L37.027,211.777c-2.72,2.115-7.208,2.929-9.973,1.806l-.783-.32c-2.766-1.122-2.8-3.773-.083-5.888" transform="translate(8.189 62.904)"/><path class="ca" d="M49.256,191.213c.617,4.939-11.4,6.442-12.016,1.5l-2.008-16.054,12.016-1.5Z" transform="translate(11.936 59.343)"/><path class="cb" d="M54.094,91.991S16.61,111.175,15.045,121.157c-1.374,8.766-2.888,60.672-2.007,72.868a4.871,4.871,0,0,0,2.736,4.065c3.714,1.766,10.421,3.7,12.66-3.862,3.16-10.668,2.072-47.131,9.629-57.566S83.123,111.5,83.123,111.5Z" transform="translate(4.329 31.166)"/><path class="ah" d="M73.391,104.99S31.453,125.9,30.22,135.4c-1.075,8.3,4.1,55.569,5.436,67.454a4.949,4.949,0,0,0,3.118,4.05c3.818,1.509,10.39,2.907,12.344-4.2,2.807-10.215.49-44.694,7.71-54.846,3.919-5.506,13.99-11.729,31.186-19.846,7.863-3.71,13.5-19.164,3.94-20.389Z" transform="translate(10.189 35.57)"/><path class="cc" d="M38.086,48.491l-8,30.665c-.688,3.646-1.928,8.961-2.825,15.2-1.394,9.685,1.391,20.239,7.326,27.522,0,0,2.846-15.013,5.668-22.079a244.2,244.2,0,0,0,9.01-27.511c-.023-.8-11.182-23.8-11.182-23.8" transform="translate(9.117 16.429)"/><path class="cd" d="M48.879,32.938,30.068,65.257c2.572,10.271,8.139,15.5,15.17,18.257L51.216,43.58Z" transform="translate(10.187 11.159)"/><path class="ce" d="M33.263,54.157s3.022,8.93,19.9,14.7" transform="translate(11.269 18.348)"/><path class="cd" d="M39.99,112.2c2.9-15.9,2.264-25.607-.36-47.557,0-30.395,9.256-41.7,28.4-34.714l7.911,2.1c23.112,12.451,34.849,11.826,30.715,36.284l-4.047,53.613c0,27.6-64.094,22.718-62.622-9.728" transform="translate(13.427 9.463)"/><path class="bz" d="M59.879,37.062s3.023,2.793,4.551,3.11S82.388,27.216,76.442,12.329C72.676,2.9,54.861,10.287,54.861,10.287Z" transform="translate(18.587 2.553)"/><path class="cc" d="M65.335,46.609l-.918.155a5.74,5.74,0,0,1-6.6-4.684l-2.971-17.5a5.74,5.74,0,0,1,4.684-6.6l.918-.157a5.739,5.739,0,0,1,6.6,4.684L72.376,38.9c.526,3.1-3.937,7.179-7.041,7.706" transform="translate(18.554 6.011)"/><path class="cf" d="M56.319,33.434a15.669,15.669,0,0,0,12.417-7.041S64.006,37.386,57.15,38.326Z" transform="translate(19.081 8.942)"/><path class="cc" d="M65.738,31.881C64,40.239,58.08,42.994,52.527,38.031s-8.642-15.76-6.9-24.118S53.286,2.8,58.839,7.763s8.642,15.76,6.9,24.118" transform="translate(15.294 1.794)"/><path class="cc" d="M72.707,29.246c-1.744,8.359-10.3,11.969-15.851,7.007s-8.643-15.759-6.9-24.118,7.658-11.112,13.21-6.15,11.283,14.9,9.542,23.262" transform="translate(16.76 1.191)"/><path class="bz" d="M60.263,12.512S61.116,28.326,74,29.726c0,0,12.512-10.349-.19-23.566-11.2-11.649-23.889.8-23.889.8Z" transform="translate(16.912 0.401)"/><path class="cg" d="M45.159,17.824s3.16-6.185,11.8-7.094L51.535,5.5s-6.781-.032-6.375,12.329" transform="translate(15.294 1.862)"/><path class="bz" d="M71.142,20.94c-3.5-3.36-9.749-2.027-18.137,2.975-8.2,1.909-10.953-7.374-10.953-7.374-2.169-4.832.789-7.678,5.619-9.848L60.251,1.044c7.109-3.239,15.357,1.661,17.528,6.49l.485.772c2.169,4.832-2.291,10.463-7.121,12.633" transform="translate(14.003 0)"/><path class="cf" d="M70.479,25.283a3.759,3.759,0,1,1-2.912-4.446,3.759,3.759,0,0,1,2.912,4.446" transform="translate(21.358 7.032)"/><path class="al" d="M56.872,31.8s-6.353,8.867,2.607,12.68c14.191,6.037,18.6-10.028,16.388-10.958L71.384,31.21a6.045,6.045,0,0,1-1.419,8.216c-3.336,2.811-9.334,3.415-11.911-.983Z" transform="translate(18.528 10.574)"/><path class="ch" d="M74.365,55.352V107.4l9.61-5.639Z" transform="translate(25.195 18.753)"/><path class="ci" d="M80.662,114.451l-4.441-1.565-.521-.523-.336-.594L41.913,94.373a1.71,1.71,0,0,0-1.483.059l-12.772,7.489-.023-.209-2.408.963.108.995h.017a.552.552,0,0,0,.266.257l34.811,18.1a.194.194,0,0,1,.091.135c.728,2.666,1.943,5.051,4.216,3.666l14.144-8.337a3.393,3.393,0,0,0,1.781-3.042" transform="translate(8.546 31.925)"/><path class="cj" d="M62.816,125.162,22.729,104.317c-.465-.242-.455-.667.02-.945l17.035-9.989a1.966,1.966,0,0,1,1.708-.068L81.58,114.159c.463.241.455.667-.02.945l-17.036,9.989a1.968,1.968,0,0,1-1.707.068" transform="translate(7.584 31.559)"/><path class="ci" d="M55.9,108.994l-9.7-5.046c-.112-.059-.11-.162.005-.228l4.122-2.418a.478.478,0,0,1,.414-.017l9.7,5.046c.112.059.11.161-.005.229l-4.122,2.417a.478.478,0,0,1-.414.017" transform="translate(15.624 34.302)"/><path class="al" d="M61.072,105.373a4.545,4.545,0,0,0-2.015-2.514L19.291,82.488a1.01,1.01,0,0,0-.843-.126h0l0,0a.442.442,0,0,0-.179.142l-1.107,1.248,1.119-.1,5.966,22.03a4.54,4.54,0,0,0,2.016,2.513l37.6,19.264,1.28,1.23.177.305c.734.147,2.325-1.019,2.325-1.019Z" transform="translate(5.812 27.888)"/><path class="bz" d="M64.884,129.565S23.361,107.629,23.1,106.679l-6.031-22.27c-.257-.951.229-1.367,1.084-.928l39.764,20.371a4.545,4.545,0,0,1,2.016,2.516l6.031,22.271c.257.951-.228,1.366-1.083.926" transform="translate(5.76 28.224)"/><path class="al" d="M37.657,102.815c.32,1.184-.775,1.447-2.446.59S31.924,100.9,31.6,99.714s.775-1.449,2.446-.593,3.287,2.51,3.607,3.694" transform="translate(10.688 33.412)"/><path class="cc" d="M83.861,55.352,89.129,102c.2,2.5-38.154,14.792-38.154,14.792L54.2,130.311,93.439,120.27c10.37-4.347,10.1-12.281,9.981-18.794l-.727-40.425Z" transform="translate(17.27 18.753)"/><path class="cd" d="M74.773,65.831l3.308,34.557c.977,2.86,26.787-3.04,25.77-7.313-.179-.754-2.84-42.161-14.423-51.62-9.408-7.681-16.946,8.437-14.656,24.375" transform="translate(25.193 13.376)"/><path class="ce" d="M77.084,79.9s10.694,2.773,23.946-6.966" transform="translate(26.116 24.71)"/></g></g><g transform="translate(-640.319 855.846)"><path class="ck" d="M915.494,646.05l-33.563,16.679s8.262,10.173,9.747,10.62,25.948-15.66,25.948-15.66Z" transform="translate(-7.398 -11.541)"/><path class="ck" d="M920.025,642.027l2.337-3.682a6.112,6.112,0,0,1,8.411-1.88h0a6.111,6.111,0,0,1,1.88,8.412l-2.336,3.682a6.113,6.113,0,0,1-8.411,1.88h0A6.112,6.112,0,0,1,920.025,642.027Z" transform="translate(-13.43 -9.831)"/><g transform="translate(894.299 584.284)"><g transform="translate(0 11.227)"><path class="cl" d="M941.033,599.492l-35.505,80.036,52.885,29.711L993.918,629.2Z" transform="translate(-905.528 -599.492)"/><path class="cm" d="M983.022,631.31l-21.483-12.069,1.785-3.929L984.671,627.3Z" transform="translate(-914.622 -602.061)"/><path class="cm" d="M958,651.642l-20.821-11.7L938.929,636l20.821,11.7Z" transform="translate(-910.667 -605.419)"/><path class="cm" d="M952.474,664.095l-20.821-11.7,1.751-3.948,20.821,11.7Z" transform="translate(-909.77 -607.441)"/><path class="cm" d="M946.129,678.4l-20.821-11.7,1.751-3.948,20.821,11.7Z" transform="translate(-908.74 -609.763)"/><path class="cm" d="M963.929,719.189,941.171,706.4l1.495-3.369,22.758,12.785Z" transform="translate(-911.315 -616.303)"/><path class="cm" d="M977.84,640.389l-17.8-10.451.923-2.393,18.053,10.142Z" transform="translate(-914.378 -604.047)"/><path class="cm" d="M965.549,706.926,914.167,678.06l1.034-2.331,51.381,28.866Z" transform="translate(-906.931 -611.87)"/></g><path class="cn" d="M947.531,628.664l-22.118-12.478,13.051-30.1,22.118,12.478Z" transform="translate(-908.756 -586.089)"/><path class="co" d="M946.587,614.369l7.432-5.621-2-.957-3.738,3.015c-.678.533-1.256,1.028-2.064,1.729l-.09-.044-.009-.184.221.106-.534-5.77-.1-1.879-.079-.038-.081-.875a4.443,4.443,0,0,0,5.312-2.775c1.426-3.207-.25-5.384-3.292-6.843L942.913,592l-6.881,15.469,1.885.9,2.905-6.531,2.7,1.295.605,7.33.206,2.706-7.893,5.915,2,.958,4.014-3.139c.7-.581,1.432-1.174,2.283-1.911l.09.044c.057,1.172.12,2.147.17,3.086l.323,5.219,2.088,1Zm-2.554-12.932-2.5-1.2,2.56-5.753,2.5,1.2c2.316,1.11,3.285,2.461,2.383,4.489C948.084,602.176,946.348,602.547,944.033,601.437Z" transform="translate(-910.481 -587.049)"/></g><path class="co" d="M847.538,872.72l9.041-1.134c6.05-2.741,8.877-4.8,11.571-3.245l.764.441c2.695,1.556,2.353,4.3-.758,6.095l-13.291,10.559a8.772,8.772,0,0,1-9.786-.951s-1.488-1.342-.424-6.99C845.261,874.273,845.05,874.157,847.538,872.72Z" transform="translate(-1.283 -47.545)"/><path class="ck" d="M858.315,845.577c-.663,5.719-11.145,5.719-11.145,1.361l5.808-132.046,34.961-9.857Z" transform="translate(-1.754 -21.118)"/><path class="co" d="M888.4,887.777l9.625,1.812c7.094-.816,10.665-1.994,12.911.484l.637.7c2.246,2.479.994,5.174-2.78,5.989L891.712,903.2a9.426,9.426,0,0,1-9.7-4.192s-1.081-1.862,1.866-7.295C885.555,888.618,885.377,888.43,888.4,887.777Z" transform="translate(-7.379 -50.787)"/><path class="ck" d="M893.585,865.5c-1.826,4.62-9.831,3.609-9.7-.183,3.74-45.755-4.87-88.967-15.966-131.015l33.575-3.63C902.809,779.872,902.369,822.036,893.585,865.5Z" transform="translate(-5.123 -25.28)"/><path class="bm" d="M896.426,728.63l4.747,64.9s-18.5,26.279-51.693-1.959l.151-59.1Z" transform="translate(-2.129 -24.948)"/><path class="cp" d="M895.732,716.455,907.41,780.54s-29.015,28.755-62.206,0l3.732-60.178Z" transform="translate(-1.435 -22.972)"/><path class="ck" d="M888.184,608.917c-2.5,8.7-8.965,11.15-14.449,5.47s-7.9-17.338-5.409-26.04,8.965-11.15,14.449-5.47S890.681,600.216,888.184,608.917Z" transform="translate(-5.029 -0.787)"/><path class="ck" d="M898.578,605.754c-2.5,8.7-11.824,11.85-17.308,6.169s-7.9-17.338-5.409-26.039,8.965-11.151,14.449-5.471S901.074,597.053,898.578,605.754Z" transform="translate(-6.253 -0.387)"/><path class="ck" d="M876.908,635.505l-.933-.208a5.886,5.886,0,0,1-4.45-7.005l3.962-17.761a5.886,5.886,0,0,1,7.005-4.45l.932.208a5.887,5.887,0,0,1,4.45,7.005l-1.3,17.627C885.875,634.071,880.059,636.208,876.908,635.505Z" transform="translate(-5.686 -5.029)"/><path class="co" d="M868.133,606.618s-1.081,6.033,9.449,6.614c8.424.466,5.921-14.77,14.273-16.133,9.189-1.5,10.853-12.849,7.233-17.206s-13.741-6.634-21.07-3.4S855.3,582.082,868.133,606.618Z" transform="translate(-4.356)"/><path class="ck" d="M895.937,606.038a3.985,3.985,0,1,1-2.732-4.93A3.984,3.984,0,0,1,895.937,606.038Z" transform="translate(-8.403 -4.219)"/><path class="cp" d="M849.48,704.451c2.974-16.3-.224-29.188.035-46.522,0-31.161-1.5-38.766,14.979-34.026l4.643,1.233a32.061,32.061,0,0,1,6.443,2.489c21.719,11.19,27.516,14.641,26.563,27.621.1,21.38-9.855,25.741-4.565,44.458C893.1,714.487,854.447,715.03,849.48,704.451Z" transform="translate(-2.129 -7.735)"/><path class="cq" d="M890.35,621.617l-.945-2.182a5.986,5.986,0,0,0,4.883,1.272A7.674,7.674,0,0,1,890.35,621.617Z" transform="translate(-8.611 -7.22)"/><ellipse class="cr" cx="7.589" cy="8.816" rx="7.589" ry="8.816" transform="translate(856.995 580.699)"/><path class="co" d="M864.386,588.137c.362-4.518-5.8-6.5-8.216-2.669a17.344,17.344,0,0,0-2.037,5.413c-3.063,13.556-25.9,11.593-14.7,35.446,0,0-10.192,15.651,8.75,22.244,9.694,3.375,9.477-21.587,9.477-21.587s3.868-11.48,7.6-20.484a16.738,16.738,0,0,0,.055-13.2A10.432,10.432,0,0,1,864.386,588.137Z" transform="translate(0 -1.375)"/><path class="cs" d="M872.165,623.051a2.608,2.608,0,0,0-3.156,2.979c.342,2.032,1.584,4.464,5.293,5.72,5.137,1.741,10.779.806,13.493.16a.739.739,0,0,0,.209-1.351C884.946,628.669,877.6,624.365,872.165,623.051Z" transform="translate(-5.294 -7.795)"/><path class="ck" d="M886.775,644.833s4.456,23.768,31.888,52.795c7.543,7.982,45.471,3.124,45.471,3.124l-.021-7.445s-28.5,3.088-35.552-6.456C920.609,676.1,909.122,634.984,886.775,644.833Z" transform="translate(-8.184 -11.098)"/><path class="cp" d="M891.662,659.527l13.612,29.039c1.854,2.043,21.34-12.235,18.942-15.447-.423-.567-17.63-34.29-30.753-38.022C882.8,632.065,883.978,647,891.662,659.527Z" transform="translate(-8.007 -9.698)"/><path class="ck" d="M973.479,713.741l-4.363-.015a6.113,6.113,0,0,1-6.072-6.116h0a6.112,6.112,0,0,1,6.116-6.073l4.363.016a6.112,6.112,0,0,1,6.072,6.116h0A6.111,6.111,0,0,1,973.479,713.741Z" transform="translate(-20.567 -20.55)"/><path class="ct" d="M905.5,691.382l-5.251-11.2s-.306,27.02,5.251,37.441Z" transform="translate(-10.371 -17.082)"/></g></g></svg>