<?xml version="1.0" encoding="UTF-8" standalone="no"?>
<svg
   xmlns:dc="http://purl.org/dc/elements/1.1/"
   xmlns:cc="http://creativecommons.org/ns#"
   xmlns:rdf="http://www.w3.org/1999/02/22-rdf-syntax-ns#"
   xmlns:svg="http://www.w3.org/2000/svg"
   xmlns="http://www.w3.org/2000/svg"
   id="svg20"
   version="1.1"
   viewBox="0 0 30.520794 29.8195"
   height="29.8195"
   width="30.520794">
  <metadata
     id="metadata24">
    <rdf:RDF>
      <cc:Work
         rdf:about="">
        <dc:format>image/svg+xml</dc:format>
        <dc:type
           rdf:resource="http://purl.org/dc/dcmitype/StillImage" />
        <dc:title></dc:title>
      </cc:Work>
    </rdf:RDF>
  </metadata>
  <defs
     id="defs4">
    <style
       id="style2">.a{fill:#006cb4;}.b{fill:#fff;}</style>
  </defs>
  <g
     id="g18"
     transform="translate(-694.2396,-1793.3182)">
    <g
       style="fill:#006cb4;fill-opacity:1"
       id="g16"
       transform="matrix(1.5278591,0,0,1.5278591,694.24429,1793.3199)">
      <g
         style="fill:#006cb4;fill-opacity:1"
         id="g10"
         transform="translate(1.656)">
        <path
           style="fill:#000000;fill-opacity:1"
           id="path8"
           transform="translate(-810.498,-600.516)"
           d="m 827.157,603.106 c 0,13.841 0.024,12.88 -0.052,13.183 a 2.027,2.027 0 0 1 -1.28,1.435 c 0,0.518 0,1.036 0,1.554 a 0.8,0.8 0 0 1 -0.773,0.754 c -0.425,0 -0.85,0 -1.274,0 a 0.8,0.8 0 0 1 -0.745,-0.481 1.185,1.185 0 0 1 -0.067,-0.514 c 0.006,-0.4 -0.006,-0.8 0.005,-1.2 -2.757,-0.014 -5.516,0 -8.273,-0.005 0,0.481 0,0.962 0,1.443 a 0.8,0.8 0 0 1 -0.777,0.753 c -0.439,0 -0.879,0 -1.319,0 a 0.8,0.8 0 0 1 -0.761,-0.754 c -0.006,-0.518 0,-1.036 0,-1.554 a 2.014,2.014 0 0 1 -1.334,-1.917 q 0,-6.351 0,-12.7 c -0.03,-0.712 1.4,-1.293 2.066,-1.549 6.841,-2.476 14.664,0.058 14.584,1.552 z m -10.882,-0.054 a 0.461,0.461 0 0 0 -0.267,0.629 c 0.169,0.348 -0.01,0.263 5.223,0.262 a 0.4575,0.4575 0 0 0 0,-0.915 c -5.188,0.002 -4.839,-0.009 -4.956,0.024 z m -3.022,2.268 a 0.392,0.392 0 0 0 -0.23,0.384 c 0,4.544 -0.016,4.3 0.038,4.408 0.142,0.294 4.927,0.224 11.188,0.216 a 0.387,0.387 0 0 0 0.377,-0.392 c 0.005,-4.61 0.02,-4.335 -0.05,-4.451 a 0.377,0.377 0 0 0 -0.336,-0.2 c -6.228,-10e-4 -10.886,-0.01 -10.987,0.035 z m 0.157,7.58 a 1.312,1.312 0 0 0 -0.225,1.567 1.293,1.293 0 1 0 0.225,-1.567 z m 9.168,-0.123 a 1.308,1.308 0 0 0 -0.412,1.605 1.292,1.292 0 1 0 0.412,-1.605 z"
           class="b" />
      </g>
      <path
         style="fill:#000000;fill-opacity:1"
         id="path12"
         transform="translate(-776.003,-677.122)"
         d="m 776.007,683.017 a 1.25,1.25 0 0 1 1.242,-1.178 q 0,2.711 0,5.422 A 1.248,1.248 0 0 1 776,686 c 0.005,-0.994 0,-1.989 0.007,-2.983 z"
         class="b" />
      <path
         style="fill:#000000;fill-opacity:1"
         id="path14"
         transform="translate(-1162.485,-677.062)"
         d="m 1181.214,681.776 a 1.249,1.249 0 0 1 1.244,1.266 c 0,0.981 0,1.961 0,2.942 a 1.256,1.256 0 0 1 -1.243,1.219 q 0,-2.713 -10e-4,-5.427 z"
         class="b" />
    </g>
  </g>
</svg>
