<svg xmlns="http://www.w3.org/2000/svg" xmlns:xlink="http://www.w3.org/1999/xlink" width="60" height="60" viewBox="0 0 60 60"><defs><style>.a{fill:none;}.b{fill:#fff;stroke:#006cb4;}.c{clip-path:url(#a);}.d{fill:#feb6b9;}.e{fill:#f6be8f;}.f{fill:#41657c;}.g{fill:#6cceff;}.h{fill:#dfecfe;}.i{fill:#0361f3;}.j{fill:#b2adaa;}.k{fill:#9e5d4e;}.l{fill:#e634a7;}.m{fill:#e96c5a;}.n{fill:#ffe7e4;}.o{stroke:none;}</style><clipPath id="a"><circle class="a" cx="29" cy="29" r="29"/></clipPath></defs><g transform="translate(-19 -73)"><g class="b" transform="translate(19 73)"><circle class="o" cx="30" cy="30" r="30"/><circle class="a" cx="30" cy="30" r="29.5"/></g><g class="c" transform="translate(20 74)"><ellipse class="a" cx="30.5" cy="31" rx="30.5" ry="31" transform="translate(-1 -4)"/><g transform="translate(-1.956 4.522)"><g transform="translate(53.354 72.407)"><g transform="translate(0)"><path class="d" d="M265.514,634.542a26.563,26.563,0,0,1-1.38-3.686,2.381,2.381,0,0,1,1.174-2.712c1.4-.782,2.707-1.777,3.911-2.546a17.1,17.1,0,0,1,3.861-2.081c.914-.293,1.575-.333,1.937.586a1.171,1.171,0,0,0,.384.506c3.006,8.645,4.866,17.887,4.066,26.965a5.717,5.717,0,0,0,.087,2.255,6.937,6.937,0,0,0,1.455,2.165,9.774,9.774,0,0,1,1.975,7.565,6.359,6.359,0,0,1-5.346,5.6q-.563-2.06-1.127-4.115a.355.355,0,0,1-.145.13,1,1,0,0,1-.879-.158,4.808,4.808,0,0,1-2.093-5.727,14.013,14.013,0,0,0,1.26-2.9,5.56,5.56,0,0,0-.712-2.983Q269.726,643.971,265.514,634.542Z" transform="translate(-264.049 -623.331)"/></g></g><g transform="translate(0 0)"><g transform="translate(53.905 188.816)"><g transform="translate(0)"><path class="e" d="M260.541,781.786,263.515,800l.041,3.688a2.851,2.851,0,0,0,2.559,2.8l13.342,1.379c.064,0,.129.007.192.007a1.935,1.935,0,0,0,.754-3.72l-7-2.927a2.215,2.215,0,0,1-.832-.6c-.055-.065-.108-.134-.154-.2a2.2,2.2,0,0,1-.364-.873,2.07,2.07,0,0,1-.04-.428l-3.1-15.922Z" transform="translate(-260.541 -781.786)"/></g></g><g transform="translate(56.879 206.89)"><path class="f" d="M260.541,806.53l.041,3.688a2.851,2.851,0,0,0,2.559,2.8l13.342,1.379c.064,0,.129.007.192.007a1.935,1.935,0,0,0,.754-3.72l-7-2.927a2.216,2.216,0,0,1-.832-.6,31.244,31.244,0,0,0-7.427-.773A9.683,9.683,0,0,0,260.541,806.53Z" transform="translate(-260.541 -806.389)"/></g><g transform="translate(17.88 200.995)"><path class="e" d="M331.412,798.364l.242,7.986.126,3.688a2.759,2.759,0,0,1-2.485,2.778l-13.3,1.233c-.066,0-.105.009-.168.009a1.935,1.935,0,0,1-.691-3.731l7.029-2.847a2.243,2.243,0,0,0,.841-.589c.056-.065.11-.134.158-.2.186-.258-.519-.557-.461-.871.03-.143-.788-.287-.788-.434l.039-6.873Z" transform="translate(-313.919 -798.364)"/></g><g transform="translate(17.892 208.817)"><path class="f" d="M331.664,809.179l-.079,3.686a2.852,2.852,0,0,1-2.592,2.776l-13.357,1.233c-.063,0-.129.009-.192.009a1.936,1.936,0,0,1-.71-3.731l7.026-2.848a2.243,2.243,0,0,0,.84-.589,31.291,31.291,0,0,1,7.435-.693A10.138,10.138,0,0,1,331.664,809.179Z" transform="translate(-313.524 -809.011)"/></g><g transform="translate(16.045 96.858)"><path class="g" d="M273.8,667.917c.053-.377.1-.754.154-1.131a85.1,85.1,0,0,0,.9-10.172c6.219.125,13.623,6.535,20.126,7.022q6.583.489,13.17.987c1.951.145,8.1-1.692,9.253-.165,1.05,1.389.25,4.946.385,6.6a52.579,52.579,0,0,0,1.471,8.367c1.279,5.143-1.256,10.024.27,15.093,2.455,8.147.234,16.624,1.361,25.064l1.694,44.391a1.487,1.487,0,0,1-1.1,1.627c-2.61.682-8.736,1.885-13.062-.342a1.488,1.488,0,0,1-.773-1.069l-1.166-23.628c-1.888-12.165-.232-23.929-5.061-35.252L294,683.014c-1.973,32.093-2.789,68.388-1.369,80.276a3.663,3.663,0,0,1-2.721,3.985c-2.46.641-5.962,1.087-8.893-.32a3.539,3.539,0,0,1-1.911-2.583c-1.826-10.331-2.25-20.632-4.078-30.963-1.945-10.992-1.1-13.764-.932-24.812.038-2.6-1.032-5.068-1.622-7.574C271.938,691.562,273.832,677.386,273.8,667.917Z" transform="translate(-272.379 -656.614)"/></g><g transform="translate(50.168 38.277)"><g transform="translate(0)"><path class="h" d="M263.885,576.874c10.709,5.127,16.993,19.032,18.193,30.277.322,3.029,4.9,22.116,4.027,25.034a11.894,11.894,0,0,1-5.388,7.1,2.566,2.566,0,0,1-1.245.39c-1.436-.026-2.054-1.93-3.365-2.516Z" transform="translate(-263.885 -576.874)"/></g></g><g transform="translate(4.112 32.764)"><path class="i" d="M285.187,576.942a18.675,18.675,0,0,0-5.309,6.955,12.969,12.969,0,0,0-.612,5.536,22.185,22.185,0,0,0,.882,5.352c.724,2.487,1.787,4.715,2.848,7.633-.1,4.077,3.68,10.169,4.8,14.21,1.709,6.173,2.639,12.2,1.748,18.574-.861,6.164.256,7.307,6.242,7.849,6.433.586,12.416,2.868,18.971,2.845a45.743,45.743,0,0,0,9.933-1.125c3.165-.713,6.354-2.76,9.446-3.266l-.775.127c4.073-1.546,2.139-4.63,1.218-7.3-.574-1.673-.339-3.863-.467-5.619-.306-4.165-.713-8.325-.729-12.5-.047-10.367-.273-21.061-3.7-30.961a24.786,24.786,0,0,0-5.8-9.747c-2.684-2.6-6.887-3.335-10.348-4.486-.394-.131-.788-.26-1.186-.388a25.429,25.429,0,0,0-5.675-1.189c-9.982-.729-19.2,4.752-25.874,11.664a13.834,13.834,0,0,0-2.63,3.363c-1.132,2.3-.893,5.042-.259,7.527s1.641,4.884,1.992,7.423Z" transform="translate(-277.368 -569.369)"/></g><g transform="translate(15.03 31.659)"><path class="h" d="M307.8,575.1a4.664,4.664,0,0,0,1.034,2c3.32,4.824,7.959,8.472,12.748,11.788,1.137.785,2.28,1.552,3.421,2.312,1.07.721,2.425,1.457,3.574.876a3.537,3.537,0,0,0,1.438-1.944q.477-1.149.878-2.335a39.565,39.565,0,0,0,2.108-13.223c-.06-5.187-1.611-6.274-6.818-6.66a23.1,23.1,0,0,0-11.516,2.554,50.845,50.845,0,0,0-5.135,2.859C308.322,574.086,307.789,574.509,307.8,575.1Z" transform="translate(-307.802 -567.865)"/></g><g transform="translate(34.682 2.701)"><g transform="translate(0)"><path class="j" d="M313.443,534.224c-.012-.37-.019-.743-.023-1.115a11.091,11.091,0,0,0-4.318-4.661,5.459,5.459,0,0,0-.289.489c-1.2,2.38-.1,5.236,1.106,7.611s2.557,5.026,1.8,7.58l.09.624a12.7,12.7,0,0,0,.708-1.484,17.276,17.276,0,0,0,.973-6.455,1.341,1.341,0,0,1-.155-.679C313.345,535.5,313.386,534.862,313.443,534.224Z" transform="translate(-308.294 -528.448)"/></g></g><g transform="translate(17.39)"><path class="j" d="M328.529,541.494c.4-2.454,1.68-4.724,1.881-7.2a8.719,8.719,0,0,0-4.9-8.6c-5.011-2.442-10.7.5-15.152,3.055-.984.562-2.05,1.38-2.044,2.513a10.926,10.926,0,0,0,.268,1.411c.3,2.079-1.97,3.952-1.5,6,.392,1.714,2.427,2.446,3.462,3.867.793,1.1.736,7.863,1.873,8.214,1,.311,2.8-.3,3.747-.436a4.473,4.473,0,0,0,2.225-.789c1.058-.845,1.275-2.341,1.415-3.691.226-2.233-.079-5.583,1.254-7.44,1.234-1.714,3.291-1.969,5.226-2.14a1.878,1.878,0,0,1,.808-2.285l.208.195a9.68,9.68,0,0,0,1.735-1.945,7.909,7.909,0,0,0,1.177-1.6c-.079-.142-.159-.282-.239-.419Z" transform="translate(-307.016 -524.771)"/></g><g transform="translate(37.727 13.153)"><g transform="translate(0)"><path class="k" d="M309.476,542.675l1.279.133C310.338,542.757,309.91,542.71,309.476,542.675Z" transform="translate(-309.476 -542.675)"/></g></g><g transform="translate(22.095 6.555)"><path class="e" d="M320.514,533.7a8.822,8.822,0,0,0-4.717,1.475,22.144,22.144,0,0,1-4.965,2.286c-.023.042-.049.083-.068.126-.834,1.8-.122,3.428-.168,5.207-.052,2.026-1.04,1.577-2.611,2.5-.095.992,1.832,2.881,2.247,3.926,9.357,10.747,12.923,7.75,14.254,5.72,1.225-1.865,1.679-6.756,1.447-8.61C325.5,542.917,324.481,535.3,320.514,533.7Z" transform="translate(-307.981 -533.694)"/></g><g transform="translate(21.289 18.119)"><path class="e" d="M327.334,569.486a20.443,20.443,0,0,1-3.038-10.732,12.811,12.811,0,0,0-.223-3.576c-.3-1.029-.32-2.259-1.179-3.019a4.141,4.141,0,0,0-1.348-.695q-1.791-.654-3.583-1.311a8.432,8.432,0,0,0-3.2-.713.97.97,0,0,0-.627.2c-.476.444-.349,2.845-.441,3.6-.212,1.775-.356,3.564-.581,5.34-.411,3.276-1.675,6.663-1.886,9.913-.181,2.779,2.991,3.62,5.424,4.186a14.4,14.4,0,0,0,10.188-1.377c.37-.214.766-.5.811-.923A1.5,1.5,0,0,0,327.334,569.486Z" transform="translate(-311.222 -549.435)"/></g><g transform="translate(21.473 5.454)"><g transform="translate(0)"><path class="j" d="M326.239,544.875c.062.347.119.7.173,1.048a17.367,17.367,0,0,1,2.074.222,1.914,1.914,0,0,0,2.227-2.167c-.241-1.552-.659-3.1-.909-4.661-.408-2.533-.244-5.448,1.512-7.12-4.149,1.931-6.511,7.36-5.278,12.131A2.2,2.2,0,0,0,326.239,544.875Z" transform="translate(-325.712 -532.196)"/></g></g><g transform="translate(25.18 1.61)"><path class="j" d="M306.1,532.236a19.009,19.009,0,0,1,4.191-4.01c1.5-1.048,3.63-1.848,5.053-.7.857.689,1.264,1.969,2.324,2.269a6.332,6.332,0,0,0,1.253.087c2.674.2,3.783,4.037,3.4,6.236a8.327,8.327,0,0,1-2.147,4.11c.4-.439-3.576-5.592-3.2-5.111,6.394,8.282-8.478-4.051-5.063-3.41a6.276,6.276,0,0,1-1.888-.564c-.533-.4-4.47,1.461-3.917,1.1Z" transform="translate(-306.046 -526.963)"/></g><g transform="translate(19.19 35.087)"><path class="h" d="M309.78,574.964c.231-.131.462-.266.693-.4.289-.17.572-.349.854-.531a25.878,25.878,0,0,0,8.323,4.038,3.589,3.589,0,0,0,2,.134,3.717,3.717,0,0,0,1.618-1.289,48.042,48.042,0,0,0,3.288-4.387,3.333,3.333,0,0,0,1.712.578l.041,0a9.752,9.752,0,0,1,.908,6.135,13.684,13.684,0,0,1-3.068,6.375,4.1,4.1,0,0,1-1.264,1.116,4.363,4.363,0,0,1-3.389-.194,28.56,28.56,0,0,1-6.956-3.678,12.783,12.783,0,0,1-3.937-4.123A6.762,6.762,0,0,1,309.78,574.964Z" transform="translate(-309.755 -572.532)"/></g><g transform="translate(29.295 42.764)"><path class="l" d="M312.264,586.964l.028.027a2.031,2.031,0,0,1,.418,2.476,32.73,32.73,0,0,0-1.4,3.013,2.048,2.048,0,0,0,.741,2.489q1.016.687,2.031,1.362c1.07.721,2.426,1.458,3.573.876a3.54,3.54,0,0,0,1.439-1.943c.14-.333.271-.67.4-1.007a2.031,2.031,0,0,0-.533-2.224q-1.66-1.514-3.2-3.152a2.063,2.063,0,0,1-.283-2.39,1.751,1.751,0,0,0,.126-1.686,2.629,2.629,0,0,0-.875-.841c-.474-.33-.946-.655-1.421-.984l-.026.006c-.381.372-.717.677-1.033.968A2.041,2.041,0,0,0,312.264,586.964Z" transform="translate(-311.152 -582.981)"/></g><g transform="translate(26.298 54.725)"><g transform="translate(0)"><path class="m" d="M326.536,599.292a1.076,1.076,0,0,0,.175.539C326.6,599.438,326.537,599.169,326.536,599.292Z" transform="translate(-326.536 -599.262)"/></g></g><g transform="translate(0 41.814)"><path class="n" d="M301.482,635.968" transform="translate(-256.603 -596.091)"/><path class="h" d="M349.823,614.964a.285.285,0,0,0-.032.009c-.038.012-5.562.086-5.591.108-3.224,2.382-3.335,3.142-7.3,5.615,1.6-8.794.193-18.74-.946-27.563-.46-3.559-1.271-7.3-3.778-9.866-4.977-5.088-8.261,3.448-9.686,6.917a52.285,52.285,0,0,0-3.035,12.209,64.267,64.267,0,0,0,.984,23.346c.683,3.072,1.571,7.117,3.8,9.5,1.92,2.053,5.449,2.514,8.125,2.307a22.981,22.981,0,0,0,8.1-2.434c4.8-2.3,5.133-5.449,7.85-9.928.649-1.07,1.912-2.961,2.651-3.951" transform="translate(-318.806 -581.688)"/></g><g transform="translate(30.109 77.632)"><g transform="translate(0)"><path class="e" d="M321.545,630.46a.067.067,0,0,0,.007-.017l-.1.145C321.488,630.546,321.518,630.5,321.545,630.46Z" transform="translate(-321.456 -630.443)"/></g></g><g transform="translate(22.057 17.689)"><g transform="translate(0)"><path class="e" d="M330.867,550.117a1.865,1.865,0,1,1-2.643-1.087A2.034,2.034,0,0,1,330.867,550.117Z" transform="translate(-327.321 -548.849)"/></g></g></g><g transform="translate(25.215 58.769)"><g transform="translate(0)"><g transform="translate(10.743)"><path class="f" d="M310.342,609.239c-.19-1.266.561-2.915-.444-3.935a2.818,2.818,0,0,0-2.352-.494q-1.769.165-3.536.331a2.571,2.571,0,0,0-2.163.975,2.909,2.909,0,0,0-.236,1.541,79.253,79.253,0,0,0,1.148,11.154,2.823,2.823,0,0,0,1.061,2.107,2.421,2.421,0,0,0,1.294.167l3.03-.165a2.5,2.5,0,0,0,1.671-.513,2.981,2.981,0,0,0,.547-2.228c-.079-2.991-.175-5.953-.018-8.939Z" transform="translate(-301.604 -604.767)"/></g><g transform="translate(0 4.447)"><path class="d" d="M311.828,614.566c2.989-1.992,6.481-2.9,9.873-3.746a6.828,6.828,0,0,1-1.585,5.741,10.448,10.448,0,0,1-1.6,1.374,15.827,15.827,0,0,1-2.521,1.577c-.583.276-1.932.356-2.329.843-.232.29-.21,1.117-.274,1.485-.055.33-.119.655-.178.983-.9,2.052-1.611,4.2-2.463,6.276a3.325,3.325,0,0,1-1.253.073,5.71,5.71,0,0,1-3.473-2.219A10.468,10.468,0,0,1,304,622.879,31.774,31.774,0,0,1,311.828,614.566Z" transform="translate(-304.001 -610.82)"/></g></g></g></g></g></g></svg>