<svg xmlns="http://www.w3.org/2000/svg" xmlns:xlink="http://www.w3.org/1999/xlink" width="60" height="60" viewBox="0 0 60 60"><defs><style>.a{fill:none;}.b{fill:#fff;stroke:#006cb4;}.c{clip-path:url(#a);}.d{fill:#feb6b9;}.e{fill:#41657b;}.f{fill:#b2adaa;}.g{fill:#41657c;}.h{fill:#dfecfe;}.i{fill:#9e5f4b;}.j{fill:#ad6953;}.k{fill:#f6be8f;}.l{fill:#027eda;}.m{fill:#7089a1;}.n{stroke:none;}</style><clipPath id="a"><circle class="a" cx="29" cy="29" r="29"/></clipPath></defs><g transform="translate(-19 -73)"><g class="b" transform="translate(19 73)"><circle class="n" cx="30" cy="30" r="30"/><circle class="a" cx="30" cy="30" r="29.5"/></g><g class="c" transform="translate(20 74)"><ellipse class="a" cx="30.5" cy="31" rx="30.5" ry="31" transform="translate(-1 -4)"/><g transform="translate(-4.184 7)"><g transform="translate(13.088 175.047)"><g transform="translate(0)"><path class="d" d="M920.811,796.734a1.282,1.282,0,0,0,1.425,1.26c.05-.006.1-.014.15-.024l10.545-2.451a3.007,3.007,0,0,0,2.14-2.725l.193-3.19,0-.083.423-7.089-6.867,1.023-.311,6.1c-.006.129.055.245.024.375a2.284,2.284,0,0,1-.249.8c-.037.06-.08.125-.124.185l-.006.008a2.33,2.33,0,0,1-.683.607l-5.643,3.24A2.124,2.124,0,0,0,920.811,796.734Z" transform="translate(-920.803 -782.431)"/></g></g><g transform="translate(13.517 182.112)"><g transform="translate(0)"><path class="e" d="M920.811,799.5a1.279,1.279,0,0,0,1.424,1.26c.05-.006.1-.014.151-.024l10.545-2.451a3.006,3.006,0,0,0,2.14-2.725l.193-3.19a7.9,7.9,0,0,0-3.7.321c-1.13.32-2.273.74-3.4.982l-.006.008a2.3,2.3,0,0,1-.683.607l-5.643,3.24A2.124,2.124,0,0,0,920.811,799.5Z" transform="translate(-920.803 -792.26)"/></g></g><g transform="translate(19.094 0)"><g transform="translate(0)"><path class="f" d="M915.505,553.756c2.989-1.3.925-4.516,2.432-1.907a13.349,13.349,0,0,0,1.641,2.7c3.136,3.277,3.938-2.712,3.263-4.71-1.416-4.187-5.093-8.564-9.2-10.306a6.567,6.567,0,0,0-3.336-.63,8.4,8.4,0,0,0-2.518.88c-3.875,1.833-8.083,4.01-9.661,8a14.259,14.259,0,0,0-.8,3.675,3.78,3.78,0,0,0,.337,2.543c1.987,2.952,3.524.607,4.046-1.593a14.765,14.765,0,0,1,1.362-3.332C904.133,547,913.367,554.683,915.505,553.756Z" transform="translate(-897.257 -538.87)"/></g></g><g transform="translate(44.826 180.884)"><g transform="translate(0)"><path class="g" d="M887.835,793.063a32.616,32.616,0,0,1,4.879,9.874.733.733,0,0,1-.723.946c-1.989-.086-3.884-1.692-5.269-2.882a36.849,36.849,0,0,1-3.858-3.826,6.2,6.2,0,0,1-1.907-4.013,2.716,2.716,0,0,1,1.124-2.234c1.118-.754,2.346-.254,3.313.412a9.3,9.3,0,0,1,2.932,3.294Z" transform="translate(-880.957 -790.552)"/></g></g><g transform="translate(45.748 176.087)"><g transform="translate(0)"><path class="d" d="M893.1,786.825q-.547,1.609-1.092,3.218c-.531,1.568-1.328,3.376-2.955,3.683a3.1,3.1,0,0,1-3.218-2.058,6.864,6.864,0,0,1-.037-4.076c.39-1.663,1.335-3.535,3.035-3.7,1.748-.175,3.03,1.547,3.926,3.057.3.5.282,1.464-.279,1.317Z" transform="translate(-885.511 -783.878)"/></g></g><g transform="translate(39.453 111.219)"><g transform="translate(0)"><path class="g" d="M881.253,693.925c12.444,2.977,14.392,26.124,14.3,36.5-.055,5.967-1.633,12.255-2.7,18.1-.657,3.583-1.286,8.941-2.3,12.445-1.425,4.928-5.433,3.841-9.833,1.98a2.4,2.4,0,0,1-1.236-.9,2.581,2.581,0,0,1-.172-1.516c.443-4.965.888-11.649,1.332-16.614a59.227,59.227,0,0,0,.351-8.183c-.536-10.706-6.27-20.918-8.582-31.353-.62-2.805-1.085-6.015.628-8.324C874.824,693.644,878.336,693.226,881.253,693.925Z" transform="translate(-871.847 -693.62)"/></g></g><g transform="translate(14.404 105.008)"><g transform="translate(0)"><path class="g" d="M932.563,687.33q.495,34.962-2.175,69.873a2.5,2.5,0,0,1-.424,1.455,2.53,2.53,0,0,1-2.131.546c-2.1-.114-4.337-.282-5.987-1.576-1.935-1.516-2.531-4.143-2.968-6.562a256.163,256.163,0,0,1-4.2-50.756c.088-4.362.448-9.11,3.384-12.338a9.819,9.819,0,0,1,12.608-1.274c.952.7,1.838,1.776,1.613,2.933Z" transform="translate(-914.632 -684.978)"/></g></g><g transform="translate(1.869 24.682)"><g transform="translate(15.889 2.48)"><g transform="translate(0)"><path class="h" d="M893.865,666.021q.467-10.047.936-20.1c.262-5.67.526-11.372-.249-17.007-.605-4.4-1.833-8.707-2.609-13.084-1.36-7.687,2.877-15.06,3.407-22.828.249-3.638-6.225-9.319-3.273-11.861,3.011-2.594,10.883-4.587,15.083-4.475,5.169.139,12.042,2.639,15.08,6.342,2.087,2.543-3.241,5.39-3.381,8.532-.272,6.158,3.212,16.809,2.48,22.938-.5,4.2-1.611,5.607-1.666,9.826q-.3,23.07-.6,46.141c0,.127,0,.256-.005.382A82.239,82.239,0,0,1,896.12,668.9a3.8,3.8,0,0,1-1.765-.771h0A2.881,2.881,0,0,1,893.865,666.021Z" transform="translate(-891.304 -576.664)"/></g></g><g transform="translate(40.6 94.262)"><g transform="translate(0)"><path class="i" d="M900.462,704.715c-.15.013-.3.024-.452.035,0-.126,0-.254,0-.381A1.282,1.282,0,0,1,900.462,704.715Z" transform="translate(-900.01 -704.369)"/></g></g><g transform="translate(0)"><path class="i" d="M870.519,608.87c.213-4.513.45-9.109,2.1-13.346,2.862-7.34,9.54-12.633,15.942-17.568,7.293-5.623,13.48-6.21,21.958-1.961,6.244,3.13,12.653,6.442,17.023,11.705,5.179,6.238,1.793,15.06,2.087,22.3.507,12.485.145,26.121-.32,38.616-.188,5.025,2.071,9.049,2.584,13.972.331,3.169.676,6.343.87,9.55a.017.017,0,0,1-.006.007c-2.294,3.535-7,4.9-10.885,5.748-5.467,1.187-9.127,1.316-9.81-3.218-.729-4.825-2.288-9.716-2.552-14.551-.558-10.178.223-20.344.194-30.521-.034-11.719-2.646-23.292.537-34.836.749-2.712,4.747-9.5,3.2-12.066-2.227-3.7-7.263-6.2-11.051-6.341-2.908-.106-7.574,1.121-9.685,3.236-3.031,3.034-1.231,6.193-.221,10,2.193,8.282,3.728,15.356,3.181,24.027-.962,15.238-2.279,30.482-2.8,45.73-.073,2.137-.346,4.371-.232,6.5.19,3.552-.559,6.559-1.034,10.042a2.23,2.23,0,0,1-2.658,1.882,47.014,47.014,0,0,1-17.11-7.072c-.8-10.413,2.786-19.934,2.076-30.353C873.22,630.2,870.519,619.1,870.519,608.87Z" transform="translate(-870.519 -573.213)"/></g><g transform="translate(40.595 94.591)"><g transform="translate(0)"><path class="i" d="M900.386,704.826l-.123.128-.541.558c0-.211,0-.422.005-.634.15-.011.3-.022.452-.035Z" transform="translate(-899.722 -704.826)"/></g></g></g><g transform="translate(23.672 32.925)"><g transform="translate(4.607)"><g transform="translate(0)"><path class="j" d="M883.164,627.573q.788-.427,1.588-.83a2.732,2.732,0,0,0,1.352-1.094c.791-1.652-.548-5.474-.7-7.2q-.482-5.389-.964-10.78a43.467,43.467,0,0,1,2.25-20.741c1.618-5.746,7.3,1.066,9.4,3.557,3.966,4.706,5.046,11.125,5.978,17.209q1.412,9.233,2.827,18.461a7.59,7.59,0,0,1,.018,3.289,6.945,6.945,0,0,1-1.952,2.806,41.611,41.611,0,0,1-33.694,11.637l-3.266-6.336C871.217,634.412,877.808,630.475,883.164,627.573Z" transform="translate(-865.994 -584.681)"/></g></g><g transform="translate(0 53.011)"><path class="d" d="M916.4,659.3a29,29,0,0,1,2.785-.863,12.293,12.293,0,0,1,3.958,6.906,6.714,6.714,0,0,0-5.161,1.767c-.908.854-2.1,2.066-3.145,1.394a2.059,2.059,0,0,1-.752-1.241A8.25,8.25,0,0,1,916.4,659.3Z" transform="translate(-913.825 -658.44)"/></g></g><g transform="translate(20.507 7.722)"><g transform="translate(0)"><path class="k" d="M898.624,559.562c.037-.083.077-.163.111-.247.714-1.672.3-3.582.427-5.395a8.469,8.469,0,0,1,.418-2.071,16.963,16.963,0,0,1,1.8-1.764,1.214,1.214,0,0,0,1.617.02c1.282-.953,2.92-.32,4.268.2,1.82.709,3.535,1.664,5.341,2.411a8.629,8.629,0,0,0,5.15.854,4.171,4.171,0,0,0,1.927-1.041,15.543,15.543,0,0,1,1.115,2.359,18.22,18.22,0,0,1,.967,3.923,24.21,24.21,0,0,1-.352,8.062,10.547,10.547,0,0,1-.914,2.822c-1.074,2.043-3.153,3.338-5.168,4.462a10.232,10.232,0,0,1-3.542,1.394,7.651,7.651,0,0,1-5.227-1.569c-4.106-2.871-6.165-7.8-7.957-12.474a2.6,2.6,0,0,1-.247-1.16A2.561,2.561,0,0,1,898.624,559.562Z" transform="translate(-898.354 -549.614)"/></g></g><g transform="translate(20.627 4.982)"><g transform="translate(0)"><path class="f" d="M919.986,558.342c.82.152,3.353,1.273,3.686.147.162-.553-.024-4.007-.009-4.589.063-2.643.524-4.971,3.108-6.279.536-.271,1.228-.671,1.081-1.255-.132-.523-.837-.617-1.373-.542-6.406.9-7.107,7.579-6.5,12.516Z" transform="translate(-919.802 -545.802)"/></g></g><g transform="translate(0 32.904)"><g transform="translate(0)"><path class="j" d="M928.579,627.543c-.524-.282-1.053-.561-1.587-.829a2.723,2.723,0,0,1-1.352-1.095,2.65,2.65,0,0,1-.156-1.258c.442-11.714,2.183-22.832,1.038-34.648-.3-3.1-.844-6.021-4.089-4.762-2.439.947-5.116,3.536-6.773,5.5-6.179,7.332-7.993,20.288-7.957,29.6.04,10.311,2.619,15.223,11.667,19.705,2.682,1.33,21.1,8,23.113,4.1l2.293-4.46a2.866,2.866,0,0,0-1.135-3.807C938.829,632.859,933.155,630.023,928.579,627.543Z" transform="translate(-907.703 -584.652)"/></g><g transform="translate(33.468 53.617)"><g transform="translate(0)"><path class="d" d="M905.454,660.413c-.717-.266-2.646-1.364-3.378-1.125a2.683,2.683,0,0,0-1.015.741,11.553,11.553,0,0,0-2.1,2.561,5.011,5.011,0,0,0-.507,2.845.9.9,0,0,0,.848.848,5.836,5.836,0,0,1,3.627,2.516c.58,1.184,1.99,1.813,4.034.33C910.187,666.793,909.572,661.942,905.454,660.413Z" transform="translate(-898.435 -659.254)"/></g></g></g><g transform="translate(31.101 35.393)"><path class="l" d="M886.67,591.006a33.977,33.977,0,0,0,2.169-2.89,16.485,16.485,0,0,1,1.949,3.294,4.124,4.124,0,0,1-1,1.735.275.275,0,0,1-.121.065,5.579,5.579,0,0,1-.645.711c.233,4.352,2.289,8.335,4.69,11.56.4.542.816,1.075,1.233,1.6a33.066,33.066,0,0,0,3.185,4.01c.525.569,1.074,1.133,1.637,1.7,1.2,1.374,2.4,2.75,3.558,4.163,2.306,2.812,4.577,6.181,4.753,10.343q-.967,2.411-1.782,4.9a21.669,21.669,0,0,0-4.53-6.864q-.24-.272-.5-.522c-1.335-1.38-2.725-2.617-3.982-3.724-.77-.678-1.552-1.335-2.339-1.985a25.673,25.673,0,0,1-3.141-4.766,39.967,39.967,0,0,1-3.949-19.369A9.855,9.855,0,0,1,886.67,591.006Zm1.465.259.026-.223a5.26,5.26,0,0,0-.153-.531C888.039,590.765,888.08,591.017,888.135,591.265Z" transform="translate(-886.67 -588.116)"/></g><g transform="translate(25.662 93.095)"><path class="m" d="M913.743,669.564c-.216-.06-.425-.142-.645-.183a5.028,5.028,0,0,0-.661-.1,4.2,4.2,0,0,0-.666-.022l-.333.01-.331.047c-.1.016-.236.027-.312.049l-.35.085a2.279,2.279,0,0,0-.318.1c-.1.038-.2.068-.3.108a6.076,6.076,0,0,0-.6.288l-.289.164-.272.189c-.187.116-.346.276-.52.41a6.324,6.324,0,0,0-.881.987,6.475,6.475,0,0,0-.663,1.143c-.078.206-.177.4-.236.617l-.1.314-.076.321a7.093,7.093,0,0,0-.165,1.278q.36,5.424.674,10.85l.656,10.882.658,10.882.341,5.44.357,5.439c.124,1.813.235,3.625.343,5.44s.193,3.629.262,5.443.124,3.632.183,5.448l.688,30.933.012,1.135H907.68l-.081-1.019-.943-30.921c-.1-1.813-.225-3.626-.3-5.441s-.16-3.631-.224-5.446-.107-3.632-.144-5.449l-.13-5.45-.144-5.448-.315-10.9-.316-10.9c-.108-3.632-.214-7.264-.3-10.9v-.058a8.411,8.411,0,0,1,.258-1.533l.1-.374.132-.366c.08-.247.2-.476.307-.713a7.649,7.649,0,0,1,.828-1.308,7.428,7.428,0,0,1,1.077-1.112,6.928,6.928,0,0,1,1.3-.84,7.065,7.065,0,0,1,.709-.308c.124-.044.256-.08.382-.119a3.119,3.119,0,0,1,.372-.1l.351-.072.045-.008.043-.009.023,0,.1-.012.192-.019.383-.038.386,0a4.905,4.905,0,0,1,.768.058,5.741,5.741,0,0,1,.752.15c.249.058.485.16.727.238.231.107.466.208.689.329a6.681,6.681,0,0,1,1.232.88l.28.256c.088.09.17.185.254.278a5.422,5.422,0,0,1,.471.587,7.117,7.117,0,0,1,.735,1.3c.1.227.172.466.261.7.073.239.126.487.19.731.042.239.073.474.111.711l.077.726.3,2.86-.284.037L917.9,675.4l-.108-.7c-.047-.234-.09-.472-.143-.7-.07-.217-.127-.437-.2-.652-.093-.213-.167-.432-.272-.636a6.6,6.6,0,0,0-.73-1.164,4.639,4.639,0,0,0-.448-.516l-.239-.243-.26-.22a6.076,6.076,0,0,0-1.132-.742C914.16,669.732,913.95,669.65,913.743,669.564Z" transform="translate(-904.779 -668.402)"/></g></g></g></g></svg>