<svg xmlns="http://www.w3.org/2000/svg" xmlns:xlink="http://www.w3.org/1999/xlink" width="60" height="60" viewBox="0 0 60 60"><defs><style>.a{fill:none;}.b{fill:#fff;stroke:#006cb4;}.c{clip-path:url(#a);}.d{fill:#feb6b9;}.e{fill:#4d6c90;}.f{fill:#5bc5c9;}.g{fill:#41657c;}.h{fill:#0a3c5f;}.i{fill:#4281f3;}.j{fill:#3093d0;}.k{stroke:none;}</style><clipPath id="a"><circle class="a" cx="29" cy="29" r="29"/></clipPath></defs><g transform="translate(-19 -73)"><g class="b" transform="translate(19 73)"><circle class="k" cx="30" cy="30" r="30"/><circle class="a" cx="30" cy="30" r="29.5"/></g><g class="c" transform="translate(20 74)"><ellipse class="a" cx="30.5" cy="31" rx="30.5" ry="31" transform="translate(-1 -4)"/><g transform="translate(-35.903 4.522)"><g transform="translate(55.511 34.008)"><path class="d" d="M798.223,219a73.958,73.958,0,0,0-1.919-7.182,7.756,7.756,0,0,0-1.588-3.109c-1.925-1.587-4.374-1.992-6.23-3.9-2.127-2.184-3.371-5.208-5.106-7.689q-1.846-2.63-3.689-5.267c-2.571-3.672-5.68-5.588-8.7-8.61a11.291,11.291,0,0,1-1.126-1.327c-.065-.264-.131-.529-.2-.793-.019-.081-.04-.161-.061-.242a121.892,121.892,0,0,0-5.421-17.262,63.417,63.417,0,0,0-4.758-9.348,12.7,12.7,0,0,0-3.1-3.665,10.871,10.871,0,0,0-1.7-1.032,5.35,5.35,0,0,0-1.512-.5c-2.4-.387-3.58,1.659-4.09,4.251a24.439,24.439,0,0,0-.117,7.406,64.724,64.724,0,0,0,6.94,21.21q.656,1.243,1.366,2.455a68.2,68.2,0,0,0,4,6.079,65.882,65.882,0,0,0,13.418,13.562c4.088,3.066,9.913,4.728,13.195,8.755,1.319,1.621,2.333,3.007,3.458,4.164A46.823,46.823,0,0,0,798.223,219Z" transform="translate(-748.675 -149.027)"/></g><g transform="translate(55.511 34.008)"><g transform="translate(0)"><path class="e" d="M803.425,180.883a53.621,53.621,0,0,1-12.392,3.513q-.709-1.213-1.366-2.455a64.724,64.724,0,0,1-6.94-21.21,24.439,24.439,0,0,1,.117-7.406c.51-2.593,1.691-4.638,4.09-4.251a5.35,5.35,0,0,1,1.512.5,10.869,10.869,0,0,1,1.7,1.032,12.7,12.7,0,0,1,3.1,3.665A63.506,63.506,0,0,1,798,163.62,121.9,121.9,0,0,1,803.425,180.883Z" transform="translate(-782.501 -149.027)"/></g></g><g transform="translate(40.79 32.882)"><path class="f" d="M818.654,158.1c1.016-11.978-6.2-12.72-15.258-6.75-4.054,2.671-12.376,5.043-12.226,9.9,1.955-3.376,5.685-1.813,9.217-3.47,10.793-5.064,7.834,2.983,4.844,8.554a73.361,73.361,0,0,1-17,21.189c-1.018.867-2.192,2.172-1.684,3.48a2.666,2.666,0,0,0,1.073,1.176,11.426,11.426,0,0,0,10.552.822,23.569,23.569,0,0,0,8.893-6.843A49.681,49.681,0,0,0,818.654,158.1Z" transform="translate(-786.42 -147.697)"/></g><g transform="translate(11.418 35.474)"><path class="f" d="M853.108,152.468c-11.3-2.606-22.949,5.31-28.292,15.6s-5.775,22.365-5.666,33.962c.03,3.172.2,6.639,2.307,9.01,2.031,2.284,5.3,2.91,8.323,3.343,2.111.3,4.361.556,6.295-.349,2.449-1.147,3.729-3.829,4.757-6.332a166.1,166.1,0,0,0,12.322-56.945Z" transform="translate(-819.136 -150.759)"/></g><g transform="translate(75.065 164.538)"><g transform="translate(0)"><path class="d" d="M774.252,325.143c0,.025.012.051.015.077,2.489-1.427,5.051-2.712,7.631-3.965a1.914,1.914,0,0,1-.312-.708c-.04-.122.02-.256.005-.387l-2.371-16.875L771.1,314.969l-1.424-5.494Z" transform="translate(-769.675 -303.284)"/></g></g><g transform="translate(79.386 182.594)"><g transform="translate(0)"><path class="g" d="M758.5,328.179,760,331.1a2.575,2.575,0,0,0,3.214,1.2L774.7,327.97c.053-.021.109-.046.162-.071a1.749,1.749,0,0,0,.926-2.068,1.724,1.724,0,0,0-1.79-1.2l-6.9.514a2.059,2.059,0,0,1-.921-.138,29.422,29.422,0,0,0-6.4,2.4A9.443,9.443,0,0,0,758.5,328.179Z" transform="translate(-758.5 -324.622)"/></g></g><g transform="translate(31.932 73.175)"><path class="h" d="M814.07,296.658q.543,1.969,1.016,3.986c.894,3.81,10.555,1.118,10.078-2.979-.877-7.533-2.023-17.228-3.558-24.607-3.31-15.918-8.523-31.49-16.9-44.549-3.116-4.862-7.166-8.68-10.351-13.436-2.495-3.726-4.645-12.35-7.124-15.021-3.96-4.263-6.032-7.084-11.907-2.055-12.247,10.483,2.624,36.258,9.754,45.352C797.792,259.562,808.127,275.047,814.07,296.658Z" transform="translate(-770.653 -195.313)"/></g><g transform="translate(50.941 23.167)"><g transform="translate(0)"><path class="d" d="M801.231,136.823l-1.549-.608a35.545,35.545,0,0,1-5.168,10.031,1.1,1.1,0,0,0-.312.917c.107.335.5.475.839.562a32.709,32.709,0,0,0,11.036.876,12.184,12.184,0,0,1,3.715-8.766c-3.256-1.975-5.26-3.063-9.069-3.119" transform="translate(-794.177 -136.215)"/></g></g><g transform="translate(0.015 171.015)"><path class="d" d="M863.623,310.938l-4.084,5.927-1.887,2.736a2.48,2.48,0,0,0,.481,3.34l9.371,7.642a1.43,1.43,0,0,0,.141.1,1.8,1.8,0,0,0,2.278-.246,1.7,1.7,0,0,0,.2-2.135l-3.781-5.638a1.95,1.95,0,0,1-.322-.855,1.891,1.891,0,0,1-.013-.228,1.819,1.819,0,0,1,.248-.774c.052-.118.189-.18.266-.289l3.566-5.066Z" transform="translate(-857.213 -310.938)"/></g><g transform="translate(0 176.916)"><path class="g" d="M859.518,317.912l-1.868,2.749a2.489,2.489,0,0,0,.49,3.346l9.376,7.644c.046.036.094.072.141.1a1.805,1.805,0,0,0,2.281-.246,1.693,1.693,0,0,0,.2-2.133l-3.782-5.638a1.968,1.968,0,0,1-.321-.855,28.2,28.2,0,0,0-5.215-4.261A9.158,9.158,0,0,0,859.518,317.912Z" transform="translate(-857.213 -317.912)"/></g><g transform="translate(5.319 94.943)"><path class="h" d="M843.9,259.278a272.558,272.558,0,0,1-29.872,42.341,3.182,3.182,0,0,1-3.592.872,33.832,33.832,0,0,1-3.821-1.85,3,3,0,0,1-1.249-3.914c3.388-7.182,9.013-12.211,12.766-19.22,7.863-14.691,6.571-31.872,10.219-47.865,1.88-8.247,7.77-5.471,14.759-5.193,2.57.1,14.031,1.224,13.977-3.41.129,10.992-3.93,21.648-9.244,31.272Q845.9,255.829,843.9,259.278Z" transform="translate(-805.072 -221.038)"/></g><g transform="translate(25.428 29.566)"><path class="i" d="M832.8,177.3a39.981,39.981,0,0,0-.525,6.15c.014,7.442-1.172,15.131-2.344,22.464-1.146,7.177-.686,9.259-8.1,9.62-6.833.333-13.506.943-20.37.624-2.568-.119-5.091-.046-7.447-.134-5.79-.22-2.786-9.888-3.292-13.3a59.917,59.917,0,0,1,.549-19.4,68.331,68.331,0,0,1,6.683-19.444c2.686-5.125,5.867-12.872,10.557-16.272,5.662-4.1,9.169-4.5,13.959-3.105a16.133,16.133,0,0,1,7.741,5.01c3.424,4.026,4.659,9.553,4.463,14.834C834.5,168.827,833.448,173.016,832.8,177.3Z" transform="translate(-790.164 -143.778)"/></g><g transform="translate(48.976 29.294)"><path class="d" d="M795.434,145.515a12.431,12.431,0,0,0,14.852,5.416c.811-.313,1.717-.943,1.591-1.8a2,2,0,0,0-.725-1.1,17.453,17.453,0,0,0-14.3-4.382c-1.158.178-2.5,1.691-1.425,2.172Z" transform="translate(-795.037 -143.456)"/></g><g transform="translate(53.615 0)"><g transform="translate(2.271 6.898)"><path class="d" d="M784.053,136.505a10.057,10.057,0,0,0,1.907,1c2.5,1.047,8.865,2.477,11.215,1.367,6.716-3.169,9.309-19.26-.814-21.8-2.571-.644-5.356,2.4-7.489,3.673a10.884,10.884,0,0,0-4.09,4.943,28.77,28.77,0,0,0-1.95,4.905C784.844,133.062,781.291,134.548,784.053,136.505Z" transform="translate(-782.834 -116.989)"/></g><g transform="translate(0)"><path class="j" d="M804.521,115.689a2.536,2.536,0,0,0-.674-1.411,2.778,2.778,0,0,0-1.345-.938,3.331,3.331,0,0,0-1.771-.4l-1.291.166c-.478.125-.926-2.363-1.343-2.122-.145-.011-.29-.013-.437-.013a3.119,3.119,0,0,0-.552-.743,3.219,3.219,0,0,0-1.465-.975,3.526,3.526,0,0,0-1.848-.415l-1.3.172a2.172,2.172,0,0,1-1.945.47l-1.281.17a4.789,4.789,0,0,0-1.187.508,5.324,5.324,0,0,0-.578-.194l-1.284-.168a4.587,4.587,0,0,0-2.368.636,4.91,4.91,0,0,0-1.7,1.8,3.875,3.875,0,0,0-.416,1.159c-2.191.215-3.859,4.689-3.388,6.657a4.322,4.322,0,0,0,.779,1.615c.014.031.022.062.036.093a2.656,2.656,0,0,0,.29.724,2.586,2.586,0,0,0-.349.3c-.17.231-.341.462-.508.69a2.487,2.487,0,0,0-.219,1.654q.156.423.307.836c.029.051.066.1.095.146a1.989,1.989,0,0,0-.454,1.849,4.253,4.253,0,0,0,4.167,2.746,3.867,3.867,0,0,0,2.775-1.092,3.039,3.039,0,0,0,2.112-1.932,2.505,2.505,0,0,1-1.114-.485,1.7,1.7,0,0,1-.684-1.212,1.488,1.488,0,0,1,.827-1.347,1.787,1.787,0,0,1,.417-.177,1.356,1.356,0,0,1,.458-.17,2.936,2.936,0,0,1,1.22,0c.032.008.061.018.091.028a2.791,2.791,0,0,0,.277-1.282l0-.114c0-.057-.006-.112-.009-.168a4.093,4.093,0,0,0,.828.053,5.115,5.115,0,0,0,3.144-1.224,4.623,4.623,0,0,0,1.555.624,6.282,6.282,0,0,0,1.173.127,3.02,3.02,0,0,0,.668.274,3.385,3.385,0,0,0,1.462.3c.114.008.227.013.343.013a.879.879,0,0,0,.177,0l1.108-.122.047-.006c.03-.005.058-.011.089-.019s.058-.017.087-.026c.317-.1.778-.234,1.084-.366a7.511,7.511,0,0,0,1.084-.627,1.289,1.289,0,0,0,.15-.112c.22-.19.632-.553.831-.764.021-.022.042-.045.062-.068a5.942,5.942,0,0,0,.344-.5c.01-.016.091-.12.172-.237l.152-.138a4.433,4.433,0,0,0,1.007-1.966l.145-.675A2.729,2.729,0,0,0,804.521,115.689Z" transform="translate(-778.255 -108.837)"/></g></g><g transform="translate(26.793 29.745)"><path class="f" d="M835.2,154.394c1.016-11.979-6.2-12.721-15.258-6.752-4.052,2.672-12.376,5.046-12.226,9.9,1.955-3.376,5.686-1.813,9.217-3.471,10.793-5.064,7.834,2.983,4.843,8.554a73.379,73.379,0,0,1-17,21.189c-1.021.868-2.194,2.173-1.686,3.48a2.662,2.662,0,0,0,1.072,1.175,11.428,11.428,0,0,0,10.554.823,23.593,23.593,0,0,0,8.891-6.844A49.684,49.684,0,0,0,835.2,154.394Z" transform="translate(-802.962 -143.989)"/></g><g transform="translate(20.333 33.677)"><path class="d" d="M842.531,152.292a4.82,4.82,0,0,0-3.353-3.533c-4.338-1.261-11.866,7.545-14.334,10.361a58.367,58.367,0,0,0-8.806,13.608c-4.436,9.44-6.744,20.564-4.944,31.193.881,5.2,4.1,13.482,7.163,17.824a11.585,11.585,0,0,0,4.158,3.339c2.312-1.034,5.592-2.8,6.228-5.425a33.165,33.165,0,0,1-3.458-3.18c-1.043-.566-2.126-1.058-3.181-1.5-.423-.179-.892-.557-.828-1.089.148-1.254.393-9.7.8-11.882.692-3.672,1.778-7.236,2.72-10.845-.025-.261-.051-.525-.079-.788a39.747,39.747,0,0,1,4.918-9.114c.985-1.5,1.971-3,2.845-4.545,2.341-4.134,5.885-7.353,8.051-11.474C841.842,162.557,843.716,156.33,842.531,152.292Z" transform="translate(-810.479 -148.636)"/></g><g transform="translate(25.892 33.677)"><path class="i" d="M834.873,165.242c-2.165,4.122-5.71,7.34-8.051,11.474-.874,1.543-1.86,3.045-2.845,4.545a31.811,31.811,0,0,1-13.5-8.533,58.393,58.393,0,0,1,8.806-13.608c2.468-2.816,10-11.622,14.334-10.361a4.821,4.821,0,0,1,3.353,3.533C838.158,156.33,836.284,162.557,834.873,165.242Z" transform="translate(-810.479 -148.636)"/></g></g></g></g></svg>