<svg xmlns="http://www.w3.org/2000/svg" xmlns:xlink="http://www.w3.org/1999/xlink" width="60" height="60" viewBox="0 0 60 60"><defs><style>.a{fill:none;}.b{fill:#fff;stroke:#006cb4;}.c{clip-path:url(#a);}.d{fill:#9e5f4b;}.e{fill:#e4e9ff;}.f{fill:#feb6b9;}.g{fill:#f6be8f;}.h{fill:#f67b6b;}.i{fill:#0d3e5e;}.j{fill:#f2b71e;}.k,.l{fill:#41657c;}.l{opacity:0.4;}.m{stroke:none;}</style><clipPath id="a"><circle class="a" cx="29" cy="29" r="29"/></clipPath></defs><g transform="translate(-19 -73)"><g class="b" transform="translate(19 73)"><circle class="m" cx="30" cy="30" r="30"/><circle class="a" cx="30" cy="30" r="29.5"/></g><g class="c" transform="translate(20 74)"><ellipse class="a" cx="30.5" cy="31" rx="30.5" ry="31" transform="translate(-1 -4)"/><g transform="translate(-1 8.121)"><path class="d" d="M1312.406,100.993a16.99,16.99,0,0,1-.394,7.771,8.026,8.026,0,0,1-5.478,5.342,3.38,3.38,0,0,0-1.582.585c-1.032.953.088,2.55.307,3.912a3.731,3.731,0,0,1-1.883,3.574,8.07,8.07,0,0,1-4.214,1.006c-7.625.057-14.825-5.854-15.983-13.116a10.211,10.211,0,0,1,1.385-7.425,6.836,6.836,0,0,1,6.891-2.9,3.613,3.613,0,0,1,.92-4.414,4.881,4.881,0,0,1,4.752-.691c1.072.4,2,1.139,3.1,1.446s2.569-.037,2.875-1.107c.249-.863-.362-1.71-.8-2.5s-.621-1.958.166-2.434a2.087,2.087,0,0,1,1.746.052,13.8,13.8,0,0,1,8.21,8.009,4.794,4.794,0,0,1,.375,2.347,3.119,3.119,0,0,1-1.961,2.391Z" transform="translate(-1275.76 -84.612)"/><path class="e" d="M1263.164,123.567a14.326,14.326,0,0,1,4.966,2.236c.5.459.957.935,1.374,1.4,2.594,2.9,3.693,6.689,4.458,10.442.649,3.182,1.147,6.417,1.706,9.635.629,5.252,1.267,10.535,2.9,15.438,1.326,3.967,3.313,7.673,4.561,11.67q.208.659.383,1.326a75.536,75.536,0,0,1,1.841,11.238q.433,3.893.872,7.788a8.539,8.539,0,0,1-5.217,1.875,8.513,8.513,0,0,0-.054-.906,13.333,13.333,0,0,0-1.2-3.666c-2.117-4.8-4.375-9.563-6.582-14.348-5-10.814-9.717-21.731-11.909-33.459-.853-4.57-1.319-9.246-2.759-13.653a22.614,22.614,0,0,0-3.737-7.124C1257.566,123.537,1260.515,122.972,1263.164,123.567Z" transform="translate(-1223.77 -88.001)"/><path class="f" d="M1250.849,202.593c-.348,5.032,1.784,10.932,5.833,11.737,1.67.333,3.831-.978,3.585-3.036a4.943,4.943,0,0,0-.61-1.651l-1.981-3.843c-.82-1.59-1.72-3.267-3.12-4.027-1.864-1.012-4.308.159-5.128,2.451Z" transform="translate(-1193.027 -95.92)"/><path class="g" d="M1290.578,178.484a38.169,38.169,0,0,1-12.363-2.531c-.9-.348-.254,5.611-.816,4.821-.916-1.283-3.574-12.549-2.211-13.842a2.578,2.578,0,0,1,1.929-.446l21.437.808a21.571,21.571,0,0,0,4.775-.173,47.572,47.572,0,0,1,4.858-1.119c-.873,4.736.407,10.6.407,10.6S1294.551,178.63,1290.578,178.484Z" transform="translate(-1264.141 -92.331)"/><path class="h" d="M1303.768,123.434c-.048.063-.1.124-.148.188l.552.753C1304.035,124.06,1303.9,123.748,1303.768,123.434Z" transform="translate(-1285.61 -88.015)"/><g transform="translate(16.318 175.575)"><path class="f" d="M1299.081,280.4c-1.725,13.913-3.222,27.335-3,31.856a5.162,5.162,0,0,0,.36,1.941,2.908,2.908,0,0,0,.322.522c.03.039.061.076.09.112.326.389,1.318.72,1.729,1.028a22.138,22.138,0,0,0,3.548,2.571c1.089.627,2.388,1.624,2.036,2.839s-1.983,1.351-3.237,1.244c-3.471-.3-5.462-.6-8.937-.9a2.629,2.629,0,0,1-1.479-.43,2.478,2.478,0,0,1-.715-1.405,34.452,34.452,0,0,1-.708-5.057c-.054-.613-.114-1.219-.184-1.827-.064-.553-.139-1.1-.232-1.651a69.427,69.427,0,0,1-.665-8.533c-.671-12.438-.662-18.4-.3-23.308C1291.49,279.786,1295.3,280,1299.081,280.4Z" transform="translate(-1287.465 -279.401)"/><path class="i" d="M1287.465,319.647c.156,0,.3,2.957.708,4.618a1.933,1.933,0,0,0,.715,1.184,2.561,2.561,0,0,0,1.479.318c3.475.3,5.466.547,8.937.847,1.254.106,2.886-.058,3.237-1.272s-.946-2.222-2.036-2.852a22,22,0,0,1-3.548-2.574c-.412-.313-1.4-.2-1.729-.6-.029-.032-.06.328-.09.328Z" transform="translate(-1285.839 -283.447)"/></g><path class="j" d="M1274.622,199.614c.047,28.31-.861,56.619-.815,84.927.007,4.321-.751,14.1-2.168,16.031-.856,1.166-8.863.154-10.387-1.5q-1.155-25.919-2.313-51.837c-.468-10.477-.941-21.01-3.058-31.282-3.01-14.621-3.6-24.635,1.46-39.194q14.93-.692,29.861-1.379a2.792,2.792,0,0,1,1.926.381,2.825,2.825,0,0,1,.78,1.79c6.672,37.732,15.951,75.376,19.064,113.628.08.991-.229,1.965-.151,2.959.222,2.843-7.483,4.125-10,2.107,0,0-.492.173-2.352-7.243-6.525-26-11.967-58.055-27.719-79.692Z" transform="translate(-1245.455 -93.279)"/><path class="e" d="M1272.6,133.685c1.041-4.31,1.736-6.282,5.4-9.08a23.346,23.346,0,0,1,11.634-4.987c6.685-.687,13.164,2.3,19.089,5.488,4.326,2.328,4.433,4.257,4.855,8.816a62.361,62.361,0,0,1-.191,11.546c-.61,6.5-2.083,12.867-2.853,19.343a2.617,2.617,0,0,1-.823,1.569l.035.006c-.024.013-.05,6.223-.078,6.236-1.963,1.877-6.7,2.4-8.742,2.692a30.955,30.955,0,0,1-12.462-.773c-1.4-.384-2.765-.862-4.152-1.266-2.519.189-5.216.273-7.308-.463a7.123,7.123,0,0,0-1.539.631c-.377-.734-.687-7.7-.93-8.492-1.789-2.174-2.561-5.258-3.19-7.934-.015-.067-.029-.134-.046-.2C1269.6,149.485,1270.861,140.888,1272.6,133.685Z" transform="translate(-1265.429 -87.618)"/><g transform="translate(53.808 201.768)"><path class="f" d="M1252.968,308.549a65.121,65.121,0,0,1,1.727,8.023,3.005,3.005,0,0,0,.324.52c.028.039.059.076.089.111.328.392,1.317.722,1.728,1.031a22.173,22.173,0,0,0,3.549,2.571c1.087.625,2.388,1.623,2.035,2.836s-1.983,1.352-3.236,1.246c-3.474-.3-5.465-.6-8.937-.9a2.608,2.608,0,0,1-1.479-.429,2.5,2.5,0,0,1-.717-1.405,35.068,35.068,0,0,1-.709-5.058,43.614,43.614,0,0,0-1.864-8.025C1247.974,308.867,1250.469,308.679,1252.968,308.549Z" transform="translate(-1245.479 -308.549)"/><path class="i" d="M1245.479,319.615c.159,0,.306,2.668.709,4.327a1.625,1.625,0,0,0,.717,1.039c.4.327.957.2,1.479.245,3.472.3,5.464.512,8.937.811,1.253.106,2.885-.076,3.236-1.29s-.948-2.231-2.036-2.861a22.238,22.238,0,0,1-3.549-2.58c-.412-.312-1.4.085-1.728-.3-.03-.038-.061.614-.089.614Z" transform="translate(-1243.616 -309.608)"/></g><path class="k" d="M1279.058,149.768l5.126-10.217a2.232,2.232,0,0,0,.255-1.145c-.075-1.1-1-1.344-1.823-1.42a10.71,10.71,0,0,0-6.207,1.311c-.879,3.728-2.69,8.067-3.981,11.883a1.756,1.756,0,0,0,1.178,2.271c2.245.587,4.782.948,6.149-3.795Z" transform="translate(-1237.767 -89.384)"/><path class="f" d="M1275.7,157.893a30.434,30.434,0,0,0,.442,3.871c.48,2.575,1.44,6.275,3.849,6.428,2.693.165,8.9-4.344,12.5-6.845,4.5-3.128,8.626-7.4,13.07-11.114.267-.224.53-.429.789-.623.607-.455,1.2-.846,1.787-1.21a19.6,19.6,0,0,0,4.525-.635,8.724,8.724,0,0,0,3.1-1.377c.9-.686,4.268-8,3.447-8.574a1.579,1.579,0,0,0-.642-.215c-6.047-1.121-7.616,2.522-11.64,6.172-.466.421-.943.829-1.424,1.22-.228.191-.46.372-.693.553a30.144,30.144,0,0,1-17.543,6.7q1.244-11.017,2.491-22.04c.711-6.277-4.955-4.89-7.716-.514-.722,1.141-1.432,2.3-2.112,3.471a50.587,50.587,0,0,0-1.96,6.066A63.632,63.632,0,0,0,1275.7,157.893Z" transform="translate(-1275.647 -88.27)"/><path class="d" d="M1295.245,93.566a13.308,13.308,0,0,0-8.667-9.073,11.494,11.494,0,0,0-11.866,3.362,13.234,13.234,0,0,0-1.095,14.465,3.6,3.6,0,0,1,.187.386c1.348,2.372,3.025,4.607,5.454,5.252a14.75,14.75,0,0,0,6.607-2.86q3.177-2.331,6.355-4.664c1.346-.989,2.781-2.1,3.215-3.721A5.967,5.967,0,0,0,1295.245,93.566Z" transform="translate(-1248.563 -84.02)"/><path class="g" d="M1274.082,104.932c2.351,6.034,7.26,12.187,11.727,6.612.018-.024.038-.048.058-.072a16.666,16.666,0,0,0,3.5-12.827c-.741-5.039-2.7-9.289-8.642-5.844-1.389.805-8.306,10.122-6.066,11.529-.217-.135-.414-.253-.606-.358C1274.059,104.294,1274.068,104.612,1274.082,104.932Z" transform="translate(-1244.406 -84.783)"/><path class="g" d="M1284.219,117.685a14.851,14.851,0,0,1,1.352-3.38,58.112,58.112,0,0,0,3.607-9.139A3.35,3.35,0,0,1,1290.5,103a2.962,2.962,0,0,1,2.688.388c2.736,1.461,3.119,7.461,2.639,10.181q-.534,3.013-1.069,6.023a6.986,6.986,0,0,1-.629,2.162,4.21,4.21,0,0,1-3.3,2.038,6.844,6.844,0,0,1-3.862-.911,5.37,5.37,0,0,1-2.673-2.826A4.427,4.427,0,0,1,1284.219,117.685Z" transform="translate(-1259.892 -85.924)"/><path class="d" d="M1276.609,99.182a20.221,20.221,0,0,0,11.477-.934,7.433,7.433,0,0,0,3.118-2.029,3.341,3.341,0,0,0,.567-3.5,4.651,4.651,0,0,0-3.009-2.1c-5.407-1.58-11.649,1.361-13.605,6.409a2.052,2.052,0,0,0,.047,2.036c.464.567,1.692.243,1.475-.446Z" transform="translate(-1247.684 -84.645)"/><path class="g" d="M1291.324,101.792c-1.028-1.423-2.912-3-4.568-2.583-1.443.359-1.451,2.211-.242,3.285,1.246,1.107,3.4,1.36,4.5.529a1.08,1.08,0,0,0-.312-1.9Z" transform="translate(-1256.723 -85.553)"/><path class="e" d="M1290.161,157.893a30.479,30.479,0,0,0,.442,3.871c.48,2.575,1.441,6.275,3.849,6.428,2.693.165,8.9-4.344,12.5-6.845,4.5-3.128,8.626-7.4,13.07-11.114.267-.224.53-.429.789-.623a37.072,37.072,0,0,0-1.536-4.065,30.145,30.145,0,0,1-17.543,6.7q1.244-11.017,2.491-22.04c.711-6.277-4.955-4.89-7.716-.514-.722,1.141-1.432,2.3-2.113,3.471a50.584,50.584,0,0,0-1.96,6.066A63.62,63.62,0,0,0,1290.161,157.893Z" transform="translate(-1290.103 -88.27)"/><path class="l" d="M1273.552,165.346a7.5,7.5,0,0,0,.324-1.488,1.89,1.89,0,0,0-.553-1.512c-.956-1.1-.917-2-.858-3.461a19.369,19.369,0,0,1,.848-5.133,16,16,0,0,0,.611-6.732c-.056-.56.814-.554.868,0a15.259,15.259,0,0,1-.336,6,23.924,23.924,0,0,0-1.133,6.122,3.126,3.126,0,0,0,.751,2.695,2.023,2.023,0,0,1,.731,1.22,7.6,7.6,0,0,1-.417,2.522c-.229.988-.5,1.969-.781,2.941a.433.433,0,0,1-.835-.23C1273.058,167.315,1273.322,166.337,1273.552,165.346Z" transform="translate(-1228.351 -90.364)"/></g></g></g></svg>