<svg xmlns="http://www.w3.org/2000/svg" xmlns:xlink="http://www.w3.org/1999/xlink" width="60" height="60" viewBox="0 0 60 60"><defs><style>.a{fill:none;}.b{fill:#fff;stroke:#006cb4;}.c{clip-path:url(#a);}.d{fill:#feb6b9;}.e{fill:#b97b6e;}.f{fill:#ff6e8b;}.g{fill:#deebfd;}.h{fill:#f6be8f;}.i{fill:#4281f3;}.j{fill:#9e5d4e;}.k{fill:#9e5f4b;}.l{fill:#7089a1;}.m{stroke:none;}</style><clipPath id="a"><circle class="a" cx="29" cy="29" r="29"/></clipPath></defs><g transform="translate(-19 -73)"><g class="b" transform="translate(19 73)"><circle class="m" cx="30" cy="30" r="30"/><circle class="a" cx="30" cy="30" r="29.5"/></g><g class="c" transform="translate(20 74)"><ellipse class="a" cx="30.5" cy="31" rx="30.5" ry="31" transform="translate(-1 -4)"/><g transform="translate(-595.968 -92.616)"><g transform="translate(597.366 182.102)"><path class="d" d="M630.589,289.707a4.875,4.875,0,0,1-1.028,2.141,20.365,20.365,0,0,1-7.776,6.416,1.216,1.216,0,0,1-1.722-1c-.218-2.941,3.1-6.1,3.4-9.348a4.378,4.378,0,0,0-.027-1.185,8.1,8.1,0,0,0-1.367-3c-6.234-9.672-14.59-17.265-17.2-28.939-1.352-6.048.728-14.106,1.9-20.092a122.361,122.361,0,0,1,5.845-20.444l11.691,3.722a35.369,35.369,0,0,1-.14,3.88l4.943.325c-1.334,1.281-7.672,17.669-12.017,29.211-.044.536-.078,1.072-.1,1.616-.115,3.6,1.049,7.3,2.628,11.183,2.5,6.127,5.026,12.131,9.012,17.994v.018c.8,1.36.8,2.721,1.549,4.064A5.262,5.262,0,0,1,630.589,289.707Z" transform="translate(-604.43 -214.254)"/></g><g transform="translate(612.991 250.049)"><path class="e" d="M636.629,315.971a4.873,4.873,0,0,1-1.028,2.141,20.364,20.364,0,0,1-7.776,6.416,1.216,1.216,0,0,1-1.722-1c-.219-2.941,3.1-6.1,3.4-9.348a3.094,3.094,0,0,0,2.336-.7c1.343-1.212,1.64-3.178,1.562-5.012.71,1.36,1.44,2.721,2.185,4.064A5.679,5.679,0,0,1,636.629,315.971Z" transform="translate(-626.094 -308.466)"/></g><g transform="translate(612.767 98.921)"><path class="f" d="M626.819,108.14c2.47-6.8,6.947-10.383,14.459-8.88,1.877.374,3.928,1.082,4.823,2.862,1,1.98.154,4.436.582,6.631.482,2.461,2.316,4.411,4.162,5.947,1.037.861,1.976,2.287,1.338,3.474a3.994,3.994,0,0,1-2.316,1.458c-.873.331-1.827.938-1.86,1.871-.013.353.115.7.067,1.052-.1.716-.85,1.126-1.525,1.384a21.264,21.264,0,0,1-10.026,1.263C627.418,124.144,623.821,116.4,626.819,108.14Z" transform="translate(-625.784 -98.921)"/></g><g transform="translate(595.113 124.011)"><path class="g" d="M623.858,133.768a17.027,17.027,0,0,0-5.339,1.468,12.645,12.645,0,0,0-5.247,5.886c-1.173,2.4-1.895,5-2.845,7.5-1.04,2.741-2.187,5.843-4.132,8.072-1.364,1.559-3.127,2.2-4.162,4.181-2.421,4.616.743,9.951,5.851,10.649,3.914.535,7.833-1.584,10.386-4.6s3.954-6.825,5.1-10.607c1.8-5.934,2.86-12.016,4.24-18.038.6-2.631,2.029-2.79-.633-4.169A6.1,6.1,0,0,0,623.858,133.768Z" transform="translate(-601.306 -133.709)"/></g><g transform="translate(610.617 161.818)"><g transform="translate(40.474)"><path class="h" d="M680.12,187.057a2.456,2.456,0,0,1-1.2-.927A2.994,2.994,0,0,1,680.12,187.057Z" transform="translate(-678.921 -186.13)"/></g><g transform="translate(0 17.089)"><path class="d" d="M647.588,217.9c-1.581,7.232-1.607,14.737-3.064,22.014-1.458,7.224-2.537,9.664-2.871,17.022-.4,8.646.295,18.321-1.693,26.27-.667,3.238-1.421,5.969-1.421,9.322v.052c0,.413.255.93.289,1.457a3.619,3.619,0,0,1-.86,2.916,28.183,28.183,0,0,1-9.542,1.465c-.281-.035-.547-.07-.83-.114-.745-.106-2.531-.229-3.548-.351-.2-.044-.4-.1-.61-.158a1.211,1.211,0,0,1-.157-2.027c2.448-1.854,6.348-2.941,8.454-4.917a4.287,4.287,0,0,0,1.439-2.527c1.607-10.516-2.062-27.676-2.527-38.324-.237-5.477-.641-6-.58-11.49.105-9.532.808-19.363,3.221-28.684,2.405,2.642,5.881,4.178,9.12,5.583A46.465,46.465,0,0,1,647.588,217.9Z" transform="translate(-622.802 -209.824)"/></g></g><g transform="translate(594.56 122.545)"><path class="i" d="M635.714,133.518a10.37,10.37,0,0,0-6.612-1.768c-4.748.767-8.262,5.335-10.618,9.167-4.575,7.443-4.014,14.424-5.577,22.721-3.476,18.076-11.231,38.066-12.346,56.684a3.431,3.431,0,0,0,.3,2.042,3.257,3.257,0,0,0,1.477,1.088c5.728,2.655,10.77,3.808,16.915,3.256,5.173-.463,7.617,1.559,12.176,3.761,3.7,1.789,8.251,3.31,11.891,1.394s5.944-6.477,4.572-10.356c-.78-2.2-2.537-3.89-3.942-5.758-3.385-4.507-1.475-14.678-1.564-20.314-.138-8.718,3.089-16.678,2.893-25.345a160.384,160.384,0,0,0-3.012-26.774,17.392,17.392,0,0,0-1.331-4.585A14.234,14.234,0,0,0,635.714,133.518Z" transform="translate(-600.538 -131.676)"/></g><g transform="translate(617.492 104.35)"><path class="d" d="M644.8,106.449s4.965,8.875.91,13.3c-1.18,1.287-4.371,1.093-4.371,1.093l1.393,5.572a3.022,3.022,0,0,1-1.035,3.1c-1.515,1.2-3.353,2.084-5.243,1.4-1.245-.45-4.2-2.145-4.112-3.691.108-2.04,2.536-4.057,3.5-5.753a12.368,12.368,0,0,0,1.556-7.346c0-.022-.431-4.21-.431-4.21S642.428,109.909,644.8,106.449Z" transform="translate(-632.336 -106.449)"/></g><g transform="translate(619.246 153.672)"><path class="e" d="M675.9,190.776a59.791,59.791,0,0,0-9.009-15.018,2.533,2.533,0,0,0-4.109.278c-2.678,4.3-7.757,7.095-12.456,9.443-4.9,2.447-10.074,4.948-15.448,5.31,0,.009-.007.018-.009.027-.024.092-.043.184-.063.277,0,.019-.037.332-.035.441,0,.307-.009.612.006.919.011.243.032.484.056.726a1.532,1.532,0,0,1,.01.172c.01.043.025.118.048.244a39.9,39.9,0,0,0,2.164,7.272c.133.342.239.612.337.852q.419.979.847,1.952.549,1.219,1.142,2.422c1.269,2.574,2.529,5.165,4.645,7.111.081.009.16.019.242.021a36.167,36.167,0,0,0,31.4-17.807,5.289,5.289,0,0,0,.808-2.133A5.468,5.468,0,0,0,675.9,190.776Z" transform="translate(-634.768 -174.835)"/></g><g transform="translate(634.048 129.607)"><path class="e" d="M657.117,141.469q6.648,11.936,13.3,23.87a1.973,1.973,0,0,1-.067,2.665l-2.824,4.086c-1.988-1.779-3.022-4.363-3.988-6.849q-3.865-9.933-7.728-19.864a3.97,3.97,0,0,1-.31-3.077c.458-.959,2.182-1.158,2.441-.128Z" transform="translate(-655.29 -141.469)"/></g><g transform="translate(627.677 125.94)"><path class="g" d="M656.93,142.638Q656,141.5,655,140.431c-.744-.8-1.522-1.56-2.327-2.295a17.051,17.051,0,0,0-3.325-1.753,3.532,3.532,0,0,0-1.765,1.605,13.655,13.655,0,0,0-.942,7.856,24.577,24.577,0,0,0,1.016,4.223c.251.769.531,1.522.83,2.259,1.856,4.571,4.4,8.958,5.1,13.84.548,3.848-.068,7.914,1.356,11.529s6.308,6.3,9.2,3.707a7.716,7.716,0,0,0,2.014-4.546C668.307,164.84,664.608,152.078,656.93,142.638Z" transform="translate(-646.457 -136.384)"/></g><g transform="translate(579.092 132.852)"><g transform="translate(0 0.216)"><path class="d" d="M601.448,172.445a4.3,4.3,0,0,0,.807-4.479c-.815-2.285-14.973-12.112-14.618-12.8a4.826,4.826,0,0,0,.267-.436,2.2,2.2,0,0,0,.322-1.456,3.782,3.782,0,0,0-1.709-1.921l-.209-.147c-2.094-1.466-4.6-3.346-6.761-4.884a.287.287,0,0,0-.442.315,17.352,17.352,0,0,1,.537,1.724c1.53,9.864,8.593,18.352,16.114,24.377A4.086,4.086,0,0,0,601.448,172.445Z" transform="translate(-579.092 -146.268)"/></g><g transform="translate(9.704 9.344)"><path class="j" d="M592.592,158.923c-.013.047-.03.089-.045.133l.123-.076Z" transform="translate(-592.547 -158.923)"/></g><g transform="translate(1.211)"><path class="j" d="M580.771,147.314q3.057,4.227,6.42,8.222a2.191,2.191,0,0,0,.673-1.329,3.766,3.766,0,0,0-1.178-2.286l-.166-.194q-2.4-2.8-4.785-5.588a.485.485,0,0,0-.849.247Q580.817,146.85,580.771,147.314Z" transform="translate(-580.771 -145.968)"/></g></g><g transform="translate(622.872 157.92)"><path class="k" d="M669.081,181.081c-.037-.472-.779-.477-.741,0a69.675,69.675,0,0,1,.272,11.228,26.984,26.984,0,0,1-1.018,5.572,8.657,8.657,0,0,1-1.013,2.487,3.488,3.488,0,0,1-3.082,1.2c-3.889-.008-7.649-1.477-11.281-2.709l-10.4-3.525a29.3,29.3,0,0,1-1.292-3.279c-.146-.454-.861-.26-.715.2q.121.38.26.751a3.636,3.636,0,0,1,.665,1.078,18.354,18.354,0,0,1,.627,1.88l.011,0c.426.856.875,1.7,1.316,2.551l3.408,6.554c1.089,2.094,2.1,4.251,3.287,6.293a4.58,4.58,0,0,0,3.338,2.668c.473.055.47-.687,0-.741-2.009-.233-2.9-2.67-3.713-4.226l-2.953-5.68c-1.22-2.343-2.617-4.7-3.8-7.12q5.561,1.887,11.123,3.772a52.24,52.24,0,0,0,6.192,1.818,13.484,13.484,0,0,0,5.5.305,3.779,3.779,0,0,0,2.737-2.642,24.053,24.053,0,0,0,1.373-5.659A61.574,61.574,0,0,0,669.081,181.081Z" transform="translate(-639.795 -180.725)"/></g><g transform="translate(618.869 169.407)"><path class="e" d="M634.244,196.652a6.842,6.842,0,0,0,.746.314c0,.1.007.195.01.294Z" transform="translate(-634.244 -196.652)"/></g><g transform="translate(619.478 129.988)"><path class="e" d="M653.761,144.2c-3.932.593-7.2,3.881-9.271,7.43-.049.081-.1.166-.144.247-5.08,8.953-5.294,19.769-5.109,30.058a7.109,7.109,0,0,1-4.012-.21c-.192-5.433-.356-10.932.794-16.244a62.288,62.288,0,0,1,3.677-10.722,36.645,36.645,0,0,1,3.777-7.353c.131-.188.269-.374.41-.557a12.15,12.15,0,0,1,7.341-4.8,4.421,4.421,0,0,1,.608-.057Q652.835,143.064,653.761,144.2Z" transform="translate(-635.089 -141.996)"/></g><g transform="translate(618.507 162.76)"><path class="d" d="M654.14,189.606a23.071,23.071,0,0,0-5.765-1.623,54.612,54.612,0,0,0-9.743-.527c-1,.02-6.677-.005-4.322,1.557.665.441,1.849.165,2.628.664,1.979,1.268,3.5,3.374,5.263,4.919a17,17,0,0,0,3.775,2.656c3.005,1.439,10.465,2.2,13.206-.133C662.571,194.231,656.259,190.559,654.14,189.606Z" transform="translate(-633.742 -187.436)"/></g><g transform="translate(615.659 160.678)"><path class="d" d="M636.578,184.734c-1.721-1.021-6.173,2.467-6.689,3.968a1.607,1.607,0,0,0,.559,1.868,2.461,2.461,0,0,0,2.169-.017,7.7,7.7,0,0,1,2.114-.726,3.826,3.826,0,0,1,1.819.382,3.164,3.164,0,0,0,3.97-1.234l.167-.288,1.378.446a2.86,2.86,0,0,0,0-.432A30.229,30.229,0,0,0,636.578,184.734Z" transform="translate(-629.794 -184.55)"/></g><g transform="translate(619.338 256.079)"><path class="l" d="M635.765,317.072c-.289.027-.579.071-.87.123a3.5,3.5,0,0,1,.141-.369Z" transform="translate(-634.895 -316.827)"/></g><g transform="translate(610.617 259.932)"><path class="e" d="M638.828,325.355a3.619,3.619,0,0,1-.86,2.916,28.183,28.183,0,0,1-9.542,1.465c-.281-.035-.547-.07-.83-.114-.745-.106-2.531-.229-3.548-.351-.2-.044-.4-.1-.61-.158a1.211,1.211,0,0,1-.157-2.027c2.448-1.854,6.348-2.941,8.454-4.917a4.35,4.35,0,0,0,2.106,2.388c1.6.711,3.9.351,4.7-.71v.052C638.539,324.311,638.794,324.829,638.828,325.355Z" transform="translate(-622.802 -322.169)"/></g></g></g></g></svg>