<svg xmlns="http://www.w3.org/2000/svg" xmlns:xlink="http://www.w3.org/1999/xlink" width="60" height="60" viewBox="0 0 60 60"><defs><style>.a{fill:none;}.b{fill:#fff;stroke:#006cb4;}.c{clip-path:url(#a);}.d{fill:#b2adaa;}.e{fill:#feac96;}.f{fill:#feb6b9;}.g{fill:#ffe7e4;}.h{fill:#65372f;}.i{fill:#41657c;}.j{fill:#9e5d4e;}.k{fill:#f6be8f;}.l{opacity:0.42;}.m{fill:#ce8b7e;}.n{opacity:0.51;mix-blend-mode:multiply;isolation:isolate;}.o{fill:#9e5f4b;}.p{stroke:none;}</style><clipPath id="a"><circle class="a" cx="29" cy="29" r="29"/></clipPath></defs><g transform="translate(-19 -73)"><g class="b" transform="translate(19 73)"><circle class="p" cx="30" cy="30" r="30"/><circle class="a" cx="30" cy="30" r="29.5"/></g><g class="c" transform="translate(20 74)"><ellipse class="a" cx="30.5" cy="31" rx="30.5" ry="31" transform="translate(-1 -4)"/><g transform="translate(-8.71 7.451)"><g transform="translate(21.661 0)"><path class="d" d="M164.3,538.347c-8.552-1.712-17.758,4.2-15.958,13.611.281,1.462.909,2.939.548,4.384-.649,2.616-4.111,3.638-5.02,6.178-.917,2.566,1.323,5.29,3.857,6.3,3.561,1.422,7.662,2.227,11.328,3.387a34.522,34.522,0,0,0,11.14,1.651,11.925,11.925,0,0,0,3.031-.378c3.441-1.046,5.239-5.081,4.945-8.664s-2.179-6.817-4.014-9.911c-1.132-1.9-2.869-3.971-3.346-6.128-.511-2.311.572-4.639-.571-6.91C169.134,539.678,166.61,538.81,164.3,538.347Z" transform="translate(-143.655 -538.053)"/></g><g transform="translate(40.865 29.013)"><path class="e" d="M117.179,580.487c.723,11.224,7,21.576,14.468,29.666,4.755,5.145,9.592,11.531,16.559,13.71,3.142.983,4-2.873,4.766-5.245,2.677-8.255,1.419-15.891-.435-23.736-.234-.995-.479-1.995-.727-3-.15-.608-.3-1.218-.452-1.829-.008-.037-.018-.074-.026-.111-.164-.656-.319-1.311-.482-1.973-.949-3.986.485-5.932,1.425-9.813.266-1.1,1.746-5.994-1.012-5.066-.814.27-6.4,8.645-6.915,9.937a5.64,5.64,0,0,0-.163,2.55c.123,1.483-.036,2.971-.024,4.463.008.96-.275,1.955-.275,2.916v.029c0,.955.12,1.936.032,2.888a58.57,58.57,0,0,1-.718,5.915c-.16-.392-.265-.782-.43-1.174-.182-.42-.338-.841-.524-1.263-.174-.4-.34-.8-.523-1.2s-.362-.8-.551-1.2c-.035-.071-.065-.146-.1-.219-.169-.362-.341-.723-.52-1.08-.731-1.471-1.5-2.916-2.332-4.326-.109-.188-.218-.376-.332-.564q-.556-.935-1.155-1.845c-.1-.152-.2-.307-.3-.457-.117-.181-.238-.36-.363-.538a1,1,0,0,0-.088-.128c-.124-.185-.249-.363-.38-.544-.082-.119-.164-.238-.252-.356-.066-.1-.136-.191-.209-.285-.134-.191-.27-.372-.411-.558-.032-.045-.064-.09-.1-.131-.15-.2-.3-.4-.462-.6-.048-.07-.1-.136-.155-.2-.151-.194-.306-.385-.464-.579-.025-.032-.054-.067-.085-.1-.178-.217-.361-.438-.549-.655a.459.459,0,0,0-.066-.074c-.128-.157-.26-.308-.393-.459-.091-.1-.182-.206-.277-.311q-.927-1.031-1.923-2.007a26.231,26.231,0,0,0-6.6-4.766c-2.393-1.077-4.763-1.228-6.034,1.211A5.84,5.84,0,0,0,117.179,580.487Z" transform="translate(-117.15 -572.971)"/></g><g transform="translate(67.602 29.013)"><g transform="translate(0)"><path class="f" d="M119.388,585.575c.123,1.483-.036,2.971-.024,4.463.008.96-.275,1.955-.275,2.916v.029c4.493.675,5.48.225,7.7-1.1-.151-.608-.19-1.218-.339-1.829-.008-.037.037-.074.029-.111-.161-.656-.292-1.311-.452-1.973-.951-3.986.5-5.932,1.437-9.813.266-1.1,1.751-5.994-1-5.066-.815.27-5.86,7.309-6.379,8.605A13.275,13.275,0,0,0,119.388,585.575Z" transform="translate(-119.089 -572.971)"/></g></g><g transform="translate(67.602 45.982)"><g transform="translate(0)"><path class="g" d="M119.627,599.325a23.608,23.608,0,0,0,7.557-.612,2.049,2.049,0,0,0,1-.377c-.233-.995-.451-1.995-.7-3-.151-.608-.287-1.218-.436-1.829-.01-.037-.013-.074-.021-.111-2.32,0-4.848.082-7.166.1.009.96-.272,1.955-.272,2.916v.029C119.6,597.392,119.715,598.373,119.627,599.325Z" transform="translate(-119.595 -593.394)"/></g></g><g transform="translate(70.708 23.79)"><g transform="translate(0)"><path class="h" d="M124.129,566.86a.06.06,0,0,0,.013.009.814.814,0,0,1,.236,1.028,83.159,83.159,0,0,1-8.4,12.511,41.005,41.005,0,0,0,1.5-5.123c1.613-1.59,3.976-5.607,5.442-8.2A.809.809,0,0,1,124.129,566.86Z" transform="translate(-115.982 -566.685)"/></g></g><g transform="translate(72.186 79.033)"><g transform="translate(0)"><path class="i" d="M116.386,633.778c.809.6,1.762.849,2.452-.6,1.582,6.54,3.712,13.352,4.223,19.924-1.182-.052-2.365-.089-3.55-.1h1.343Z" transform="translate(-116.386 -633.173)"/></g></g><g transform="translate(21.815 196.982)"><path class="f" d="M165.09,798.23c2.787.531,6.71-2.788,8.892-4.056,1.4-.806,4.322-1.953,5.078-3.368a5.932,5.932,0,0,0,.292-2.884c-.037-.6-.086-1.189-.086-1.653,0-3.841,1.462-6.951,2.221-10.641a44.188,44.188,0,0,1-8.188-.5l-.533,5.282a5.508,5.508,0,0,1-.067,1.018,43.668,43.668,0,0,1-.717,4.589c-.429,1.563-1.749,2.814-2.844,4.083-.453.523-1.678,1.742-2.811,3.085C164.5,795.34,162.894,797.813,165.09,798.23Z" transform="translate(-164.027 -775.13)"/></g><g transform="translate(21.815 209.774)"><path class="i" d="M167.615,800.834c2.787.531,6.71-2.788,8.892-4.056,1.4-.806,4.322-1.953,5.078-3.367a5.932,5.932,0,0,0,.292-2.884,40.982,40.982,0,0,1-11.3,6.207c-.509.184-1.2.3-1.486-.155-.15-.233-.125-.538-.235-.789C167.022,797.944,165.419,800.417,167.615,800.834Z" transform="translate(-166.552 -790.526)"/></g><g transform="translate(50.869 196.982)"><path class="f" d="M145.457,798.23c-2.787.531-6.708-2.788-8.893-4.056-1.394-.806-4.32-1.953-5.077-3.368a5.961,5.961,0,0,1-.293-2.884c.037-.6.088-1.189.088-1.653,0-3.841-1.462-6.951-2.223-10.641a44.177,44.177,0,0,0,8.187-.5l.534,5.282a5.507,5.507,0,0,0,.066,1.018,44.332,44.332,0,0,0,.717,4.589c.43,1.563,1.751,2.814,2.845,4.083.452.523,1.678,1.742,2.813,3.085C146.05,795.34,147.654,797.813,145.457,798.23Z" transform="translate(-129.059 -775.13)"/></g><g transform="translate(52.967 209.774)"><g transform="translate(0)"><path class="i" d="M143.359,800.834c-2.787.531-6.708-2.788-8.893-4.056-1.394-.806-4.32-1.953-5.077-3.367a5.962,5.962,0,0,1-.293-2.884,41.021,41.021,0,0,0,11.3,6.207c.509.184,1.2.3,1.487-.155.148-.233.125-.538.236-.789C143.952,797.944,145.556,800.417,143.359,800.834Z" transform="translate(-129.059 -790.526)"/></g></g><g transform="translate(18.278 87.841)"><path class="e" d="M174.453,648.495c6.086,33.979,6.657,68.708,4.316,103.15a4.245,4.245,0,0,1-.554,2.179c-.7,1.006-2.086,1.2-3.312,1.279a86.519,86.519,0,0,1-10.03-.035c-1.26-23.228-4.407-40.308-2.552-60.588.928,19.873-1.667,39.859-5.745,59.34a1.83,1.83,0,0,1-1.713,1.447c-3.355.138-6.232.275-9.535.414a1.825,1.825,0,0,1-1.9-1.884c.626-19.549-2.056-39.146-4.289-58.577-1.378-11.965-3.5-23.53-4.23-35.58-.2-3.361-1.261-13.79,1.986-15.7,1.018-.6,4.718.591,5.8.747q16.388,2.379,32.774,4.748-.769,1.121-1.531,2.238Z" transform="translate(-134.583 -643.773)"/></g><g transform="translate(12.612 29.649)"><path class="g" d="M143.135,581.427a35.149,35.149,0,0,1,7.975-5.241,24.747,24.747,0,0,1,4.11-1.6,24.005,24.005,0,0,1,2.408-.6,8.921,8.921,0,0,1,1.872-.231,16.119,16.119,0,0,1,1.984.012l.44.042c.039,0,.084.012.144.022.355.067.7.141,1.052.236.278.077.557.169.829.268-.025.005.593.278.676.322a9.794,9.794,0,0,1,.9.561l.052.037c.136.115.27.234.4.355a2.825,2.825,0,0,0,3.309.458c7.269,6.529,9.568,17.378,10.668,26.749.717,6.106.842,12.088,2.253,18.048,1.826,7.715,8.592,27.6-1.261,31.672a29.65,29.65,0,0,1-17.4,1.112c-3.084-.658-6.17-1.308-9.067-2.13-8.561-2.432-15.5-6.385-15.929-16.623q-.521-12.487-1.053-24.975c-.379-9.008-.65-18.5,3.594-26.492Q142.063,582.382,143.135,581.427Z" transform="translate(-137.3 -573.736)"/></g><g transform="translate(24.353 95.461)"><g transform="translate(0)"><path class="j" d="M181.805,652.944a11.142,11.142,0,0,1-.9,1.28c.027.151.059.307.091.462Z" transform="translate(-180.907 -652.944)"/></g></g><g transform="translate(19.649 107.528)"><g transform="translate(0)"><path class="g" d="M184.552,668.449a29.113,29.113,0,0,1-9.84,9.526c1.04,2.651,2.236,5.494,4.69,6.933a.986.986,0,0,0,.824.179,1.043,1.043,0,0,0,.43-.395c3.338-4.493,5.756-10.192,4.44-15.634a2.06,2.06,0,0,0-1.072-1.59Z" transform="translate(-174.712 -667.468)"/></g></g><g transform="translate(29.917 7.216)"><g transform="translate(0)"><path class="k" d="M163.931,565.007l1.772,9.206a3.868,3.868,0,0,1-1.345,3.967,10.62,10.62,0,0,1-3.314,1.84,7.334,7.334,0,0,1-4.142-2.7,2.1,2.1,0,0,1-.335-.425c-.179-.258-.355-.518-.521-.784a16.947,16.947,0,0,1-.916-1.687,19.907,19.907,0,0,1-1.121-3.029c-.157-.526-.3-1.069-.43-1.611.013-.012.019-.027.033-.039.136-.141.275-.271.414-.392,2.011-1.722,4.475-3.706,4.986-7,.468-3.024-.219-7.555-.329-10.6.013-.047.032-.091.046-.139a13.441,13.441,0,0,0,5.736-3.046,15.736,15.736,0,0,0,2.241-1.831l3.08,1.234c2.356,4.882,2.634,12.456-.291,15.644C167.994,565.253,163.931,565.007,163.931,565.007Z" transform="translate(-153.578 -546.738)"/></g></g><g transform="translate(12.611 28.212)"><path class="e" d="M169.17,609.635c.352,8.326,1.441,16.651,1.053,24.975-1.658,35.65,7.368,14.191,15.929,16.623a70.169,70.169,0,0,0,3.12-14c2.664-18.846,3.23-38.07.281-56.875a16.532,16.532,0,0,0-2.271-6.992c-.191-.281,1.519-1.1,1.285-1.357-5.634,1.173-12.914,5.806-15.689,10.917C168.513,590.963,168.785,600.545,169.17,609.635Z" transform="translate(-168.972 -572.007)"/></g><g transform="translate(0 38.289)"><path class="f" d="M178.184,624.767a7.483,7.483,0,0,0,1.961,3.329q7.307,8.566,14.618,17.127c.677.8,1.363,1.6,1.966,2.458a12.493,12.493,0,0,1,1.023,1.7c1.344,2.708,1.448,5.838,2.194,8.766s2.527,5.986,5.479,6.63c.925-6.988-.69-13.775-3.466-20.292a122.772,122.772,0,0,0-9.49-17.11c-.008.5-.02,1-.031,1.509l-.446-1.586a.965.965,0,0,0,.366-.407c5.025-9.265,9.455-19.172,10.108-29.693.223-3.611.116-14.358-6.02-12.926a6.35,6.35,0,0,0-2.867,1.837c-5.728,5.608-8.286,13.611-10.64,21.27q-2.129,6.946-4.264,13.883A7.473,7.473,0,0,0,178.184,624.767Z" transform="translate(-178.117 -584.135)"/></g><g transform="translate(0 38.289)"><path class="e" d="M181.991,624.767a7.483,7.483,0,0,0,1.961,3.329q7.307,8.566,14.618,17.127c.677.8,1.363,1.6,1.966,2.458a22.935,22.935,0,0,0,5.229-3.2,122.773,122.773,0,0,0-9.49-17.11c-.008.5-.02,1-.031,1.509l-.446-1.586a.965.965,0,0,0,.366-.407c5.025-9.265,9.455-19.172,10.108-29.693.224-3.611.116-14.358-6.02-12.926a6.35,6.35,0,0,0-2.867,1.837c-5.728,5.608-8.286,13.611-10.64,21.27q-2.129,6.946-4.264,13.883A7.473,7.473,0,0,0,181.991,624.767Z" transform="translate(-181.924 -584.135)"/></g><g class="l" transform="translate(25.918 28.872)"><g transform="translate(0)"><path class="m" d="M178.27,617.1c-.652-1.548-1.362-3.078-1.943-4.655a.406.406,0,0,0,.018-.278q-1.691-6.07-3.381-12.132c-.52-1.869-1.544-4.125-1.038-6.078.371-1.417,1.568-2.507,1.685-4.007a2.578,2.578,0,0,0-.9-2.325,2.074,2.074,0,0,0-1.092-.321,5.022,5.022,0,0,1-.9.033c-.98-.307-.569-1.187-.446-1.8q1.254-6.187,2.594-12.349a.313.313,0,0,0-.15-.363c-.212-.128-.567.234-.636.557-.033.149-.075.769-.091.769h0c-.9,1.5-1.733,7.783-2.555,11.843-.2.961-.489,1.936.735,2.236.6.152,1.32-.253,1.9.016.99.459.821,1.845.488,2.636-.612,1.456-1.583,2.514-1.558,4.179a19.3,19.3,0,0,0,1.084,4.785q1.482,5.317,2.961,10.629a.413.413,0,0,0-.08.38c.769,2.761,2.132,5.307,3.152,7.97Z" transform="translate(-169.258 -572.801)"/></g></g><g transform="translate(41.167 28.862)"><path class="e" d="M134.336,573.415a.459.459,0,0,1,.588-.6,10.292,10.292,0,0,1,1.918.774c7.632,5.307,12.891,13.342,13.169,22.987.152,5.246,1.633,10.528,2.611,15.763a243.711,243.711,0,0,1,4.486,38.725,1.589,1.589,0,0,1-2.638,1.228,48.123,48.123,0,0,1-15.041-25.543c-.862-3.859-1.949-7.825-2.544-11.707-.705-4.606-.2-9.62-.415-14.294q-.338-7.5-1.1-14.968c-.142-1.4-.255-7.927-.892-11.656A1.383,1.383,0,0,0,134.336,573.415Z" transform="translate(-134.303 -572.79)"/></g><g transform="translate(44.159 29.817)"><g transform="translate(0)"><path class="m" d="M152.315,620.534c.673-2.767,1.7-5.47,2.112-8.305a.411.411,0,0,0-.13-.37q.794-5.461,1.584-10.922a19.325,19.325,0,0,0,.466-4.895c-.189-1.656-1.288-2.6-2.082-3.964-.43-.742-.778-2.126.147-2.71.538-.337,1.292-.1,1.871-.323,1.176-.454.744-1.8.427-2.73-1.331-3.919-2.695-10.474-4.076-11.97h0c-.047,0-.1-.057-.151-.2-.109-.312-.474-.215-.67-.061a.424.424,0,0,0-.1.449c1.407,3.966,2.793,7.969,4.145,11.955.2.591.72,1.429-.214,1.858a4.631,4.631,0,0,1-.891.09,2.085,2.085,0,0,0-1.043.462,2.6,2.6,0,0,0-.6,2.424c.308,1.472,1.634,2.4,2.183,3.761.752,1.871.022,4.242-.253,6.16q-.907,6.228-1.81,12.464a.4.4,0,0,0,.051.273c-.375,1.64-.886,3.245-1.335,4.864Z" transform="translate(-151.685 -573.938)"/></g></g><g transform="translate(56.209 57.706)"><g transform="translate(1.764)"><path class="i" d="M138.747,607.505c.106.032.215.056.327.08.11.508.271,1.017.442,1.6a5.281,5.281,0,0,0-.085.546c-.776,4.795-6.047,37.181-7.052,39.934l-2.735-.938C133.814,634.984,134.991,621.245,138.747,607.505Z" transform="translate(-129.643 -607.505)"/></g><g transform="translate(0 40.227)"><path class="i" d="M107.952,657.714a2.636,2.636,0,0,1,.866-1.613c.516-.358,3.917-.168,3.785.422-.12.53-.238,1.061-.36,1.594,1.045-.155,2.095-.287,3.142-.409l.7-.035,14.192,4.694c-.111-1.72-.238-3.437-.369-5.155.349.014.7.024,1.054.044a85.183,85.183,0,0,1,6.579,28.616,188.644,188.644,0,0,0-28.907,2.949q-.578-9.281-.635-18.582c-.02-3.177-.727-6.389-.385-9.568A23.188,23.188,0,0,1,107.952,657.714Z" transform="translate(-107.518 -655.92)"/></g><g class="n" transform="translate(1.897 45.294)"><path class="o" d="M113.678,662.307c1.26,6.385,6.009,11.15,10.928,15.056,1.392,1.1,3.345,3.061,5.271,2.232,1.542-.662,2.277-2.542,2.852-3.988a54.411,54.411,0,0,0,3.044-10.846c.09-.506.859-.29.772.214a47.885,47.885,0,0,1-3.659,12.3,5.906,5.906,0,0,1-2.739,3.09c-1.584.66-3.088-.154-4.359-1.09-5.683-4.187-11.458-9.538-12.881-16.758C112.807,662.017,113.58,661.8,113.678,662.307Z" transform="translate(-112.898 -662.018)"/></g><g transform="translate(1.719 39.565)"><path class="i" d="M114.071,657.263a2.507,2.507,0,0,1,2.523-1.95c2.007-.132,3.463,1.559,5.305,2.032,4.485,1.157,9.269-4.673,13.5-.98a.377.377,0,0,1,.121.189.469.469,0,0,1,.091.119c1.748,3.461,2.081,7.972-1.119,10.722-3.6,3.1-7.617.372-10.821-1.846l-6.709-4.646C115.769,660.073,113.856,659,114.071,657.263Z" transform="translate(-114.054 -655.123)"/></g></g><g transform="translate(13.444 38.406)"><g transform="translate(0)"><path class="m" d="M181.712,626.863c.025-.037.051-.08.074-.121l.085-.161.021-.04.007-.282.076.123.242-.451c.229-.431.46-.863.685-1.3.449-.867.893-1.738,1.325-2.616.863-1.755,1.7-3.525,2.462-5.321s1.49-3.614,2.112-5.461,1.191-3.713,1.633-5.609a47.9,47.9,0,0,0,1.027-5.736l.087-.722.059-.725c.035-.484.082-.968.11-1.449.047-.963.051-1.933.016-2.9-.006-.1-.011-.194-.016-.291.019-.114.037-.23.051-.352a14.944,14.944,0,0,0-2.28-9.174,4.926,4.926,0,0,1,1.077,1.021,8.727,8.727,0,0,1,1.368,2.813,23.389,23.389,0,0,1,.837,5.951c.025,1,.012,1.987-.047,2.986-.032.5-.084.987-.126,1.485l-.07.738-.1.739a48.826,48.826,0,0,1-1.109,5.832c-.467,1.923-1.062,3.81-1.715,5.671s-1.392,3.693-2.181,5.5-1.642,3.582-2.523,5.343q-.661,1.316-1.357,2.621c-.228.436-.464.863-.7,1.3l-.351.645-.086.159.086.136c1.735,2.768,3.453,5.553,5.061,8.4q.6,1.069,1.185,2.152t1.131,2.179l.544,1.1.526,1.112.5,1.119.194.453c-.052-.019-.1-.042-.161-.06a2.214,2.214,0,0,0-.464-.094l-.039-.087-.516-1.1-.532-1.1-.548-1.09c-.373-.724-.755-1.442-1.144-2.157s-.789-1.424-1.194-2.13c-1.437-2.5-2.961-4.946-4.511-7.379l0,.38,0,.11c-.357-.578-.755-1.143-1.162-1.719l-.057-.206.281-.1A.425.425,0,0,0,181.712,626.863Z" transform="translate(-181.305 -584.276)"/></g></g><g transform="translate(15.403 94.852)"><g transform="translate(0)"><path class="g" d="M182.185,655.958a2.371,2.371,0,0,1,.395-.455,14.8,14.8,0,0,1,5.874-3.172,2.475,2.475,0,0,1,.437-.076c.172-.012.343-.028.513-.042l.072.005.012.017c.131.206.34.534.472.74l.821,1.948a2.4,2.4,0,0,1-1.419,3.195,10.688,10.688,0,0,0-3.78,2.282A12.031,12.031,0,0,1,182.185,655.958Z" transform="translate(-182.185 -652.212)"/></g></g><g transform="translate(28.758 106.493)"><g transform="translate(0)"><path class="g" d="M176.364,667.758a25.768,25.768,0,0,1-1.586,4.457q.262-2.992.343-5.993Z" transform="translate(-174.778 -666.222)"/></g></g><g transform="translate(21.823 112.486)"><path class="g" d="M178.37,685.679c-.638-.984-1.142-2.037-1.683-3.073a26.893,26.893,0,0,0,6.934-9.171,101.885,101.885,0,0,1-1.491,10.715,4.807,4.807,0,0,1-.768,2.1,3.027,3.027,0,0,1-2.6,1.048A2.62,2.62,0,0,0,178.37,685.679Z" transform="translate(-176.687 -673.435)"/></g></g></g></g></svg>