<svg xmlns="http://www.w3.org/2000/svg" xmlns:xlink="http://www.w3.org/1999/xlink" width="60" height="60" viewBox="0 0 60 60"><defs><style>.a{fill:none;}.b{fill:#fff;stroke:#006cb4;}.c{clip-path:url(#a);}.d{fill:#cddeec;}.e{fill:#f6be8f;}.f{fill:#1a406a;}.g{fill:#0361f3;}.h{fill:#b97b6e;}.i{fill:#b47c6f;}.j{fill:#9e5f4b;}.k{fill:#41657c;}.l{fill:#4f97fe;}.m{fill:#cfd3d6;}.n{fill:#d6e4f1;}.o{fill:#013955;}.p{fill:#b3bec6;}.q{fill:#e634a7;}.r{stroke:none;}</style><clipPath id="a"><circle class="a" cx="29" cy="29" r="29"/></clipPath></defs><g transform="translate(-19 -73)"><g class="b" transform="translate(19 73)"><circle class="r" cx="30" cy="30" r="30"/><circle class="a" cx="30" cy="30" r="29.5"/></g><g class="c" transform="translate(20 74)"><ellipse class="a" cx="30.5" cy="31" rx="30.5" ry="31" transform="translate(-1 -4)"/><g transform="translate(-48.519 3.519)"><g transform="translate(30.789 209.463)"><path class="d" d="M402.73,612.193c-.015,3.927-17.852,7.077-39.839,7.034s-39.8-3.26-39.784-7.187,17.85-7.077,39.837-7.034S402.744,608.266,402.73,612.193Z" transform="translate(-323.107 -605.006)"/></g><g transform="translate(0 0)"><g transform="translate(21.807 182.784)"><g transform="translate(0)"><path class="e" d="M311.774,585.879l-5.069,6.3-2.342,2.907a2.737,2.737,0,0,0,.284,3.753l9.991,9.205c.049.044.1.085.149.125a2.066,2.066,0,0,0,2.593-.106,1.873,1.873,0,0,0,.394-2.361l-3.835-6.559a2.154,2.154,0,0,1-.3-.976,1.911,1.911,0,0,1,0-.255,2.008,2.008,0,0,1,.339-.843c.068-.128.228-.188.323-.3l4.418-5.374Z" transform="translate(-303.75 -585.879)"/></g></g><g transform="translate(21.791 189.049)"><g transform="translate(0)"><path class="f" d="M306.668,590.791l-2.321,2.922a2.748,2.748,0,0,0,.295,3.761l10,9.21c.049.043.1.085.152.125a2.066,2.066,0,0,0,2.594-.1,1.872,1.872,0,0,0,.4-2.359l-3.835-6.56a2.15,2.15,0,0,1-.3-.975,31.672,31.672,0,0,0-5.558-5.134A10.392,10.392,0,0,0,306.668,590.791Z" transform="translate(-303.738 -590.791)"/></g></g><g transform="translate(28.499 102.609)"><path class="g" d="M358.145,565.955c-9.667,17.66-24.527,29.545-39.626,42.641a3.649,3.649,0,0,1-4.163.429,38.355,38.355,0,0,1-4-2.616,3.316,3.316,0,0,1-.8-4.514c4.9-7.437,11.977-12.161,17.256-19.354a68.408,68.408,0,0,0,11.066-23.318,63.629,63.629,0,0,0,1.988-19.984c-.228-3.488-3.889-13.17-.042-15.563,2.563-1.594,10.963.2,14.022.316,2.17.083,8.135-.732,9.881.377,2.193,1.393,1.761,5.322,1.8,7.877C365.71,543.258,363.5,556.172,358.145,565.955Z" transform="translate(-308.997 -523.019)"/></g><g transform="translate(0 103.093)"><g transform="translate(0.473 8.863)"><path class="h" d="M335.661,540.112c-1.128-4.165-5.942-4.527-10.625-5.053-2.454-.276-4.944-.426-7.434-.594l-17.068-3.294c-1.1-.49-2.284-1.055-3.437-.724-.045.013-.087.036-.131.051a4.444,4.444,0,0,0-4.264,2.023c-1.639.891-2.237,2.672-2.746,4.42a90.235,90.235,0,0,0-2.3,9.179,32.5,32.5,0,0,0-.534,8.61c.071.8.131,1.686.862,2.139.044.12.088.237.138.35-.032.31-.066.62-.1.929a3.617,3.617,0,0,0,.314,2.432,3.515,3.515,0,0,0,1.549,1.081,84.666,84.666,0,0,0,35.746,7.466c.3,0,.6-.008.906-.017,2.757-.061,4.649-3.492,5.159-5.969,1.361-6.567,3.7-13.542,4.182-20.22A8.5,8.5,0,0,0,335.661,540.112ZM288.089,553.48l-.147.7c-.045-.662.009-1.335.008-1.778,0-.362.013-.723.026-1.084,0,.037,0,.071,0,.109a.4.4,0,0,0,.047.185,15.585,15.585,0,0,0,0,1.672A.37.37,0,0,0,288.089,553.48Zm3.311-17.8a.385.385,0,0,0-.088-.093c.08-.2.164-.385.259-.569C291.512,535.24,291.458,535.458,291.4,535.679Z" transform="translate(-287.023 -530.347)"/></g><g transform="translate(16.754)"><path class="i" d="M300.017,536.848c2.159-4.531,4.508-9.31,7.905-11.827,3.047-2.259,6.75-2.207,9.055.459s2.921,7.946,1.2,12.169l-1.909.184c1.2-3.133.635-6.955-1.111-8.814s-4.459-1.781-6.681-.089-3.921,4.828-4.668,8.137l-4.023-1.1Z" transform="translate(-299.789 -523.398)"/></g><g transform="translate(0 32.586)"><path class="j" d="M286.653,548.947c.732,1.7,2.63,2.537,4.373,3.17a115.453,115.453,0,0,0,33.022,6.75c.052.694-.872.971-1.569,1a70.749,70.749,0,0,1-28.259-4.77,19.675,19.675,0,0,1-6.65-3.819c-.385-.37-.411-1.324.082-1.117Z" transform="translate(-286.653 -548.947)"/></g><g transform="translate(39.056 17.357)"><path class="j" d="M327.545,541.087c-.478,6.678-2.821,13.652-4.182,20.219-.51,2.477-2.4,5.908-5.159,5.969-.3.009-.6.014-.906.017-.275-8.848,1.855-17.627,3.965-26.248.388-1.581.995-3.413,2.546-3.916a3.733,3.733,0,0,1,3.519,1.148A8.506,8.506,0,0,1,327.545,541.087Z" transform="translate(-317.274 -537.007)"/></g></g><g transform="translate(74.197 35.833)"><path class="e" d="M394.908,543.634c-.01.084-.022.168-.033.251-6.714,1.874-12.932-4.744-16.339-9.357-2.474-3.35-5.468-4.513-8.557-7.441-8.507-8.062-8.586-17.981-14.538-27.1a93.127,93.127,0,0,1-9.612-19.284c-.8-2.209-1.5-4.686-.54-6.837,1.463-3.271,6.248-4.01,9.483-2.345s5.209,4.93,6.839,8.117c4.468,8.723,5.623,17.866,8.914,26.75,1.506,4.065,4.924,8.157,7.01,12.043q.721,1.351,1.468,2.646c1.145,1.986,2.4,4.117,3.79,6.139a36.422,36.422,0,0,0,3.491,4.413c.795.842,3.347,2.029,5.608,3.734a16.548,16.548,0,0,1,2.671,4.612A8.883,8.883,0,0,1,394.908,543.634Z" transform="translate(-344.826 -470.664)"/></g><g transform="translate(96.433 200.758)"><path class="e" d="M362.26,600.625l1.991,8.678.046,4.058a2.635,2.635,0,0,0,2.435,2.819l12.644.1a1.677,1.677,0,0,0,.18-.01,2.211,2.211,0,0,0,1.8-1.985,1.986,1.986,0,0,0-1.12-2.192l-6.651-2.477a1.885,1.885,0,0,1-.943-.778,2.322,2.322,0,0,1-.256-.929,2.873,2.873,0,0,1,.051-.479l-1.912-7.461Z" transform="translate(-362.26 -599.971)"/></g><g transform="translate(97.97 210.012)"><path class="f" d="M363.436,609.337l.7,4.587a2.878,2.878,0,0,0,3.283,2.659l14.767-2.657a2.176,2.176,0,0,0,.212-.052,2.749,2.749,0,0,0,1.8-2.646,2.133,2.133,0,0,0-1.64-2.242l-8.133-1.353a2.089,2.089,0,0,1-1.013-.472,30.92,30.92,0,0,0-8.22,1.469A10.93,10.93,0,0,0,363.436,609.337Z" transform="translate(-363.436 -607.161)"/></g><g transform="translate(73.561 20.294)"><g transform="translate(0)"><path class="i" d="M345.013,458.726a6.48,6.48,0,0,1,2.229,2.335,3.323,3.323,0,0,1,.043,3.1,2.436,2.436,0,0,1-2.815,1.129,4.265,4.265,0,0,1,0-2.158q.4-2.311.795-4.622c.018-.1-.129.06-.045.121Z" transform="translate(-344.328 -458.482)"/></g></g><g transform="translate(107.876 227.384)"><g transform="translate(0)"><path class="k" d="M371.245,620.891l-.013-.014.051-.03Z" transform="translate(-371.232 -620.847)"/></g></g><g transform="translate(46.931 96.689)"><path class="l" d="M370.76,622.308q.5,1.994.922,4.037c.8,3.857,10.882.511,10.523-3.664-.659-7.68-1.527-17.563-2.872-25.044-2.9-16.138-7.784-31.808-16.016-44.708-3.506-5.495-7.977-9.843-11.687-15.1a31.4,31.4,0,0,1-5.743-15.176c-2.95-3.315-8.146-4.259-12.7-4.273-2.336-.007-4.856.14-6.878,1.7-.078.054-.157.118-.236.184-1.717,1.44-2.664,4.371-1.9,6.32-.042.163-.079.327-.114.49-3.71,17.6,10.317,33.561,19.863,43.783C356.843,584.689,365.72,602.085,370.76,622.308Z" transform="translate(-323.448 -518.378)"/></g><g transform="translate(43.745 25.205)"><path class="m" d="M362.812,500.4l-1.4,5.4a5.059,5.059,0,0,0,.735,4.889c4.052,7.222,8.97,11.876,14.476,17.854,2.035,2.209,3.33,5.016,5.8,6.875,4.347,3.268,5.323.255,9.694-2.078-.194-3.321-2.824-4.186-2.982-6.894-.5-.866-4.538-4.815-5.019-5.715-2.085-3.886-11.456-30.07-15.924-38.793-.358-.7-.736-1.407-1.139-2.1-.842-7.282-7.055-12.9-13.61-16.511-4.273-2.352-8.829.07-13.08,1.117a33.066,33.066,0,0,0-14.02,7.308,14.356,14.356,0,0,0-4.187,5.567,17.29,17.29,0,0,0-.8,5.094,214.561,214.561,0,0,0,.77,36.015c.438,3.663,1.626,7.488,1.741,11.156.093,2.952-1.042,5.621.925,8.372,2.144,3,7.53,4.479,10.95,5.153,6.741,1.329,13.983,2.613,20.308-.045,4.326-1.818,5.6-3.068,6.09-7.153a62.686,62.686,0,0,0,.506-12.371c-.015-.138-.033-.277-.045-.413a125.023,125.023,0,0,1,.225-19.549c5.174,8.754,5.631,18.122,13.739,25.805.332.314.643.621.941.922Z" transform="translate(-320.951 -462.331)"/></g><g transform="translate(22.855 28.507)"><path class="e" d="M346.648,465.7c-4.571-2.891-13.68,3.019-17.374,5.342a53.239,53.239,0,0,0-16.21,15.942,50.506,50.506,0,0,0-3.339,5.977c-1.759,3.718-4,8.382-4.808,12.387-1.126,5.562.832,12.329,1.352,17.913a39.192,39.192,0,0,0,1.381,6.378c.8,2.962,1.567,5.933,1.173,8.694-.064.449-.885,3.048-1.543,5.719l.018.036c.1.171.213.331.316.5.033.055.161.2.214.272.157.143.379.329.474.413.112.061.332.19.334.191.143.074.292.135.439.2-.551-.238.469.113.7.156.164.029.332.05.5.074l.05.008c.015,0,.034,0,.064,0a14.813,14.813,0,0,0,2.412-.182l.06-.009.129-.031c.23-.054.458-.109.686-.168q.62-.163,1.23-.364c.329-.108.654-.227.977-.351,2.442-4.676,1.583-6.148.791-10.942a32,32,0,0,1-.393-4.64c-.079-4.473.547-9.108.766-13.487.3-5.885,1.541-11.826,5.516-16.483,4.3-5.038,10.955-8.719,16-13.215a38.342,38.342,0,0,0,7.535-8.372C348.01,474.5,350.742,468.293,346.648,465.7Z" transform="translate(-304.573 -464.921)"/></g><g transform="translate(67.279 10.316)"><path class="e" d="M349.154,452.844c-3.2,2.6-5.4,6.017-7.836,9.244-2.833,3.742-2.8,5.409,1.958,8.093,2.666,1.506,6.758,3.988,9.384,1.837,1.64-1.344,2.64-6.759,3.226-8.732.838-2.818,3.921-12.571-1.8-12.628A8.15,8.15,0,0,0,349.154,452.844Z" transform="translate(-339.402 -450.658)"/></g><g transform="translate(67.745)"><path class="i" d="M364.476,446.455a5.181,5.181,0,0,0-.939-1.954,4.892,4.892,0,0,0-1.825-1.369c-3.695-1.644-7.946.859-12.008.668-1.593-.075-3.254-.56-4.736.017a5.571,5.571,0,0,0-2.214,1.806c-.147.182-.288.371-.426.562-2.094,1.745-2.765,4.634-2.509,7.426a14.167,14.167,0,0,0,1.893,5.537,33.016,33.016,0,0,1,2.08,3.838q.274.071.549.125c.085.016.666.089.687.1.352.019.707.017,1.057,0a18.476,18.476,0,0,0,2.144-.236,19.892,19.892,0,0,0,2.84-.783c.121-.079.244-.154.364-.233q.748-.909,1.533-1.789a27.43,27.43,0,0,1,4.713-4.009c.667-.472,1.375-.922,2.072-1.379h.012c.15-.1.3-.2.454-.306C363.039,452.607,365.537,450.54,364.476,446.455Z" transform="translate(-339.767 -442.57)"/></g><g transform="translate(71.681 6.677)"><g transform="translate(0)"><path class="e" d="M357.762,468.417c.591-1.228,1.172-2.463,1.788-3.676a12.99,12.99,0,0,0,1.32-7.172,86.887,86.887,0,0,0-1.358-8.734,1.329,1.329,0,0,0-2.121-.744c-1.344,1.061-2.738,2.38-4.061,2.61a21.526,21.526,0,0,1-5.165.319.711.711,0,0,0-.771.755l.463,5.812a.714.714,0,0,1-.152.5.518.518,0,0,1-.818-.015l-.394-.518a2.774,2.774,0,0,0-1.538-1.006l-.531-.131a1.209,1.209,0,0,0-1.55,1.031,2.214,2.214,0,0,0,1.075,2.34l1.191.291.113,1.962a1.987,1.987,0,0,0,.341.994A12.451,12.451,0,0,0,357.762,468.417Z" transform="translate(-342.854 -447.805)"/></g></g><g transform="translate(20.981 28.507)"><path class="n" d="M346.495,477.654a38.337,38.337,0,0,1-7.535,8.372c-5.043,4.5-11.695,8.177-16,13.215-3.976,4.657-5.219,10.6-5.517,16.483-.219,4.379-.846,9.014-.767,13.487.012.629-5.8.838-6.408.718-2.673-.52-2.691-.574-4.205-2.626-2.1-2.853-2.712-7.688-2.917-11.09-.607-10.038,4.918-20.927,10.319-29.228a53.238,53.238,0,0,1,16.21-15.942c3.694-2.323,12.8-8.233,17.374-5.342C351.147,468.293,348.415,474.5,346.495,477.654Z" transform="translate(-303.103 -464.921)"/></g><g transform="translate(46.346 97.345)"><g transform="translate(0)"><path class="o" d="M322.99,519.2l.275-.307c-.045.1-.087.208-.125.311l-.08,0C323.036,519.2,323.014,519.2,322.99,519.2Z" transform="translate(-322.99 -518.892)"/></g></g><g transform="translate(62.671 30.644)"><g transform="translate(0)"><path class="p" d="M357.194,471.744c0-.019.01-.037.014-.056-1.3-.49-2.542-1.288-4-1.237-2.4.083-2.306,2.408-4.06,3.365-2.44,1.331-5.1-.795-6.936-2.174a61.306,61.306,0,0,1-5.761-4.935c-.37-.359-.908.233-.539.59a61.165,61.165,0,0,0,6.155,5.228c1.653,1.221,3.518,2.594,5.711,2.464a4.081,4.081,0,0,0,2.229-.77c.833-.63,1.04-1.653,1.751-2.358,1.315-1.3,3.224-.253,4.6.343q.381.165.758.3A3.668,3.668,0,0,1,357.194,471.744Z" transform="translate(-335.789 -466.596)"/></g></g><g transform="translate(84.324 49.304)"><g transform="translate(0)"><path class="p" d="M356.674,481.531c-.383,4.109-.629,8.257-1.171,12.35a17.2,17.2,0,0,1-1.786,5.16,7.243,7.243,0,0,0-.894,4.237c.075.5.885.455.809-.047-.283-1.889.664-3.495,1.452-5.154a13.887,13.887,0,0,0,1.266-4.481c.453-3.956.747-7.937,1.117-11.9C357.513,481.194,356.721,481.026,356.674,481.531Z" transform="translate(-352.766 -481.226)"/></g></g><g transform="translate(72.777 66.067)"><g transform="translate(0)"><path class="p" d="M349.637,496.5c-.023-.71-.069-1.42-.126-2.127a36.285,36.285,0,0,1-1.347,3.567c-1.317,3.828.149,7.855-.606,11.747-.67,3.445-2.789,6.426-3.584,9.836a10.927,10.927,0,0,0,.147,5.31c.594,2.316,1.7,4.737.717,7.105-.194.469.527.829.722.357,1.4-3.388-.861-6.563-1.051-9.941-.208-3.681,2.047-6.971,3.232-10.338,1.3-3.7.443-7.3.672-11.1a14.084,14.084,0,0,1,1.214-4.337Z" transform="translate(-343.713 -494.369)"/></g></g><g transform="translate(63.608 35.294)"><path class="q" d="M355.368,472.941a33.707,33.707,0,0,1-2.283-2.7,16.122,16.122,0,0,0-1.714,3.328,4.015,4.015,0,0,0,1.074,1.638.261.261,0,0,0,.122.055,5.438,5.438,0,0,0,.671.659c.02,4.263-1.761,8.269-3.923,11.554-.364.552-.735,1.1-1.112,1.634a32.353,32.353,0,0,1-2.883,4.1c-.479.588-.984,1.168-1.5,1.749-1.092,1.411-2.184,2.821-3.237,4.27-2.092,2.875-4.117,6.294-4.055,10.368.722,1.533,1.392,3.1,2.02,4.685a21.208,21.208,0,0,1,4.033-6.963q.22-.277.455-.538c1.223-1.422,2.511-2.709,3.677-3.862.713-.705,1.44-1.393,2.17-2.073a25.1,25.1,0,0,0,2.8-4.833,39.08,39.08,0,0,0,2.755-19.138A9.644,9.644,0,0,0,355.368,472.941Zm-1.416.337-.038-.217a5.179,5.179,0,0,1,.12-.527C354.017,472.784,353.993,473.031,353.952,473.278Z" transform="translate(-336.524 -470.242)"/></g><g transform="translate(43.296 50.568)"><path class="p" d="M336.446,482.274l-9.244,5.232c-1.464.829-2.932,1.652-4.391,2.486a4.006,4.006,0,0,0-2.192,2.237c-.154.5.64.663.793.17.431-1.385,2.552-2.13,3.7-2.778l3.93-2.224,7.859-4.448C337.351,482.693,336.9,482.018,336.446,482.274Z" transform="translate(-320.598 -482.217)"/></g></g></g></g></g></svg>