<svg xmlns="http://www.w3.org/2000/svg" xmlns:xlink="http://www.w3.org/1999/xlink" width="60" height="60" viewBox="0 0 60 60"><defs><style>.a{fill:none;}.b{fill:#fff;stroke:#006cb4;}.c{clip-path:url(#a);}.d{fill:#feb6b9;}.e{fill:#5bc5c9;}.f{fill:#bacce0;}.g{fill:#b2adaa;}.h{fill:#e4e9ff;}.i{fill:#f6be8f;}.j{fill:#9e5d4e;}.k{stroke:none;}</style><clipPath id="a"><circle class="a" cx="29" cy="29" r="29"/></clipPath></defs><g transform="translate(-19 -73)"><g class="b" transform="translate(19 73)"><circle class="k" cx="30" cy="30" r="30"/><circle class="a" cx="30" cy="30" r="29.5"/></g><g class="c" transform="translate(20 74)"><ellipse class="a" cx="30.5" cy="31" rx="30.5" ry="31" transform="translate(-1 -4)"/><g transform="translate(-2.226 10.451)"><g transform="translate(5.669 114.07)"><path class="d" d="M1076.434,727.155c-1.3,10.145-4.7,34.906-4.536,38.2a3.665,3.665,0,0,0,.27,1.416,2.081,2.081,0,0,0,.245.379c.021.027.046.055.067.079.246.287,1,.526,1.3.754a16.891,16.891,0,0,0,2.683,1.874c.822.456,1.8,1.183,1.537,2.067s-1.5.986-2.447.908c-2.623-.22-4.126-.438-6.751-.658a2.03,2.03,0,0,1-1.117-.314,1.786,1.786,0,0,1-.541-1.024,24.383,24.383,0,0,1-.535-3.687c-.042-.446-.086-.888-.14-1.332q-.072-.605-.175-1.2a48.8,48.8,0,0,1-.5-6.224c-.508-9.069-.5-13.417-.225-16.993C1070.9,717.874,1073.576,726.868,1076.434,727.155Z" transform="translate(-1065.388 -725.231)"/><path class="e" d="M1065.388,787.477a21.242,21.242,0,0,0,.535,4.869c.095.379.226,1.37.541,1.615a2.407,2.407,0,0,0,1.117.609c2.625.22,4.128.586,6.751.8.948.078,2.18.053,2.447-.831s-.716-1.575-1.537-2.033a16.578,16.578,0,0,1-2.683-1.856,21.3,21.3,0,0,1-1.3-1.924c-.022-.026-.046.131-.067-1.253Z" transform="translate(-1064.16 -747.919)"/></g><g transform="translate(29.551 116.408)"><path class="d" d="M1031.913,728.957c.928,2.854-.076,38.934.027,39.148a2.076,2.076,0,0,0,.245.379c.021.027.045.055.067.079.246.287,1,.526,1.3.752a16.68,16.68,0,0,0,2.682,1.875c.822.457,1.8,1.185,1.539,2.068s-1.5.986-2.446.908c-2.623-.219-4.126-.437-6.752-.656a2.041,2.041,0,0,1-1.117-.314,1.8,1.8,0,0,1-.541-1.024,24.118,24.118,0,0,1-.534-3.687c-.024-.247-4.882-36.865-5.849-39.528C1022.423,728.812,1030.025,729.053,1031.913,728.957Z" transform="translate(-1020.538 -728.909)"/><path class="e" d="M1020.538,789.655a28.015,28.015,0,0,0,.534,4.173,2.541,2.541,0,0,0,.541,1.266,2.151,2.151,0,0,0,1.117.435c2.625.221,4.128.5,6.752.718.946.078,2.18.01,2.446-.878s-.716-1.594-1.539-2.052a16.551,16.551,0,0,1-2.682-1.866,12.319,12.319,0,0,1-1.3-1.233c-.022-.025-.046-.562-.067-.562Z" transform="translate(-1014.689 -751.051)"/></g><path class="e" d="M1067.476,682.641q-1.34,24.261-2.681,48.523a105.312,105.312,0,0,1-29.853.554c-1.094-.136-4.923.482-5.908,0-2.585-1.263-.869-5.074-1.535-7.808a145.59,145.59,0,0,1-3.969-41.359c.03-.628.182-1.408.808-1.572a1.661,1.661,0,0,1,1.045.2c13.223,5.758,28.545,1.408,43.019,2.076Z" transform="translate(-1023.366 -595.022)"/><path class="f" d="M1006.22,596.822c6.69,6.853,9.092,16.6,10.385,25.965s1.795,19.019,5.665,27.682a16.208,16.208,0,0,1,1.75,5.063,4.369,4.369,0,0,1-2.313,4.49c-1.99.819-4.21-.442-5.867-1.788-7.712-6.266-12.446-15.509-14.488-25.071s-1.577-19.475-.252-29.154c.48-3.5,1.65-6.932,5.282-6.835.5,1.119,1.485,1.26,1.984,2.378Z" transform="translate(-964.13 -564.356)"/><path class="g" d="M1030.988,569.058c-4.414-1.771-6.352-5.821-6.367-10.044a3.607,3.607,0,0,0,.669-.745c.984-1.5.385-3.51.956-5.2a4.15,4.15,0,0,1,3.176-2.679,4.248,4.248,0,0,1,3.932,1.448,6.49,6.49,0,0,1,6.274-4.623c4.845.021,7.277,3.845,8.49,7.854.922,3.048,2.348,11.886-2.421,13.167l.692.04a1.741,1.741,0,0,0,.023.179,81.259,81.259,0,0,0-10.661.935c-1.24.193-2.484.413-3.731.561A2,2,0,0,0,1030.988,569.058Z" transform="translate(-1004.818 -546.275)"/><path class="h" d="M1063.253,652.542c-2.735-6.544.164-15.026,1.013-22.042s2.223-14.06,1.521-21.09-3.879-14.261-10.1-17.921a24.354,24.354,0,0,0-9.911-2.924,25.224,25.224,0,0,0-12.686,1.572c-5.154,2.268-8.934,6.863-11.164,11.914s-3.071,10.567-3.662,16.031a197.5,197.5,0,0,0-1.084,26.085,10.787,10.787,0,0,0,.669,4.16,9.46,9.46,0,0,0,3.772,3.854c6.37,4.063,14.34,5.206,21.936,4.609s12.417-2.049,19.694-4.248Z" transform="translate(-1016.976 -561.28)"/><path class="i" d="M1032.883,575.679a6.729,6.729,0,0,1-.338-1.725c-2.73.574-5.5-2.437-4.6-5.007,1.769.085,3.65.145,5.181-.718,1.891-1.067,2.753-3.273,3.139-5.363a8.629,8.629,0,0,0,10.483,1.305q.459,2.52.916,5.044c.984,5.415-.89,12.455-8,11.865a8.065,8.065,0,0,1-6.593-4.9A2.032,2.032,0,0,0,1032.883,575.679Z" transform="translate(-1005.668 -551.979)"/><path class="f" d="M1049.848,600.852c1.219-1.983,3.151-3.937,5.379-4.245a11.471,11.471,0,0,1,1,.689,88.566,88.566,0,0,1,4.107,34.381c3.656.629,7.488,1.336,10.357,3.622s4.3,6.71,2.044,9.576a7.485,7.485,0,0,1-6.01,2.463,22.3,22.3,0,0,1-6.572-1.443c-3.821-1.253-7.882-2.671-10.295-5.81-1.947-2.534-2.5-5.8-2.969-8.929C1045.369,620.907,1044.381,609.743,1049.848,600.852Z" transform="translate(-1043.002 -564.278)"/><path class="i" d="M1034.584,583.442c2.146-2.361,5.162-4.649,4.824-7.064.717,5.123,3.48,6.612,8.852,6.769a2.53,2.53,0,0,1,1.324.281,2.355,2.355,0,0,1,.768,1.094l1.944,4.37-.475-.685a2.4,2.4,0,0,1-.006.584,4.63,4.63,0,0,1-1.4,2.423,11.643,11.643,0,0,1-8.9,3.5,10.354,10.354,0,0,1-8.15-4.8,4.888,4.888,0,0,1-.815-2.784A6.638,6.638,0,0,1,1034.584,583.442Z" transform="translate(-1013.084 -556.905)"/><g transform="translate(25.966 82.71)"><path class="j" d="M1041.378,754.922c2.82-23.53,4.614-47.463,5.336-71.139a9.206,9.206,0,0,0-.925-5.167,5.92,5.92,0,0,0-6.507-2.527,5.7,5.7,0,0,0-4.124,5.5l3.156-.1a2.62,2.62,0,0,1,1.842-2.461,2.724,2.724,0,0,1,2.907,1.129,6.568,6.568,0,0,1,.5,3.527c-.719,23.587-2.509,47.434-5.318,70.875Z" transform="translate(-1035.156 -675.884)"/></g><path class="d" d="M1036.782,667.146a9.664,9.664,0,0,1,4.065,1.107c1.929,1.02,3.554,2.968,3.34,5.09s-3,3.807-4.758,2.534a5.026,5.026,0,0,1-1.061-1.179q-.7-.964-1.4-1.926a5.706,5.706,0,0,1-1.444-3.315c.035-1.221,1.3-2.456,2.467-2Z" transform="translate(-1006.896 -589.989)"/><path class="d" d="M1000.348,700.232c-.519-.18-1.051-.35-1.582-.521a3.4,3.4,0,0,1-2.254-2.275c-.055-.189-.111-.378-.172-.562-.82-2.473-2.824-5.1-1.524-7.366.526-.918,1.915-1.5,2.69-.766l-.355-.838c1.31,1.618,3,2.927,4.256,4.583s2.062,3.872,1.265,5.778A3.624,3.624,0,0,1,1000.348,700.232Z" transform="translate(-939.538 -597.555)"/><path class="g" d="M1060.865,552.018a5.962,5.962,0,0,0-3.92-5.889,7.269,7.269,0,0,0-7.2,1.5,8.083,8.083,0,0,0-2.468,6.855,4.212,4.212,0,0,0,1.774,3.249,5.755,5.755,0,0,0,2.16.594,9.745,9.745,0,0,0,4.908-.169c3.13-1.246,3.913-5.123,4.252-8.392Z" transform="translate(-1031.013 -545.736)"/></g></g></g></svg>