<svg xmlns="http://www.w3.org/2000/svg" width="212.874" height="164.404" viewBox="0 0 212.874 164.404"><defs><style>.a{fill:#ffb6b9;}.b{fill:#fe9ea1;}.c{fill:#e634a7;}.d{fill:#006cb4;}.e{fill:#202a7e;}.f{fill:#180044;}.g{fill:#5cc5ff;}.h{fill:none;stroke:#006cb4;stroke-miterlimit:10;stroke-width:2.567px;}</style></defs><path class="a" d="M355.783,403.52h0a11.775,11.775,0,0,0-11.775-11.775l-32,5.623v17.926h32A11.775,11.775,0,0,0,355.783,403.52Z" transform="translate(-254.855 -250.922)"/><path class="a" d="M296.007,330.512l-11.161,31.607-1.417,4.006a13.588,13.588,0,0,0,8.437,17.359,13.787,13.787,0,0,0,17.52-8.362l1.4-3.323,13.057-30.9Z" transform="translate(-208.186 -219.909)"/><path class="b" d="M305.468,408.9l10.229-7.418-2.545,6.081-1.4,3.354a13.689,13.689,0,0,1-4.255,6.091,4.5,4.5,0,0,1-2.028-8.108Z" transform="translate(-210.552 -255.277)"/><path class="c" d="M273.481,263.569a18.711,18.711,0,0,0-4.535,7.121l-8.334,23.817,27.836,10.487,9.671-23.1c3.471-8.3.3-19.751-8.188-22.727A14.8,14.8,0,0,0,273.481,263.569Z" transform="translate(-172.791 -183.904)"/><path class="c" d="M140.4,252.141l28.343-4.983h.165l36.247,4.983c13,1.787,16.433,9.821,19.134,23.895l-19.732,9.306,4.234,57.432H134.975l-8.122-44.456S119.315,255.443,140.4,252.141Z" transform="translate(-29.82 -178.369)"/><rect class="a" width="31.673" height="48.72" rx="15.836" transform="translate(123.019 38.928)"/><path class="b" d="M235.875,246.91a25.307,25.307,0,0,1-4.742-.534l-.05,2.046c13.83,3.632,21.706-4.681,17.245-3.169C243.937,246.74,241.487,247.048,235.875,246.91Z" transform="translate(-108.053 -177.327)"/><ellipse class="d" cx="6.277" cy="9.341" rx="6.277" ry="9.341" transform="translate(105.242 33.911)"/><path class="a" d="M202.182,153.682c-.089,16.31,4.593,28.636,17.933,28.967s29.837-3,30.343-23.436c.5-20.332-15.529-42.7-31.284-43.086S202.293,133.344,202.182,153.682Z" transform="translate(-94.445 -113.066)"/><path class="b" d="M220.854,116.127c13.152.325,26.5,15.966,30.253,32.954-2.816-.227-6.4-2.36-10.891-7.393a63.626,63.626,0,0,1-14.026,2.429c-9.758.6-15.771-6-20.069-4.354-.67.257-1.289.469-1.863.642C205.246,126.266,208.686,115.826,220.854,116.127Z" transform="translate(-96.125 -113.066)"/><path class="c" d="M114.158,276.795a15.549,15.549,0,0,0,1.106,5.755l9.3,23.334,27.759-10.3-7.827-23.672a15.561,15.561,0,0,0-30.335,4.888Z" transform="translate(47.861 -185.382)"/><path class="c" d="M224.427,322.846s4.437,28.14-.3,33.191c-5.16,5.5-47.7,7.07-66.552,1.371l3.65,21.341h74.659l-2.267-32.845Z" transform="translate(-57.482 -216.089)"/><path class="a" d="M88.873,340.007l12.459,31.26,1.577,3.963a13.687,13.687,0,1,0,25.43-10.131l-1.139-3.435L116.632,329.7Z" transform="translate(83.549 -219.506)"/><rect class="e" width="54.923" height="4.263" transform="translate(69.63 160.091)"/><path class="a" d="M177.857,397.247h0a13.564,13.564,0,0,0-13.565-13.564L88.994,398.8l-.139,12.011h75.437A13.564,13.564,0,0,0,177.857,397.247Z" transform="translate(35.018 -246.407)"/><path class="a" d="M288.267,405.433l-18.751-5.726a4.5,4.5,0,0,0-3.96.662l-11.1,8.05a4.5,4.5,0,0,0-1.525,5.353h0a4.505,4.505,0,0,0,5.1,2.7l14.329-3.038,2.961,2.57a11.007,11.007,0,0,0,11.018,2.018h0Z" transform="translate(-157.532 -254.295)"/><path class="f" d="M405.325,371.059h39.324l-30.069-67.017H376.348a.707.707,0,0,0-.645,1Z" transform="translate(-375.64 -206.718)"/><path class="e" d="M449.207,353.709c.493,1.576,1.875,2.545,3.088,2.166s1.8-1.964,1.3-3.54-1.876-2.545-3.089-2.166S448.715,352.134,449.207,353.709Z" transform="translate(-421.583 -229.665)"/><path class="e" d="M402.843,371.059h-2.885l-30.069-67.017h2.885Z" transform="translate(-330.949 -206.718)"/><path class="f" d="M215.605,137.149a63.627,63.627,0,0,1-14.026,2.429c-9.758.6-15.771-6-20.069-4.354-14.827,5.691-5.5-10.05,0-17.047,4.537-5.774,13.421-10.358,21.883-7.012,7.216,2.854,9.126.8,15.531-.275,5.117-.858,13.243,2.332,15.831,9.211s2.1,12.922,5.594,18.7c4.315,7.129-1.207,20.039-5.594,23.921-8.551,7.566-8.3,15.123-9.51,8.279S233.154,158.364,215.605,137.149Z" transform="translate(-71.514 -110.032)"/><g transform="translate(132.604 1.889)"><g transform="translate(0)"><path class="d" d="M224.687,148.5c-.03-.944-.1-6.79-.2-7.663s-.218-1.718-.368-2.568a44.479,44.479,0,0,0-1.171-5.047,33.369,33.369,0,0,0-4.347-9.434c-.479-.731-1.033-1.413-1.577-2.1a25.543,25.543,0,0,0-1.816-1.906,20.468,20.468,0,0,0-4.225-3.124,10.345,10.345,0,0,0-1.163-.611l-1.192-.55-1.231-.447c-.206-.072-.408-.155-.617-.216l-.63-.169-1.26-.333-1.278-.229-.639-.114c-.213-.034-.428-.045-.643-.069l-1.286-.123c-.857-.066-.946,1.508-.141,1.6l1.2.164c.2.03.4.048.6.088l.59.131,1.18.26,1.15.355.574.178c.189.064.371.148.557.222l1.109.452,1.063.544a8.884,8.884,0,0,1,1.031.6,18.357,18.357,0,0,1,3.7,2.969,23.381,23.381,0,0,1,1.57,1.785c.467.645.945,1.278,1.354,1.964a30.8,30.8,0,0,1,3.651,8.858,41.5,41.5,0,0,1,.9,4.754c.109.8.186,1.6.247,2.4s.095,6.646.089,7.372Z" transform="translate(-200.347 -113.798)"/></g></g><ellipse class="d" cx="7.725" cy="10.034" rx="7.725" ry="10.034" transform="translate(146.966 33.911)"/><ellipse class="g" cx="5.661" cy="7.353" rx="5.661" ry="7.353" transform="translate(150.318 36.591)"/><path class="f" d="M247.82,115.546a17.017,17.017,0,0,1,17.493-3.833c3.109,1.139,5.876,3.233,6.1,7.07.524,9.03-29.8,17.677-32.911,16.98C236.121,135.229,239.87,123.082,247.82,115.546Z" transform="translate(-133.258 -110.378)"/><path class="h" d="M277.879,206.9s-1.916,11.662,11,11.662" transform="translate(-170.778 -158.304)"/><path class="g" d="M266.426,230.159c2.657,0,4.81-1.108,4.81-2.475s-2.154-2.475-4.81-2.475-4.811,1.108-4.811,2.475S263.769,230.159,266.426,230.159Z" transform="translate(-145.026 -167.431)"/></svg>