<svg xmlns="http://www.w3.org/2000/svg" width="158.58" height="313.707" viewBox="0 0 158.58 313.707"><defs><style>.a{fill:#cddeec;}.b{fill:#feb6b9;}.c{fill:#013955;}.d{fill:#0361f3;}.e{fill:#b47c6f;}.f{fill:#41657c;}.g{fill:#4f97fe;}.h{fill:#e4e9ff;}.i{fill:#d4dcf9;}.j{fill:#e634a7;}</style></defs><g transform="translate(-355 -254)"><g transform="translate(-204.876 239.191) rotate(-1)"><g transform="translate(561.663 313.6)"><path class="a" d="M712.713,317.757c2.106,3.886-29.978,8.776-71.661,10.92s-77.184.73-79.29-3.156,29.978-8.775,71.661-10.919S710.607,313.87,712.713,317.757Z" transform="translate(-561.663 -313.6)"/></g></g><g transform="translate(49 -20)"><g transform="translate(306 274)"><g transform="translate(120.769 252.128)"><path class="b" d="M1145.852,288.657l6.991,8.683,3.229,4.009a3.774,3.774,0,0,1-.391,5.179l-13.78,12.7a2.443,2.443,0,0,1-.207.171,2.849,2.849,0,0,1-3.575-.145,2.583,2.583,0,0,1-.544-3.257l5.289-9.046a2.964,2.964,0,0,0,.411-1.348,2.51,2.51,0,0,0,0-.35,2.712,2.712,0,0,0-.471-1.164c-.092-.176-.314-.259-.443-.415l-6.095-7.417Z" transform="translate(-1136.262 -288.657)"/></g><g transform="translate(121.73 260.768)"><path class="c" d="M1152.773,296.168l3.2,4.031a3.789,3.789,0,0,1-.406,5.188l-13.788,12.7c-.064.059-.137.118-.209.173a2.848,2.848,0,0,1-3.578-.144,2.584,2.584,0,0,1-.544-3.255l5.288-9.046a2.958,2.958,0,0,0,.411-1.348,43.67,43.67,0,0,1,7.668-7.082A14.671,14.671,0,0,1,1152.773,296.168Z" transform="translate(-1137.097 -296.168)"/></g><g transform="translate(54.204 141.534)"><path class="d" d="M1088.595,251.742c13.334,24.36,33.831,40.753,54.659,58.817a5.028,5.028,0,0,0,5.741.591,52.42,52.42,0,0,0,5.521-3.609,4.573,4.573,0,0,0,1.107-6.226c-6.757-10.261-16.521-16.775-23.8-26.7a94.283,94.283,0,0,1-15.264-32.166,87.762,87.762,0,0,1-2.744-27.563c.314-4.811,5.366-18.166.06-21.467-3.536-2.2-15.122.273-19.342.437-2.993.114-11.223-1.011-13.632.519-3.024,1.92-2.428,7.34-2.488,10.865C1078.16,220.435,1081.208,238.25,1088.595,251.742Z" transform="translate(-1078.396 -192.517)"/></g><g transform="translate(0 49.426)"><path class="b" d="M1031.358,213.1c.013.117.029.232.046.345,9.26,2.586,17.837-6.543,22.538-12.906,3.412-4.62,7.541-6.225,11.8-10.265,11.737-11.118,11.845-24.8,20.055-37.376a128.618,128.618,0,0,0,13.259-26.6c1.1-3.05,2.066-6.464.743-9.431-2.017-4.513-8.618-5.531-13.081-3.237s-7.185,6.8-9.435,11.2c-6.161,12.031-7.756,24.645-12.294,36.9-2.076,5.606-6.793,11.25-9.669,16.61-.664,1.242-1.338,2.456-2.026,3.651-1.578,2.739-3.313,5.678-5.226,8.467a50.133,50.133,0,0,1-4.815,6.088c-1.1,1.162-4.618,2.8-7.736,5.15-1.581,2.313-2.828,3.711-3.686,6.36A12.272,12.272,0,0,0,1031.358,213.1Z" transform="translate(-1031.277 -112.448)"/></g><g transform="translate(12.121 276.919)"><path class="b" d="M1068.182,311.109l-2.745,11.972-.064,5.6c-.037,2.2-1.475,3.869-3.361,3.887l-17.438.142c-.082,0-.167-.008-.25-.015a3.047,3.047,0,0,1-2.48-2.737,2.74,2.74,0,0,1,1.545-3.024l9.174-3.42a2.557,2.557,0,0,0,1.094-.785,2.364,2.364,0,0,0,.561-1.566,4.156,4.156,0,0,0-.071-.663l2.635-10.292Z" transform="translate(-1041.814 -310.208)"/></g><g transform="translate(9.459 290.568)"><path class="c" d="M1067.523,324.1l-.873,6.1c-.341,2.4-2.109,3.923-4.107,3.541l-18.465-3.538a2.582,2.582,0,0,1-.265-.067,3.659,3.659,0,0,1-2.249-3.521,2.819,2.819,0,0,1,2.049-2.982l10.174-1.8a2.523,2.523,0,0,0,1.267-.628,36.7,36.7,0,0,1,10.28,1.952A13.416,13.416,0,0,1,1067.523,324.1Z" transform="translate(-1041.564 -321.204)"/></g><g transform="translate(65.454 27.993)"><path class="e" d="M1091.817,94.152a8.93,8.93,0,0,0-3.077,3.222,4.58,4.58,0,0,0-.059,4.282,3.358,3.358,0,0,0,3.882,1.555,5.869,5.869,0,0,0,0-2.975q-.545-3.189-1.1-6.374c-.024-.141.177.081.062.167Z" transform="translate(-1088.176 -93.816)"/></g><g transform="translate(22.632 313.648)"><path class="f" d="M1051.005,342.2l.02-.021-.073-.038A.527.527,0,0,1,1051.005,342.2Z" transform="translate(-1050.951 -342.137)"/></g><g transform="translate(25.711 133.369)"><path class="g" d="M1069.428,328.779q-.683,2.747-1.271,5.568c-1.106,5.318-15.011.7-14.516-5.055.911-10.594,2.107-24.225,3.963-34.545,4-22.258,10.737-43.875,22.091-61.669,4.837-7.581,11-13.578,16.12-20.83a43.31,43.31,0,0,0,7.923-20.935c4.069-4.571,11.237-5.874,17.511-5.893,3.224-.008,6.7.194,9.489,2.342.108.074.219.161.327.252,2.37,1.988,3.676,6.029,2.624,8.717.057.227.109.451.158.675,5.117,24.276-14.231,46.294-27.4,60.4C1088.626,276.886,1076.38,300.881,1069.428,328.779Z" transform="translate(-1053.628 -185.42)"/></g><g transform="translate(13.005 34.766)"><path class="h" d="M1083,152.213l1.937,7.448a9.21,9.21,0,0,1,.435,2.938,9.323,9.323,0,0,1-1.448,3.805c-5.588,9.961-12.372,16.38-19.969,24.625-2.807,3.05-4.592,6.92-8,9.483-6,4.506-7.344.353-13.373-2.867.267-4.578,3.9-5.774,4.114-9.508.687-1.2,6.26-6.642,6.924-7.884,2.876-5.359,15.8-41.478,21.963-53.509.5-.969,1.018-1.941,1.573-2.9,1.161-10.046,9.732-17.795,18.774-22.775,5.894-3.245,12.177.1,18.042,1.541a45.6,45.6,0,0,1,19.337,10.079,19.8,19.8,0,0,1,5.775,7.68,23.766,23.766,0,0,1,1.112,7.029c.829,16.4.891,33.353-1.063,49.675-.605,5.053-2.243,10.332-2.4,15.389-.129,4.072,1.438,7.753-1.276,11.549-2.959,4.141-10.388,6.177-15.1,7.107-9.3,1.834-19.288,3.606-28.013-.061-5.968-2.509-7.718-4.232-8.4-9.865-.6-4.96-1.224-12.137-.7-17.064.021-.191.047-.382.062-.571a172.151,172.151,0,0,0-.312-26.965c-7.134,12.074-7.766,25-18.951,35.594-.456.433-.886.857-1.3,1.272Z" transform="translate(-1042.582 -99.703)"/></g><g transform="translate(82.891 40.61)"><path class="b" d="M1107.707,105.173c7.011-2.549,17.546,8.1,21.837,12.319a73.467,73.467,0,0,1,17.145,26.26,69.983,69.983,0,0,1,2.737,9.038c1.276,5.527,2.917,12.474,2.828,18.11-.121,7.827-4.756,16.367-7.1,23.739a54.369,54.369,0,0,1-3.743,8.188c-1.955,3.754-3.859,7.532-4.145,11.368-.045.625.293,4.37.393,8.163-.013.013-.024.031-.035.043-.185.2-.382.382-.574.58-.06.062-.274.227-.366.3-.254.146-.61.332-.763.419-.168.049-.5.158-.508.159-.214.058-.431.1-.65.138.813-.158-.665.016-.981,0-.232-.006-.462-.03-.691-.047-.028,0-.047,0-.07,0a.591.591,0,0,0-.086-.021,20.6,20.6,0,0,1-3.2-.957.658.658,0,0,0-.079-.029c-.04-.021-.092-.048-.164-.082-.295-.139-.587-.281-.875-.429q-.787-.4-1.549-.854c-.413-.243-.813-.5-1.214-.759-1.913-7.022-.32-8.752,2.161-14.977a43.66,43.66,0,0,0,1.9-6.138c1.423-6,1.948-12.433,2.941-18.4,1.336-8.017,1.411-16.388-2.572-23.836-4.314-8.056-12.193-14.977-17.662-22.524-3.066-4.217-6-8.613-7.687-13.5C1103.279,116.63,1101.427,107.461,1107.707,105.173Z" transform="translate(-1103.335 -104.784)"/></g><g transform="translate(53.786 14.228)"><path class="b" d="M1089.5,84.865c4.416,3.583,7.443,8.3,10.811,12.75,3.908,5.165,3.856,7.462-2.7,11.164-3.679,2.079-9.322,5.5-12.945,2.532-2.263-1.851-3.641-9.319-4.449-12.042-1.157-3.887-5.409-17.34,2.488-17.42C1084.922,81.828,1087.245,83.038,1089.5,84.865Z" transform="translate(-1078.033 -81.85)"/></g><g transform="translate(43.633)"><path class="e" d="M1069.551,74.839a7.177,7.177,0,0,1,1.3-2.7,6.727,6.727,0,0,1,2.515-1.884c5.1-2.271,10.963,1.181,16.567.921,2.2-.1,4.487-.774,6.531.021a7.717,7.717,0,0,1,3.054,2.49c.2.253.4.512.587.778,2.89,2.407,3.817,6.391,3.461,10.24a19.544,19.544,0,0,1-2.61,7.637,45.744,45.744,0,0,0-2.869,5.3c-.251.066-.5.124-.757.173-.116.022-.918.124-.948.145-.487.024-.975.022-1.46,0a26.218,26.218,0,0,1-2.957-.324,27.47,27.47,0,0,1-3.917-1.081c-.166-.108-.338-.213-.5-.323-.688-.835-1.389-1.659-2.113-2.467a37.864,37.864,0,0,0-6.5-5.529c-.921-.652-1.9-1.273-2.86-1.9h-.015c-.211-.138-.419-.28-.627-.422C1071.535,83.325,1068.089,80.474,1069.551,74.839Z" transform="translate(-1069.208 -69.481)"/></g><g transform="translate(47.689 9.21)"><path class="b" d="M1077.111,105.92c-.813-1.694-1.615-3.4-2.468-5.072a17.94,17.94,0,0,1-1.82-9.892,121.062,121.062,0,0,1,1.873-12.048,1.834,1.834,0,0,1,2.927-1.026c1.857,1.462,3.778,3.282,5.6,3.6a29.7,29.7,0,0,0,7.125.439.981.981,0,0,1,1.062,1.042l-.64,8.017a.986.986,0,0,0,.211.69.713.713,0,0,0,1.126-.018l.544-.716a3.828,3.828,0,0,1,2.122-1.387l.732-.182a1.67,1.67,0,0,1,2.138,1.422,3.049,3.049,0,0,1-1.484,3.227l-1.642.4-.159,2.7a2.724,2.724,0,0,1-.469,1.371C1088.774,106.019,1081.218,106.385,1077.111,105.92Z" transform="translate(-1072.733 -77.487)"/></g><g transform="translate(82.891 40.61)"><path class="h" d="M1104.935,121.443c1.687,4.89,4.621,9.286,7.687,13.5,5.47,7.546,13.349,14.468,17.662,22.524,3.984,7.448,3.908,15.82,2.572,23.836-.994,5.966-1.519,12.4-2.941,18.4-.2.847,7.566,2.838,8.424,2.859,3.754.086,3.795.02,6.438-2.3,3.677-3.227,5.921-9.563,7.2-14.086,3.778-13.347-.458-29.648-5.288-42.427a73.467,73.467,0,0,0-17.145-26.26c-4.291-4.218-14.826-14.868-21.837-12.319C1101.427,107.461,1103.279,116.63,1104.935,121.443Z" transform="translate(-1103.335 -104.784)"/></g><g transform="translate(107.198 134.276)"><g transform="translate(0 0)"><path class="c" d="M1124.845,186.63l-.38-.422c.061.141.119.285.173.428.036,0,.074,0,.11,0S1124.811,186.632,1124.845,186.63Z" transform="translate(-1124.465 -186.208)"/></g></g><g transform="translate(55.516 42.269)"><path class="i" d="M1079.558,113.326c0-.025-.015-.051-.021-.077,1.8-.676,3.506-1.776,5.516-1.706,3.308.115,3.179,3.321,5.6,4.639,3.367,1.838,7.037-1.1,9.568-3a84.162,84.162,0,0,0,7.945-6.808c.512-.492,1.255.323.745.816a83.915,83.915,0,0,1-8.492,7.209c-2.281,1.685-4.85,3.58-7.877,3.4a5.622,5.622,0,0,1-3.076-1.064c-1.148-.867-1.432-2.279-2.413-3.253-1.815-1.8-4.448-.346-6.342.475-.35.152-.7.291-1.046.414A5.087,5.087,0,0,0,1079.558,113.326Z" transform="translate(-1079.537 -106.225)"/></g><g transform="translate(48.704 68.007)"><path class="i" d="M1074.712,129.02c.528,5.669.869,11.391,1.616,17.035a23.709,23.709,0,0,0,2.461,7.117,10,10,0,0,1,1.237,5.846c-.1.687-1.223.629-1.117-.064.392-2.606-.916-4.82-2-7.109a19.115,19.115,0,0,1-1.75-6.18c-.623-5.458-1.031-10.95-1.541-16.418C1073.555,128.557,1074.648,128.325,1074.712,129.02Z" transform="translate(-1073.616 -128.6)"/></g><g transform="translate(62.946 91.129)"><path class="i" d="M1086,151.636c.033-.979.1-1.957.176-2.936a49.1,49.1,0,0,0,1.86,4.922c1.813,5.28-.209,10.836.833,16.2.925,4.752,3.848,8.863,4.944,13.568a15.075,15.075,0,0,1-.2,7.323c-.821,3.193-2.34,6.534-.99,9.8.267.645-.728,1.142-.995.491-1.933-4.673,1.186-9.054,1.449-13.711.286-5.079-2.825-9.617-4.458-14.259-1.8-5.111-.611-10.07-.928-15.308a19.4,19.4,0,0,0-1.674-5.981C1086.007,151.714,1086,151.675,1086,151.636Z" transform="translate(-1085.996 -148.7)"/></g><g transform="translate(89.043 69.751)"><path class="i" d="M1109.563,130.194q6.376,3.61,12.753,7.218c2.02,1.142,4.045,2.279,6.058,3.429,1.364.781,2.539,1.53,3.023,3.085.213.687-.883.913-1.1.234-.594-1.912-3.52-2.937-5.1-3.831q-2.711-1.537-5.42-3.069l-10.84-6.134C1108.315,130.772,1108.937,129.841,1109.563,130.194Z" transform="translate(-1108.682 -130.116)"/></g></g><g transform="translate(366.159 322.207)"><path class="j" d="M1085.518,122.571c-.376,11.038,1.639,22.253,6.449,31.639a41.935,41.935,0,0,0,5.13,7.783c1.283,1.061,2.562,2.135,3.819,3.244,2.056,1.808,4.325,3.829,6.505,6.081.277.274.549.559.811.854a35.387,35.387,0,0,1,7.4,11.215c.9-2.708,1.859-5.378,2.913-8-.29-6.8-4-12.3-7.765-16.892-1.9-2.311-3.851-4.558-5.81-6.8-.919-.917-1.817-1.837-2.673-2.77a53.7,53.7,0,0,1-5.2-6.549q-1.023-1.289-2.013-2.616c-3.923-5.269-7.282-11.774-7.661-18.882a9.207,9.207,0,0,0,1.054-1.161.5.5,0,0,0,.2-.106,6.728,6.728,0,0,0,1.631-2.833,26.979,26.979,0,0,0-3.182-5.382,56.054,56.054,0,0,1-3.545,4.722A16.1,16.1,0,0,0,1085.518,122.571Zm.243-7.269a7.906,7.906,0,0,1,.249.866l-.04.366C1085.878,116.127,1085.813,115.717,1085.761,115.3Z" transform="translate(-1083.574 -111.388)"/></g></g></g></svg>