<svg xmlns="http://www.w3.org/2000/svg" xmlns:xlink="http://www.w3.org/1999/xlink" width="60" height="60" viewBox="0 0 60 60"><defs><style>.a{fill:none;}.b{fill:#fff;stroke:#006cb4;}.c{clip-path:url(#a);}.d{fill:#feb6b9;}.e{fill:#023476;}.f{fill:#6cceff;}.g{fill:#9e5d4e;}.h{fill:#2a6be2;}.i{fill:#3093d0;}.j{fill:#f6be8f;}.k{stroke:none;}</style><clipPath id="a"><circle class="a" cx="29" cy="29" r="29"/></clipPath></defs><g transform="translate(-19 -73)"><g class="b" transform="translate(19 73)"><circle class="k" cx="30" cy="30" r="30"/><circle class="a" cx="30" cy="30" r="29.5"/></g><g class="c" transform="translate(20 74)"><ellipse class="a" cx="30.5" cy="31" rx="30.5" ry="31" transform="translate(-1 -4)"/><g transform="translate(2.977 7.451)"><g transform="translate(29.25 22.691)"><path class="d" d="M288.242,143.1c1.31-1.321,3.406-.4,4.887.675a41.029,41.029,0,0,1,10.6,11.467q.3.474.58.96,6.406-6.26,12.286-13.128c-1.182-1.336-.588-3.743.755-4.884.843-.721,1.508-1.628,2.934-1.281,1.016.57.978,3.764-.429,5.676a9.532,9.532,0,0,1-1.12,1.17c.01,9.388-5.419,18.608-13.314,22.259a2.8,2.8,0,0,1-1.306.347,3.013,3.013,0,0,1-1.511-.729c-.8-.592-1.58-1.2-2.35-1.832a71.252,71.252,0,0,1-7.176-6.725c-2.79-3-5.483-6.623-5.688-10.912A4.08,4.08,0,0,1,288.242,143.1Z" transform="translate(-287.381 -136.83)"/></g><g transform="translate(29.25 28.306)"><g transform="translate(0 0)"><path class="e" d="M322.1,151.84c.2,4.289,2.9,7.908,5.688,10.912a71.246,71.246,0,0,0,7.176,6.725,39.383,39.383,0,0,0,3.474-8.558,41.03,41.03,0,0,0-10.6-11.467c-1.481-1.074-3.576-2-4.887-.675A4.08,4.08,0,0,0,322.1,151.84Z" transform="translate(-322.091 -148.124)"/></g></g><g transform="translate(37.055 107.934)"><path class="d" d="M318.223,317.138l7.9-.48a1.144,1.144,0,0,0,.194-2.254l-4.356-1.03a1.507,1.507,0,0,1-.3-.109s-.007,0-.012-.006a.723.723,0,0,1-.12-.071.9.9,0,0,1-.107-.079,1.263,1.263,0,0,1-.345-.425,1.332,1.332,0,0,1-.131-.4L320.9,312l-.592-3.724-5.048.688.863,4.884.1.565.234,1.336A1.69,1.69,0,0,0,318.223,317.138Z" transform="translate(-315.264 -308.275)"/></g><g transform="translate(38.017 112.791)"><path class="e" d="M317.261,322.05l7.9-.48a1.144,1.144,0,0,0,.194-2.254L321,318.285a1.5,1.5,0,0,1-.3-.109l.466.017c-.072-.015-.138-.027-.212-.038-.127-.023-.256-.044-.386-.057a8.2,8.2,0,0,0-4.882.953,3.274,3.274,0,0,0-.427.272l.234,1.336A1.689,1.689,0,0,0,317.261,322.05Z" transform="translate(-315.264 -318.043)"/></g><g transform="translate(16.947 107.743)"><path class="d" d="M359.858,316.5l7.836,1.139a1.142,1.142,0,0,0,.651-2.165l-4.054-1.9a1.437,1.437,0,0,1-.269-.168l-.01-.008a.843.843,0,0,1-.1-.095c-.03-.029-.06-.063-.089-.1a1.272,1.272,0,0,1-.249-.487,1.29,1.29,0,0,1-.048-.42l.014-.285.177-3.77-5.083-.354-.153,4.957-.018.573-.039,1.358A1.681,1.681,0,0,0,359.858,316.5Z" transform="translate(-358.418 -307.89)"/></g><g transform="translate(16.947 112.739)"><path class="e" d="M359.858,321.547l7.836,1.139a1.142,1.142,0,0,0,.651-2.165l-4.054-1.9a1.436,1.436,0,0,1-.269-.168l.453.112c-.067-.029-.132-.055-.2-.079-.118-.05-.241-.094-.366-.136a8.217,8.217,0,0,0-4.973-.06,3.905,3.905,0,0,0-.477.178l-.039,1.358A1.681,1.681,0,0,0,359.858,321.547Z" transform="translate(-358.418 -317.938)"/></g><g transform="translate(12.859 57.434)"><g transform="translate(0 0)"><path class="f" d="M322.629,212.457a7.983,7.983,0,0,1,3.215-2.514,22.692,22.692,0,0,1,10.5-2.735c6.409.1,9.129-2.735,12.166,4.092.4,5.316,3.534,18.393,5.039,23.458a28.841,28.841,0,0,1,.931,12.494,22.393,22.393,0,0,1-.535,2.595c-.461,1.686-1.127,7.272-2.258,8.379-.634.62-5.672,1.733-5.825,1.127-1.627-6.4-5.066-26.347-9.262-31.232-2.256,6.559-1.169,22.572-3.808,29.045a2.1,2.1,0,0,1-.543.877,2.134,2.134,0,0,1-1.4.317l-3.88-.029a1.141,1.141,0,0,1-1.138-1.184C326.093,250.37,320.093,216.377,322.629,212.457Z" transform="translate(-322.002 -206.707)"/></g></g><g transform="translate(30.249 12.523)"><g transform="translate(0)"><path class="g" d="M350.8,116.467l1.074-.086C351.52,116.4,351.159,116.429,350.8,116.467Z" transform="translate(-350.797 -116.381)"/></g></g><g transform="translate(12.533 25.561)"><g transform="translate(0 0)"><path class="h" d="M331.9,150.848c1.184-3.471,3.794-6.72,7.5-7.836,5.525-1.67,11.564,2.018,14.265,6.837s2.931,10.466,3.325,15.894a202.885,202.885,0,0,0,2.523,20.3,2.446,2.446,0,0,0-.288,1.111l-.887-.258c.542.505-.409,1.214-1.16,1.354a51.314,51.314,0,0,1-26.245-2.041q-.087-12.266-.176-24.53C330.726,158.038,330.709,154.32,331.9,150.848Z" transform="translate(-330.744 -142.604)"/></g></g><g transform="translate(0 29.481)"><g transform="translate(0 0)"><path class="d" d="M379.045,178.46c-.595,4.556.271,13.022-2.7,16.742a9.8,9.8,0,0,0-1.393,1.8,1.593,1.593,0,0,0,.409,2.037,1.93,1.93,0,0,0,1.141.155c7.292-.71,8.246-10.781,9.222-16.363a70.5,70.5,0,0,1,1.47-7.491.089.089,0,0,0,.006-.018c.065-.22.128-.436.2-.653.332-1.041.729-2.058,1.151-3.064.745-1.783,1.578-3.531,2.313-5.316a52.944,52.944,0,0,0,3.167-10.9c.315-1.79.231-4.156-1.468-4.774-1.263-.459-2.6.415-3.586,1.338-4.645,4.343-6.942,10.35-8.328,16.684C379.939,171.883,379.471,175.219,379.045,178.46Z" transform="translate(-374.766 -150.486)"/></g></g><g transform="translate(18.974 3.197)"><path class="i" d="M362.667,111.449a112.885,112.885,0,0,0-.455-12.723,1.128,1.128,0,0,0-.248-.73,1.1,1.1,0,0,0-.662-.236,18.862,18.862,0,0,0-3.13-.117c-1.244.055-2.735.431-3.092,1.625-.332,1.1-5.875,6.346-5.117,7.211,1.5,1.713,9.278-.643,10.523,1.265a9.755,9.755,0,0,1,1.735,3.958Z" transform="translate(-349.892 -97.623)"/></g><g transform="translate(20.014 7.816)"><path class="j" d="M355.048,108.507a14.137,14.137,0,0,0-1.935-.757.327.327,0,0,1-.289.029,10.22,10.22,0,0,1-2.707.353,7.241,7.241,0,0,1-4.436-1.218c-1.1,1.648-.738,4.115-.468,5.986.335,2.321.7,4.735-.658,6.581,8.311,8.221,12.842,3.155,12.842,3.155C361.433,116.818,356.6,112.857,355.048,108.507Z" transform="translate(-344.555 -106.913)"/></g><g transform="translate(18.711 11.41)"><g transform="translate(0)"><path class="j" d="M362.446,131.585a15.886,15.886,0,0,1-2.044-9.6,10.754,10.754,0,0,0-.088-2.933,3.541,3.541,0,0,0-.813-2.216,3.768,3.768,0,0,0-1.184-.649q-1.6-.644-3.188-1.285a8.173,8.173,0,0,0-2.875-.762.92.92,0,0,0-.584.132.869.869,0,0,0-.254.705,32.113,32.113,0,0,0,.065,3.331,29.36,29.36,0,0,1,.2,6.544,14.247,14.247,0,0,1-1.563,4.407,5.206,5.206,0,0,1-.356.589,2.135,2.135,0,0,0,.951,3.216,14.431,14.431,0,0,0,11.167.007c.35-.159.732-.379.8-.731A1.149,1.149,0,0,0,362.446,131.585Z" transform="translate(-349.366 -114.142)"/></g></g><g transform="translate(13.423 0)"><path class="i" d="M348.282,99.092c1.677-1.466,4.037-1.645,5.878-3.064,1.666-1.279,3.082-2.9,4.906-3.934s4.308-1.353,5.911,0a4.114,4.114,0,0,1,1.121,4.354,5.343,5.343,0,0,1-3.29,3.224c-4.329,1.566-9.951-.552-8.673,6.018.529,2.724,1.469,5.256.662,7.91a4.054,4.054,0,0,1-1.049,1.89,1.748,1.748,0,0,1-2.018.293,2.917,2.917,0,0,1-.96-2.081c-.34-1.863-1.813-3.336-2.748-4.982a14.941,14.941,0,0,1-1.841-3.683A6.214,6.214,0,0,1,348.282,99.092Z" transform="translate(-346.039 -91.194)"/></g><g transform="translate(5.879 29.481)"><g transform="translate(0 0)"><path class="e" d="M374.766,168.634a32.422,32.422,0,0,0,7.9,2.97c.745-1.783,1.578-3.531,2.313-5.316a52.94,52.94,0,0,0,3.167-10.9c.315-1.79.231-4.156-1.468-4.774-1.263-.459-2.6.415-3.586,1.338C378.448,156.293,376.152,162.3,374.766,168.634Z" transform="translate(-374.766 -150.486)"/></g></g></g></g></g></svg>