<svg xmlns="http://www.w3.org/2000/svg" xmlns:xlink="http://www.w3.org/1999/xlink" width="60" height="60" viewBox="0 0 60 60"><defs><style>.a{fill:none;}.b{fill:#fff;stroke:#006cb4;}.c{clip-path:url(#a);}.d{fill:#feb6b9;}.e{fill:#ff6e8b;}.f{fill:#ffe7e4;}.g{fill:#4281f3;}.h{fill:#f6be8f;}.i{fill:#f7a09c;}.j{stroke:none;}</style><clipPath id="a"><circle class="a" cx="29" cy="29" r="29"/></clipPath></defs><g transform="translate(-19 -73)"><g class="b" transform="translate(19 73)"><circle class="j" cx="30" cy="30" r="30"/><circle class="a" cx="30" cy="30" r="29.5"/></g><g class="c" transform="translate(20 74)"><ellipse class="a" cx="30.5" cy="31" rx="30.5" ry="31" transform="translate(-1 -4)"/><g transform="translate(4.339 6.446)"><g transform="translate(0 67.268)"><g transform="translate(0)"><path class="d" d="M173.732,265.231c-1.084,4.827-3.866,8.5-6.55,12.063-1.107,1.457-2.252,2.975-3.275,4.553-.313.493-1.137.926-1.208,1.374a18.623,18.623,0,0,0,.166,2.359v.011c0,.107.667.2.726.314a13.612,13.612,0,0,1,1.122,1.818,3.9,3.9,0,0,1,.313,1.374,1.452,1.452,0,0,1-.389.986.994.994,0,0,1-.256.23,1.537,1.537,0,0,1-1.409.061,12.413,12.413,0,0,1-4.714-3.894,3.555,3.555,0,0,1-.734-1.6,3.99,3.99,0,0,1,.688-2.481c.132-.239.266-.492.4-.744s.275-.483.394-.735c.014,0,.014-.011.014-.011a114.423,114.423,0,0,0,5.117-10.874,14.224,14.224,0,0,0,1.059-5.974c-.012-.227-.023-.467-.049-.747-.3-.817-.6-1.6-.889-2.358a10.235,10.235,0,0,1,1.309-1.069,30.012,30.012,0,0,1,4.373-2.506A34.762,34.762,0,0,1,173.166,256C173.767,258.969,174.359,262.439,173.732,265.231Z" transform="translate(-157.496 -255.996)"/></g></g><g transform="translate(21.457 61.378)"><path class="d" d="M117.959,288.213c0-1.865-.838-3.4-1.332-5.035-.014-.033-.866-3.019-.877-3.068a68.644,68.644,0,0,1-2.119-10.848c-.155-1.409-.51-2.747-.654-3.855a30.971,30.971,0,0,0-1.659-6.429c-.266-.818-.618-1.733-.944-2.864-.589-1.976-1.013-4-1.4-5.961-.254-1.264-.519-2.589-.82-3.853l-.176-.7.646-.288c2.48-1.1,5.368-1.228,8.162-1.362.3-.022.6-.035.9-.048l.722-.035.156.71a86.387,86.387,0,0,1,1.48,9.683,31.827,31.827,0,0,1,.193,3.84c0,.7.011,1.48.059,2.7.1,2.143.014,4.732-.071,7.465-.155,4.864-.336,10.1.568,13.77a2.006,2.006,0,0,0,2,1.345h.012c.349,0,.709.572,1.071.7a15.176,15.176,0,0,1,2.481,1.262,1.764,1.764,0,0,1,.71,1.418,1.514,1.514,0,0,1-.686,1.31l-.073.049-.084.034c-.13.052-.252.1-.371.136l-.1.022c-.274.061-.635.132-1,.193-.386.071-.771.134-.964.179-.169.038-.326.076-.493.11l-.086.013a1.011,1.011,0,0,1-.2.024,17.744,17.744,0,0,1-2.71.05,19.325,19.325,0,0,1-2.852-.421l-.2-.049-.171-.143c-.613-.53.708-1.29.683-2.2" transform="translate(-107.979 -243.867)"/></g><g transform="translate(11.862 0)"><path class="e" d="M119.705,123.83c3.88-5.791,8.89-8.1,15.565-4.96,1.668.784,3.42,1.919,3.844,3.789.474,2.081-.88,4.182-.986,6.333-.135,2.7,1.61,5.046,2.876,7.391,2.473,4.592-16.447,5.129-18.786,4.033C115.136,137.1,115.887,129.524,119.705,123.83Z" transform="translate(-116.847 -117.462)"/></g><g transform="translate(0.037 24.778)"><g transform="translate(0)"><path class="d" d="M153.023,192.412q-2.364,9.53-4.731,19.055a4.2,4.2,0,0,0,4.908-1.2l-.084.213c.05-.1.1-.194.149-.288a3.748,3.748,0,0,0,.8-1.574,72.664,72.664,0,0,0,4.531-11.584,63.548,63.548,0,0,1,2.093-6.6s.005-.008.005-.016c.082-.19.162-.38.248-.57.4-.9.866-1.778,1.352-2.641.854-1.531,1.786-3.022,2.629-4.557a48.189,48.189,0,0,0,3.975-9.5c.466-1.583.633-3.726-.835-4.456-1.092-.543-2.388.107-3.372.837-4.632,3.442-7.318,8.621-9.218,14.189C154.5,186.573,153.739,189.535,153.023,192.412Z" transform="translate(-148.292 -168.491)"/></g></g><g transform="translate(7.991 24.777)"><path class="f" d="M160.108,168.69c-1.092-.541-2.388.109-3.372.839-4.036,3-6.6,7.319-8.444,12.062,1.213,2.14,3.278,2.62,5.895,2.653a3.238,3.238,0,0,1,1.625.42c.393-.668.783-1.336,1.157-2.016a48.189,48.189,0,0,0,3.975-9.5C161.409,171.565,161.576,169.422,160.108,168.69Z" transform="translate(-148.292 -168.49)"/></g><g transform="translate(26.42 26.904)"><g transform="translate(0)"><path class="d" d="M108.752,200.762c1.652,3.376,1.964,4.476,4.187,7.25.6.754,1.427.538,1.877,1.5.183.39-.434,2.289-.352,2.935a13.075,13.075,0,0,0,2.6,5.443c1.72-2.823,2.7-4,1.919-7.21-.986-4.032-1.333-6.149-2.995-9.956a63.248,63.248,0,0,1-2.637-6.4.024.024,0,0,1,0-.016c-.063-.2-.124-.394-.178-.593-.269-.954-.481-1.921-.664-2.894-.33-1.721-.573-3.463-.913-5.182a48.056,48.056,0,0,0-3.061-9.834c-.659-1.512-1.906-3.259-3.5-2.876-1.186.288-1.761,1.617-2.043,2.809-1.339,5.611-.068,11.3,2.052,16.792C106.134,195.335,107.452,198.094,108.752,200.762Z" transform="translate(-102.44 -172.869)"/></g></g><g transform="translate(26.419 26.904)"><g transform="translate(0)"><path class="f" d="M126.528,190.2c-.274-1.52-.5-3.047-.8-4.566a48.056,48.056,0,0,0-3.061-9.834c-.659-1.512-1.906-3.259-3.5-2.876-1.186.288-1.761,1.617-2.043,2.809-1.231,5.157-.257,10.379,1.553,15.447A10.037,10.037,0,0,0,126.528,190.2Z" transform="translate(-116.572 -172.869)"/></g></g><g transform="translate(0.247 22.479)"><path class="g" d="M150.8,220.84a25.889,25.889,0,0,0-.243-8.276c-.721-4.3-2.2-8.429-3.2-12.672-1.855-7.863-1.545-14.53-1.107-22.4a11.479,11.479,0,0,0-.829-5.96c-1.625-3.139-6.226-8.655-10.361-7.653-5.988,1.446-6.9,10.651-7.84,15.5a84.464,84.464,0,0,1-5.566,19.078c-1.47,3.261-3.041,6.48-4.454,9.763-.573,1.333-3.957,5-3.844,5.928a2.972,2.972,0,0,0,1.08,1.648,23.666,23.666,0,0,0,9.415,5.913,80.835,80.835,0,0,0,11.9,3.837c3.482.8,9.1,2.189,12.365.058A6.823,6.823,0,0,0,150.8,220.84Z" transform="translate(-113.355 -163.757)"/></g><g transform="translate(20.258 6.916)"><g transform="translate(0)"><path class="h" d="M124.565,142.574a13.841,13.841,0,0,0,4,3.66l0-.173s3.336,1.042,4.924-.013c5.462-3.628,2.523-14.344,2.523-14.344-3.417,3.048-9.219,1.616-9.219,1.616l-.646,4.58A13.426,13.426,0,0,1,124.565,142.574Z" transform="translate(-124.565 -131.704)"/></g></g><g transform="translate(19.693 12.027)"><g transform="translate(0)"><path class="h" d="M133.419,145.457c.758,4.507-.07,6.621-2.713,10.353a15.91,15.91,0,0,0,9.731,3.1c-.6-3.2-1.194-6.5-.443-9.669.357-1.5.968-3.228.043-4.458a3.916,3.916,0,0,0-1.4-1.041,18.434,18.434,0,0,0-3.28-1.287,3.6,3.6,0,0,0-1.817-.162,1.41,1.41,0,0,0-1.137,1.272c0,.13.048.277.169.311s.234-.178.113-.217Z" transform="translate(-130.706 -142.23)"/></g></g><g transform="translate(30.389 100.888)"><g transform="translate(0)"><path class="g" d="M118.138,328.619a1.514,1.514,0,0,1-.686,1.31l-.073.049-.084.034c-.13.052-.252.1-.371.136l-.1.022c-.274.061-.635.132-1,.193-.386.071-.771.134-.964.179-.169.038-.326.076-.493.11l-.086.013a1.011,1.011,0,0,1-.2.024,17.748,17.748,0,0,1-2.71.049,19.325,19.325,0,0,1-2.852-.421l-.2-.049-.171-.143c-.613-.53.708-1.29.683-2.2l.2-.24v-.544a5.755,5.755,0,0,1,.1-1.365c2.13-.143,2.592-.533,4.736-.533h.012c.349,0,.709.572,1.071.7a15.18,15.18,0,0,1,2.481,1.262A1.764,1.764,0,0,1,118.138,328.619Z" transform="translate(-107.979 -325.236)"/></g></g><g transform="translate(1.114 92.181)"><g transform="translate(0)"><path class="i" d="M188.77,307.315c-.122.253-.255.493-.4.735.12-.242.252-.494.383-.746Z" transform="translate(-188.373 -307.304)"/></g></g><g transform="translate(0.992 91.77)"><g transform="translate(0)"><path class="i" d="M189.008,306.939l-.41-.482A1.441,1.441,0,0,1,189.008,306.939Z" transform="translate(-188.598 -306.457)"/></g></g><g transform="translate(0.003 92.181)"><g transform="translate(0)"><path class="g" d="M183.346,315.493a1.512,1.512,0,0,1-.471.986,1.1,1.1,0,0,1-.289.23,1.617,1.617,0,0,1-.782.2,1.586,1.586,0,0,1-.649-.142,12.431,12.431,0,0,1-4.721-3.894,3.559,3.559,0,0,1-.733-1.6,4,4,0,0,1,.684-2.481c.135-.239.268-.492.4-.744s.252-.494.383-.746l-.519.011c1.769,1.432,3.58,2.9,4.39,4.66v.011c0,.107.667.2.726.314a13.611,13.611,0,0,1,1.122,1.818c.049.132.206.251.241.372A3.7,3.7,0,0,1,183.346,315.493Z" transform="translate(-175.674 -307.304)"/></g></g></g></g></g></svg>