<svg xmlns="http://www.w3.org/2000/svg" xmlns:xlink="http://www.w3.org/1999/xlink" width="60" height="60" viewBox="0 0 60 60"><defs><style>.a{fill:none;}.b{fill:#fff;stroke:#006cb4;}.c{clip-path:url(#a);}.d{fill:#73d7ff;}.e{fill:#003575;}.f{stroke:none;}</style><clipPath id="a"><circle class="a" cx="29" cy="29" r="29"/></clipPath></defs><g transform="translate(-19 -73)"><g class="b" transform="translate(19 73)"><circle class="f" cx="30" cy="30" r="30"/><circle class="a" cx="30" cy="30" r="29.5"/></g><g class="c" transform="translate(20 74)"><ellipse class="a" cx="30.5" cy="31" rx="30.5" ry="31" transform="translate(-1 -4)"/><g transform="translate(-44.137 -6.922)"><g transform="translate(51.7 16.312)"><path class="d" d="M30.942,21s11.3,6.61,18.5,0L50.5,23.995l6.154,2.136,2.684,6.117v5.186L47.778,45.049l-8.619,1.516L27.6,44.884l-6.391-3.323-1.37-6.884,1.37-6.391,1.972-3.049,7.432-1.516Z" transform="translate(-18.923 6.208)"/><path class="e" d="M35.692,32.358c-5.588,0-9.952-6.482-9.952-14.736C25.74,7.232,32.7,6.1,35.692,6.1s9.952,1.114,9.952,11.522C45.644,25.876,41.261,32.358,35.692,32.358Zm0-22.606c-4.236,0-6.3,2.575-6.3,7.87,0,6.008,2.885,11.084,6.3,11.084s6.3-5.076,6.3-11.084c-.018-5.314-2.063-7.888-6.3-7.888Z" transform="translate(-14.05 -6.1)"/><path class="e" d="M47.544,39.255h-.128a1.826,1.826,0,0,1-1.7-1.936c.183-2.849-.164-8.071-1.917-9.952a1.826,1.826,0,0,0-1.479-.657,9.568,9.568,0,0,1-7.176-3.086A1.826,1.826,0,0,1,37.83,21.2a5.843,5.843,0,0,0,4.492,1.826,5.478,5.478,0,0,1,4.145,1.826c3.415,3.652,2.958,11.778,2.9,12.782A1.826,1.826,0,0,1,47.544,39.255Z" transform="translate(-6.546 6.012)"/><path class="e" d="M21.606,41.84a1.826,1.826,0,0,1-1.826-1.516C19.6,39.266,18.118,29.77,21.843,25.37a6.3,6.3,0,0,1,4.985-2.282,5.9,5.9,0,0,0,4.529-1.826,1.828,1.828,0,0,1,2.666,2.5,9.641,9.641,0,0,1-7.194,2.976,2.629,2.629,0,0,0-2.155.95c-2.228,2.648-1.643,9.714-1.26,11.979a1.826,1.826,0,0,1-1.5,2.1Z" transform="translate(-19.338 5.947)"/></g></g></g></g></svg>