<svg xmlns="http://www.w3.org/2000/svg" xmlns:xlink="http://www.w3.org/1999/xlink" width="498.933" height="500.755" viewBox="0 0 498.933 500.755"><defs><style>.a{fill:url(#a);}</style><linearGradient id="a" x1="0.737" y1="0.682" x2="0.487" y2="0.439" gradientUnits="objectBoundingBox"><stop offset="0" stop-color="#f3f8fe"/><stop offset="1" stop-color="#daf0fe"/></linearGradient></defs><path class="a" d="M-652.495-646.79c-59.226-6.276-86.331-97.529-125.984-111.4-6.028-2.109-12.18-4.495-16.555-9.146-4.03-4.285-6.2-10.128-7.9-15.962-13.73-47.094-2-101.359,22.5-147.031,10.13-18.887,22.682-37.016,39.363-50.144,34-26.756,78.552-28.423,119.317-27.209,25.765.767,52.085,2.343,74.965,12.948,6.707,3.109,13.414,7.4,16.165,14.482,4.742,12.22-4.021,26.493-12.894,37.254s-19.112,23.019-17.749,36.381c1.561,15.3,17.2,22.868,30.864,28.087,20.959,8.007,42.178,16.475,59.13,31.093,7.791,6.719,14.945,15.664,14.8,26.62-.071,5.308-1.887,10.609-4.36,15.472-14.143,27.805-46.023,39.38-73.33,52.816-8.581,4.222-17.2,9.047-23.693,16.38C-576.686-714.877-593.269-640.514-652.495-646.79Z" transform="matrix(0.799, 0.602, -0.602, 0.799, 256.884, 1291.718)"/></svg>