<svg xmlns="http://www.w3.org/2000/svg" width="325.587" height="311.435" viewBox="0 0 325.587 311.435"><defs><style>.a{fill:#e3f0f9;}.b{fill:#f9bcaa;}.c{fill:#263238;}.d{fill:#ffb288;}.e{fill:#1c7dc6;}.f{fill:#532523;}.g{fill:#682e2e;}.h{fill:#3728d3;}.i{fill:#18272d;}.j{fill:#0b63b2;}.k{fill:#4432db;}.l{fill:#e6a677;}.m{fill:#004da0;}.n{fill:#ffcd69;}.o{fill:#ffe092;}.p{fill:#2b337c;}.q{fill:#467de4;}.r{fill:#2c1f9c;}.s{fill:#5abddc;}.t{fill:#cfe4ff;}.u{fill:#ffc2b0;}.v{fill:#915151;}.w{fill:#f09a82;}.x{fill:#a1bee3;}.y{fill:#345faf;}.z{fill:#d3f2f2;}.aa{fill:#fff;}.ab{fill:#cae7e2;}.ac{fill:#3c68ba;}</style></defs><g transform="translate(-646.237 -264)"><g transform="translate(-446.503 2986.258)"><g transform="translate(1236.387 -2722.258)"><path class="a" d="M246.141,346.03l2.321-6.565c7.756,4.122,6.345,8.178,6.682,13.168.314,4.525,0,8.174.253,12.23.263,4.385-3.067,7.381-8.211,7.869-7.916.769-3.756-9.1-3.194-10.9C251.027,358.279,250.366,350.757,246.141,346.03Z" transform="translate(-183.908 -106.062)"/><path class="a" d="M237.416,347.591a11.909,11.909,0,0,0,7.344,2.007c5.782-.9,14.828-5.332,15.1-10.772a10.156,10.156,0,0,1,1.5,1.979c1.083,1.721,4.6,8.553-5.524,10.495-8.469,1.632-16.146,8.539-23.147,4.352C227.371,352.463,230.883,349.157,237.416,347.591Z" transform="translate(-229.293 -108.419)"/><path class="b" d="M258.362,342.068c-1,3.189-.127,8,.577,10.307.558,1.848,3.142,10.486-7.086,11.85-6.5.854-12.751,6.237-17.8,4.507-8.052-2.757-.4-6.879,2.265-8.493,3.5-2.115,7.728-6.631,10.378-9.651,3.911-4.45,3.559-7.737,3.728-15.569Z" transform="translate(-227.918 -122.461)"/><path class="c" d="M237.546,347.306c.966,2.748,5.632,2.077,7.189,1.651,8.258-2.293,17.44-5.064,15.259-10.415a10.77,10.77,0,0,1,1.505,1.97c1.078,1.721,4.591,8.563-5.529,10.514-6.2,1.182-11.953,5.158-17.36,5.59-1.974.174-7.63-1.036-8.4-3.381C229.494,351.062,232.931,348.417,237.546,347.306Z" transform="translate(-229.227 -109.471)"/><path class="d" d="M241.064,297.549c.422-.056,3.719,15.339,3.939,18.425.633,9.013,3.306,21.158,1.168,30.036-1.257,5.2-7.587,8.647-7.587,2.448,0-12.507-5.051-24.357-5.393-36.826C233.1,308.325,234.208,298.51,241.064,297.549Z" transform="translate(-217.903 -260.707)"/><path class="b" d="M230.72,331.113c-1.121-1.918-.357-5.318,1.505-7.353,5.6-3.615,9.482-8.131,14.209-11.409a56.083,56.083,0,0,1,12.46-6.026,12.548,12.548,0,0,1,11.836,1.937c-1.829,2.387-8.056,9.027-10.889,10.879a52.6,52.6,0,0,1-11.7,5.707C245.1,325.983,237.717,329.055,230.72,331.113Z" transform="translate(-228.929 -230.941)"/><path class="e" d="M232.4,313.585c3.283-1.271,6.228,1.59,6,4.774,1.824-2.082,7.165-10.293,2.1-11.367-2.593-.549-4.492,1.585-6.687,3.015C230.968,311.845,232.4,313.585,232.4,313.585Z" transform="translate(-222.134 -226.195)"/><path class="f" d="M263.114,307.08s.23.211.614.605c2.326,2.326,10.443,11.175,9.89,20.333-.647,10.687-.914,16.647-.914,16.647L246.481,361.5s-5.2,1.036-11.484-3.043-7.043-25.023-.46-33.806,19.606-8.91,19.606-8.91Z" transform="translate(-229.927 -225.543)"/><path class="b" d="M230.362,317.567c.145-.422-.314-3.644.9-6.439,1.121-2.607,5.341-.933,5.341-.933a3.209,3.209,0,0,1,3.47,1.5c.525.863.75,2.059,1.529,2.767.225.2,1.721.422,1.829.689.366.91-1.149,1.43-1.843,1.346-2.091-.244-1.819-2.026-3.437-1.323a2.714,2.714,0,0,0-.652.431c.084,1.107.084,2.03.131,2.241,1.116,2.875,3.067,9.205.9,9.449-.83-1.941-1.3-4.539-2.213-6.434-.553-1.14-.816-1.318-.928.047s.511,2.856.727,4.192c.117.68.867,3.025.3,3.6-.722.732-2.926-.947-3.306-1.688C231.619,324.193,229.241,320.906,230.362,317.567Z" transform="translate(-229.396 -216.002)"/><path class="g" d="M237.412,302.179l3.222-.263-4.22,36.169L235.175,348.7l-3.208-2.621a34.27,34.27,0,0,1,.277-8.056C233.562,328.571,235.794,312.9,237.412,302.179Z" transform="translate(-222.823 -244.595)"/><path class="h" d="M233.981,326.843c-1.018,8.563,2.495,11.475,3.133,18.434s.647,28.577.586,39.728c2.091,2.861,7.883,3.822,8.394,1.229,3.1-15.878,10.138-29.853,5.9-41.018-2.71-7.123-9.688-22.167-9.688-22.167Z" transform="translate(-215.65 -166.627)"/><path class="h" d="M253.334,382.194c-5.918-1.679-10.706-.253-13.745-4.76-4.544-21.135-6.79-32.052-7.32-43.288-.3-6.457.877-16.6,4.291-23.409,6.729,1.857,19.869,15.072,22.434,21.529C264.607,346.484,251.388,360.806,253.334,382.194Z" transform="translate(-221.452 -212.051)"/><path class="c" d="M246.043,345.72l2.331-6.575c7.747,4.117,6.331,8.188,6.673,13.168.309,4.535,0,8.178.253,12.249.263,4.385-3.057,7.362-8.206,7.855-7.911.769-3.761-9.093-3.193-10.9C250.934,357.954,250.273,350.437,246.043,345.72Z" transform="translate(-184.251 -107.243)"/><path class="i" d="M234.626,304.615c2.115,8.713,5.421,15.77,1.163,21.688-4.258,5.937-3.254,6.138-.83,8.933,2.429,2.771,10.8-16.281,8.469-21.346S234.626,304.615,234.626,304.615Z" transform="translate(-219.076 -234.637)"/><path class="b" d="M244.439,331.521c3.869-.591,7.761-1.271,11.667-1.857,1.843,9.824-.042,22.645,2.016,42.955.671,2.593,1.791,4.746,2.068,6.87.474,3.766,1.73,16.826-1.482,18.162-2.612,1.1-7.236,2.64-6.978.624.281-2.153-2.743-11.963-2.56-20.572.244-14.593-5.712-33.946-8.577-43.841-.141-.469-.3-1.036-.474-1.669C241.564,331.971,243,331.746,244.439,331.521Z" transform="translate(-192.321 -142.221)"/><path class="j" d="M242.885,297.52a28.406,28.406,0,0,1-3.217.136s-3.606,2.387-4.019,3.9-2.861,20.877-2.861,20.877l5.055.408Z" transform="translate(-219.368 -260.813)"/><path class="k" d="M239.089,308.641c1.111,4.671,6.725,7.053,11.372,7.278,5.308.277,10.035-.3,13.721-3.752a39.291,39.291,0,0,1,10.171,16.1c2.626,8.821-4.225,21.726-4.23,38.734-.009,15.039.019,16.8,2.738,22.5,1.538,3.236-6.936,5.552-16.915,2.734-4.469-6.687-12.46-33.834-10.359-52.657a31.79,31.79,0,0,1-6.7-9.041C235.361,323.844,228.074,322.367,239.089,308.641Z" transform="translate(-217.692 -219.784)"/><path class="a" d="M232.221,321.834a17.186,17.186,0,0,0,3.273,8.783,26.6,26.6,0,0,0,2.95,3.508c1.7,4.943,2.64,4.957,3.9,9.688.591,2.176-.891,8.347-3.081,10.818-1.74,1.941,1.191,7.133,4.455,9.871,5.44,4.558,29.243,7.236,31.039-2.223-4.319-7.086-8.722-12.108-7.517-16.394,2.359-8.464,11.841-10.964,15.3-20.343.037-.094.065-.183.1-.258l.047-.127a13.23,13.23,0,0,0-.867-8.943s-7.569-12.371-19.17-16.558a33.968,33.968,0,0,0-13.918-2.209,17.867,17.867,0,0,0-4.085.708l-.234.08-.014.019a5.771,5.771,0,0,0-2.176,2.757c-.014.037-.014.084-.028.113a39.086,39.086,0,0,1-2.542,5.318l-.028.07c-1.585,2.936-3.33,5.885-3.55,6.209-1.168,1.8-2.589,3.466-3.311,5.482A9.746,9.746,0,0,0,232.221,321.834Z" transform="translate(-221.482 -261.315)"/><path class="l" d="M236.209,308.044c2.185-.366,3.02.047,4.347-1.73a81.372,81.372,0,0,0,2.57-11.794l10,1.637c-1.754,15.114,1.036,16.694,7.09,21.613-.971,3.1-13.135,1.346-18.317-1.74C237.672,313.521,235.032,311.144,236.209,308.044Z" transform="translate(-207.787 -271.881)"/><path class="k" d="M265.166,385.756s.694-31.128-.408-36.46-4.966-11.7-9.759-18.945c-5.669-8.568-11.925-4.9-11.925-4.9L239.6,329.7l-1.515,3.381s5.946,7.47,7.3,13.116c1.805,7.47,1.777,7.17,10.692,39.757C256.078,385.958,259.159,390.089,265.166,385.756Z" transform="translate(-199.829 -160.635)"/><path class="m" d="M257.647,298.789s-4.488,20.53-17.065,32.788c-12.6,12.258,3.55,33.7,3.911,35.161s16.685,2.077,20.4-6.354c-2.692-4.985-10.138-15.752-9.674-18.064S266,329.636,266,329.636l2.6-20.258S263.19,302.489,257.647,298.789Z" transform="translate(-208.315 -256.132)"/><path class="b" d="M251.99,312.791c.971-1.355,1.768-2.528,2.5-3.587q3.714,4.607,7.447,9.2c-1.533,1.524-2.9,2.7-4.131,3.747-2.476,2.087-8.394,7.48-14.288,11.78-1.707-1.43-.914-.75-2.593-2.185C243.193,325.936,248.642,317.471,251.99,312.791Z" transform="translate(-189.359 -217.707)"/><path class="b" d="M238.1,325.392c-.535-3.489,5.135-9.229,7.3-9.843,2.6-.741,5.641-3.142,11.076-2.706l2.27,4.291c-1.1,4.15-6.106,4.75-7.569,6.115-1.43,2.209-5.168,7.6-6.964,5.8,1.083-1.81,2.41-3.587,3.583-5.412a32.366,32.366,0,0,0-3.053,2.246c-1.313,1.093-3.386,2.95-3.892,2.743a5.73,5.73,0,0,1-2.842-1.852C239.337,324.482,239.258,325.477,238.1,325.392Z" transform="translate(-200.088 -204.474)"/><path class="j" d="M246.219,300.522c-2.063,1.177-6.983,4-4.141,16.741.886,3.953,3.794,7.9,6.49,14.012.905,3.334,5.712,7.686,5.712,7.686l-1.515-.366-.989,3.306,6.1,12.914s10.631-9.566,10.27-14.007-4.539-14.589-4.539-14.589l-9.336-15.606-3.184-8.033Z" transform="translate(-188.277 -249.738)"/><path class="e" d="M258.429,319.065l-.413-.938s-4.638-1.111-6.664-3.92-3.456-4.891-3.456-4.891l-.961-.22-3.165,4.45-1.393,2.856s2.185,5.557,5.247,6.87,4.947,2.129,4.947,2.129Z" transform="translate(-183.995 -218.105)"/><path class="e" d="M255.838,297.861A36.983,36.983,0,0,1,261.817,305s-.352,10.551-5.838,19.189a42.239,42.239,0,0,0-5.988.478,20.713,20.713,0,0,0,6.481.947s-2.138,5.135-17.116,13.909c-1.36.933-3.7,6.992-2.856,12.352-.933-3.508-2.645-10.992,6.7-20.057s11.616-32.451,11.616-32.451Z" transform="translate(-208.48 -259.555)"/><path class="m" d="M244.881,304c-5.144,6.86-8.736,14.143-7.573,23.006.694,5.248,2.542,10.092,4.581,14.931-.633,4.825-.408,7.48-5.064,13.581,1.238-5.111,1.247-15.55-.7-20.77-1.407-3.775-3.254-7.737-3.892-11.742l-.009-.1a10.015,10.015,0,0,1,.366-4.356c.853-2.87,2.781-5.285,4.216-7.874,1.266-2.288,2.528-4.6,3.761-6.907.413-.755.816-1.529,1.2-2.3a17.161,17.161,0,0,1,2.232-3.1s3.5-.924,3.611-.989l-.506,4.361A10.843,10.843,0,0,0,244.881,304Z" transform="translate(-221.814 -261.319)"/><path class="g" d="M243.563,297.383l-3.409.258a6.24,6.24,0,0,0-2.992,3.414c-1.074,2.664-3.723,7.334-3.723,7.334l10.124-10.795Z" transform="translate(-216.97 -261.319)"/><path class="e" d="M249.711,299.881c-4.563,4.746-14.265,17.294-13.055,26,.9,6.476,3.873,14.481,3.165,20.333a8.558,8.558,0,0,0-1.379-4.853c-2.6-4.671-7.953-15-4.882-25.463a18.4,18.4,0,0,0,2.312,2.424l-1.355-4.929,10.495-13.238,5.28-3.526Z" transform="translate(-219.929 -264.093)"/><path class="n" d="M235.465,304.283c1.036,3.756,4.549,7,7.742,9.2a17.407,17.407,0,0,1-.577-4.708c-.047-1.322-.066-2.828-.033-4.375.019-1.074.07-2.171.136-3.259a4.258,4.258,0,0,1,.033-.492A32.31,32.31,0,0,1,244,292.958a5.934,5.934,0,0,1,.788-1.6l-6.078.6a7.966,7.966,0,0,0-2.668,2.213.207.207,0,0,1-.065.08v.019a7.855,7.855,0,0,0-1,1.416,2.983,2.983,0,0,0-.417,1.139C234.312,300.118,234.588,301.07,235.465,304.283Z" transform="translate(-213.163 -283.562)"/><path class="n" d="M234.8,300.374v.042a10.837,10.837,0,0,0,.263,2.3c.066.291.15.582.23.863a44.742,44.742,0,0,0,3.526,7.827,9.722,9.722,0,0,0,2.6,2.982,32.736,32.736,0,0,0,5.276,3.306,14.281,14.281,0,0,0,4.169,1.515,10.1,10.1,0,0,0,1.707.216.952.952,0,0,0,.258,0c6.762.188,11.315-5.866,12.83-10.195.113-.352.23-.713.328-1.069a16.646,16.646,0,0,0,.281-6.284c-.755-5.421-4.117-10.823-10.612-12.042l-.356.1-17.271,4.483a7.744,7.744,0,0,0-2.059,2.04,2.928,2.928,0,0,0-.253.356,6.643,6.643,0,0,0-.886,2.973.39.39,0,0,0-.014.122A4.09,4.09,0,0,0,234.8,300.374Z" transform="translate(-211.952 -289.178)"/><path class="b" d="M256.576,313.362c-.253,1.1.258,3.977-4.774,7.784-3.118,2.363-6.715,4.779-10.228,4.366-2.734-.338-4.614-5.651-5.59-9.379-1.426-5.454-.844-9.369,0-14.926,1.191-7.836,3.118-12.849,13.7-10.082S258.691,304.124,256.576,313.362Z" transform="translate(-210.765 -287.243)"/><path class="n" d="M234.792,300.378v.07c0,.15.019.3.033.441v.042a5.875,5.875,0,0,0,2.176,3.7,1.33,1.33,0,0,0,.263.249,10.363,10.363,0,0,0,2.715,1.773,12.8,12.8,0,0,0,1.571.614c3.212,1.055,6.434.985,8.732,4.169-.155-.492-.117-1.121-.263-1.618a16.439,16.439,0,0,1,4.6,4.1,6.778,6.778,0,0,0-.174-2.106,5.3,5.3,0,0,0,2.922.7,8.789,8.789,0,0,0,3.48-1.243c.2-.127.38-.272.563-.413a6.8,6.8,0,0,0,2.171-3.207,9.96,9.96,0,0,0,.441-3.034,16.964,16.964,0,0,0-1.4-7.058,12.5,12.5,0,0,0-14.781-7.48c-2.865.694-8.024,2.748-10.908,5.787a6.51,6.51,0,0,0-.933,1.1,2.927,2.927,0,0,0-.253.356A5.75,5.75,0,0,0,234.792,300.378Z" transform="translate(-211.978 -289.692)"/><path class="d" d="M245.286,297.753c-.577,2.082-3.362,5.984-5.918,4.253l1.759-6.265C242.121,293.26,246.637,292.913,245.286,297.753Z" transform="translate(-195.095 -273.928)"/><path class="n" d="M235.03,299.792v.019a7.161,7.161,0,0,0,.324.957c1.125,2.748,3.756,4.905,6.1,6.434.741.474,1.477.91,2.1,1.271a19.294,19.294,0,0,1,7.381,7.925,24.924,24.924,0,0,1,2.415,7.18c.5-1.632.183-4.624-.708-6.964a9.614,9.614,0,0,0-.657-1.416,8.047,8.047,0,0,1,.914,1.416c2.349,4.408,1.74,11.517-.417,14.068,1.566-1.079,3.414-4.53,4.582-6.5a39.526,39.526,0,0,1-2.223,6.068c5.834-6.185,12.6-15.892,12.6-25.107v-.019a16.739,16.739,0,0,0-1.1-6.054c-.1-.234-.2-.455-.3-.689a12.051,12.051,0,0,0-3.381-4.141c-4.905-4.033-13.013-5.913-15.433.792l-4.371.736L234.88,297.1l-.051.028A7.013,7.013,0,0,0,235.03,299.792Z" transform="translate(-212.015 -286.368)"/><path class="o" d="M234.578,301.813a10.666,10.666,0,0,0,1.168,1.285l.038.019v.019c.028.028.061.066.094.094a13.974,13.974,0,0,0,2.176,1.651,18.471,18.471,0,0,0,4.319,1.895c6.19,1.9,13.641,1.641,19.259,4.5l.314.141a3.114,3.114,0,0,0,.249-.553,4.9,4.9,0,0,0-.675-4.445,12.534,12.534,0,0,1,2.846,1.238,14.1,14.1,0,0,0,2.439,1.022,1.664,1.664,0,0,0,.9.047,2.4,2.4,0,0,0,.488-.258v-.019a16.739,16.739,0,0,0-1.1-6.054c-.755-5.421-4.117-10.823-10.612-12.042l-.356.1a12.851,12.851,0,0,0-7.489-.366c-2.865.694-8.024,2.748-10.908,5.787a6.509,6.509,0,0,0-.933,1.1,2.921,2.921,0,0,0-.253.356,5.75,5.75,0,0,0-.952,3.053v.019A7.858,7.858,0,0,0,234.578,301.813Z" transform="translate(-212.768 -289.692)"/></g><g transform="translate(1092.74 -2670.03)"><path class="p" d="M561.5,706.611l8.4-1.054c5.622-2.548,8.25-4.462,10.753-3.016l.71.41c2.5,1.446,2.187,3.994-.7,5.663l-12.351,9.813a8.152,8.152,0,0,1-9.094-.883s-1.382-1.247-.393-6.5C559.386,708.055,559.189,707.946,561.5,706.611Z" transform="translate(-552.312 -472.889)"/><path class="b" d="M571.372,689.522c-.615,5.313-10.357,5.313-10.357,1.264l5.4-122.706,32.489-9.16Z" transform="translate(-552.605 -456.465)"/><path class="p" d="M599.661,719.605l8.945,1.684c6.592-.759,9.91-1.854,12,.45l.591.652c2.086,2.3.924,4.808-2.584,5.566l-15.869,5.982a8.762,8.762,0,0,1-9.017-3.9s-1-1.731,1.735-6.779C597.021,720.387,596.855,720.211,599.661,719.605Z" transform="translate(-556.338 -474.904)"/><path class="b" d="M603.11,706.753c-1.7,4.294-9.136,3.355-9.009-.17,3.476-42.519-4.526-82.674-14.838-121.748l31.2-3.374C611.682,627.183,611.273,666.365,603.11,706.753Z" transform="translate(-554.699 -459.052)"/><path class="q" d="M606.672,579.668l4.411,60.307s-17.194,24.42-48.037-1.821l.141-54.92Z" transform="translate(-552.838 -458.847)"/><path class="b" d="M613.654,479.93l-25.2,24.038s10.133,6.757,11.574,6.745,18.723-21.038,18.723-21.038Z" transform="translate(-555.753 -447.401)"/><path class="b" d="M614.672,477.028l1.061-3.911a5.681,5.681,0,0,1,6.948-3.984h0a5.68,5.68,0,0,1,3.984,6.95l-1.061,3.91a5.681,5.681,0,0,1-6.948,3.984h0A5.68,5.68,0,0,1,614.672,477.028Z" transform="translate(-558.74 -446.14)"/><path class="r" d="M594.027,537.505l61.984,32.839c1.192.631,3.236-.3,3.771-1.723L694.1,477.474a1.538,1.538,0,0,0-.586-1.882l-62.051-32.206c-1.192-.632-3.236.3-3.771,1.722l-34.2,90.71A1.278,1.278,0,0,0,594.027,537.505Z" transform="translate(-556.318 -443.185)"/><g transform="translate(59.422 12.048)"><path class="s" d="M647.648,516.092l1.793.95c1.318.7,2.939-.2,3.619-2l.153-.405-6.181-3.275-.353.937C646.11,513.808,646.543,515.506,647.648,516.092Z" transform="translate(-621.827 -463.057)"/><path class="s" d="M644.673,523.98l1.793.951c1.319.7,2.94-.2,3.62-2l.153-.405-6.181-3.275-.353.937C643.135,521.7,643.569,523.395,644.673,523.98Z" transform="translate(-621.486 -463.962)"/><path class="s" d="M650.622,508.2l1.794.951c1.319.7,2.939-.2,3.62-2l.152-.405-6.181-3.275-.352.937C649.084,505.919,649.518,507.618,650.622,508.2Z" transform="translate(-622.169 -462.151)"/><path class="s" d="M653.6,500.315l1.794.95c1.318.7,2.939-.2,3.619-2l.153-.4-6.181-3.275-.353.937C652.059,498.031,652.492,499.729,653.6,500.315Z" transform="translate(-622.51 -461.246)"/><path class="s" d="M656.571,492.426l1.794.951c1.319.7,2.939-.2,3.62-2l.152-.405-6.181-3.274-.352.936C655.033,490.142,655.467,491.841,656.571,492.426Z" transform="translate(-622.851 -460.341)"/><path class="s" d="M659.2,484.834l1.793.95c1.353.717,3.014-.2,3.712-2.053l1.345-3.566-6.181-3.275-1.607,4.263C657.708,482.619,658.129,484.267,659.2,484.834Z" transform="translate(-623.157 -459.101)"/><path class="s" d="M641.059,532.493l2.182,1.157c1.6.85,3.576-.241,4.4-2.436l.186-.493-7.521-3.984-.429,1.139C639.187,529.714,639.715,531.781,641.059,532.493Z" transform="translate(-621.041 -464.821)"/><path class="s" d="M637.676,540.78l2.43,1.287c1.786.947,3.983-.267,4.9-2.712l.207-.549-8.374-4.437-.479,1.268C635.592,537.685,636.18,539.987,637.676,540.78Z" transform="translate(-620.633 -465.697)"/><path class="s" d="M634.359,549.577l2.43,1.288c1.786.946,3.983-.268,4.9-2.712l.207-.549-8.375-4.437-.478,1.268C632.275,546.482,632.862,548.785,634.359,549.577Z" transform="translate(-620.253 -466.707)"/><path class="s" d="M630.671,557.952l2.938,1.557c2.16,1.144,4.815-.324,5.929-3.279l.25-.664L629.665,550.2l-.579,1.533C628.153,554.211,628.863,556.995,630.671,557.952Z" transform="translate(-619.79 -467.514)"/><g transform="translate(16.258)"><path class="s" d="M655.025,467.73a10.61,10.61,0,0,1-3.866-.981c-5.175-3.162-5.925-7.217-10.056-9.613a2.089,2.089,0,0,0-2.8.468,5.264,5.264,0,0,0-1.295,3.583,3.359,3.359,0,0,0,1.123,2.24h0c2.433,2.434,5.7,3.422,8.83,4.581a15.15,15.15,0,0,1,4.449,2.094c.739.6,1.4,2.276,2.573,2.043.587-.117,1.163-.814,1.544-1.675C656.224,468.905,655.828,467.769,655.025,467.73Z" transform="translate(-637.004 -456.795)"/></g><g transform="translate(46.349 18.232)"><path class="s" d="M673.3,477.707a12.571,12.571,0,0,0,3.195,2.76c5.44,2.461,8.489.418,12.75,2.47a2.816,2.816,0,0,1,1.57,2.781,5.176,5.176,0,0,1-1.389,3.533,2.374,2.374,0,0,1-2.156.5h0c-3.153-.524-5.953-2.75-8.77-4.743a15.679,15.679,0,0,0-4.284-2.532c-.872-.251-2.365.28-3-.911a3.484,3.484,0,0,1,.022-2.48C671.758,477.431,672.737,477.024,673.3,477.707Z" transform="translate(-670.996 -477.391)"/></g><g transform="translate(0 15.039)"><path class="s" d="M640.618,475.092c-6.249,2.454-10.657,6.277-13.95,13.4a81.438,81.438,0,0,0-6.319,20.415,40.39,40.39,0,0,0-.406,10.918c.306,3.252,1.989,6.751,5.767,5.662,1.5-.431,2.5-2.688,3.441-4.016,2.477-3.508,4.423-6.185,8.074-7.876.69-.319,1.1.952.41,1.27-4.379,2.027-5.96,5.925-9.112,9.636-1.353,1.593-3.236,3.446-5.3,3.226-4.824-.514-4.6-8.646-4.57-12.613A70.592,70.592,0,0,1,624.5,487.37c3.427-7.5,9.113-10.956,15.712-13.547.7-.275,1.113.994.41,1.269Z" transform="translate(-618.638 -473.784)"/></g><g transform="translate(16.084 17.334)"><path class="s" d="M648.379,487.153c-5.258-.986-8.293-3.939-11.5-8.828-.453-.691,1.315-2.527,1.686-1.77,2.275,4.65,4.988,8.316,9.986,9.253.73.136.557,1.481-.173,1.345Z" transform="translate(-636.808 -476.376)"/></g><g transform="translate(10.42 21.73)"><path class="s" d="M645.323,493.882c-5.952-1.182-11.047-4.718-14.845-10.271-.465-.681,1.569-2.879,1.911-2.105,2.012,4.552,7.457,9.91,13.106,11.032.729.145.556,1.49-.173,1.345Z" transform="translate(-630.409 -481.342)"/></g><g transform="translate(5.75 29.074)"><path class="s" d="M642.236,499.907a24.132,24.132,0,0,1-16.951-8.02c-.532-.6.466-2.747,1-2.142,4.412,4.963,10.1,8.527,16.121,8.819.737.035.557,1.379-.174,1.344Z" transform="translate(-625.134 -489.638)"/></g><g transform="translate(3.574 34.185)"><path class="s" d="M641.258,506.941c-6.608-.258-14.328-2.232-18.487-8.87-.44-.7.764-3.241,1.2-2.536A22.188,22.188,0,0,0,641.432,505.6c.737.029.556,1.373-.173,1.345Z" transform="translate(-622.676 -495.412)"/></g><g transform="translate(1.22 43.171)"><path class="s" d="M639.486,513.686a25.517,25.517,0,0,1-19.294-5.131c-.617-.476.543-3.415,1.157-2.942,5.258,4.055,11.807,7.748,18.012,6.721.734-.121.855,1.231.125,1.352Z" transform="translate(-620.017 -505.562)"/></g><g transform="translate(0.713 49.98)"><path class="s" d="M637.584,519.437c-6.151,1.082-12.573.727-17.87-3.32-.619-.472-.063-3.28.552-2.81,5.028,3.841,11.377,5.8,17.194,4.778.732-.129.853,1.223.124,1.352Z" transform="translate(-619.444 -513.254)"/></g><g transform="translate(0.024 57.201)"><path class="s" d="M631.722,525.178a17.8,17.8,0,0,1-6.369,1.317c-2.29-.129-4.347-1.34-6.331-2.609-.645-.413-.339-2.844.312-2.427,1.739,1.112,3.618,2.942,5.619,3.162a15.433,15.433,0,0,0,6.359-.713c.706-.23,1.122,1.037.41,1.269Z" transform="translate(-618.666 -521.411)"/></g><g transform="translate(30.322 32.083)"><path class="s" d="M675.941,493.934c2.627,7.156,3.163,13.6.882,21.259a77.856,77.856,0,0,1-8.618,19.2,31.879,31.879,0,0,1-6.591,7.641c-2.249,1.9-5.571,2.745-7.406-1.317-.727-1.609.019-4,.229-5.717.553-4.527.938-8.032-.435-12.385-.259-.821-1.331-.335-1.072.485,1.648,5.22.251,9.215.021,14.475-.1,2.258-.007,5.158,1.509,6.836,3.54,3.917,8.505-1.7,10.976-4.378a62.885,62.885,0,0,0,13.541-23.669c2.428-8.029.808-15.355-1.965-22.913-.294-.8-1.367-.32-1.072.485Z" transform="translate(-652.891 -493.037)"/></g><g transform="translate(41.985 34.606)"><path class="s" d="M666.274,497.094c4.126,3.986,8.007,4.7,13.218,4.267.737-.061.711-2.847-.012-2.669-4.44,1.092-8.554,1.141-12.476-2.648-.573-.553-1.3.5-.729,1.05Z" transform="translate(-666.066 -495.887)"/></g><g transform="translate(39.66 40.769)"><path class="s" d="M663.65,504.051a21.5,21.5,0,0,0,16.358,6.259c.738-.042.763-3.306.049-3.091-4.2,1.259-11.2.024-15.676-4.216-.577-.547-1.307.5-.73,1.049Z" transform="translate(-663.439 -502.849)"/></g><g transform="translate(38.163 46.305)"><path class="s" d="M661.922,510.344c4.323,5.273,10.11,9.018,16.348,9.622.731.07,1.417-2.244.677-2.316a23.788,23.788,0,0,1-16.295-8.355c-.515-.628-1.239.428-.73,1.049Z" transform="translate(-661.748 -509.103)"/></g><g transform="translate(34.625 51.166)"><path class="s" d="M657.923,515.838c4.57,5.665,10.959,11.166,17.906,10.412.736-.08,1.528-2.836.791-2.757-6.635.72-13.613-3.307-17.967-8.7-.511-.632-1.235.424-.73,1.049Z" transform="translate(-657.752 -514.594)"/></g><g transform="translate(32.165 56.348)"><path class="s" d="M655.075,521.528c3.679,6.492,9.73,11.58,16.094,13.617.711.228,1.784-2.758,1.077-2.983-6.057-1.939-12.745-5.26-16.238-11.426-.413-.729-1.344.066-.933.792Z" transform="translate(-654.972 -520.447)"/></g><g transform="translate(30.331 61.214)"><path class="s" d="M653,527.027c3.422,6.155,7.929,11.59,14.006,13.569.71.231,2.1-2.133,1.4-2.363a26.2,26.2,0,0,1-14.471-12c-.407-.733-1.338.062-.932.791Z" transform="translate(-652.902 -525.944)"/></g><g transform="translate(31.2 69.72)"><path class="s" d="M653.945,536.434a25.608,25.608,0,0,0,3.42,6.5,14.569,14.569,0,0,0,5.862,3.851c.691.294,2.014-1.6,1.318-1.9-1.859-.793-4.262-1.233-5.735-2.852a21.684,21.684,0,0,1-3.794-6.091.59.59,0,1,0-1.071.485Z" transform="translate(-653.883 -535.553)"/></g><g transform="translate(9.586 7.644)"><path class="s" d="M629.824,472.03a2.174,2.174,0,0,1-.347-1.516,9.22,9.22,0,0,1,.964-3.159c.94-1.844,1.772-2.027,2.313-1.888h0l4.135,1.067c.469.12,2.778.345.537,4.386-1.183,2.133-3.657,2.127-4.372,2.256A2.974,2.974,0,0,1,629.824,472.03Z" transform="translate(-629.467 -465.43)"/></g><g transform="translate(59.056 32.075)"><path class="s" d="M689.835,503.593a1.535,1.535,0,0,0,1.184-.7,8.733,8.733,0,0,0,1.344-2.958c.532-2.061.091-2.918-.357-3.3h0l-3.428-2.941c-.389-.334-2.07-2.223-3.115,2.451-.552,2.466,1.1,4.648,1.5,5.365C687.7,502.844,688.636,503.647,689.835,503.593Z" transform="translate(-685.35 -493.028)"/></g><path class="s" d="M654.729,488.274l7.678,4.067c.206.11.462-.032.568-.314h0a.582.582,0,0,0-.181-.713l-7.677-4.068c-.206-.109-.463.033-.569.315h0A.583.583,0,0,0,654.729,488.274Z" transform="translate(-622.754 -460.285)"/><path class="s" d="M664.314,471.89l1.794.951c1.318.7,2.939-.2,3.619-2l.153-.4-6.181-3.274-.353.936C662.777,469.606,663.21,471.3,664.314,471.89Z" transform="translate(-623.74 -457.984)"/><path class="s" d="M662.473,467.737l7.677,4.068c.206.109.463-.032.569-.315h0a.582.582,0,0,0-.182-.712l-7.678-4.068c-.206-.109-.462.033-.568.315h0A.581.581,0,0,0,662.473,467.737Z" transform="translate(-623.642 -457.929)"/><path class="s" d="M651.755,496.162l7.677,4.068c.206.109.463-.033.569-.315h0a.583.583,0,0,0-.182-.713l-7.678-4.067c-.206-.11-.462.032-.568.314h0A.582.582,0,0,0,651.755,496.162Z" transform="translate(-622.412 -461.191)"/><path class="s" d="M648.781,504.051l7.677,4.067c.206.11.462-.032.569-.314h0a.582.582,0,0,0-.182-.713l-7.677-4.068c-.206-.109-.462.033-.569.315h0A.582.582,0,0,0,648.781,504.051Z" transform="translate(-622.071 -462.096)"/><path class="s" d="M645.806,511.939l7.677,4.068c.207.109.463-.033.569-.315h0a.583.583,0,0,0-.181-.713l-7.677-4.067c-.207-.11-.463.032-.569.314h0A.582.582,0,0,0,645.806,511.939Z" transform="translate(-621.73 -463.001)"/><path class="s" d="M642.832,519.828l7.677,4.067c.206.11.462-.032.569-.315h0a.581.581,0,0,0-.182-.712l-7.677-4.068c-.206-.109-.462.033-.569.315h0A.582.582,0,0,0,642.832,519.828Z" transform="translate(-621.388 -463.906)"/><path class="s" d="M639.857,527.716l7.677,4.068c.207.109.463-.033.569-.315h0a.582.582,0,0,0-.182-.713l-7.677-4.067c-.207-.11-.463.032-.569.314h0A.583.583,0,0,0,639.857,527.716Z" transform="translate(-621.047 -464.811)"/><path class="s" d="M636.161,535.222l8.941,4.737c.207.11.463-.032.569-.314h0a.583.583,0,0,0-.181-.713l-8.941-4.737c-.207-.11-.463.032-.569.314h0A.582.582,0,0,0,636.161,535.222Z" transform="translate(-620.623 -465.673)"/><path class="s" d="M632,542.484l10.8,5.723c.206.11.462-.032.569-.314h0a.582.582,0,0,0-.182-.713l-10.8-5.723c-.207-.11-.463.032-.569.314h0A.583.583,0,0,0,632,542.484Z" transform="translate(-620.146 -466.506)"/><path class="s" d="M628.117,549.889l12.874,6.821c.207.11.463-.032.569-.314h0a.582.582,0,0,0-.181-.713l-12.874-6.821c-.206-.11-.463.032-.569.314h0A.583.583,0,0,0,628.117,549.889Z" transform="translate(-619.7 -467.356)"/><path class="s" d="M658.252,475.63a3.319,3.319,0,0,0,1.308,4.056,2.447,2.447,0,0,0,3.422-1.55,3.319,3.319,0,0,0-1.309-4.055A2.446,2.446,0,0,0,658.252,475.63Z" transform="translate(-623.158 -458.748)"/><path class="s" d="M663.25,478.278a3.319,3.319,0,0,0,1.308,4.056,2.447,2.447,0,0,0,3.422-1.55,3.32,3.32,0,0,0-1.308-4.055A2.446,2.446,0,0,0,663.25,478.278Z" transform="translate(-623.732 -459.052)"/></g><path class="t" d="M606.24,568.962l10.851,59.552s-26.962,26.72-57.806,0l3.469-55.921Z" transform="translate(-552.406 -457.618)"/><ellipse class="u" cx="9.966" cy="17.582" rx="9.966" ry="17.582" transform="translate(22.114 6.312) rotate(-7.368)"/><path class="b" d="M607.4,473.043c-2.32,8.086-10.988,11.012-16.083,5.733s-7.347-16.112-5.026-24.2,8.331-10.362,13.427-5.083S609.722,464.957,607.4,473.043Z" transform="translate(-555.4 -443.582)"/><path class="b" d="M587.44,499.262l-.867-.194a5.469,5.469,0,0,1-4.135-6.509l3.682-16.505a5.468,5.468,0,0,1,6.509-4.135l.867.193a5.468,5.468,0,0,1,4.135,6.509L596.425,495C595.772,497.928,590.367,499.914,587.44,499.262Z" transform="translate(-555.049 -446.467)"/><path class="v" d="M579.695,473.965s-1,5.606,8.78,6.147c7.829.432,5.5-13.726,13.265-14.993,8.539-1.392,10.086-11.941,6.721-15.989s-12.768-6.165-19.579-3.16S567.767,451.164,579.695,473.965Z" transform="translate(-554.221 -443.341)"/><path class="u" d="M604.286,472.127a3.7,3.7,0,1,1-2.539-4.581A3.7,3.7,0,0,1,604.286,472.127Z" transform="translate(-556.737 -445.964)"/><path class="t" d="M563.046,562.5c2.764-15.149-.207-27.123.033-43.231,0-28.957-1.39-36.024,13.92-31.619l4.314,1.146A29.75,29.75,0,0,1,587.3,491.1c20.183,10.4,25.57,13.605,24.684,25.667.091,19.868-9.158,23.92-4.242,41.314C603.583,571.823,567.662,572.328,563.046,562.5Z" transform="translate(-552.838 -448.149)"/><path class="w" d="M599.029,485.68l-.877-2.027a5.561,5.561,0,0,0,4.538,1.183A7.126,7.126,0,0,1,599.029,485.68Z" transform="translate(-556.866 -447.829)"/><ellipse class="s" cx="7.052" cy="8.193" rx="7.052" ry="8.193" transform="translate(19.17 6.537)"/><path class="v" d="M577.553,456.368c.337-4.2-5.388-6.044-7.634-2.48a16.1,16.1,0,0,0-1.893,5.03c-2.847,12.6-24.067,10.772-13.659,32.94,0,0-9.47,14.543,8.132,20.671,9.008,3.136,8.806-20.06,8.806-20.06s3.594-10.668,7.064-19.035a15.561,15.561,0,0,0,.051-12.271A9.69,9.69,0,0,1,577.553,456.368Z" transform="translate(-551.515 -444.196)"/><path class="q" d="M583.153,486.836a2.424,2.424,0,0,0-2.934,2.769c.318,1.887,1.472,4.147,4.919,5.315,4.773,1.617,10.016.749,12.538.149a.687.687,0,0,0,.194-1.256C595.029,492.057,588.208,488.058,583.153,486.836Z" transform="translate(-554.805 -448.186)"/><path class="b" d="M595.84,506.061s4.141,22.087,29.632,49.06c7.009,7.417,42.256,2.9,42.256,2.9l-.02-6.917s-26.48,2.87-33.037-6C627.281,535.112,616.606,496.908,595.84,506.061Z" transform="translate(-556.601 -450.239)"/><path class="t" d="M600.436,520.145l12.648,26.986c1.723,1.9,19.83-11.37,17.6-14.355-.393-.527-16.382-31.864-28.578-35.333C592.2,494.626,593.3,508.509,600.436,520.145Z" transform="translate(-556.491 -449.368)"/><path class="b" d="M672.6,567.186l-4.054-.015a5.681,5.681,0,0,1-5.643-5.683h0a5.68,5.68,0,0,1,5.683-5.643l4.054.014a5.679,5.679,0,0,1,5.643,5.683h0A5.68,5.68,0,0,1,672.6,567.186Z" transform="translate(-564.297 -456.113)"/><path class="x" d="M612.564,547.475l-4.88-10.411s-.284,25.108,4.88,34.793Z" transform="translate(-557.961 -453.957)"/></g></g><g transform="translate(-9483.237 -7298.441)"><path class="q" d="M399.116,1151.145l-73.4,42.379,4.643,3.941,68.758-39.7,5.734-3.311Z" transform="translate(10028.377 6524.855)"/><path class="y" d="M400.648,1158.859l-30.991,17.893-3.09-7.224c-1.947-3.792-6.2-4.491-10.879-1.788l-16.826,9.714a15.412,15.412,0,0,0-6.973,12.077v71.836a7.7,7.7,0,0,0,3.32,5.752,2.753,2.753,0,0,0,.418.2l12.871-59.441,52.149-30.109,5.734-3.31v-18.908Z" transform="translate(10026.845 6523.762)"/><path class="z" d="M344.271,1210.164v59.478l74.363-42.476v-59.478Z" transform="translate(10023.771 6520.75)"/><path class="aa" d="M342.579,1209.226l-5.126-2.842,74.363-42.476,5.126,2.842Z" transform="translate(10025.464 6521.688)"/><path class="ab" d="M342.579,1282.724l-5.126-2.843V1220.4l5.126,2.842Z" transform="translate(10025.464 6507.668)"/><path class="q" d="M423.759,1175.762l-15.128,8.734-5.734,3.31L355.971,1214.9l-11.879,54.867-.623,2.878a5.673,5.673,0,0,1-2.519,3.751l73.879-42.684a5.555,5.555,0,0,0,3.133-4.075l12.5-57.745Z" transform="translate(10024.597 6519.707)"/><path class="ac" d="M428.473,1167.944l-16.609,9.589-5.734,3.311-52.149,30.109,5.224,2.968,46.925-27.092,5.734-3.311,15.128-8.734,6.705-3.871Z" transform="translate(10021.362 6520.687)"/><path class="q" d="M333.736,1269.71a2.716,2.716,0,0,1-.418-.2,7.7,7.7,0,0,1-3.32-5.752v-71.836a15.412,15.412,0,0,1,6.973-12.077l16.826-9.714c2.705-1.562,5.264-1.981,7.32-1.331h0l-4.605-2.823-.018-.011h0c-2.2-1.253-5.215-1-8.431.854l-16.826,9.715a15.411,15.411,0,0,0-6.972,12.076v75.147a13.3,13.3,0,0,0,6.188,10.718,7.157,7.157,0,0,0,3.56,1.035,5.365,5.365,0,0,0,2.184-.455c.132-.059.256-.13.382-.2.042-.023.087-.043.129-.067l.1-.059a5.673,5.673,0,0,0,2.519-3.751l.623-2.878,11.879-54.867-5.224-2.968Z" transform="translate(10028.737 6521.369)"/></g></g></svg>