<svg xmlns="http://www.w3.org/2000/svg" width="40.557" height="40.557" viewBox="0 0 40.557 40.557"><defs><style>.a,.b{fill:none;stroke:#2e2d2c;stroke-linecap:round;stroke-linejoin:round;}.a{stroke-width:1.786px;}.b{stroke-width:3.5px;}</style></defs><g transform="translate(-182.113 -895.113)"><path d="M379.922,275.39c-1.237.129-1.967-.795-1.637-2.066l2.985-11.449-4.113.433-2.984,11.449.008,0c-.629,2.41.762,4.163,3.1,3.917a6.8,6.8,0,0,0,5.025-3.848A3.521,3.521,0,0,1,379.922,275.39Z" transform="translate(-175.93 649.617)"/><line class="a" x1="7.096" y2="0.746" transform="translate(198.245 911.491)"/><path d="M384.422,252.4A2.422,2.422,0,1,1,382,249.98,2.421,2.421,0,0,1,384.422,252.4Z" transform="translate(-177.738 653.494)"/><circle class="b" cx="17.059" cy="17.059" r="17.059" transform="matrix(0.081, -0.997, 0.997, 0.081, 184, 931.004)"/></g></svg>