<?xml version="1.0" encoding="UTF-8" standalone="no"?>
<svg
   xmlns:dc="http://purl.org/dc/elements/1.1/"
   xmlns:cc="http://creativecommons.org/ns#"
   xmlns:rdf="http://www.w3.org/1999/02/22-rdf-syntax-ns#"
   xmlns:svg="http://www.w3.org/2000/svg"
   xmlns="http://www.w3.org/2000/svg"
   id="svg904"
   version="1.1"
   viewBox="0 0 24 24"
   height="24"
   width="24">
  <metadata
     id="metadata908">
    <rdf:RDF>
      <cc:Work
         rdf:about="">
        <dc:format>image/svg+xml</dc:format>
        <dc:type
           rdf:resource="http://purl.org/dc/dcmitype/StillImage" />
        <dc:title></dc:title>
      </cc:Work>
    </rdf:RDF>
  </metadata>
  <defs
     id="defs898">
    <style
       id="style896">.a{fill:none;}</style>
  </defs>
  <path
     id="path900"
     d="M0,0H24V24H0Z"
     class="a" />
  <path
     style="fill:#ffffff;fill-opacity:1"
     id="path902"
     d="M12,17a2,2,0,1,0-2-2A2.006,2.006,0,0,0,12,17Zm6-9H17V6A5,5,0,0,0,7,6H8.9a3.1,3.1,0,0,1,6.2,0V8H6a2.006,2.006,0,0,0-2,2V20a2.006,2.006,0,0,0,2,2H18a2.006,2.006,0,0,0,2-2V10A2.006,2.006,0,0,0,18,8Zm0,12H6V10H18Z" />
</svg>
