<svg xmlns="http://www.w3.org/2000/svg" xmlns:xlink="http://www.w3.org/1999/xlink" width="556.615" height="602.769" viewBox="0 0 556.615 602.769"><defs><style>.a{fill:url(#a);}.b{fill:#e634a7;}.c{fill:#414a59;}.d{fill:#28ceea;}.e{fill:#798491;}.f{fill:#ff5e4c;}.g{fill:#19b8dd;}.h{fill:#1d99d8;}.i{fill:#fff;}.j{fill:#48e59a;}.k{opacity:0.55;}.l{fill:#006cb4;}</style><linearGradient id="a" x1="0.737" y1="0.682" x2="0.487" y2="0.439" gradientUnits="objectBoundingBox"><stop offset="0" stop-color="#f3f8fe"/><stop offset="1" stop-color="#daf0fe"/></linearGradient></defs><g transform="translate(-522.133 -364.953)"><path class="a" d="M-717.934-445.113c-93.873,12.475-1.578-82.311-42.345-155.627-60.534-74.989-80.936-76.475-35.417-178.892,16.218-31.11,81.62-97.144,155.3-79.438,79.622,11.5,131.024-123.65,166.762-44.572,23.9,43.664,10.128,45.336-7.279,115.578,9.25,41.631,54.107,60.26,41.614,92.119-18.858,75.613,39.423,96.442-4.294,118.573-13.737,6.954-55.361-7.837-87.549,19.637C-561.282-522.7-624.061-457.588-717.934-445.113Z" transform="matrix(0.914, -0.407, 0.407, 0.914, 1649.352, 1039.625)"/><path class="b" d="M309.228,136.665A15.167,15.167,0,1,1,294.061,121.5,15.168,15.168,0,0,1,309.228,136.665Z" transform="translate(393.955 380.296)"/><g transform="translate(663.761 453.616)"><g transform="translate(0 34.583)"><g transform="translate(45.042)"><path class="c" d="M7.367,0H152.19a7.367,7.367,0,0,1,7.367,7.367V268.851a7.367,7.367,0,0,1-7.367,7.367H7.366A7.366,7.366,0,0,1,0,268.851V7.367A7.367,7.367,0,0,1,7.367,0Z" transform="translate(0 33.484) rotate(-12.114)"/><path class="d" d="M506.245,374.769,371.353,403.721a2.85,2.85,0,0,1-3.387-2.189l-49.15-228.984a2.853,2.853,0,0,1,2.191-3.387L455.9,140.208a2.852,2.852,0,0,1,3.388,2.189l49.148,228.984A2.85,2.85,0,0,1,506.245,374.769Z" transform="translate(-306.64 -120.19)"/><path class="e" d="M401.5,277.687l-23.193,4.977a2.523,2.523,0,0,1-3-1.937h0a2.524,2.524,0,0,1,1.937-3l23.193-4.977a2.523,2.523,0,0,1,3,1.937h0A2.524,2.524,0,0,1,401.5,277.687Z" transform="translate(-255.311 0.224)"/><g transform="translate(59.069 19.449)"><path class="e" d="M374.137,145.184l-28.168,6.046a2.158,2.158,0,0,1-2.563-1.658h0a2.159,2.159,0,0,1,1.657-2.563l28.169-6.046a2.161,2.161,0,0,1,2.565,1.658h0A2.158,2.158,0,0,1,374.137,145.184Z" transform="translate(-343.357 -138.94)"/><path class="f" d="M367.2,141.586a2.16,2.16,0,1,1-2.565-1.658A2.161,2.161,0,0,1,367.2,141.586Z" transform="translate(-325.574 -139.88)"/></g></g><g transform="translate(0 69.236)"><path class="g" d="M385.858,170.822l.038-.025.082.384L408.727,277.16a7.686,7.686,0,0,1-2.216,7.147l-.008.021a9.959,9.959,0,0,1-1.04.836c-.1.08-.233.128-.345.2-.294.168-.573.338-.893.485a8.215,8.215,0,0,1-1.414.45L376.291,292l8.42,39.226,39.573,25.586,29.69-6.372a2.85,2.85,0,0,0,2.189-3.387l-1.767-8.237-.714-3.328L423,192.554l-39.633-25.625A7.622,7.622,0,0,1,385.858,170.822Z" transform="translate(-209.327 -165.094)"/><path class="h" d="M390.911,173.35a7.62,7.62,0,0,0-2.487-3.9l-1.635-1.057a7.673,7.673,0,0,0-2.01-.653,7.6,7.6,0,0,1,1.078,2.336l.038-.025.082.384,22.749,105.979a7.686,7.686,0,0,1-2.216,7.147l-.008.021a9.766,9.766,0,0,1-1.04.836c-.1.08-.233.128-.345.2-.292.168-.573.338-.893.485a8.215,8.215,0,0,1-1.414.45l-26.52,5.693,8.42,39.226,5.054,3.267-8.418-39.226,26.518-5.693a8.055,8.055,0,0,0,1.414-.45,9.925,9.925,0,0,0,.893-.485c.113-.076.25-.124.345-.2a10.264,10.264,0,0,0,1.042-.838l.008-.019a7.688,7.688,0,0,0,2.214-7.147L391.032,173.707l-.082-.384Z" transform="translate(-209.327 -164.353)"/><path class="i" d="M465.334,171.7a7.627,7.627,0,0,0-3.567-4.657,7.547,7.547,0,0,0-5.46-.9l-.013,0-161.4,34.642-.017,0a7.673,7.673,0,0,0-4.523,2.95.057.057,0,0,1-.019.032.589.589,0,0,1-.065.082l.023-.006a7.887,7.887,0,0,0-1.305,2.847,1,1,0,0,1-.032.258,8.135,8.135,0,0,0-.151,1.33,7.665,7.665,0,0,0,.126,1.279l-.05-.008.082.386,22.749,105.979a7.646,7.646,0,0,0,3.718,4.991l-.029.023a1.413,1.413,0,0,0,.227.1.373.373,0,0,0,.076.053l.008-.013a7.59,7.59,0,0,0,5.145.754l102.2-21.937L464.188,332.1l-8.42-39.226,26.52-5.693a8.218,8.218,0,0,0,1.414-.45c.321-.147.6-.317.893-.485.113-.076.248-.124.345-.2a9.963,9.963,0,0,0,1.04-.836l.008-.021a7.684,7.684,0,0,0,2.216-7.145L465.455,172.055l-.082-.384Z" transform="translate(-288.804 -165.967)"/></g><g transform="translate(37.03 84.503)"><circle class="j" cx="45.436" cy="45.436" r="45.436" transform="translate(0 76.586) rotate(-57.436)"/><g transform="translate(39.682 44.362)"><path class="i" d="M350.941,236.676l-21.2-13.115a1.556,1.556,0,0,1-.508-2.141l3.674-5.966a1.558,1.558,0,0,1,2.141-.508l12.588,7.807a1.557,1.557,0,0,0,2.141-.508l15.109-24.294a1.554,1.554,0,0,1,2.141-.508l5.966,3.676a1.555,1.555,0,0,1,.508,2.141l-20.418,32.907A1.557,1.557,0,0,1,350.941,236.676Z" transform="translate(-329 -197.212)"/></g></g></g><g class="k" transform="translate(183.585)"><path class="l" d="M428.657,136.277l-.141.074a3.4,3.4,0,0,1-4.7-1.559c-6.132-13.485-20.369-19.226-34.127-13.762a3.4,3.4,0,0,1-4.471-2.136l-.048-.149a3.407,3.407,0,0,1,1.844-4.174c17.5-7.664,35.913-.242,43.211,17.416A3.408,3.408,0,0,1,428.657,136.277Z" transform="translate(-385.001 -111.567)"/><g transform="translate(4.804 17.419)"><path class="l" d="M413.047,136.491l-.229.122a3.46,3.46,0,0,1-4.636-1.418,13.718,13.718,0,0,0-16.1-6.483,3.463,3.463,0,0,1-4.321-2.191l-.076-.235a3.43,3.43,0,0,1,2.09-4.273,19.363,19.363,0,0,1,24.724,9.949A3.427,3.427,0,0,1,413.047,136.491Z" transform="translate(-387.518 -120.695)"/></g></g></g></g></svg>