<svg xmlns="http://www.w3.org/2000/svg" width="205.585" height="210.255" viewBox="0 0 205.585 210.255"><defs><style>.a{fill:#f9bcaa;}.b{fill:#9f88c1;}.c{fill:#376ac9;}.d{fill:#467de4;}.e{fill:#f0c6b4;}.f{fill:#d6b1a0;}.g{fill:#74380c;}.h{fill:#575757;}.i{fill:#003575;}.j{fill:#666;}.k{fill:#202765;}.l{fill:#2b337c;}.m{fill:#969696;}.n{fill:#7f7193;}.o{fill:#c2a091;}.p{fill:#e6a677;}.q{fill:#8d7fa2;}.r{fill:#4d1b0b;}.s{fill:#613617;}.t{fill:#fff;}.u{fill:#f5b000;}.v{fill:#ff85a1;}.w{fill:#ffb700;}.x{fill:#d49c00;}.y{fill:#ffcd69;}.z{fill:#e8b54f;}.aa{fill:#f7b7a9;}.ab{fill:#df9877;}.ac{fill:#edf4f5;}.ad{fill:#193f42;}.ae{opacity:0.07;}.af{fill:#ffae43;}.ag{opacity:0.06;}.ah{fill:#f6f6f6;}.ai{fill:#f8fbfb;}.aj{fill:#b4b4b4;}.ak{fill:#777776;}.al{fill:#a7a7a6;}</style></defs><g transform="translate(-12585.253 -7750.999)"><path class="a" d="M298.839,246.617l.815,7.056-3.267,2.2-6.163-1.336-4.088-4.2,1.76-5.834,7.388-5.737,4.844,4.779Z" transform="translate(12363.017 7531.778)"/><path class="b" d="M292.211,263.174s-6.522,7.127-7.942,12.749-4.044,65.52-4.821,72.483c.237,8.071,7.77,12.169,16.862,11.431s23.494-10.024,23.436-15.184c-3.44-36.366-.469-78.166-2.943-81.479C315.351,261.023,292.211,263.174,292.211,263.174Z" transform="translate(12355.318 7558.772)"/><path class="a" d="M303.6,248.3l6.663,11.881-5.531,3.905-9.245-11.877Z" transform="translate(12373.785 7542.749)"/><path class="c" d="M296,241.215a9.03,9.03,0,0,1,5.361,4.732c.931,2.046,5.724,12.891,5.974,13.395-5.092,1.51-9.179,6.914-9.179,6.914S290.478,243.747,296,241.215Z" transform="translate(12372.069 7534.597)"/><path class="c" d="M285.382,265.014s1.3,3.465,6.972,4.274c9.9,1.415,17.622-4.274,17.622-4.274l-.217-4.395-15.933,3.36-6.72-1.02Z" transform="translate(12362.147 7556.933)"/><path class="d" d="M286.4,271.571c5.647,7.694,4.334,13.472,4.334,13.472s.1,2.222,4.631,2.773a23.8,23.8,0,0,0,18.078-4.07s4.076-14.784,4.846-20.36c.495-3.6-3.1-8.144-5.98-13.653a20.6,20.6,0,0,0-8.122-8.3h-3.145c3.216,6.776-.308,8.424-.308,8.424s-5.778,2.861-7.759-4.334c-1.1.856-9.041,8.852-9.041,8.852S278.773,260.034,286.4,271.571Z" transform="translate(12358.518 7534.849)"/><path class="c" d="M306.874,253.748s-14.208,8.157-17.37,3.2C291.593,263.948,306.874,253.748,306.874,253.748Z" transform="translate(12366.893 7549.023)"/><path class="e" d="M312.967,262.432c.346.9-.555,16,.8,20.939.3,1.332,3.491,5.825,3.711,6.737a24.741,24.741,0,0,1,0,4.089s-.914,2.906-1.525,3.19-4.861-1.011-5.539-1.859c1.568-3.313-1.792-34.221-1.792-34.221S312.616,261.526,312.967,262.432Z" transform="translate(12388.901 7557.725)"/><path class="f" d="M302.676,252.842s-.037,3.164-1.418,4.861c-.082,1.086,3.317,4.169,3.317,4.169l4.339,5.158,5.786-.693,1.7-3.648-2.14-7.2-4.967-4.685-6.541-.691Z" transform="translate(12380.422 7544.84)"/><path class="g" d="M312.334,301.352c2.581,3.9,7.922,4.605,9.686,5.817,1.7,1.164,1.9,4.18.514,4.747-5.285,1.508-11.831-2.512-11.831-2.512a12.375,12.375,0,0,1-6.985-1.385c-.931-.518.63-6.98.63-6.98S311.14,301.352,312.334,301.352Z" transform="translate(12382.914 7603.458)"/><path class="e" d="M315.085,287.344a13.984,13.984,0,0,0-1.618,5.087c.234,2.648-1.7,15.789-.585,25.916-1.067.5-6.477,1.258-7.985-.314.127-5.094-1.951-16.477-1.951-18.553A30.764,30.764,0,0,1,304,293.572l-.488-7.3Z" transform="translate(12382.365 7586.462)"/><path class="h" d="M319.575,271.6c-.738,16.456-2.607,30.717-3.739,33.309-.652,1.493-7.266,4.27-12.7.753-1.226-.51-.538-23.709-.538-23.709S319.222,270.866,319.575,271.6Z" transform="translate(12381.741 7569.53)"/><path class="g" d="M303.457,305.138a44.97,44.97,0,0,0,2.22,7.051c1.267,3.052,3.461,6.189,2.218,7.546-2.7,2.956-7.832.409-9.183-2.168a21.022,21.022,0,0,1-1.415-4.121c-.155-.437-2.041-1.678-1.76-3.992a19.833,19.833,0,0,1,2.084-5.565Z" transform="translate(12373.803 7606.738)"/><path class="i" d="M280.306,320.925a44.981,44.981,0,0,0,2.22,7.051c1.269,3.055,3.459,6.189,2.216,7.548-2.7,2.953-7.83.409-9.181-2.17a21.062,21.062,0,0,1-1.415-4.119c-.159-.437-2.044-1.68-1.762-3.995a34.689,34.689,0,0,1,1.667-6Z" transform="translate(12347.152 7624.405)"/><path class="e" d="M309.8,290.083c-.841.725-2.5,9.338-4.285,10.424.628,4.971-2.16,14.475-2.6,23.088-1.889.82-5.847.667-5.836-1.25.684-6.131-1.454-14.808-1.048-19.528.278-3.192,1.607-4.9,3.4-14.963C300.445,288,310.641,289.36,309.8,290.083Z" transform="translate(12374.345 7588.282)"/><path class="j" d="M302.457,273.253a23.444,23.444,0,0,0-3.222,6.834c-1.368,4.427-3.07,27.439-2.691,28.51.693,3.268,13.96,3.459,14.918.5.368-1.71,4.076-18.994,4.451-20.472,8.3-2.549,10.469-17.049,10.469-17.049Z" transform="translate(12374.935 7569.548)"/><path class="k" d="M308.927,251.483c6.6,1.6,4.715,11.482,4.715,11.482l.379,9.65a3.847,3.847,0,0,1-5.094,1.394C308.89,272.719,308.266,251.391,308.927,251.483Z" transform="translate(12388.902 7546.417)"/><path class="l" d="M316.288,261.262c-1.665.759-9.007-7.565-11.71-6.559-2.831,2.14-3.289,3.388-6.367,5.588-.632.792,4.879,26.392,3.517,32.621.293,1.063,3.1,2.971,7.081,3.418,8.789,1.426,15.651-5.287,15.651-5.634,0-3.179,0-28.018-.409-30.5-.155-6.29-7.669-7.705-7.669-7.705S317.955,260.509,316.288,261.262Z" transform="translate(12376.855 7547.578)"/><path class="f" d="M308.3,257.005s2.188,2.121,2.642,1.884a8.046,8.046,0,0,0,1.953-4.5c-.065-1.54-2-3.554-2-3.554Z" transform="translate(12388.523 7545.676)"/><path d="M280.662,306.351c.94,1.282,9.549,4.083,10.921,5.688a4.193,4.193,0,0,1,.191,4.7c-.544.663-5.857,1.086-9.42-.3-2.136-.83-5.451-2.3-6.825-2.837s-6.219-.275-7.669-2.173c-1.084-1.495-.239-7.249-.239-7.249S279.722,305.073,280.662,306.351Z" transform="translate(12341.343 7607.072)"/><path class="k" d="M285.561,280.229c1.573,13.281-4.73,35.2-4.73,35.2s-1.613,16.785.327,29.736c-.6,2.237-9.906,4.046-12.713-.125-.611-2.947-3.1-23.894-1.4-28.25.611-5.259-.559-29.984-.559-29.984s14.229-16.075,19.5-17.03C285.981,269.777,286.033,275.426,285.561,280.229Z" transform="translate(12340.367 7567.474)"/><path d="M267.743,312.683c.333,3.491,5.406,10.674,3.551,13.935-1.084,1.9-8.411,2.594-11.188-.6-1.863-2.147-2.052-6.7-2.052-6.7a11.792,11.792,0,0,1-.9-3.745,12.431,12.431,0,0,1,.663-3.5S266.923,312.154,267.743,312.683Z" transform="translate(12329.651 7616.152)"/><path class="l" d="M262.87,288.083l-1.643,32.965s-2.444,7.271-3.31,9.9c-2.106,9.544-1.355,28.9-1.355,28.9.452,1.631,3.715,3,8.69,2.87,2.181-.058,4.9-1.239,4.808-2.674s.241-23.1,3.018-32.4c0,0,7.849-16.905,10.108-35.372-.067,0,14.95-11.859,14.341-22.457,0-.815-27.05,5.95-30.823,3.592C261.962,281.44,262.87,288.083,262.87,288.083Z" transform="translate(12328.822 7567.438)"/><path d="M262.112,272.983l-.906,2.177s1.964,4.229,8.333,4.472c13.193.361,22.49-8.064,22.49-8.064v-3.347Z" transform="translate(12334.319 7565.683)"/><path class="m" d="M275.906,272.005l-3.414,1.973V271.61l3.414-1.973Z" transform="translate(12347.311 7567.313)"/><path class="a" d="M283.757,254.909c-.755,1.824-1.48,10.753-1.48,10.753a34.572,34.572,0,0,0-3.078,6.982c-.383,1.131,1.648,17.426,1.648,17.426s6.621-15.475,7.185-17.615a14.826,14.826,0,0,0,.316-4.593s3.207-6.348,3.962-11.571C292.183,255.163,284.514,253.087,283.757,254.909Z" transform="translate(12354.975 7549.531)"/><path class="c" d="M285.272,248.031c-3.711,3.889-3.932,16.193-4.214,17.327,1.071,2.45,8.185,4.046,9.809,1.8,1.921-6.916,3.018-7.4,3.835-11.177.273-1.8,1.136-5.739-.312-7.333S288.978,244.144,285.272,248.031Z" transform="translate(12357.17 7540.217)"/><path class="e" d="M281.206,285.406c-.725,2.8-2.956,4.844-1.149,6.692.361.2.333-.211,1.467-.832,1.435.372,2.973-.854,3.592,2.822.034.239-1.078,1.8-.949,2.043a3.8,3.8,0,0,0,2.76-.123c.568-.318.568-1.26.755-3.517.613-.953-1.125-5-1.129-7.785-1.041-5.053.4-20.407-1.654-23.918-1.856-3.177-8.2-.181-10.091,3.065l1.7,5.186c1.7,6.322,3.958,7.122,4.9,14.716C281.193,283.816,281.226,285.348,281.206,285.406Z" transform="translate(12349.978 7555.571)"/><path class="n" d="M273.926,246.557c6.18.3,9.417,8.649,12.1,16.322,2.446,6.991,3.941,11.031,4.255,12.246.66,2.547-8.572,6.942-10.041,5.046-.224-.639-9.566-28.8-9.566-28.8S272.487,246.557,273.926,246.557Z" transform="translate(12345.221 7540.746)"/><path class="o" d="M278.085,274.227s2.1-2.211,3.564-.977,1.788,3.767,1.854,4.562c.228,2.272-.65,2.674-1.6,2.725s-3.9-2.33-4.6-3.588S278.085,274.227,278.085,274.227Z" transform="translate(12352.627 7571.041)"/><path class="e" d="M278.032,274.395s1.992-2.093,3.371-.921,1.7,3.562,1.757,4.317c.217,2.147-.611,2.532-1.51,2.577s-3.683-2.2-4.358-3.4S278.032,274.395,278.032,274.395Z" transform="translate(12352.627 7571.319)"/><path class="p" d="M264.428,250.77l-.456,1.277v2.111l3.09,4.781,8.688,1.447L280.268,258V252.65l-3.017-5.987-8.945-1.057-4.334,2.044Z" transform="translate(12337.504 7539.652)"/><path class="q" d="M270.919,249.673c-1.426,2.287-12.98,11.831-12.98,11.831l6.326,24.032,1.785,5.989s.007,3.287-.179,5.115c7.632,8.568,29.719-3.022,29.917-4.762.127-7.083,1.439-10.03,2.659-25.563.841-8.307-11.779-19.34-13.061-18.609,1.923,5.724-2.764,7.21-2.764,7.21S277.284,257.5,270.919,249.673Z" transform="translate(12330.559 7542.028)"/><path class="p" d="M283.09,242.5c1.2,1.521,1.514,6.843,1.514,6.843s0,.224-.54.538c.583,2.282-.884,11.59-1.028,12.44s-2.865,2.284-4.072,2.239-7.651-1.882-9.712-5.683a2.229,2.229,0,0,1,0-1.656l-2.059-1.209-3.487-1.968,1.25-7.251,4.971-5.1,9.082-3.13S282.51,242.192,283.09,242.5Z" transform="translate(12337.198 7531.544)"/><path class="r" d="M284.359,244.744a9.838,9.838,0,0,0-1.947,3.082c-1.792-.893-7.116,0-7.116,0s.133,2.687-.581,3.672-1.164.714-2.013.895c-.759.94-.716,3.358-.716,3.358s-1.476-2.061-3.579-1.792a1.556,1.556,0,0,0-1.435,1.792c.047,1.383,2.287,2.1,2.327,2.594.181,2.37-3.175,2.6-3.175,2.6s-3.446-2.089-3.625-8.936c-.009-1.654,1.387-12.906,9.308-13.8,0,0,3.22-4.418,12.73,2.237C285.454,241.152,284.895,244.116,284.359,244.744Z" transform="translate(12335.809 7529.48)"/><path class="s" d="M267.638,237.709c4.205.136,7.787,6.311,7.787,6.311S271.471,239.361,267.638,237.709Z" transform="translate(12341.723 7530.562)"/><path class="i" d="M286.612,318.6c2.579,3.9,7.475,4.442,8.992,5.952,1.48,1.471,1.323,4.36-.062,4.924-5.283,1.512-12.691-3.24-12.691-3.24s-2.6.239-6.1-2.17c-1.745-3.33,1.342-6.976,1.342-6.976S285.414,318.6,286.612,318.6Z" transform="translate(12351.599 7621.933)"/><path class="f" d="M290.78,304.956c-.267,2.788-1.826,3.859-2.721,6.092-.095,5.188-4.242,15.376-2.45,22.074-3.586,2.168-7.791-.381-8.518-1.51,1.254-8.68-.095-15.193.092-25.473C277.815,306.043,290.665,303.408,290.78,304.956Z" transform="translate(12352.604 7607.408)"/><path class="e" d="M285.692,307.46a9.187,9.187,0,0,1-2.05,5.188c-2.358,6.066-3.681,22.229-4.244,24.327-.368,1.349-3.02,1.142-3.02,1.142s-2.923-.187-3.235-2.831c1.917-7.249-2.33-16.131,2.386-25.8.85-1.456.566-4.193.566-4.193Z" transform="translate(12348.06 7608.354)"/><path class="e" d="M291.638,274.171s-.478,14.836-.348,15.193c1.293.968,1.671,15.432,3.622,20.244.817,2.02,3.268,4.117,3.676,6.128a10.849,10.849,0,0,1-2.168,7.55s-4.463-.585-5.13-3.777c-.445-2.132-7.038-30.145-7.038-30.145l3.642-14.313Z" transform="translate(12360.846 7572.532)"/><path class="d" d="M280.976,290.075s-2.42,2.145-4.67,7.268c-2.452,5.589-4.412,27.94-4.412,27.94a20.088,20.088,0,0,0,9.082,4.022c10.4,1.9,22.309-7.529,22.309-7.529s6.731-28.8,1.271-34.432C302.719,285.177,280.976,290.075,280.976,290.075Z" transform="translate(12346.622 7587.06)"/><path class="i" d="M276.54,288.625l-.424,4.143s.97,2.87,8.161,3.777c8.961,1.131,15.419-6.507,15.419-6.507l-.26-5.586Z" transform="translate(12351.481 7584.366)"/><path class="t" d="M290.343,272.188v4.266c-.314,1-2.9,1.256-3.745.88s-1.222-3.9-1.222-3.9Z" transform="translate(12362.142 7570.249)"/><path class="i" d="M294.076,274.316a5.8,5.8,0,1,1-5.8-5.8A5.8,5.8,0,0,1,294.076,274.316Z" transform="translate(12358.804 7566.024)"/><path class="f" d="M279.05,269.029a3.665,3.665,0,0,1-.318,2.672l-.314,3.945,3.648,4.074,4.648,1.54,4.5-1.383.759-2.831-.413-3.429-5.315-3.833-5.6-2.265S278.924,267.956,279.05,269.029Z" transform="translate(12354.132 7564.875)"/><path class="u" d="M279.584,266.021a21.733,21.733,0,0,0-3.906,13.266c1.7,2.566,4.048.624,4.7-.017-1.643-7.78.077-12.141.077-12.141Z" transform="translate(12350.961 7563.15)"/><path class="v" d="M277.223,266.828c0,1.017.789,2.147,1.4,2.147s.873-1.233.873-1.233l-1.174-2.136S277.225,266.127,277.223,266.828Z" transform="translate(12352.756 7562.673)"/><path class="d" d="M281.5,271.253l-7.127,7.737s1.329,23.584,4.173,26.133c1.5,1.338,3.491,3.087,9.054,3.143s12.33-4.769,13.842-7.316,1.446-18.377.727-22.709a10.425,10.425,0,0,0-7.208-8.122s.807,6.823-1.736,7.335S281.5,271.253,281.5,271.253Z" transform="translate(12349.475 7567.868)"/><path class="t" d="M284.3,270.142a10.837,10.837,0,0,1-.8,7.047s3.7,1.914,4.773-.194c1.273-2.5-.376-6.881-.376-6.881S283.872,269.764,284.3,270.142Z" transform="translate(12359.981 7567.692)"/><path class="t" d="M280.026,269.463s-2.732,1.411-2.732,3.039c.376,4.3,7.987,8.553,9.258,8.641a4.289,4.289,0,0,0,4.091-3.375C281.618,275.753,280.026,269.463,280.026,269.463Z" transform="translate(12352.838 7567.113)"/><path class="e" d="M297.729,269.278a8.768,8.768,0,0,1-.506,2.5,16.061,16.061,0,0,1,.12,3.231c-.116,1.839-1.506,7.307-4.27,7.948-4.993,1.157-10.519-3.87-10.945-6.038,0,0-3.536.708-4.261-3.334-.157-.88,1.291-6.24,1.291-6.24l11.745-6.32,6.225,5.709A22.029,22.029,0,0,1,297.729,269.278Z" transform="translate(12353.485 7557.396)"/><path class="w" d="M294.115,269.326c-.284,6.2-10.94,7.357-11.289,6.6-.17-.284-.974-1.824-2.233-2.078s-2.076,1.512-2.076,1.512-5.343-13.771,6.29-14.4c9.5-6.036,15.722,8.144,13.459,10.222C297.888,271.494,296.156,271.873,294.115,269.326Z" transform="translate(12352.836 7555.617)"/><path class="x" d="M281.343,260.374c3.642-.252,7.718,6.825,7.718,6.825S283.98,261.231,281.343,260.374Z" transform="translate(12357.498 7556.644)"/><path class="e" d="M321.016,252.266a8.825,8.825,0,0,1-.51,2.5,16.034,16.034,0,0,1,.12,3.229c-.114,1.841-1.506,7.305-4.27,7.948-4.991,1.157-10.517-3.868-10.943-6.038,0,0-3.536.708-4.259-3.33-.159-.884,1.289-6.245,1.289-6.245l11.745-6.32,6.225,5.707A22.452,22.452,0,0,1,321.016,252.266Z" transform="translate(12380.29 7537.814)"/><path class="r" d="M311.847,256.323c-.841,2.517-5.621,2.652-5.621,2.652-.17-.284-.974-1.826-2.233-2.076s-2.076,1.51-2.076,1.51-4.244-8.12,1.856-12.1c8.439-10.329,19.712,2.642,17.921,7.286C321.318,254.815,316.666,258.4,311.847,256.323Z" transform="translate(12379.528 7535.979)"/><path class="s" d="M302.361,244.445c3.652-.252,6.746,6.823,6.746,6.823S305,245.3,302.361,244.445Z" transform="translate(12381.691 7538.307)"/><path class="e" d="M282.337,282.512a113.411,113.411,0,0,1-3.893,12.149c.959,3.848-.6,17.764,0,21.128a15.726,15.726,0,0,0,3.84,3.706c.68.531,2.482,4.47,1.947,4.973s-3.222-2.022-3.771-1.764c-.916,1.134,1.947,8.43,1.947,8.43a10.943,10.943,0,0,1-7.479-7.045c-.57-1.572-.632-6.35-.632-6.35s-4.184-14.8-3.394-25.847c1.1-2.908,3.394-12.139,3.394-12.139S282.3,281.279,282.337,282.512Z" transform="translate(12345.363 7578.958)"/><path class="t" d="M272.718,277.475s-.417,4.588-.422,4.967c-.1,3.584,8.284,3.631,8.63,2.373s1.583-5.832,1.583-5.832Z" transform="translate(12347.085 7576.335)"/><path class="e" d="M269.727,268.517c6.475.032,13.681,4.741,21.291,5.367,3.416.432,10.491,2.076,11.409,2.715s3.394,2.2,4.154,3.838-.056,4.023-.7,4.917c-1.254,1.747-5.595,2.943-6.473,2.315s.314-2.7.314-2.7-7.608-3.02-10.2-5.659c-2.818-.5-21.872,2.013-25.2-1.213-1.478-1.426-3.02-8.286-3.02-8.286S268.664,268.73,269.727,268.517Z" transform="translate(12334.427 7566.024)"/><path class="n" d="M260.761,254.013c-5.72,1.131-3.924,7.826-3.924,7.826s8.768,25.4,9.624,26.024c3.349,2.977,10.583-1.6,10.362-2.652-.372-1.783-5.586-22.528-5.586-22.528S268.864,252.408,260.761,254.013Z" transform="translate(12328.982 7549.133)"/><path class="i" d="M283.89,279.966a5.8,5.8,0,1,1-5.8-5.795A5.8,5.8,0,0,1,283.89,279.966Z" transform="translate(12347.085 7572.532)"/><path class="a" d="M304.488,242.063c-.323.746-.439,1.009-.439,1.009a5.044,5.044,0,0,1,.495,1.3,69.515,69.515,0,0,1-1.628,10.336c-.376.772-2.467,1.762-3.521,1.762s-6.782-2.426-8.314-4.291c-1.751-2.125-2.312-9.669-2.312-9.669l7.611-9.938,9.054,3.4A60.023,60.023,0,0,1,304.488,242.063Z" transform="translate(12366.045 7524.644)"/><path class="y" d="M306.73,240.924c-6.851,1.824-.015,7.626-11.128,13.358-2.9,1.964,1.68,9.03.88,11.672-.942-2.265-4.511-3.883-5.081-3.381.71.613,2.031,2.973,1.418,4.672-1.131-1.7-2.5-4.672-5.143-4.687,0,0-1.579,1.742-2.53,2.586a11.814,11.814,0,0,0-1.5.652c1.2-5.6.695-6.7,1.2-12.672s-1.635-20.308,10-21.38c0,0,2.25-3.906,8.617-.968,5.786,2.665,9.183,8.073,9.183,10.274s-1.826,3.9-2.267,4.339c.944-6.1-1.194-5.847-1.194-5.847S308.051,239.351,306.73,240.924Z" transform="translate(12360.156 7521.319)"/><path class="z" d="M289.364,231c.568-.374,9.37,6.29,9.37,6.29S288.8,231.376,289.364,231Z" transform="translate(12366.705 7522.818)"/><path class="e" d="M304.342,268.347l-1.323,3.186a49.934,49.934,0,0,1-.191,5.061c-.247,3.2-2.829,15.589-2.829,15.589s3.274,2.452,3.743,4.276-.14,3.992-.469,3.9c-.8-.045-.755-2.231-1.654-1.983s-.99,3.747-.99,3.747,1.9,3.427.755,4.022c-.66.346-3.334-2.263-3.334-2.263a9.964,9.964,0,0,1-2.392-4.59c-.564-2.766,0-7.927,0-7.927s-1.628-14.4-.256-18.613c.888-2.607,2.334-6.853,2.334-6.853Z" transform="translate(12373.049 7563.008)"/><path class="k" d="M303.732,255.84c-5.576-.006-7.456,12.7-7.456,12.7s-.938,8.955-1.159,9.992c-.344,2.611,9.839,3.431,10.218,1.435.2-1.082,2.265-12.556,2.265-12.556S310.837,256.057,303.732,255.84Z" transform="translate(12373.343 7551.432)"/><path class="g" d="M300.456,272.469s1.51,2.925,8.443,3.582,14.29-5.8,14.29-5.8v2.852s-6.649,6.107-14.526,5.576c-6.294-.43-9.4-3.9-9.4-3.9Z" transform="translate(12378.127 7568.022)"/><path class="aa" d="M993.928,257.551l-.157-.1C993.852,257.514,993.936,257.577,993.928,257.551Z" transform="translate(11796.909 7665.088)"/><path class="aa" d="M993.7,257.409l.141.092c-.078-.059-.153-.118-.141-.092Z" transform="translate(11796.837 7665.037)"/><g transform="translate(12735.08 7758.148)"><path class="ab" d="M446.346,184.479l2.763,1.369c1.013.971,1.36,3.341,1.169,4.73l-.253,1.825-.429,2.91.519,2.857s.137,1.867-1.356,1.442l-.751-2.267.128,1.873s1.213,2.4-.867,2.6l-.352-.594a1.207,1.207,0,0,1-1.411.669,17.892,17.892,0,0,1-1.635-5.677,1.6,1.6,0,0,1-1.314.37l.236-6.174Z" transform="translate(-440.707 -102.18)"/><path class="ac" d="M448.8,186.634l-.718,2.115s-3.852.762-5.655-1.768l.566-2.159S446.089,187.4,448.8,186.634Z" transform="translate(-438.91 -101.768)"/><path class="t" d="M445.322,164.435c1.864-3.28,11.024-5.675,11.024-5.675-.159.293-3.81,36.85-3.81,36.85l-7.882,23.742s-6.72.106-7.392-1.9l5.171-22.571S441.652,170.891,445.322,164.435Z" transform="translate(-435.072 -133.074)"/><path class="ac" d="M445.322,164.435c1.864-3.28,11.024-5.675,11.024-5.675-.159.293-3.81,36.85-3.81,36.85l-7.882,23.742s-6.72.106-7.392-1.9l5.171-22.571S441.652,170.891,445.322,164.435Z" transform="translate(-435.072 -133.074)"/><path class="ad" d="M442.236,229.231l7.114-7.121h7.733l.808,5.413a3.25,3.25,0,0,1-1.664,2.84l-3.178.955a19.441,19.441,0,0,0-5.686,2.826c-2,1.426-5.567,2.1-7.451,1.464-1.7-.572-2.542-.9-1.9-2.652C438.411,231.861,439.657,230.6,442.236,229.231Z" transform="translate(-437.797 -56.978)"/><path class="ad" d="M433.015,232.055l5.593-7.515h7.484l.588,5.186a3.2,3.2,0,0,1-1.638,2.793l-7.488,6.205a7.265,7.265,0,0,1-5.536,1.7,3.971,3.971,0,0,1-3.667-2.947l.051-.28C428.741,235.337,431.686,233.4,433.015,232.055Z" transform="translate(-405.793 -54.06)"/><path class="d" d="M438.385,181.04l11.169,3.8,1.409,17.055-2.613,31.521-1.2,39.157s-5.111,3.28-10.048-.372l-1.039-41.959s.39-22.8,1.039-30.262C438.187,187.58,438.385,181.04,438.385,181.04Z" transform="translate(-427.06 -106.311)"/><path class="ae" d="M442.74,207.9c.244,7.341.064,14.953.753,22.4.284,11.336.632,21.616,1.58,32.912a8.569,8.569,0,0,1-3.064-1.453L440.97,219.8s.383-22.41,1.024-30.064C442.11,195.789,442.539,201.851,442.74,207.9Z" transform="translate(-431.963 -95.866)"/><path class="d" d="M451.456,202.988l-1.3,31.079.889,41.354s-5.428,3.969-9.164-.158l-5.331-41.153-3.9-34.085-4.565-15.985,22.608-1.05S452.114,186.8,451.456,202.988Z" transform="translate(-410.156 -103.971)"/><path class="af" d="M427.314,170.172c.059-4.777,2.512-7.951,5.824-8.734,8.95-2.12,10.209-3.978,15.441-2.041a61.387,61.387,0,0,1,12.892,7.061l-3.6,12.936-2.228,19.258L457.2,214.98c-11.424,9.205-30.095.354-30.095.354s.137-14.33.535-19.7c.167-2.239-.337-8.215-.337-8.215C425.172,178.955,427.246,175.9,427.314,170.172Z" transform="translate(-416.166 -133.286)"/><path class="ae" d="M433.235,202.988l-1.3,31.079.889,41.354a10.287,10.287,0,0,1-1.748.962c-.095-1.735-.229-3.467-.379-5.2.029-12.842-.458-24.623-.66-37.486-.1-6.163-.284-12.241-.592-18.336,1.475-8.514.863-17.143-.348-25.69.013-.416.022-.83.037-1.246a4.929,4.929,0,0,0-.638-2.734q-.2-1.251-.409-2.5l4.387-.2S433.893,186.8,433.235,202.988Z" transform="translate(-391.934 -103.971)"/><path class="ae" d="M435.47,195.341c1.347,6.309,2.879,20.018,3.931,26.395a22.17,22.17,0,0,0,.385,5.749,5.761,5.761,0,0,0,.172,1.241c3.284,12.558,4.169,24.453,5.928,37.273a5.376,5.376,0,0,1-3.779-1.858l-5.329-41.153-3.126-27.312-2.855-3.429S435.292,194.5,435.47,195.341Z" transform="translate(-410.384 -92.851)"/><path class="ac" d="M440.153,168.377c.66-4.73,2.316-6.874,5.584-7.825.493-.141,3.753-1.5,3.753-1.411,0,1.514-.594,18.765.7,25.151.02.1-7.2,51.558-4.033,72.351-7.541-1.292-8.065-3.584-8.065-3.584s1.618-51.081,2.016-56.447C440.279,194.373,438.993,176.676,440.153,168.377Z" transform="translate(-430.754 -132.62)"/><path class="ac" d="M427.926,185.639c2.241-3.26,9.3-27.255,10.852-26.681a61.406,61.406,0,0,1,12.89,7.061l-3.6,12.936.836,22.353,1.343,52.415c-5.58,4.5-15.646,4.671-22.848,3.436C424.232,236.368,429.332,206.429,427.926,185.639Z" transform="translate(-406.361 -132.847)"/><path class="ag" d="M435.542,175.561c.088-.374.165-.755.255-1.129l.31,8.279,1.343,52.415c-2.71,2.186-6.478,3.341-10.462,3.817C436.079,220.2,435.586,194.681,435.542,175.561Z" transform="translate(-393.564 -114.249)"/><g transform="translate(42.823 90.817)"><path class="ab" d="M430.682,188.93l1.814,8.728-.995,3.095-2.291,1.75s-1.255,1.981-1.4,2.2a.884.884,0,0,1-1.609-.583l.147-.929.055-2.875-.951-3.049,0-.024-.068-.33.229,2.648c.112,2.32-1.609,2.245-1.609,2.245l-.713-7.649,1.732-5.811Z" transform="translate(-423.288 -188.349)"/></g><path class="a" d="M443.391,163.948a5.6,5.6,0,1,1-11.191,0v-9.153h10.367Z" transform="translate(-410.977 -137.836)"/><path class="ae" d="M443.039,156.725a5.524,5.524,0,0,0-.183,1.594c.108,4.16-4.138,10.051-8.732,7.108-1.215-.777-1.684-2.2-1.624-4.3l0-.037v-6.3h10.367Z" transform="translate(-411.275 -137.836)"/><path class="a" d="M446.491,161.79c0,4.684-5.622,6.91-8.371,7.286-3.322.453-6.912-2.078-6.912-6.848V150.221l16.227,2.9Z" transform="translate(-412.838 -143.331)"/><g transform="translate(16.657)"><path class="ad" d="M433.776,149.154c6.432-4.039,11.988-1.7,15.818,3.134,1.869,2.357.583,7.105.029,9.333a17.076,17.076,0,0,1-4.184,7.8l-.482-7.992-.94,1.589-1.345-.984s.588-3.39.561-3.953c-.1-1.922-11.5-2.2-11.5-2.2S426.757,153.563,433.776,149.154Z" transform="translate(-430.023 -147.091)"/><path class="ah" d="M439.449,157.586l2.454,3.8a13.236,13.236,0,0,1-9.315,8.314l-1.38-4.334C439.086,164.212,439.449,157.586,439.449,157.586Z" transform="translate(-423.964 -134.484)"/><path class="ah" d="M439.951,164.387a17.111,17.111,0,0,0-3.407,3.044s-1.459-6.846.729-9.029C437.272,158.4,436.872,162.32,439.951,164.387Z" transform="translate(-432.707 -133.504)"/></g><path class="ac" d="M430.3,187.558l-.165,3.194a6.907,6.907,0,0,1-6.084-.682l-.143-2.743S425.039,188.513,430.3,187.558Z" transform="translate(-379.647 -98.759)"/><path class="ac" d="M427.17,161.536c6.8-.652,7.808,10.634,7.808,10.634l2.965,22.065-.385,26.183s-3.126,1.834-8.177-.559L427.925,196l-4.607-21.545S423.183,161.917,427.17,161.536Z" transform="translate(-385.975 -129.772)"/><path class="ag" d="M423.325,163.51c-.044-.257.117-.5.167-.742,2.151,3.159,2.584,7.889,2.584,7.889l2.965,22.065-.387,26.183a8.006,8.006,0,0,1-5.3.412c2.168-9.472,4.242-18.963,3.042-28.747C425.343,181.938,425.1,173.657,423.325,163.51Z" transform="translate(-377.074 -128.259)"/><path class="a" d="M434.226,154.491c.257,2.056-1.1,4.319-2.763,3.557l-.158-3.7S433.874,151.7,434.226,154.491Z" transform="translate(-399.872 -139.738)"/><path class="ag" d="M438.4,164.06a21.682,21.682,0,0,1,5.276-4.552l1.862-.81a27.762,27.762,0,0,0-1.638,5.624c-.784,3.808.374,20.645.374,20.645a58.868,58.868,0,0,0-6.771-16.315l2.688-4.145Z" transform="translate(-424.8 -133.148)"/><path class="t" d="M438.4,163.651a21.009,21.009,0,0,1,4.143-4.143l1.862-.81a27.763,27.763,0,0,0-1.638,5.624c-.784,3.808.374,20.645.374,20.645a103.956,103.956,0,0,0-5.637-16.725l2.688-4.143Z" transform="translate(-423.666 -133.148)"/><path class="ag" d="M441.973,158.557a22.392,22.392,0,0,0,2.688,2.463c1.008.671,1.182,6.084,1.182,6.084l-2.016.112.112,4.479c-4.592,1.567-14.063,14.486-14.063,14.486,2.091-6.5,5.712-14.074,8.4-17.658S441.973,158.557,441.973,158.557Z" transform="translate(-408.311 -133.317)"/><path class="t" d="M442.236,158.557a22.39,22.39,0,0,0,2.688,2.463c1.008.671.447,5.824.447,5.824l-2.016.112.112,4.479c-4.592,1.567-13.328,14.746-13.328,14.746,2.091-6.5,5.712-14.074,8.4-17.658S442.236,158.557,442.236,158.557Z" transform="translate(-408.574 -133.317)"/><path class="ai" d="M439.536,171.481v8.959s-5.712,2.912-9.073-.559l.449-8.4Z" transform="translate(-403.299 -117.793)"/><g transform="translate(30.406 23.906)"><path class="ad" d="M433.432,157.951l.885.484c.253.275,2.615,3.333-.341,11.609-2.923,8.188-1.9,12.855-1.893,12.9l-.7.165c-.046-.2-1.109-4.9,1.915-13.306C436.2,161.752,433.458,157.982,433.432,157.951Z" transform="translate(-431.166 -157.951)"/></g><g transform="translate(15.236 24.854)"><path class="ad" d="M443.283,158.382l-.4.484c-.24.033-5.25,1.308-5.039,11.173l-.57.086C437.463,157.995,443.18,158.567,443.283,158.382Z" transform="translate(-437.274 -158.382)"/></g><path class="aj" d="M434.2,168.224a2.335,2.335,0,1,1-2.335,2.335A2.335,2.335,0,0,1,434.2,168.224Z" transform="translate(-403.371 -121.706)"/><g transform="translate(29.121 47.152)"><path class="ak" d="M433.853,168.512a1.7,1.7,0,1,1-1.7,1.7A1.7,1.7,0,0,1,433.853,168.512Zm0,2.688a.985.985,0,1,0-.986-.986A.984.984,0,0,0,433.853,171.2Z" transform="translate(-432.149 -168.512)"/></g><path class="al" d="M439.142,165.938a4.441,4.441,0,0,1,3.311-2.2,2.716,2.716,0,0,1,2.74.845c2.41,2.98-.92,12.6-1.834,15.065a.447.447,0,0,1,.084.425l-.4.986a.573.573,0,0,1-1.048-.42l.4-.986a.46.46,0,0,1,.476-.242c.909-2.487,4.092-11.787,1.9-14.49a2.182,2.182,0,0,0-2.234-.649,3.916,3.916,0,0,0-2.93,1.937c-1.763,3.082-.075,8.792.561,10.676a.447.447,0,0,1,.394.269l.341,1.008a.573.573,0,0,1-1.07.361l-.341-1.01a.45.45,0,0,1,.163-.46C438.99,175.1,437.251,169.246,439.142,165.938Z" transform="translate(-427.036 -127.17)"/><path class="ad" d="M442.431,163.734a2.716,2.716,0,0,1,2.74.845c.786.971.955,2.646.806,4.548-.169-.048-.339-.095-.515-.134.134-1.732-.022-3.229-.709-4.077a2.182,2.182,0,0,0-2.234-.649,3.916,3.916,0,0,0-2.93,1.937,7.076,7.076,0,0,0-.753,3.341c-.191.084-.368.185-.548.282a7.908,7.908,0,0,1,.832-3.889A4.441,4.441,0,0,1,442.431,163.734Z" transform="translate(-427.015 -127.17)"/><path class="ad" d="M440.921,158.808s-4.957-.856-5.38-1.418-.863-1.442-.546-1.671C438.084,153.5,440.921,158.808,440.921,158.808Z" transform="translate(-414.422 -137.379)"/><path class="ad" d="M441.843,156.106c.22.324-.018,1.07-.619,1.435s-4.024-.381-4.024-.381S439.778,153.075,441.843,156.106Z" transform="translate(-420.516 -137.606)"/><path class="ad" d="M434.634,160.65a2.466,2.466,0,0,0,1.7,1.175,8.632,8.632,0,0,0,2.646-.57,9.758,9.758,0,0,0,4-1.924c.935-.722,1.374-3,2.06-5.928l1.574,1.655s-.295,6.918-3.617,9.547c-1.444,1.142-3.978,3.223-6.96,2.12-1.589-.585-3.322-2.578-3.242-7.458l1.068-5.228S433.567,159.325,434.634,160.65Z" transform="translate(-415.487 -139.507)"/></g></g></svg>