<svg xmlns="http://www.w3.org/2000/svg" xmlns:xlink="http://www.w3.org/1999/xlink" width="256.32" height="248.845" viewBox="0 0 256.32 248.845"><defs><style>.a,.u{fill:none;}.b{fill:#f9bcaa;}.c{fill:#acaff2;}.d,.m{fill:#fff;}.e{fill:#191791;}.f{fill:#8d7fa2;}.g{fill:#4432db;}.h{fill:#706089;}.i{fill:#e8a793;}.j{fill:#d03398;}.k,.l{fill:#e634a7;}.l,.m{mix-blend-mode:overlay;}.l,.m,.n{isolation:isolate;}.n{mix-blend-mode:screen;}.o{clip-path:url(#a);}.p{fill:#1d50cf;}.q{fill:#6468d1;}.r{fill:#3f42b8;}.s{fill:#6b70e0;}.t{fill:#8b8fe8;}.u{stroke-linecap:round;stroke-linejoin:round;}.v,.w{stroke:none;}.w{fill:#fff;}</style><clipPath id="a"><path class="a" d="M7.378,0l102.9,4.157L99.472,197.933,0,201.426Z"/></clipPath></defs><g transform="translate(-72.34 -226)"><g transform="translate(-11182.139 -5961.258)"><path class="b" d="M741,388.486,732.9,405.794a5.927,5.927,0,0,1-9.27,2.555l-6.851-5.506-1.437,9.6,9.952,8.076a8.025,8.025,0,0,0,11.777-1.844c4.568-7,10.7-16.443,10.727-16.726C747.839,401.5,741,388.486,741,388.486Z" transform="translate(10646.309 5863.57)"/><path class="c" d="M729.052,418.35l-1.774-19.7a2.24,2.24,0,0,0-.444-1.109l.007,0a1.708,1.708,0,0,0-.811-.634l-10.3-3.325a.859.859,0,0,0-.2-.024l-.019,0a.679.679,0,0,0-.441.1l-1.218,1.086,2.67,19.648c0,.008,0,.005.005.011v.008a2.1,2.1,0,0,0,1.241,1.73l9.893,4.146.884-.847A1.2,1.2,0,0,0,729.052,418.35Z" transform="translate(10646.449 5863.093)"/><g transform="translate(11360.083 6257.595)"><g transform="translate(0)"><path class="d" d="M726.9,420.514l-10.279-3.33a2.085,2.085,0,0,1-1.216-1.734l-1.782-19.794c-.068-.757.365-1.205.982-1.006l10.273,3.33a2.081,2.081,0,0,1,1.211,1.736l1.782,19.794C727.934,420.266,727.513,420.713,726.9,420.514Z" transform="translate(-713.611 -394.602)"/></g></g><path class="e" d="M726.294,420.393l-9.969-3.229a2.024,2.024,0,0,1-1.179-1.683l-1.729-19.2c-.066-.734.354-1.168.952-.975l9.963,3.23a2.02,2.02,0,0,1,1.175,1.684l1.728,19.2C727.3,420.153,726.893,420.586,726.294,420.393Z" transform="translate(10646.491 5862.931)"/><g transform="translate(11371.393 6275.771)"><path class="a" d="M726.1,414.67" transform="translate(-726.099 -414.67)"/></g><path class="b" d="M716.038,413.462h0a3.005,3.005,0,0,1-3.268-2.7l-.458-4.817a3.005,3.005,0,0,1,2.7-3.268h0a3.005,3.005,0,0,1,3.267,2.7l.459,4.818A3.006,3.006,0,0,1,716.038,413.462Z" transform="translate(10646.596 5862.233)"/><g transform="translate(11369.346 6262.121)"><g transform="translate(0 0)"><path class="d" d="M724.742,403.277h0a1.25,1.25,0,0,1-.694-.979l-.206-2.154c-.039-.409.209-.638.552-.509h0a1.248,1.248,0,0,1,.694.979l.206,2.155C725.332,403.177,725.084,403.406,724.742,403.277Z" transform="translate(-723.839 -399.599)"/></g></g><path class="e" d="M789.75,553.136l5.41-15.829c1.019-1.535,4.059-3.481,6.387-4.276a2.342,2.342,0,0,1,2.758,1.044l1.215,2.049c1.854,2.895,1.8,3.474.455,5.5l-7.985,12.026a7.974,7.974,0,0,1-6.267,3.444l-.6-.037C789.023,556.925,788.4,555.161,789.75,553.136Z" transform="translate(10639.357 5849.948)"/><path class="f" d="M759.321,369.091c-7.047,2.211-12.379,8.517-19.9,18.45-2.047,7.809,5.247,12.259,8.935,16.681l16.516-15.186-3.6-13.522Z" transform="translate(10644.071 5865.4)"/><path class="c" d="M803.756,531.095c1.123,2.911-6.852,9.347-7.975,6.436l-3.652-9.461,7.975-6.436Z" transform="translate(10639.065 5851.012)"/><path class="c" d="M760.072,566.038c-1.124,3.371-9.491,1.061-8.368-2.31l3.651-10.955,8.368,2.31Z" transform="translate(10642.889 5848.075)"/><path class="g" d="M798.31,514.736c-2.442,4.573-7.707,9.172-10.311,8.663-16.47-20.179-33.322-40.452-38.821-72.755l21.3-25.675C779.054,460.508,785.254,493.184,798.31,514.736Z" transform="translate(10643.117 5860.129)"/><path class="g" d="M762.762,549.66c-3.346,3.189-9.726-1.081-11.095-4l22.106-104.371,19.745,5.045Z" transform="translate(10642.882 5858.59)"/><path class="e" d="M771.082,465.717l-6.5,23.775,1.754-27.513a35.915,35.915,0,0,0,4.177,1.089Z" transform="translate(10641.664 5856.638)"/><path class="f" d="M748.062,437.761c.792-13.409,1.557-25.849.548-42.673,1.368-23.131,10.615-31.175,24.874-25l5.926,1.955c17.029,10.515,25.989,10.568,21.743,29l-5.495,40.621C794.414,462.67,745.481,462.389,748.062,437.761Z" transform="translate(10643.231 5865.495)"/><path class="h" d="M794.257,402.582l5.72,31.936.727,3.119,2.013-15.111Z" transform="translate(10638.865 5862.241)"/><path class="e" d="M770.81,366.844s1.577,2.712,2.618,3.288,15.99-5.418,14.993-17.6c-.63-7.714-15.268-6.325-15.268-6.325Z" transform="translate(10641.077 5867.567)"/><path class="b" d="M776.794,379.23l-.706.078a4.377,4.377,0,0,1-4.813-3.863L769.8,361.993a4.377,4.377,0,0,1,3.863-4.813l.706-.078a4.377,4.377,0,0,1,4.813,3.863l3.317,12.717C782.76,376.069,779.18,378.968,776.794,379.23Z" transform="translate(10641.175 5866.533)"/><path class="i" d="M770.682,370.024a11.949,11.949,0,0,0,9.769-4.8s-4.1,8.153-9.357,8.56Z" transform="translate(10641.089 5865.764)"/><path class="i" d="M772.981,362.53c-3.144,5.7-8.071,6.38-11.006,1.521s-2.765-13.421.379-19.122,8.07-6.381,11.006-1.521S776.124,356.829,772.981,362.53Z" transform="translate(10642.107 5868.128)"/><path class="b" d="M780.053,362.016c-3.144,5.7-14.1,8.032-17.034,3.171s1.147-15.04,4.29-20.74,8.071-6.38,11.006-1.521S783.2,356.316,780.053,362.016Z" transform="translate(10641.907 5868.173)"/><path class="e" d="M775.724,346.353s-2.923,11.714,6.149,15.623c0,0,11.437-4.738,5.143-17.215-5.548-11-17.586-4.775-17.586-4.775Z" transform="translate(10641.207 5868.311)"/><path class="e" d="M760.026,353.026a11.446,11.446,0,0,1,8.416-6.269l-4.5-3.563S758.789,343.677,760.026,353.026Z" transform="translate(10642.112 5867.842)"/><path class="e" d="M778.7,353.858c-1.7-3.055-6.122-3.605-12.7-2.17a5.6,5.6,0,0,1-3.023-.091c-4.544-1.578-4.486-7.465-4.486-7.465-.5-4.006,2.3-5.418,6.3-5.916l10.433-1.3c5.906-.767,10.818,4.652,11.316,8.658l.18.672C787.213,350.255,782.7,353.36,778.7,353.858Z" transform="translate(10642.245 5868.441)"/><path class="i" d="M783.83,363.754a2.866,2.866,0,1,1-1.126-3.893A2.866,2.866,0,0,1,783.83,363.754Z" transform="translate(10640.355 5866.304)"/><rect class="b" width="8.433" height="11.472" rx="4.049" transform="translate(11454.186 6310.187) rotate(9.792)"/><path class="b" d="M796.763,403.326c7.874,5.226,13.29,16.307,15.429,28.592.88,1.28,2.972,22.438,2.972,22.438l8.132-2.594s-.266-19.672-.989-27.793a13.745,13.745,0,0,0-1.975-6l-14.245-23.182Z" transform="translate(10638.629 5862.976)"/><path class="f" d="M794.112,401.18l11.157,22.008c1.431,1.676,18.55-7.533,16.732-10.129-.321-.458-12.749-27.1-23.505-30.915C789.762,379.044,788.416,391.188,794.112,401.18Z" transform="translate(10639.202 5864.215)"/><path class="e" d="M736.943,561.764l15.965,3.4c1.72.658,4.952,1.6,6.237,3.7a2.338,2.338,0,0,1-.418,2.916l-1.451,1.595c-2.422,2.44-5.123,1.849-7.394.981l-11.643-4.45a7.958,7.958,0,0,1-4.729-5.354l-.093-.589C733.085,561.887,734.673,560.9,736.943,561.764Z" transform="translate(10644.608 5847.256)"/><path class="e" d="M758.426,339.977a4.552,4.552,0,1,0,4.552-4.552A4.552,4.552,0,0,0,758.426,339.977Z" transform="translate(10642.245 5868.575)"/><path class="e" d="M755.366,345.764a4.552,4.552,0,1,0,4.552-4.552A4.552,4.552,0,0,0,755.366,345.764Z" transform="translate(10642.533 5868.029)"/><path class="e" d="M759.56,350.029a4.552,4.552,0,1,0,4.552-4.552A4.552,4.552,0,0,0,759.56,350.029Z" transform="translate(10642.138 5867.627)"/></g><g transform="translate(-17.447 3.82)"><path class="j" d="M67.137,21.773,35.032,3.236c-2.365-1.364-4.508-1.491-6.053-.593L17.1,9.547c1.548-.9,3.688-.772,6.053.6l32.1,18.535c4.7,2.713,8.5,9.289,8.481,14.688l-.1,36.891c-.009,2.684-.955,4.571-2.482,5.458l11.882-6.9c1.527-.889,2.473-2.776,2.482-5.458l.1-36.893C75.634,31.062,71.837,24.484,67.137,21.773Z" transform="translate(270.489 220.111)"/><g transform="translate(285 229.086)"><path class="k" d="M56.7,24.823c4.7,2.713,8.5,9.289,8.481,14.688l-.1,36.891c-.016,5.4-3.838,7.578-8.535,4.865L24.435,62.73c-4.7-2.711-8.5-9.289-8.481-14.688l.1-36.891c.016-5.4,3.838-7.576,8.535-4.863Z" transform="translate(-15.954 -5.121)"/><path class="l" d="M56.7,24.823c4.7,2.713,8.5,9.289,8.481,14.688l-.1,36.891c-.016,5.4-3.838,7.578-8.535,4.865L24.435,62.73c-4.7-2.711-8.5-9.289-8.481-14.688l.1-36.891c.016-5.4,3.838-7.576,8.535-4.863Z" transform="translate(-15.954 -5.121)"/><path class="l" d="M56.7,24.823c4.7,2.713,8.5,9.289,8.481,14.688l-.1,36.891c-.016,5.4-3.838,7.578-8.535,4.865L24.435,62.73c-4.7-2.711-8.5-9.289-8.481-14.688l.1-36.891c.016-5.4,3.838-7.576,8.535-4.863Z" transform="translate(-15.954 -5.121)"/></g><path class="m" d="M60.207,75.781l-.054-1.027c-.032-.672-.1-1.656-.145-2.908s-.124-2.774-.181-4.519c-.032-.871-.066-1.8-.1-2.779s-.057-2.007-.088-3.08-.059-2.193-.091-3.349-.048-2.356-.072-3.584-.045-2.494-.07-3.786c-.016-.645-.023-1.3-.029-1.957s-.014-1.324-.02-2q-.02-2.013-.041-4.087-.01-1.035-.02-2.084c0-.348,0-.7,0-1.048v-.658l0-.109-.007-.265,0-.131-.009-.118-.016-.229-.007-.115-.014-.12-.025-.242q-.058-.485-.149-.971a15.365,15.365,0,0,0-.5-1.926,19.218,19.218,0,0,0-1.672-3.679,18.758,18.758,0,0,0-2.378-3.265,13.905,13.905,0,0,0-3.01-2.523l-1.8-1.059L47.906,23.1l-3.512-2.089c-2.313-1.362-4.526-2.718-6.63-3.992-1.05-.64-2.077-1.254-3.062-1.865s-1.937-1.195-2.851-1.76-1.792-1.1-2.62-1.622-1.613-1.016-2.353-1.48c-1.48-.925-2.758-1.751-3.815-2.426s-1.878-1.22-2.442-1.586l-.862-.563.061-.106,12.4,7.139L44.94,20.07,52.111,24.2A15.092,15.092,0,0,1,55.4,26.924a20.193,20.193,0,0,1,4.317,7.393,15.131,15.131,0,0,1,.76,4.207l0,.265,0,.134v.131l0,.527,0,1.05-.009,2.084q-.01,2.07-.018,4.087c-.023,5.365-.043,10.375-.061,14.67-.036,8.585-.061,14.31-.061,14.31Z" transform="translate(273.851 224.586)"/><g class="n" transform="translate(298.233 250.194)"><path class="d" d="M28.736,34.593c2.025,1.17,3.693.342,3.863-1.837L24.873,28.3A8.631,8.631,0,0,0,28.736,34.593Z" transform="translate(-17.924 3.037)"/><path class="d" d="M26.187,22.688a8.328,8.328,0,0,1,1.034.419l.061.032c.174.086.353.179.532.283s.355.215.529.33l.063.041a12.54,12.54,0,0,1,1.034.774l.093.079c.158.134.312.269.464.41l.027.023V18.565a4.883,4.883,0,0,0-2.211-3.813c-1.22-.7-2.211-.138-2.211,1.26v6.512l.025.007c.154.034.308.077.464.127Zm1.627-6.972A3.513,3.513,0,0,1,29.4,18.458c0,1.007-.713,1.414-1.588.907a3.506,3.506,0,0,1-1.591-2.743C26.223,15.616,26.936,15.211,27.814,15.716Z" transform="translate(-17.002 -14.449)"/><path class="d" d="M42.333,47.954c.6.348,1.093.07,1.093-.622a2.409,2.409,0,0,0-1.093-1.883l-.025-.016-6.779-3.915a.729.729,0,0,1-.333-.572c0-.21.149-.294.333-.188l4.96,2.865a5.927,5.927,0,0,1-1.016-3.08V31.105A15.277,15.277,0,0,0,35,21.142l-.127-.122c-.057-.057-.113-.111-.17-.165s-.115-.106-.172-.158l-.124-.111q-.105-.1-.21-.183l-.084-.072c-.081-.068-.163-.133-.247-.2l-.048-.036c-.091-.072-.183-.143-.276-.21l-.009-.007A9.248,9.248,0,0,0,31.7,18.816l-.009,0q-.139-.058-.278-.109l-.048-.018c-.081-.029-.163-.059-.247-.084l-.081-.027-.213-.061-.12-.029c-.059-.014-.118-.029-.176-.041l-.163-.032-.134-.023c-2.609-.391-4.474,1.419-4.474,4.8v9.438a1.865,1.865,0,0,1-1.016,1.905l4.51,2.6a.733.733,0,0,1,.333.572c0,.21-.149.3-.333.19l-6.329-3.654-.025-.014c-.6-.348-1.091-.068-1.091.622a2.406,2.406,0,0,0,1.091,1.883L28.4,39.915l8.418,4.858ZM33.587,40.4l-2.136-1.233a.733.733,0,0,1-.333-.572c0-.21.149-.294.333-.19l2.136,1.235a.733.733,0,0,1,.333.572C33.919,40.421,33.77,40.505,33.587,40.4Z" transform="translate(-21.802 -9.541)"/></g></g><g transform="translate(72.34 273.419)"><g class="o"><g class="o"><path class="e" d="M1.685,97.026a1.684,1.684,0,0,0,.662-.148,1.833,1.833,0,0,0,.552-.384,1.912,1.912,0,0,0,.386-.562,1.875,1.875,0,0,0,.163-.683L7.7,1.884a1.879,1.879,0,0,0-.1-.708,1.769,1.769,0,0,0-.34-.584,1.654,1.654,0,0,0-.526-.4A1.6,1.6,0,0,0,6.073.036,1.646,1.646,0,0,0,5.4.164a1.775,1.775,0,0,0-.562.378,1.893,1.893,0,0,0-.393.57,1.931,1.931,0,0,0-.166.7L.079,95.3a1.753,1.753,0,0,0,.1.68,1.622,1.622,0,0,0,.336.551,1.547,1.547,0,0,0,.518.367,1.564,1.564,0,0,0,.649.127" transform="translate(45.338 53.191)"/><path class="p" d="M1.7,21.849a1.631,1.631,0,0,0,.275-.024,1.675,1.675,0,0,0,.273-.071,1.737,1.737,0,0,0,.265-.119,1.828,1.828,0,0,0,.251-.168L25.517,3.376a1.857,1.857,0,0,0,.457-.533A1.926,1.926,0,0,0,26.2,2.2a1.875,1.875,0,0,0-.013-.679,1.733,1.733,0,0,0-.267-.632A1.6,1.6,0,0,0,25.44.425a1.548,1.548,0,0,0-.6-.214A1.6,1.6,0,0,0,24.2.255a1.717,1.717,0,0,0-.609.312L.791,18.67a1.871,1.871,0,0,0-.461.538,1.918,1.918,0,0,0-.228.649,1.855,1.855,0,0,0,.017.68,1.72,1.72,0,0,0,.275.631,1.631,1.631,0,0,0,.266.295,1.573,1.573,0,0,0,.667.342,1.6,1.6,0,0,0,.371.043" transform="translate(47.944 85.8)"/><path class="p" d="M21.055,28.764a1.639,1.639,0,0,0,.284-.024,1.678,1.678,0,0,0,.281-.074,1.728,1.728,0,0,0,.271-.124,1.808,1.808,0,0,0,.256-.176,1.87,1.87,0,0,0,.453-.546,1.92,1.92,0,0,0,.218-.654,1.864,1.864,0,0,0-.029-.682,1.734,1.734,0,0,0-.286-.63L4.23.715A1.68,1.68,0,0,0,3.718.249,1.635,1.635,0,0,0,3.091.038a1.668,1.668,0,0,0-.664.054A1.762,1.762,0,0,0,1.8.42a1.866,1.866,0,0,0-.46.551,1.928,1.928,0,0,0-.22.664,1.9,1.9,0,0,0,.032.7,1.788,1.788,0,0,0,.3.643L19.767,28.1a1.644,1.644,0,0,0,.266.287,1.581,1.581,0,0,0,.658.333,1.607,1.607,0,0,0,.365.043" transform="translate(28.139 67.637)"/><path class="q" d="M12.854,60.709a29.287,29.287,0,0,0,2.139,2.116A37.911,37.911,0,0,0,20.7,67.1a26.146,26.146,0,0,0,8.2,3.344,17.643,17.643,0,0,0,9.644-.619c3.341-1.2,4.913-2,5.342-2.6s-.285-.985-1.521-1.346-3-.695-4.666-1.182A8.79,8.79,0,0,1,33.6,62.588a5.069,5.069,0,0,1-1.351-2.6A2.4,2.4,0,0,1,32.8,58.1,3.737,3.737,0,0,1,34.5,57a5.138,5.138,0,0,1,2.115-.237c.691.071,2.2.168,4.065.172A45.627,45.627,0,0,0,46.9,56.56a16.781,16.781,0,0,0,5.639-1.623,3.926,3.926,0,0,0,2.383-3.566c-.045-1.592-.714-2.233-1.708-2.383a9.907,9.907,0,0,0-3.669.569,15.046,15.046,0,0,1-3.85.765,2.066,2.066,0,0,1-2.239-1.809c-.278-1.341-.514-2.049-.547-2.416s.139-.4.676-.38a15.23,15.23,0,0,0,2.871-.114,27.866,27.866,0,0,0,6.021-1.615,14.474,14.474,0,0,0,5.35-3.527,16.973,16.973,0,0,0,3.21-4.73,14.337,14.337,0,0,0,1.272-4.424,3.336,3.336,0,0,0-.477-2.6,2.661,2.661,0,0,0-2.723-.441,13.817,13.817,0,0,0-3.18,1.609,27.787,27.787,0,0,1-3,1.762c-.9.4-1.659.511-2.176.011s-.168-1.279.623-2.293,2.025-2.261,3.277-3.7a22.887,22.887,0,0,0,3.389-4.86,9.36,9.36,0,0,0,.97-5.783c-.361-2.059-.783-3.893-1.213-5.488s-.868-2.951-1.26-4.049-.741-1.939-.99-2.5-.4-.857-.4-.857-.157.158-.5.443-.872.7-1.616,1.211-1.7,1.122-2.9,1.8-2.65,1.428-4.37,2.216-3.365,1.51-4.853,2.273a19.5,19.5,0,0,0-3.925,2.53,9.1,9.1,0,0,0-2.538,3.448,11.183,11.183,0,0,0-.692,5.02c.127,2.006-.16,3.2-.621,3.724s-1.1.383-1.666-.285a6.734,6.734,0,0,1-1.276-3.437,14.061,14.061,0,0,1,.56-5.736,15.026,15.026,0,0,0,.772-5.189c-.095-1.256-.5-2.034-1.079-2.32s-1.338-.078-2.14.636a10.632,10.632,0,0,0-2.407,3.675c-.7,1.6-1.4,3.312-2.071,5.016s-1.327,3.4-1.93,4.969-1.158,3.01-1.64,4.206-.89,2.145-1.2,2.73-.527,1.033-.669,1.275-.209.277-.219.037.035-.757.119-1.619.206-2.07.347-3.694a10.325,10.325,0,0,0-.411-4.162,6.193,6.193,0,0,0-1.665-2.668,3.984,3.984,0,0,0-2.288-1.062,3.233,3.233,0,0,0-2.276.657c-.686.518-1.18,2.123-1.444,4.289a38.621,38.621,0,0,0-.061,7.643,32.768,32.768,0,0,0,1.547,7.836c.808,2.294,1.92,4.1,3.374,4.9A3.929,3.929,0,0,1,17.6,45.6a3.362,3.362,0,0,1-1.168,2.871,2.631,2.631,0,0,1-3.117.108c-1.208-.706-2.507-2.3-3.66-5.2s-2.106-5.2-2.916-6.886A10.051,10.051,0,0,0,4.676,33.26c-.588-.47-1.1-.331-1.587.41A15.288,15.288,0,0,0,1.606,37.7a12.586,12.586,0,0,0,.067,6.167A24.8,24.8,0,0,0,4.28,50.23a40.082,40.082,0,0,0,4.078,5.848,41.15,41.15,0,0,0,4.5,4.631" transform="translate(31.08 1.077)"/><path class="r" d="M8.006,4.15a68,68,0,0,1,7.057-2.135A51.975,51.975,0,0,1,23.382.628a22.143,22.143,0,0,1,7.6.548,7.725,7.725,0,0,1,4.953,3.656,8.435,8.435,0,0,1-1.651.737c-1.022.4-2.414.921-3.861,1.428s-2.955,1-4.205,1.364a10.1,10.1,0,0,1-2.665.539,2.692,2.692,0,0,0-1.454.12c-.282.155-.362.428-.251.833a5.735,5.735,0,0,0,.9,1.618c.487.678,1.156,1.5,2,2.473a2.916,2.916,0,0,0,2.881.973,3.094,3.094,0,0,0,2.045-1.295c.287-.539.053-1.05-1.089-1.129s-3.195.276-6.545,1.472A20.968,20.968,0,0,1,15.416,15.2a21.014,21.014,0,0,1-5.992-.75A23.8,23.8,0,0,1,4.289,12.37,25.3,25.3,0,0,1,.237,9.616C.79,9.1,1.377,8.563,1.99,8.033S3.243,6.981,3.9,6.492A21.417,21.417,0,0,1,5.922,5.146a13.26,13.26,0,0,1,2.084-1" transform="translate(44.767 52.281)"/><path class="s" d="M10.157,30.621A27.72,27.72,0,0,1,14.4,29.16c.992-.246,1.6-.323,1.929-.442s.385-.28.271-.694-.4-1.083-.741-2.219a2.041,2.041,0,0,0-.667-1.061,1.783,1.783,0,0,0-1.043-.351,4.363,4.363,0,0,0-1.327.186,12.352,12.352,0,0,0-1.517.549C8.97,26.629,7.238,27,6.117,26.674A2.283,2.283,0,0,1,4.6,24.027,7.306,7.306,0,0,1,6.826,19.78a12.266,12.266,0,0,1,6.005-3.231,16.544,16.544,0,0,1,3.092-.594,23.882,23.882,0,0,1,2.831-.1c.87.017,1.651.068,2.3.107a11.224,11.224,0,0,0,1.5.032,6.163,6.163,0,0,0,2.225-.683A4.793,4.793,0,0,0,26.5,13.845a2.606,2.606,0,0,0,.452-2.024,4.344,4.344,0,0,0-1.6-2.364,4.667,4.667,0,0,0-1.721-.847,13.335,13.335,0,0,0-2.284-.417c-.815-.087-1.662-.132-2.48-.163s-1.608-.05-2.306-.086a1.381,1.381,0,0,1-.6-.168,1.4,1.4,0,0,1-.45-.392,1.451,1.451,0,0,1-.252-.549,1.5,1.5,0,0,1,0-.639,1.529,1.529,0,0,1,.65-.961q.331-.219.724-.463t.853-.514q.459-.27.987-.568T19.6,3.065A20.615,20.615,0,0,1,29.817.5a25.335,25.335,0,0,1,8.807,1.775,33.032,33.032,0,0,1,6.165,3.178,24.469,24.469,0,0,1,2.322,1.7,33.958,33.958,0,0,1,4.853,3.721,32.314,32.314,0,0,1,4.446,4.969,20.405,20.405,0,0,1,2.95,5.728,11.9,11.9,0,0,1,.38,6.016,17.1,17.1,0,0,1-1.278,4.238c-.453.827-.953,1.071-1.567.74a7.852,7.852,0,0,1-2.243-2.713c-.9-1.477-1.988-3.526-3.314-6.14s-2.74-3.923-4.013-4.371a2.934,2.934,0,0,0-3.185.756,3.777,3.777,0,0,0-1.032,3.1,3.224,3.224,0,0,0,2.431,2.622c1.53.483,2.764,2.027,3.711,4.109a28.151,28.151,0,0,1,1.995,7.328,36.091,36.091,0,0,1,.353,7.435c-.148,2.153-.558,3.814-1.219,4.469A3.968,3.968,0,0,1,48.124,50.3a3.591,3.591,0,0,1-2.371-.507,4.785,4.785,0,0,1-1.84-2.21,9.086,9.086,0,0,1-.659-3.958,8.6,8.6,0,0,0-.721-3.952,5.134,5.134,0,0,0-1.87-2.2,3.112,3.112,0,0,0-2.124-.507,1.9,1.9,0,0,0-1.475,1.13,5.465,5.465,0,0,0,.057,2.988c.269,1.308.734,2.887,1.24,4.618s1.049,3.61,1.476,5.523a29.272,29.272,0,0,1,.772,5.715A5.546,5.546,0,0,1,38.94,61.2a5.246,5.246,0,0,1-3.658,1.437,4.013,4.013,0,0,1-3.3-1.673c-.775-1.11-1.094-2.788-.559-5.082a14.006,14.006,0,0,0-.165-6.672,15.514,15.514,0,0,0-2.38-5.157c-.941-1.284-1.918-2.037-2.593-1.981s-1.05.919-.786,2.867a33.33,33.33,0,0,1,.306,5.817,22.816,22.816,0,0,1-.88,5.559,16.937,16.937,0,0,1-2.387,4.99,16.351,16.351,0,0,1-4.222,4.109c-1.751,1.189-3.346,2.362-4.754,3.454s-2.63,2.1-3.631,2.964S8.149,73.4,7.617,73.9s-.814.78-.814.78-.132-.178-.36-.534-.553-.888-.939-1.6-.835-1.593-1.31-2.653-.978-2.3-1.472-3.706A59.237,59.237,0,0,1,.886,54.414a35.976,35.976,0,0,1,.8-9.745,25.748,25.748,0,0,1,8.472-14.048" transform="translate(2.511 58.125)"/><path class="t" d="M40.8,10.388a3.9,3.9,0,0,0-.591,2.385,1.715,1.715,0,0,0,.952,1.26,4.232,4.232,0,0,0,1.78.412,8.052,8.052,0,0,0,1.894-.158,10.85,10.85,0,0,1,2.815-.017,23.293,23.293,0,0,1,4.112.774,15.612,15.612,0,0,1,4.064,1.747,6.812,6.812,0,0,1,2.685,2.9A2.344,2.344,0,0,1,57.8,22.8a11.422,11.422,0,0,1-3.936,1.6c-1.53.4-3.116.718-4.274,1.135s-1.887.932-1.7,1.718a10.553,10.553,0,0,0,.765,2.328,3.027,3.027,0,0,0,1.362,1.405,5.4,5.4,0,0,0,2.545.43,24.523,24.523,0,0,0,4.309-.6,12.443,12.443,0,0,1,11.04,2.966,9.044,9.044,0,0,1,2.466,3.488,2.489,2.489,0,0,1-.293,2.7,5.877,5.877,0,0,1-3.023,1.159,40.938,40.938,0,0,1-4.35.39c-1.5.08-2.974.149-4.156.326a3.646,3.646,0,0,0-2.42.971c-.345.51-.179.941.3,1.416s1.258.994,2.147,1.683a15.326,15.326,0,0,1,2.777,2.694,12.347,12.347,0,0,1,2.194,4.446,22.622,22.622,0,0,1,.74,6.193,29.717,29.717,0,0,1-.61,5.489,36.017,36.017,0,0,1-1.1,4.112c-.352,1.066-.642,1.789-.727,2.056-.265.029-1,.175-2.069.312a31.153,31.153,0,0,1-4.069.26,25.235,25.235,0,0,1-5.244-.548,19.353,19.353,0,0,1-5.589-2.12,13.92,13.92,0,0,1-3.919-3.459,26.421,26.421,0,0,1-2.508-3.92c-.669-1.236-1.205-2.324-1.712-3.044s-.985-1.069-1.538-.826-.905,1.186-1.166,2.494-.429,2.98-.615,4.686a44.457,44.457,0,0,1-.722,4.88,5.409,5.409,0,0,1-1.486,3.093,2.191,2.191,0,0,1-2.591-.291,8.936,8.936,0,0,1-2.7-3.343,13.984,13.984,0,0,1-1.434-5.474A14.719,14.719,0,0,1,25.7,56.947a32.654,32.654,0,0,0,1.663-4.676,11.7,11.7,0,0,0,.438-3.493,4.653,4.653,0,0,0-2.621-4.154c-.69-.372-1.316.119-1.953,1.026s-1.287,2.231-2.023,3.524a11.752,11.752,0,0,1-2.545,3.347,3.205,3.205,0,0,1-3.528.5A4.276,4.276,0,0,1,12.7,49.678a14.226,14.226,0,0,1,.164-5.16,36.311,36.311,0,0,1,1.395-5.13c.518-1.5,1.013-2.685,1.256-3.248A6.335,6.335,0,0,0,16,34.369a3.023,3.023,0,0,0-.2-1.6,1.7,1.7,0,0,0-1.183-.945,4.791,4.791,0,0,0-2.473.211c-1.074.319-1.921,1.539-2.661,3s-1.374,3.149-2.023,4.411-1.312,2.1-2.112,1.836-1.74-1.616-2.942-4.736a11.683,11.683,0,0,1-.638-4.774,22.884,22.884,0,0,1,1.18-5.908,36.215,36.215,0,0,1,2.959-6.563A46.7,46.7,0,0,1,10.6,12.559a23.333,23.333,0,0,1,2.065-2.178,22.915,22.915,0,0,1,2.3-1.874,22.43,22.43,0,0,1,2.51-1.547,21.916,21.916,0,0,1,2.683-1.2c1.915-.7,4.224-1.516,6.67-2.278s5.02-1.473,7.479-1.978A30.145,30.145,0,0,1,41.068.766,6.724,6.724,0,0,1,45.581,2.19c1.562,1.517,2.177,2.534,2.189,3.269s-.58,1.19-1.434,1.582-1.971.723-3.008,1.208A5.159,5.159,0,0,0,40.8,10.388" transform="translate(34.7 54.499)"/><g class="u" transform="translate(47.446 61.588)"><path class="v" d="M48.253,63.957s-1.308-2.95-3.629-7.614c-2.33-4.681-5.689-11.1-9.782-18.02a191.736,191.736,0,0,0-14.3-21.135C15.194,10.438,9.393,4.467,3.464.6"/><path class="w" d="M 48.23098373413086 64.36747741699219 C 48.19549942016602 64.36772918701172 48.16059875488281 64.36293029785156 48.12722778320312 64.35340118408203 C 48.0938606262207 64.34388732910156 48.06201934814453 64.32962036132812 48.03268051147461 64.31094360351562 C 48.00332641601562 64.29227447509766 47.97647094726562 64.26917266845703 47.95305252075195 64.24195861816406 C 47.92964172363281 64.21476745605469 47.90967178344727 64.1834716796875 47.89410781860352 64.14835357666016 C 47.88106155395508 64.11891937255859 47.54229736328125 63.35843658447266 46.91681671142578 62.0236701965332 C 46.29068374633789 60.6875114440918 45.37665557861328 58.77462005615234 44.21320724487305 56.44106292724609 C 43.04755020141602 54.10307312011719 41.63069534301758 51.3410758972168 40.0010871887207 48.31169509887695 C 38.36733627319336 45.27464294433594 36.51886367797852 41.96717834472656 34.49458312988281 38.54758071899414 C 33.30366134643555 36.53578948974609 32.11099624633789 34.58407974243164 30.91870307922363 32.69575119018555 C 29.72437286376953 30.80420303344727 28.53047943115234 28.97636413574219 27.33916282653809 27.2155590057373 C 26.1458797454834 25.45182418823242 24.95525741577148 23.75546264648438 23.76945304870605 22.12980461120605 C 22.58176040649414 20.5015697479248 21.39900398254395 18.94437408447266 20.22332763671875 17.46158027648926 C 18.75441551208496 15.60893440246582 17.29604911804199 13.87228679656982 15.85085487365723 12.25451374053955 C 14.40309047698975 10.63386535644531 12.96872997283936 9.132720947265625 11.55041790008545 7.753909111022949 C 10.12976455688477 6.372826099395752 8.725388526916504 5.114680290222168 7.339968681335449 3.982307434082031 C 5.952445983886719 2.848208427429199 4.584120273590088 1.840401291847229 3.237672805786133 0.9617321491241455 C 3.19012975692749 0.9307041168212891 3.151187658309937 0.8909425735473633 3.121465682983398 0.8456045985221863 C 3.091747045516968 0.8002569079399109 3.071253538131714 0.7493327856063843 3.060616731643677 0.6959901452064514 C 3.049987554550171 0.6426459550857544 3.049207925796509 0.5868837833404541 3.058924436569214 0.5318622589111328 C 3.068637371063232 0.4768399298191071 3.088842868804932 0.4225591719150543 3.120162725448608 0.3721868097782135 C 3.140928506851196 0.3387953639030457 3.165280818939209 0.3092110455036163 3.192322731018066 0.2836557626724243 C 3.219364643096924 0.2581086754798889 3.249099254608154 0.2365907430648804 3.280633449554443 0.2193316370248795 C 3.312163352966309 0.2020649015903473 3.345492362976074 0.1890490651130676 3.379730939865112 0.1805057227611542 C 3.413960218429565 0.171962559223175 3.449095249176025 0.1678838431835175 3.484245538711548 0.1684990078210831 C 3.502110958099365 0.168814480304718 3.519983291625977 0.1703488975763321 3.537739276885986 0.1731101274490356 C 3.55549168586731 0.175871342420578 3.573128223419189 0.1798830777406693 3.590541362762451 0.185145303606987 C 3.607951402664185 0.1904154121875763 3.625118732452393 0.1969597190618515 3.641952991485596 0.2047940641641617 C 3.658782958984375 0.2126282751560211 3.675259828567505 0.2217603623867035 3.691276788711548 0.2322219759225845 C 5.055444240570068 1.123188614845276 6.44092845916748 2.143983364105225 7.845022678375244 3.291799783706665 C 9.246960639953613 4.437840461730957 10.66726016998291 5.710344791412354 12.10322284698486 7.106430530548096 C 13.53679370880127 8.500209808349609 14.98579597473145 10.01696872711182 16.44755363464355 11.65384101867676 C 17.90668869018555 13.28778266906738 19.37835311889648 15.04120540618896 20.85990333557129 16.91121292114258 C 22.04064559936523 18.40153884887695 23.22833061218262 19.96634483337402 24.42080116271973 21.60229873657227 C 25.61137390136719 23.23564338684082 26.80662155151367 24.93979644775391 28.0043888092041 26.71137809753418 C 29.20017051696777 28.48003768920898 30.39837837219238 30.3157901763916 31.59686279296875 32.21530151367188 C 32.79330444335938 34.111572265625 33.98995971679688 36.07128524780273 35.1846923828125 38.09112548828125 C 37.21311950683594 41.52041244506836 39.06539154052734 44.83732223510742 40.70249176025391 47.88307571411133 C 42.33542633056641 50.92110061645508 43.75521087646484 53.6910400390625 44.92324829101562 56.03575134277344 C 46.08908462524414 58.37603378295898 47.0049934387207 60.29444885253906 47.63241195678711 61.63446426391602 C 48.25917053222656 62.97307205200195 48.59862518310547 63.73578643798828 48.61171340942383 63.76531982421875 C 48.63394165039062 63.81545639038086 48.64507293701172 63.86856842041016 48.64618301391602 63.92171859741211 C 48.64729309082031 63.97484588623047 48.63837432861328 64.02799987792969 48.6204719543457 64.07820129394531 C 48.60258865356445 64.12839508056641 48.57571792602539 64.17562103271484 48.54094696044922 64.21689605712891 C 48.50618362426758 64.25819396972656 48.46350479125977 64.29354095458984 48.41397857666016 64.31996917724609 C 48.39909362792969 64.32792663574219 48.3840217590332 64.3348388671875 48.36884307861328 64.34075164794922 C 48.35366439819336 64.34665679931641 48.33835220336914 64.35154724121094 48.32300567626953 64.35548400878906 C 48.30765533447266 64.35941314697266 48.29225921630859 64.36235046386719 48.27691268920898 64.36435699462891 C 48.26154708862305 64.36632537841797 48.2462158203125 64.36737060546875 48.23098373413086 64.36747741699219 Z"/></g></g></g></g></g></svg>