<svg xmlns="http://www.w3.org/2000/svg" xmlns:xlink="http://www.w3.org/1999/xlink" width="887.83" height="856.051" viewBox="0 0 887.83 856.051"><defs><style>.a{fill:url(#a);}.b{fill:url(#b);}</style><linearGradient id="a" x1="1.12" x2="0.337" y2="0.941" gradientUnits="objectBoundingBox"><stop offset="0" stop-color="#008df7"/><stop offset="1" stop-color="#bee2ff"/></linearGradient><linearGradient id="b" x1="0.497" y1="0.683" x2="0.51" y2="1.083" gradientUnits="objectBoundingBox"><stop offset="0" stop-color="#006cb4"/><stop offset="1" stop-color="#e634a7"/></linearGradient></defs><g transform="translate(-188.919 -351.019)"><path class="a" d="M602.89.017c-98.955,6.6-111.814,50.957-261.231,87.18C218.264,117.112,121.1,103.785,25.342,106.6c-61.879,1.821,17.4,256.158,17.4,256.158H623.793S638.746-2.373,602.89.017Z" transform="matrix(0.998, 0.07, -0.07, 0.998, 303.566, 350.893)"/><path class="b" d="M42.613-226.422c816.178,1.06,542.646,3.862,635.206-31.732,2.3-.886,42.436-1.3,114.212-1.489,106.136-.273,50.826,564.235,32.2,568.513-23.976,5.508-54.013,8.854-109.714,7.807-145.872,10.029-120.082,66.093-339.725,54.381-110.265-1.436-196.537,34.412-297.4,51.933C10.591,434.594-60.221-226.555,42.613-226.422Z" transform="matrix(-0.999, 0.035, -0.035, -0.999, 1058.466, 917.734)"/></g></svg>