<svg xmlns="http://www.w3.org/2000/svg" xmlns:xlink="http://www.w3.org/1999/xlink" width="211.245" height="297.954" viewBox="0 0 211.245 297.954"><defs><style>.a{fill:#a4bbde;}.b{fill:#cad8eb;}.c{fill:#ebf3ff;}.d{fill:#365bc2;}.e{fill:#152859;}.f{fill:url(#a);}.g{fill:#467de4;}.h{fill:none;stroke:#fff;stroke-miterlimit:10;stroke-width:2.649px;}.i{fill:#ff619a;}.j{fill:url(#b);}.k{fill:#e6e6ed;}.l{fill:#174082;}.m{fill:#6ca4ff;}.n{fill:#fcfeff;}.o{fill:#ffc2b0;}.p{fill:#d18b77;}.q{fill:#fff;}.r{fill:#1e3980;}.s{fill:url(#c);}.t{fill:#fbfbff;}.u{fill:#4d65a1;}.v{fill:#1d3570;}.w{fill:#25469e;}.x{fill:#f9bcaa;}.y{fill:#003575;}.z{fill:#edb2a1;}.aa{fill:#4432db;}.ab{fill:#0b63b2;}.ac{fill:#bbd6f2;}.ad{fill:#45446c;}.ae{fill:#e1e8ef;}.af{fill:#004da0;}.ag{fill:#ffcd69;}</style><linearGradient id="a" x1="0.85" y1="1.087" x2="0.353" y2="0.06" gradientUnits="objectBoundingBox"><stop offset="0.12" stop-color="#1e2e59"/><stop offset="0.333" stop-color="#253460"/><stop offset="0.657" stop-color="#3a4774"/><stop offset="0.866" stop-color="#4c5685"/></linearGradient><linearGradient id="b" x1="0.227" y1="0.795" x2="0.824" y2="0.215" gradientUnits="objectBoundingBox"><stop offset="0" stop-color="#88beff"/><stop offset="0.136" stop-color="#80b3fd"/><stop offset="0.374" stop-color="#6b95f7"/><stop offset="0.484" stop-color="#6186f5"/><stop offset="0.995" stop-color="#366bc1"/></linearGradient><linearGradient id="c" x1="0" y1="0.5" x2="1" y2="0.5" xlink:href="#b"/></defs><g transform="translate(-10891.294 -6446.016)"><g transform="translate(10979.007 6446.016)"><path class="a" d="M1130.029,370.777,1041.253,311.9C1035.7,308.7,1031.2,300.1,1031.2,292.693V98.929c0-7.4,4.5-10.806,10.053-7.6l92.69,53.515c5.552,3.206,10.053,11.806,10.053,19.209V356.9c0,4.871-1.823,6.9-4.887,8.671Z" transform="translate(-1020.464 -89.931)"/><path class="b" d="M1067.484,188.479s-47.526,111.153-47.526,103.751l-7.807-195.936,11.651-6.152c1.709-.806,3.866-.63,6.21.723l92.69,53.515a19.715,19.715,0,0,1,6.979,7.787Z" transform="translate(-1009.264 -89.658)"/><path class="c" d="M1111.933,376.9l-92.463-53.515c-5.552-3.206-9.826-11.806-9.826-19.209V110.409c0-7.4,4.383-10.806,9.936-7.6l92.411,53.515c5.553,3.206,9.774,11.805,9.774,19.208V369.3C1121.766,376.7,1117.486,380.1,1111.933,376.9Z" transform="translate(-1007.79 -96.681)"/><path class="d" d="M1107.433,378.564l-92.462-53.515c-5.552-3.206-9.826-11.806-9.826-19.209V112.076c0-7.4,4.383-10.806,9.936-7.6l92.411,53.515c5.553,3.206,9.775,11.806,9.775,19.209V370.964C1117.266,378.367,1112.985,381.769,1107.433,378.564Z" transform="translate(-1005.145 -97.661)"/><path class="e" d="M1290.89,313.09v11.067c0,.77.46,1.127,1.038.794l-.138-.095a2.323,2.323,0,0,0,.749-2.007V311.782c0-.771-.177-1.128-.755-.794l0,.095A2.4,2.4,0,0,0,1290.89,313.09Z" transform="translate(-1173.152 -219.717)"/><path class="e" d="M1290.89,360.11v11.067c0,.771.46,1.128,1.038.794l-.138-.095a2.324,2.324,0,0,0,.749-2.007V358.8c0-.77-.177-1.127-.755-.794l0,.095A2.4,2.4,0,0,0,1290.89,360.11Z" transform="translate(-1173.152 -247.364)"/><path class="e" d="M1116.366,375.189l-90.152-52.049a3.031,3.031,0,0,1-1.515-2.624V156.883a3.031,3.031,0,0,1,4.546-2.624l90.151,52.049a3.029,3.029,0,0,1,1.515,2.624V372.565A3.03,3.03,0,0,1,1116.366,375.189Z" transform="translate(-1016.642 -127.399)"/><path class="f" d="M1116.366,576.39l-90.152-52.049a3.031,3.031,0,0,1-1.515-2.624l42.32-25.667,53.892,32.256v45.46A3.03,3.03,0,0,1,1116.366,576.39Z" transform="translate(-1016.642 -328.6)"/><path class="g" d="M1136.056,193.1l-28.59-16.508a4.384,4.384,0,0,1-1.824-3.485h0c0-1.338.821-1.958,1.824-1.379l28.59,16.507a4.384,4.384,0,0,1,1.824,3.485h0C1137.88,193.06,1137.06,193.68,1136.056,193.1Z" transform="translate(-1064.233 -137.785)"/><g transform="translate(90.448 202.486)"><path class="h" d="M1224.656,581.082" transform="translate(-1224.656 -581.082)"/></g><path class="i" d="M1055.775,509.643l-.048-.027A.129.129,0,0,0,1055.775,509.643Z" transform="translate(-1034.884 -336.577)"/><path class="j" d="M1123.952,456.518l-1.156-39.253a12.117,12.117,0,0,0-3.373-7.415,14.944,14.944,0,0,0-3.638-3.709c-6.265-4.489-20.559-14.369-29.173-18.565-11.793-5.744-25.938-8.4-35.252-2.415a11.8,11.8,0,0,0-4.629,4.245l-.01.012a8.4,8.4,0,0,0-1.363,2.4c-4.27,9.387-1.655,20.153-2.349,33.515.61,5.013,1.421,7.051,5.178,8.992l.175.1a.168.168,0,0,1-.163.049l52.119,28.79c.116.067.233.132.353.195l.627.346.057-.013C1109.585,467.508,1124.544,463.871,1123.952,456.518Z" transform="translate(-1027.308 -261.409)"/><path class="k" d="M1064.121,381.773a23.537,23.537,0,0,0-12.761,3.389,11.8,11.8,0,0,0-4.629,4.245l-.01.012a8.4,8.4,0,0,0-1.363,2.4c-4.27,9.387-1.655,20.153-2.349,33.515.61,5.013,1.421,7.051,5.178,8.992l.175.1a.168.168,0,0,1-.163.049l8.889,4.91S1071.412,381.737,1064.121,381.773Z" transform="translate(-1027.308 -261.41)"/><path class="k" d="M1172.331,478.53l-1.156-39.253a12.117,12.117,0,0,0-3.373-7.415,14.947,14.947,0,0,0-3.638-3.709c-6.265-4.489-6.062-4.92-14.829-8.785-7.987-3.521-24.173,52.9-24.211,52.887l23.573,13.022c.116.067.233.132.353.195l.627.346.057-.013C1157.964,489.52,1172.922,485.884,1172.331,478.53Z" transform="translate(-1075.688 -283.422)"/><path class="l" d="M1124.887,390.445l-28.579-.812,4.561-15.454c9.47-.178,16.134,2.844,24.109,8.258Z" transform="translate(-1058.745 -256.941)"/><path class="e" d="M1119.447,419.6a9.142,9.142,0,0,0,4.277.346L1131,432.276l-.376.4a2.6,2.6,0,0,1-4.089-.258Z" transform="translate(-1072.35 -283.648)"/><path class="e" d="M1115.242,420.883a7.9,7.9,0,0,1-3.619-1.288l-11.483,7.541.121.474a2.261,2.261,0,0,0,3.426,1.292Z" transform="translate(-1060.998 -283.648)"/><path class="e" d="M1122.176,442.3c0,.883-.624,1.239-1.394.795a3.07,3.07,0,0,1-1.394-2.4c0-.883.624-1.239,1.394-.795A3.072,3.072,0,0,1,1122.176,442.3Z" transform="translate(-1072.315 -295.471)"/><path class="e" d="M1122.176,457.6c0,.883-.624,1.239-1.394.794a3.069,3.069,0,0,1-1.394-2.4c0-.883.624-1.239,1.394-.795A3.071,3.071,0,0,1,1122.176,457.6Z" transform="translate(-1072.315 -304.465)"/><ellipse class="e" cx="1.134" cy="1.965" rx="1.134" ry="1.965" transform="matrix(0.863, -0.505, 0.505, 0.863, 46.496, 157.506)"/><path class="m" d="M1108.058,398.134s-7.742-.03-9.192-13.5l-5.156-.72c-.712.565-2.2.184-2.894,4.69a20.484,20.484,0,0,0,.429,8.054l1.913,7.68a2.61,2.61,0,0,0,3.988,1.484Z" transform="translate(-1055.388 -262.666)"/><path class="n" d="M1111.917,416.676a7.9,7.9,0,0,1-3.619-1.289l-11.483,7.542.121.474a2.262,2.262,0,0,0,3.427,1.292Z" transform="translate(-1059.043 -281.174)"/><path class="o" d="M1118.764,371.109l-3.168-27.453,15.869,7.574,2.566,22.414C1134.73,377.337,1121.843,385.333,1118.764,371.109Z" transform="translate(-1070.087 -238.999)"/><path class="p" d="M1121.742,395.071c.242.692,8.262-1.973,8.02-2.842,0,0-3.473,5.121-7.468,6.72Z" transform="translate(-1073.699 -267.558)"/><path class="m" d="M1123.639,403.613s8.683,3,17.408-9.382l6.724,7.459c.507,1.093.32,1.366-.567,2.33l-11.7,13.058a3,3,0,0,1-4.748-.319Z" transform="translate(-1074.815 -268.735)"/><path class="n" d="M1123.639,417a19.775,19.775,0,0,0,4.049.213l7.645,12.993-.376.4a2.6,2.6,0,0,1-4.088-.258Z" transform="translate(-1074.815 -282.122)"/><path class="m" d="M1118.014,610.1l-90.152-52.049a3.029,3.029,0,0,1-1.466-2.109l-1.7,1.03a3.031,3.031,0,0,0,1.515,2.624l90.152,52.049a3.032,3.032,0,0,0,4.265-1.35A2.989,2.989,0,0,1,1118.014,610.1Z" transform="translate(-1016.642 -363.816)"/><path class="q" d="M1069.641,379.883c-2.755,11.867-7.92,25.356-6.334,33.787l5.762-.667-3.776,10.469,1.113,11.331,4.723,2.629a333.609,333.609,0,0,1,12.029-61C1077.635,376.2,1075.879,377.26,1069.641,379.883Z" transform="translate(-1039.167 -258.25)"/><path class="q" d="M1155.369,408.515l-16.582,29.319-8.248-1.606.534,12.919-5.725,10.651-6.7-3.722a272.225,272.225,0,0,1,11.82-32.6c3.7-8.393,8.521-21.262,7.646-29.249C1143.642,397.061,1150.734,403.466,1155.369,408.515Z" transform="translate(-1071.878 -268.735)"/><g transform="translate(42.498 123.101)"><g transform="translate(21.592)"><path class="r" d="M1161.138,390.7c2.736,2.353,5.1,5.247,4.354,9.093-.574,2.97-2.2,5.551-2.627,8.6-.848,5.977.743,11.922.911,17.884a1.369,1.369,0,0,0,2.736-.036c-.222-7.905-2.329-15.142.631-22.816,2.3-5.959.7-10.556-4.071-14.657-1.33-1.143-3.27.787-1.934,1.936Z" transform="translate(-1160.688 -388.417)"/></g><g transform="translate(13.23 13.453)"><path class="r" d="M1152.324,421.753c-3.581,6.774-12.364,10.911-11.913,19.715.089,1.752,2.827,1.729,2.737-.036-.407-7.953,8.274-12.121,11.545-18.307.822-1.555-1.544-2.93-2.368-1.371Z" transform="translate(-1140.394 -421.068)"/></g><path class="m" d="M1136.928,482.674l-8.9,19.159c-2.076,4.076-3.566,6.253-8.763,3.971-.278.737-.548,1.476-.785,2.227l.8.37a7.548,7.548,0,0,0,10.031-3.623l10.662-22.959C1141.725,478.048,1138.647,478.974,1136.928,482.674Z" transform="translate(-1114.281 -441.914)"/><rect class="r" width="6.022" height="3.478" rx="1.739" transform="translate(5.71 67.486) rotate(-161.482)"/><path class="m" d="M1143.657,474.708l.022,21.125c.172,4.57.608,7.172,6.283,7.286-.057.785-.123,1.57-.224,2.35h-.88a7.548,7.548,0,0,1-7.58-7.5l-.027-25.314C1141.247,468.494,1143.652,470.628,1143.657,474.708Z" transform="translate(-1127.668 -436.619)"/><path class="r" d="M1.739,0H4.283A1.739,1.739,0,0,1,6.022,1.739v0A1.739,1.739,0,0,1,4.283,3.478H1.739A1.739,1.739,0,0,1,0,1.739v0A1.739,1.739,0,0,1,1.739,0Z" transform="translate(20.509 66.001) rotate(6.331)"/><rect class="r" width="4.398" height="3.686" rx="1.843" transform="matrix(-0.961, -0.276, 0.276, -0.961, 27.145, 40.279)"/><rect class="r" width="4.398" height="3.686" rx="1.843" transform="matrix(-0.997, -0.076, 0.076, -0.997, 16.998, 36.861)"/></g><g transform="translate(25.247 113.261)"><g transform="translate(6.18)"><path class="r" d="M1083.825,413.945c1-10.242,1.247-20.636,2.9-30.8,1.084-6.674,3.042-14.641,10.686-16.145,1.525-.3,1.335-2.737-.207-2.433-7.049,1.387-10.3,6.922-11.954,13.5-2.87,11.444-2.677,23.746-3.823,35.435-.153,1.555,2.249,2.011,2.4.447Z" transform="translate(-1081.416 -364.537)"/></g><g transform="translate(0 44.4)"><circle class="s" cx="6.536" cy="6.536" r="6.536" transform="translate(0 2.081) rotate(-2.001)"/><circle class="t" cx="5.035" cy="5.035" r="5.035" transform="translate(1.694 2.169) rotate(-2.057)"/><path class="r" d="M1072.032,475.5a5.035,5.035,0,1,0,6.522-2.856A5.035,5.035,0,0,0,1072.032,475.5Z" transform="translate(-1069.515 -472.293)"/></g></g><g transform="translate(27.496 71.9)"><path class="o" d="M1094.007,319.8l-6.791.295c-8.016.454-13.36-5.733-13.814-13.749l-1.5-26.468a14.641,14.641,0,0,1,13.749-15.4l5.2-.295a14.641,14.641,0,0,1,15.4,13.749l1.5,26.468A14.641,14.641,0,0,1,1094.007,319.8Z" transform="translate(-1071.878 -264.156)"/></g><path class="u" d="M1084.959,278.893a24.75,24.75,0,0,1-18.718.98c-6.615-2.377-11.306-10.02-6.272-14.927,2.721-2.652,10.038-5.9,15.908-8.444,16.648-7.211,34.665.272,35.75,19.446,0,0,2.158,26.249-13.064,30.482l-1.082-3.822s6.034-5.852-.932-10.665a10.712,10.712,0,0,1-4.073-8.264C1092.605,280.447,1087.853,277.448,1084.959,278.893Z" transform="translate(-1036.135 -186.169)"/><path class="o" d="M1154.347,347.513c-2.093,2.2-4.828,1.852-6.109-.787a8.392,8.392,0,0,1,1.472-8.771c2.094-2.2,4.829-1.852,6.109.787A8.392,8.392,0,0,1,1154.347,347.513Z" transform="translate(-1088.894 -234.796)"/><path class="v" d="M1111.941,353.012c.107,1.121-.257,2.073-.812,2.126s-1.092-.813-1.2-1.934.257-2.073.813-2.126S1111.834,351.891,1111.941,353.012Z" transform="translate(-1066.744 -243.361)"/><path class="v" d="M1085.468,340.637c.132,1.118-.21,2.078-.764,2.143s-1.111-.788-1.243-1.907.21-2.078.764-2.143S1085.336,339.519,1085.468,340.637Z" transform="translate(-1051.175 -236.101)"/><g transform="translate(42.012 102.131)"><path class="v" d="M1108.165,339.717a6.589,6.589,0,0,1,4.5,2.217c.983,1.016,2.533-.536,1.551-1.551a8.769,8.769,0,0,0-6.051-2.858,1.1,1.1,0,0,0,0,2.192Z" transform="translate(-1107.105 -337.525)"/></g><g transform="translate(29.779 96.414)"><path class="v" d="M1078.475,325.843a5.741,5.741,0,0,1,4.13,1.95c.949,1.049,2.5-.506,1.55-1.551a7.945,7.945,0,0,0-5.68-2.593,1.1,1.1,0,0,0,0,2.193Z" transform="translate(-1077.416 -323.65)"/></g><g transform="translate(33.637 105.125)"><path class="p" d="M1089.235,354.447a2.35,2.35,0,0,1-2-.928c-.495-.678-1.025-2.071.988-3.787,1.757-1.5,2.016-4.532,2.018-4.563a.412.412,0,1,1,.822.066c-.011.138-.291,3.408-2.306,5.124-1.149.979-1.438,1.879-.857,2.674.878,1.2,3.031.2,3.053.193a.412.412,0,0,1,.352.745A5.422,5.422,0,0,1,1089.235,354.447Z" transform="translate(-1086.779 -344.79)"/></g><path class="p" d="M1154.771,348.133s2.438-2.7,3.391-.206-2.5,5.125-2.5,5.125,1.7-2.189.437-3.322S1154.771,348.133,1154.771,348.133Z" transform="translate(-1093.119 -240.887)"/><path class="q" d="M1085.445,370.105l7.685,3.291a.766.766,0,0,1,.465.806c-.177,1.222-1.043,3.8-5.237,2.306-2.94-1.049-3.763-3.9-3.992-5.595A.775.775,0,0,1,1085.445,370.105Z" transform="translate(-1051.72 -254.512)"/><circle class="w" cx="2.801" cy="2.801" r="2.801" transform="translate(29.879 159.461)"/></g><g transform="translate(10903.135 6615.508)"><path class="x" d="M779.954,666.14c-2.392,32.482-1.958,64.937-2.12,97.471-.038,7.692,11.912,7.7,11.951,0,.162-32.535-.272-64.989,2.12-97.471.238-3.223-2.916-5.975-5.975-5.975-3.431,0-5.737,2.743-5.975,5.975Z" transform="translate(-777.834 -660.165)"/></g><g transform="translate(10900.922 6717.354)"><path class="y" d="M784.488,845.324l1.909,5.851c.654.983,2.825,2.646,3.9,2.158,4.457-2.024,16.4-6.335,14.378-11.6-2.546-6.616-19.418,1.184-19.418,1.184Z" transform="translate(-778.417 -837.149)"/><path class="y" d="M787.944,839.623s6.722-.906,9.834,1.36c1.223.89.093,2.266-2.116,3.308-4.35,2.051-9.369,1.462-11.772-1.882l-1.547-.928Z" transform="translate(-777.516 -837.304)"/><path class="y" d="M774.57,840.314l1.623,13.827a1.608,1.608,0,0,0,.652,1.113h0a1.607,1.607,0,0,0,2.549-1.215l.611-11.514a1.608,1.608,0,0,0-.449-1.2l-2.234-2.312A1.607,1.607,0,0,0,774.57,840.314Z" transform="translate(-774.247 -836.914)"/><path class="y" d="M775.943,835.755s-4.041,2.928-.4,11.527c.049.115.074.453.151.351,3.569-4.74,6.308,0,6.308,0l10.042-4.263a13.039,13.039,0,0,1-11.951-3.859C778.672,838.041,775.943,835.755,775.943,835.755Z" transform="translate(-774.021 -835.755)"/></g><path class="y" d="M808.526,859.06l1.908,5.851c.655.983,2.825,2.646,3.9,2.158,4.457-2.024,16.4-6.335,14.378-11.6-2.546-6.616-19.417,1.184-19.417,1.184Z" transform="translate(10112.41 5874.437)"/><path class="z" d="M811.981,853.359s6.723-.906,9.835,1.36c1.223.89.092,2.266-2.116,3.308-4.35,2.051-9.369,1.462-11.772-1.881l-1.548-.928Z" transform="translate(10113.313 5874.281)"/><g transform="translate(10916.438 6624.526)"><path class="x" d="M807.577,681.482c.249,16.992.136,34.007-.953,50.971Q806.059,741.24,805.1,750c-.62,5.57-.982,8.2-1.818,13.625-.746,4.839-1.579,9.663-2.4,14.49-.539,3.179.841,6.435,4.173,7.351,2.869.788,6.808-.974,7.351-4.173a479.074,479.074,0,0,0,7-67.495c.288-10.768.282-21.542.125-32.313-.112-7.683-12.063-7.706-11.951,0Z" transform="translate(-800.769 -675.711)"/></g><path class="y" d="M798.608,854.05l1.623,13.826a1.608,1.608,0,0,0,.652,1.113h0a1.607,1.607,0,0,0,2.549-1.215l.611-11.515a1.608,1.608,0,0,0-.449-1.2l-2.234-2.312A1.607,1.607,0,0,0,798.608,854.05Z" transform="translate(10116.58 5874.671)"/><path class="y" d="M799.98,849.491s-4.041,2.928-.4,11.527c.049.116.074.454.151.351,3.569-4.74,6.308,0,6.308,0l10.043-4.263a13.039,13.039,0,0,1-11.951-3.859C802.71,851.777,799.98,849.491,799.98,849.491Z" transform="translate(10116.807 5875.831)"/><path class="aa" d="M771.664,677.782s1.133,50.673,1.562,51.363c2.68,4.309,4,13.047,31.03,6.709,3.115-.731,4.321-4.117,4.18-6.831l.44-52.135L795.93,682.44Z" transform="translate(10127.892 5948.32)"/><path class="z" d="M791.339,495.962s-9.78-4.551-7.289,10.224c1.733,10.278,7.4,20,16.85,20.581,9.987.615,13.331-2.692,12.726-7.855-.052-7.675-1.25-14.651-4.744-20.225-.729-6.225-4.587-3.292-11.987-2.411Z" transform="translate(10122.86 6024.787)"/><path class="z" d="M836.225,522.467h0a.925.925,0,0,1-.24.768,6.124,6.124,0,0,1-1.728,1.6,1.337,1.337,0,0,1-1.064.255,1.293,1.293,0,0,1-.72-.9c-.329-1.008-.483-2.88.633-3.492.458-.252-.938-3.512-.705-3.062A21.631,21.631,0,0,0,836.225,522.467Z" transform="translate(10102.454 6015.223)"/><g transform="translate(10892.697 6556.367)"><path class="ab" d="M774.512,567.145c-4.543,10.013-3.079,20.787.386,30.874,2.5,7.289-9.036,10.42-11.524,3.177-4.6-13.4-5.1-27.047.818-40.082,1.333-2.939,5.595-3.653,8.175-2.144,3.021,1.767,3.482,5.225,2.144,8.175Z" transform="translate(-759.839 -558.201)"/></g><g transform="translate(10897.899 6565.755)"><path class="x" d="M769.3,580.721c3.578,7.112,10.015,10.628,17.709,11.627,11.22,1.457,22.892-.193,34.119-.839,5.346-.308,5.381-8.666,0-8.356-10.4.6-21.044,1.943-31.466,1.125-6.256-.491-10.415-2.344-13.148-7.775-2.417-4.8-9.628-.579-7.215,4.217Z" transform="translate(-768.809 -574.386)"/></g><g transform="translate(10942.734 6557.476)"><path class="ac" d="M858.209,587.594l-9.982-5.485a1.624,1.624,0,0,1-.635-1.906l6.359-19.218a1.072,1.072,0,0,1,1.515-.754l9.909,5.308a1.624,1.624,0,0,1,.635,1.905l-6.329,19.127c-.16.483-.381.572-.824.747Z" transform="translate(-846.694 -560.112)"/><path class="ac" d="M856.78,569.264s-9.371,11.674-9.128,10.94l6.28-19.839.836-.2a.952.952,0,0,1,.758.072l9.908,5.308a1.373,1.373,0,0,1,.622.772Z" transform="translate(-846.754 -560.112)"/><path class="e" d="M856.684,587.755l-9.88-5.308a1.613,1.613,0,0,1-.606-1.906l6.359-19.218a1.059,1.059,0,0,1,1.5-.754l9.874,5.308a1.612,1.612,0,0,1,.6,1.905L858.171,587A1.047,1.047,0,0,1,856.684,587.755Z" transform="translate(-846.107 -560.254)"/><path class="ad" d="M877.34,575.478l-.363,1.1c-.026.077.021.112.1.079l-.015-.009a.313.313,0,0,0,.16-.2l.364-1.1c.025-.077.015-.112-.069-.079l0,.01A.339.339,0,0,0,877.34,575.478Z" transform="translate(-859.068 -566.472)"/><path class="ad" d="M876.244,578.791l-.364,1.1c-.025.077.021.112.105.079l-.015-.009a.314.314,0,0,0,.16-.2l.363-1.1c.025-.077.015-.112-.069-.079l0,.009A.341.341,0,0,0,876.244,578.791Z" transform="translate(-858.608 -567.864)"/><path class="ae" d="M859.016,586.034l-9.727-5.21,5.558-16.947,9.668,5.179L858.822,585.6C858.774,585.738,859.149,586.105,859.016,586.034Z" transform="translate(-847.443 -561.693)"/><path class="u" d="M868.343,567.242l-3.057-1.637a.3.3,0,0,1-.115-.346h0a.2.2,0,0,1,.275-.137l3.056,1.637a.3.3,0,0,1,.115.346h0A.2.2,0,0,1,868.343,567.242Z" transform="translate(-854.107 -562.207)"/></g><g transform="translate(10925.605 6572.958)"><path class="x" d="M816.591,590.819c.595,7.717,1.684,14.668,5.231,21.6,2.936,5.733,5.521,13.762,11.421,17.2,5,2.912,10.4.777,13.458-3.78,4.6-6.855,4.665-16.506,4.369-24.407-.2-5.36-8.558-5.387-8.357,0,.229,6.112.5,13.607-2.588,19.156a5.35,5.35,0,0,1-1.375,1.806c-.12.115.106-.224-.505.3.451-.386.13-.2-.261.026.458-.263.468-.119-.183-.068.843-.065.19.06-.2-.129.847.414-.138-.1-.305-.212-.51-.339.044.133-.592-.475-1.651-1.579-2.536-3.668-3.633-5.854-1.448-2.888-3.014-5.716-4.456-8.606-2.607-5.225-3.226-10.784-3.67-16.55-.41-5.327-8.77-5.371-8.356,0Z" transform="translate(-816.576 -586.807)"/></g><path class="x" d="M857.487,604.663l.431,3.858c.275,2.458,2.858,4.429,5.741,4.38h0c2.883-.048,5.016-2.1,4.742-4.556l-.431-3.858c-.274-2.457-2.858-4.429-5.741-4.38h0C859.346,600.155,857.213,602.206,857.487,604.663Z" transform="translate(10091.857 5980.567)"/><path class="x" d="M860.024,601.976h0a2.075,2.075,0,0,1-2.308-1.8l-.692-5.565a2.075,2.075,0,0,1,1.8-2.308h0a2.075,2.075,0,0,1,2.308,1.8l.691,5.565A2.074,2.074,0,0,1,860.024,601.976Z" transform="translate(10092.048 5983.85)"/><path class="x" d="M847.7,585.431h0a1.056,1.056,0,0,1-.583-1.369l1.491-3.7a1.055,1.055,0,0,1,1.369-.583h0a1.055,1.055,0,0,1,.583,1.369l-1.491,3.7A1.056,1.056,0,0,1,847.7,585.431Z" transform="translate(10096.235 5989.136)"/><path class="aa" d="M801.962,674.862c-8.6,16.324-15.975,8.454-26.047,1.021s-11.077-22.123-5.731-34.4c0,0,15.02-17.489,25.092-10.056S811.944,655.907,801.962,674.862Z" transform="translate(10129.855 5968.185)"/><path class="af" d="M798.869,563.1c-1.025-1.612-8.463-5.991-18.944-7.885a11.172,11.172,0,0,0-12.154,6.648c-.9,2.076-.466,7.238-.193,9.7h0v0c.092.821.165,1.34.165,1.341l.009.043c.828,6.575,4.357,34.458,5,37.089,0,0,3.606,10.261,29.191.562l3.951-17.706,2.8-1.987c.98-.6,2.387-9.053,2.387-9.053C810.553,571.79,805.244,573.134,798.869,563.1Z" transform="translate(10129.752 5999.491)"/><path class="q" d="M771.9,648.126h0a2.116,2.116,0,0,0,.783,2.057c2.258,1.759,8.3,5.505,17.791,4.477,8.126-.88,12.882-2.663,15.172-3.77a2.125,2.125,0,0,0,1.081-2.645l-.231-.63a2.113,2.113,0,0,0-2.8-1.227c-4.3,1.807-14.525,5.52-21.705,3.368a24.252,24.252,0,0,1-6.809-2.994A2.113,2.113,0,0,0,771.9,648.126Z" transform="translate(10127.806 5961.199)"/><path class="z" d="M793.466,550.51l3.485-15.528,9.471,6.374-2.717,12.115C803.428,555.767,792.782,555.786,793.466,550.51Z" transform="translate(10118.748 6007.917)"/><path class="ag" d="M783.446,523.417s-11.338-2.945-11.863-18.424c-.568-16.749,10.491-16.127,18.912-17.807,3.729-.744,10.909,1.12,13.25,4.374,2.757,3.835,2.891,6.508-2.091,7.473-1.976.383-.517,5.662-.732,7.546-.383,3.35-6.663,3.886-7.095,7.139-.409,3.079.039,9.516-2.808,10.143C785.946,524.976,783.446,523.417,783.446,523.417Z" transform="translate(10127.934 6028.059)"/><path class="z" d="M812.985,524.851c.493,2.608-.621,5.009-2.49,5.362a2.532,2.532,0,0,1-.613.039c-1.658-.1-3.224-1.8-3.663-4.122-.494-2.609.621-5.009,2.49-5.362S812.492,522.243,812.985,524.851Z" transform="translate(10113.427 6013.905)"/><g transform="translate(10908.701 6553.882)"><path class="q" d="M790.371,554.976a7.425,7.425,0,0,0,5.615,5.45c3.009.593,6.572-.284,9.583-.59,1.911-.194,1.9,2.8,0,2.988-3.862.392-8.293,1.495-12.016-.049a10.478,10.478,0,0,1-6.062-7.005,1.5,1.5,0,0,1,2.881-.794Z" transform="translate(-787.431 -553.918)"/></g><g transform="translate(10922.643 6524.302)"><path class="ag" d="M814.15,503.714a42.55,42.55,0,0,1,3.546,12.692,14.151,14.151,0,0,1-.414,4.957c-.335,1.31-1.139,2.869-1.059,4.257.106,1.85,2.194,3.788,3.154,5.409.938,1.586-1.622,2.859-2.555,1.284-1.211-2.046-3.087-3.318-3.388-5.785-.295-2.408.885-4.572,1.306-6.884.864-4.735-1.311-10.353-3.144-14.646-.72-1.686,1.831-2.977,2.554-1.284Z" transform="translate(-811.469 -502.92)"/></g><g transform="translate(10923.792 6565.409)"><path class="ab" d="M825.431,579.765a85.6,85.6,0,0,0,4.421,19.815,57.719,57.719,0,0,0,2.372,5.289c1.155,2.369,2.332,4.726,3.423,7.127,1.333,2.936.841,6.429-2.144,8.175-2.564,1.5-6.835.809-8.175-2.144-2.317-5.1-5.013-10.02-7-15.27-2.785-7.36-3.888-15.223-4.848-22.991-.4-3.209,3.03-5.975,5.975-5.975,3.559,0,5.578,2.757,5.975,5.975Z" transform="translate(-813.449 -573.79)"/></g><path class="y" d="M779.56,500.745a5.5,5.5,0,1,1-6.419-4.09A5.385,5.385,0,0,1,779.56,500.745Z" transform="translate(10129.143 6024.06)"/><path class="ag" d="M761.964,499.857A5.154,5.154,0,0,1,768.6,502.6a31.3,31.3,0,0,1,1.293,20.822c-3.751,14.165,10.826,29.885,6.795,38.964a67.6,67.6,0,0,0-8.2-12.027c-5.836-7.111-9.878-20.549-10.87-30.088a50.609,50.609,0,0,1,2.019-18.59A4.57,4.57,0,0,1,761.964,499.857Z" transform="translate(10133.873 6022.828)"/><path class="aa" d="M772.11,697.513s4.721,5.7,6.577,6.932c0,0-6.434-1.128-6.47-2.578Z" transform="translate(10127.705 5939.658)"/></g></svg>