<svg xmlns="http://www.w3.org/2000/svg" xmlns:xlink="http://www.w3.org/1999/xlink" width="1566.179" height="1120.828" viewBox="0 0 1566.179 1120.828"><defs><style>.a{fill:url(#a);}.b{fill:url(#b);}</style><linearGradient id="a" x1="1.12" x2="0.337" y2="0.941" gradientUnits="objectBoundingBox"><stop offset="0" stop-color="#008df7"/><stop offset="1" stop-color="#bee2ff"/></linearGradient><linearGradient id="b" x1="0.497" y1="0.683" x2="0.51" y2="1.083" gradientUnits="objectBoundingBox"><stop offset="0" stop-color="#006cb4"/><stop offset="1" stop-color="#e634a7"/></linearGradient></defs><g transform="translate(65.632 -150.893)"><path class="a" d="M1442.776.042c-236.809,15.784-267.583,121.945-625.151,208.63-295.3,71.589-527.817,39.7-756.98,46.44-148.083,4.357,21.6,326.54,21.6,326.54H1472.768S1528.584-5.678,1442.776.042Z" transform="matrix(0.998, 0.07, -0.07, 0.998, 13.567, 150.893)"/><path class="b" d="M97.815,57.8c1420.042,1.843,944.132,6.719,1105.175-55.21C1207,1.051,1276.824.322,1401.7,0c184.663-.476,64.755,529.949,32.354,537.392-41.715,9.584-93.976,15.4-190.889,13.584-253.8,17.449-208.926,114.994-591.076,94.615-191.847-2.5-341.948,59.873-517.444,90.357C18.427,756.137-81.1,57.569,97.815,57.8Z" transform="matrix(-0.999, -0.052, 0.052, -0.999, 1434.579, 1271.72)"/></g></svg>