<svg xmlns="http://www.w3.org/2000/svg" xmlns:xlink="http://www.w3.org/1999/xlink" width="315.872" height="248.28" viewBox="0 0 315.872 248.28"><defs><style>.a,.ae,.z{fill:none;}.b{fill:#9f88c1;}.c{fill:#8870aa;}.c,.n{opacity:0.5;}.d{fill:#7b659a;}.e,.f,.n{fill:#ffcfcd;}.f,.n,.q{mix-blend-mode:multiply;isolation:isolate;}.g{fill:#e634a7;}.h{fill:#4432db;}.i{fill:#3a2bb2;}.j{fill:#e09634;}.k{fill:#ffae43;}.l{fill:#373c52;}.m{fill:#636a87;}.o{fill:#004687;}.p{clip-path:url(#a);}.q{opacity:0.39;}.r{clip-path:url(#c);}.s{fill:#a7bcf5;}.t{fill:#95c1f5;}.u{fill:#cfe4fa;}.v{fill:#b0cff5;}.w{fill:#b4d3fa;}.x{fill:#4c89d4;}.y{fill:#69a5ed;}.z{stroke:#fff;stroke-width:0.9px;}.ae,.z{stroke-linecap:round;stroke-linejoin:round;}.aa{fill:#1d50cf;}.ab{fill:#478bde;}.ac{fill:#86baf7;}.ad{fill:#97cbff;}.ae{stroke:#69a5ed;stroke-width:1.013px;}</style><clipPath id="a"><rect class="a" width="80.053" height="154.331"/></clipPath><clipPath id="c"><rect class="a" width="50.027" height="21.594"/></clipPath></defs><g transform="translate(-91 -290.314)"><g transform="translate(91 290.314)"><path class="b" d="M1814.884,1375.536c-34.869,23.589-72.015,23.752-78.631,23.752-19.251-.163-51.951-.434-77.547-24.186-30.259-28.09-29.283-69.25-28.85-86.332.868-37.472,17.191-74.456,42.678-93.544,14.262-10.683,25.651-11.442,28.469-11.55h.869c4.447-.055,16.268.7,32.32,12.255,28.47,20.336,22.234,39.858,48.806,62.363,15.781,13.341,22.4,10.2,32.592,18a.053.053,0,0,1,.054.054,50.272,50.272,0,0,1,6.019,5.64C1844.114,1306.232,1856.8,1347.229,1814.884,1375.536Z" transform="translate(-1629.729 -1152.545)"/><path class="c" d="M1696.827,1215.991c6.786-8.808,20.183-18.3,33.992-16.882,26.9,2.756,22.911,43.549,61.558,61.647,1.854.869,27.281,12.978,32.564,22.681a36.516,36.516,0,0,1,4.281,17.729c-.179,24.1-24.71,40.41-28.005,42.6-25.273,16.8-78.28,16.821-98.628-9.829-2.068-2.708-8.986-11.769-8.812-23.725.1-7.018,2.525-9.093,4.067-15.59,4.354-18.339-9.6-24.788-9.829-48.467C1687.979,1242.529,1687.49,1228.11,1696.827,1215.991Z" transform="translate(-1639.108 -1155.007)"/><path class="d" d="M1730.008,1324.756c8.261,7.823,32.369,15.578,58.3,7.118,41.818-13.646-102.776-143.826-70.5-57.279,5.384,14.437,7.389,12.251,8.134,18.3,1.168,9.5-3.973,13.281-1.434,22.236A21.957,21.957,0,0,0,1730.008,1324.756Z" transform="translate(-1643.142 -1162.434)"/><path class="d" d="M1688.376,1201.483s-31.521,17.154-41.689,60.2,7.118,103.24,47.451,127.569c0,0-45.756-25.889-52.873-73.3S1651.772,1223.628,1688.376,1201.483Z" transform="translate(-1631.335 -1155.411)"/><path class="d" d="M1656.1,1311.792a50.392,50.392,0,0,1,21.692-6.1,51.552,51.552,0,0,1,30.842,8.812,119.891,119.891,0,0,0-52.534-2.711Z" transform="translate(-1633.973 -1172.176)"/><path class="d" d="M1698.808,1388.025a46.622,46.622,0,0,1,7.949-19.264,47.69,47.69,0,0,1,24.023-17.406,110.921,110.921,0,0,0-31.972,36.671Z" transform="translate(-1640.847 -1179.534)"/><path class="d" d="M1789.084,1362.607a32.2,32.2,0,0,1,10.724,9.6,32.94,32.94,0,0,1,5.82,19.651,76.625,76.625,0,0,0-16.544-29.255Z" transform="translate(-1655.378 -1181.345)"/><path class="e" d="M1764.608,1199.522c6.782,10.748,9.053,31.279,19.873,43.36,5.93,6.622,24,4.378,24,4.378-11.6,10.724-28.25,9.385-31.941,5.837C1772.637,1249.347,1761.8,1230.684,1764.608,1199.522Z" transform="translate(-1651.365 -1155.095)"/><path class="f" d="M1764.608,1199.522c6.782,10.748,9.053,31.279,19.873,43.36,5.93,6.622,24,4.378,24,4.378-11.6,10.724-28.25,9.385-31.941,5.837C1772.637,1249.347,1761.8,1230.684,1764.608,1199.522Z" transform="translate(-1651.365 -1155.095)"/><path class="g" d="M1828.479,1407.511c-1.04,5.367,0,8.226,1.054,9.809.158.236.625.854,1.552,2.08,1.769,2.339,3.356,4.4,3.859,5.044,5.62,7.19,8.429,10.785,12.4,11.737,3.281.787,7.656.14,9.022-2.324.476-.858.66-2.072-.325-5.107-2.426-7.477-7.57-12.523-12.241-17.105a54.552,54.552,0,0,0-4.135-3.648,15.923,15.923,0,0,0-3.243-2.351C1835.629,1405.329,1833,1404.528,1828.479,1407.511Z" transform="translate(-1661.649 -1188.219)"/><path class="e" d="M1825.182,1386.269l3.085,19.537a4.3,4.3,0,0,0,.489,1.423,4.254,4.254,0,0,0,.769,1c.534.521,5.842,6.991,7.816,9.155,2.66,2.918,5.191,5.692,8.512,5.554,1.531-.064,3.661-.766,4.353-2.342.911-2.078-.966-4.828-3.923-8.31a104.21,104.21,0,0,0-7.593-7.855l.11-24.419Z" transform="translate(-1661.188 -1184.147)"/><path class="g" d="M1866.753,1402.643s-3.543,7.973-1.329,12.623,5.315,3.1,15.5,2.879,18.381,1.993,21.26,0,0-5.979-3.322-7.087-14.616-2.436-21.924-6.644S1866.753,1402.643,1866.753,1402.643Z" transform="translate(-1667.548 -1187.678)"/><path class="e" d="M1860.022,1392.505c.885-.221,5.093,9.523,5.093,11.959s26.8,7.308,27.9,4.872-10.63-1.329-16.831-7.972-11.073-18.381-11.073-18.381Z" transform="translate(-1666.797 -1184.625)"/><path class="h" d="M1784.286,1273.393a39.013,39.013,0,0,0-6.538,3.931,38.1,38.1,0,0,0-6.109,5.8,37.274,37.274,0,0,0-4.709,7.121l-5.837.467c-9.3,1.946-18.561,3.852-27.861,5.8a84.618,84.618,0,0,0-5.837-27.979,96.281,96.281,0,0,0-5.37-11.051c-3.774-6.926-9.807-15.721-13.542-29.535a80.847,80.847,0,0,1-1.868-8.483,80.49,80.49,0,0,1,24.088-17.433c6.46-2.8,17.978-7.86,24.632-2.919,2.49,1.868,1.985,3.347,5.487,11.207a68.966,68.966,0,0,0,4.125,7.705c2.529,4.28,3.151,4.513,4.2,6.576,1.984,3.814,2.061,7.238,2.179,12.88.195,8.639-1.557,11.207.467,16.538.428,1.128,1.285,2.257,2.646,4.747,2.452,4.553,4.786,5.643,7.354,9.807A36.853,36.853,0,0,1,1784.286,1273.393Z" transform="translate(-1642.103 -1154.694)"/><path class="i" d="M1750.563,1203.032s5.873,7.074,3.2,12.182-14.7,5.419-23.348-4.865,3.892-17.024,11.188-15.322A12.075,12.075,0,0,1,1750.563,1203.032Z" transform="translate(-1645.463 -1154.33)"/><path class="i" d="M1772,1287.706a44.805,44.805,0,0,0-2.734,3.692,37.939,37.939,0,0,0-1.975,3.429l-5.837.467c-9.3,1.946-18.561,3.852-27.861,5.8a84.628,84.628,0,0,0-5.838-27.979,96.258,96.258,0,0,0-5.37-11.051c-3.775-6.926-9.807-15.721-13.542-29.535.616-4.194,3.965-7.1,7.384-7.014,3.564.086,5.67,3.377,5.838,3.648,1.3,4.362,2.627,7.913,3.648,10.458,2.649,6.605,4.034,9.967,7.052,12.89,1.7,1.651,4.16,4.1,7.783,4.864,8.033,1.7,14.567-6.312,16.294-4.864,2.653,2.224-15.187,21.184-10.526,29.36,2.515,4.411,10.88,4.5,18.263,3.694a50.343,50.343,0,0,1,16.947-7.23A92.472,92.472,0,0,0,1772,1287.706Z" transform="translate(-1642.462 -1159.279)"/><path class="j" d="M1738.335,1313.188c10.024,32.079,31.616,26.671,67.257,27.472a56.053,56.053,0,0,1,7.8,4.707,56.814,56.814,0,0,1,18.727,23.1,53.956,53.956,0,0,1,3.891,14.348,15.816,15.816,0,0,0,18.484-1.945,313.659,313.659,0,0,0-14.836-46.209c-2.75-6.726-5.622-13.078-8.547-19.055a12.724,12.724,0,0,0-9.009-5.481,131.96,131.96,0,0,0-49.975-9.35q-3.821.053-7.458.324a47.481,47.481,0,0,0-19.932,7.129Z" transform="translate(-1647.209 -1171.392)"/><path class="k" d="M1778.609,1298.515c2.416-4.082,10.331-9.864,18.89-11.471,6.606-1.461,23.366,2.19,27.79,3.27,0,0,.365.219.7.457,8.669,6.1,7.42,39.685,7.42,39.686a230.424,230.424,0,0,0,4.054,43.615,24.157,24.157,0,0,1-24.444-.152,175.455,175.455,0,0,0-.364-22.709c-1.169-14.388-2.647-10.375-5.351-30C1804.626,1301.757,1804.309,1307.853,1778.609,1298.515Z" transform="translate(-1653.693 -1169.128)"/><path class="e" d="M1717.006,1222.987c-4.507-3.882-11.637-1.8-13.654,3.8a56.862,56.862,0,0,0-3.217,17.83c-.316,13.578,5.368,35.05,5.368,35.05s1.263,8.841,5.684,11.051,10.42-.947,10.42-.947l34.1-12,3.789-1.579,9.473-14.841,9.158-6.631-1.151-.609a8.5,8.5,0,0,0-8.32.2h0c-3.914,2.324-6.936,4.439-8.915,8.539l-1.386,2.871-36.434,8.888s-1.895-19.893-.948-23.05,2.21-23.051-3.789-28.418C1717.126,1223.092,1717.065,1223.039,1717.006,1222.987Z" transform="translate(-1641.059 -1158.553)"/><path class="l" d="M1819.315,1251.576c-.184-.286-.642-.447-1.32-.4l-25.552,1.593a5.268,5.268,0,0,0-3.454,1.675l-21.443,27.6c-.319.421-.353.787-.149,1.039l0,0,.334.417a1.577,1.577,0,0,0,1.287.352c27.4-1.708,25.732-1.585,26.2-1.685a6.212,6.212,0,0,0,1.319-.46,4.287,4.287,0,0,0,1.487-1.123l21.443-27.6c.318-.42.353-.785.152-1.036l-.334-.417A.5.5,0,0,1,1819.315,1251.576Z" transform="translate(-1651.866 -1163.408)"/><path class="m" d="M1818.381,1251.672c1.268-.079,1.775.544,1.135,1.389l-21.443,27.6a5.271,5.271,0,0,1-3.454,1.675l-25.552,1.593c-1.268.08-1.775-.543-1.135-1.388l21.443-27.6a5.275,5.275,0,0,1,3.454-1.674Z" transform="translate(-1651.929 -1163.488)"/><path class="l" d="M1805.26,1260.015a4.2,4.2,0,0,1,3.288-1.9c1.173,0,1.662.862,1.057,1.91a4.176,4.176,0,0,1-3.241,1.871C1805.16,1261.894,1804.671,1261.036,1805.26,1260.015Z" transform="translate(-1657.942 -1164.526)"/><path class="e" d="M1821.929,1259.881c-1.171-.06-3.473,0-4.927,1.484-.242.246-.809.823-.652,1.275.174.5,1.2.72,2.609.549a6.985,6.985,0,0,1-2.746,1.557c-.852.242-1.421.205-1.923.732-.574.6-.743,1.613-.4,1.93a2.056,2.056,0,0,0,1.07.254c.232.014.335,0,.352.044.056.147-.83.659-1.615,1.023-1.312.61-1.838.573-2.106,1.1a1.209,1.209,0,0,0,.045,1.19c.553.768,2.273.308,2.785.17a7.9,7.9,0,0,0,3.295-1.9c2.977-2.7,5.366-4.858,5.96-8.475a10.38,10.38,0,0,0,.047-3.021Z" transform="translate(-1658.979 -1164.475)"/><path class="e" d="M1749.907,1205.007c-.038,7.394-13.191,8.794-18.989.039a7.569,7.569,0,0,1-1.245-2.685c.038-.35.117-.7.194-1.09a25.65,25.65,0,0,1,2.763-6.965,27.6,27.6,0,0,0,3.425-10.78c.311-2.413.505-4.008,1.828-4.4,2.257-.7,6.927,4.67,9.261,9.962.294.665.5,1.21.623,1.556a35.518,35.518,0,0,1,2.017,9.889c.038.584.085,1.487.085,2.6a.8.8,0,0,1,.029.2.977.977,0,0,1-.029.229C1749.907,1204.034,1749.907,1204.5,1749.907,1205.007Z" transform="translate(-1645.816 -1151.804)"/><path class="n" d="M1749.9,1205.012c-.039,7.393-13.191,8.795-18.989.039a7.577,7.577,0,0,1-1.245-2.685c.039-.35.116-.7.195-1.089a25.652,25.652,0,0,1,2.762-6.965,27.587,27.587,0,0,0,3.425-10.779l1.829-4.4c2.256-.7,6.926,4.669,9.261,9.962.233.506.427,1.05.622,1.556a29.071,29.071,0,0,1,2.023,9.884c.039.817.078,1.673.078,2.568v.038a.8.8,0,0,1,0,.428C1749.9,1204.04,1749.9,1204.507,1749.9,1205.012Z" transform="translate(-1645.814 -1151.804)"/><path class="e" d="M1758.5,1188.479a31.686,31.686,0,0,1-2.49,5.059c-1.479,2.529-3.541,3.113-6.421,3.269a15.8,15.8,0,0,1-1.906,0,14.461,14.461,0,0,1-3.542-.429,20.366,20.366,0,0,1-7.938-4.163c-.583-.428-1.167-.856-1.79-1.323a24.927,24.927,0,0,1-7.549-7.978c-3.464-6.226-5.409-14.9-5.409-14.9l15.721-11.869c5.836,1.246,11.635,2.491,17.433,3.775a11.461,11.461,0,0,1,3.618,3.658c.779,1.245,1.479,3.035,1.868,10.778C1760.33,1178.44,1760.914,1182.487,1758.5,1188.479Z" transform="translate(-1644.492 -1148.114)"/><path class="n" d="M1736.251,1192.265c.609.467,1.217.905,1.8,1.345a20.047,20.047,0,0,0,7.939,4.139c-4.2-1.8-5.41-4.431-5.751-5.314-.7-1.811-.446-3.828.091-7.786.369-2.729.843-4.96,1.207-6.489a16.366,16.366,0,0,0,16.022-11.949c-1.013-.425-9.273-3.662-16.5.841C1732.861,1172.155,1730.006,1184.668,1736.251,1192.265Z" transform="translate(-1646.329 -1149.489)"/><path class="o" d="M1761.232,1196.347c-3.469-6.228,1.836-5.87,1.24-21.626v-.039c-.351-8.172-2.374-16.655-8.172-22.219-.506-.467-1.012-.934-1.556-1.363a19.315,19.315,0,0,0-3.386-2.179.038.038,0,0,1-.038-.038,20.651,20.651,0,0,0-10.235-2.293,18.861,18.861,0,0,0-3.463.464h-.038a17.362,17.362,0,0,0-4.048,1.44,8.8,8.8,0,0,0-.817.467c-.389.234-.778.466-1.167.739a16.86,16.86,0,0,0-1.682,1.34,22.824,22.824,0,0,0-4.467,5.392c-7.432,12.1-.038,22.647-3.151,35.878a26.162,26.162,0,0,1-1.323,4.2c-.467,1.167-1.362,3.151-.467,4.864,1.946,3.891,18.756,11.051,17.511-17.433a24.938,24.938,0,0,1,.039-4.164c.7-6.342,3.891-11.4,4.358-11.246.194.078.117,1.09-1.09,5.137a18.358,18.358,0,0,0,15.565-9.534,13.944,13.944,0,0,1,4.047,8.6,37.274,37.274,0,0,1-1.918,16.465c-.432.894-.925,1.821-1.506,2.8-1.479,2.529-3.541,3.113-6.421,3.269-.389.039-.778.039-1.128.039.039.817.078,1.673.078,2.568v.039a14.191,14.191,0,0,0,2.53,3.93c2.84,3.074,7.238,5.1,11.519,4.4,1.284-.194,3.7-.584,4.241-2.1C1767.008,1202.12,1763.672,1199.942,1761.232,1196.347Z" transform="translate(-1643.951 -1146.573)"/><path class="o" d="M1754.66,1152.463a26.036,26.036,0,0,0-13.853-1.479c-1.712.273-7.355,1.479-11.168,5.837-7.2,8.133.351,18.133-6.771,31.754-.583,1.05-1.362,2.412-2.256,3.735,3.113-13.231-4.281-23.776,3.151-35.878a23.049,23.049,0,0,1,6.149-6.732c.389-.273.778-.506,1.167-.739.273-.156.545-.273.817-.429a20.329,20.329,0,0,1,4.048-1.479h.038a20.273,20.273,0,0,1,13.7,1.829.038.038,0,0,0,.038.039,26.357,26.357,0,0,1,3.385,2.179C1753.649,1151.529,1754.154,1152,1754.66,1152.463Z" transform="translate(-1644.31 -1146.573)"/></g><g transform="translate(326.819 357.511)"><g class="p"><g class="p"><g class="q" transform="translate(15.638 131.58)"><g class="r"><path class="s" d="M31.175,273.123c0,5.963,11.2,10.8,25.014,10.8s25.013-4.834,25.013-10.8-11.2-10.8-25.013-10.8-25.014,4.834-25.014,10.8" transform="translate(-31.175 -262.325)"/></g></g><path class="t" d="M66.47,290.449c-6.616,2.945-17.377,2.93-24.035-.033s-6.692-7.753-.075-10.7,17.377-2.929,24.035.034,6.69,7.753.075,10.7" transform="translate(-18.65 -138.317)"/><path class="u" d="M64.183,284.3c-8.044,3.58-21.127,3.562-29.221-.041s-8.135-9.425-.091-13.006,21.127-3.562,29.22.041,8.136,9.425.092,13.006" transform="translate(-14.386 -133.863)"/><path class="u" d="M9.611,226.3l9.723,31.049,41.109.521,10.023-30.744Z" transform="translate(-4.79 -112.79)"/><path class="v" d="M83.433,236.5l-9.385,22.061h-.006c-1.66,3.021-2.478,4.129-5.851,5.63a36.249,36.249,0,0,1-9.109,2.181c6.943.9,13.712.293,19.266-1.958,2.64-1.069,4.773-1.635,6.573-5.2l.75-1.82,9.452-29.45Z" transform="translate(-29.447 -113.61)"/><path class="w" d="M62.311,219.25c-11.6,4.785-31.167,4.867-43.7.183s-13.287-12.36-1.685-17.145,31.167-4.868,43.7-.184,13.286,12.36,1.685,17.145" transform="translate(-4.334 -99.006)"/><path class="x" d="M63.185,221.559c-9.959,4.107-26.752,4.178-37.51.157S14.27,211.107,24.229,207s26.752-4.178,37.51-.158,11.4,10.61,1.446,14.717" transform="translate(-8.555 -101.612)"/><path class="y" d="M63.122,225.488c-9.959,4.107-26.752,4.178-37.51.157-7.761-2.9-10.408-7.2-7.31-10.816,4.3-5.023,46.825-2.575,48.085-1.742,5.949,3.932,4.954,9.011-3.264,12.4" transform="translate(-8.491 -105.54)"/><path class="x" d="M70.37,220.047c0,1.133-1.8,2.052-4.01,2.052s-4.01-.919-4.01-2.052,1.8-2.052,4.01-2.052,4.01.918,4.01,2.052" transform="translate(-31.076 -108.65)"/><path class="z" d="M15.943,235.751s9.684,7.789,28.264,7.455,26.023-6.912,26.023-6.912" transform="translate(-7.946 -117.5)"/><path class="aa" d="M69.016,150.095a1.35,1.35,0,0,0,1.337-1.361V77.39a1.337,1.337,0,1,0-2.674,0v71.343a1.35,1.35,0,0,0,1.337,1.361" transform="translate(-33.731 -37.893)"/><path class="aa" d="M70.105,141.674a1.317,1.317,0,0,0,.826-.291L88.337,127.46a1.377,1.377,0,0,0,.225-1.911,1.322,1.322,0,0,0-1.877-.229L69.278,139.244a1.377,1.377,0,0,0-.225,1.911,1.326,1.326,0,0,0,1.052.52" transform="translate(-34.274 -62.316)"/><path class="aa" d="M53.6,119.672a1.32,1.32,0,0,0,.845-.307,1.377,1.377,0,0,0,.19-1.915l-15.1-18.835a1.321,1.321,0,0,0-1.881-.194,1.377,1.377,0,0,0-.191,1.915l15.1,18.835a1.325,1.325,0,0,0,1.037.5" transform="translate(-18.519 -48.901)"/><path class="y" d="M49.745,44.656s10.078,10.361,20.522,6.573-1.355-2.513-4.185-5.427-.035-4.614,2.163-4.438S83.01,41.827,82.6,37s-8.166,2.056-9.26-1.972-1.26-.409,7-3.575c6.78-2.6,8.292-10.574,6.848-11.724-2.557-2.036-7,3.917-8.722,2.458s7.388-6.553,5.9-12.674A35.478,35.478,0,0,0,80.761,0s-1.893,1.952-7.2,4.489S63.942,8.71,64.639,14.665s-4.278,2.4-2.56-4.178S60.29,3.028,58.185,8.248c-1.938,4.8-3.834,10.927-4.717,12.69s-.68,1.867-.466-2.956-3.334-6.777-5.377-5.182S46.48,28.713,51.1,31s-.464,9.324-4.42.774-5.04-9.844-6.386-4.064,4.758,13.233,9.45,16.95" transform="translate(-19.989)"/><path class="ab" d="M66.859,77.8c5.906-2.223,18.618-5.5,22.1.1.088.141-8.347,3.363-9.69,3.256-2.2-.176-1.686.889,1.144,3.8s8.3-3.739-2.146.049c-7.138,2.589-13.587-.2-17.282-3a19.1,19.1,0,0,1,5.87-4.208" transform="translate(-30.397 -37.284)"/><path class="ac" d="M6.506,107.328c5.632-2.435,5.414-.249,4.221-3.643-.516-1.469-1.921-1.161-3.5-.476-6.955,4.55-7.054-4.479.913-6.417,3.15-.969,6.4-.4,7.431-.507,2.262-.245,5.021-2.506,1.95-4.914-1.4-1.1-4.649-.955-6.787-1.027a1.1,1.1,0,0,1-.577-2.006c.656-.445,1.558-.991,2.755-1.659,10.468-5.849,21.4,2.709,21.4,2.709,5.025,2.863,11.72,9.239,10.686,15.355s-2.221,5.013-6.781-2.889-9.348.212-4.479,1.635,6.643,15.759,4.646,17.767-5.745.711-5.814-4.216-4.242-6.148-5.041-4.192,3.053,8.669,3.426,14.365-8.6,6.169-7.231-.831-6.035-14.222-4.966-8.322.355,11.957-4.923,15.548a62.209,62.209,0,0,0-8.613,7,27.966,27.966,0,0,1-3.378-6.474c-3.787-13-1.5-21.372,4.663-26.8" transform="translate(0 -42.182)"/><path class="ad" d="M79.345,85.637c-1.541,3.1,1.568,3.3,3.378,2.917s9.353.386,11.236,3.988c2.248,4.3-8.99,3.493-8.256,5.9.863,2.828,1.651,3.884,7.4,2.678,7.493-1.571,13.108,5.162,11.185,7.016s-10.232.673-11.266,2.258,4.528,2.155,6.5,7.945c2.239,6.573-.359,13.129-.591,13.965-.864.087-7.839,1.6-13.937-1.726-5.372-2.926-6.523-9.51-8.259-8.76s-.451,10.145-2.605,11.725-7.836-5.1-5.015-12.214c2.166-5.464,1.763-8.131-.877-9.461-2.244-1.132-3.163,8.3-7.645,6.44s-.984-11.159-.3-12.878.533-4.093-2.788-3.1-3.29,12.9-7.453,3.466c-1.8-4.074.115-11.394,5.57-18.15A16.99,16.99,0,0,1,62.86,82.41c5.906-2.223,16.736-5.848,19.972-3.061,5.241,4.513-1.946,3.183-3.487,6.287" transform="translate(-24.621 -39.045)"/><path class="ae" d="M108.608,137.936S89.346,100.807,70.2,89.445" transform="translate(-34.987 -44.58)"/></g></g></g></g></svg>