<svg xmlns="http://www.w3.org/2000/svg" xmlns:xlink="http://www.w3.org/1999/xlink" width="1638.888" height="1071.613" viewBox="0 0 1638.888 1071.613"><defs><style>.a{fill:url(#a);}</style><radialGradient id="a" cx="0.683" cy="0.25" r="0.433" gradientTransform="matrix(0.695, 0.719, 0.699, -0.676, 0.033, -0.071)" gradientUnits="objectBoundingBox"><stop offset="0" stop-color="#9ee1e5"/><stop offset="0.33" stop-color="#78c8dd"/><stop offset="0.606" stop-color="#67bcda"/><stop offset="1" stop-color="#0076c4"/></radialGradient></defs><path class="a" d="M439.59,2.568c98.429,18.792-56.238,229.833,43.429,310.374,46.046,37.21,202.424-56.976,265.035,21.433,43.092,66.1,139.88,24.94,186.531,58.071,54.127,49.475,49.541,51.3,189.988,132.524,195.037,141,390.529-43.136,307.115,81.392s161.479,75.607,49.171,139.879-214.567,14.517-424.495-108.492-232.152-68.779-463.137-50.73S126.751,288.878,58.323,178.427-38.8,25.68,88.386,50.411,341.161-16.226,439.59,2.568Z" transform="matrix(0.978, -0.208, 0.208, 0.978, 0, 314.133)"/></svg>