<?xml version="1.0" encoding="utf-8"?>
<!-- Generator: Adobe Illustrator 21.0.2, SVG Export Plug-In . SVG Version: 6.00 Build 0)  -->
<svg version="1.1" id="_x2014_ÎÓÈ_x5F_1" xmlns="http://www.w3.org/2000/svg" xmlns:xlink="http://www.w3.org/1999/xlink"
	 x="0px" y="0px" viewBox="0 0 362 182" style="enable-background:new 0 0 362 182;" xml:space="preserve">
<style type="text/css">
	.st0{fill-rule:evenodd;clip-rule:evenodd;fill:#1E3B6E;}
	.st1{fill-rule:evenodd;clip-rule:evenodd;fill:#C9C9C9;}
	.st2{fill-rule:evenodd;clip-rule:evenodd;fill:#EEFFFF;}
	.st3{fill-rule:evenodd;clip-rule:evenodd;fill:#80CBED;}
	.st4{fill:#1E3B6E;}
	.st5{fill-rule:evenodd;clip-rule:evenodd;fill:#295189;}
</style>
<g>
	<ellipse class="st0" cx="178.7" cy="110.7" rx="152.3" ry="38.3"/>
	<ellipse class="st1" cx="170.5" cy="90" rx="103.2" ry="14.8"/>
	<path class="st0" d="M95.1,31.4c0.6,0.3,1.2,0.2,1.7-0.2c2.7,1.1,8.8,4.6,9.3,13.1c0.6-0.1,1.2-0.3,1.8-0.4
		c-1-8.7-7.9-12.5-10.7-13.7c0-0.5-0.3-1-0.8-1.3c-0.7-0.4-1.6-0.1-2,0.6C94.2,30.2,94.4,31.1,95.1,31.4z"/>
	<path class="st2" d="M143.4,69.8c0,16.9-13.7,26.9-30.5,26.9c-16.9,0-30.5-10-30.5-26.9c0-16.9,13.7-30.5,30.5-30.5
		C129.7,39.3,143.4,53,143.4,69.8z"/>
	<path class="st3" d="M131.9,111.9l-9.5-27.5l8.2-0.3l3.7-9.8L119.4,60l-3.9-13.9H114l-3,8.6h-8.9l-3.2-7.7l-1.7,0L86,106.8
		C86,106.8,106.4,113.5,131.9,111.9z"/>
	<g>
		<polygon class="st0" points="116.4,49.2 115.5,46.1 114,46.1 111,54.8 114.4,54.8 		"/>
		<path class="st0" d="M89.4,106.8l10.7-56.9l-1.2-2.8l-1.7,0L86,106.8c0,0,17,5.6,39.4,5.3C104.7,111.9,89.4,106.8,89.4,106.8z"/>
	</g>
	<path class="st0" d="M165.5,10c0.7,0.4,1.5,0.2,2-0.3c3.2,1.3,10.6,5.5,11.3,15.8c0.7-0.2,1.5-0.3,2.2-0.4
		c-1.2-10.5-9.5-15.1-12.9-16.6c0-0.6-0.3-1.3-0.9-1.6c-0.9-0.5-1.9-0.1-2.4,0.7C164.3,8.5,164.7,9.5,165.5,10z"/>
	<path class="st4" d="M236.5,69.1c1.9,0.1,3.3,0.6,4.7,1.1c1.4,0.6,2.6,1.3,3.7,2.1c2.3,1.6,4.3,3.7,5.7,6.3
		c1.4,2.5,2.2,5.5,2.1,8.5c-0.1,1.5-0.3,2.9-0.7,4.2c-0.2,0.7-0.5,1.3-0.7,2c-0.3,0.7-0.7,1.4-1.1,2c-0.9,1.3-2.1,2.5-3.5,3.3
		c-1.4,0.8-2.9,1.3-4.4,1.5c-3,0.4-5.8-0.1-8.4-1.1c-2.5-1-4.9-2.6-6.7-4.8c-0.9-1.1-1.7-2.3-2.3-3.7c-0.5-1.4-0.8-2.9-0.8-4.4
		c0-1.4,1.2-2.5,2.6-2.5c1.4,0,2.4,1.1,2.5,2.5l0,0c0,1.6,0.8,3.2,2,4.5c1.2,1.3,2.9,2.4,4.7,3c1.8,0.6,3.7,0.9,5.4,0.5
		c1.6-0.3,2.8-1.1,3.6-2.4c0.2-0.3,0.4-0.7,0.5-1c0.1-0.4,0.3-0.9,0.4-1.3c0.2-0.9,0.4-1.8,0.4-2.6c0-1.7-0.5-3.4-1.4-4.9
		c-0.9-1.5-2.3-2.8-3.8-3.8c-0.8-0.5-1.6-0.9-2.4-1.2c-0.4-0.1-0.8-0.3-1.2-0.3c-0.4-0.1-0.7-0.1-0.9-0.1c-2,0-3.7-1.6-3.8-3.6
		c0-2,1.6-3.7,3.6-3.8C236.3,69.1,236.3,69.1,236.5,69.1L236.5,69.1z"/>
	<path class="st4" d="M166.7,76.5c-0.2,0-0.6,0-0.9,0.1c-0.4,0.1-0.8,0.2-1.2,0.3c-0.8,0.3-1.6,0.7-2.4,1.2c-1.5,1-2.9,2.3-3.8,3.8
		c-0.9,1.5-1.4,3.1-1.4,4.9c0,0.9,0.1,1.8,0.4,2.6c0.1,0.4,0.3,0.9,0.4,1.3c0.1,0.4,0.3,0.7,0.5,1c0.8,1.3,2,2.1,3.6,2.4
		c1.6,0.3,3.6,0.1,5.4-0.5c1.8-0.6,3.5-1.7,4.7-3c1.2-1.3,2-2.9,2-4.5l0,0c0-1.4,1.2-2.5,2.6-2.5c1.4,0,2.5,1.1,2.5,2.5
		c0,1.5-0.2,3-0.8,4.4c-0.5,1.4-1.3,2.6-2.3,3.7c-1.8,2.2-4.2,3.7-6.7,4.8c-2.5,1-5.4,1.6-8.4,1.1c-1.5-0.2-3-0.7-4.4-1.5
		c-1.4-0.8-2.6-2-3.5-3.3c-0.4-0.7-0.8-1.3-1.1-2c-0.3-0.7-0.5-1.3-0.7-2c-0.4-1.3-0.7-2.8-0.7-4.2c-0.1-2.9,0.6-6,2.1-8.5
		c1.4-2.5,3.4-4.6,5.7-6.3c1.1-0.8,2.4-1.5,3.7-2.1c1.4-0.6,2.8-1,4.7-1.1l0,0c2-0.1,3.8,1.5,3.9,3.5c0.1,2-1.5,3.8-3.5,3.9
		C166.9,76.5,166.8,76.5,166.7,76.5z"/>
	<path class="st3" d="M230.9,122.3h-70.7v-47c0-4.7,3.8-8.5,8.5-8.5h62.2c4.4,0,8,3.6,8,8v39.5C238.9,118.7,235.3,122.3,230.9,122.3
		z"/>
	<path class="st3" d="M230,66.8h-60.5c-5.2,0-9.4-4.3-9.4-9.6V41c0-12.1,7.3-18.4,16.4-18.4h43.2c11.7,0,19.7,6.7,19.7,17.9v16.8
		C239.4,62.5,235.2,66.8,230,66.8z"/>
	<path class="st0" d="M164.7,57.2V41c0-12.1,6.9-18.4,15.4-18.4h-3.7c-9.1,0-16.4,6.3-16.4,18.4v16.2c0,5.3,4.2,9.6,9.4,9.6h4.1
		C168.7,66.8,164.7,62.5,164.7,57.2z"/>
	<path class="st2" d="M227,62.6h-51.4c-4.4,0-8-3.6-8-8V41.1c0-10,6.2-15.3,13.9-15.3h36.7c9.9,0,16.7,5.6,16.7,14.8v14
		C235,59,231.4,62.6,227,62.6z"/>
	<path class="st5" d="M222.2,73.7c-1.1,0.1-1.9,1.1-1.9,2.2v13.5c0,3.1-2.5,5.5-5.5,5.5h-25.5c-3.1,0-5.5-2.5-5.5-5.5V76
		c0-1.1-0.8-2.1-1.9-2.2c-1.3-0.1-2.3,0.9-2.3,2.1v13.6c0,5.4,4.4,9.8,9.8,9.8h8.4c1.3,0,2.3,1,2.3,2.3V120h5.1v-18.5
		c0-1.3,1-2.3,2.3-2.3h7.5c5.4,0,9.8-4.4,9.8-9.8V75.9C224.5,74.6,223.4,73.6,222.2,73.7z"/>
	<ellipse class="st0" cx="187.5" cy="41.5" rx="1.9" ry="2.6"/>
	<ellipse class="st0" cx="105.7" cy="63.9" rx="1.5" ry="2.2"/>
	<ellipse class="st0" cx="115.4" cy="63.9" rx="1.5" ry="2.2"/>
	<ellipse class="st0" cx="214.5" cy="41.5" rx="1.9" ry="2.6"/>
	<path class="st4" d="M200.9,54.6c-3.1,0-5.8-2.3-6.3-5.3c-0.1-0.5,0.3-1,0.8-1.1c0.5-0.1,1,0.3,1.1,0.8c0.4,2.1,2.3,3.7,4.4,3.7
		c0,0,0,0,0.1,0c2.2,0,4-1.6,4.4-3.7c0.1-0.5,0.6-0.9,1.1-0.8c0.5,0.1,0.9,0.6,0.8,1.1C206.7,52.4,204.1,54.6,200.9,54.6
		C201,54.6,200.9,54.6,200.9,54.6z"/>
	<path class="st0" d="M179.4,77.2v4.2l4.4-0.4c0.8-0.1,1.5,0.5,1.6,1.2l0,0c0.1,0.7-0.3,1.4-0.9,1.6l-3.9,1.5l0.2,0.5l3.7-0.8
		c1-0.2,1.9,0.5,2,1.4l0,0c0.1,0.9-0.5,1.7-1.3,1.9l-4,0.9l0.1,0.5l3.2-0.4c1-0.1,1.9,0.7,1.9,1.7l0,0c0,0.7-0.5,1.4-1.2,1.6
		c-1.4,0.4-3.7,1-5.7,1.4c-3.1,0.5-6.7-3.7-5.6-10C174.8,77.7,179.4,77.2,179.4,77.2z"/>
	<path class="st0" d="M224.5,77.2v4.2l-4.4-0.4c-0.8-0.1-1.5,0.5-1.6,1.2l0,0c-0.1,0.7,0.3,1.4,0.9,1.6l3.9,1.5l-0.2,0.5l-3.7-0.8
		c-1-0.2-1.9,0.5-2,1.4l0,0c-0.1,0.9,0.5,1.7,1.3,1.9l4,0.9l-0.1,0.5l-3.2-0.4c-1-0.1-1.9,0.7-1.9,1.7l0,0c0,0.7,0.5,1.4,1.2,1.6
		c1.4,0.4,3.7,1,5.7,1.4c3.1,0.5,6.7-3.7,5.6-10C229.1,77.7,224.5,77.2,224.5,77.2z"/>
	<path class="st4" d="M251.2,85.1c-1.9,0-3.7-0.2-5.5-0.6c0.2,0.8,0.3,1.6,0.3,2.4c0,0.9-0.1,1.8-0.4,2.6c-0.1,0.4-0.3,0.9-0.4,1.3
		c-0.1,0.4-0.3,0.7-0.5,1c-0.8,1.3-2,2.1-3.6,2.4c-1.6,0.3-3.6,0.1-5.4-0.5c-1.8-0.6-3.5-1.7-4.7-3c-1.2-1.3-2-2.9-2-4.5l0,0
		c0-1.3-1.1-2.4-2.5-2.5c-1.4,0-2.6,1.1-2.6,2.5c0,1.5,0.2,3,0.8,4.4c0.5,1.4,1.3,2.6,2.3,3.7c1.8,2.2,4.2,3.7,6.7,4.8
		c2.5,1,5.4,1.6,8.4,1.1c1.5-0.2,3-0.7,4.4-1.5c1.4-0.8,2.6-2,3.5-3.3c0.4-0.7,0.8-1.3,1.1-2c0.3-0.7,0.5-1.3,0.7-2
		c0.4-1.3,0.7-2.8,0.7-4.2c0-0.7,0-1.3-0.1-2C252.1,85.1,251.6,85.1,251.2,85.1z"/>
	<path class="st0" d="M165,76.7c0-4.7,3.8-8.5,8.5-8.5h62c-1.3-0.9-2.9-1.4-4.5-1.4h-62.2c-4.7,0-8.5,3.8-8.5,8.5v47h4.7V76.7z"/>
	<path class="st4" d="M176.5,83.7c-1.4,0-2.5,1.1-2.6,2.5l0,0c0,1.6-0.8,3.2-2,4.5c-1.2,1.3-2.9,2.4-4.7,3c-1.8,0.6-3.7,0.9-5.4,0.5
		c-1.6-0.3-2.8-1.1-3.6-2.4c-0.2-0.3-0.4-0.7-0.5-1c-0.1-0.4-0.3-0.9-0.4-1.3c-0.2-0.9-0.4-1.8-0.4-2.6c0-0.8,0.1-1.5,0.3-2.2
		c-2.2-0.4-4.3-1.2-6.3-2.2c-0.4,1.5-0.6,3.1-0.5,4.6c0.1,1.5,0.3,2.9,0.7,4.2c0.2,0.7,0.5,1.3,0.7,2c0.3,0.7,0.7,1.4,1.1,2
		c0.9,1.3,2.1,2.5,3.5,3.3c1.4,0.8,2.9,1.3,4.4,1.5c3,0.4,5.8-0.1,8.4-1.1c2.5-1,4.9-2.6,6.7-4.8c0.9-1.1,1.7-2.3,2.3-3.7
		c0.5-1.4,0.8-2.9,0.8-4.4C179,84.8,177.9,83.7,176.5,83.7z"/>
	<path class="st0" d="M128.2,73.9h3c0.9,0,1.4,1,0.9,1.7l-1.4,2.2c-0.4,0.7-1.4,0.7-1.9,0l-1.5-2.2C126.8,75,127.3,73.9,128.2,73.9z
		"/>
	<path class="st0" d="M252.8,77.3c13.1,2.9,20.9,6.5,20.9,10.4c0,9.5-46.2,17.2-103.2,17.2S67.3,97.1,67.3,87.6
		c0-1.2,0.8-2.4,2.3-3.6c-26.7,6.9-43.1,16.3-43.1,26.7c0,21.2,68.2,38.3,152.3,38.3S331,131.9,331,110.7
		C331,96.3,299.4,83.8,252.8,77.3z"/>
	<path class="st3" d="M33.1,122c9.5-6.2,19.8-11.2,30.9-14.8c7.5-3.9,15.2-7.1,23.1-9.5c-12.5-2.8-19.9-6.3-19.9-10.1
		c0-1.2,0.8-2.4,2.3-3.6c-26.7,6.9-43.1,16.3-43.1,26.7C26.4,114.7,28.8,118.5,33.1,122z"/>
	<path class="st5" d="M252.8,77.3c13.1,2.9,20.9,6.5,20.9,10.4c0,8.2-34.2,15-80,16.7c8.1,3.2,16.1,7.1,23.8,11.6l34.9,27
		c0.4,0.4,0.8,0.8,1.2,1.2c46.2-6.6,77.4-19.1,77.4-33.4C331,96.3,299.4,83.8,252.8,77.3z"/>
	<path class="st3" d="M273.7,87.6c0,1.9-1.8,3.7-5.2,5.4c0.1,0.1,0.3,0.1,0.4,0.2c11.2,2.9,22,7.3,32.4,13.3
		c7.2,5.5,14.3,11.1,21.5,16.6c5.3-3.9,8.2-8.1,8.2-12.4c0-14.4-31.5-26.9-78.1-33.5C265.9,80.1,273.7,83.7,273.7,87.6z"/>
	<g>
		<path class="st3" d="M178.7,149c-81.1,0-147.4-16-152-36.1c1.2,29.7,68.8,53.7,152.1,53.7c84,0,152.1-24.4,152.1-54.5
			c0-0.3,0-0.6,0-0.8C329.7,132.2,262,149,178.7,149z"/>
	</g>
	<g>
		<path class="st3" d="M136.3,160.7l-19.4-15c-50.7-5.7-86.9-18.1-90.2-32.8c1,25.5,51.1,46.8,118,52.3
			C141.9,163.9,139.1,162.3,136.3,160.7z"/>
	</g>
	<path class="st4" d="M113.6,83.8C113.5,83.8,113.5,83.8,113.6,83.8l-2.8-0.3c-2.1-0.2-3.9-1.8-4.2-3.9l-0.1-0.8
		c-0.1-0.4,0.2-0.9,0.7-0.9c0.4-0.1,0.9,0.2,0.9,0.7l0.1,0.8c0.2,1.4,1.4,2.5,2.8,2.6l2.7,0.3c0.4,0,0.8,0.4,0.7,0.9
		C114.3,83.5,114,83.8,113.6,83.8z"/>
	<ellipse transform="matrix(0.9771 -0.2127 0.2127 0.9771 -6.2317 23.5392)" class="st3" cx="106.3" cy="40.7" rx="1.7" ry="0.8"/>
	<g>
		<path class="st0" d="M67.6,89c-0.2,0.5-0.4,0.9-0.4,1.4c0,9.5,46.2,17.2,103.2,17.2s103.2-7.7,103.2-17.2c0-0.5-0.1-1-0.4-1.4
			c-4.3,8.8-48.7,15.8-102.9,15.8C116.4,104.8,72,97.9,67.6,89z"/>
	</g>
</g>
</svg>
