<svg xmlns="http://www.w3.org/2000/svg" xmlns:xlink="http://www.w3.org/1999/xlink" width="1114.448" height="416.826" viewBox="0 0 1114.448 416.826"><defs><style>.a,.bi,.bk,.bn,.bq{fill:none;}.b{fill:#97cbfd;}.c{fill:#549be6;}.d{fill:#3863b4;}.e{fill:#3a63b1;}.f{clip-path:url(#a);}.g{clip-path:url(#b);}.h{fill:#7cb4f7;}.i{opacity:0.3;mix-blend-mode:multiply;isolation:isolate;}.j{clip-path:url(#c);}.k{fill:#abcffa;}.l{fill:#3551a2;}.m{fill:#4b6ccc;}.n{fill:#69a5ed;}.o{fill:#478bde;}.p{clip-path:url(#d);}.q{fill:#467de4;}.r{fill:#180048;}.s{fill:#f9bcaa;}.t{fill:#dee5fe;}.u{fill:#191791;}.v{clip-path:url(#e);}.w{fill:#421d24;}.x{fill:#842a40;}.y{fill:#843a48;}.z{fill:#4c2c30;}.aa{fill:#daa833;}.ab{fill:#1a2444;}.ac{clip-path:url(#f);}.ad{clip-path:url(#g);}.ae{opacity:0.1;}.af{clip-path:url(#h);}.ag{fill:#005866;}.ah{fill:#f7b7a9;}.ai{fill:#fff;}.aj{fill:#edf4f5;}.ak{opacity:0.07;}.al{clip-path:url(#j);}.am{fill:#193f42;}.an{clip-path:url(#k);}.ao{clip-path:url(#l);}.ap{clip-path:url(#m);}.aq{clip-path:url(#n);}.ar{clip-path:url(#o);}.as{clip-path:url(#p);}.at{fill:#2b337c;}.au{fill:#007787;}.av{fill:#f8c4b8;}.aw{opacity:0.05;}.ax{clip-path:url(#q);}.ay{fill:#9f88c1;}.az{opacity:0.15;}.ba{clip-path:url(#r);}.bb{clip-path:url(#s);}.bc{fill:#915151;}.bd{fill:#27427a;}.be{fill:#4e62e0;}.bf{fill:#bbbcc9;}.bg{fill:#e0e0e0;}.bh{fill:#fffcfa;}.bi{stroke:#1c297d;stroke-width:2.281px;}.bi,.bk,.bn{stroke-linecap:round;stroke-linejoin:round;}.bj{fill:#ed5353;}.bk,.bn{stroke:#fff;}.bk{stroke-width:4.562px;}.bl{fill:#9b9ecf;}.bm{fill:#c3c5ed;}.bn{stroke-width:3.577px;}.bo{fill:#1737a2;}.bp{fill:#3754b8;}.bq{stroke:#fffcfa;stroke-miterlimit:10;}.br{fill:#34c8cc;}.bs{fill:#f2c97b;}.bt{fill:#e6a677;}.bu{fill:#8d7fa2;}.bv{fill:#80653d;}.bw{fill:#7e6f93;}</style><clipPath id="a"><rect class="a" width="209.439" height="255.982"/></clipPath><clipPath id="b"><rect class="b" width="209.439" height="255.982"/></clipPath><clipPath id="c"><rect class="a" width="67.503" height="85.38"/></clipPath><clipPath id="d"><rect class="c" width="214.634" height="155.878" transform="translate(0 0)"/></clipPath><clipPath id="e"><path class="d" d="M86.353,150.262l2.622,33.126,2.486-5.134-.172,3.6a37.83,37.83,0,0,1-16.708,6.721,45.42,45.42,0,0,1-17.4-2.188c8.39-1.529,17.493-6.14,20.314-11.934,4.47-9.2,2.272-51.452,2.272-51.452Z" transform="translate(-57.183 -123.002)"/></clipPath><clipPath id="f"><rect class="a" width="167.529" height="306.265"/></clipPath><clipPath id="g"><rect class="a" width="167.528" height="306.265"/></clipPath><clipPath id="h"><rect class="a" width="62.756" height="30.24"/></clipPath><clipPath id="j"><rect class="a" width="31.184" height="77.383"/></clipPath><clipPath id="k"><rect class="a" width="51.449" height="129.417"/></clipPath><clipPath id="l"><rect class="a" width="4.874" height="58.33"/></clipPath><clipPath id="m"><rect class="a" width="10.692" height="107.737"/></clipPath><clipPath id="n"><rect class="a" width="8.605" height="81.482"/></clipPath><clipPath id="o"><rect class="a" width="28.529" height="49.481"/></clipPath><clipPath id="p"><rect class="a" width="10.25" height="50.181"/></clipPath><clipPath id="q"><rect class="e" width="10.395" height="40.813"/></clipPath><clipPath id="r"><rect class="a" width="24.122" height="99.854"/></clipPath><clipPath id="s"><rect class="a" width="12.327" height="134.248"/></clipPath></defs><g transform="translate(-194 -1289.787)"><g transform="translate(487 1368.777)"><g class="f"><g class="g"><path class="h" d="M157.322,206.278c-.127.381-11.535,40.432-11.662,40.686-2.026,8.491-3.168,12.041-9.759,15.843-15.877,9.229-43.139,3.989-46.388-9-.127-.38-13.69-48.037-13.816-48.418-2.408-7.478,1.522-15.59,11.663-21.42,27.756-15.956,77.874-3.25,69.963,22.308" transform="translate(-4.871 -11.489)"/><g class="i" transform="translate(85.785 170.601)"><g class="j"><path class="h" d="M158.406,206.642c-.123.37-11.527,40.426-11.664,40.687-2.017,8.48-3.17,12.034-9.756,15.835-14.683,8.535-39.1,4.706-45.243-6.2,10,3.541,23.822,3.418,33.579-2.291,6.6-3.8,7.74-7.341,9.77-15.835.124-.262,11.527-40.3,11.651-40.687a16.2,16.2,0,0,0-3.019-15.7c11.143,5.036,18,13.489,14.683,24.193" transform="translate(-91.743 -182.449)"/></g></g><path class="k" d="M87.306,183.929c-16.3,9.412-16.389,24.673-.192,34.086s42.539,9.41,58.842,0,16.39-24.668.192-34.08-42.543-9.412-58.842,0" transform="translate(-4.872 -11.486)"/><path class="l" d="M154.273,202.082a10.336,10.336,0,0,1-.579,2.2c-5.445,15.351-41.879,21.837-63.31,10.311-5.444-2.9-8.8-6.488-10.194-10.194-2.317-6.314,1.1-13.149,10.31-18.015,24.617-13.09,66.611-2.78,63.773,15.7" transform="translate(-5.162 -11.722)"/><path class="m" d="M153.742,204.816c-5.445,15.35-41.879,21.837-63.31,10.31-5.444-2.9-8.8-6.487-10.194-10.194,1.332-3.765,4.808-7.415,10.31-10.369,21.721-11.527,57.749-4.981,63.194,10.253" transform="translate(-5.21 -12.254)"/><path class="n" d="M116.929,205.448c-3.423-3.651-22.825-31.27-34.695-51.585s-22.825-29.444-22.825-29.444l-2.053,1.826s21.911,30.357,26.476,38.8,25.793,37.661,26.477,39.259,6.619,1.142,6.619,1.142" transform="translate(-3.725 -8.079)"/><path class="o" d="M74.411,117.237c3.474-4.292,14.991,5.867,19.332,8.7-1.776-11.181-12.86-20.008-14.311-21.25-18.945-16.206-33.553,1.6-33.553,1.6a19.89,19.89,0,0,0-8.674-10.044c-9.884-5.276-20.894,1.512-22.6,2.562a25.159,25.159,0,0,0-2.455,1.717c6.98-.425,17.292-.456,16.836,3.027-.48,3.671-14.8,4.442-22.747,3.4C.161,116.026.006,126.823,0,127.508a39.5,39.5,0,0,0,.827,8.075,28.521,28.521,0,0,0,6.021-2.369c14.151-7.076,25.336-12.782,13.923,0-7.8,8.733-11.544,14.8-14.959,15.95a41.772,41.772,0,0,0,6.057,8.473c2.986,3.2,8.363,7.8,10.044,15.749a23.793,23.793,0,0,1,.456,6.39c16.886-12.559,18.817-13.923,22.369-15.748,6.063-3.118,6.606-2.31,15.353-5.546-.814-4.1-1.891-9.848-.516-16.365,1.749-8.309,11.878,3.7,12.321,11.549,7.312-3.265,10.417-5.4,13.242-8.126,3.16-3.054,7.085-6.844,8.4-12.687a18,18,0,0,0,.388-2.606c-6.966-1.62-22.771-9-19.519-13.01M44.51,157.18c-2.967-1.6-.529-12.243.684-14.15,1.6-2.511,2.282,15.749-.684,14.15" transform="translate(0 -6.12)"/><path class="b" d="M99.729,28.725A57.847,57.847,0,0,0,84.492,14.682q-.118,1.778-.237,3.557a73.739,73.739,0,0,1,17.784,22.527c12.484,24.819,1.081,39.887,3.2,89.871,1.116,26.325,5.81,58.213,5.81,58.214,1.148.29,2.717.483,3.794-.356,2.705-2.108.263-9.139-1.186-14.464-2.3-8.457-2.143-17.4-3.319-26.084-.78-5.757-1.944-11.861-1.422-36.992.5-23.988,10.251-56.28-9.187-82.229" transform="translate(-5.471 -0.953)"/><path class="n" d="M123.159,198.133c3.749-40.964,9.142-71.108,13.889-80.248,4.621-8.9,12.014-11.574,21.091-9.261-17.78,3.226-21.9,15.985-30.351,88.995Z" transform="translate(-7.998 -7.003)"/><path class="b" d="M124,187.255c-10.478-51.649-4.351-88.377,3.467-112.68,6.084-18.911,17.207-42.778,16.362-43.157-.728-.325-9.435,17.164-13.042,25.135-9.2,20.337-22.672,61.5-13.345,129.93,0,0,2.314,16.59,6.559.771" transform="translate(-7.422 -2.04)"/><path class="n" d="M132.388,204.239c-1.293,9.238-24.17,9.27-25.453-.043,1.279-9.239,24.167-9.288,25.453.043" transform="translate(-6.944 -12.809)"/><path class="o" d="M212.3,126.074c-4.619-5.6,2.3-.331-15.168-6.923s-24.727-4.945-21.428-9.559,17.473,1.317,17.473,1.317l19.123,9.233s-3.63-11.538-16.815-20.771S190.544,93.1,170.1,91.458s-16.813-3.625-21.759,4.613-2.636,12.2-8.57,9.892c0,0-3.625-30.331-24.069-25.716s-16.814,7.586-14.174,17.8c1.158,4.485,2.063,5.859,2.963,7.274,1.3-1.621,2.868-5.594,12.2-2.656,11.542,3.625,7.913,3.294-1.979,6.26-16.4,4.922,1.979,22.355,1.979,23.738,0,.989,6.923-13.846,13.846-13.846s9.565,1.65.989,9.89-17.472,4.287-5.6,21.759c26.962,39.7,3.517-.2,11.869-13.183,5.935-9.233,9.89-17.8,8.9-5.935-2.945,35.344-4.132,37.776,19.528,45.365,3.036.973,6.823,1.864,8.734,5.2,2.135,3.722.489,7.673,2.717,9.343.858.643,2.435.53,5.617-.561,11.537-3.956,12.858-13.189,19.449-20.771s-9.228-13.189-12.2-20.77-7.913-4.946-12.2-14.178-5.277-16.156,5.934-9.891,20.44,8.571,23.738,14.836,1.648,9.56,5.277,14.506,3.624-22.749-.988-28.353M178.675,154.1c-4.287-1.652-10.222-16.156-10.222-16.156,6.592-.989,14.5,17.8,10.222,16.156" transform="translate(-6.459 -5.18)"/><path class="n" d="M149.272,18.32c6.729-4.808,15.33-1.961,19.766-.493,1.073.356,19.447,6.671,20.629,18.5.734,7.347-5.7,11.507-4.858,23.11.091,1.245.395,4.2-.264,4.285-.451.057-2.689-15.043-20.642-16.132-23-1.393-24.388,12.543-37.628-2.091C125,44.09,122.3,40.422,122.833,37.09c.785-4.948,8.894-9.226,20.167-9.014a17.147,17.147,0,0,1,6.271-9.756" transform="translate(-7.972 -1.016)"/><path class="b" d="M79.283,14.914c1.6-1.37,9.383-11.282,18.97-2.608s-4.646,29.962-9.439,33.615.229-18.26-4.793-18.488,3.2,16.206-3.2,26.7a37.085,37.085,0,0,1-16.206,14.38S76.26,49.572,72.379,43.41,68.5,32.454,66.216,40.9s-2.739,21.455-10.5,26.248S45.445,70.8,45.445,70.8C57.087,61.1,57.592,51.144,56.167,50.26c-.94-.583-3.114,1.756-5.016,3.878-10.12,11.3-10.979,15.493-16.685,19.11-4.543,2.88-10.927,4.613-12.775,2.485-1.764-2.032,1.012-7.124,2.1-9.125,3.6-6.588,7.768-8.336,16.6-17.31,3.626-3.686,6.624-6.761,6.035-7.588-.725-1.018-7.715.418-12.168,5.125-7.989,8.445-15.522,24.65-18.717,20.541a22.018,22.018,0,0,1-1.826-22.825c4.793-9.358,15.75-16.434,27.163-16.434s24.195-3.2,16.206-4.565-22.14,1.825-29.9,5.479-7.761-4.11-2.055-9.131,13.24-1.826,27.163-3.88,20.314-5.479,5.021-5.25-22.825,2.511-20.542-.684C40.647,4.66,70.6-6.36,78.086,4.836c1.114,1.665,2.3,4.676,1.2,10.078" transform="translate(-0.737 0)"/></g></g></g><g transform="translate(754 1136)"><g class="p" transform="translate(168.438 164.408)"><path class="c" d="M100.182,66.7s-5.881.8-4.74,4,6.057,3.376,6.057,3.376,1.995-5.484,3.726-5.044,1.007,5.633,1.007,5.633.8,2.654,4.621,2.853a21.871,21.871,0,0,1,5.675.868s-4.685-10.479-2.885-8.27,5.052,8.14,6.763,9.079,8.783-1.194,8.783-1.194-.863-.519-4.387-2.974c-.922-.644-1.855-1.247-2.716-1.809-2.426-1.584-4.272-2.838-3.67-3.718.816-1.191,4.248.225,4.983,1.988s10.368,6.238,10.368,6.238l5.011-4.223s-7.564,1.448-9.64-1.544-2.292-4.2-2.292-4.2,7.494,3.309,11.256,1.964l3.763-1.343-4.427-1.6-3.718-1.343,10.236.257,4.121-3.474c2.329-1.963,3.282-1.62,3.282-1.62a20.922,20.922,0,0,0-1.711-3.324c-1.068-1.662-6.361.367-6.361.367a3.491,3.491,0,0,1,2.5-3.289,35.133,35.133,0,0,1,5.633-1.561s-.728-2.633-1.481-2.53-11.462,2.11-12.021,6.091-3.753.123-1.177-2.282S147.349,48.7,147.349,48.7s-4.165-1.735-6.986-1.7c-1.174.015-3.066,1.485-4.876,3.2a67.945,67.945,0,0,0-4.92,5.283s-4.047,2.572-3.736.667,10.229-8.993,10.229-8.993,2.917-4.082-4.515-1.633-12.5,10.07-12.5,10.07-.894,2.2-.182-1.02,3.231-8.9,7.185-8.677-2-4.562-6.489-.108a18.616,18.616,0,0,0-5.288,8.977s-1.89.934-1.559-2.969,4.726-5.2,4.726-5.2-4.8-5.054-7.175.3a56.152,56.152,0,0,0-3.424,10.883s-2.17,2.694-2.654-.959,3.248-6.8,3.248-6.8-1.983-4.309-5.108,2.647-.745,7.817-.745,7.817-3.5.083-6.008.417-5.265,2.181-4.782,4.886,1.767,3.17,1.767,3.17Z" transform="translate(63.214 30.239)"/><path class="c" d="M74.066,27.126c5.113-.929,11.959-2.6,15.774-5.3,6.616-4.691,16.421-5.831,6.616-4.691-3.111.361-7.29,1.191-11.543,2.152a108.273,108.273,0,0,1,16.463-7.922l2.78,2.968.973-4.341c3.525-1.226,7.282-2.358,11.268-3.349,17.068-4.246,30.983-1.378,39.622,3.593-6.876.012-12.9.794-7.64.456,6.9-.444,13.844,11.443,13.844,11.443l3.42.782c-.228,2.268-1.719,4.229-4.64,5.493a68.613,68.613,0,0,0-10.9-12.134,30.863,30.863,0,0,0-15.242-6.947s10.692,5.265,14.707,13.384a53.424,53.424,0,0,0,4.5,7.471c-8.684.98-6.481-5.758-14.911-6.253-1.743-3.981-4.422-8.435-8.256-10.673a17.234,17.234,0,0,0-15.3-1.017l6.071,1.709c3.576,1.008,6.5,6.711,8.3,11.226-9.672,3.042-7.88,9.938-13.334,10.851-7.935-3.449-8.092-11.852-7.908-14.666l.093-.941s-.054.35-.093.941l-1.446,14.778c-8.254-1.679-8.44-8.474-8.44-8.474s-9.359,1.187-15.408,6.081S70.163,34.8,70.163,34.8c-1.969-.532-.539-3.615,3.9-7.679" transform="translate(47.751 3.155)"/><path class="c" d="M85.845,49.222C71.733,82.245,67.2,123.828,66.058,137.187c.248.16.493.328.728.51a15.993,15.993,0,0,1,1.851.488c.23.056.451.081.676.123,1.064-12.334,5.648-57.455,17.928-88.443C100.255,17.025,119.7,6.811,119.7,6.811S102.9,9.319,85.845,49.222" transform="translate(45.519 4.693)"/><path class="c" d="M92.787,14.767c-.858-3.174-3.218-5.785-6.442-7.883C79.639,6.618,72.989,7.471,76,5.322a9.1,9.1,0,0,1,4.866-1.236,52.407,52.407,0,0,0-8.437-2.542c-3.263.439-6.418,1.169-8.322,2.38-4.787,3.047-8.746,2.449-7.346,0,.76-1.329,6.777-2.371,12.121-3.047C61.622-.291,54.45-.259,50.111.775l-.35,2.449L44.8,1.878c-8.628,2.04-24.392,6.974-21.115,15.195a2.031,2.031,0,0,0,1.593-1.257c1.4-3.5,16.446-7.175,18.889-7.069s-7,2.522-11.389,4.272c-4.378,1.741-6.044,7.575-6.057,7.623,3.5,1.991,8.947,1.155,14.724-.492A16.514,16.514,0,0,1,45.564,10.9c4.552-5.067,4.2.015.61,2.814-2.326,1.814-1.632,3.363-.358,5.079,6.989-2.3,13.882-5.03,17.938-4.729,5,.37,13.8,4.164,20.482,5.741-5.13-2.782-14.529-7.621-20.081-8.9-8-1.85,2.4-1.383,10.444,1.763,5.419,2.121,13.546,4.557,18.279,5.924a6.1,6.1,0,0,0-.09-3.824" transform="translate(16.015 0)"/><path class="c" d="M85.813,139.832a13.412,13.412,0,0,0,2.392.255c.157,0,.307,0,.458,0,.066-5.812.363-56.8-8.454-88.511-8.78-31.587-38.2-47-38.2-47s31.815,20.24,38.2,53.844c2.909,15.3,5.343,74.844,5.6,81.41" transform="translate(28.946 3.155)"/><path class="c" d="M97.16,121a6.738,6.738,0,0,0,1.328-.7,7.948,7.948,0,0,1,.924-.529c-.794-9.437-5.375-47.862-28.305-67.328-21.064-17.882-36-20.972-36-20.972s46.73,16.45,55.272,57.192c5.584,26.633,6.6,31.459,6.78,32.336" transform="translate(24.193 21.684)"/><path class="c" d="M96.324,47.013c-2.518,3.819-8.417,9.192-16.5,9.192h-.388c-.483-3.042-1.427-7.744-2.98-10.263-2.182-3.527-11.092-4.765-12.741-4.964,1.113.179,5.532,1.008,7.756,3.664,1.27,1.522,1.27,6.494.954,11.1-2.55-.242-5.447-.568-8.552-.934a39.8,39.8,0,0,1,.944-5.017c1.258-4.827-7.326-9.613-7.829-9.886a17.1,17.1,0,0,1,5.435,7.841c.672,2.013.179,4.512-.65,6.81-4.91-.6-10.221-1.3-15.4-1.973,1.5-4.87,3.567-12.477,2.466-14.1a2.271,2.271,0,0,0-1-.809,4.851,4.851,0,0,0-2.969-.157c-1.48.336-2.581,1.133-1.888,1.616,1.365.954,3.41,5.184,2.728,7.829-.3,1.216-.912,3.368-1.468,5.351-2.782-.356-5.51-.7-8.092-1.017,1.343-2.824,2.687-6.412,1.721-7.923-1.711-2.645-4.775-1.1-5.121,4.376a6.516,6.516,0,0,1-.86,3.032c-4.155-.471-7.7-.818-10.2-.934,1.574-2.466,3.348-5.383,4.576-7.177,1.846-2.677-7.01,3.851-11.124,6.935C8.153,49.018,1.931,46.866.377,40.843A21.642,21.642,0,0,1,8.2,36.424c7.116-1.973,17.892,4.67,18.323-.2s-16.3-4.533-19.005-1.48c-1.049,1.176-4.082,2.865-7.418,4.5A13.342,13.342,0,0,1,0,37.757c0-9.518,9.665-14.366,15.918-14.913,6.929,1.817,13.119,4.052,14.788,6.234,3.579,4.68,4.03,5.268,4.081,5.341a60.763,60.763,0,0,0-5.446-10.231C42.06,27.1,51.252,33.864,59.3,37.411a22.41,22.41,0,0,0,8.93,2.246c.63,0,1.238-.012,1.806-.032,10.9-.367,11.889-4.061,19.34-4.061,6.307,0,7.839,3.724,8.2,6.494-.86-.65-1.784-1.375-2.738-2.16-4.775-3.978-16.707-1.449-16.707-1.449s5.792,1.091,11.932,2.74c3.211.87,5.152,3.5,6.265,5.824" transform="translate(0 15.741)"/><path class="c" d="M62.327,34.379s-11.072-1.228-22.194-1.953c-.986-.062-1.983-.115-2.969-.157a59.842,59.842,0,0,0-10.84.421C14.4,34.484,11.609,35.271,11.19,35.4c1.228-.493,21.429-8.312,40.4-3.233a22.4,22.4,0,0,0,8.93,2.246c.628,0,1.238-.012,1.8-.032" transform="translate(7.711 20.987)"/><path class="c" d="M96.953,60.533c-16.641,13.016-28.388,46.411-28.388,46.411l.769.444c.191.01.373.034.571.035.223.005.437,0,.65,0,1.591-4.381,12.893-34.582,25.711-44.656,20.818-16.36,62.992-7.165,62.992-7.165s-42.174-10.815-62.3,4.929" transform="translate(47.246 35.819)"/><path class="c" d="M48.64,52.122s11.089-3.643,19.183,5.751c8.045,9.341,20.857,49.37,20.857,49.37l-2.6.564S74.127,68.892,65.693,60.26c-5.366-5.495-10.268-7.444-14.729-6.3S43.1,52.142,48.64,52.122" transform="translate(31.535 35.437)"/><path class="c" d="M58.249,61.2s10.283-4.866,16.664-4.419,17.443-1.22,18.72,1.316l1.275,2.535s6.807-2.7,8.935,1.838l2.127,4.544s-6.381-2.745-10.92-2.79l-4.537-.046s12.479,3.545,15.457,6.381a32.954,32.954,0,0,0,3.544,3.164s-1.415,9.884-3.969,8.749c-1.341-.6-4.523-3.307-8.187-5.973-3.309-2.405-7.011-4.775-10.107-5.515-6.523-1.559-6.967-1.3-6.967-1.3s22.71,11.229,25.687,15.484-4.42,11.408-6.807,11.345S84.414,83.328,78.6,78.222A30.631,30.631,0,0,0,66.971,71.7a17.885,17.885,0,0,0,8.793,7.233c5.92,2.135,17.3,13.756,18.576,22.265s-8.934,8.508-8.934,8.508S67.822,82.335,65.98,78.932s-6.667-9.173-5.957-4.446,3.971,7.14,11.2,14.94S84.129,109,84.13,109.7s-6.381,7.091-8.366,5.248S68.106,92.829,63.993,88.716s-4.68-2.694-3.12,0,11.062,19.146,10.21,23.542-9.359,3.027-9.359,3.027a27.156,27.156,0,0,0-1.986-11.536c-2.41-5.246-6.381-15.458-7.515-12.622s5.954,21.132,5.1,23.259-3.4,2.978-13.756,2.127-12.2-3.545-12.2-3.545,5.39-20.421,9.219-22.123-7.516-3.12-9.219,4.68-2.719,18.923-5.1,15.033-6.381-4.4-5.39-7.091,2.952-8.51-.155-5.672-3,4.04-4.1,2.836-4.395-3.12-1.559-5.674,12.621-13.33,19.288-13.472,14.322-1.277,8.082-2.836-21.046,8-22.193,10.21-7.907,6.113-7.907,6.113-4.929-5.655-5.212-8.224S18.329,76.52,25.7,77.655s16.024-4.537,9.785-4.537S10.531,79.215,9.254,81.2s-1.277-1.985-1.277-2.41-3.12-3.545,1.7-5.814,20.561-3.829,23.966-3.687,3.92-2.116-.025-1.838S10.105,72.125,9.68,71.131s-2.128-4.964,3.969-5.814,21.84.284,21.84.284a6.261,6.261,0,0,0-4.235-2.446c-2.714-.25-9.1.885-9.805.885S17.478,61.063,24,59.22s6.805,1.7,11.769.14,9.217-3.544,12.481-.708,10,2.552,10,2.552" transform="translate(4.813 39.04)"/><path class="c" d="M65.089,51.9c-2.206-.476-14.61-.787-22.654,9.445s-12.5,33.58-12.5,33.58,7.29-30.782,20.392-37.71C60.427,51.875,74.8,54,65.089,51.9" transform="translate(20.627 35.637)"/></g></g><g transform="translate(-10416 -6824)"><path class="q" d="M152.8,81.145l-15.175,20.706-8.768-9.814-9.8,3.55,16.514,22.707c6.717,3.316,32.963-24.557,32.963-24.557Z" transform="translate(11500.322 8147.604)"/><path class="r" d="M91.446,512.5a64.331,64.331,0,0,1,.748,7.644c-.161,1.443-2.869,2.263-4.33,2.9s-2.851.249-3.885.641-4.1,4.74-9.443,6.094-7.27,1.212-7.983-1.354,11.654-12.615,12.83-13.827,4.347-3.421,5.452-3.6,5.239-.107,6.61,1.5" transform="translate(11601.174 7918.487)"/><path class="s" d="M68.935,506.5v-8.428h8.148V506.5a2.024,2.024,0,0,1-1.193,1.664,6.369,6.369,0,0,1-5.762,0,2.024,2.024,0,0,1-1.193-1.664" transform="translate(11615.179 7925.346)"/><path class="r" d="M159.273,448.892a64.331,64.331,0,0,1,.748,7.644c-.161,1.443-2.869,2.263-4.33,2.9s-2.851.25-3.885.642-4.1,4.74-9.443,6.094-7.27,1.211-7.983-1.355,11.654-12.615,12.83-13.827,4.347-3.421,5.452-3.6,5.239-.107,6.611,1.5" transform="translate(11501.678 7952.396)"/><path class="s" d="M136.762,442.888V434.46h8.148v8.428a2.023,2.023,0,0,1-1.193,1.664,6.369,6.369,0,0,1-5.762,0,2.024,2.024,0,0,1-1.193-1.664" transform="translate(11515.682 7959.255)"/><path class="t" d="M96.633,245.2s1.568,12.116,0,17.96l-1.425,4.134s-1.568,93.223-1.853,97.927-9.408,3.706-11.261,1.14-6.557-52.313-8.553-61.721-5.416-29.221-5.416-29.221L56.294,246.2Z" transform="translate(11600.834 8060.149)"/><path class="t" d="M151.306,245.412,138.98,281.017l5.626,44.076s-5.7,4.276-11.546.713c-.791-9.375-13.057-28.447-14.836-47.224-2.386-25.19,5.714-49.848,5.714-49.848l25.23-3.991Z" transform="translate(11518.147 8071.054)"/><path class="q" d="M109.2,80.916,106,146.839l-.172,3.6a37.829,37.829,0,0,1-16.707,6.721,45.41,45.41,0,0,1-17.4-2.188h-.005c-11.84-3.648-21.471-10.416-21.382-11.777.136-1.994,2.115-15.383,2.115-23.506s6.731-41.59,8.416-46.741,6.893-9.51,12.305-8.8,13.666-.005,18.811,2.476,13.845,8.788,17.215,14.289" transform="translate(11591.75 8156.705)"/><path class="s" d="M95.66,55.965c1.743-.177,8.275-3.4,10.572-3.159L105.175,63.99c-14.25,9.4-18.649,2.473-18.649,2.473l-.817-8.7-1.647-5.285a7.244,7.244,0,0,0,1.4,1.488c2.9,2.382,7.629,2.261,10.2,2" transform="translate(11578.967 8162.886)"/><path class="s" d="M81.572,39.36c-.724-6-.742-15.586-.742-15.586s20.691-4.4,24.5.779a72.79,72.79,0,0,0-1.986,9.973c-.085,1.154-.054,2.747-.893,3.467,0,0-2.019,2.99-3.09,4.379-1.581,2.05-6.911,5.257-10.633,5.711a7.151,7.151,0,0,1-2.043-.017c-2.582-.427-4.39-2.69-5.118-8.706" transform="translate(11581.373 8179.117)"/><path class="u" d="M96.242.7s7.416-.305,8.549,4.231a29.087,29.087,0,0,1-2.875,21.462l-1.137-.144c-.581-1.3-2.372-4.379-2.372-4.379a13.225,13.225,0,0,0,.635-2.721l-2.227-1.593-.708.966L93.7,17.555a10.508,10.508,0,0,1,.122-2.922c-.014-.036-14.685-2.156-14.685-2.156C75.523,10.287,76.7,7.916,76.7,7.916l1.527-3.424C80.827.407,83.9,0,89.328,0Z" transform="translate(11583.05 8190.862)"/><rect class="a" width="107.447" height="258.255" transform="translate(11617 8190.862)"/><g class="v" transform="translate(11663.47 8248.293)"><rect class="d" width="34.279" height="66.128" transform="translate(0 0)"/></g><path class="q" d="M52.076,97.246l4.61,9.579s1.79,18.934,2.421,26.34l-3.418,36.707-8.216,1.758-2.779-35.1-7.443-30.8Z" transform="translate(11647.947 8139.021)"/><path class="w" d="M93.427,339.884l-6.255-3.635-.083-29.1,6.255,3.635Z" transform="translate(11590.357 8027.122)"/><path class="x" d="M6.431,283.984.177,280.349l40.663-23.477,6.255,3.635Z" transform="translate(11677.271 8053.926)"/><path class="y" d="M40.663,264.657l.083,29.1L.082,317.23,0,288.134Z" transform="translate(11683.702 8049.776)"/><path class="y" d="M40.663,264.657l.083,11.726L.082,299.86,0,288.134Z" transform="translate(11683.702 8049.776)"/><path class="z" d="M40.663,289.6l.083,2.512L.082,315.594,0,313.081Z" transform="translate(11683.702 8036.477)"/><path class="aa" d="M43.248,313.381l-5.434,3.138v-4.542l5.434-3.138Z" transform="translate(11663.543 8026.223)"/><path class="w" d="M41.717,270.164a.3.3,0,0,0-.127-.279l-2.346-1.363a.305.305,0,0,1,.128.279l.014,5.03,2.346,1.363Z" transform="translate(11664.393 8047.715)"/><path class="x" d="M51.406,265.572a1.648,1.648,0,0,1,.332-.072l.029,0a1.2,1.2,0,0,1,.325.016l.017,0a.991.991,0,0,1,.292.11l-2.346-1.363-.011-.007a.958.958,0,0,0-.1-.049,1.079,1.079,0,0,0-.107-.038c-.024-.007-.049-.011-.073-.017l-.016,0-.024-.006a1.142,1.142,0,0,0-.122-.014,1.276,1.276,0,0,0-.134,0l-.045,0-.029,0c-.026,0-.05,0-.077.008a1.6,1.6,0,0,0-.178.038c-.026.007-.052.019-.078.027l-.071.025c-.03.011-.059.018-.09.031a2.527,2.527,0,0,0-.283.141l-9.442,5.451a3.328,3.328,0,0,0-.613.475c-.02.018-.043.029-.062.048s-.049.054-.075.08l-.068.072c-.026.029-.053.055-.079.085-.056.064-.111.132-.164.2l-.05.068-.029.039L37.98,271c-.041.057-.079.116-.117.175s-.071.113-.1.171l-.006.01-.005.009c-.028.049-.057.1-.084.151s-.059.113-.087.171-.045.1-.067.148l-.007.014-.006.013c-.026.06-.05.12-.074.181s-.047.126-.068.19c-.01.03-.018.06-.028.091,0,.014-.008.027-.012.041s-.016.049-.022.073c-.021.077-.04.154-.056.23-.01.045-.015.09-.023.136,0,.024-.009.049-.013.073s-.009.046-.012.069a2.958,2.958,0,0,0-.026.392l.014,5.03,2.345,1.363-.014-5.03a3.062,3.062,0,0,1,.037-.46c0-.025.008-.049.013-.073a3.866,3.866,0,0,1,.1-.439l.013-.041a4.411,4.411,0,0,1,.176-.474l.005-.012a4.9,4.9,0,0,1,.239-.471l.005-.009a4.863,4.863,0,0,1,.282-.431l.028-.038c.092-.124.191-.241.294-.353l.068-.072c.044-.045.091-.085.136-.127a3.362,3.362,0,0,1,.614-.475l9.441-5.451a2.306,2.306,0,0,1,.373-.172l.071-.024" transform="translate(11654.694 8050.058)"/><path class="y" d="M47.331,267.324c1.112-.642,2.022-.132,2.025,1.146l.014,5.03-1.573.908-.014-5.03c0-.276-.2-.39-.448-.247l-9.441,5.451a.973.973,0,0,0-.445.762l.014,5.03-1.573.908-.014-5.03a4.431,4.431,0,0,1,2.012-3.477Z" transform="translate(11658.326 8048.501)"/><path class="s" d="M50.364,252.792l2.148,7.846a16.9,16.9,0,0,1-.32,3.264l-.577,2.524c-.484.878-5.936,3.408-5.936,3.408-1.616.671-2.556.3-2.683-1.456l.02-3.976-.9,1.112c-.55.681-1.392.722-1.687.083a7.015,7.015,0,0,1,.539-6.1l1.091-2.015.089-2.932Z" transform="translate(11653.271 8056.101)"/><path class="ab" d="M178.541,78.943l13.01,3.743V57.856l-13.01-3.743Z" transform="translate(11449.534 8162.015)"/><path class="s" d="M190.7,90s-1.877-4.6-2.891-6.649c-1.047-2.121-1.31-4.57.231-6.11S197.8,71.3,200.8,71.3s6.308,2.567,6.308,5.941-.88,6.015-4.107,6.6-4.181.88-4.181.88l-.793,2.622Z" transform="translate(11430.045 8152.851)"/><rect class="a" width="107.447" height="258.255" transform="translate(11617 8190.862)"/></g><g transform="translate(726.619 1289.787)"><g class="ac"><g class="ad"><g class="ae" transform="translate(91.898 234.665)"><g class="af"><path class="ag" d="M69.81,94.3,68.8,96.312c-7.9-6.226-31.63-1.684-32.164,10.052-.871,19.056,33.339,17.716,45.049,17.111,9.766-.5,23.49-3.061,15.066-16.16C92.2,100.229,76.959,98.507,69.81,94.3" transform="translate(-36.622 -93.517)"/></g></g><g class="ae" transform="translate(1.258 276.025)"><g class="af"><path class="ag" d="M33.688,110.781l-1,2.012c-7.9-6.226-31.63-1.684-32.167,10.052C-.353,141.9,33.856,140.562,45.567,139.96c9.766-.5,23.492-3.061,15.068-16.162-4.559-7.086-19.8-8.808-26.947-13.016" transform="translate(-0.502 -110.001)"/></g></g><path class="ah" d="M37.407,45.747l-1.049,4.007s-4.9,6.773-5.091,7.892,1.671,12.767,4.492,13.385,3-.527,2.015-1.8l1.739.928s1.257-1.119.384-2.3l-1.531-.253,3.076.354s.542-.974-.71-1.887l-.256-7.044L41.7,56.718s1.571-2.411,1.4-3.423l2.745-4.15s-.542-5.623-8.436-3.4" transform="translate(47.169 68.26)"/><path class="ai" d="M33.858,46l-.78,3.066a12.964,12.964,0,0,1,8.178,3.061l1.89-3.182A8.922,8.922,0,0,0,33.858,46" transform="translate(49.925 68.947)"/><path class="aj" d="M69.1,36.825c-4.59-.279,2.143-21.72,2.143-21.72a15.454,15.454,0,0,0-12.9,7.47c-3.872,6.205-13.716,32.9-13.716,32.9L33.079,92.634C38.15,91.9,43,96.25,43,96.25l11.3-26.1L62.817,51.79,73.14,36.624a19.833,19.833,0,0,1-4.042.2" transform="translate(49.926 22.794)"/><g class="ak" transform="translate(83.005 39.752)"><g class="al"><path d="M58.345,21.459c-3.872,6.205-13.716,32.894-13.716,32.894L33.079,91.518a11.57,11.57,0,0,1,7.159,1.706C41.974,68.6,51.184,43.393,60.159,21.647a15.485,15.485,0,0,1,4.1-5.8,15.644,15.644,0,0,0-5.917,5.616" transform="translate(-33.078 -15.84)"/></g></g><path class="am" d="M54.348,107.444c-1.96,1.982-6.306,4.84-6.805,7.583l-.075.414c2.941,6.165,11.063,3.922,11.063,3.922L76.6,109.3a4.717,4.717,0,0,0,2.414-4.118V99.263l-14.338-2.15Z" transform="translate(71.643 146.572)"/><path class="am" d="M43.179,102.094c-9.746,5.167-6.366,9.337-2.361,10.685,4.554,1.528,14.935-5.518,14.935-5.518l9.676-3.307a4.716,4.716,0,0,0,2.414-4.115V93.916L53.5,91.763Z" transform="translate(55.595 138.498)"/><path class="am" d="M54.715,49.457c-4.431-2.178-6.376.524-11.016-2.138,0,0,.256,21,0,26.626-1.024,22.33-.986,85.171-.986,85.171s2.941,8.268,17.5,3.784l4.963-82.365,3.443,92.051s3.98,10.24,19.527,1.972l6.8-122.333c-.289.005-28.312,3.094-40.237-2.768" transform="translate(64.467 71.419)"/><g class="ak" transform="translate(107.968 119.763)"><g class="an"><path d="M54.241,48.841c-3.508-1.724-5.478-.424-8.439-1.114C52.452,52.078,57.029,59.5,56.685,70.04c-.805,24.488-1.6,51.471-9.242,75.7-.213,1.24-.4,2.487-.63,3.726a34.024,34.024,0,0,1-3.787,10.388c1.591,2.135,6,5.729,16.714,2.432l3.5-58.045c.053-8.08.356-16.155,1.084-24.232a21.676,21.676,0,0,1,.848-2.778A44.965,44.965,0,0,1,78.039,97.582c4.637,15.929,2.253,31.4,1.566,47.531-.472,11.051-1.1,21.678-2.9,32.029,2.775.055,6.351-.745,10.966-3.2l6.8-122.333c-.286.005-28.31,3.094-40.234-2.768" transform="translate(-43.027 -47.728)"/></g></g><path class="ai" d="M87.725,24.655,74.917,16.289,66.98,14.9H60.19A4.9,4.9,0,0,1,58.3,17.458a38.368,38.368,0,0,1-10.808,4.921C44.77,36.606,45.676,50.2,46.15,64.829A202.53,202.53,0,0,1,44.4,99.587c3.337,2.547,9.754,5.872,21.487,7.453,21.354,2.878,22.486-6.81,22.486-6.81l8.236-60.168C96.979,33.086,93.85,28,87.725,24.655" transform="translate(67.019 22.49)"/><path class="aj" d="M49.855,26.813c-2.075,6.514-1.724,40.593-1.724,40.593l-6.993,74.012s6.9,6.82,12.178,1.242c2.8-2.961,5.139-46.2,8.022-47.626-.138-10.8-.151-21.6-.093-32.4.045-8.082-2.938,4.065-3.332-4-.389-8.035-1.4-31.361,5.6-43.722-9.3-.038-11.515,5.192-13.656,11.9" transform="translate(62.09 22.505)"/><g class="ak" transform="translate(118.553 77.31)"><g class="ao"><path d="M52.028,38.642c.045-8.085-2.938,4.065-3.332-4.007-.05-1.036-.11-2.336-.163-3.824a68.736,68.736,0,0,0-.969,6.815c-1.014,12.2.705,40.214.823,41.888.221,3.162.279,6.386.284,9.626,1.1-9.377,2.228-17.5,3.448-18.1q-.2-16.2-.09-32.4" transform="translate(-47.246 -30.809)"/></g></g><g class="ak" transform="translate(103.228 59.577)"><g class="ap"><path d="M48.643,23.743c-.7,12.338-.509,30.332-.509,30.332l-7,74.012s3.112,3.059,6.753,3.393c-1.691-14.228,1.684-30.363,2.434-44.512.843-15.914,2.778-33.615.256-49.38-.725-4.529-1.528-9.2-1.937-13.844" transform="translate(-41.138 -23.742)"/></g></g><path class="aj" d="M82.248,23.108l-11-7.182c-2.369,3.8-4.758,7.583-7.232,11.314-2.038,3.071-15.61,27.733-15.61,27.733s-.005-.246-.013-.7c-.06.13-.123.256-.188.381-.918,15.495,2.138,72.667-.02,88.021.4,5.069,13.553,11.869,21.628,11.071,17.352-1.709,19.517-7.2,19.517-7.2l1.8-108.035c.366-6.976-2.763-12.062-8.888-15.407" transform="translate(72.495 24.037)"/><path class="ah" d="M61.38,53.788l.243,14.88.005.038a13.843,13.843,0,0,1,3.445-.223c.469.005.936-.02,1.4-.06a39.522,39.522,0,0,1,4.544-.805L70.762,56.5Z" transform="translate(92.641 81.182)"/><path class="ah" d="M63.4,53.376,60.3,64.364l.519,11.866s2.519.241,2.512-3.352l-.153-4.1,2.409-1.736Z" transform="translate(91.009 80.56)"/><path class="ai" d="M70.942,53.558a10.552,10.552,0,0,1-9.841-.9l.178,5.021c6.973,5.275,10.16-.191,10.16-.191l.422-4.04-.015.005c-.3.045-.6.07-.9.105" transform="translate(92.22 79.475)"/><path class="aj" d="M65.9,19.654c-7.691-.01-6.828,19.487-6.828,19.487l3.119,29.582,1.378,35.549c6.973,5.272,12.632,1.034,12.632,1.034l2.211-35.251-1.749-34.2s-.693-16.187-10.762-16.2" transform="translate(89.116 29.664)"/><g class="ak" transform="translate(148.162 54.597)"><g class="aq"><path d="M60.653,21.758c-1.94,5.771-1.581,14.205-1.581,14.205l3.119,29.582,1.38,35.549a13.262,13.262,0,0,0,4.073,2.145c-.457-8.765-.008-17.63.008-26.792.025-18.606-6.3-36.156-7-54.69" transform="translate(-59.044 -21.758)"/></g></g><path class="ah" d="M49.776,10.287V24.221a8.517,8.517,0,1,0,17.033,0L65.554,10.287Z" transform="translate(75.127 15.526)"/><path class="ah" d="M61.446,64.447l1.27,5.33-.284,4.434-.276,1.423a1.3,1.3,0,0,0,2.319,1.019c.223-.336,2.2-3.3,2.2-3.3l3.478-2.539,1.674-4.707-.906-9.862Z" transform="translate(92.74 84.889)"/><path class="ai" d="M51.4,25.854l2.1,6.6s9.726-1.6,14.18-12.652l-3.736-5.786S61.267,23.619,51.4,25.854" transform="translate(77.578 21.15)"/><path class="ai" d="M50.879,15.1c-3.332,3.325-1.107,13.746-1.107,13.746,1.036-1.729,5.182-4.637,5.182-4.637A10.131,10.131,0,0,1,50.879,15.1" transform="translate(74.023 22.793)"/><g class="ak" transform="translate(119.63 37.04)"><g class="ar"><path d="M76.2,20.565l-5.425-5.8C63.565,26.367,51.623,46.734,47.887,57.718c-.637,1.882.364,6.524.364,6.524,1.972-5.382,6.647-8.2,11.947-14.265a118.536,118.536,0,0,1,14.845-13.9L71.4,34.519h3Z" transform="translate(-47.675 -14.761)"/></g></g><path class="aj" d="M76.188,20.565l-5.425-5.8C63.549,26.367,51.607,46.734,47.871,57.718c-.637,1.882.572,6.875.572,6.875,1.972-5.385,5.021-8.823,10.323-14.893A118.758,118.758,0,0,1,73.611,35.8l-3.646-1.558h3Z" transform="translate(71.971 22.279)"/><g class="ak" transform="translate(115.044 36.34)"><g class="as"><path d="M46.673,26.369,49.1,27.42H45.847s1.235,29.286,5.162,37.243c0,0-1.854-26.676,5.086-44.068V14.482s-8.17,4.494-9.422,11.887" transform="translate(-45.847 -14.482)"/></g></g><path class="aj" d="M47.21,26.409l2.426,1.051H46.384s.151,29.263,4.078,37.22c0,0-2.115-26.694,4.825-44.083V14.482s-6.825,4.534-8.077,11.927" transform="translate(70.007 21.858)"/><path class="ah" d="M48.046,22.455c0,7.259,3.636,10.421,10.516,10.421,0,0,12.747-3.96,12.747-11.089l1.435-13.2L48.046,4.18Z" transform="translate(72.516 6.309)"/><path class="at" d="M52.72,3.142c-10.685,6.71-3.107,10.24-3.107,10.24s17.352.422,17.5,3.347c.043.858-.856,6.017-.856,6.017l2.05,1.5,1.43-2.416.735,12.163a26,26,0,0,0,6.369-11.871c.843-3.388,2.8-10.619-.048-14.208C70.965.557,62.511-3.008,52.72,3.142" transform="translate(70.946 0)"/><path class="ah" d="M56.064,9.563V15.6c2.524,1.159,4.6-2.286,4.2-5.413-.534-4.243-4.2-.627-4.2-.627" transform="translate(84.617 12.266)"/><path class="au" d="M53.312,19.086l-2.171,1.777-1.807,1.97.632,3.734,3.521.577,2.788-3.43-1.29-4.047Z" transform="translate(74.46 28.807)"/><path class="au" d="M48.4,32.568a104.526,104.526,0,0,0-.567,13.711l6.742-14.77L55.8,22.644l-3.518-.577s-3.591,8.095-3.874,10.5" transform="translate(72.151 33.306)"/><path class="av" d="M46.089,50.187l-.823,1.345c-1.99.959-5.877,3.242-6.8,3.139-1.95-.218-.555-3.342-.881-4.808a1.87,1.87,0,0,0-1.784-1.47s-.552,2.055-1,3.139-1.869,3.691-1.869,3.691l-.595,5.347-3.32,3.094,4.577,5.021,3.864-2.552s6.637-3.222,7.3-4.83,5.121-10.532,1.327-11.116" transform="translate(43.797 73.039)"/><path class="ah" d="M32.778,54.748l.753,4.218a2.462,2.462,0,0,0,2.68-2.77L35.942,53.7a1.184,1.184,0,0,1,.821-1.039c4.09-1.6,4.549-4.223,4.549-4.223s-6.554,1.021-8.68,2.738c-.514.417.141,3.362.146,3.568" transform="translate(48.955 73.113)"/><path class="at" d="M61.573,15.786a13.045,13.045,0,0,1-5.28,2.745,11.582,11.582,0,0,1-3.528.873,3.184,3.184,0,0,1-2.326-1.5c-1.767-2.216-2.319-7.488-2.319-7.488L47.9,16.12c.1,6.552,2.5,9.151,4.66,9.874,4.048,1.358,7.36-1.541,9.252-3.134C66.168,19.2,66.276,9.9,66.276,9.9l-1.327-.964c-.8,3.955-2.145,5.839-3.375,6.848" transform="translate(72.303 13.49)"/><path class="at" d="M49.72,11.725c-.417.319.208,1.483.8,2.221S57.8,15.624,57.8,15.624s-4.025-7.011-8.077-3.9" transform="translate(74.839 16.495)"/><path class="at" d="M47.578,13.786s4.627.861,5.418.346,1.079-1.528.77-1.952c-2.9-3.985-6.188,1.606-6.188,1.606" transform="translate(71.809 16.22)"/><path class="e" d="M6.9,37.221S4.506,53.679.059,81.7c-1.064,6.727,12.306,11,12.306,11L12.1,74.622Z" transform="translate(-0.002 56.178)"/><g class="aw" transform="translate(1.97 108.058)"><g class="ax"><path class="e" d="M7.754,43.063A169.769,169.769,0,0,1,.786,77.9c3.48,3.749,10.391,5.972,10.391,5.972L10.909,65.8Z" transform="translate(-0.784 -43.063)"/></g></g><path class="am" d="M34.436,116.031c-.931.068-8.981,1.618-8.981,1.618l-10.634,2.2-.848,5.593c1.051,3.749,6.15,3.139,7.387,3.051s14.275-4.411,14.275-4.411c1.955-.979,3.741-2.043,4.3-3.016,2.743-4.725-4.733-5.089-5.5-5.036" transform="translate(21.089 175.118)"/><path class="am" d="M16.283,112.539c-.888.284-4.768,1.553-4.768,1.553l-9.821,4.647L1.4,123.951c.991,4.7,7.5,2.025,8.682,1.649s9.259-5.52,9.259-5.52c3.92-1.513,4.728-3.792,5.049-4.873,1.551-5.234-7.375-2.9-8.113-2.667" transform="translate(2.121 168.769)"/><path class="ay" d="M7.976,65.682a50.707,50.707,0,0,0-2.04,25.63l.386,49.86-4.8,52.351C10.978,199.861,13.979,189,13.979,189l10.243-47.5L38.843,73.189,9.168,62.269Z" transform="translate(2.294 93.983)"/><g class="az" transform="translate(13.465 183.759)"><g class="ba"><path d="M5.643,76.842c-1.184.233,1.882,3.041.783,2.74,11.553,16.1,9.079,33.025,7.174,52.773-1.212,12.562-2.4,27.148-5.641,40.728.143-.381.216-.627.216-.627l10.243-47.5L29.488,73.231C22.553,74.639,15.522,75.6,8.541,76.89a6.994,6.994,0,0,1-2.9-.048" transform="translate(-5.366 -73.232)"/></g></g><path class="ay" d="M26.847,72.551,3.977,88.4l13.415,9.2s9.207,38.282,8.486,41.263,2.617,59.563,3.593,60.145,8.527,2.5,10.624-4.69l3.167-59.28c.018-15.884-4.878-69.716-4.878-69.716Z" transform="translate(6.002 98.593)"/><g class="az" transform="translate(36.937 163.917)"><g class="bb"><path d="M14.752,69.97c-.494,1.556,4.918,4.8,5.523,66.89.2,21.028.555,41.725-2.108,62.622l.005.088a6.778,6.778,0,0,0,5.709-5.249l3.167-59.28c.018-15.884-4.878-69.718-4.878-69.718Z" transform="translate(-14.72 -65.325)"/></g></g><path class="q" d="M30.856,40.082A129.343,129.343,0,0,0,9.59,35.9C.619,38.682,2.233,51.688,1.816,53.851S8.7,96.662,8.7,96.662l-3.122,15.5s-2.866-.311,12.89,3.147,24.052-1.295,24.052-1.295L41.107,95.2l-1.27-20.99s5.272-5.217,6.587-10.479c.6-2.394-.928-5.227-5.089-10.775-1.8-2.394-3.292-10.78-10.479-12.873" transform="translate(2.716 54.187)"/><path class="e" d="M57.169,78.192c-7.673,2.858-9.636,2.936-14.717,4.6C37.98,72.514,24.99,43.4,22.485,41.336,9.294,30.5,8.95,48.015,13.178,56.7c2.527,5.184,11.3,20.769,16.584,30.235-.07.043,6.62,8.537,7.154,9.4,3.518,3.749,26.142-11.194,26.142-11.194-1.287-2.662-2.426-5.2-5.889-6.946" transform="translate(16.261 57.207)"/><path class="ah" d="M5.983,45.41c.058,4.717,13.53,6.514,13.47,1.8l3.3-17.415-15.816.2Z" transform="translate(9.03 44.965)"/><path class="ah" d="M4.474,27.992,6.08,41.206c.09,7.144,12.913,10.951,12.913,10.951,6.9-.085,11.889-3.32,11.8-10.6l-.228-18.315Z" transform="translate(6.753 35.082)"/><path class="bc" d="M27.448,20.238C23.431,18.542,9.2,18.2,6.955,28.223-1.3,65.11,4.388,71.094,4.388,71.094s12.125,3.44,15.267.9c4.321-3.5,10.6-25.537,10.534-31.105S33.636,34.4,33.636,34.4c8.539-6.113-.479-11.751-6.188-14.162" transform="translate(3.74 29.16)"/><path class="ah" d="M12.185,29.55c-.356,3.142,1.764,6.567,4.283,5.375L16.39,28.87s-3.726-3.578-4.206.68" transform="translate(18.331 41.451)"/></g></g></g><g transform="translate(35 -1)"><g transform="translate(-555.944 1306.575)"><g transform="translate(814.586 142.928)"><path class="bd" d="M1016.436,163.823,927.25,143a1.747,1.747,0,0,0-1.9.613v0l-4.936,3.842,4.267,10.326V271.594c0,1.931,1.159,3.844,2.574,4.251l77.84,22.369,7.689,6.978,5.012-3.815-.02-.036a2.892,2.892,0,0,0,1.241-2.638V168.073C1019.011,166.142,1017.852,164.229,1016.436,163.823Z" transform="translate(-919.791 -142.928)"/><path class="be" d="M1009.331,317.307,920.4,293.5c-1.412-.378-2.567-2.267-2.567-4.2V161.419c0-1.931,1.155-3.2,2.567-2.824l88.927,21.06c1.412.378,2.567,2.267,2.567,4.2v130.63C1011.9,316.414,1010.743,317.685,1009.331,317.307Z" transform="translate(-917.837 -154.781)"/><path class="bf" d="M1029.122,340.157l-82.11-21.983V200.647L1029.122,220Z" transform="translate(-940.004 -186.783)"/></g><path class="bg" d="M988.761,228.583,902.981,209.85c13.927,79.813-5.176,129.493-5.176,129.493l76.885,21.37C994.952,301.1,988.761,228.583,988.761,228.583Z" transform="translate(-88.031 -50.847)"/><path class="bh" d="M900.73,221.263l-87.559-21.047c5.077,78.377-31.227,127.254-31.227,127.254L871.2,352.832C906.836,300.963,900.73,221.263,900.73,221.263Z" transform="translate(0 -43.527)"/><line class="bi" x2="23.666" y2="6.202" transform="translate(862.117 201.637)"/><line class="bi" x2="23.666" y2="6.202" transform="translate(859.902 218.524)"/><line class="bi" x2="52.271" y2="13.698" transform="translate(824.036 226.952)"/><line class="bi" x2="52.271" y2="13.698" transform="translate(815.595 244.696)"/><g transform="translate(818.906 186.561)"><ellipse class="bj" cx="12.067" cy="14.214" rx="12.067" ry="14.214" transform="matrix(0.825, -0.565, 0.565, 0.825, 0, 13.634)"/><path class="bi" d="M949.9,331.513a14.106,14.106,0,0,1,9.23-1.517c9,1.447,16.3,10.273,16.3,19.712s-7.3,15.918-16.3,14.471-16.3-10.272-16.3-19.712a14.977,14.977,0,0,1,4.311-10.886" transform="translate(-941.147 -328.542)"/><path class="bk" d="M986.854,383.214l4.07,7.977,7.388-9.8" transform="translate(-974.596 -367.746)"/></g><g transform="translate(830.351 151.458)"><path class="bl" d="M1036.89,192.346l-.77-.186c-.616-3.864-3.478-7.414-6.817-8.22l-22.111-5.335c-3.339-.806-6.058,1.4-6.488,5.01l-.77-.186c-3.708-.895-6.653,1.92-6.545,6.256h0c.108,4.335,3.229,8.614,6.937,9.509l36.955,8.916c3.708.895,6.653-1.921,6.545-6.256h0C1043.719,197.519,1040.6,193.24,1036.89,192.346Z" transform="translate(-991.005 -178.44)"/><path class="bm" d="M1026.974,200.537l-.77-.186c-.615-3.864-3.478-7.414-6.816-8.22L997.277,186.8c-3.339-.806-6.058,1.4-6.488,5.01l-.77-.186c-3.708-.895-6.653,1.92-6.545,6.256h0c.108,4.335,3.229,8.614,6.937,9.508l36.955,8.916c3.708.895,6.653-1.92,6.545-6.256h0C1033.8,205.71,1030.682,201.431,1026.974,200.537Z" transform="translate(-983.471 -184.663)"/><line class="bn" x2="31.16" y2="8.074" transform="translate(9.185 10.727)"/></g><line class="bi" x2="52.271" y2="13.698" transform="translate(807.155 262.439)"/><g transform="translate(839.32 235.25)"><g transform="translate(29.463 6.629)"><path class="bo" d="M1144.254,599.578h0a1.48,1.48,0,0,1-.668-1.864l11.929-26.152a7.213,7.213,0,0,0,.34-5.149,7.684,7.684,0,0,0-3.617-4.435l-8.557-4.709,1.091-2.391,8.3,4.567a11.218,11.218,0,0,1,5.082,5.68,9.723,9.723,0,0,1-.118,7.576l-12.019,26.349A1.234,1.234,0,0,1,1144.254,599.578Z" transform="translate(-1143.469 -554.878)"/></g><path class="bo" d="M1050.684,541.645l-26.569,65.727c-1.215,2.844-.9,5.345,2.191,6.369h0c3.057,1.012,5.082-.332,6.283-3.143l29.011-64.745C1064,540.867,1053.08,536.658,1050.684,541.645Z" transform="translate(-1022.819 -536.494)"/><path class="bp" d="M1060.132,541.4c-2.524-.691-5.292-.3-6.362,1.925L1027.2,609.057c-.856,2-.949,3.835.151,5.1a6.9,6.9,0,0,1-1.046-.26c-3.095-1.024-3.406-3.525-2.191-6.369l26.569-65.727C1052.237,538.571,1057.364,539.2,1060.132,541.4Z" transform="translate(-1022.819 -536.614)"/><path class="bp" d="M1030.308,832.489a34.409,34.409,0,0,1-5.925,6.983c-.8.76-3.5-.328-3.534-1.371a21.045,21.045,0,0,1,.66-7.42C1023.827,834.21,1026.84,834.435,1030.308,832.489Z" transform="translate(-1020.81 -757.804)"/><path class="bh" d="M1024.448,862.243l-1.216.886-1.359.974a.412.412,0,0,1-.656-.245l-.177-1.52-.144-1.687C1021.54,862.276,1022.881,862.651,1024.448,862.243Z" transform="translate(-1020.875 -780.574)"/><path class="bp" d="M1154.908,530.969c-.005.014-.012.026-.018.04h0l-1.661,4.079c-.463,1.137-2.4,1.491-4.321.79s-3.108-2.191-2.645-3.328l1.661-4.078h0c.005-.014.009-.027.015-.041.463-1.138,2.4-1.491,4.321-.791S1155.371,529.831,1154.908,530.969Z" transform="translate(-1116.054 -527.28)"/></g><path class="bq" d="M865.8,741.081l-1.057-4.345a3.956,3.956,0,0,1-2.52-.7" transform="translate(-60.996 -450.643)"/><path class="bq" d="M1143.341,543.595s-.857,4.514,5.342,5.039" transform="translate(-274.558 -304.426)"/><path class="bq" d="M1032.52,832.489s-5.782,3.463-8.8-1.807" transform="translate(-183.702 -522.554)"/><ellipse class="bl" cx="5.018" cy="6.178" rx="5.018" ry="6.178" transform="translate(849.703 154.564) rotate(-57.676)"/><ellipse class="bm" cx="5.018" cy="6.178" rx="5.018" ry="6.178" transform="translate(847.669 156.92) rotate(-57.676)"/><path class="br" d="M1263.222,521.881l11.537,3.179-1.7,9.071-13.853-3.84,1.491-9.043Z" transform="translate(-362.626 -287.446)"/><path class="bs" d="M1270.185,584.039l11.537,3.179-1.7,9.071-13.853-3.84,1.1-9.141Z" transform="translate(-367.917 -334.6)"/><line class="bq" y1="2.621" x2="4.578" transform="translate(907.81 165.722)"/></g><g transform="translate(-12517 -7245)"><path class="bt" d="M296.941,594.959l-22.87,28.922a11.953,11.953,0,0,0-1.813,11.618l14.753,39.268,8.825-8.422-.675-35.574Z" transform="translate(12404.506 8127.009)"/><path class="q" d="M297.979,820.257l7.61.884c5.013-1.735,7.324-3.459,9.669-.973l.665.7c1.078,1.8.792,4.947-.878,6.315l-12.3,10.353c-2.562,1.345-7.427.339-8.322-3.393,0,0-.858-10.5.321-11.078C297.113,821.913,295.93,821.333,297.979,820.257Z" transform="translate(12402.145 8103.637)"/><path class="bu" d="M305.5,826.166c-.048,4.023-9.836,3.906-9.788-.118l.158-13.078,9.788.118Z" transform="translate(12401.979 8104.259)"/><path class="at" d="M308.709,798.38c-3.724,4.561-12.179,4.492-13.788,1.4.2-18.218-4.691-37.613,4.142-62.666l-3.017-75.977,33.9,6.761L316.8,748.12Z" transform="translate(12402.184 8120.103)"/><path class="q" d="M333.73,834.332l9.868,1.653c7.23-.98,10.853-2.256,13.2.229l.665.7c.871,1.731-.5,4.506-3.155,5.538L334.654,850.3c-3.839.911-7.869-.414-7.891-3.847,0,0,.021-9.6,1.773-9.981C332.054,835.712,330.66,835.06,333.73,834.332Z" transform="translate(12398.738 8102.029)"/><path class="bu" d="M339.128,838.039c-.049,4.023-9.837,3.906-9.789-.118l.158-13.078,9.788.118Z" transform="translate(12398.47 8103.02)"/><path class="at" d="M340.164,810.279c-3.421,4.629-11.909,4.553-13.737,1.415-1.061-18.5-7.3-38.2-.17-63.636L317.985,670.9l34.48,6.891-7.655,81.453Z" transform="translate(12399.654 8119.084)"/><path class="bt" d="M339.44,570.446c.168,7.925-6.816,12.978-12.875,9.65s-11.11-12.45-11.279-20.375,4.606-11.651,10.665-8.323S339.271,562.521,339.44,570.446Z" transform="translate(12399.937 8131.682)"/><path class="bt" d="M321.874,598.034l-.82-.17a5.153,5.153,0,0,1-3.991-6.073l3.227-15.6a5.154,5.154,0,0,1,6.073-3.992l.82.17a5.153,5.153,0,0,1,3.991,6.073l-.9,15.451C329.7,596.656,324.641,598.606,321.874,598.034Z" transform="translate(12399.762 8129.396)"/><path class="bv" d="M311.9,578.517s1.738,5.261,11.4,3.689c7.293-1.186,1.412-13.505,7.972-16.953,8.87-4.661,4.851-13.369.693-16.074s-9.174-.776-15.35,1.635C310.083,553.365,301.289,558.954,311.9,578.517Z" transform="translate(12400.806 8131.923)"/><path class="bt" d="M333.019,571.5a3.49,3.49,0,1,1-3.563-3.414A3.489,3.489,0,0,1,333.019,571.5Z" transform="translate(12398.813 8129.813)"/><path class="bv" d="M331.048,573.512h0a1.168,1.168,0,0,1-1.356-.934l-2.426-7.292c-.116-.63,1.553-.337,2.183-.453h0c.63-.116,2.414-.78,2.529-.15l0,7.473A1.167,1.167,0,0,1,331.048,573.512Z" transform="translate(12398.687 8130.196)"/><path class="bt" d="M5.845,0h0a5.845,5.845,0,0,1,5.845,5.845V9.814a5.845,5.845,0,0,1-5.845,5.845h0A5.844,5.844,0,0,1,0,9.815V5.845A5.845,5.845,0,0,1,5.845,0Z" transform="matrix(-0.664, 0.748, -0.748, -0.664, 12751.452, 8715.333)"/><path class="bt" d="M352.346,588.414s16.4,27.255,16.239,43.592c-.1,9.851-12.476,3.721-12.476,3.721l-11.843-41.764Z" transform="translate(12396.912 8127.692)"/><path class="bw" d="M332.162,620.005l17.677,24.482c3.819,8.276,27.538.015,18.188-15.28-.359-.588-19.43-27.976-19.43-27.976S332.408,607.774,332.162,620.005Z" transform="translate(12398.175 8126.354)"/><path class="bu" d="M294.08,616.97l-5.232,65.478s3.477,6.963,23.933,8.774a115.032,115.032,0,0,0,38.271-3.453l-.015-60.872-6.959-26.941s1.012-.874-14.942-6.778l-18.566-4.164s-10.047.095-11.817,5.325S294.08,616.97,294.08,616.97Z" transform="translate(12402.695 8127.629)"/><path class="ai" d="M313.079,588.973s-1.473,4.737,4.094,6.2,14.472-2.035,14.472-2.035S325.305,587.116,313.079,588.973Z" transform="translate(12400.185 8127.67)"/><path class="bw" d="M298.741,592.475l-23.132,26.436a5.51,5.51,0,0,0-.579,6.469c3.982,6.622,13.126,19.582,19.919,12.046C303.875,627.527,298.741,592.475,298.741,592.475Z" transform="translate(12404.219 8127.268)"/></g></g></g></svg>