<svg xmlns="http://www.w3.org/2000/svg" width="192.799" height="186.651" viewBox="0 0 192.799 186.651">
  <g id="Raggruppa_7750" data-name="Raggruppa 7750" transform="translate(-90.634 -95.716)">
    <g id="Raggruppa_7749" data-name="Raggruppa 7749" transform="translate(90.634 95.716)">
      <g id="Raggruppa_7473" data-name="Raggruppa 7473" transform="translate(7.719 13.64)">
        <g id="Raggruppa_7472" data-name="Raggruppa 7472">
          <g id="Raggruppa_7471" data-name="Raggruppa 7471">
            <g id="Raggruppa_7470" data-name="Raggruppa 7470">
              <path id="Tracciato_60052" data-name="Tracciato 60052" d="M121.926,249.435c-11-12.051-19.99-27.367-18.334-43.257,1.572-15.08,13.717-25.361,26.489-31.8,13.355-6.731,28.124-10.5,41.75-16.739a278.554,278.554,0,0,0,41.044-23.129c5.89-4.018,11.65-8.285,18-11.526,11.452-5.844,26.8-7.274,37.163,1.6,10.816,9.27,14.85,25.322,11.648,38.957-3.658,15.577-13.43,29.356-14.481,45.611-.636,9.854,2.282,19.741,1.113,29.533a68.71,68.71,0,0,1-9.021,27.345c-5.708,9.47-14.281,17.356-24.573,21.4-14.209,5.586-30.259,3.541-45.025-.34-19.743-5.188-38.989-13.738-54.668-27A120.262,120.262,0,0,1,121.926,249.435Z" transform="translate(-103.395 -118.266)" fill="#ddf0fe"/>
            </g>
          </g>
        </g>
      </g>
      <g id="Raggruppa_7699" data-name="Raggruppa 7699" transform="translate(0 46.313)">
        <g id="Raggruppa_7664" data-name="Raggruppa 7664" transform="translate(53.766)">
          <g id="Raggruppa_7480" data-name="Raggruppa 7480" transform="translate(82.391 37.955)">
            <g id="Raggruppa_7479" data-name="Raggruppa 7479">
              <g id="Raggruppa_7478" data-name="Raggruppa 7478">
                <g id="Raggruppa_7477" data-name="Raggruppa 7477">
                  <g id="Raggruppa_7476" data-name="Raggruppa 7476">
                    <g id="Raggruppa_7475" data-name="Raggruppa 7475">
                      <g id="Raggruppa_7474" data-name="Raggruppa 7474">
                        <path id="Tracciato_60053" data-name="Tracciato 60053" d="M334.881,236.531l-5.814-1.5-12.33,6.1-1.013,3.642s4.861,8.254,5.215,8.332,11.4-.211,12.437-.725,5.065-8.385,5.024-8.877S334.881,236.531,334.881,236.531Z" transform="translate(-315.725 -235.027)" fill="#a0704e"/>
                      </g>
                    </g>
                  </g>
                </g>
              </g>
            </g>
          </g>
          <g id="Raggruppa_7487" data-name="Raggruppa 7487" transform="translate(73.459 32.976)">
            <g id="Raggruppa_7486" data-name="Raggruppa 7486">
              <g id="Raggruppa_7485" data-name="Raggruppa 7485">
                <g id="Raggruppa_7484" data-name="Raggruppa 7484">
                  <g id="Raggruppa_7483" data-name="Raggruppa 7483">
                    <g id="Raggruppa_7482" data-name="Raggruppa 7482">
                      <g id="Raggruppa_7481" data-name="Raggruppa 7481">
                        <path id="Tracciato_60054" data-name="Tracciato 60054" d="M324.055,233.038a23.179,23.179,0,0,0-13.611,8.628l-7.454-2.04-2.031-5,4.9-5.1,10.76-2.724,9.807,5.391Z" transform="translate(-300.96 -226.795)" fill="#b7835f"/>
                      </g>
                    </g>
                  </g>
                </g>
              </g>
            </g>
          </g>
          <g id="Raggruppa_7494" data-name="Raggruppa 7494" transform="translate(58.337 41.668)">
            <g id="Raggruppa_7493" data-name="Raggruppa 7493">
              <g id="Raggruppa_7492" data-name="Raggruppa 7492">
                <g id="Raggruppa_7491" data-name="Raggruppa 7491">
                  <g id="Raggruppa_7490" data-name="Raggruppa 7490">
                    <g id="Raggruppa_7489" data-name="Raggruppa 7489">
                      <g id="Raggruppa_7488" data-name="Raggruppa 7488">
                        <path id="Tracciato_60055" data-name="Tracciato 60055" d="M280.573,241.164l-4.614,12.689s9.1,3.288,11.1-6.031Z" transform="translate(-275.959 -241.164)" fill="#e0a47c"/>
                      </g>
                    </g>
                  </g>
                </g>
              </g>
            </g>
          </g>
          <g id="Raggruppa_7501" data-name="Raggruppa 7501" transform="translate(58.337 42.32)">
            <g id="Raggruppa_7500" data-name="Raggruppa 7500">
              <g id="Raggruppa_7499" data-name="Raggruppa 7499">
                <g id="Raggruppa_7498" data-name="Raggruppa 7498">
                  <g id="Raggruppa_7497" data-name="Raggruppa 7497">
                    <g id="Raggruppa_7496" data-name="Raggruppa 7496">
                      <g id="Raggruppa_7495" data-name="Raggruppa 7495">
                        <path id="Tracciato_60056" data-name="Tracciato 60056" d="M275.959,254.279a11.256,11.256,0,0,0,2.451.507l3.037-12.227-1.111-.318Z" transform="translate(-275.959 -242.242)" fill="#edac80"/>
                      </g>
                    </g>
                  </g>
                </g>
              </g>
            </g>
          </g>
          <g id="Raggruppa_7508" data-name="Raggruppa 7508" transform="translate(66.596 29.368)">
            <g id="Raggruppa_7507" data-name="Raggruppa 7507">
              <g id="Raggruppa_7506" data-name="Raggruppa 7506">
                <g id="Raggruppa_7505" data-name="Raggruppa 7505">
                  <g id="Raggruppa_7504" data-name="Raggruppa 7504">
                    <g id="Raggruppa_7503" data-name="Raggruppa 7503">
                      <g id="Raggruppa_7502" data-name="Raggruppa 7502">
                        <path id="Tracciato_60057" data-name="Tracciato 60057" d="M289.613,226.567l18.69-5.736,2.75,5.139s-5.032.55-11.942,6.347l-3.788.959Z" transform="translate(-289.613 -220.831)" fill="#c18c68"/>
                      </g>
                    </g>
                  </g>
                </g>
              </g>
            </g>
          </g>
          <g id="Raggruppa_7515" data-name="Raggruppa 7515" transform="translate(45.121 22.435)">
            <g id="Raggruppa_7514" data-name="Raggruppa 7514">
              <g id="Raggruppa_7513" data-name="Raggruppa 7513">
                <g id="Raggruppa_7512" data-name="Raggruppa 7512">
                  <g id="Raggruppa_7511" data-name="Raggruppa 7511">
                    <g id="Raggruppa_7510" data-name="Raggruppa 7510">
                      <g id="Raggruppa_7509" data-name="Raggruppa 7509">
                        <path id="Tracciato_60058" data-name="Tracciato 60058" d="M287,209.368l-32.892,10.71s1.795,8.885,12.692,5.7c0,0,18.465-5.442,24.859-5.933Z" transform="translate(-254.112 -209.368)" fill="#edac80"/>
                      </g>
                    </g>
                  </g>
                </g>
              </g>
            </g>
          </g>
          <g id="Raggruppa_7522" data-name="Raggruppa 7522" transform="translate(45.122 22.435)">
            <g id="Raggruppa_7521" data-name="Raggruppa 7521">
              <g id="Raggruppa_7520" data-name="Raggruppa 7520">
                <g id="Raggruppa_7519" data-name="Raggruppa 7519">
                  <g id="Raggruppa_7518" data-name="Raggruppa 7518">
                    <g id="Raggruppa_7517" data-name="Raggruppa 7517">
                      <g id="Raggruppa_7516" data-name="Raggruppa 7516">
                        <path id="Tracciato_60059" data-name="Tracciato 60059" d="M288.583,212.791,287,209.368l-32.892,10.71a8.774,8.774,0,0,0,1.3,2.873C258.466,221.76,274.578,215.614,288.583,212.791Z" transform="translate(-254.113 -209.368)" fill="#ffc69f"/>
                      </g>
                    </g>
                  </g>
                </g>
              </g>
            </g>
          </g>
          <g id="Raggruppa_7529" data-name="Raggruppa 7529" transform="translate(47.04 32.329)" opacity="0.4">
            <g id="Raggruppa_7528" data-name="Raggruppa 7528">
              <g id="Raggruppa_7527" data-name="Raggruppa 7527">
                <g id="Raggruppa_7526" data-name="Raggruppa 7526">
                  <g id="Raggruppa_7525" data-name="Raggruppa 7525">
                    <g id="Raggruppa_7524" data-name="Raggruppa 7524">
                      <g id="Raggruppa_7523" data-name="Raggruppa 7523">
                        <path id="Tracciato_60060" data-name="Tracciato 60060" d="M268.057,232.243s18.465-5.442,24.859-5.933c-6.3-2.517-35.616,3.905-35.632,3.909C259.027,232.207,262.248,233.94,268.057,232.243Z" transform="translate(-257.284 -225.725)" fill="#ce9772"/>
                      </g>
                    </g>
                  </g>
                </g>
              </g>
            </g>
          </g>
          <g id="Raggruppa_7536" data-name="Raggruppa 7536" transform="translate(65.952 49.559)">
            <g id="Raggruppa_7535" data-name="Raggruppa 7535">
              <g id="Raggruppa_7534" data-name="Raggruppa 7534">
                <g id="Raggruppa_7533" data-name="Raggruppa 7533">
                  <g id="Raggruppa_7532" data-name="Raggruppa 7532">
                    <g id="Raggruppa_7531" data-name="Raggruppa 7531">
                      <g id="Raggruppa_7530" data-name="Raggruppa 7530">
                        <path id="Tracciato_60061" data-name="Tracciato 60061" d="M292.507,254.21,288.549,264.3s8.6,4.421,10.358-4.48Z" transform="translate(-288.549 -254.21)" fill="#d69d76"/>
                      </g>
                    </g>
                  </g>
                </g>
              </g>
            </g>
          </g>
          <g id="Raggruppa_7543" data-name="Raggruppa 7543" transform="translate(75.067 56.456)">
            <g id="Raggruppa_7542" data-name="Raggruppa 7542">
              <g id="Raggruppa_7541" data-name="Raggruppa 7541">
                <g id="Raggruppa_7540" data-name="Raggruppa 7540">
                  <g id="Raggruppa_7539" data-name="Raggruppa 7539">
                    <g id="Raggruppa_7538" data-name="Raggruppa 7538">
                      <g id="Raggruppa_7537" data-name="Raggruppa 7537">
                        <path id="Tracciato_60062" data-name="Tracciato 60062" d="M306.791,265.611l-3.173,9.223s7.144,4.364,8.394-3.9Z" transform="translate(-303.618 -265.611)" fill="#ce9772"/>
                      </g>
                    </g>
                  </g>
                </g>
              </g>
            </g>
          </g>
          <g id="Raggruppa_7550" data-name="Raggruppa 7550" transform="translate(65.952 49.559)">
            <g id="Raggruppa_7549" data-name="Raggruppa 7549">
              <g id="Raggruppa_7548" data-name="Raggruppa 7548">
                <g id="Raggruppa_7547" data-name="Raggruppa 7547">
                  <g id="Raggruppa_7546" data-name="Raggruppa 7546">
                    <g id="Raggruppa_7545" data-name="Raggruppa 7545">
                      <g id="Raggruppa_7544" data-name="Raggruppa 7544">
                        <path id="Tracciato_60063" data-name="Tracciato 60063" d="M289.973,264.865l2.978-10.266h0l-.444-.389L288.549,264.3A10.653,10.653,0,0,0,289.973,264.865Z" transform="translate(-288.549 -254.21)" fill="#e0a47c"/>
                      </g>
                    </g>
                  </g>
                </g>
              </g>
            </g>
          </g>
          <g id="Raggruppa_7557" data-name="Raggruppa 7557" transform="translate(75.067 57.211)">
            <g id="Raggruppa_7556" data-name="Raggruppa 7556">
              <g id="Raggruppa_7555" data-name="Raggruppa 7555">
                <g id="Raggruppa_7554" data-name="Raggruppa 7554">
                  <g id="Raggruppa_7553" data-name="Raggruppa 7553">
                    <g id="Raggruppa_7552" data-name="Raggruppa 7552">
                      <g id="Raggruppa_7551" data-name="Raggruppa 7551">
                        <path id="Tracciato_60064" data-name="Tracciato 60064" d="M304.672,275.846l2.383-8.409-.524-.577-2.913,8.468A8.693,8.693,0,0,0,304.672,275.846Z" transform="translate(-303.618 -266.86)" fill="#d69d76"/>
                      </g>
                    </g>
                  </g>
                </g>
              </g>
            </g>
          </g>
          <g id="Raggruppa_7564" data-name="Raggruppa 7564" transform="translate(46.526 31.115)">
            <g id="Raggruppa_7563" data-name="Raggruppa 7563">
              <g id="Raggruppa_7562" data-name="Raggruppa 7562">
                <g id="Raggruppa_7561" data-name="Raggruppa 7561">
                  <g id="Raggruppa_7560" data-name="Raggruppa 7560">
                    <g id="Raggruppa_7559" data-name="Raggruppa 7559">
                      <g id="Raggruppa_7558" data-name="Raggruppa 7558">
                        <path id="Tracciato_60065" data-name="Tracciato 60065" d="M256.581,226.831a.119.119,0,0,1-.062-.229l3.765-1.092a1.372,1.372,0,0,0,.953-1.645.119.119,0,0,1,.086-.143h0a.119.119,0,0,1,.143.088,1.609,1.609,0,0,1-1.118,1.929l-3.765,1.092Z" transform="translate(-256.433 -223.718)" fill="#fff"/>
                      </g>
                    </g>
                  </g>
                </g>
              </g>
            </g>
          </g>
          <g id="Raggruppa_7571" data-name="Raggruppa 7571" transform="translate(61.772 42.483)">
            <g id="Raggruppa_7570" data-name="Raggruppa 7570">
              <g id="Raggruppa_7569" data-name="Raggruppa 7569">
                <g id="Raggruppa_7568" data-name="Raggruppa 7568">
                  <g id="Raggruppa_7567" data-name="Raggruppa 7567">
                    <g id="Raggruppa_7566" data-name="Raggruppa 7566">
                      <g id="Raggruppa_7565" data-name="Raggruppa 7565">
                        <path id="Tracciato_60066" data-name="Tracciato 60066" d="M306.59,273.9h0a.06.06,0,0,1-.069-.049c-.559-3.4-4.7-10.164-4.739-10.232-2.833-5.267-19.946-20.842-20.118-21a.06.06,0,0,1,0-.084.059.059,0,0,1,.084,0c.172.157,17.3,15.746,20.141,21.029.04.065,4.191,6.849,4.754,10.272A.059.059,0,0,1,306.59,273.9Z" transform="translate(-281.639 -242.512)" fill="#fff"/>
                      </g>
                    </g>
                  </g>
                </g>
              </g>
            </g>
          </g>
          <g id="Raggruppa_7574" data-name="Raggruppa 7574">
            <g id="Raggruppa_7572" data-name="Raggruppa 7572" transform="translate(0)">
              <rect id="Rettangolo_3958" data-name="Rettangolo 3958" width="65.952" height="65.952" rx="13.027" fill="#048b2b"/>
            </g>
            <g id="Raggruppa_7573" data-name="Raggruppa 7573" transform="translate(0 0)">
              <path id="Tracciato_60067" data-name="Tracciato 60067" d="M245.47,180.159a7.9,7.9,0,0,0-7.88-7.879H212.836c-.113.021-.224.051-.338.064-4.421.468-9.735,2.59-9.645,7.787.027,1.564.213,3.236-.563,4.594a3.661,3.661,0,0,1-2.965,1.807c-1.29.056-2.5-.577-3.773-.8a6.076,6.076,0,0,0-4.171.788,27.089,27.089,0,0,0-3.322,2.946,12.276,12.276,0,0,1-8.335,2.7c-.07,0-.136.013-.206.017v38.175a7.9,7.9,0,0,0,7.88,7.88h13.1c.1-.054.2-.1.3-.151a16.029,16.029,0,0,0,5.586-4.705c1.351-1.609,1.934-3.672,3.138-5.422a19.429,19.429,0,0,1,10.4-7.613c4.657-1.365,7.816-2.346,9.775-7.2a23.212,23.212,0,0,0,1.653-9.822,9.348,9.348,0,0,1,.123-3.119c1.493-5.058,8.724-6.272,13.135-5.852a3.674,3.674,0,0,0,.864-.028Z" transform="translate(-179.518 -172.28)" fill="#048b2b"/>
            </g>
          </g>
          <g id="Raggruppa_7591" data-name="Raggruppa 7591" transform="translate(19.093 19.609)">
            <g id="Raggruppa_7582" data-name="Raggruppa 7582" transform="translate(0.191 0.606)">
              <g id="Raggruppa_7579" data-name="Raggruppa 7579" transform="translate(1.642)">
                <g id="Raggruppa_7576" data-name="Raggruppa 7576">
                  <g id="Raggruppa_7575" data-name="Raggruppa 7575">
                    <path id="Tracciato_60068" data-name="Tracciato 60068" d="M221.214,209.25a3.551,3.551,0,1,1-3.551-3.551A3.551,3.551,0,0,1,221.214,209.25Z" transform="translate(-214.113 -205.699)" fill="#003575"/>
                  </g>
                </g>
                <g id="Raggruppa_7578" data-name="Raggruppa 7578" transform="translate(17.189)">
                  <g id="Raggruppa_7577" data-name="Raggruppa 7577">
                    <path id="Tracciato_60069" data-name="Tracciato 60069" d="M249.631,209.25a3.551,3.551,0,1,1-3.551-3.551A3.551,3.551,0,0,1,249.631,209.25Z" transform="translate(-242.53 -205.699)" fill="#003575"/>
                  </g>
                </g>
              </g>
              <g id="Raggruppa_7581" data-name="Raggruppa 7581" transform="translate(0 17.156)">
                <g id="Raggruppa_7580" data-name="Raggruppa 7580">
                  <path id="Tracciato_60070" data-name="Tracciato 60070" d="M225.186,243.033a17.419,17.419,0,0,1-13.406-6.279,1.641,1.641,0,0,1,2.521-2.1,14.168,14.168,0,0,0,21.77,0,1.642,1.642,0,1,1,2.521,2.1A17.42,17.42,0,0,1,225.186,243.033Z" transform="translate(-211.399 -234.06)" fill="#003575"/>
                </g>
              </g>
            </g>
            <g id="Raggruppa_7590" data-name="Raggruppa 7590">
              <g id="Raggruppa_7587" data-name="Raggruppa 7587" transform="translate(1.642)">
                <g id="Raggruppa_7584" data-name="Raggruppa 7584">
                  <g id="Raggruppa_7583" data-name="Raggruppa 7583">
                    <path id="Tracciato_60071" data-name="Tracciato 60071" d="M220.9,208.248a3.551,3.551,0,1,1-3.551-3.551A3.551,3.551,0,0,1,220.9,208.248Z" transform="translate(-213.797 -204.697)" fill="#fff"/>
                  </g>
                </g>
                <g id="Raggruppa_7586" data-name="Raggruppa 7586" transform="translate(17.189)">
                  <g id="Raggruppa_7585" data-name="Raggruppa 7585">
                    <path id="Tracciato_60072" data-name="Tracciato 60072" d="M249.316,208.248a3.551,3.551,0,1,1-3.551-3.551A3.551,3.551,0,0,1,249.316,208.248Z" transform="translate(-242.214 -204.697)" fill="#fff"/>
                  </g>
                </g>
              </g>
              <g id="Raggruppa_7589" data-name="Raggruppa 7589" transform="translate(0 17.155)">
                <g id="Raggruppa_7588" data-name="Raggruppa 7588">
                  <path id="Tracciato_60073" data-name="Tracciato 60073" d="M224.87,242.03a17.42,17.42,0,0,1-13.406-6.278,1.642,1.642,0,0,1,2.521-2.1,14.168,14.168,0,0,0,21.77,0,1.642,1.642,0,0,1,2.522,2.1A17.42,17.42,0,0,1,224.87,242.03Z" transform="translate(-211.083 -233.058)" fill="#fff"/>
                </g>
              </g>
            </g>
          </g>
          <g id="Raggruppa_7592" data-name="Raggruppa 7592" transform="translate(53.016 34.614)">
            <path id="Tracciato_60074" data-name="Tracciato 60074" d="M267.163,229.5,280.1,252.961l-.01-14.033Z" transform="translate(-267.163 -229.503)" fill="#1c6231"/>
          </g>
          <g id="Raggruppa_7663" data-name="Raggruppa 7663" transform="translate(53.016 19.69)">
            <g id="Raggruppa_7599" data-name="Raggruppa 7599">
              <g id="Raggruppa_7598" data-name="Raggruppa 7598">
                <g id="Raggruppa_7597" data-name="Raggruppa 7597">
                  <g id="Raggruppa_7596" data-name="Raggruppa 7596">
                    <g id="Raggruppa_7595" data-name="Raggruppa 7595">
                      <g id="Raggruppa_7594" data-name="Raggruppa 7594">
                        <g id="Raggruppa_7593" data-name="Raggruppa 7593">
                          <path id="Tracciato_60075" data-name="Tracciato 60075" d="M267.163,219.755s5.466-5.535,11.821-2.6a9.735,9.735,0,0,1,2.058,1.336c2.862,2.339,13.742,10.341,19.576,14.568,0,0,5.247,2.975,9.122-.7a5.133,5.133,0,0,0,.865-6.506s-1.983-3.766-13.786-7.8l-4.659-10.479,5.522-1.705a22.933,22.933,0,0,1,10.067-.806,32.352,32.352,0,0,1,11.563,4.287,138.423,138.423,0,0,1,13.2,9c4.706,3.866,8.516,8.7,9.69,14.672a57.648,57.648,0,0,1,1.071,9.75l2.859,35.715-28.411,7.194s-11.558-5.933-16.374-24.956a42.93,42.93,0,0,0-8.164-16.125q-.389-.488-.8-.978S277.723,228.782,267.163,219.755Z" transform="translate(-267.163 -204.83)" fill="#edac80"/>
                        </g>
                      </g>
                    </g>
                  </g>
                </g>
              </g>
            </g>
            <g id="Raggruppa_7606" data-name="Raggruppa 7606" transform="translate(24.998)">
              <g id="Raggruppa_7605" data-name="Raggruppa 7605">
                <g id="Raggruppa_7604" data-name="Raggruppa 7604">
                  <g id="Raggruppa_7603" data-name="Raggruppa 7603">
                    <g id="Raggruppa_7602" data-name="Raggruppa 7602">
                      <g id="Raggruppa_7601" data-name="Raggruppa 7601">
                        <g id="Raggruppa_7600" data-name="Raggruppa 7600">
                          <path id="Tracciato_60076" data-name="Tracciato 60076" d="M358.536,233.023c-1.174-5.976-4.984-10.806-9.69-14.672a138.423,138.423,0,0,0-13.2-9,32.35,32.35,0,0,0-11.564-4.287,22.931,22.931,0,0,0-10.067.806l-5.522,1.705L310.067,211c6.795-1.369,13.093-1.957,17.158-.812,0,0,8.253,2.414,20.531,11.768,6.834,5.206,10.78,16.2,12.165,26.032.155,1.1.284,2.25.38,3.455h0l-.693-8.668A57.7,57.7,0,0,0,358.536,233.023Z" transform="translate(-308.489 -204.83)" fill="#ffc69f"/>
                        </g>
                      </g>
                    </g>
                  </g>
                </g>
              </g>
            </g>
            <g id="Raggruppa_7613" data-name="Raggruppa 7613" transform="translate(0 13.074)" opacity="0.15" style="mix-blend-mode: multiply;isolation: isolate">
              <g id="Raggruppa_7612" data-name="Raggruppa 7612">
                <g id="Raggruppa_7611" data-name="Raggruppa 7611">
                  <g id="Raggruppa_7610" data-name="Raggruppa 7610">
                    <g id="Raggruppa_7609" data-name="Raggruppa 7609">
                      <g id="Raggruppa_7608" data-name="Raggruppa 7608">
                        <g id="Raggruppa_7607" data-name="Raggruppa 7607">
                          <path id="Tracciato_60077" data-name="Tracciato 60077" d="M344.224,263.127s-5.839,12.323-16.582,14.211c-8.87,1.559-15.864-6.882-17.19-8.455-1.786-2.118-5-5.924-8.254-9.77a220.346,220.346,0,0,0-16.64-17.6l-15.911-15.073a13.1,13.1,0,0,0-2.484,1.85c10.56,9.027,25.224,23.868,25.224,23.868q.411.489.8.978a42.93,42.93,0,0,1,8.164,16.125c4.816,19.023,16.374,24.956,16.374,24.956l28.411-7.194-1.913-23.9Z" transform="translate(-267.163 -226.444)" fill="#edac80"/>
                        </g>
                      </g>
                    </g>
                  </g>
                </g>
              </g>
            </g>
            <g id="Raggruppa_7620" data-name="Raggruppa 7620" transform="translate(40.095 68.975)">
              <g id="Raggruppa_7619" data-name="Raggruppa 7619">
                <g id="Raggruppa_7618" data-name="Raggruppa 7618">
                  <g id="Raggruppa_7617" data-name="Raggruppa 7617">
                    <g id="Raggruppa_7616" data-name="Raggruppa 7616">
                      <g id="Raggruppa_7615" data-name="Raggruppa 7615">
                        <g id="Raggruppa_7614" data-name="Raggruppa 7614">
                          <path id="Rettangolo_3959" data-name="Rettangolo 3959" d="M4.4,0H41.35a4.4,4.4,0,0,1,4.4,4.4V6.392a0,0,0,0,1,0,0H0a0,0,0,0,1,0,0V4.4A4.4,4.4,0,0,1,4.4,0Z" transform="translate(0 11.23) rotate(-14.208)" fill="#3367c4"/>
                        </g>
                      </g>
                    </g>
                  </g>
                </g>
              </g>
            </g>
            <g id="Raggruppa_7627" data-name="Raggruppa 7627" transform="translate(0 11.465)" opacity="0.57">
              <g id="Raggruppa_7626" data-name="Raggruppa 7626">
                <g id="Raggruppa_7625" data-name="Raggruppa 7625">
                  <g id="Raggruppa_7624" data-name="Raggruppa 7624">
                    <g id="Raggruppa_7623" data-name="Raggruppa 7623">
                      <g id="Raggruppa_7622" data-name="Raggruppa 7622">
                        <g id="Raggruppa_7621" data-name="Raggruppa 7621">
                          <path id="Tracciato_60078" data-name="Tracciato 60078" d="M298.183,241.176a10.74,10.74,0,0,0,4.886,1.382c1.984.059,4.535-.263,5.843-2.038l0,0c-3.753,2.593-8.289.027-8.289.027-5.834-4.227-16.714-12.229-19.577-14.568a9.715,9.715,0,0,0-2.058-1.336c-6.354-2.932-11.821,2.6-11.821,2.6.839.717,1.706,1.474,2.588,2.254l.014.011s5.014-5.615,13.976,1.393C283.741,230.9,292.318,237.923,298.183,241.176Z" transform="translate(-267.163 -223.784)" fill="#ffc69f"/>
                        </g>
                      </g>
                    </g>
                  </g>
                </g>
              </g>
            </g>
            <g id="Raggruppa_7634" data-name="Raggruppa 7634" transform="translate(2.22 13.479)">
              <g id="Raggruppa_7633" data-name="Raggruppa 7633">
                <g id="Raggruppa_7632" data-name="Raggruppa 7632">
                  <g id="Raggruppa_7631" data-name="Raggruppa 7631">
                    <g id="Raggruppa_7630" data-name="Raggruppa 7630">
                      <g id="Raggruppa_7629" data-name="Raggruppa 7629">
                        <g id="Raggruppa_7628" data-name="Raggruppa 7628">
                          <path id="Tracciato_60079" data-name="Tracciato 60079" d="M273.52,232.338a.119.119,0,0,1-.112-.2,1.374,1.374,0,0,0,.066-1.9l-2.611-2.925a.119.119,0,1,1,.177-.158l2.611,2.925a1.611,1.611,0,0,1-.077,2.229A.114.114,0,0,1,273.52,232.338Z" transform="translate(-270.833 -227.114)" fill="#fff"/>
                        </g>
                      </g>
                    </g>
                  </g>
                </g>
              </g>
            </g>
            <g id="Raggruppa_7641" data-name="Raggruppa 7641" transform="translate(80.983 71.025)">
              <g id="Raggruppa_7640" data-name="Raggruppa 7640">
                <g id="Raggruppa_7639" data-name="Raggruppa 7639">
                  <g id="Raggruppa_7638" data-name="Raggruppa 7638">
                    <g id="Raggruppa_7637" data-name="Raggruppa 7637">
                      <g id="Raggruppa_7636" data-name="Raggruppa 7636">
                        <g id="Raggruppa_7635" data-name="Raggruppa 7635">
                          <path id="Tracciato_60080" data-name="Tracciato 60080" d="M401.117,327.711a.058.058,0,0,1-.018,0,.059.059,0,0,1-.056-.062l.281-5.347a.059.059,0,0,1,.062-.056.06.06,0,0,1,.056.063l-.281,5.346A.058.058,0,0,1,401.117,327.711Z" transform="translate(-401.043 -322.248)" fill="#fff"/>
                        </g>
                      </g>
                    </g>
                  </g>
                </g>
              </g>
            </g>
            <g id="Raggruppa_7648" data-name="Raggruppa 7648" transform="translate(79.447 71.414)">
              <g id="Raggruppa_7647" data-name="Raggruppa 7647">
                <g id="Raggruppa_7646" data-name="Raggruppa 7646">
                  <g id="Raggruppa_7645" data-name="Raggruppa 7645">
                    <g id="Raggruppa_7644" data-name="Raggruppa 7644">
                      <g id="Raggruppa_7643" data-name="Raggruppa 7643">
                        <g id="Raggruppa_7642" data-name="Raggruppa 7642">
                          <path id="Tracciato_60081" data-name="Tracciato 60081" d="M398.577,328.354a.043.043,0,0,1-.018,0,.059.059,0,0,1-.056-.062l.281-5.347a.059.059,0,1,1,.119.006l-.281,5.347A.058.058,0,0,1,398.577,328.354Z" transform="translate(-398.503 -322.891)" fill="#fff"/>
                        </g>
                      </g>
                    </g>
                  </g>
                </g>
              </g>
            </g>
            <g id="Raggruppa_7655" data-name="Raggruppa 7655" transform="translate(77.911 71.803)">
              <g id="Raggruppa_7654" data-name="Raggruppa 7654">
                <g id="Raggruppa_7653" data-name="Raggruppa 7653">
                  <g id="Raggruppa_7652" data-name="Raggruppa 7652">
                    <g id="Raggruppa_7651" data-name="Raggruppa 7651">
                      <g id="Raggruppa_7650" data-name="Raggruppa 7650">
                        <g id="Raggruppa_7649" data-name="Raggruppa 7649">
                          <path id="Tracciato_60082" data-name="Tracciato 60082" d="M396.038,329a.058.058,0,0,1-.018,0,.059.059,0,0,1-.056-.062l.281-5.347a.059.059,0,1,1,.119.006l-.281,5.347A.059.059,0,0,1,396.038,329Z" transform="translate(-395.964 -323.534)" fill="#fff"/>
                        </g>
                      </g>
                    </g>
                  </g>
                </g>
              </g>
            </g>
            <g id="Raggruppa_7662" data-name="Raggruppa 7662" transform="translate(17.612 17.895)">
              <g id="Raggruppa_7661" data-name="Raggruppa 7661">
                <g id="Raggruppa_7660" data-name="Raggruppa 7660">
                  <g id="Raggruppa_7659" data-name="Raggruppa 7659">
                    <g id="Raggruppa_7658" data-name="Raggruppa 7658">
                      <g id="Raggruppa_7657" data-name="Raggruppa 7657">
                        <g id="Raggruppa_7656" data-name="Raggruppa 7656">
                          <path id="Tracciato_60083" data-name="Tracciato 60083" d="M322.015,249.024a10.5,10.5,0,0,1-1.329.246,11.013,11.013,0,0,1-7.333-1.81c-5.511-3.638-16.939-12.847-17.053-12.94a.059.059,0,1,1,.074-.093c.115.093,11.538,9.3,17.045,12.933a10.889,10.889,0,0,0,7.253,1.79c3.1-.368,7.352-2.285,9.963-9.328a.059.059,0,1,1,.111.042C328.472,246,324.954,248.279,322.015,249.024Z" transform="translate(-296.278 -234.414)" fill="#fff"/>
                        </g>
                      </g>
                    </g>
                  </g>
                </g>
              </g>
            </g>
          </g>
        </g>
        <g id="Raggruppa_7681" data-name="Raggruppa 7681" transform="translate(0 46.825)">
          <g id="Raggruppa_7665" data-name="Raggruppa 7665">
            <rect id="Rettangolo_3960" data-name="Rettangolo 3960" width="49.986" height="49.986" rx="9.873" transform="translate(0 49.986) rotate(-90)" fill="#e03c11"/>
          </g>
          <g id="Raggruppa_7666" data-name="Raggruppa 7666" transform="translate(0 0)">
            <path id="Tracciato_60084" data-name="Tracciato 60084" d="M96.606,249.69a5.99,5.99,0,0,0-5.972,5.972v18.761c.016.086.039.17.048.256.355,3.35,1.963,7.379,5.9,7.31a6.7,6.7,0,0,1,3.482.426,2.775,2.775,0,0,1,1.369,2.247,13.6,13.6,0,0,1-.607,2.859,4.6,4.6,0,0,0,.6,3.162,20.541,20.541,0,0,0,2.233,2.518,9.3,9.3,0,0,1,2.043,6.318c0,.053.01.1.013.156h28.933a5.99,5.99,0,0,0,5.973-5.973v-9.926c-.041-.075-.08-.152-.115-.229a12.142,12.142,0,0,0-3.566-4.234c-1.219-1.025-2.783-1.466-4.109-2.378a14.719,14.719,0,0,1-5.77-7.882c-1.035-3.53-1.778-5.924-5.455-7.409a17.6,17.6,0,0,0-7.445-1.252,7.08,7.08,0,0,1-2.364-.093c-3.833-1.131-4.753-6.612-4.434-9.955a2.81,2.81,0,0,0-.022-.654Z" transform="translate(-90.634 -249.69)" fill="#e03c11"/>
          </g>
          <g id="Raggruppa_7671" data-name="Raggruppa 7671" transform="translate(15.86 15.321)">
            <g id="Raggruppa_7668" data-name="Raggruppa 7668">
              <g id="Raggruppa_7667" data-name="Raggruppa 7667">
                <path id="Tracciato_60085" data-name="Tracciato 60085" d="M122.236,277.71a2.691,2.691,0,1,1-2.691-2.691A2.691,2.691,0,0,1,122.236,277.71Z" transform="translate(-116.853 -275.019)" fill="#003575"/>
              </g>
            </g>
            <g id="Raggruppa_7670" data-name="Raggruppa 7670" transform="translate(13.028)">
              <g id="Raggruppa_7669" data-name="Raggruppa 7669">
                <path id="Tracciato_60086" data-name="Tracciato 60086" d="M143.774,277.71a2.691,2.691,0,1,1-2.692-2.691A2.692,2.692,0,0,1,143.774,277.71Z" transform="translate(-138.391 -275.019)" fill="#003575"/>
              </g>
            </g>
          </g>
          <g id="Raggruppa_7673" data-name="Raggruppa 7673" transform="translate(14.471 28.803)">
            <g id="Raggruppa_7672" data-name="Raggruppa 7672">
              <path id="Tracciato_60087" data-name="Tracciato 60087" d="M125.007,297.306a13.2,13.2,0,0,1,10.16,4.758,1.244,1.244,0,0,1-1.91,1.595,10.738,10.738,0,0,0-16.5,0,1.245,1.245,0,1,1-1.911-1.595A13.2,13.2,0,0,1,125.007,297.306Z" transform="translate(-114.557 -297.306)" fill="#003575"/>
            </g>
          </g>
          <g id="Raggruppa_7678" data-name="Raggruppa 7678" transform="translate(15.715 14.862)">
            <g id="Raggruppa_7675" data-name="Raggruppa 7675">
              <g id="Raggruppa_7674" data-name="Raggruppa 7674">
                <path id="Tracciato_60088" data-name="Tracciato 60088" d="M122,276.95a2.691,2.691,0,1,1-2.692-2.691A2.692,2.692,0,0,1,122,276.95Z" transform="translate(-116.614 -274.259)" fill="#fff"/>
              </g>
            </g>
            <g id="Raggruppa_7677" data-name="Raggruppa 7677" transform="translate(13.028)">
              <g id="Raggruppa_7676" data-name="Raggruppa 7676">
                <path id="Tracciato_60089" data-name="Tracciato 60089" d="M143.534,276.95a2.691,2.691,0,1,1-2.691-2.691A2.691,2.691,0,0,1,143.534,276.95Z" transform="translate(-138.152 -274.259)" fill="#fff"/>
              </g>
            </g>
          </g>
          <g id="Raggruppa_7680" data-name="Raggruppa 7680" transform="translate(14.616 28.324)">
            <g id="Raggruppa_7679" data-name="Raggruppa 7679">
              <path id="Tracciato_60090" data-name="Tracciato 60090" d="M125.246,296.514a13.2,13.2,0,0,1,10.16,4.759,1.244,1.244,0,1,1-1.91,1.594,10.738,10.738,0,0,0-16.5,0,1.245,1.245,0,1,1-1.911-1.594A13.2,13.2,0,0,1,125.246,296.514Z" transform="translate(-114.796 -296.514)" fill="#fff"/>
            </g>
          </g>
        </g>
        <g id="Raggruppa_7698" data-name="Raggruppa 7698" transform="translate(53.88 76.635)">
          <g id="Raggruppa_7682" data-name="Raggruppa 7682" transform="translate(0 0)">
            <path id="Rettangolo_3961" data-name="Rettangolo 3961" d="M10.047,0h30.77A10.046,10.046,0,0,1,50.863,10.046v30.77A10.046,10.046,0,0,1,40.816,50.863H10.046A10.046,10.046,0,0,1,0,40.816V10.047A10.047,10.047,0,0,1,10.047,0Z" transform="translate(0 50.863) rotate(-90)" fill="#ffc60a"/>
          </g>
          <g id="Raggruppa_7683" data-name="Raggruppa 7683">
            <path id="Tracciato_60091" data-name="Tracciato 60091" d="M185.785,298.972a6.1,6.1,0,0,0-6.077,6.077v19.09c.016.087.04.173.049.261.361,3.409,2,7.507,6.006,7.438a6.819,6.819,0,0,1,3.542.434,2.822,2.822,0,0,1,1.394,2.286,13.85,13.85,0,0,1-.618,2.91,4.688,4.688,0,0,0,.607,3.217,20.89,20.89,0,0,0,2.273,2.562,9.465,9.465,0,0,1,2.079,6.428c0,.054.01.105.013.159h29.441a6.1,6.1,0,0,0,6.077-6.077v-10.1c-.042-.076-.081-.154-.117-.233a12.358,12.358,0,0,0-3.629-4.307c-1.241-1.043-2.831-1.492-4.181-2.42a14.978,14.978,0,0,1-5.872-8.021c-1.053-3.591-1.809-6.028-5.551-7.539a17.908,17.908,0,0,0-7.576-1.275,7.2,7.2,0,0,1-2.405-.095c-3.9-1.151-4.837-6.727-4.513-10.129a2.816,2.816,0,0,0-.022-.667Z" transform="translate(-179.708 -298.972)" fill="#ffc60a"/>
          </g>
          <g id="Raggruppa_7688" data-name="Raggruppa 7688" transform="translate(16.139 15.591)">
            <g id="Raggruppa_7685" data-name="Raggruppa 7685">
              <g id="Raggruppa_7684" data-name="Raggruppa 7684">
                <path id="Tracciato_60092" data-name="Tracciato 60092" d="M211.865,327.484a2.738,2.738,0,1,1-2.738-2.738A2.738,2.738,0,0,1,211.865,327.484Z" transform="translate(-206.388 -324.746)" fill="#003575"/>
              </g>
            </g>
            <g id="Raggruppa_7687" data-name="Raggruppa 7687" transform="translate(13.257 0)">
              <g id="Raggruppa_7686" data-name="Raggruppa 7686">
                <circle id="Ellisse_322" data-name="Ellisse 322" cx="2.739" cy="2.739" r="2.739" fill="#003575"/>
              </g>
            </g>
          </g>
          <g id="Raggruppa_7693" data-name="Raggruppa 7693" transform="translate(15.991 15.123)">
            <g id="Raggruppa_7690" data-name="Raggruppa 7690">
              <g id="Raggruppa_7689" data-name="Raggruppa 7689">
                <circle id="Ellisse_323" data-name="Ellisse 323" cx="2.739" cy="2.739" r="2.739" fill="#fff"/>
              </g>
            </g>
            <g id="Raggruppa_7692" data-name="Raggruppa 7692" transform="translate(13.257 0)">
              <g id="Raggruppa_7691" data-name="Raggruppa 7691">
                <path id="Tracciato_60093" data-name="Tracciato 60093" d="M233.537,326.711a2.739,2.739,0,1,1-2.739-2.738A2.739,2.739,0,0,1,233.537,326.711Z" transform="translate(-228.06 -323.973)" fill="#fff"/>
              </g>
            </g>
          </g>
          <g id="Raggruppa_7695" data-name="Raggruppa 7695" transform="translate(15.432 31.834)">
            <g id="Raggruppa_7694" data-name="Raggruppa 7694">
              <path id="Tracciato_60094" data-name="Tracciato 60094" d="M223.883,354.273H206.556a1.337,1.337,0,0,1,0-2.673h17.327a1.337,1.337,0,0,1,0,2.673Z" transform="translate(-205.22 -351.6)" fill="#003575"/>
            </g>
          </g>
          <g id="Raggruppa_7697" data-name="Raggruppa 7697" transform="translate(15.432 31.431)">
            <g id="Raggruppa_7696" data-name="Raggruppa 7696">
              <path id="Tracciato_60095" data-name="Tracciato 60095" d="M223.883,353.606H206.556a1.336,1.336,0,0,1,0-2.673h17.327a1.336,1.336,0,0,1,0,2.673Z" transform="translate(-205.22 -350.933)" fill="#fff"/>
            </g>
          </g>
        </g>
      </g>
      <g id="Raggruppa_7705" data-name="Raggruppa 7705" transform="translate(34.832 64.517)">
        <g id="Raggruppa_7700" data-name="Raggruppa 7700" transform="translate(0 0)">
          <path id="Tracciato_60096" data-name="Tracciato 60096" d="M162.926,209.728a7.354,7.354,0,1,0-9.713,6.957,1.339,1.339,0,0,1,.755.609l.941,1.7a.758.758,0,0,0,1.327,0l.932-1.686a1.389,1.389,0,0,1,.782-.63A7.348,7.348,0,0,0,162.926,209.728Z" transform="translate(-148.218 -202.374)" fill="#3367c4"/>
        </g>
        <g id="Raggruppa_7704" data-name="Raggruppa 7704" transform="translate(4.495 6.813)">
          <g id="Raggruppa_7701" data-name="Raggruppa 7701">
            <path id="Tracciato_60097" data-name="Tracciato 60097" d="M157.015,214.319a.683.683,0,1,1-.683-.683A.683.683,0,0,1,157.015,214.319Z" transform="translate(-155.65 -213.636)" fill="#fff"/>
          </g>
          <g id="Raggruppa_7702" data-name="Raggruppa 7702" transform="translate(2.176)">
            <path id="Tracciato_60098" data-name="Tracciato 60098" d="M160.612,214.319a.683.683,0,1,1-.683-.683A.682.682,0,0,1,160.612,214.319Z" transform="translate(-159.247 -213.636)" fill="#fff"/>
          </g>
          <g id="Raggruppa_7703" data-name="Raggruppa 7703" transform="translate(4.352)">
            <path id="Tracciato_60099" data-name="Tracciato 60099" d="M164.209,214.319a.683.683,0,1,1-.682-.683A.682.682,0,0,1,164.209,214.319Z" transform="translate(-162.844 -213.636)" fill="#fff"/>
          </g>
        </g>
      </g>
      <g id="Raggruppa_7711" data-name="Raggruppa 7711" transform="translate(119.871 15.017)">
        <g id="Raggruppa_7706" data-name="Raggruppa 7706">
          <path id="Tracciato_60100" data-name="Tracciato 60100" d="M303.511,127.9a7.354,7.354,0,1,0-9.713,6.958,1.337,1.337,0,0,1,.754.608l.942,1.7a.757.757,0,0,0,1.326,0l.933-1.686a1.393,1.393,0,0,1,.781-.63A7.348,7.348,0,0,0,303.511,127.9Z" transform="translate(-288.802 -120.543)" fill="#3367c4"/>
        </g>
        <g id="Raggruppa_7710" data-name="Raggruppa 7710" transform="translate(4.496 6.813)">
          <g id="Raggruppa_7707" data-name="Raggruppa 7707">
            <path id="Tracciato_60101" data-name="Tracciato 60101" d="M297.6,132.487a.682.682,0,1,1-.682-.682A.682.682,0,0,1,297.6,132.487Z" transform="translate(-296.235 -131.805)" fill="#fff"/>
          </g>
          <g id="Raggruppa_7708" data-name="Raggruppa 7708" transform="translate(2.176)">
            <path id="Tracciato_60102" data-name="Tracciato 60102" d="M301.2,132.487a.683.683,0,1,1-.683-.682A.683.683,0,0,1,301.2,132.487Z" transform="translate(-299.832 -131.805)" fill="#fff"/>
          </g>
          <g id="Raggruppa_7709" data-name="Raggruppa 7709" transform="translate(4.352)">
            <path id="Tracciato_60103" data-name="Tracciato 60103" d="M304.794,132.487a.683.683,0,1,1-.683-.682A.683.683,0,0,1,304.794,132.487Z" transform="translate(-303.429 -131.805)" fill="#fff"/>
          </g>
        </g>
      </g>
      <g id="Raggruppa_7717" data-name="Raggruppa 7717" transform="translate(119.871 122.949)">
        <g id="Raggruppa_7712" data-name="Raggruppa 7712">
          <path id="Tracciato_60104" data-name="Tracciato 60104" d="M303.511,306.327a7.354,7.354,0,1,0-9.713,6.958,1.337,1.337,0,0,1,.754.608l.942,1.7a.758.758,0,0,0,1.326,0l.933-1.686a1.39,1.39,0,0,1,.781-.63A7.348,7.348,0,0,0,303.511,306.327Z" transform="translate(-288.802 -298.973)" fill="#3367c4"/>
        </g>
        <g id="Raggruppa_7716" data-name="Raggruppa 7716" transform="translate(4.496 6.813)">
          <g id="Raggruppa_7713" data-name="Raggruppa 7713">
            <path id="Tracciato_60105" data-name="Tracciato 60105" d="M297.6,310.917a.682.682,0,1,1-.682-.682A.683.683,0,0,1,297.6,310.917Z" transform="translate(-296.235 -310.235)" fill="#fff"/>
          </g>
          <g id="Raggruppa_7714" data-name="Raggruppa 7714" transform="translate(2.176)">
            <path id="Tracciato_60106" data-name="Tracciato 60106" d="M301.2,310.917a.683.683,0,1,1-.683-.682A.683.683,0,0,1,301.2,310.917Z" transform="translate(-299.832 -310.235)" fill="#fff"/>
          </g>
          <g id="Raggruppa_7715" data-name="Raggruppa 7715" transform="translate(4.352)">
            <path id="Tracciato_60107" data-name="Tracciato 60107" d="M304.794,310.917a.683.683,0,1,1-.683-.682A.683.683,0,0,1,304.794,310.917Z" transform="translate(-303.429 -310.235)" fill="#fff"/>
          </g>
        </g>
      </g>
      <g id="Raggruppa_7723" data-name="Raggruppa 7723" transform="translate(34.832 156.119)">
        <g id="Raggruppa_7718" data-name="Raggruppa 7718">
          <path id="Tracciato_60108" data-name="Tracciato 60108" d="M162.926,361.164a7.354,7.354,0,1,0-9.713,6.958,1.341,1.341,0,0,1,.755.608l.941,1.7a.758.758,0,0,0,1.327,0l.932-1.686a1.389,1.389,0,0,1,.782-.63A7.348,7.348,0,0,0,162.926,361.164Z" transform="translate(-148.218 -353.81)" fill="#3367c4"/>
        </g>
        <g id="Raggruppa_7722" data-name="Raggruppa 7722" transform="translate(4.495 6.813)">
          <g id="Raggruppa_7719" data-name="Raggruppa 7719">
            <path id="Tracciato_60109" data-name="Tracciato 60109" d="M157.015,365.754a.683.683,0,1,1-.683-.682A.683.683,0,0,1,157.015,365.754Z" transform="translate(-155.65 -365.072)" fill="#fff"/>
          </g>
          <g id="Raggruppa_7720" data-name="Raggruppa 7720" transform="translate(2.176)">
            <path id="Tracciato_60110" data-name="Tracciato 60110" d="M160.612,365.754a.683.683,0,1,1-.683-.682A.683.683,0,0,1,160.612,365.754Z" transform="translate(-159.247 -365.072)" fill="#fff"/>
          </g>
          <g id="Raggruppa_7721" data-name="Raggruppa 7721" transform="translate(4.352)">
            <path id="Tracciato_60111" data-name="Tracciato 60111" d="M164.209,365.754a.683.683,0,1,1-.682-.682A.682.682,0,0,1,164.209,365.754Z" transform="translate(-162.844 -365.072)" fill="#fff"/>
          </g>
        </g>
      </g>
      <g id="Raggruppa_7745" data-name="Raggruppa 7745" transform="translate(75.446 156.069)">
        <path id="Tracciato_60121" data-name="Tracciato 60121" d="M245.091,384.309a90.577,90.577,0,0,1-29.7-5.082.05.05,0,1,1,.036-.093,90.638,90.638,0,0,0,31.634,5.05c16.114-.394,38.534-6,53.823-30.434a.05.05,0,0,1,.085.053c-6.762,10.808-15.47,18.871-25.881,23.963a67.031,67.031,0,0,1-28.029,6.518Q246.069,384.309,245.091,384.309Z" transform="translate(-215.36 -353.727)"/>
      </g>
      <g id="Raggruppa_7746" data-name="Raggruppa 7746" transform="translate(51.582 58.079)">
        <path id="Tracciato_60122" data-name="Tracciato 60122" d="M175.958,229.951a.05.05,0,0,1-.05-.05V191.782a.05.05,0,1,1,.1,0V229.9A.05.05,0,0,1,175.958,229.951Z" transform="translate(-175.908 -191.731)" fill="#003575"/>
      </g>
      <g id="Raggruppa_7747" data-name="Raggruppa 7747" transform="translate(2.292 102.303)">
        <path id="Tracciato_60123" data-name="Tracciato 60123" d="M94.473,293.033a.051.051,0,0,1-.05-.051V264.891a.05.05,0,0,1,.1,0v28.091A.051.051,0,0,1,94.473,293.033Z" transform="translate(-94.423 -264.841)" fill="#fff"/>
      </g>
      <g id="Raggruppa_7748" data-name="Raggruppa 7748" transform="translate(92.976)">
        <path id="Tracciato_60124" data-name="Tracciato 60124" d="M294.326,156.669a.051.051,0,0,1-.04-.02.05.05,0,0,1,.009-.07,49.56,49.56,0,0,0,14.367-17.087,25.887,25.887,0,0,0,.188-22.609c-3.782-7.493-12.06-12-21.6-11.737q-.745.019-1.488.085a27.958,27.958,0,0,1,6.462,15.592,17.532,17.532,0,0,1-1.676,9.082,9.244,9.244,0,0,1-7.04,5.329,14.9,14.9,0,0,1-14.853-8.185c-2.19-4.46-2.133-8.824.161-12.618,2.977-4.923,9.682-8.594,16.708-9.278a26.115,26.115,0,0,0-15.292-8.976c-10.6-1.808-19.886,3.44-25.81,8.164a.05.05,0,0,1-.071-.008.051.051,0,0,1,.008-.07,41.4,41.4,0,0,1,12.128-6.876,27.483,27.483,0,0,1,13.763-1.309,26.093,26.093,0,0,1,15.1,8.667q.171.2.338.393.781-.071,1.564-.093c.256-.006.512-.01.765-.01,9.258,0,17.231,4.476,20.931,11.8a24.424,24.424,0,0,1,2.53,11.357,26.923,26.923,0,0,1-2.718,11.341,49.657,49.657,0,0,1-14.4,17.123A.052.052,0,0,1,294.326,156.669ZM285.6,105.245c-7.022.664-13.729,4.323-16.7,9.237-2.277,3.764-2.331,8.094-.158,12.521a14.8,14.8,0,0,0,14.75,8.131,9.149,9.149,0,0,0,6.963-5.275,17.413,17.413,0,0,0,1.665-9.029A27.725,27.725,0,0,0,285.6,105.245Z" transform="translate(-244.339 -95.716)" fill="#003575"/>
      </g>
    </g>
  </g>
</svg>
