<svg xmlns="http://www.w3.org/2000/svg" xmlns:xlink="http://www.w3.org/1999/xlink" width="1214.983" height="477.638" viewBox="0 0 1214.983 477.638"><defs><style>.a{fill:none;}.b{fill:#a1cafd;}.c{clip-path:url(#a);}.d{fill:#8d7fa2;}.e{fill:#feb30f;}.f{fill:#f9bcaa;}.g{fill:#003575;}.h{fill:#522917;}.i{fill:#467de4;}.j{fill:#2b337c;}.k{fill:#bfb5aa;}.l{fill:#ffddd3;}.m{fill:#147f74;}.n{fill:#768dbf;}.o{fill:#76cbc3;}.p{clip-path:url(#b);}.q{clip-path:url(#c);}.r{fill:#e6a677;}.s{mix-blend-mode:multiply;isolation:isolate;}.t{clip-path:url(#d);}.u{fill:#f2d5d5;}.v{clip-path:url(#e);}.w{clip-path:url(#f);}.x{clip-path:url(#g);}.y{clip-path:url(#h);}.z{clip-path:url(#i);}.aa{fill:#8a72ac;}.ab{fill:#6b505c;}.ac{clip-path:url(#j);}.ad{fill:#9f88c1;}.ae{fill:#8a536a;}.af{fill:#c0e35d;}.ag{clip-path:url(#k);}.ah{clip-path:url(#l);}.ai{fill:#fdbe8f;}.aj{fill:#f5f5f5;}.ak{clip-path:url(#m);}.al{fill:#515791;}.am{fill:#fafafa;}.an{fill:#4e2100;}.ao{clip-path:url(#n);}.ap{fill:#ffe762;}.aq{fill:#ffd0c4;}.ar{clip-path:url(#o);}.as{clip-path:url(#p);}.at{fill:#d64c4a;}.au{fill:#eb6a63;}.av{fill:#f67c7f;}.aw{fill:#4380f0;}.ax{fill:#5881fa;}.ay{fill:#7096ff;}.az{fill:#f0922e;}.ba{fill:#faa842;}.bb{fill:#ffb459;}.bc{fill:#d1d1d1;}.bd{fill:#b2b2b2;}.be{clip-path:url(#q);}.bf{fill:#655b74;}.bg{fill:#94b1ef;}.bh{fill:#b6896d;}.bi{fill:#043575;}.bj{fill:#db3626;}.bk{fill:#8ca23b;}.bl{fill:#ef4a23;}.bm{fill:#f0b087;}.bn{fill:#979797;}.bo{fill:#14313d;}.bp{fill:#3960a8;}.bq{fill:#f6f6f4;}</style><clipPath id="a"><rect class="a" width="86.983" height="259.846"/></clipPath><clipPath id="b"><rect class="b" width="214.57" height="320.132"/></clipPath><clipPath id="c"><rect class="a" width="287.062" height="412.154"/></clipPath><clipPath id="d"><rect class="a" width="4.436" height="2.249"/></clipPath><clipPath id="e"><rect class="a" width="28.364" height="24.922"/></clipPath><clipPath id="f"><rect class="a" width="2.359" height="4.572"/></clipPath><clipPath id="g"><rect class="a" width="3.02" height="3.897"/></clipPath><clipPath id="h"><rect class="a" width="3.345" height="4.296"/></clipPath><clipPath id="i"><rect class="a" width="2.585" height="9.951"/></clipPath><clipPath id="j"><rect class="a" width="1.577" height="4.691"/></clipPath><clipPath id="k"><rect class="a" width="5.228" height="5.485"/></clipPath><clipPath id="l"><rect class="a" width="6.641" height="7.385"/></clipPath><clipPath id="m"><rect class="a" width="8.221" height="90.25"/></clipPath><clipPath id="n"><rect class="a" width="14.689" height="14.081"/></clipPath><clipPath id="o"><rect class="a" width="1.316" height="6.799"/></clipPath><clipPath id="p"><rect class="a" width="0.986" height="11.654"/></clipPath><clipPath id="q"><rect class="a" width="221.488" height="265.611"/></clipPath></defs><g transform="translate(-146 -1229.359)"><g transform="translate(1212 1352.452)"><g class="c" transform="translate(62 37)"><path class="d" d="M19.981,55.883S14.116,38.9,25.049,28.935c5.214-4.753,6.294,6.763,6.294,6.763S29.949,56.262,25.049,55.88s-5.068,0-5.068,0" transform="translate(-10.2 71.585)"/><path class="d" d="M15.885,72.683C14.716,66.439-2.855,54.816,2.6,46.043c8-12.882.547-32.208,6.631-35.72s10.693,1.953,15.1,3.319,9.481,0,9.481,0a47.337,47.337,0,0,0,12.1,8.19c7.875,3.734,9.166,3.709,7.8,18.729s-13.851,29.047-13.851,39.4c0,2.053,4.488,9.7,7.221,14.18s25.274,19.634,25.274,19.634S78,115.792,60.053,111.5s-43-32.573-44.168-38.818" transform="translate(8.255 23.614)"/><path class="e" d="M35.559,24.618c0,9.556-7.582,15.9-12.968,15.9a9.753,9.753,0,1,1,0-19.505c5.386,0,12.968-1.777,12.968,3.609" transform="translate(5.522 53.404)"/><path class="f" d="M41.617,39.107c-2.339-7.489-27.37-7.178-27.37-7.178s-2.085-1.91-4.034,20.582-.376,37.14,3.43,40.942,9.248,23.7,9.248,31.794-.976,15.568-4.1,19.634-8.065,9.642-9.166,10.747-1.155,8.2.973,9.431,10.936-3.852,13.658-6.577,6.874-10.754,9.216-10.754-.44-6.166-.44-12.031,6.058-21.279,4.4-28.693S33.62,99.379,32.841,89.7s2.242-33.839,2.242-33.839Z" transform="translate(13.62 82.156)"/><path class="f" d="M15.12,147.868s-3.412,7.517-8,12.1-6.809,9.248-4.846,10.382c4.113,2.371,1.6,1.395,6.87,1.395s10.461-5.826,12.02-8.948c.858-1.713,3.3-4.166,5.329-6.03a5.909,5.909,0,0,0,1.549-6.352,22.718,22.718,0,0,1-1.506-6.97c0-2.625,2.028-6.409,4.757-13.976S41.124,113.221,34.053,95c-5.071-13.072,9.477-40.223,5.189-47.859S4.731,22.371,5.886,41.862c0,0,6.666,47.494,11.155,57.05s.086,11.623.476,16.891-2.4,32.065-2.4,32.065" transform="translate(41.353 84.683)"/><path class="g" d="M35.574,66.173A27.3,27.3,0,0,1,36.257,71a8.424,8.424,0,0,1-1.123,3.759l-2.972,1.717-.833-.5s-7.585,10-11.351,11.466S9.86,90.478,6,88.253s1.363-6.666,2.214-7.16,12.217-.73,12.217-.73Z" transform="translate(34.261 170.484)"/><path class="g" d="M40.116,62.929a27.3,27.3,0,0,1,.683,4.828,8.4,8.4,0,0,1-1.123,3.759L36.7,73.232l-.833-.5S29.447,81.569,25.953,83.6c-3.394,1.974-10.253,3.9-14.1,1.674s.908-7.424,1.756-7.914,11.369-.243,11.369-.243Z" transform="translate(9.109 162.126)"/><path class="h" d="M11.563,79.3s-1.87,1.888,2.078,3.287c7.7,2.732,16.115-10.933,17.992-14.484a18.269,18.269,0,0,0,1.513-3.3,9.876,9.876,0,0,1,1.709,7.832c-1.073,4.313-3.877,4.556-6.877,8.78-3.63,5.111-9.513,11.63-20.557,10.168-5.726-.758-1.177-6.362.172-7.711s3.97-4.574,3.97-4.574" transform="translate(35.419 166.949)"/><path class="h" d="M18.155,73.753s-3.387,4.313.7,5.189S33.222,70.935,35.1,67.384c1.316-2.486,2.571-5.5,2.571-5.5s3.916,3.827,2.843,8.14-3.873,2.5-6.877,6.727c-3.63,5.111-8.562,12.506-19.6,11.044-5.729-.762-4.1-4.313.44-9.892,1.205-1.481,3.68-4.145,3.68-4.145" transform="translate(9.211 159.424)"/><path class="i" d="M36.936,33.678a4.133,4.133,0,0,1,4.231-2.343C49.3,32.681,69.62,54.954,71.09,60.193c1.613,5.765-3.934,30.764-4.9,37.269a3.463,3.463,0,0,1-.136.569c-.833,2.589-7.546,21.168-27.209,14.931-21.122-6.7-24.577-11.012-26.679-15.8S-4.592,49.439,1.971,40.473c.315-.429,34.007-5.061,34.966-6.8" transform="translate(14.556 80.604)"/><path class="j" d="M3.095,42.6s8.626-12.621,15.868-19.287,4.27-13.2,4.27-13.2S41.118,17.9,46.314,21.741c17.234,12.746,25.4,72.378,25.4,89.022s-2.854,19.183-2.854,19.183-6.906,15.539-18.629,13.576-28.643-10.375-28.643-10.375S-2.864,102.388.28,92.828,3.095,42.6,3.095,42.6" transform="translate(15.263 26.05)"/><path class="j" d="M28.869,26.781c-2.056,4.352-1.9,19.162-1.9,19.162S42.5,79.267,39.255,85.282,48.975,137,48.975,137s-16.809-8.029-19.924-11.144c-8.6-8.6-7.449-54-9.635-56.184S6.692,59.039,18.591,45.4c6.8-7.793.426-33.793,7.453-35.717S37.306,16.71,37.306,16.71s-7.16,7.374-8.437,10.071" transform="translate(-8.566 24.254)"/><path class="f" d="M51.913,19.306a18.157,18.157,0,0,0-34.63-7.639l-.007,0s-3.308,5.933-3.308,9.062,2.85,2.453.68,4.624c-2.461,2.464-2.972,8.533-.386,13.7s3.58,5.365,4.1,5.887,2.368,4.156,11.208,2.521S41.577,39.777,44.3,37.055c1.348-1.352,2.632-4.013,3.583-6.348a18.078,18.078,0,0,0,4.031-11.4" transform="translate(-9.801 2.961)"/><path class="k" d="M33.771,30.867c0,1.194-.991-8.719-.991-8.719s.8-.891,3.2,2.793,1.148,12.832,1.148,12.832,3.187-9.971,7.3-7.5S41.407,44.79,41.407,44.79,63.2,26.225,54.228,6.316C49.264-4.7,47.891,2.954,43.388.357S11.873,10.2,11.873,10.2s3.576,6.305,4.885,9.627c3.555,9,17.013,11.037,17.013,11.037" transform="translate(-11.873 0.001)"/><path class="l" d="M16.6,9.728c.043-.1,1.484-3.115,2.857-2.146a4.974,4.974,0,0,1,1.788,5.275c-.483,2.475-1.792,5.515-3.483,5.472s-2.2.179-3.1-1.141a3.353,3.353,0,0,1-.347-2.822Z" transform="translate(15.003 19.04)"/><path class="l" d="M16.792,9.793c.043-.1,1.484-3.115,2.861-2.146a4.984,4.984,0,0,1,1.788,5.275c-.486,2.475-1.8,5.515-3.483,5.472s-2.207.175-3.1-1.141a3.354,3.354,0,0,1-.343-2.825Z" transform="translate(14.122 19.208)"/><path class="d" d="M44.91,16.507s12.66,10.622,4.352,26.286S45.379,70.485,37.786,76.26,13.345,97.486,13.345,97.486L5.338,93.055S18.6,73.07,25.276,64.133c8.122-10.876,4.2-47.626,19.634-47.626" transform="translate(15.805 42.528)"/><path class="m" d="M19.04,39.47V49.494a.365.365,0,0,0,.011.107.63.63,0,0,0,.157.343,2.86,2.86,0,0,0,2.4.615V40.486a2.847,2.847,0,0,1-2.4-.612.66.66,0,0,1-.165-.4Z" transform="translate(-2.718 101.688)"/><path class="m" d="M18.618,40.2V50.274a1.534,1.534,0,0,0,.426-.329A.662.662,0,0,0,19.2,49.6a.365.365,0,0,0,.011-.107V39.47h-.007a.64.64,0,0,1-.165.4,1.534,1.534,0,0,1-.426.329" transform="translate(1.184 101.688)"/><path class="m" d="M22.522,39.874a.64.64,0,0,0,.165-.4H18.62a.66.66,0,0,0,.165.4,2.846,2.846,0,0,0,2.4.608A2.7,2.7,0,0,0,22.1,40.2a1.534,1.534,0,0,0,.426-.329" transform="translate(-2.294 101.688)"/><path class="n" d="M18.618,42.273v106.1h.014a1.033,1.033,0,0,0,.587.662,3.348,3.348,0,0,0,1.967.286,2.9,2.9,0,0,0,.912-.286,1.064,1.064,0,0,0,.587-.662H22.7V42.273a.365.365,0,0,1-.011.107.706.706,0,0,1-.161.343,1.534,1.534,0,0,1-.426.329,2.088,2.088,0,0,1-.447.182,2.83,2.83,0,0,1-.465.1,2.883,2.883,0,0,1-2.4-.615.642.642,0,0,1-.157-.343.365.365,0,0,1-.011-.107" transform="translate(-2.296 108.91)"/><path class="n" d="M18.785,39.957V50.031a2.826,2.826,0,0,0,.465-.1,2.1,2.1,0,0,0,.447-.186V39.674a2.7,2.7,0,0,1-.912.283" transform="translate(0.105 102.214)"/><path class="n" d="M18.785,42.777V148.762a2.783,2.783,0,0,0,.912-.286V42.491a2.088,2.088,0,0,1-.447.182,2.831,2.831,0,0,1-.465.1" transform="translate(0.105 109.471)"/><path class="o" d="M18.785,39.239v1.838A2.7,2.7,0,0,0,19.7,40.8V39.239h-.912Z" transform="translate(0.105 101.093)"/><path class="m" d="M18.621,40.295a.66.66,0,0,0,.165.4,2.847,2.847,0,0,0,2.4.612,2.723,2.723,0,0,0,.912-.283,1.534,1.534,0,0,0,.426-.329.64.64,0,0,0,.165-.4.653.653,0,0,0-.165-.5,1.525,1.525,0,0,0-.426-.325h0a3.116,3.116,0,0,0-3.308.325.668.668,0,0,0-.165.5" transform="translate(-2.295 100.864)"/><path class="n" d="M35.55,46.5s-2.114-7.5-8.036-7.5-9.08,3.948-9.08,6.319,8.558,3.723,8.558,3.723,4.47-4.116,5.654-2.933,2.9,2.368,2.9.393" transform="translate(-14.493 100.457)"/><path class="f" d="M39.864,39.978,32.758,36.77S23.992,38.655,21.7,39.978,15.448,44.6,16.568,46.3c1.81,2.736,10.264-1.184,13.029,1.577s9.477,2.371,13.426-1.577-3.158-6.319-3.158-6.319" transform="translate(-15.784 94.732)"/><path class="l" d="M25.451,35.174s5.947.848,7.26,2.16-3.626,3.952-3.626,6.327-3.24,4.9-6.8,3.641-7.918-9.138,3.165-12.127" transform="translate(-11.64 90.62)"/></g></g><g transform="translate(998 1229.359)"><g class="p"><path class="b" d="M119.721,84.287s6.3-5.457,13.207-6.63,13.938,2.722,13.938,2.722-9.617-3.067-15.6.282a29.163,29.163,0,0,1-11.542,3.626" transform="translate(67.703 43.791)"/><path class="b" d="M131.1,100.126c11.575,2.182,22.149,10.663,26.059,21.878a45.206,45.206,0,0,0-28.766-15.029c-10.577-1.23-22.013,1.774-32.545,2.769,3.605-4.044,10.539-6.353,15.564-7.981a39.32,39.32,0,0,1,19.688-1.638" transform="translate(54.203 56.277)"/><path class="b" d="M131.864,94.754c10.411,2.4,19.771,9.916,23.473,20.057a38.793,38.793,0,0,0-25.657-13.545c-9.993-1.105-19.677,2.362-29.582,2.932,9.011-6.594,20.417-11.552,31.766-9.445" transform="translate(56.606 53.306)"/><path class="b" d="M132.421,89.349c9.761,1.663,16.864,9.726,20.931,18.274-5.993-7.024-14.677-12.028-24-12.576-8.128-.477-16.809,2.073-24.718,3.738C112,92.154,122.41,87.7,132.421,89.349" transform="translate(59.172 50.333)"/><path class="b" d="M133.056,84.168c9.027,2.254,13.543,7.892,17.39,15.976-4.21-5.889-11.43-9.808-18.564-10.736-7.491-.974-15.522,2.176-22.875,3.316,6.295-5.838,15.292-10.329,24.049-8.555" transform="translate(61.644 47.376)"/><path class="b" d="M133.412,79.384a21.668,21.668,0,0,1,14.152,13.1c-8.333-10.431-22.67-10.609-34.22-6.008,5.143-5.161,12.652-9.022,20.068-7.087" transform="translate(64.097 44.605)"/><path class="b" d="M133.682,74.4a21.345,21.345,0,0,1,10.537,11.411c-5.783-8.6-17.376-8.883-26.217-5.471,4.335-3.789,9.587-7.575,15.68-5.94" transform="translate(66.731 41.851)"/><path class="b" d="M115.762,84.2c3.378-2.646,15.7-6.012,14.529-11.846-.941-4.682-11.575-2.769-14.888-2.381,2.519.25,9.092-1.226,9.191,2.48.049,1.9-9.393,11.176-8.833,11.748" transform="translate(65.261 39.166)"/><path class="b" d="M113.527,91.8c2.427-5.166,11.106-10.829,9.463-17.244-1.908-7.452-13.809-4.444-18.893-3.612,5.113-.484,11.447-1.152,12.825,5.282.521,2.437-4.794,14.534-3.4,15.574" transform="translate(58.868 39.379)"/><path class="b" d="M112.233,99.959c1.32-6.7,5.539-14.252,3.538-21.2-3.043-10.57-14.171-7.654-21.95-5.451,7.089-3.082,13.29,1.245,16.159,7.66a22.493,22.493,0,0,1,2.3,9.811c-.05,1.266-1.722,8.49-.052,9.182" transform="translate(53.056 40.26)"/><path class="b" d="M111.014,107.329c-1.205-9.686,2.747-20.643-4.518-29.032-5.232-6.043-15.9-6.109-20.8.415,8.108-4.9,14.954,1.124,18.788,8.358a47.688,47.688,0,0,1,3.6,9.986c.324,1.218,1.406,9.856,2.932,10.273" transform="translate(48.46 41.729)"/><path class="b" d="M111.2,113.915c-3.569-9.293-3.363-20.056-9.127-28.483C99.7,81.963,96.086,77.974,91.6,77.738c-4.85-.257-9.118,3.439-12.745,6.171,9.368-4.344,17.484.958,22.183,9.168,2.02,3.527,3.432,7.356,5.144,11.032.622,1.335,3.654,9.62,5.017,9.806" transform="translate(44.595 43.954)"/><path class="b" d="M110.326,116.974c-3.846-1.785-4.96-8.887-6.093-12.5-1.376-4.379-2.647-8.894-4.981-12.883-2.254-3.85-5.39-6.905-9.723-8.249-6.187-1.921-12.2,2.394-17.5,5.075,7.505-1.824,18.856-2.032,23.553,5.233,3.292,5.093,6.976,23.171,14.749,23.318" transform="translate(40.73 46.863)"/><path class="b" d="M144.535,78.014c-7.471,6-12.573,14.263-18.127,21.93-6.268,8.654-11.256,17.9-16.169,27.365-6.486,12.5-11.081,25.972-15.574,39.289C85.65,193.309,78.195,268.99,76.529,275.307c-1.526-.412-4.217.207-5.742-.205,5.028-17.288,9.86-105.421,34.27-144.783,5.919-9.546,11.145-19.683,17.754-28.74,6.207-8.505,12.684-17.817,21.723-23.566" transform="translate(40.03 44.117)"/><path class="b" d="M96.857,44.192c9.91,1.284,17.681,8.689,23.9,15.942C102.46,51.817,88,49.651,68.717,55.341c-.484-.416,10.259-7.6,10.929-7.95a27.844,27.844,0,0,1,17.211-3.2" transform="translate(38.851 24.834)"/><path class="b" d="M98.9,37.558c9.592,1.252,14.985,10.3,18.086,18.567-13.288-15.632-31.074-12.836-47.14-4-.8-.658,9.847-10.417,10.544-10.871A25.1,25.1,0,0,1,98.9,37.558" transform="translate(39.474 20.977)"/><path class="b" d="M102.623,29.819c9.672,2.921,13.665,16.937,14.575,25.558-.756-11.334-11.666-17.468-21.962-18.069-10.849-.632-17.545,4.981-25.7,10.976-1.39-.784,11.417-13.041,13.631-14.249,5.03-2.746,13.67-6.4,19.456-4.216" transform="translate(39.263 16.486)"/><path class="b" d="M100.212,22.765C106.9,25.68,112.231,34.957,113.942,41.8c-9.108-17.2-29.973-13.338-42.463-2.1,4.927-7.616,18.161-22.224,28.733-16.94" transform="translate(40.422 12.237)"/><path class="b" d="M96.857,14.812c8.919,5.957,13,16.909,15.614,26.847-2.666-7.114-6.462-16.089-14.326-18.731-9.661-3.248-17.9,4.5-24.993,9.819,4.706-6.116,13.466-24.088,23.7-17.934" transform="translate(41.368 7.661)"/><path class="b" d="M91.615,9.728c6.689.524,11.023,6.159,14.811,11.029-8.341-9.9-23.376-8.5-30.93,1.573,3.522-5.872,8.269-12.937,16.118-12.6" transform="translate(42.694 5.495)"/><path class="b" d="M75.819,21.786c.05-16.868,18.8-21.807,30.6-12.84-.141.186-5.694-2.484-6.854-2.718A16.8,16.8,0,0,0,89.007,7.366c-6.364,2.749-10.025,8.577-13.188,14.42" transform="translate(42.876 2.567)"/><path class="b" d="M81.633,32.939c.229-17.565.789-30.612-20.871-27,12.533,0,19.8,15.652,20.871,27" transform="translate(34.361 3.016)"/><path class="b" d="M80.5,40.756C79.079,23.782,73.877,3.447,52.055,11.381,65.371,16.014,75.833,27.661,80.5,40.756" transform="translate(29.437 5.435)"/><path class="b" d="M81.528,48.66C78.293,40.1,78.384,30.143,71.34,23.5c-7.61-7.179-14.783-5.567-22.968-.454C66.5,24,72.99,35.343,81.528,48.66" transform="translate(27.355 10.548)"/><path class="b" d="M84.4,54.474c-2.145-1.162-3.64-7.278-4.866-9.349a41.875,41.875,0,0,0-9.179-11.134c-7.874-6.541-18.465-8.632-27.343-2.51C61.05,30.86,72.354,43.153,84.4,54.474" transform="translate(24.325 15.74)"/><path class="b" d="M83.652,60.59C69.959,57.764,59.171,20.643,41.34,40.258,52.873,34.649,55.967,44,62.5,50.188c5.118,4.852,12.12,13.2,21.156,10.4" transform="translate(23.378 19.545)"/><path class="b" d="M76.3,24.116c-2.577-10.742-3.278-29.771,13.683-22.5C81.935,0,78.851,18.446,76.3,24.116" transform="translate(42.363 0)"/><path class="b" d="M85.613,7.26C75.557,37.008,70.23,64.307,71.222,95.755c.74,23.537,1.137,47.084,1.57,70.628.9,48.792,1.1,97.689,3.641,146.431-6.646-.759-5-3.748-5.147-9.7q-.195-7.669-.373-15.342-.425-18.293-.8-36.586-.871-42.626-1.476-85.257C67.918,113.054,61.837,56.206,85.613,7.26" transform="translate(38.126 4.106)"/><path class="b" d="M100.2,291.341C90.116,224.812,81.15,157.168,64.918,91.816c-1.384-5.573-2.639-11.461-5.072-16.695C54.4,63.41,36.707,46.4,22.771,48.219,42.063,45.7,57.563,71.582,61.156,87.914c3.671,16.688,6.578,33.563,9.582,50.381,7.527,42.132,14.587,84.351,21.559,126.58.706,4.277,1.288,28.542,7.9,26.466" transform="translate(12.877 27.171)"/><path class="b" d="M36.4,48.175c-15.1-.849-30.008,8-33.436,22.939C11.1,57.344,22.846,54.789,36.4,48.175" transform="translate(1.676 27.212)"/><path class="b" d="M38.234,48.917c-15.572-1.277-28.073,11.1-30.339,25.8,7.173-13.9,17.446-18.532,30.339-25.8" transform="translate(4.465 27.611)"/><path class="b" d="M40.046,50.318c-15.8-2.7-25.767,14.241-27.32,27.709,3.114-6.542,6.952-13,12.236-18.038,4.534-4.322,10.231-6.027,15.084-9.672" transform="translate(7.197 28.294)"/><path class="b" d="M41.694,51.959C26.011,50.751,17.748,68.372,17.748,81.69a49.239,49.239,0,0,1,10.484-18.28c4.011-4.382,9.766-6.927,13.462-11.45" transform="translate(10.037 29.35)"/><path class="b" d="M43.458,53.79c-13.612,2.245-21.809,18.14-20.68,30.98,3.015-13.731,15.245-19.193,20.68-30.98" transform="translate(12.822 30.419)"/><path class="b" d="M45.441,55.462a31.1,31.1,0,0,0-17.57,32.669c1.756-13.205,14.807-20.225,17.57-32.669" transform="translate(15.564 31.364)"/><path class="b" d="M38.895,58.182c7.14-6.127,14.057-7.262,22.1-1.861-8.258-1.962-14.122-.528-22.1,1.861" transform="translate(21.995 29.89)"/><path class="b" d="M59.98,51.557c-9.135-.424-16.042,1.29-24.149,5.343,6.282-8.375,15.093-9.11,24.149-5.343" transform="translate(20.263 27.927)"/><path class="b" d="M57.5,46.26c-8.477,1.509-17.416,3.046-24.351,8.595,5.3-9.28,14.742-10.285,24.351-8.595" transform="translate(18.748 25.778)"/><path class="b" d="M51.042,45.432c-6.6,1.7-16.372,1.068-20.9,7.111,5.26-9.2,11.931-7.536,20.9-7.111" transform="translate(17.043 25.47)"/><path class="b" d="M35.757,50.693C25.91,46.76,20.324,45.038,9.749,44.673c10.442-1.331,18.445-2.47,26.008,6.019" transform="translate(5.513 24.741)"/><path class="b" d="M35.381,49.033c-7.431-1.445-13.274-4.124-20.909-2.387C9.442,47.788,4.558,50.542,0,52.9c11.251-4.764,23.3-4.211,35.382-3.865" transform="translate(-0.001 26.058)"/><path class="b" d="M30.442,52.335c-2.276-2.852-3.861-6.533-7-8.627,5.993-3,6.6,4.961,7,8.627" transform="translate(13.256 24.343)"/><path class="b" d="M28.86,51.969c-1.237-6.613,4.783-11.046,10.481-6.487-3.612-3.612-8.48,4.263-10.481,6.487" transform="translate(16.228 24.666)"/><path class="b" d="M72.858,243.414c.2.255.424-4,3.239-29.659C78.071,187.939,87,160.438,93.922,149.987c12.242-19.434,32.473-13.412,32.276-13.607.266.263-19.1-6.492-31.95,16.4-3.519,5.957-12.734,32.043-14.979,58.157-3.219,25.862-3.84,32.033-3.911,31.783Z" transform="translate(41.202 76.708)"/><path class="b" d="M105.6,136.128c.022-.055,9.562.9,14.518,6.035,4.878,5.107,4.3,15.134,4.369,15.148-.146.094-3.208-13.182-9.189-15.282a22.7,22.7,0,0,1-9.7-5.9" transform="translate(59.72 76.98)"/><path class="b" d="M103.293,136.146c.02-.036,8.593,1.738,12.818,6.954,4.711,5.883,3.444,16.026,3.51,16.056-.122.058-2.35-12.443-8.159-15.884a24.817,24.817,0,0,1-8.169-7.126" transform="translate(58.413 76.991)"/><path class="b" d="M100.936,136.325c.017-.02,7.572,2.707,11.128,7.953,4.532,6.769,2.628,16.986,2.685,17.034-.092.022-1.484-11.553-7.159-16.547a25.847,25.847,0,0,1-6.653-8.44" transform="translate(57.08 77.092)"/><path class="b" d="M98.563,136.568c.009,0,6.5,3.8,9.445,9.042,4.308,7.779,1.843,18.025,1.888,18.091-.059-.014-.676-10.519-6.181-17.286a25.566,25.566,0,0,1-5.152-9.847" transform="translate(55.738 77.23)"/><path class="b" d="M96.162,136.834c0,.009,5.371,5,7.771,10.231,4.014,8.914,1.085,19.146,1.118,19.226a38.853,38.853,0,0,0-5.223-18.1,25.246,25.246,0,0,1-3.666-11.355" transform="translate(54.38 77.38)"/><path class="b" d="M93.778,137.125a68.263,68.263,0,0,1,6.109,11.514c3.618,10.18.362,20.352.377,20.444.017-.07.665-8.163-4.288-19a25.558,25.558,0,0,1-2.2-12.961" transform="translate(52.965 77.545)"/><path class="b" d="M98.976,140.9c-.049.044-2.989-8.289-7.121-8.424a16.514,16.514,0,0,0-7.784,2.023c0-.02,6.586-.3,9.169,1.556a68.918,68.918,0,0,1,5.736,4.845" transform="translate(47.543 74.915)"/><path class="b" d="M86.574,130.1c0-.008,6.957,1.738,9.5,4.028,2.264,2.074,5.315,6.923,5.329,6.907-.067.047-2.5-9.7-6.17-10.894a18.957,18.957,0,0,0-8.657-.041" transform="translate(48.958 73.291)"/><path class="b" d="M89.885,125.937c0,.009,6.752,4.238,9.2,7.059,1.911,2.311,4.329,9.1,4.358,9.081-.089.044-1.509-11.253-4.546-13.368-3.471-2.265-9-2.785-9.009-2.773" transform="translate(50.83 71.218)"/><path class="b" d="M93.712,126.542c-.008.013,5.689,4.318,7.942,6.644,1.569,1.713,3.5,8.31,3.526,8.289-.072.036-1.36-10.022-3.6-11.826-2.708-2.037-7.86-3.115-7.864-3.108" transform="translate(52.995 71.56)"/><path class="b" d="M104.119,137.968c0-.045,7.9-3.248,11.453-4.255,2.3-.7,8.914,1.872,8.914,1.868-.009.025-8.584-4.723-11.413-3.684-3.508,1.257-8.97,6.041-8.955,6.071" transform="translate(58.88 74.504)"/><path class="b" d="M106.914,136.964c0-.05,8.407-2.578,12.5-2.162,3.059.38,11.488,9.935,11.558,9.83-.031.053-6.874-6.43-9.5-6.6-4.5-.225-14.547-1.1-14.553-1.071" transform="translate(60.46 76.205)"/><path class="b" d="M102.817,139.256c-.044-.064,6.512-7.525,7.4-7.366.849.1-2.387-2.009-3.4-1.462-1.074.529-4.055,8.812-4,8.828" transform="translate(58.143 73.706)"/><path class="b" d="M103.995,139.763c-.056-.013,2.492-8.61.825-9.816-1.73-1.212-5.786-1.44-5.788-1.434s2.538-.265,2.7.977c.092,1.284,2.206,10.314,2.264,10.273" transform="translate(56.003 72.661)"/><path class="b" d="M94.387,234.148c.567-1.093-2.315-7.73-2.625-8.811-3.475-12.054-6.641-24.207-11.627-35.751-4.037-9.348-8.781-18.941-15.5-26.686-6.243-7.2-19.42-17.994-29.5-12.958,10.8-3.98,22.85,6.934,29.093,14.639,6.137,7.574,10.365,17.34,14.066,26.254,4.573,11.016,7.666,22.593,11.156,33.982,1.046,3.413,1.036,8.963,4.93,9.33" transform="translate(19.873 84.061)"/><path class="b" d="M40.2,149.244c-9.243,5.957-11.29,16.178-11.29,26.183a71,71,0,0,1,4.671-14.147c.809-1.65,7.607-10.686,6.619-12.036" transform="translate(16.351 84.398)"/><path class="b" d="M41.186,149.094c-9.44,7.239-9.388,20.168-9.388,30.93,0-3.374,9.507-30.847,9.388-30.93" transform="translate(17.982 84.313)"/><path class="b" d="M42.65,149.3c-6.5,7.087-11.544,24.7-6.2,33.611-3.1-6.2-.2-11.87,1.965-17.753,1.016-2.757,1.794-5.612,2.569-8.433.307-1.124.969-6.876,1.663-7.425" transform="translate(19.343 84.432)"/><path class="b" d="M43.755,149.733c-6.725,9.071-6.188,20.663-6.188,31.434,2.043-10.21,6.076-21,6.188-31.434" transform="translate(21.238 84.675)"/><path class="b" d="M45.2,150.276a42.663,42.663,0,0,0-3.358,29.079c-2.948-8.847,5.021-19.533,3.358-29.079" transform="translate(22.982 84.982)"/><path class="b" d="M46.833,150.846c-2.37,8.808-5.492,19.93-.288,28.261-2.383-9.537,3.122-18.3.288-28.261" transform="translate(24.721 85.304)"/><path class="b" d="M46.063,154c.294-6.138,7.655-8.5,12.364-5.359-1.041,0-14.248,2.937-12.364,5.359" transform="translate(25.945 83.27)"/><path class="b" d="M55.164,145.376c-4.4,1.032-9.586,3.139-11.15,7.832-3.134-7.834,10.857-9.651,11.15-7.832" transform="translate(24.632 81.844)"/><path class="b" d="M51.062,142.382c-5.086,1.06-9.417,5.733-9.417,11.049-2.47-5.558,7.572-14.678,9.417-11.049" transform="translate(23.331 80.048)"/><path class="b" d="M46.979,142.442c-4.682.714-7.779,5.6-7.273,10.148-.93-2.48-.833-5.728.944-7.8.622-.72,5.462-3.646,6.329-2.348" transform="translate(22.125 80.367)"/><path class="b" d="M42.558,149.756c-4.722-3.543-11.539-1.273-15.117,2.813,2.087-2.087,4.552-5.06,7.544-5.736,1.271-.288,7.964.678,7.572,2.923" transform="translate(15.518 83.007)"/><path class="b" d="M41.311,149.536C32.97,147.9,28.079,157.855,24.427,163.7a32.358,32.358,0,0,1,8.532-9.77c.781-.559,8.316-4.493,8.352-4.391" transform="translate(13.814 84.462)"/><path class="b" d="M40.37,151.25c-1.587-2.455-4.2-3.981-6.231-6.013,3.361-2.016,5.7,6.253,6.231,6.013" transform="translate(19.306 81.953)"/><path class="b" d="M39.146,151.7c-1.772-2.87-3.646-9.055,1.933-8.543-2.636-.02-3.015,7.682-1.933,8.543" transform="translate(21.125 80.94)"/></g></g><g transform="translate(146 1294.844)"><g class="q"><path class="r" d="M96.64,143.3c-.9,1.23-6.988,4.849-8.028,5.258s-8.493,3.536-11.232,1.813S71.3,137,70.339,133.356s-1.394-5.909-1.667-6.9a1.675,1.675,0,0,0-.255-.486c-.7-1.01-2.5-2.364-2.568-2.665-.083-.354-1.806-3.753-1.806-3.753a18.556,18.556,0,0,1-.908-1.7,15,15,0,0,1-.382-3.559c.083-.308.452-.491.637-.565.065-.028.1-.042.1-.042a.6.6,0,0,1,.113-.276,1.421,1.421,0,0,1,.132-.188,1.389,1.389,0,0,1,.6-.368c.1-.03.171-.044.171-.044a.743.743,0,0,1,0-.19,1.551,1.551,0,0,1,.164-.521,1.785,1.785,0,0,1,.984-.639l.06-.019v-.412a.721.721,0,0,1,.065-.1,1.486,1.486,0,0,1,.618-.579,2.806,2.806,0,0,1,1.836.329c.146.174.665.678,1.063,1.056.148.151.28.271.373.359s.127.118.127.118a1.4,1.4,0,0,1,0-.713c.109-.3.384-.523.574-.412a10.043,10.043,0,0,1,.986,1.236s.579.711.875,1.065a28.011,28.011,0,0,1,2.276,3.48c0,.276-.195,4.166-.3,5.587a2.362,2.362,0,0,0,0,.359c.137,1.653.414.979,1.882,5.131a59.422,59.422,0,0,0,6.076,11.682c.083.093.141.132.171.116.1-.069.41-.28.82-.558.854-.581,2.135-1.44,2.813-1.836a4.79,4.79,0,0,1,1.621-.412,5.988,5.988,0,0,0,2.619-1.2l3.633.086a32.445,32.445,0,0,1,2.774,5.928,2.006,2.006,0,0,1,.023,1.549" transform="translate(82.521 145.118)"/><g class="s" transform="translate(165.678 282.055)"><g class="t"><path class="u" d="M75.989,121.812q-2.171,1.219-4.437,2.248c.857-.581,2.135-1.44,2.816-1.836a4.79,4.79,0,0,1,1.621-.412" transform="translate(-71.552 -121.811)"/></g></g><g class="s" transform="translate(150.939 271.083)"><g class="v"><path class="u" d="M93.41,134.411c-.9,1.23-6.988,4.849-8.028,5.258s-8.493,3.536-11.232,1.813-6.081-13.372-7.041-17.019-1.394-5.909-1.667-6.9a1.675,1.675,0,0,0-.255-.486,7.813,7.813,0,0,1,1.4.069c.72,5.066.151,5.81,1.774,10.661.766,2.3,1.734,4.529,2.7,6.757.333,0,1.6,3.8,1.841,4.247a6.82,6.82,0,0,0,1.753,1.952,2.388,2.388,0,0,0,2.2.6,18.738,18.738,0,0,0,5.208-1.4,60.283,60.283,0,0,0,6.509-3.107,31.279,31.279,0,0,0,3.7-2.725,4.233,4.233,0,0,0,.746-.676,3.047,3.047,0,0,0,.364-.6,2.006,2.006,0,0,1,.023,1.549" transform="translate(-65.187 -117.073)"/></g></g><g class="s" transform="translate(145.911 258.532)"><g class="w"><path class="u" d="M64.467,114.183c.285.7.917,1.29.908,2.042a4.005,4.005,0,0,1-.9-1.223,6.068,6.068,0,0,1-.28-1.257,2.956,2.956,0,0,0-.4-1.216,1.3,1.3,0,0,0-.78-.56c.065-.028.1-.042.1-.042a.594.594,0,0,1,.116-.276,1.539,1.539,0,0,1,.868,1.065c.144.484.174,1,.364,1.466" transform="translate(-63.015 -111.654)"/></g></g><g class="s" transform="translate(146.858 257.743)"><g class="x"><path class="u" d="M66.443,114.512c-.185.234-.373.465-.558.7a2.873,2.873,0,0,0-.766-1.987,7.712,7.712,0,0,0-.54-.746,2.793,2.793,0,0,0-.262-.262l1.065.929A3.079,3.079,0,0,0,64,111.937c-.146-.079-.352-.248-.574-.391.1-.03.171-.044.171-.044a.744.744,0,0,1,0-.19.592.592,0,0,0,.083.046c.507.229,1.248.442,1.484,1.007a4.574,4.574,0,0,0,1.285,2.146" transform="translate(-63.424 -111.312)"/></g></g><g class="s" transform="translate(148.173 256.046)"><g class="y"><path class="u" d="M65.749,112.759q.8,1.059,1.586,2.116c-.574-.079-.834-.732-1.118-1.236a11.825,11.825,0,0,0-1.959-2.158,3.325,3.325,0,0,1-.266-.366.584.584,0,0,1,.06-.019v-.412a.721.721,0,0,1,.065-.1,3.226,3.226,0,0,0,.41.465,17.114,17.114,0,0,1,1.223,1.713" transform="translate(-63.992 -110.579)"/></g></g><g class="s" transform="translate(151.811 256.853)"><g class="z"><path class="u" d="M67.826,116.981c-.329.845-.824,1.621-1.125,2.475a9.893,9.893,0,0,1-.509,1.422c-.382-1.649.584-3.274.912-4.934a2.444,2.444,0,0,0-.093-1.535,4.683,4.683,0,0,0-.609-.813,3.97,3.97,0,0,1-.834-2.667c.148.148.28.271.373.359v.025c.109,1.4,1.412,1.88,1.968,3.024a3.33,3.33,0,0,1-.083,2.644" transform="translate(-65.563 -110.928)"/></g></g><path class="aa" d="M89.692,115.607c-1.563.22-8.229,2.894-10.494,6.426s-4.091,5.652-4.677,6.016a7.47,7.47,0,0,0-1.753,2.339,30.6,30.6,0,0,0,4.895,4.749c1.1.586,4.895,1.9,4.895,1.9a10.147,10.147,0,0,0,2.41,1.315c.512,0,7.745-11.105,7.745-11.909s-3.022-10.834-3.022-10.834" transform="translate(95.726 152.081)"/><path class="ab" d="M96.478,172.683a35.039,35.039,0,0,0-2.575,3.781,47.97,47.97,0,0,0-2.7,7.4,3.224,3.224,0,0,0,2.637,3.561,10.249,10.249,0,0,0,6.914-1.04,8.7,8.7,0,0,0,2.739-3.508c.22-.6.766-6.189,1.042-6.738s.931-2.413,1.1-2.959-.577-2.948-.688-3.878a10.3,10.3,0,0,0-1.644-3.232c-.426-.616-4.573,3.221-4.573,3.221Z" transform="translate(119.947 218.37)"/><path class="ab" d="M96.758,169.665a3.182,3.182,0,0,1,1.753,2.684c-.053,1.042.22,2.413-.218,3.179a15.325,15.325,0,0,1-3.015,3.344c-.438.106-1.424-.22-1.917.875s-2.63,5.7-5.478,7.4-3.837,2.19-5.536,1.535-3.341-1.315-3.561-3.179a8.2,8.2,0,0,1,1.426-4.659c.384-.546,5.094-5.7,5.643-6.136s4.439-2.85,4.439-2.85Z" transform="translate(103.609 223.194)"/><path class="r" d="M97.444,207.423c.769,2.251,0,2.8-.546,3.675s-2.464,3.448-4.166,3.834a9.987,9.987,0,0,1-2.547.069c-1.855-.125-3.823-.516-3.751-.836.109-.5,3.726-5.152,3.726-6.085s-3.647-16.625-4.851-24.188-1.535-17.206-4.166-25.973-1.862-9.2-2.739-17.206c0,0,17.806.058,17.973,1.1.049.324.153,2.744.266,5.946.269,7.136.609,18.153.609,18.492a49.3,49.3,0,0,0,.269,12.166c.982,7.178-.676,19.2-.9,20.849a24.4,24.4,0,0,0,.82,8.16" transform="translate(103.14 185.108)"/><path class="r" d="M111.016,203.656a5.242,5.242,0,0,1-1.5,2.093,3.7,3.7,0,0,1-1.565.924c-1.1.215-5.807,0-5.918-.5s0-.986.715-4.325-2.878-11.858-3.865-15.912-5.65-11.844-6.527-12.661-4.383-6.852-4.492-8.44-2.193-16.822-2.193-18.63l6.794-2.628a76.745,76.745,0,0,1,8.667,3.3c.889.456,1.487.875,1.526,1.188.167,1.318-1.426,14.576-1.368,15.674s1.915,1.695,3.726,4.71a22,22,0,0,1,2.454,9.114c.056,1.642,1.716,15.417,2.262,16.13s.491,2.575.329,3.728a6.192,6.192,0,0,0,.069,1.322c.132,1.1.639,1,.806,2.313a8.268,8.268,0,0,1,.083,2.6" transform="translate(112.696 188.877)"/><g class="s" transform="translate(222.207 389.936)"><g class="ac"><path class="u" d="M97.469,171a5.242,5.242,0,0,1-1.5,2.093c.368-1.584,1.1-3.142,1.419-4.689a8.268,8.268,0,0,1,.083,2.6" transform="translate(-95.964 -168.402)"/></g></g><path class="ad" d="M123.259,196.768a1.363,1.363,0,0,1-1.246.685,16.061,16.061,0,0,1-2.339-.171c-.072.021-.056.285-.023.658a6.18,6.18,0,0,1,.023,2.48c-.361.808-2.92.588-3.135.734a2.161,2.161,0,0,1-2.049.512,1.173,1.173,0,0,1-.794-.7,7.068,7.068,0,0,1-.3-2.732c0-1.023-1.461-1.241-2.41-.583-.113.074-.213.148-.317.22-.794.546-1.514.961-3.851,1.021-2.454.069-4.844-1.392-5.388-1.588a.391.391,0,0,0-.09-.021,7.6,7.6,0,0,0-3.147-.394l-.139.028c-1.389.37-4.529.588-5.775,0a2.144,2.144,0,0,1-.729-.542,2.119,2.119,0,0,1-.509-1.649c.074-.364-.218-1.313-.8-1.241-.35.046-1.378.672-2.57,1.209a8.068,8.068,0,0,1-2.547.766,1.354,1.354,0,0,1-1.406-.614,2.288,2.288,0,0,1-.2-1.362,4.716,4.716,0,0,1-2.19.658c-.111-.009-.285-.023-.512-.056a8,8,0,0,1-4.383-2.73c-.289-.658,2.786-24.549,2.364-39.685-.153-5.478.537-23.979,1.778-27.047s2.1-7.822,5.1-7.822,4.744-1.239,9.859-2.19c0,0,11.906.8,15.632,2.19s8.623,4.309,9.938,5.773-.949,7.891-1.751,9.933-4.279,3.547-3.733,11.209,3.554,18.427,4.358,22.884,3.8,28.932,3.29,30.171" transform="translate(100.513 150.765)"/><path class="ae" d="M81.162,142.074a5.1,5.1,0,0,0-.785.72,4.287,4.287,0,0,0-.722,1.517,4.33,4.33,0,0,0,.579,3.369c.424.644,1.017,1.167,1.412,1.827a1.959,1.959,0,0,1,.076,2.167,6.95,6.95,0,0,0,2.04-1.781,2.913,2.913,0,0,0,.47-2.579c-.134-.377-.37-.713-.5-1.093-.384-1.153.387-2.072.414-3.147.023-1.047-.546-1.845.157-2.825a2.818,2.818,0,0,0,.364-.843,9.316,9.316,0,0,0,.57-3.1c-.083-1.72-.729-3.763.025-5.323.817-1.693.785-3.619,1.269-5.407.338-1.243.945-2.413,1.2-3.679.234-1.169-.489-2.086-.419-3.269.049-.841.5-1.609.607-2.448.051-.394.025-.8.074-1.192a8.373,8.373,0,0,1,.623-1.933,13.047,13.047,0,0,0,.838-3.948c.046-.887.069-3.55-1.318-3.32-1.227.2-1.982,2.691-2.343,3.649a14.35,14.35,0,0,0-.769,7.06,8.75,8.75,0,0,1,.19,2.373,6.919,6.919,0,0,1-.551,1.727,10.7,10.7,0,0,0-1.2,4.453,8.116,8.116,0,0,1,.028,1.186c-.144,1.313-1.424,2.306-1.315,3.638a15.893,15.893,0,0,1,.25,3.955,23.617,23.617,0,0,1-.838,2.8,5.485,5.485,0,0,0-.322,2.545c.181.8.75,1.716.252,2.515a1.707,1.707,0,0,1-.354.394" transform="translate(104.627 139.139)"/><path class="af" d="M82.4,120.627c-.433-.067-.854-.206-1.29-.273a.83.83,0,0,0-1.026,1.243,3.974,3.974,0,0,0,2.693,2.285.606.606,0,0,0,.315.016.661.661,0,0,0,.331-.3q.4-.577.8-1.153a2.164,2.164,0,0,0,.331-.609,1.124,1.124,0,0,0-.509-1.239c-.479-.25-1.088.113-1.649.03" transform="translate(105.175 158.293)"/><path class="r" d="M84.866,117.036c.208.523.477,1.023.681,1.549.722,1.845.776,4.677-.59,6.268-1.065,1.241-2.417,1.246-2.6,3.175-.322,3.487,4.041,4.013,6.6,4.339,4.237.54,7.931-.817,11.508-2.894a3.616,3.616,0,0,0,.986-.764,3.182,3.182,0,0,0,.368-3c-.377-.739-1.179-.766-1.707-1.378-.771-.891-.5-3.147-.414-4.235.139-1.716.528-3.4.829-5.1a5.153,5.153,0,0,0,.042-2.309,21.81,21.81,0,0,0-1.03-2.021c-.2-.507-.067-1.118-.276-1.575-.475-1.037-2.253-1.535-3.293-1.419a28,28,0,0,0-5.59,1.936,13.644,13.644,0,0,0-3.012,2.612c-1.336,1.257-3.293,2.283-2.672,4.342.049.16.107.317.167.472" transform="translate(108.32 141.624)"/><path class="r" d="M90.034,101.481a10.391,10.391,0,0,0-6.764,3.3c-1.155,1.568-1.9,8-2.475,8.827s-1.568,5.858-1.568,5.858-.308,6.358.345,6.944a12.882,12.882,0,0,0,7.368,2.709c1.239,0,8.621-1.322,9.943-2.313s2.392-8.083,4.7-10.475.083-11.469-.5-12.872-11.054-1.98-11.054-1.98" transform="translate(104.128 133.498)"/><path class="ae" d="M93.756,120.5a5.322,5.322,0,0,1,.771-.824c1.227-1.047,3.793-.843,4.212.959.528,2.269-.095,5.041,0,7.363.093,2.184,2.13,1.246,3.464.715a6.5,6.5,0,0,0,2.718-2.246,16.95,16.95,0,0,0,3.091-14.259c-1.9-7.261-7.426-9.653-10.809-10.89s-9.074-1.982-12.291,0S81.729,105,81.729,105a11.359,11.359,0,0,1,2.526-.132c.414.164,2.327.824,2.327.824,1.882.579,4.615,4.786,4.939,7.426.521,4.233-.35,8.549-.146,12.809.672-1.7,1.213-3.89,2.38-5.425" transform="translate(107.514 131.679)"/><path class="r" d="M132.912,144.008a18.369,18.369,0,0,1-.9,1.887,4.933,4.933,0,0,1-.468,1.181,15.728,15.728,0,0,1-2.193,1.037c-.137.028-1.533-.083-1.533-.083s-.127.009-.278.009a2.494,2.494,0,0,1-.433-.009,14.832,14.832,0,0,1-2.714-.625,6.487,6.487,0,0,0-1.889-.5c-.167,0-5.807,1.262-9.262,1.811a15,15,0,0,1-9.7-2.522c-1.753-1.371-8.6-12.932-8.6-13.37s-1.169-2.061-.329-4.163c0,0,.829-.447,1.873-1a28.533,28.533,0,0,1,4.129-1.938c.521.025,3.918,2.355,4.3,3.177.352.753,4.575,6.984,5.3,8.123a1.431,1.431,0,0,1,.1.181,4.6,4.6,0,0,0,.882.38c1.081.4,2.853,1.019,3.5,1.318a22.372,22.372,0,0,0,4.038.676c.2.025.408.046.6.065.1.014.206.021.308.03s.206.019.306.032a11.992,11.992,0,0,0,2.552.074c.364-.171,1.026-1.19,1.493-1.653v0a.764.764,0,0,1,.343-.234c.41-.056,3.07-.5,3.367-.5s3.837-.243,4.221.086.6,2.494.6,2.494.769,1.07.743,1.368a9.286,9.286,0,0,1-.357,1.644c-.083.083.111.6,0,1.016" transform="translate(124.058 165.4)"/><g class="s" transform="translate(251.111 303.405)"><g class="ag"><path class="u" d="M109.059,132.22a.959.959,0,0,0-.2-.588c-.137-.2-.271-.4-.408-.6a19.039,19.039,0,0,1,2,.083c.5.086.38.669.405,1.049,0-.095-1.054.012-1.167.023q.3.6.6,1.193a3.587,3.587,0,0,0,.63.984,1.237,1.237,0,0,0,1.056.394c.637-.116,1.248-.926,1.716-1.338-.213.535-.792,1.491-1.408,1.635-.222.051-.489,0-.66.148a.858.858,0,0,0-.188.354,1.551,1.551,0,0,1-1.033.922.9.9,0,0,1-.787-.113,1.4,1.4,0,0,0,1.422-.815.658.658,0,0,0,.06-.238,1.042,1.042,0,0,0-.32-.6,6.964,6.964,0,0,1-.7-1.371c-.192-.405-.523-1-1-1.118" transform="translate(-108.448 -131.033)"/></g></g><g class="s" transform="translate(248.791 305.875)"><g class="ah"><path class="u" d="M114.086,137.147a11.694,11.694,0,0,1-1.419.44,3.137,3.137,0,0,1-.773.113,3.746,3.746,0,0,1-.991-.2,3.907,3.907,0,0,1-2.3-1.338.568.568,0,0,1-.113-.417c.056-.262.338-.327.452-.54.1-.195.012-.287-.025-.484-.058-.31-.1-1,.178-1.218a15,15,0,0,1,1.1,1.23,1.838,1.838,0,0,0,.278.276.99.99,0,0,0,1.2-.035,1.249,1.249,0,0,1-.644.051,1.265,1.265,0,0,1-.438-.269,3.541,3.541,0,0,1-1.1-1.257c-.192-.463-.19-1.021-.516-1.4-.037.31-.044.639-.1.942a6.721,6.721,0,0,0-.181.753,1.952,1.952,0,0,1-.2,1.01,2.065,2.065,0,0,0-.44.894.54.54,0,0,1-.083.269.861.861,0,0,1-.243.151.666.666,0,0,0-.273.611,1.9,1.9,0,0,0,.2.669,2.831,2.831,0,0,0,.509.857,2.742,2.742,0,0,0,.859.526c.512.236,1.023.47,1.537.706a7.215,7.215,0,0,1-2-1.308,3.039,3.039,0,0,1-.729-.762,1.033,1.033,0,0,1-.069-1.007c.049-.09.144-.178.241-.148a.275.275,0,0,1,.109.083,5.322,5.322,0,0,0,1.8,1.25,4.726,4.726,0,0,0,3.436.134,1.185,1.185,0,0,0,.739-.581" transform="translate(-107.445 -132.099)"/></g></g><path class="aa" d="M98.762,117.928c-3.221.813-4.555,6.335-5.43,10.573s2.339,13.884,2.339,13.884,4.6.729,7.523-.586a20.72,20.72,0,0,0,4.017-2.193s-1.1-3-1.167-3.432-1.243-9.938-3.216-13.08a30.238,30.238,0,0,0-4.066-5.166" transform="translate(122.579 155.134)"/><path class="ai" d="M88,111.067c.331-1.475,1.859-3.149,2.992-2.853s2.341,1.762.85,4.122-3.635,3.186-4.585,2.732-.206-2.311,0-2.35.743-1.651.743-1.651" transform="translate(114.166 142.311)"/><path class="aj" d="M18.532,137.909a51.609,51.609,0,0,1-1.635-20.3c.926-7.12,3.92-15.051,6.564-22.046,1.3-3.452,2.533-6.713,3.471-9.709,5.83-18.633,2.3-46.655,2.262-46.935l.509-.067c.037.282,3.584,28.416-2.281,47.155-.942,3.012-2.174,6.28-3.483,9.737-2.633,6.972-5.615,14.872-6.534,21.935a51.115,51.115,0,0,0,1.612,20.066Z" transform="translate(21.735 51.116)"/><path class="aj" d="M18.02,146.863c-.317-2.114-3.006-21.418.287-47.676,1.98-15.806,1.19-34.628.611-48.373-.37-8.905-.669-15.938-.093-19.015l.5.095c-.563,3.017-.271,10.026.1,18.9.579,13.763,1.371,32.614-.618,48.461-3.283,26.188-.6,45.428-.285,47.537Z" transform="translate(21.95 41.832)"/><path class="aj" d="M23.657,138.284c-.023-1.04-.218-3.128-.442-5.546-.419-4.529-.942-10.163-.734-12.93,1.313-17.505-1.746-31.132-6.212-48.475-3.721-14.458-3.99-32.919-3.992-33.1l.514-.007c0,.185.271,18.587,3.978,32.984,4.476,17.389,7.544,31.055,6.224,48.642-.2,2.723.317,8.336.736,12.844.225,2.427.419,4.522.442,5.583Z" transform="translate(16.149 50.281)"/><path class="f" d="M64.132,90.622a87.807,87.807,0,0,1-3.473,8.361c-1.026,2.058-3.295,5.441-6.083,6s-9.987-1.76-13.458-3.172-15.56-10.8-15.56-10.8a3.24,3.24,0,0,0-1.324-.389c-.644-.007-5.057-.34-6.173-.512a6.616,6.616,0,0,1-2.283-1,2.449,2.449,0,0,1-.931-.889,7.794,7.794,0,0,1,.021-2.058,2.252,2.252,0,0,1-.32-1.285,8.623,8.623,0,0,1,.468-2.186,8.081,8.081,0,0,1-.13-1.882c.09-.771,1.118-1.158,1.118-1.158a7.627,7.627,0,0,1,.343-2.232,2.231,2.231,0,0,1,2.228-1.107c.324.083,1.239.264,1.878.387l.565.109h0l.083.014s.514-.127,1.111-.343,3.559-.3,3.686.257,2.355,6.171,2.531,6.557,8.4,4.67,12.041,5.7c3.223.908,8.394,1.788,9.54,1.973.148.028.232.042.232.042s.292-1.142.864-2.848a52.218,52.218,0,0,1,2.4-5.983A25.275,25.275,0,0,1,57,81.8a10.828,10.828,0,0,1,4.219.509c2.7,1.107,3.728,5.951,2.911,8.313" transform="translate(19.138 100.358)"/><path class="i" d="M39.215,68.868c-1.878,1.387-4.448,10.73-5.564,13.388s-3.686,10.457-3.686,10.457,1.887,6.342,11.4,7.63-2.151-31.475-2.151-31.475" transform="translate(39.419 90.596)"/><path class="ab" d="M61.481,156.78c-.042,1.8-3.816,3.383-4.717,4.024A12.1,12.1,0,0,1,53.9,162l-1.415-.255a16.354,16.354,0,0,0-1.757,1.371,28.19,28.19,0,0,0-2.485,4.2,15.168,15.168,0,0,1-4.33,3.985c-3.091,2.012-7.155,3.385-10.031,2.14-2.1-.9-2.637-2.065-2.83-2.978-.069-.333-.09-.637-.127-.88a9.6,9.6,0,0,1,.817-3.64c.468-1.373,8.954-8.188,10.112-9.644a65.456,65.456,0,0,0,3.9-6.727s9.426-2.144,11.267-1.361,3.133,4.1,3.216,4.233a10.91,10.91,0,0,1,.514,1.13,8.889,8.889,0,0,1,.729,3.2" transform="translate(40.649 194.754)"/><path class="j" d="M59.682,127.624a103.422,103.422,0,0,1-1.734,12.844c-1.8,7.458-1.885,28.969-2.225,34.8s.081,39.426,0,40.114c-.051.4-.711,1.06-1.456,1.658a13.478,13.478,0,0,1-1.547,1.086c-1.03.6-8.743.343-11.228-1.8s-2.83-22.972-4.115-42.686c-1.311-20.1-3.709-38-4.3-47.486-.623-9.859,2.931-23.574,4.907-32.336,0,0,16.628.618,20.4,5.247,2.531,3.1,2.283,17.292,1.306,28.559" transform="translate(43.411 123.417)"/><g class="s" transform="translate(94.872 250.21)"><g class="ak"><path class="u" d="M45.233,156.537c-.343,5.828.083,39.426,0,40.114-.051.4-.709,1.06-1.454,1.658.359-9.936.549-19.791.528-29.729-.021-10.626.192-21.249.514-31.875.192-6.342.387-12.909-2.01-18.783-.9-2.2-2.464-5.025-1.575-7.461,1.162-3.179,5.133-2.64,7.956-1.57a103.588,103.588,0,0,1-1.732,12.844c-1.8,7.456-1.887,28.967-2.228,34.8" transform="translate(-40.973 -108.059)"/></g></g><path class="al" d="M37.119,146.776c-1.114,1.644-.343,3.529-.343,5.93v.771s4.543,2.056,8.229,2.056,4.886-.512,4.886-.512a12.23,12.23,0,0,0,.979-7.43c-.894-3.714-13.752-.815-13.752-.815" transform="translate(48.038 191.667)"/><path class="am" d="M61.4,153.636c-.042,1.8-3.816,3.383-4.717,4.024a12.1,12.1,0,0,1-2.869,1.2l-1.415-.255a16.353,16.353,0,0,0-1.757,1.371,28.19,28.19,0,0,0-2.485,4.2,15.168,15.168,0,0,1-4.33,3.985c-3.091,2.012-7.155,3.385-10.031,2.14-2.1-.9-2.637-2.065-2.83-2.978q.941.848,1.915,1.658c1.748,1.466,5.55,1.218,7.366.157,2.853-1.665,5.8-3.1,7.789-5.858.861-1.188,1.489-2.545,2.434-3.661a14.948,14.948,0,0,1,3.6-2.846c1.012-.625,2.035-1.243,3.07-1.836a8.752,8.752,0,0,0,2.232-1.609,6.874,6.874,0,0,0,1.3-2.894,8.889,8.889,0,0,1,.729,3.2" transform="translate(40.733 197.898)"/><path class="ab" d="M69.167,151.19c-.088,2.922-.9,3.415-.9,3.415s-.6,2.359-.843,3.492-.354,3.8-1.044,5.467a11.492,11.492,0,0,1-8.4,6.085c-4.886.817-8.271-.558-8.445-1.584a4.127,4.127,0,0,1-.042-.695c.012-1.132.273-2.8.345-4.191.081-1.713,1.542-3.432,2.742-5.958s.9-5.316,2.869-9.086l11.973-2.871a14.229,14.229,0,0,1,1.406,3.36,8.89,8.89,0,0,1,.338,2.566" transform="translate(65.109 191.096)"/><path class="j" d="M41.329,106.439c-.345,8.229-1.116,24.431,0,26.83s6.171,7.884,9.255,16.2c2.927,7.884,6.513,25.107,8.4,29.828,1.711,4.286,4.2,21.6,5.143,28.886s.771,9.431,1.544,10.545,7.884.514,9.683,0,3.941-1.373,3.515-4.629a115.514,115.514,0,0,1-.773-12.087,82.08,82.08,0,0,0-1.371-27c-3.17-14.057-3.256-18.515-2.83-30.773s1.889-19.371-.683-31.287S68.33,92.382,68.33,92.382Z" transform="translate(53.602 121.528)"/><path class="al" d="M51.446,148.59c.22,1.13-.843,2.992,0,3.848s9.5,1.028,11.216.6a8.094,8.094,0,0,0,3.17-1.857,61.78,61.78,0,0,0-.544-6.8c-.343-1.19-13.842,4.21-13.842,4.21" transform="translate(67.242 189.707)"/><path class="am" d="M69.167,149.282c-.088,2.922-.9,3.415-.9,3.415s-.6,2.359-.843,3.492-.354,3.8-1.044,5.467a11.492,11.492,0,0,1-8.4,6.085c-4.886.817-8.271-.558-8.445-1.584a4.127,4.127,0,0,1-.042-.695,13.357,13.357,0,0,0,3.781.993,19.233,19.233,0,0,0,3.033-.044,12.371,12.371,0,0,0,5.6-1.255,8.348,8.348,0,0,0,3.256-3.948,24.9,24.9,0,0,0,1.382-5.006q.7-3.432,1.394-6.854a14.247,14.247,0,0,1,.887-2.633,8.889,8.889,0,0,1,.338,2.566" transform="translate(65.109 193.005)"/><path class="i" d="M85.887,89.541a148.413,148.413,0,0,1-2.779,14.627c-1.285,4.052-2.894,18.839-2.894,18.839s1.739,11.89,1.739,13.564c0,.836-1.107,2.033-2.9,3.27a30.877,30.877,0,0,1-7.127,3.483c-5.6,1.929-15.044,3.087-21.411,1.158s-12.858-8.81-12.985-11.186.384-12.541.384-19.226-3.79-17.487-4.629-24.3.581-15.234,1.352-16.586,13.759-4.819,25.2-6.942c0,0,5.27-.706,7.586,0s18.7,6.879,19.735,8.741c.535.973-.232,7.731-1.271,14.56" transform="translate(43.45 86.726)"/><path class="an" d="M34.361,99.492c1.482,3.777,4.758,8.662,16.878,12.092s29.231-5.671,29.546-6.608-1.116-4.883-1.116-4.883-11.425,7.034-20.082,7.549-15.945-3.084-18.6-5.143-5.733-6.921-5.733-6.921Z" transform="translate(45.202 125.73)"/><path class="f" d="M39.645,73.509c.709,4.951-.13,12.214,0,14.657S42.859,93.89,49.8,91.252a15.942,15.942,0,0,0,9.45-10.158c.065-.834-.963-2.827-1.929-4.948s-1.028-4.436.065-8.616a61.385,61.385,0,0,0,1.22-11.186Z" transform="translate(52.134 74.12)"/><g class="s" transform="translate(90.361 141.273)"><g class="ao"><path class="u" d="M49.062,72.1a11.267,11.267,0,0,1-3.855,2.714,4.967,4.967,0,0,1-4.918-.931,3.969,3.969,0,0,1-.766-4.8,7.08,7.08,0,0,1,1.394-1.5l4.659-4.122a11.6,11.6,0,0,1,2.832-2.035,3.909,3.909,0,0,1,3.381-.056c1.686.9,2.248,3.575,1.753,5.314-.6,2.109-2.941,3.971-4.478,5.414" transform="translate(-39.025 -61.011)"/></g></g><path class="f" d="M44.2,51.605c-5.208,2.83-6.685,5.145-7.007,9A155.477,155.477,0,0,0,37.711,78.8c.322,1.672,3.376,7.555,5.532,7.97s13.173-4.221,14.805-7.819,3.17-13.057,3.3-15.616,1.028-10.4-4.846-11.344a58.194,58.194,0,0,0-12.3-.387" transform="translate(48.798 67.673)"/><path class="ap" d="M45.14,58.565c3.557-.083,9.257-.514,9.257-.514s2.357.345,1.973,3.172-1.2,5.529-.986,6.043,2.485,2.4,2.7,4.244.428,3.3.428,3.3l1.456-.215s.715-3.742,1.577-4.288.651,1.922.651,1.922l-1.114,5.152-.271,2.39s2.248-1.061,2.417-1.959,2.012-4.457,2.012-6.3.942-5.7,1.2-8.4a8.576,8.576,0,0,0-4.67-8.873c-3.73-4.413-8.058-5.571-12.816-5.272s-9.727,5.659-10.929,7.928a16.888,16.888,0,0,0-1.415,6.516,30.388,30.388,0,0,0,.343,4.585c.259,1.072,1.072,3.346,1.072,3.346l-.252-6.386s.125-3.3,1.239-4.416a7.949,7.949,0,0,1,3.172-1.8c.384-.086,2.957-.171,2.957-.171" transform="translate(48.16 64.355)"/><path class="aq" d="M47.584,61.366c.294-1.716,1.3-3.492,2.369-3.663s1.929,1.507,1.373,3.2-2.9,6.446-3.742,6.446-.674-1.674-.674-1.674.357-2.626.417-2.931.257-1.375.257-1.375" transform="translate(61.691 75.892)"/><path class="f" d="M83.3,165.823l-.3,1.544s.13.9-.556.9a.32.32,0,0,1-.081-.007A1.517,1.517,0,0,1,81.7,168c-.338-.213-.616-.456-.8-.326a1.365,1.365,0,0,1-.817.076c-.391-.051-.787-.19-.854-.424-.127-.424-.257-4.281-.384-5.654a31.393,31.393,0,0,0-1.889-5.358,4.945,4.945,0,0,0-1.07-1.2,15.484,15.484,0,0,1-1.887-2.4s-.236.7-.472,1.507c-.109.38-.215.787-.3,1.151-.257,1.158-.641,4.029-1.436,5.233s-1.862,1.239-2.376.852-.046-1.8.211-3,.13-3.9.345-5.4,1.456-6.984,1.456-6.984.051-.3.111-.8v-.007a21.086,21.086,0,0,0,.146-5.11c-.34-2.316-13.2-30.261-13.543-32.32S56.085,99.269,56,96.351s-2.14-9.6-1.8-15.34c0,0,11.916-1.287,12.3,0,.139.461.4,2.068.688,4.078.53,3.591,1.195,8.449,1.57,10.322.586,2.911,2.153,5.61,2.927,7.926s3.985,20.488,4.457,23.317,3.385,15.558,3.385,16.755,3.774,11.744,3.816,12.643-.042,9.771-.042,9.771" transform="translate(71.247 105.817)"/><g class="s" transform="translate(124.771 225.397)"><g class="ar"><path class="u" d="M53.885,97.343s1.635,4.962,1.26,6.8Z" transform="translate(-53.885 -97.342)"/></g></g><g class="s" transform="translate(152.621 262.424)"><g class="as"><path class="u" d="M66.338,124.411a9.45,9.45,0,0,0-.338-2.48c-.243-2.813.107-5.77.056-8.6a77.238,77.238,0,0,1,.843,11.652,1.521,1.521,0,0,1-.662-.262,1.876,1.876,0,0,0,.1-.313" transform="translate(-65.912 -113.334)"/></g></g><path class="i" d="M60.827,69.838c-2.077,2.656-4.65,7.028-6.537,14.571a32.812,32.812,0,0,0-.942,13.37C53.519,99.5,55.8,103.6,55.8,103.6s11.439-4.022,12.9-4.879a11.417,11.417,0,0,0,2.744-2.573S64.75,77.315,63.722,74.476a13.406,13.406,0,0,0-2.894-4.638" transform="translate(69.783 91.872)"/><path class="aj" d="M116.723,183.211c.185-.153.368-.315.56-.458a49.29,49.29,0,0,0,0-12.006c-.924-7.116-3.918-15.039-6.557-22.03-1.306-3.459-2.538-6.724-3.478-9.727-5.828-18.631-2.3-46.653-2.262-46.933l-.509-.067c-.037.282-3.582,28.416,2.281,47.155.945,3.015,2.181,6.289,3.489,9.753,2.628,6.963,5.613,14.861,6.53,21.916a49.349,49.349,0,0,1-.049,12.4" transform="translate(135.991 121.013)"/><path class="aj" d="M110.274,192.3a3.545,3.545,0,0,0,.449.229l.051-.044a201.844,201.844,0,0,0-1.081-40.162c-1.982-15.808-1.192-34.635-.616-48.38.375-8.9.669-15.935.095-19.008l-.5.093c.563,3.019.269,10.024-.1,18.892-.581,13.766-1.371,32.618.618,48.468a201.425,201.425,0,0,1,1.091,39.912" transform="translate(141.955 111.728)"/><path class="aj" d="M119.675,91.355c0,.185-.271,18.584-3.98,32.984-4.474,17.394-7.542,31.062-6.222,48.642a84.766,84.766,0,0,1-.551,10.853,2.99,2.99,0,0,0,.47.243l.028-.021a86.747,86.747,0,0,0,.565-11.114c-1.311-17.5,1.746-31.13,6.21-48.475,3.723-14.458,3.992-32.922,3.994-33.1Z" transform="translate(143.287 120.177)"/><path class="at" d="M96.649,84.85c.618,17.876,12.261,31.982,26.005,31.5s24.387-15.349,23.769-33.227-12.261-31.982-26.005-31.507S96.03,66.975,96.649,84.85" transform="translate(127.107 67.892)"/><path class="au" d="M97.434,83.2c.583,16.871,11.575,30.185,24.547,29.738S145,98.452,144.415,81.579s-11.573-30.185-24.549-29.736S96.85,66.334,97.434,83.2" transform="translate(128.142 68.185)"/><path class="av" d="M110.2,73.469c5.157,3.777,11.661,2.762,14.527-2.265s1.01-12.159-4.147-15.931-11.661-2.765-14.527,2.26-1.01,12.159,4.147,15.935" transform="translate(137.736 69.708)"/><path class="at" d="M109.242,78.067l-2.515,6.909,5.5-.19Z" transform="translate(140.4 102.697)"/><path class="aw" d="M102.53,90.929c-1.232,17.843,8.891,33.075,22.613,34.022s25.841-12.747,27.073-30.592S143.324,61.281,129.6,60.334,103.762,73.086,102.53,90.929" transform="translate(134.744 79.309)"/><path class="ax" d="M103.369,89.451c-1.162,16.841,8.394,31.22,21.342,32.114s24.391-12.034,25.554-28.877-8.394-31.218-21.342-32.114-24.391,12.036-25.554,28.877" transform="translate(135.856 79.629)"/><path class="ay" d="M115.8,81.874c4.74,4.288,11.314,3.953,14.683-.748s2.26-11.99-2.478-16.28-11.314-3.953-14.683.753-2.26,11.987,2.478,16.276" transform="translate(146.51 81.348)"/><path class="aw" d="M114.167,86.713l-3.214,6.611,5.488.382Z" transform="translate(145.959 114.071)"/><path class="az" d="M90.775,96.149c1.841,17.792,14.423,31.067,28.1,29.65s23.278-16.986,21.437-34.779-14.423-31.065-28.106-29.65S88.934,78.356,90.775,96.149" transform="translate(119.116 80.596)"/><path class="ba" d="M91.512,94.4c1.737,16.794,13.613,29.323,26.526,27.987s21.969-16.035,20.233-32.827-13.615-29.321-26.526-27.985S89.774,77.607,91.512,94.4" transform="translate(120.103 80.873)"/><path class="bb" d="M104.325,83.261c5.4,3.413,11.821,1.957,14.338-3.253s.174-12.2-5.228-15.611S101.611,62.44,99.1,67.647s-.174,12.2,5.228,15.613" transform="translate(129.031 82.286)"/><path class="az" d="M103.785,87.639l-2.035,7.067,5.474-.567Z" transform="translate(133.851 115.289)"/><path class="aj" d="M115.105,148.121l-.514-.046a5.952,5.952,0,0,0-3.395-5.441,5.788,5.788,0,0,1-2.7-7.551l.458.236a5.221,5.221,0,0,0,2.491,6.868,6.575,6.575,0,0,1,3.659,5.935" transform="translate(142.061 177.7)"/><path class="aj" d="M112.424,154.756c-.023-.079-2.427-8.032-4.23-11.957a8.7,8.7,0,0,1,.445-7.833l.438.273a8.313,8.313,0,0,0-.414,7.345,127.448,127.448,0,0,1,4.254,12.024Z" transform="translate(141.348 177.546)"/><path class="aj" d="M107.013,140.692l-.394-.333A35.033,35.033,0,0,0,110,135.031l.458.232a35.012,35.012,0,0,1-3.45,5.43" transform="translate(140.257 177.633)"/><path class="aj" d="M108.62,148.912l-.491-.155a11.267,11.267,0,0,0,0-6.1,11.56,11.56,0,0,1,.433-7.576l.472.2c-1.253,2.955-.838,5.052-.4,7.275a11.893,11.893,0,0,1-.016,6.354" transform="translate(141.67 177.7)"/><path class="az" d="M64.846,46.885C62.908,65.613,49.661,79.587,35.261,78.1S10.758,60.215,12.7,41.488s15.185-32.7,29.585-31.213,24.5,17.88,22.565,36.61" transform="translate(16.389 13.373)"/><path class="ba" d="M62.39,45.044C60.561,62.72,48.06,75.909,34.468,74.5S11.34,57.626,13.17,39.949,27.5,9.084,41.092,10.489s23.13,16.878,21.3,34.554" transform="translate(17.029 13.664)"/><path class="bb" d="M33.6,33.319C27.906,36.91,21.15,35.38,18.5,29.894s-.185-12.842,5.5-16.433S36.45,11.4,39.1,16.884s.183,12.842-5.5,16.435" transform="translate(22.94 15.151)"/><path class="az" d="M24.526,37.927l2.142,7.437-5.761-.6Z" transform="translate(27.503 49.893)"/><path class="at" d="M58.563,34.989c-.651,18.818-12.909,33.665-27.376,33.165S5.514,51.994,6.167,33.178,19.074-.487,33.544.013s25.67,16.16,25.019,34.976" transform="translate(8.078 0.001)"/><path class="au" d="M56.063,33.259c-.614,17.76-12.182,31.776-25.839,31.3S5.995,49.31,6.608,31.55,18.793-.228,32.447.245,56.679,15.5,56.063,33.259" transform="translate(8.66 0.307)"/><path class="av" d="M27.282,23.01c-5.428,3.973-12.274,2.908-15.292-2.38s-1.063-12.8,4.365-16.773S28.63.948,31.647,6.237s1.063,12.8-4.365,16.773" transform="translate(13.908 1.911)"/><path class="at" d="M18.8,27.851l2.647,7.273-5.789-.2Z" transform="translate(20.594 36.638)"/><path class="aj" d="M24.74,93.6l-.514-.046a5.95,5.95,0,0,0-3.395-5.441,5.786,5.786,0,0,1-2.7-7.551l.458.234a5.218,5.218,0,0,0,2.491,6.868A6.577,6.577,0,0,1,24.74,93.6" transform="translate(23.184 105.974)"/><path class="aj" d="M22.059,100.233c-.025-.081-2.429-8.035-4.233-11.96a8.708,8.708,0,0,1,.447-7.833l.438.273A8.319,8.319,0,0,0,18.3,88.06a126.984,126.984,0,0,1,4.254,12.024Z" transform="translate(22.471 105.819)"/><path class="aj" d="M17.61,94.993l-.491-.153a11.276,11.276,0,0,0,0-6.1,11.554,11.554,0,0,1,.433-7.574l.472.2c-1.253,2.955-.841,5.052-.4,7.273a11.868,11.868,0,0,1-.014,6.354" transform="translate(21.946 106.772)"/><path class="aw" d="M52.41,41.39c1.3,18.783-9.362,34.818-23.8,35.816S1.4,63.783.108,45s9.359-34.823,23.8-35.818,27.2,13.423,28.5,32.206" transform="translate(0.001 12.017)"/><path class="ax" d="M49.851,39.835c1.225,17.727-8.834,32.862-22.467,33.8S1.707,60.971.484,43.243,9.32,10.377,22.952,9.437s25.677,12.668,26.9,30.4" transform="translate(0.504 12.354)"/><path class="ay" d="M21.2,31.857c-4.988,4.513-11.909,4.161-15.456-.79s-2.38-12.619,2.61-17.135,11.909-4.159,15.454.79,2.38,12.622-2.607,17.135" transform="translate(4.856 14.164)"/><path class="aw" d="M13.605,36.951l3.383,6.963-5.777.4Z" transform="translate(14.748 48.609)"/><path class="ae" d="M89.379,144.932a1.866,1.866,0,0,1,.551.931c.1.938-1,1.818-1.186,2.735a5.773,5.773,0,0,0,.431,3.436,12.13,12.13,0,0,0,3,3.855l-.035-1.431a3.29,3.29,0,0,1,.276-1.73,6.228,6.228,0,0,1,1.049-1.107,3.492,3.492,0,0,0,.843-3.036,5.706,5.706,0,0,0-1.063-2.121c-.41-.544-1.179-.88-1.368-1.588a2.1,2.1,0,0,1,.053-1.056c.442-1.716,1.639-3.249,1.639-5.018,0-1.47-.82-2.684-.815-4.17a24.228,24.228,0,0,1,.952-5.252,13.928,13.928,0,0,0,.32-3.309,25.046,25.046,0,0,1-.345-3.283,8.5,8.5,0,0,1,.954-2.142c.431-1.028.4-2.135.769-3.168a13.109,13.109,0,0,1,.991-1.822c1.348-2.457,1.139-5.437.894-8.229q-1.3,1.994-2.6,3.985c-.34.521-.813.861-1.174,1.343a11.514,11.514,0,0,0-.989,1.987c-.662,1.394-.889,2.867-1.491,4.274a8.227,8.227,0,0,0-.493,4.932,8.228,8.228,0,0,1,.384,2.385c-.1,1.1-.847,2.014-1.216,3.05-.734,2.058.076,4.339-.181,6.509-.2,1.674-1.167,3.276-1.16,4.969a6.893,6.893,0,0,0,.942,3.98c.023.032.046.06.072.09" transform="translate(116.244 141.321)"/><path class="af" d="M91.132,123a1.6,1.6,0,0,0-1.1.032c-.183.1-.32.266-.5.361a1.484,1.484,0,0,1-.713.107.308.308,0,0,0-.195.037.288.288,0,0,0-.09.183,1.805,1.805,0,0,0,.361,1.438,3.571,3.571,0,0,0,1.385.9,1.483,1.483,0,0,0,1.343.134c.382-.241.465-.773.8-1.07a1.673,1.673,0,0,0,.269-.241.791.791,0,0,0-.042-.776c-.382-.845-.623-.922-1.519-1.109" transform="translate(116.425 161.706)"/></g></g><g transform="translate(631 1357.732)"><path class="bc" d="M10.97,203.882l-2.016-.152L22.4,10.1l2.014.15Z" transform="translate(6.865 7.744)"/><path class="bc" d="M33.348,203.882l2.016-.152L21.914,10.1l-2.014.15Z" transform="translate(15.257 7.744)"/><rect class="bd" width="2.063" height="170.417" transform="translate(32.21 28.306)"/><g class="be"><path class="bc" d="M24.515,74.344c-7.381,0-13.16-3.33-13.16-7.576s5.779-7.579,13.16-7.579,13.16,3.33,13.16,7.579-5.779,7.576-13.16,7.576m0-13.676c-6.334,0-11.683,2.793-11.683,6.1s5.35,6.1,11.683,6.1S36.2,70.072,36.2,66.768s-5.35-6.1-11.683-6.1" transform="translate(8.706 45.38)"/><path class="d" d="M32.65,56.3C7.616,56.3,2.145,47.937,2.145,45.117c0,0,13.529-43.446,15.038-43.446,0,0,2.685,2.136,15.467,2.136S48.118,1.671,48.118,1.671c1.509,0,15.038,43.446,15.038,43.446,0,2.82-5.471,11.178-30.505,11.178" transform="translate(1.645 1.281)"/><path class="bf" d="M42.162,3.68c0,2.032-7.106,3.678-15.874,3.678S10.415,5.712,10.415,3.68,17.522,0,26.289,0,42.162,1.648,42.162,3.68" transform="translate(7.985)"/><path class="g" d="M57.01,156.977s-.021,1.24,2.954,1.327c3.758.108,4-1.214,4-1.214l.731-44.519-6.959-.113Z" transform="translate(43.709 86.221)"/><path class="g" d="M100.7,143.23s.452,1.155,3.237.106c3.517-1.327,3.244-2.643,3.244-2.643L90.949,99.232l-6.48,2.537Z" transform="translate(64.762 76.08)"/><path class="g" d="M27.846,147.069s-.369,1.184-3.219.334c-3.6-1.071-3.426-2.4-3.426-2.4l13.234-42.514,6.645,2.069Z" transform="translate(16.254 78.576)"/><path class="n" d="M173.387,136.274c-.62-1.352-1.834-2.618-3.32-2.581a18.641,18.641,0,0,0-2.4.862,10.718,10.718,0,0,0-4.4,1.078,89.981,89.981,0,0,0-13.718,7.2c-1.191.763-2.638,1.581-3.931,1.005a4.192,4.192,0,0,1-1.26-1.016c-3.8-3.984-7.826-7.842-11.445-11.994-2.991-3.431-7.171-5.648-10.786-8.485A180.227,180.227,0,0,1,99.6,100.767c0-.493-1.717-1.936-2.074-2.348q-1.034-1.179-2.048-2.374-2.033-2.388-4.028-4.807c-2.666-3.224-5.3-6.471-7.985-9.681-2.4-2.871-5.327-5.445-7.173-8.651L69.828,61.66a43.693,43.693,0,0,0-6.2-8.952,15.016,15.016,0,0,0-9.588-4.85,19.135,19.135,0,0,0-6.461,1.005,58.747,58.747,0,0,0-21.893,12c-5.086,4.367-7.337,10.425-8.418,16.854-1.267,7.521-.442,15.22-.1,22.78a182.467,182.467,0,0,0,2.682,21.889c1.18,7.077,2.185,14.236,4.54,21.054a27.644,27.644,0,0,0,14.95,16.418,213.037,213.037,0,0,0,26.67,10.651c11.2,3.426,23.052,5.277,34.682,3.839,10.872-1.344,21.174-5.494,31.246-9.8,7.424-3.177,15.013-6.107,22.393-9.492,4.051-1.859,8.038-3.853,11.9-6.1,2.486-1.447,5.892-3.3,7.152-6.049a8.063,8.063,0,0,0,0-6.632" transform="translate(12.718 36.678)"/><path class="bg" d="M123.476,157.478c5.676-2.24,12.054-4.392,17.238-7.636,3.973-2.486,7.351-5.964,11.681-7.876,2.152-.95,4.01-.836,6.2-1.253.717-.136,5.956-2.933,5.95-2.936-5.576-3.692-12.3-4.622-18.663-6.164-6.955-1.685-13.884-3.791-20.149-7.319-14.045-7.913-23.38-22.833-25.735-38.65-1.067-7.175-.256-14.436-.171-21.642A55.962,55.962,0,0,0,99.1,53.338a21.955,21.955,0,0,0-1.019-4.6c-.632-1.426-2.261-2.717-3.4-3.756a8.553,8.553,0,0,0-3.048-2c-1.887-.6-3.8.012-5.676.3-2.143.33-4.309.473-6.447.852-7.786,1.374-15.639,3.051-23.306,4.987-6.77,1.71-14.344,3.32-19.964,7.7C30.433,61.347,26.1,66.7,24.762,73.689c-1.509,7.887-.7,17.236-.74,25.285-.039,7.874,1.458,15.891,3.016,23.584.793,3.913,1.692,7.805,2.666,11.678.919,3.661,1.673,7.217,3.832,10.379a35.415,35.415,0,0,0,18.8,13.927c3.843,1.226,7.713,2.436,11.582,3.574a49.025,49.025,0,0,0,6.2,1.3q1.836.292,3.675.571c.489.074.981.147,1.47.219.186.027,2.1.385,1.175.131,2.334.406,4.714.477,7.06.806a30.176,30.176,0,0,0,6.662.415c4.533-.366,9.224-.558,13.657-1.594a142.093,142.093,0,0,0,19.66-6.482" transform="translate(18.278 32.756)"/><path class="bg" d="M132.058,147.086c.525-1.286.311-2.781-1.207-4.438-1.583-1.724-3.919-2.495-6.09-3.38a43.1,43.1,0,0,1-21.384-19.154c-5.092-9.372-6.493-20.278-7.123-30.928s-.6-21.437-3.157-31.792c-.638-2.583-1.5-5.238-3.383-7.122a11.227,11.227,0,0,0-8.547-2.83c-2.537.131-4.841,1.138-7.326,1.438-1.668.2-3.3-.018-4.977.261a53.6,53.6,0,0,0-13.72,4.009C48.9,56.064,42.936,59.926,38.457,65.228a42.272,42.272,0,0,0-5.71,9.187c-1.638,3.436-1.811,7.175-2.449,10.874A76.6,76.6,0,0,0,29.576,96.9a89.518,89.518,0,0,0,3.486,26.281,91.84,91.84,0,0,0,4.765,12.729c1.841,4.005,5.178,6.219,9.208,7.94a32.065,32.065,0,0,0,10.084,2.571,20.356,20.356,0,0,0,5.056-.163c1.68-.3,2.689-.837,4.332-.17,3.533,1.431,7.371,1.915,11.068,2.747,3.664.827,7.309,1.949,11.075,2.184,8.816.546,17.451,2.728,26.334,2.685a36.029,36.029,0,0,0,11.2-2.295c2.3-.754,5.033-2.27,5.872-4.325" transform="translate(22.665 36.359)"/><path class="bh" d="M30.143,86.088c-.028-.223-.058-.445-.088-.668Z" transform="translate(23.043 65.491)"/><path class="n" d="M75.2,58.908c-1.825,0-3.675.44-5.5.574-2.071.154-4.118.33-6.175.636-3.956.588-7.909,1.207-11.789,2.177-6.627,1.654-13.609,3.3-18.306,8.6s-4.491,12.077-4.666,18.759a81.889,81.889,0,0,0,3.155,23.7,85.564,85.564,0,0,0,3.719,11.173,16.78,16.78,0,0,0,2.152,4.33,9.26,9.26,0,0,0,3.505,2.058c6.546,2.772,13.789-.256,20.05-2.406a56.693,56.693,0,0,0,10.072-4.85c3.081-1.795,6.247-3.415,9.339-5.18a34.242,34.242,0,0,0,3.707-2.625,13.514,13.514,0,0,0,3.295-2.866c1.935-2.846,1.482-7.706,1.7-11,.3-4.512.569-9.063-.408-13.515-.92-4.176-2.654-8.107-3.772-12.225-.564-2.072-.869-4.2-1.336-6.291a36.882,36.882,0,0,0-2-5.784c-.583-1.445-.894-3.307-2.245-4.256a8.105,8.105,0,0,0-4.5-1" transform="translate(22.035 45.164)"/><path class="bi" d="M54.217,126.441c2.525-.675,5.04-1.254,7.5-2.15a13.47,13.47,0,0,0,3.049-1.355c.2-.131.733-.3.783-.581a.553.553,0,0,0-.754-.578,48.025,48.025,0,0,1-7.314,2.781,10.614,10.614,0,0,0-.544-2.051,45.731,45.731,0,0,1-1.175-5.221c-.283-1.707-.514-3.415-.753-5.123.689-.168,1.373-.352,2.053-.576a25.734,25.734,0,0,0,4.238-1.521c.2-.117.62-.122.7-.42s.051-.915-.488-.723c-2.274.733-4.362,1.629-6.648,2.237-.742-5.516-1.29-11.037-1.753-16.584a7.319,7.319,0,0,0,2.346-.823c.265-.316.472-1.33-.29-1.094-.719.246-1.433.5-2.148.758q-.223-2.711-.433-5.426c-.221-2.908-.3-5.758-.29-8.614.343-.118.691-.226,1.032-.346,1.039-.362,2.021-.661,3.072-.924.265-.065.906-.1,1.09-.345.269-.355.226-1-.376-.89a27.123,27.123,0,0,0-4.8,1.23c.023-2.026.076-4.06.164-6.123.021-.481.11-3.141.074-5.751.555-.133,1.111-.263,1.666-.4a25.33,25.33,0,0,1,2.919-.59c.348-.044,1.374.058,1.7-.2,1.065-.841-.244-.958-1.187-.876a29.566,29.566,0,0,0-5.125.894c-.067-2.134-.251-3.979-.659-4.249-.044.012-.088.019-.131.03l-.247.062c-.41.479-.1,2.044-.1,2.473.044.634.064,1.3.087,1.952-1.516.4-3.023.832-4.466,1.191-.816.2-1.625.435-2.427.682-.555.17-1.272.685-1.284-.115-.019-1.27-.032-2.546-.055-3.82-.39.14-.783.274-1.168.428,0,.136,0,.272.005.406.041.823.085,1.647.127,2.47a3.939,3.939,0,0,1,.065,1.277c-.118.237-.564.3-.829.394-1.528.549-3.04,1.15-4.537,1.786-.717.306-1.431.64-2.147.961.041-.516.1-1.034.15-1.549a.7.7,0,0,0,.053-.576q.056-.506.1-1.018c-.355.314-.691.663-1.028,1.007a13.582,13.582,0,0,0-.4,2.643q-1.227.578-2.422,1.214a16.581,16.581,0,0,0-.71,1.6c.083-.06.177-.134.253-.18.9-.546,1.857-1.021,2.82-1.48-.019,1,0,2.007-.009,3.005-.016,2.314-.168,4.622-.152,6.938.007.936.011,1.876.019,2.818-1.1.525-2.189,1.056-3.293,1.569-.21.1-.788.364-1.357.68-.005.184-.009.366-.014.548-.007.3,0,.6,0,.906a24.156,24.156,0,0,0,4.678-2.558c.037,3.4.117,6.823.4,10.2.094,1.134.217,2.267.362,3.4-1.433.445-2.866.885-4.288,1.362-.042.014-.122.037-.216.065.064.4.12.8.189,1.2l.016,0a30.27,30.27,0,0,0,4.473-1.426,26.442,26.442,0,0,0,.5,3.1q.289,1.622.629,3.231.334,1.577.716,3.141c.251,1.049.638,2.122.8,3.182a13.757,13.757,0,0,1-4.581-.277c.124.44.247.88.38,1.318.3.044.638.074.719.085a11.905,11.905,0,0,0,1.352.1c.825.012,1.609-.138,2.42-.2.9,3.242,1.89,6.454,2.929,9.632.042.131.5,1.993,1.034,3.6-.7.076-1.493.228-1.608.486.548.27,1.115.505,1.634.726.032.014.065.023.1.035.12.007.231.025.355.025.019.048.041.083.06.127.366.138.733.261,1.1.366a2.348,2.348,0,0,0,.009-.585c1.306-.182,2.659-.579,3.6-.8,2.6-.606,5.13-1.493,7.713-2.184m.678-8.07a34.373,34.373,0,0,0,1.56,6.494c-1.973.574-3.957,1.1-5.924,1.632a3.2,3.2,0,0,0-.132-.7,60.394,60.394,0,0,1-1.821-6.489c-.394-1.947-.747-3.894-1.106-5.844.2-.03.4-.067.6-.1,1.982-.3,3.95-.567,5.892-.975.292,1.995.588,3.989.935,5.98m-1.085-6.945c-.069.014-.134.037-.2.049-2.092.426-4.206.724-6.316,1.041q-1.333-7.412-2.208-14.877c2.313-.88,4.6-1.821,6.91-2.717.447,5.521,1.039,11.021,1.818,16.5m-1.9-17.621c-2.336.836-4.662,1.7-6.987,2.572-.357-3.24-.664-6.489-.859-9.761-.088-1.466-.154-2.938-.228-4.408q3.771-1.235,7.523-2.521c-.039,2.733-.032,5.447.124,8.04.12,2.028.27,4.053.428,6.077M43.575,68.6c.2-.065.4-.147.6-.21,2.408-.758,4.874-1.339,7.337-1.919.085,3.791-.062,7.878-.136,11.953-1.353.479-2.694.986-3.968,1.433-1.207.424-2.417.85-3.622,1.281-.131-2.8-.228-5.6-.23-8.4,0-.378.076-2.332.018-4.139M34.405,80.887c.058-2.54.143-5.081.207-7.621.011-.387.044-.772.071-1.159l.417-.2a70.306,70.306,0,0,1,7.2-2.859c-.034,4.079.412,10.187.438,11.2.012.417.046.827.06,1.244-1.555.562-3.1,1.141-4.634,1.767-1.268.516-2.505,1.09-3.738,1.673-.007-1.352-.048-2.71-.016-4.044m.426,15.5c-.249-3.408-.364-6.888-.406-10.356a65.822,65.822,0,0,1,8.392-3.475l.028-.009c.187,4.772.514,9.51,1.037,14.224-1.82.678-3.643,1.353-5.475,2-1.06.373-2.129.707-3.2,1.044-.161-1.14-.293-2.279-.378-3.426m2.254,13.824c-.534-3.078-1.2-6.15-1.687-9.242.281-.1.562-.2.836-.292,2.618-.841,5.233-1.7,7.812-2.65q.859,7.338,2.2,14.655c-.447.069-.9.129-1.343.207a64.456,64.456,0,0,1-7.028,1.1c-.3-1.251-.565-2.507-.786-3.781m5.56,17.937a57.43,57.43,0,0,0-2.2-5.54,79.336,79.336,0,0,1-2.339-7.662c.247-.027.456-.051.587-.065,2.6-.286,5.152-.8,7.722-1.238.436,2.35.9,4.7,1.5,7.014.482,1.832.747,4.335,1.611,6.044.014.025.025.035.039.062l-.458.122a29.532,29.532,0,0,1-6.47,1.265" transform="translate(22.044 46.62)"/><path class="bj" d="M118.527,123.334c-1.111-2.927-6.943-3.371-9.4-3.348-.687.007-2.86-.164-3.166.627-.178.465.493,1.7.523,2.148a5.576,5.576,0,0,0,.542,2.417c.608,1.325.678,3.311,1.915,4.263,1.318,1.014,3.728,1.124,5.312.972,3.606-.343,6.618-3.389,4.275-7.079" transform="translate(81.215 91.984)"/><path class="bk" d="M101.973,106.117h0" transform="translate(78.182 81.359)"/><path class="bk" d="M96.082,93.523h0" transform="translate(73.633 71.659)"/><path class="bk" d="M64.454,88.121h0m9.948,6.12h0m.337-.869c.072.018-.207-.069,0,0m-7.16-2.058-.03-.021.03.021m-.03-.021c-.012-.011-.028-.019-.044-.032.016.012.032.021.044.032m-.131-.087-.023-.018.023.018m.449-.822h0m-2.613-1.132-.03-.034.03.034m-.03-.034h0" transform="translate(49.416 67.562)"/><path class="bj" d="M115.277,122.663v0Z" transform="translate(88.382 94.038)"/><path class="bj" d="M115.286,122.685h0" transform="translate(88.371 93.998)"/><path class="bj" d="M115.3,123.955c-.035.141.023-.106,0,0" transform="translate(88.387 95.014)"/><path class="bj" d="M109.223,121.2h0" transform="translate(83.74 92.906)"/><path class="bj" d="M109.206,121.2c.007-.007.023-.007.03-.016-.007.009-.023.009-.03.016" transform="translate(83.727 92.912)"/><path class="bj" d="M109.381,122.229h0" transform="translate(83.846 93.681)"/><path class="bj" d="M113.483,121.284h0" transform="translate(86.996 92.987)"/><path class="bj" d="M113.845,121.546h0" transform="translate(87.256 93.166)"/><path class="bj" d="M108.885,123.952h0" transform="translate(83.479 95.024)"/><path class="bj" d="M108.891,123.961h0" transform="translate(83.481 95.029)"/><path class="bj" d="M114.412,124.737h0Z" transform="translate(87.719 95.635)"/><path class="bj" d="M112.636,125.344h0Z" transform="translate(86.357 96.1)"/><path class="bj" d="M108.3,122.173c-.007-.03-.023-.049-.03-.079a.293.293,0,0,0,.03.079" transform="translate(83.013 93.608)"/><path class="bj" d="M108.886,124.275v0Z" transform="translate(83.482 95.277)"/><path class="bj" d="M113.887,125.072h0" transform="translate(87.316 95.879)"/><path class="bj" d="M113.866,125.078l.037-.014a.1.1,0,0,0-.037.014" transform="translate(87.3 95.885)"/><path class="i" d="M141.758,145.657c1.219.329,5.028,2.046,6.146.809,1.2-1.318-.627-4.643-1.224-5.956-1.919-4.217-4.926-7.781-8-11.194-3.493-3.867-7.06-7.676-10.323-11.743-3.009-3.747-5.012-7.961-8.685-11.2a18.8,18.8,0,0,0-5.365-3.6c-2.334-.88-4.7-1.65-7.033-2.555a128.012,128.012,0,0,0-14.206-4.553c-4.044-1.049-9.4-2.632-11.961-6.236-.518-.73-.244-2.185-.691-2.505-.429-.309-2.194.111-2.655.163-5.238.567-10.406,1.666-15.672,1.957q-3.673.2-7.358.2c-2.747-.007-5.66-.459-8.39-.216-4.7.422-3.334,6.12-2.6,9.245,1.007,4.281,1.8,8.743,5.166,11.872,2.685,2.493,6.249,3.719,9.773,4.452,3.714.772,7.508,1.009,11.264,1.516,5.182.7,10.362,1.458,15.535,2.231,3.035.458,6.065.949,9.083,1.519,2.214.422,5.222.486,7.083,1.894a48.723,48.723,0,0,1,4.979,5.017,44.581,44.581,0,0,0,5.858,4.6,78.5,78.5,0,0,0,6.652,4.79c2.185,1.272,4.459,2.39,6.7,3.551a79.634,79.634,0,0,0,15.923,5.945" transform="translate(32.948 66.558)"/><path class="i" d="M99.567,107.959c4.537,2.567,7.789,7.053,10.552,11.333,1.431,2.222,3.035,4.058,4.118,6.514a61.3,61.3,0,0,0,4.173,7.417c3.168,5.146,6.076,10.4,8.89,15.743q2.139,4.057,4.274,8.114,1.028,1.945,2.051,3.894c.613,1.162,1.214,2.742,2.4,3.452,2.109,1.272,5.388-.041,7.379-.986.617-.293,1.8-1.124,1.894-1.9.044-.367-.458-1.325-1.069-.913-.226-3.021-2.037-6.169-3.115-8.957-.975-2.518-2.025-5.009-2.993-7.528-2.742-6.577-5.524-15.248-8.318-22.243-3.044-7.574-5.842-15.209-11.432-21.356-2.675-2.94-6.077-3.795-9.673-5.233q-3.143-1.256-6.307-2.454c-1.115-.42-2.228-.841-3.336-1.279-.442-.175-.883-.352-1.323-.534.048.021-1.834-.777-1.065-.443-5.436-2.329-10.727-4.963-16.22-7.118a8.627,8.627,0,0,1-2.565-1.556c-.279-.244-.848-1.058-1.18-1.132-.539-.122-1.947.655-2.486.839-2.694.91-5.577,1.65-8.047,3.092-4.7,2.742-5.574,8.266-1.277,11.9,2.028,1.714,4.638,2.539,7.139,3.283,2.881.855,5.77,1.684,8.655,2.525q5.04,1.471,10.084,2.942c2.805.82,6.24,1.136,8.8,2.583m31.585,17.616h0" transform="translate(47.614 61.936)"/><path class="bl" d="M121.913,135.735a21.14,21.14,0,0,0-3.56-5.217,24.218,24.218,0,0,0-2.125-2.3c-.871-.781-1.91-1.173-2.715-2.012-.737-.765-1.152-1.463-2.136-.807-.735.489-1.321,1.435-2.048,2-1.35,1.048-3.943,3.189-5.774,2.479,2.456,5.065,6.63,10.756,11.752,13.346,2.2,1.111,5.807,1.795,7.093-.961.906-1.936.33-4.65-.488-6.524" transform="translate(79.395 95.943)"/><path class="r" d="M85.818,91.34A72.18,72.18,0,0,1,81.2,85.587c-2.1-3.026-4.219-6.325-4.4-10.095-.115-2.452-.33-4.9-.664-7.33q-.254-1.892-.61-3.765c-.246-1.286-.064-2.687-1.526-2.629-4.639.18-4.835,6.521-5.457,10.031l.334-.12a20.244,20.244,0,0,0-.034,9.305c1.237,5.33,4.613,9.581,8.06,13.755a85.574,85.574,0,0,0,8.219,8.644c1.117,1.021,3.247,3.574,4.7,3.459,1.161-.088,2.4-1.184,3.2-1.949,1.06-1.009.428-1.829-.129-3.2-1.6-3.933-4.334-7.152-7.083-10.355" transform="translate(52.382 47.356)"/><path class="g" d="M67.213,50.552c.375-1.7.906-3.325,1.447-4.984A73.189,73.189,0,0,0,53.477,59.544c-2.666,3.256-4.71,6.8-7.046,10.277-1.178,1.756-1.594,4.175-2.143,6.217-.608,2.277-1.155,4.57-1.721,6.858a82.258,82.258,0,0,0-2.309,26.151c.279,3.549.689,7.911,2.556,11.058,1.5,2.526,5.049,1.9,7.558,1.864,4.759-.065,9.385.419,14.158-.113,2.131-.238,4.259-.541,6.357-.979,1.062-.223,2.118-.477,3.159-.784.511-.152,1.018-.314,1.521-.493.2-.072,1.912-.693,1.2-.491a56.741,56.741,0,0,0,11.1-4.9c2.125-1.277,6.524-3.191,7.039-5.94.226-1.212-.862-2.293-.906-3.556a28.759,28.759,0,0,0-.631-6.2c-.551-2.134-1.408-4.175-1.947-6.311-.972-3.851-.853-7.883-.73-11.853a2.338,2.338,0,0,1,.217-1.1,2.223,2.223,0,0,1,1.763-.837,6.111,6.111,0,0,0,1.692-.505,10.689,10.689,0,0,0,1.521-.477c1.367-.786,1.488-2.171,1.272-3.613-.233-1.558-.8-3.074-1.131-4.615-.445-2.056-.788-4.134-1.276-6.182-.809-3.4-1.724-7.812-3.926-10.63-1.009-1.291-2.327-1.329-3.864-1.321-1.827.009-2.2.724-2.228,2.512-.03,2.279.124,4.569.171,6.849.037,1.821.058,3.835-1.329,5.222C81.069,60.3,74.2,58.483,69.262,56.06c-2.539-1.246-2.622-2.911-2.049-5.509" transform="translate(30.69 34.937)"/><path class="bi" d="M60.226,56.984c1.288-.915,2.867-1.221,4.2-2.033A12.693,12.693,0,0,0,67.39,52.1a17.153,17.153,0,0,0,2.256-3.634,16.924,16.924,0,0,0,.767-2,9.208,9.208,0,0,1,.481-1.966,98.762,98.762,0,0,0-12.473,9.2,49.949,49.949,0,0,0-8.2,8.685C45.5,68.744,43,76.044,41.677,83.767c-.694,4.062-1.438,8.146-1.728,12.261a111.758,111.758,0,0,0,.076,12.017c.226,6.12.558,14.151,7.927,15.7,7.307,1.541,15.367-.159,22.543-1.59,2.072-.413,4.145-.844,6.182-1.413a27.533,27.533,0,0,0,5.387-1.859,78.729,78.729,0,0,0,10.579-6.728,6.567,6.567,0,0,0,1.846-1.848,2.718,2.718,0,0,0,0-2.839c-1.238-1.791-3.972-.251-5.47.292-7.618,2.747-15.3,5.2-23.022,7.66a22.506,22.506,0,0,1-5.7,1.4c-1.7.046-1.869-1.3-2.115-2.714-.493-2.837-.641-5.812-1.277-8.614-.505-2.219-.546-4.721-1.935-6.65A28.237,28.237,0,0,0,51.9,95.836c-2.76-2.814-3.726-7.01-3.452-10.941a28.886,28.886,0,0,1,1.26-6.342,57.585,57.585,0,0,0,1.747-5.735,32.53,32.53,0,0,1,4.669-11.4,16.649,16.649,0,0,1,4.1-4.436" transform="translate(30.522 34.119)"/><path class="bi" d="M69.519,62.509a47.364,47.364,0,0,0-1,14.618,34.961,34.961,0,0,0,1.226,6.839c.435,1.334,1.38,1.993,1.447.083s-.781-3.9-.954-5.809a43.966,43.966,0,0,1-.415-5.385,106.671,106.671,0,0,0-.152-11.171c-.048.274-.1.549-.152.825M71,84.656l.007,0-.007,0m.007,0,0,0Zm-.83.436c.009.012.03.051,0,0" transform="translate(52.365 47.293)"/><path class="bi" d="M58.887,84.752c.367-1.3.783-2.586,1.224-3.864a23.967,23.967,0,0,0,1.053-2.772c1.866-5.3,3.546-10.731,5.9-15.814.034-.078.155-.41-.023-.3-.685.253-1.267,1.47-1.71,2.014a32.156,32.156,0,0,1-2.394,2.811c-.989.965-2.085,1.827-3,2.864a16.293,16.293,0,0,0-2.26,3.654q-2.2,4.367-4.4,8.736a60.9,60.9,0,0,0-3.021,6.646A3.444,3.444,0,0,0,50,90.84a2.9,2.9,0,0,0,1.173,1.438,4.44,4.44,0,0,0,2.956.938,2.776,2.776,0,0,0,1.765-.88,8.051,8.051,0,0,0,.479-.852c.21-.293.571-.486.807-.783a6.442,6.442,0,0,0,.915-1.874c.463-1.284.417-2.742.8-4.076" transform="translate(38.268 47.519)"/><path class="bj" d="M57.278,78.837v0Z" transform="translate(43.915 60.431)"/><path class="bi" d="M74.966,49.117a21.611,21.611,0,0,0-6.736-2.343A9.369,9.369,0,0,1,65.9,46.4a19.9,19.9,0,0,0-2.155-.95,6.979,6.979,0,0,0-8.277,4.18,9.629,9.629,0,0,0-.724,4.943,4.556,4.556,0,0,0,1.6,2.318A12.77,12.77,0,0,0,58.8,58.355a54.7,54.7,0,0,1,7.858,4.373,21.442,21.442,0,0,1,3.261,2.989,13.218,13.218,0,0,0,3.141,2.949c2.775,1.556,5.653-.187,6.968-2.745a10.626,10.626,0,0,0,1.094-3.779c.1-.986-.041-1.965.012-2.949a19.281,19.281,0,0,0,.244-2.542,9.2,9.2,0,0,0-1.6-4.1c-1.067-1.624-2.609-2.359-4.316-3.192Z" transform="translate(41.887 34.674)"/><path class="bm" d="M69.687,64.494c.005.011.092.154,0,0" transform="translate(53.428 49.447)"/><path class="bn" d="M87.952,75.192c.016,0,0,0,0,0" transform="translate(67.432 57.647)"/><path class="bn" d="M87.952,75.191h0Z" transform="translate(67.432 57.648)"/><path class="bn" d="M86.21,75h0Z" transform="translate(66.096 57.499)"/><path class="bn" d="M87.95,75.192l.005,0-.005,0" transform="translate(67.43 57.648)"/><path class="bn" d="M87.95,75.191" transform="translate(67.43 57.648)"/><path class="bn" d="M87.939,75.2l.019-.012-.019.012" transform="translate(67.422 57.648)"/><path class="bn" d="M90.361,72.051h0" transform="translate(69.279 55.209)"/><path class="bn" d="M90.353,72.038h0" transform="translate(69.273 55.227)"/><path class="r" d="M72.863,54.012c-.336-.33-.9-.588-1.207-.846-.693-.585-1.435-1.108-2.161-1.65a12.565,12.565,0,0,1-3.641-3.71,10.431,10.431,0,0,1-1.207-3.83,3.7,3.7,0,0,0-.664-2.111,8.806,8.806,0,0,1,.875-.919c.348-.311,1.5-.716,1.071-1.364-.353-.539-2.5-.092-2.995-.014a3.034,3.034,0,0,0-1.867.818,3.4,3.4,0,0,0-.615,1.346c-.438,1.512-.753,3.152-1.336,4.611-.44,1.1-1.214,2.055-1.691,3.159a5.675,5.675,0,0,0-.367,3.871,7.915,7.915,0,0,0,2.131,3.069,57.781,57.781,0,0,0,6.1,5.378A6.513,6.513,0,0,0,67.319,63a2.382,2.382,0,0,0,2.233-.371,3.531,3.531,0,0,0,.8-1.3q1.068-2.47,2.134-4.94c.239-.549.883-1.466.6-2.079a.971.971,0,0,0-.219-.3" transform="translate(43.597 30.146)"/><path class="bo" d="M61.944,18.014c-3.468,1.961-7.037,5.249-7.351,9.471-.307,4.115,2.857,8.09,6.713,9.272-.631-.193-2,4.337-2.12,4.811a23.973,23.973,0,0,0,1.88,16.642,4.2,4.2,0,0,0,1.118,1.546c.663.336,1.968-.645,2.541-1.048,1.23-.866,2.293-2.115,3.433-3.1a81.816,81.816,0,0,1,8.523-6.477,11.278,11.278,0,0,1,2.807-1.449A15.41,15.41,0,0,1,92.033,48.82c2.329,1.376,6.685,7.989,8.567,3.078a21.63,21.63,0,0,0,.307-12.994,18.022,18.022,0,0,0-9.742-11.236c-4.233-2.026-10.556-3.659-14.952-1.286,2.272-8.365-8.054-11.786-14.27-8.367" transform="translate(41.84 12.804)"/><path class="r" d="M63.625,56.863c.062.046.133.078.193.122A19.358,19.358,0,0,0,70.869,61c4.362,1.376,7.722.235,11.2-2.465a49.084,49.084,0,0,0,9.044-8.427,33.72,33.72,0,0,0,3.161-4.848A7.807,7.807,0,0,0,95.724,41.9c.014-.14.178-.6.06-.783-.023-.035-.06-.051-.09-.08a1.772,1.772,0,0,0-.064-.186c0-.269-.053-.463-.178-.518-.82-1.7-3.182-3.162-4.493-4a18.6,18.6,0,0,0-11.1-2.915,17.715,17.715,0,0,0-6.572,2.15c-.832-2.712-5.274-2.261-7.067-1.09a7.17,7.17,0,0,0-2.874,6.281,4.658,4.658,0,0,1-.161,1.957c-.428,1-1.553,1.4-2.178,2.238a9.464,9.464,0,0,0-1.761,3.279c-.751,3.4,1.844,6.722,4.383,8.627" transform="translate(45.319 25.597)"/><path class="bp" d="M100.381,108.746a52.751,52.751,0,0,1,14.386,15.789,168.225,168.225,0,0,1,10.605,19.472c-1.648-8.475-6.466-16.619-10.7-24.142-1.306-2.32-2.539-4.828-3.938-7.054-1.276-2.033-3.883-3.673-5.869-4.924-4.376-2.758-9.279-4.535-14.026-6.524A144.514,144.514,0,0,1,75.778,94c-2.433-1.367-5.694-2.468-6.084-5.632a5.184,5.184,0,0,0-.173-1.1,1.034,1.034,0,0,0-.77-.728,1.465,1.465,0,0,0-1.1.539q-1.012.941-2.026,1.876a3.718,3.718,0,0,0-1.355,1.966,2.5,2.5,0,0,0,.871,2.145c1.931,1.8,4.828,2.908,7.249,3.866,4.5,1.777,9.116,3.214,13.66,4.865a62.574,62.574,0,0,1,14.331,6.945" transform="translate(49.256 66.347)"/><path class="bm" d="M49.868,88.405l.005,0-.005,0" transform="translate(38.233 67.778)"/><path class="bo" d="M69.531,90.922a.1.1,0,0,0-.014.037c0-.023.081-.214.014-.037" transform="translate(53.298 69.652)"/><path class="bn" d="M80.19,100.1l-.611,1.707L58.157,91.706V89.729Z" transform="translate(44.589 68.794)"/><path class="bc" d="M58.158,95.539,100.85,82.15,110.8,91.8,79.388,105.528Z" transform="translate(44.589 62.983)"/><path class="bn" d="M123.436,71.482l1.7.95L76.94,85.275l-1.092-1.12Z" transform="translate(58.152 54.805)"/><path class="r" d="M104.405,110.2a17.1,17.1,0,0,0-7.745-7.5,17.3,17.3,0,0,0-5.145-1.594c-1.749-.251-3.537-.014-5.256-.488a13.474,13.474,0,0,1-2.426-1.175c-1.092-.546-2.194-1.069-3.293-1.6C75.2,95.257,61.6,89.506,56.613,87.593c.06-.009.118-.007.182-.019.652-2.223,3.526-9.757,4.171-11.521a5.752,5.752,0,0,0,.253-3.132c-.145-.111-.279-.237-.42-.352-.046-.018-.1-.035-.141-.053a10.133,10.133,0,0,1-1.576-.749c-1.493-.912-3.046-1.731-4.48-2.733-1.254-.876-2.413-1.8-3.726-2.6a13.167,13.167,0,0,1-2.509-1.85,1.967,1.967,0,0,0-1.06.371,3.77,3.77,0,0,0-1.113,2.224A105.705,105.705,0,0,0,43.071,85.95c-.042.746-.085,1.511-.118,2.279a9.494,9.494,0,0,0-.159,1.556,8.669,8.669,0,0,0,.463,1.639,6.212,6.212,0,0,0,2.3,2.88c2.466,1.938,5.459,2.814,8.425,3.673,3.164.915,6.261,2,9.381,3.06,6.855,2.321,14.8,4.878,21.156,6.56a61.713,61.713,0,0,0,9.706,1.173c1.677.106,3.3.336,4.961.6a16.383,16.383,0,0,1,4.429,1.533c.286.133.687.235.867-.025.132-.194.035-.454-.074-.673" transform="translate(32.801 49.518)"/><path class="bc" d="M129.4,72.008l-15.222,28.467L70.283,115.4,81.208,84.872Z" transform="translate(53.885 55.208)"/><path class="bn" d="M81.777,79.775,70.852,110.3l-1.313-.618L80.687,78.655Z" transform="translate(53.315 60.304)"/><path class="bq" d="M92.425,85.9a2.76,2.76,0,0,0-2.078-3.445c-2.489-.546-5.362,1.2-4.74,4.033a3.306,3.306,0,0,0,3.555,2.406A4.019,4.019,0,0,0,92.425,85.9" transform="translate(65.568 63.137)"/></g></g></g></svg>