<svg xmlns="http://www.w3.org/2000/svg" xmlns:xlink="http://www.w3.org/1999/xlink" width="381.059" height="280.042" viewBox="0 0 381.059 280.042"><defs><style>.a,.g{fill:none;}.b{fill:#e2e2e2;}.b,.c{opacity:0.3;}.b,.c,.d{isolation:isolate;}.c,.d,.m{fill:#73d7ff;}.d{opacity:0.32;}.e{fill:#003575;}.f{fill:#bfdeff;}.g{stroke:#295082;stroke-miterlimit:10;stroke-width:2px;}.h{fill:#fff;}.i{clip-path:url(#a);}.j{fill:#1e3a6d;}.k{fill:#7ecef5;}.l{clip-path:url(#b);}.n{clip-path:url(#c);}.o{clip-path:url(#d);}.p{clip-path:url(#e);}.q{clip-path:url(#f);}.r{clip-path:url(#g);}.s{clip-path:url(#h);}.t{clip-path:url(#i);}</style><clipPath id="a"><path class="a" d="M67.688,144.911V117.874a.332.332,0,0,1,.31-.31h23.44a.332.332,0,0,1,.31.31v27.037h-.062a.332.332,0,0,1-.31.31H68a.293.293,0,0,1-.31-.31M66.882,116.2a.651.651,0,0,0-.682.682v29.145a.651.651,0,0,0,.682.682H92.431a.651.651,0,0,0,.682-.682V116.882a.651.651,0,0,0-.682-.682Z" transform="translate(-66.2 -116.2)"/></clipPath><clipPath id="b"><rect class="a" width="34.912" height="23.812"/></clipPath><clipPath id="c"><path class="a" d="M293.75,140.639h-4.4V136.05h-4.341v4.589h-4.4v4.527h4.4v4.589h4.341v-4.589h4.4Z" transform="translate(-280.603 -136.05)"/></clipPath><clipPath id="d"><path class="a" d="M296.676,147.494a.4.4,0,0,1-.372.372H263.748a.4.4,0,0,1-.372-.372V125.6a1.667,1.667,0,0,1,1.674-1.674H295a1.667,1.667,0,0,1,1.674,1.674ZM271.5,119.589a1.535,1.535,0,0,1,1.55-1.55H287a1.535,1.535,0,0,1,1.55,1.55v2.294a.322.322,0,0,1-.124.248.47.47,0,0,1-.248.124H271.934a.322.322,0,0,1-.248-.124.47.47,0,0,1-.124-.248v-2.294Zm23.626,2.728a.4.4,0,0,1-.372-.372v-1.178a.806.806,0,0,0-1.612,0v1.178a.4.4,0,0,1-.372.372h-2.356a.4.4,0,0,1-.372-.372v-2.294a3.07,3.07,0,0,0-3.1-3.1H272.988a3.07,3.07,0,0,0-3.1,3.1v2.294a.4.4,0,0,1-.372.372h-2.356a.4.4,0,0,1-.372-.372v-1.178a.806.806,0,0,0-1.612,0v1.178c0,.186-.186.31-.372.372a3.191,3.191,0,0,0-3.1,3.287v23.068a.821.821,0,0,0,.806.806H297.42a.821.821,0,0,0,.806-.806V125.6A3.232,3.232,0,0,0,295.126,122.317Z" transform="translate(-261.7 -116.55)"/></clipPath><clipPath id="e"><path class="a" d="M280.087,142.165a.4.4,0,0,0-.372.372v2.294a.4.4,0,0,0,.372.372h3.535a.812.812,0,0,1,.806.744v3.411a.4.4,0,0,0,.372.372h2.356a.4.4,0,0,0,.372-.372v-3.411a.769.769,0,0,1,.806-.744h3.535a.4.4,0,0,0,.372-.372v-2.294a.4.4,0,0,0-.372-.372h-3.535a.812.812,0,0,1-.806-.744V138.01a.4.4,0,0,0-.372-.372H284.8a.4.4,0,0,0-.372.372v3.411a.757.757,0,0,1-.248.558.923.923,0,0,1-.558.248h-3.535Zm3.535,9.116a.812.812,0,0,1-.806-.744v-3.411a.4.4,0,0,0-.372-.372h-3.535a.812.812,0,0,1-.806-.744v-4.589a.769.769,0,0,1,.806-.744h3.535a.322.322,0,0,0,.248-.124.47.47,0,0,0,.124-.248v-3.411a.769.769,0,0,1,.806-.744h4.713a.812.812,0,0,1,.806.744V140.3a.4.4,0,0,0,.372.372h3.535a.812.812,0,0,1,.806.744v4.589a.769.769,0,0,1-.806.744h-3.535a.4.4,0,0,0-.372.372v3.411a.769.769,0,0,1-.806.744Z" transform="translate(-278.103 -136.15)"/></clipPath><clipPath id="f"><ellipse class="a" cx="13.518" cy="13.27" rx="13.518" ry="13.27"/></clipPath><clipPath id="g"><path class="a" d="M550.461,420.609h-5.333V415.4h-5.395v5.209H534.4v5.209h5.333v5.209h5.395v-5.209h5.333Z" transform="translate(-534.4 -415.4)"/></clipPath><clipPath id="h"><path class="a" d="M534.474,420.069a.293.293,0,0,0-.31.31v3.783a.293.293,0,0,0,.31.31h4.713a.563.563,0,0,1,.434.186.669.669,0,0,1,.186.434v4.713a.293.293,0,0,0,.31.31H543.9a.293.293,0,0,0,.31-.31v-4.713a.563.563,0,0,1,.186-.434.671.671,0,0,1,.434-.186h4.713a.293.293,0,0,0,.31-.31v-3.783a.293.293,0,0,0-.31-.31H544.83a.563.563,0,0,1-.434-.186.67.67,0,0,1-.186-.434v-4.713a.293.293,0,0,0-.31-.31h-3.783a.293.293,0,0,0-.31.31v4.713a.563.563,0,0,1-.186.434.67.67,0,0,1-.434.186Zm5.643,11.348a1.6,1.6,0,0,1-1.612-1.612v-3.783a.293.293,0,0,0-.31-.31h-3.783A1.6,1.6,0,0,1,532.8,424.1v-3.783a1.6,1.6,0,0,1,1.612-1.612H538.2a.293.293,0,0,0,.31-.31v-3.783A1.6,1.6,0,0,1,540.117,413H543.9a1.6,1.6,0,0,1,1.612,1.612V418.4a.293.293,0,0,0,.31.31h3.783a1.6,1.6,0,0,1,1.612,1.612V424.1a1.6,1.6,0,0,1-1.612,1.612h-3.783a.293.293,0,0,0-.31.31v3.783a1.6,1.6,0,0,1-1.612,1.612Z" transform="translate(-532.8 -413)"/></clipPath><clipPath id="i"><path class="a" d="M538.621,405.378a13.334,13.334,0,1,0,13.518,13.332A13.392,13.392,0,0,0,538.621,405.378Zm0,27.967a14.575,14.575,0,1,1,14.821-14.573A14.69,14.69,0,0,1,538.621,433.345Z" transform="translate(-523.8 -404.2)"/></clipPath></defs><g transform="translate(-6 -39.9)"><path class="b" d="M6.1,368.9a190.5,190.5,0,1,1,381,0" transform="translate(-0.038 -52.615)"/><path class="c" d="M44.9,385.879c0-89.916,74.537-162.779,166.438-162.779s166.438,72.863,166.438,162.779" transform="translate(-14.778 -69.596)"/><path class="d" d="M98.1,403.2c0-74.289,59.717-134.5,133.448-134.5S365,328.913,365,403.2" transform="translate(-34.988 -86.918)"/><path class="e" d="M385.942,489.221H7.116A1.112,1.112,0,0,1,6,488.1v-1.488A1.112,1.112,0,0,1,7.116,485.5H385.942a1.112,1.112,0,0,1,1.116,1.116V488.1A1.2,1.2,0,0,1,385.942,489.221Z" transform="translate(0 -169.278)"/><g transform="translate(248.526 41.28)"><path class="f" d="M409.812,68.713l-.62-.062a14.17,14.17,0,0,1-4.713-1.364l-.62-.31.124-2.542-2.48.806-.434-.434A12.154,12.154,0,0,1,398.4,60.9l-.31-.62,1.922-2.108-2.79-1.178-.062-.62c0-.31-.062-.682-.062-.992a13.052,13.052,0,0,1,.5-3.473l.186-.682,3.225-.372-1.55-2.977.372-.558a13.1,13.1,0,0,1,3.163-2.977l.558-.372,2.915,1.86.744-3.349.682-.124a14.508,14.508,0,0,1,4.341-.124l.682.062.992,3.225,2.6-1.984.62.372a13.991,13.991,0,0,1,3.473,2.853l.5.372-1.178,2.853,2.977.124.248.682a12.776,12.776,0,0,1,.806,4.589v.682l-.558.31-1.86.93,1.922,1.736-.248.62a13.422,13.422,0,0,1-2.356,4.217l-.434.5-2.418-.5.31,2.356-.558.372a12.362,12.362,0,0,1-4.589,1.86l-.62.124-1.426-1.86Zm-3.721-3.039a13.8,13.8,0,0,0,2.728.806l2.17-3.473,2.418,3.225a14.032,14.032,0,0,0,2.666-1.054l-.558-4.031,4.031.93a11.567,11.567,0,0,0,1.364-2.418l-3.1-2.853,3.969-2.046a12.7,12.7,0,0,0-.434-2.6l-4.589-.186,1.86-4.4a8.834,8.834,0,0,0-1.86-1.55l-3.907,2.977-1.488-4.837a9.994,9.994,0,0,0-2.356.062l-1.116,4.961-4.217-2.728a14.088,14.088,0,0,0-1.736,1.612l2.294,4.4-4.775.62a9.3,9.3,0,0,0-.248,2.294v.186l4.341,1.8-3.039,3.287a9.185,9.185,0,0,0,1.55,2.17l4.155-1.3Z" transform="translate(-397.1 -42.126)"/><g transform="translate(8.992 8.728)"><path class="f" d="M416.065,65.13a4.465,4.465,0,1,1,4.465-4.465A4.527,4.527,0,0,1,416.065,65.13Zm0-6.821a2.356,2.356,0,1,0,2.356,2.356A2.355,2.355,0,0,0,416.065,58.308Z" transform="translate(-411.6 -56.2)"/></g></g><g transform="translate(60.756 39.9)"><path class="f" d="M100.067,51.434a5.767,5.767,0,1,1,5.767-5.767A5.8,5.8,0,0,1,100.067,51.434Zm0-9.426a3.659,3.659,0,1,0,3.659,3.659A3.626,3.626,0,0,0,100.067,42.008Z" transform="translate(-94.3 -39.9)"/></g><g transform="translate(326.908 99.493)"><path class="f" d="M529.267,147.534a5.767,5.767,0,1,1,5.767-5.767A5.8,5.8,0,0,1,529.267,147.534Zm0-9.426a3.659,3.659,0,1,0,3.659,3.659A3.626,3.626,0,0,0,529.267,138.108Z" transform="translate(-523.5 -136)"/></g><path class="g" d="M275.2,324.5" transform="translate(-102.266 -108.116)"/><path class="g" d="M302.6,377.4" transform="translate(-112.675 -128.212)"/><g transform="translate(43.331 87.215)"><rect class="h" width="25.673" height="28.835" transform="translate(0.682 0.992)"/><g class="i"><rect class="j" width="35.16" height="38.695" transform="translate(-4.093 -4.093)"/></g><rect class="j" width="4.465" height="4.465" transform="translate(11.224 25.239)"/><rect class="j" width="1.364" height="1.364" transform="translate(14.635 16.681)"/><rect class="j" width="1.364" height="1.364" transform="translate(14.635 20.836)"/><rect class="j" width="1.364" height="1.364" transform="translate(14.635 12.526)"/><rect class="j" width="1.364" height="1.364" transform="translate(18.231 16.681)"/><rect class="j" width="1.364" height="1.364" transform="translate(18.231 20.836)"/><rect class="j" width="1.364" height="1.364" transform="translate(18.231 12.526)"/><rect class="j" width="1.364" height="1.364" transform="translate(21.828 16.681)"/><rect class="j" width="1.364" height="1.364" transform="translate(21.828 20.836)"/><rect class="j" width="1.364" height="1.364" transform="translate(21.828 12.526)"/><rect class="j" width="1.364" height="1.364" transform="translate(3.783 16.681)"/><rect class="j" width="1.364" height="1.364" transform="translate(3.783 20.836)"/><rect class="j" width="1.364" height="1.364" transform="translate(3.783 12.526)"/><rect class="j" width="1.364" height="1.364" transform="translate(7.379 16.681)"/><rect class="j" width="1.364" height="1.364" transform="translate(7.379 20.836)"/><rect class="j" width="1.364" height="1.364" transform="translate(7.379 12.526)"/><rect class="j" width="1.364" height="1.364" transform="translate(10.976 16.681)"/><rect class="j" width="1.364" height="1.364" transform="translate(10.976 20.836)"/><rect class="j" width="1.364" height="1.364" transform="translate(10.976 12.526)"/><path class="k" d="M85.084,121.3v2.046H83.1V125.7h1.984v1.984h2.356V125.7h2.046v-2.356H87.441V121.3Z" transform="translate(-72.62 -118.137)"/></g><g transform="translate(164.562 87.432)"><g transform="translate(1.056 7.565)"><g class="l"><rect class="m" width="39.997" height="28.835" transform="translate(-2.48 -2.542)"/></g></g><g transform="translate(11.722 12.092)"><g class="n"><rect class="h" width="18.231" height="18.727" transform="translate(-2.542 -2.48)"/></g></g><g class="o"><rect class="e" width="41.485" height="37.951" transform="translate(-2.478 -2.542)"/></g><g transform="translate(10.172 12.154)"><g class="p"><rect class="e" width="20.774" height="20.278" transform="translate(-2.48 -2.542)"/></g></g></g><g transform="translate(327.094 265.807)"><g transform="translate(1.302 1.24)"><g class="q"><rect class="m" width="31.378" height="30.944" transform="translate(-2.17 -2.17)"/></g></g><g transform="translate(6.573 6.945)"><g class="r"><rect class="h" width="20.464" height="20.03" transform="translate(-2.232 -2.232)"/></g></g><g transform="translate(5.581 5.457)"><g class="s"><rect class="e" width="22.634" height="22.634" transform="translate(-2.108 -2.046)"/></g></g><g class="t"><rect class="e" width="33.982" height="33.548" transform="translate(-2.17 -2.232)"/></g></g><g transform="translate(326.846 50.876)"><path class="m" d="M533.2,57.6a9.819,9.819,0,0,0-9.8,9.8c0,5.395,9.8,15.627,9.8,15.627S543,72.731,543,67.336A9.766,9.766,0,0,0,533.2,57.6Zm0,12.34a3.411,3.411,0,1,1,3.411-3.411A3.441,3.441,0,0,1,533.2,69.94Z" transform="translate(-523.4 -57.6)"/><path class="j" d="M535.743,62.9a5.643,5.643,0,1,0,5.643,5.643A5.664,5.664,0,0,0,535.743,62.9Zm0,9.054a3.411,3.411,0,1,1,3.411-3.411A3.441,3.441,0,0,1,535.743,71.954Z" transform="translate(-525.945 -59.613)"/></g><g transform="translate(318.999 153.374)"><g transform="translate(0.853 25.487)"><path class="h" d="M539.344,271.183l-1.488-3.287-2.915-.5-2.17-.5-1.488-1.488-.31-1.3a11.7,11.7,0,0,1-10.232-.124l-.124.558-1.426,2.046-3.349.434-1.984,1.054-1.736,5.953v3.1h27.471l.5-.744Z" transform="translate(-512.121 -263.99)"/></g><g transform="translate(9.968 9.24)"><ellipse class="h" cx="4.775" cy="7.007" rx="4.775" ry="7.007"/></g><g transform="translate(8.542 1.116)"><rect class="m" width="12.402" height="12.03"/></g><g transform="translate(0 25.115)"><path class="e" d="M511.661,277.653a.926.926,0,0,1-.868-.806c-.062-.744-.372-7.255,2.046-9.8a3.4,3.4,0,0,1,2.48-1.116c1.86,0,3.225,0,4.217-2.046a.787.787,0,0,1,.806-.434c.124,0,.31,0,.372.062a.834.834,0,0,1,.372,1.116c-1.488,2.914-3.783,2.914-5.7,2.914a1.785,1.785,0,0,0-1.3.558c-1.24,1.3-1.674,4.651-1.674,7.379a.466.466,0,0,0,.434.434h11.224a.466.466,0,0,0,.434-.434v-3.721a.868.868,0,1,1,1.736,0v3.721a.466.466,0,0,0,.434.434h11.348a.466.466,0,0,0,.434-.434c0-2.729-.434-6.015-1.674-7.379a1.577,1.577,0,0,0-1.3-.558H535.1c-2.17,0-4.155-.186-5.4-2.977a.841.841,0,0,1,.434-1.116.672.672,0,0,1,.372-.062.894.894,0,0,1,.806.5c.868,1.922,2.046,1.922,4.031,1.984h.186a3.3,3.3,0,0,1,2.48,1.116c2.418,2.6,2.046,9.116,2.046,9.8a.878.878,0,0,1-.868.806l-27.533.062Z" transform="translate(-510.746 -263.39)"/></g><g transform="translate(7.426)"><path class="e" d="M529.914,247.26c-2.977,0-5.891-4.093-5.891-8.371a8.733,8.733,0,0,1,.062-1.24.922.922,0,0,0-.062-.372.473.473,0,0,0-.31-.124h-.124a.887.887,0,0,1-.868-.868V223.758a.887.887,0,0,1,.868-.868h12.526a.887.887,0,0,1,.868.868v12.588a.887.887,0,0,1-.868.868h-.062c-.124,0-.186.062-.31.124a.347.347,0,0,0-.062.372,8.311,8.311,0,0,1,.062,1.24C535.743,243.168,532.953,247.26,529.914,247.26Zm-3.6-10.046a.466.466,0,0,0-.434.31,9.288,9.288,0,0,0-.124,1.364c0,3.535,2.357,6.635,4.155,6.635,1.86,0,4.155-3.163,4.155-6.635a9.288,9.288,0,0,0-.124-1.364.413.413,0,0,0-.434-.31Zm-1.364-12.526a.466.466,0,0,0-.434.434v10.046a.466.466,0,0,0,.434.434H535a.466.466,0,0,0,.434-.434V225.122a.466.466,0,0,0-.434-.434Z" transform="translate(-522.721 -222.89)"/></g><g transform="translate(11.209 3.721)"><path class="e" d="M532.232,235.711a.887.887,0,0,1-.868-.868V233.6a.466.466,0,0,0-.434-.434h-1.24a.887.887,0,0,1-.868-.868.848.848,0,0,1,.868-.868h1.24a.466.466,0,0,0,.434-.434v-1.24a.868.868,0,0,1,1.736,0V231a.466.466,0,0,0,.434.434h1.24a.887.887,0,0,1,.868.868.848.848,0,0,1-.868.868h-1.24a.466.466,0,0,0-.434.434v1.24A.932.932,0,0,1,532.232,235.711Z" transform="translate(-528.821 -228.89)"/></g><g transform="translate(4.945 32.618)"><path class="e" d="M519.589,277.226a.868.868,0,1,1,0-1.736h3.721a.868.868,0,1,1,0,1.736Z" transform="translate(-518.721 -275.49)"/></g><g transform="translate(13.813 29.083)"><rect class="e" width="1.674" height="1.674"/></g></g><g transform="translate(164.684 128.851)"><g transform="translate(0 0)"><path class="e" d="M378.3,285.511a110.278,110.278,0,0,0-14.655-6.281,27.315,27.315,0,0,0-6.281-2.094c-2.512-.419-5.443-1.674-8.375-2.094a16.382,16.382,0,0,1-4.606-8.793A39.449,39.449,0,0,0,358.2,245.314c1.256,0,2.094-.419,3.35-1.675,2.513-2.512,4.188-5.862,4.188-8.793a13.372,13.372,0,0,0-1.256-7.955c.419-3.35,1.256-5.863,1.256-8.793,0-20.936-14.656-34.754-38.523-34.754s-38.523,14.237-38.523,35.591a29.764,29.764,0,0,0,1.256,8.793,13.374,13.374,0,0,0-1.256,7.956,11.13,11.13,0,0,0,4.187,8.793c1.256,1.256,2.093,1.256,3.35,1.675a35.866,35.866,0,0,0,13.818,20.936c-.419,3.768-2.513,6.7-5.443,9.63a63.445,63.445,0,0,1-7.956,1.675c-2.094.419-4.187,1.256-6.7,1.675a77.23,77.23,0,0,0-14.655,6.281c-7.956,4.187-13.4,12.143-13.4,20.936v6.281c0,5.862,3.35,11.724,8.375,14.236,10.05,5.444,28.473,11.725,56.528,11.725s46.478-6.281,56.528-11.725c5.443-2.512,8.375-8.374,8.375-14.236v-6.281C391.7,297.654,387.095,289.28,378.3,285.511ZM300,242.383c0-.419-.419-1.256-1.675-1.675a1.9,1.9,0,0,0-2.094,0c-.419,0-.419,0-1.256-.419a8.266,8.266,0,0,1-2.512-5.862,10.478,10.478,0,0,1,2.512-7.118,4.536,4.536,0,0,1,2.513.419l.419.419c1.256.419,2.512-.419,3.35-1.674v-.419a80.84,80.84,0,0,0,2.512-8.375,24.431,24.431,0,0,0,10.887,2.513A26.747,26.747,0,0,0,328.473,216a19.867,19.867,0,0,1,20.936-.419c1.675,4.188,3.35,9.212,3.35,10.468s1.675,2.094,2.513,2.094h.419l.419-.419c.419-.419,1.675-.419,2.513-.419,1.675.419,2.512,3.35,2.512,7.118,0,2.094-1.256,4.187-2.512,5.862a1.834,1.834,0,0,1-1.256.419,2.805,2.805,0,0,0-3.35,1.256v.419A40.06,40.06,0,0,1,340.2,264.157a23.867,23.867,0,0,1-28.473,0A43.816,43.816,0,0,1,300,242.383Zm-33.5,70.345v-6.281A18.19,18.19,0,0,1,276.97,289.7c4.606-2.094,9.631-4.188,14.237-5.862h.419c-.419,3.35-1.675,6.281-1.675,9.631a11.807,11.807,0,0,0-8.793,13.4l1.256,7.537a3.376,3.376,0,0,0,5.862,3.35,2.355,2.355,0,0,0,0-3.768c-.419-.419-1.256-1.256-1.674-1.256l-1.256-6.7c-.419-4.187,2.512-7.956,6.281-8.375,4.188-.419,7.956,2.513,8.375,6.281l1.256,6.7c-.419.419-1.256,1.256-1.256,1.675-.419,2.094.419,3.768,2.513,4.187s3.768-.419,4.187-2.512q.628-1.885-1.256-3.769l-1.256-6.7c-.419-5.444-4.606-9.631-10.468-10.468a65.941,65.941,0,0,1,2.094-10.468l.419-.419s2.512-.419,6.281-1.256c3.35,7.537,15.911,15.493,20.517,18.424v35.592c-26.38-.838-43.547-7.956-50.666-11.306C268.6,320.684,266.5,316.916,266.5,312.729Zm120.592,0a11.277,11.277,0,0,1-5.862,10.049c-7.956,4.187-24.7,10.887-51.922,10.887V298.911c4.606-3.35,17.586-11.724,20.518-18.424,2.094.419,4.187,1.256,6.28,1.675h.419c1.674,4.606,2.093,10.049,2.512,15.493a8.607,8.607,0,1,0,10.887,5.443c-1.256-3.35-3.768-5.443-6.28-5.862-.419-4.187-1.256-8.793-2.094-13.4h.419c4.606,1.675,9.63,3.769,14.237,5.862a19.129,19.129,0,0,1,10.468,16.749v6.281Zm-25.123-11.306h0" transform="translate(-261.896 -183.343)"/></g><path class="m" d="M428.394,372.24a11.277,11.277,0,0,1-5.862,10.05c-7.956,4.187-24.7,10.887-51.922,10.887V358.422c4.606-3.35,17.586-11.724,20.518-18.424,2.094.419,4.187,1.256,6.281,1.675h.419c1.674,4.606,2.094,10.05,2.512,15.493a8.607,8.607,0,1,0,10.887,5.443c-1.256-3.35-3.768-5.443-6.28-5.862-.419-4.187-1.256-8.793-2.094-13.4h.419c4.606,1.675,9.63,3.769,14.237,5.862a19.129,19.129,0,0,1,10.468,16.749v6.281Z" transform="translate(-303.195 -242.854)"/><path class="m" d="M269.324,372.5v-6.281a18.19,18.19,0,0,1,10.468-16.749c4.606-2.094,9.631-4.188,14.237-5.863h.419c-.419,3.35-1.675,6.281-1.675,9.631a11.807,11.807,0,0,0-8.793,13.4l1.256,7.537a3.376,3.376,0,0,0,5.862,3.35,2.355,2.355,0,0,0,0-3.768c-.419-.419-1.256-1.256-1.674-1.256l-1.256-6.7c-.419-4.187,2.512-7.956,6.281-8.375,4.188-.419,7.956,2.513,8.375,6.281l1.256,6.7c-.419.419-1.256,1.256-1.256,1.675-.419,2.094.419,3.768,2.513,4.187s3.768-.419,4.187-2.512q.628-1.885-1.256-3.769l-1.256-6.7c-.419-5.444-4.606-9.631-10.468-10.468a65.945,65.945,0,0,1,2.094-10.468l.419-.419s2.512-.419,6.281-1.256c3.35,7.537,15.911,15.493,20.517,18.424v35.592c-26.38-.838-43.547-7.956-50.666-11.306C271.418,380.452,269.324,376.684,269.324,372.5Z" transform="translate(-264.718 -243.111)"/><path class="h" d="M341.873,321.767a26.9,26.9,0,0,0,26.38,0c1.256,3.768,2.512,6.7,5.443,9.63-1.256,3.769-10.049,10.887-18.423,16.331-8.375-5.443-17.587-12.562-18.424-16.331A35.472,35.472,0,0,0,341.873,321.767Z" transform="translate(-290.369 -235.929)"/><path class="h" d="M318.726,260.434c0-.419-.419-1.256-1.675-1.675a1.9,1.9,0,0,0-2.094,0c-.419,0-.419,0-1.256-.419a8.266,8.266,0,0,1-2.512-5.862,10.478,10.478,0,0,1,2.512-7.118,4.537,4.537,0,0,1,2.513.419l.419.419c1.256.419,2.512-.419,3.35-1.674V244.1a80.851,80.851,0,0,0,2.512-8.375,24.431,24.431,0,0,0,10.887,2.513,26.747,26.747,0,0,0,13.817-4.187,19.867,19.867,0,0,1,20.936-.419c1.675,4.188,3.35,9.212,3.35,10.468S373.16,246.2,374,246.2h.419l.419-.419c.419-.419,1.675-.419,2.513-.419,1.675.419,2.512,3.35,2.512,7.118,0,2.094-1.256,4.187-2.512,5.862a1.835,1.835,0,0,1-1.256.419,2.805,2.805,0,0,0-3.35,1.256v.419a40.061,40.061,0,0,1-13.818,21.773,23.867,23.867,0,0,1-28.473,0A43.816,43.816,0,0,1,318.726,260.434Z" transform="translate(-280.622 -201.394)"/><path class="h" d="M346.271,190.1c20.517,0,33.916,11.724,33.916,30.148a25.772,25.772,0,0,1-.419,5.444h-.419a5.8,5.8,0,0,0-3.768,0c-.419-1.675-1.675-4.188-3.35-8.793h0v-.838l-.419-.419h0a23.348,23.348,0,0,0-26.38,0,19.018,19.018,0,0,1-20.936,0h-.419l-1.256-.419h-1.256l-.419.419h-.419l-.419.419h0v.838a29.716,29.716,0,0,1-2.513,7.955,5.812,5.812,0,0,0-3.768,0h-.419c0-1.675-.419-3.35-.419-4.606-.838-18.424,12.562-30.148,33.079-30.148Z" transform="translate(-281.369 -185.908)"/><path class="h" d="M420.714,373.76h0a4.187,4.187,0,1,1-4.188,4.188,3.944,3.944,0,0,1,4.188-4.188" transform="translate(-320.638 -255.68)"/></g><g transform="translate(73.117 177.038)"><g transform="translate(32.868 3.659)"><circle class="h" cx="39.439" cy="39.439" r="39.439"/></g><g transform="translate(47.998 19.161)"><circle class="m" cx="24.308" cy="24.308" r="24.308"/></g><g transform="translate(2.916 75.468)"><path class="m" d="M144.424,382.75l11.658,11.658-26.789,26.169h-5.767l-4.589-8.744,2.108-7.193Z" transform="translate(-118.937 -382.75)"/></g><g transform="translate(29.519 67.096)"><path class="h" d="M163.2,375.637l7.007-6.387,9.86,10.852-7.689,7.875-10.542-11.472Z" transform="translate(-161.837 -369.25)"/></g><path class="e" d="M124.716,376.763h-.186a10.708,10.708,0,0,1-7.193-3.1,10.11,10.11,0,0,1-.248-14.325l32.246-32.246a1.213,1.213,0,0,0,.186-1.488,43.171,43.171,0,0,1,6.883-51.965,43.116,43.116,0,0,1,60.895,0,43.153,43.153,0,0,1,0,60.957,42.722,42.722,0,0,1-30.447,12.588,43.447,43.447,0,0,1-21.518-5.705,1.047,1.047,0,0,0-.62-.186,1.224,1.224,0,0,0-.868.372L131.6,373.91a9.307,9.307,0,0,1-6.883,2.853Zm17.859-35.346a1.224,1.224,0,0,0-.868.372l-21.146,21.146a5.251,5.251,0,0,0,.248,7.317,5.59,5.59,0,0,0,3.783,1.674h.124a4.83,4.83,0,0,0,3.411-1.364l21.146-21.146a1.2,1.2,0,0,0,0-1.736l-5.829-5.829A1.083,1.083,0,0,0,142.575,341.416Zm9.612-9.55a1.224,1.224,0,0,0-.868.372l-4.341,4.341a1.2,1.2,0,0,0,0,1.736l5.829,5.829a1.2,1.2,0,0,0,1.736,0l4.341-4.341a1.262,1.262,0,0,0,.372-.93,1.184,1.184,0,0,0-.434-.868c-1.054-.868-2.046-1.8-2.977-2.728s-1.86-1.922-2.728-2.977a1.319,1.319,0,0,0-.93-.434Zm34.726-65.794A38.168,38.168,0,1,0,213.888,277.3,37.951,37.951,0,0,0,186.913,266.073Z" transform="translate(-114.234 -261.05)"/><g transform="translate(43.72 14.883)"><path class="e" d="M213.324,342.224a28.582,28.582,0,1,1,20.216-8.372A28.427,28.427,0,0,1,213.324,342.224Zm0-52.213a23.713,23.713,0,1,0,16.681,6.945,23.407,23.407,0,0,0-16.681-6.945Z" transform="translate(-184.737 -285.05)"/></g><g transform="translate(70.136 29.517)"><path class="e" d="M240.917,324.711a2.488,2.488,0,0,1-2.48-2.48,8.641,8.641,0,0,0-8.62-8.62,2.48,2.48,0,0,1,0-4.961,13.577,13.577,0,0,1,13.58,13.58A2.449,2.449,0,0,1,240.917,324.711Z" transform="translate(-227.337 -308.65)"/></g></g><g transform="translate(33.254 168.691)"><g transform="translate(23.502 1.24)"><circle class="m" cx="5.147" cy="5.147" r="5.147"/></g><path class="e" d="M52.927,281.014a2.977,2.977,0,1,1,0-5.953H68.553a1.488,1.488,0,0,0,0-2.977h-6.7a2.938,2.938,0,0,1-2.977-2.977v-1.86a.393.393,0,0,0-.31-.372,9.62,9.62,0,0,1-8.62-9.612V249.45a.716.716,0,0,1,.744-.744h3.349a.357.357,0,0,0,.372-.372.744.744,0,1,1,1.488,0v2.232a.744.744,0,1,1-1.488,0,.357.357,0,0,0-.372-.372H51.81a.357.357,0,0,0-.372.372v6.7a8.185,8.185,0,1,0,16.371,0v-6.635a.357.357,0,0,0-.372-.372H65.2a.357.357,0,0,0-.372.372.744.744,0,1,1-1.488,0V248.4a.744.744,0,1,1,1.488,0,.357.357,0,0,0,.372.372h3.349a.716.716,0,0,1,.744.744v7.813a9.625,9.625,0,0,1-8.62,9.612.347.347,0,0,0-.31.372v1.86a1.509,1.509,0,0,0,1.488,1.488h6.7a2.977,2.977,0,1,1,0,5.953H52.927a1.488,1.488,0,1,0,0,2.977H76.3a1.509,1.509,0,0,0,1.488-1.488V260.674a.347.347,0,0,0-.31-.372,6.309,6.309,0,1,1,7.379-6.2,6.22,6.22,0,0,1-5.271,6.2.393.393,0,0,0-.31.372V278.1a2.938,2.938,0,0,1-2.977,2.977C76.367,281.014,52.927,281.014,52.927,281.014ZM78.6,249.14a4.837,4.837,0,1,0,4.837,4.837A4.843,4.843,0,0,0,78.6,249.14Z" transform="translate(-49.95 -247.59)"/><g transform="translate(27.905 5.643)"><rect class="e" width="1.488" height="1.488"/></g></g><g transform="translate(179.437 47.62)"><g transform="translate(0 3.411)"><path class="e" d="M293.624,59.958h-6.883a1.054,1.054,0,1,1,0-2.108h6.883a1.087,1.087,0,0,1,1.054,1.054A1.045,1.045,0,0,1,293.624,59.958Z" transform="translate(-285.687 -57.85)"/></g><g transform="translate(3.473)"><path class="e" d="M292.341,61.342a1.087,1.087,0,0,1-1.054-1.054V53.4a1.054,1.054,0,0,1,2.108,0v6.883A1.133,1.133,0,0,1,292.341,61.342Z" transform="translate(-291.287 -52.35)"/></g></g><g transform="translate(154.819 290.456)"><g transform="translate(0 3.411)"><path class="e" d="M253.924,451.558h-6.883a1.054,1.054,0,1,1,0-2.108h6.883a1.087,1.087,0,0,1,1.054,1.054A1.045,1.045,0,0,1,253.924,451.558Z" transform="translate(-245.987 -449.45)"/></g><g transform="translate(3.473)"><path class="e" d="M252.641,452.942a1.087,1.087,0,0,1-1.054-1.054V445a1.054,1.054,0,0,1,2.108,0v6.883A1.133,1.133,0,0,1,252.641,452.942Z" transform="translate(-251.587 -443.95)"/></g></g><g transform="translate(36.199 247.492)"><g transform="translate(0.93 0.93)"><path class="h" d="M63.083,389.931a6.883,6.883,0,1,1,6.883-6.883A6.907,6.907,0,0,1,63.083,389.931Z" transform="translate(-56.2 -376.165)"/></g><g transform="translate(0 0)"><path class="e" d="M62.513,376.525a5.953,5.953,0,1,1-5.953,5.953,5.955,5.955,0,0,1,5.953-5.953m0-1.86a7.813,7.813,0,1,0,7.813,7.813,7.781,7.781,0,0,0-7.813-7.813Z" transform="translate(-54.7 -374.665)"/></g></g><g transform="translate(265.393 106.872)"><g transform="translate(0.93 0.93)"><path class="h" d="M432.683,163.167a6.883,6.883,0,1,1,6.883-6.883A6.829,6.829,0,0,1,432.683,163.167Z" transform="translate(-425.8 -149.4)"/></g><path class="e" d="M432.113,149.76a5.953,5.953,0,1,1-5.953,5.953,5.955,5.955,0,0,1,5.953-5.953m0-1.86a7.813,7.813,0,1,0,7.813,7.813,7.781,7.781,0,0,0-7.813-7.813Z" transform="translate(-424.3 -147.9)"/></g><g transform="translate(316.637 227.081)"><g transform="translate(0.93 0.93)"><path class="h" d="M515.32,357.016a6.883,6.883,0,1,1,6.883-6.883A6.908,6.908,0,0,1,515.32,357.016Z" transform="translate(-508.437 -343.25)"/></g><path class="e" d="M514.75,343.61a5.953,5.953,0,1,1-5.953,5.953,5.955,5.955,0,0,1,5.953-5.953m0-1.86a7.813,7.813,0,1,0,7.813,7.813,7.781,7.781,0,0,0-7.813-7.813Z" transform="translate(-506.937 -341.75)"/></g><g transform="translate(116.124 72.952)"><path class="f" d="M189.354,104.734a5.767,5.767,0,1,1,5.767-5.767A5.8,5.8,0,0,1,189.354,104.734Zm0-9.426a3.659,3.659,0,1,0,3.659,3.659A3.626,3.626,0,0,0,189.354,95.308Z" transform="translate(-183.587 -93.2)"/></g><g transform="translate(116.372 124.355)"><g transform="translate(0 3.473)"><path class="e" d="M191.924,183.8h-6.883a1.054,1.054,0,1,1,0-2.108h6.883a1.054,1.054,0,1,1,0,2.108Z" transform="translate(-183.987 -181.693)"/></g><g transform="translate(3.411)"><path class="e" d="M190.541,185.085a1.087,1.087,0,0,1-1.054-1.054v-6.883a1.054,1.054,0,1,1,2.108,0v6.945A1.033,1.033,0,0,1,190.541,185.085Z" transform="translate(-189.487 -176.093)"/></g></g></g></svg>