<svg xmlns="http://www.w3.org/2000/svg" width="292.953" height="48.206" viewBox="0 0 292.953 48.206"><defs><style>.a{fill:#006cb4;}.b{fill:#fff;}.c{isolation:isolate;}</style></defs><g transform="translate(-0.916 -0.567)"><g transform="translate(0.916 0.567)"><path class="a" d="M18.506,26.034a1,1,0,0,1-.477.9,2.271,2.271,0,0,1-1.36.257l-.663-.05a3.945,3.945,0,0,1-4.126-4.415V17.375H10.65a1.556,1.556,0,0,1-1.018-.3,1.211,1.211,0,0,1,0-1.715h0a1.565,1.565,0,0,1,1.018-.294h1.23V12.809a1.373,1.373,0,0,1,.413-1.055,1.575,1.575,0,0,1,1.128-.393,1.548,1.548,0,0,1,1.1.393,1.382,1.382,0,0,1,.413,1.055v2.257h2.081a1.565,1.565,0,0,1,1.018.294,1.215,1.215,0,0,1,0,1.717,1.558,1.558,0,0,1-1.018.3H14.951v5.566q0,1.818,1.668,1.938l.663.05Q18.506,25,18.506,26.034Z" transform="translate(2.223 3.484)"/><path class="a" d="M27.991,14.269a1.382,1.382,0,0,1,.413,1.055V24.84a1.324,1.324,0,0,1-.429,1.029,1.587,1.587,0,0,1-1.115.392,1.476,1.476,0,0,1-1.055-.367,1.309,1.309,0,0,1-.393-1.005v-.613a3.9,3.9,0,0,1-1.521,1.513,4.393,4.393,0,0,1-2.158.527q-4.415,0-4.414-4.952V15.331a1.373,1.373,0,0,1,.413-1.055,1.546,1.546,0,0,1,1.1-.392,1.59,1.59,0,0,1,1.128.392,1.382,1.382,0,0,1,.413,1.055v6.052a2.889,2.889,0,0,0,.514,1.893,2,2,0,0,0,1.619.612,2.64,2.64,0,0,0,2.048-.846,3.2,3.2,0,0,0,.773-2.245V15.328a1.373,1.373,0,0,1,.413-1.055,1.546,1.546,0,0,1,1.1-.392A1.586,1.586,0,0,1,27.991,14.269Z" transform="translate(5.241 4.43)"/><path class="a" d="M45.92,23.072c0-2.159-.059-4.438-2.219-4.438s-1.987,2.279-1.963,4.438A18.326,18.326,0,1,1,23.4,4.761h.019c2.159.008,3.9-.026,3.9-2.186S25.576.57,23.417.57a22.5,22.5,0,1,0,22.5,22.509Z" transform="translate(-0.916 -0.567)"/><circle class="a" cx="3.909" cy="3.909" r="3.909" transform="translate(37.029 8.149)"/><circle class="a" cx="2.789" cy="2.789" r="2.789" transform="translate(29.176 9.269)"/><path class="a" d="M22.943,4.944a1.668,1.668,0,1,0,1.67-1.667h0a1.667,1.667,0,0,0-1.668,1.666h0Z" transform="translate(7.354 0.45)"/></g><path class="a" d="M42.615,10.333V33.625h99.011V21.109s0-10.786-10.787-10.786Z" transform="translate(15.655 3.663)"/><path class="b" d="M129.9,26.4a1.548,1.548,0,0,0,.531-.077.639.639,0,0,0,.331-.275,1.4,1.4,0,0,0,.169-.539,6.693,6.693,0,0,0,.047-.879,8.484,8.484,0,0,0-.531-3.089,6.546,6.546,0,0,0-1.48-2.3A6.33,6.33,0,0,0,126.7,17.8a8.846,8.846,0,0,0-6.189.138,7.375,7.375,0,0,0-4.053,4.223,8.446,8.446,0,0,0-.55,3.036,10,10,0,0,0,.64,3.729,7.651,7.651,0,0,0,1.741,2.681,7.25,7.25,0,0,0,2.573,1.626,8.949,8.949,0,0,0,3.151.55,13.282,13.282,0,0,0,1.718-.116,9.415,9.415,0,0,0,1.8-.413,8.222,8.222,0,0,0,1.756-.825,7.126,7.126,0,0,0,1.6-1.375L129.5,29.342a.991.991,0,0,0-.862-.413,1.792,1.792,0,0,0-.825.2q-.394.2-.864.447a7.221,7.221,0,0,1-1.071.447,4.555,4.555,0,0,1-1.433.2,3.617,3.617,0,0,1-2.543-.9,4.5,4.5,0,0,1-1.217-2.9Zm-9.153-2.774a4.054,4.054,0,0,1,1.016-2.242,2.862,2.862,0,0,1,2.126-.778,3,3,0,0,1,1.309.261,2.441,2.441,0,0,1,.871.688,2.679,2.679,0,0,1,.477.963,4.2,4.2,0,0,1,.146,1.11Zm-7.565,9.808a6.562,6.562,0,0,0,2.08-1.04l-1.448-2.265a1.259,1.259,0,0,0-.275-.316.554.554,0,0,0-.347-.1.63.63,0,0,0-.275.054c-.077.036-.16.077-.246.124a1.8,1.8,0,0,1-.308.124,1.477,1.477,0,0,1-.439.054.907.907,0,0,1-.778-.362,1.5,1.5,0,0,1-.275-.917V20.848h3.96V17.582h-3.945V12.914h-2.5a.95.95,0,0,0-1.048.74l-.939,3.9-2.545.494V19.91a.862.862,0,0,0,.781.937.772.772,0,0,0,.113,0h1.356v8.259a5.693,5.693,0,0,0,.308,1.926,3.879,3.879,0,0,0,2.366,2.411,5.628,5.628,0,0,0,2.011.331,8.208,8.208,0,0,0,2.388-.347M97.065,17.553V28.94a5.9,5.9,0,0,1-1.333.9,3.328,3.328,0,0,1-1.472.331,1.946,1.946,0,0,1-1.587-.648,2.78,2.78,0,0,1-.539-1.833V17.553H87.353v10.14a7.977,7.977,0,0,0,.355,2.435,5.523,5.523,0,0,0,1.048,1.926,4.772,4.772,0,0,0,1.7,1.271,5.6,5.6,0,0,0,2.319.455,6.526,6.526,0,0,0,1.425-.146,6.215,6.215,0,0,0,1.217-.4,5.825,5.825,0,0,0,1.055-.616,9.084,9.084,0,0,0,.956-.809l.275.924a1.121,1.121,0,0,0,1.17.8h2.959V17.553ZM79.5,33.537h4.777V10.464H79.5ZM64.056,21.271a2.127,2.127,0,0,0,.55.586,1.371,1.371,0,0,0,.825.246,2.257,2.257,0,0,0,.956-.184q.4-.184.825-.413a6.261,6.261,0,0,1,.963-.413,4.381,4.381,0,0,1,1.386-.184,2.131,2.131,0,0,1,1.641.624,2.932,2.932,0,0,1,.578,2.026v.678a19.262,19.262,0,0,0-4.539.55,9.485,9.485,0,0,0-2.866,1.226,4.32,4.32,0,0,0-1.5,1.618,3.975,3.975,0,0,0-.432,1.75,4.976,4.976,0,0,0,.338,1.9,3.68,3.68,0,0,0,.963,1.375,4.141,4.141,0,0,0,1.513.84,6.483,6.483,0,0,0,1.987.285,7.7,7.7,0,0,0,1.487-.138,5.586,5.586,0,0,0,1.264-.4,7.3,7.3,0,0,0,1.148-.655q.551-.384,1.155-.894l.338.879a1.41,1.41,0,0,0,.578.77,2.223,2.223,0,0,0,1.025.184h2.188V23.546A7.2,7.2,0,0,0,76,21.019a5.753,5.753,0,0,0-1.238-2,5.634,5.634,0,0,0-1.972-1.309,6.956,6.956,0,0,0-2.613-.47,11.273,11.273,0,0,0-3.782.624,9.718,9.718,0,0,0-3.213,1.9Zm7.735,7.977a4.922,4.922,0,0,1-1.4,1.048,3.785,3.785,0,0,1-1.617.323,2.176,2.176,0,0,1-1.309-.331,1.336,1.336,0,0,1-.447-1.148,1.5,1.5,0,0,1,.208-.77,1.763,1.763,0,0,1,.747-.631,5.755,5.755,0,0,1,1.463-.462,15.951,15.951,0,0,1,2.357-.246ZM61.052,19.37a6.224,6.224,0,0,0-1.033-.825,7.326,7.326,0,0,0-1.294-.655,8.6,8.6,0,0,0-1.513-.432,8.978,8.978,0,0,0-1.673-.154,8.552,8.552,0,0,0-2.774.413,5.8,5.8,0,0,0-1.972,1.1,4.492,4.492,0,0,0-1.179,1.611,5.223,5.223,0,0,0-.07,3.8,4.086,4.086,0,0,0,.847,1.3,4.676,4.676,0,0,0,1.194.879A10.885,10.885,0,0,0,52.948,27q.687.248,1.364.439a10.461,10.461,0,0,1,1.194.413,2.834,2.834,0,0,1,.847.532,1.037,1.037,0,0,1,.323.785,1.233,1.233,0,0,1-.447.956,1.633,1.633,0,0,1-.616.316,3.283,3.283,0,0,1-.939.116,3.909,3.909,0,0,1-1.3-.184,5.989,5.989,0,0,1-.9-.4l-.717-.4a1.525,1.525,0,0,0-.747-.184,1.375,1.375,0,0,0-.732.177,1.431,1.431,0,0,0-.47.486l-1.11,1.756a6.1,6.1,0,0,0,1.11.778,8.488,8.488,0,0,0,1.41.624,11.2,11.2,0,0,0,1.579.413,8.686,8.686,0,0,0,1.634.154,9.463,9.463,0,0,0,2.888-.4,6.069,6.069,0,0,0,2.111-1.125,4.632,4.632,0,0,0,1.286-1.726,5.455,5.455,0,0,0,.432-2.188,4,4,0,0,0-.316-1.664,3.647,3.647,0,0,0-.84-1.179,5.093,5.093,0,0,0-1.187-.817,12.127,12.127,0,0,0-1.356-.578q-.687-.246-1.356-.447a11.386,11.386,0,0,1-1.187-.424,2.89,2.89,0,0,1-.84-.516.957.957,0,0,1-.316-.74,1.119,1.119,0,0,1,.486-.963,2.39,2.39,0,0,1,1.395-.347,3.987,3.987,0,0,1,1.125.146,8.075,8.075,0,0,1,.886.316l.732.316a1.692,1.692,0,0,0,.678.146,1.013,1.013,0,0,0,.532-.124,1.241,1.241,0,0,0,.393-.413Z" transform="translate(17.937 3.715)"/><path class="a" d="M248.2,26.523a1.536,1.536,0,0,0,.53-.077.639.639,0,0,0,.331-.275,1.391,1.391,0,0,0,.169-.538,6.659,6.659,0,0,0,.045-.876,8.439,8.439,0,0,0-.53-3.081,6.52,6.52,0,0,0-1.476-2.3,6.3,6.3,0,0,0-2.258-1.429,8.828,8.828,0,0,0-6.177.138A7.361,7.361,0,0,0,234.8,22.3a8.43,8.43,0,0,0-.55,3.026,9.972,9.972,0,0,0,.638,3.714,7.622,7.622,0,0,0,1.736,2.674,7.2,7.2,0,0,0,2.567,1.622,8.91,8.91,0,0,0,3.143.55,13.219,13.219,0,0,0,1.714-.116,9.488,9.488,0,0,0,1.8-.413,8.257,8.257,0,0,0,1.752-.825,7.1,7.1,0,0,0,1.59-1.375L247.8,29.448a.986.986,0,0,0-.86-.413,1.791,1.791,0,0,0-.825.2q-.392.2-.861.446a7.108,7.108,0,0,1-1.067.446,4.489,4.489,0,0,1-1.429.2,3.608,3.608,0,0,1-2.535-.9,4.489,4.489,0,0,1-1.215-2.9Zm-9.127-2.766a4.04,4.04,0,0,1,1.014-2.235,2.852,2.852,0,0,1,2.121-.776,2.987,2.987,0,0,1,1.307.261,2.432,2.432,0,0,1,.868.688,2.7,2.7,0,0,1,.476.963,4.19,4.19,0,0,1,.146,1.1Zm-7.546,9.781A6.571,6.571,0,0,0,233.6,32.5l-1.444-2.258a1.254,1.254,0,0,0-.275-.315.562.562,0,0,0-.345-.1.63.63,0,0,0-.275.054c-.077.036-.158.077-.246.122a1.8,1.8,0,0,1-.308.124,1.473,1.473,0,0,1-.437.054.909.909,0,0,1-.776-.362,1.487,1.487,0,0,1-.275-.915V20.991h3.949V17.732h-3.949V13.077h-2.49a.947.947,0,0,0-1.045.737L224.75,17.7l-2.535.492v1.86a.859.859,0,0,0,.777.935.786.786,0,0,0,.114,0h1.352v8.236a5.659,5.659,0,0,0,.308,1.926,3.863,3.863,0,0,0,2.359,2.406,5.592,5.592,0,0,0,2.005.33,8.223,8.223,0,0,0,2.382-.345M210.246,18.507a1.122,1.122,0,0,0-1.168-.8h-2.95V33.643h4.763V22.267a6.009,6.009,0,0,1,1.329-.9,3.347,3.347,0,0,1,1.468-.33,1.929,1.929,0,0,1,1.583.653,2.788,2.788,0,0,1,.538,1.821V33.639h4.763V23.512a7.978,7.978,0,0,0-.353-2.421,5.438,5.438,0,0,0-1.045-1.926,4.813,4.813,0,0,0-1.7-1.26,5.59,5.59,0,0,0-2.312-.453,6.574,6.574,0,0,0-1.421.146,6.283,6.283,0,0,0-1.215.4,5.586,5.586,0,0,0-1.052.622,11.5,11.5,0,0,0-.953.8Zm-17.1,10.687a8.308,8.308,0,0,1,0-7.046A2.781,2.781,0,0,1,195.618,21a2.712,2.712,0,0,1,2.419,1.153,8.388,8.388,0,0,1,0,7.046,2.705,2.705,0,0,1-2.419,1.161,2.769,2.769,0,0,1-2.476-1.161M192.29,18.03a7.389,7.389,0,0,0-2.571,1.624,7.233,7.233,0,0,0-1.675,2.573,9.273,9.273,0,0,0-.591,3.4,9.457,9.457,0,0,0,.591,3.439,7.265,7.265,0,0,0,1.675,2.594,7.4,7.4,0,0,0,2.582,1.651,9.817,9.817,0,0,0,6.628,0,7.266,7.266,0,0,0,2.558-1.651,7.374,7.374,0,0,0,1.66-2.6,9.457,9.457,0,0,0,.591-3.439,9.3,9.3,0,0,0-.591-3.4,7.35,7.35,0,0,0-1.66-2.573,7.254,7.254,0,0,0-2.558-1.629,9.951,9.951,0,0,0-6.628,0m-25.41,15.612V22.109a4.45,4.45,0,0,1,1.084-.784,2.672,2.672,0,0,1,1.221-.292,2.115,2.115,0,0,1,1.583.55,2.725,2.725,0,0,1,.538,1.926V33.637h4.763V23.509a2.49,2.49,0,0,1,.638-1.836,2.176,2.176,0,0,1,1.605-.638q2.121,0,2.121,2.476V33.638h4.763V23.511a8.227,8.227,0,0,0-.369-2.558,5.114,5.114,0,0,0-1.084-1.906,4.624,4.624,0,0,0-1.774-1.183,6.762,6.762,0,0,0-2.428-.413,7.363,7.363,0,0,0-1.483.154,6.093,6.093,0,0,0-1.414.476,5.251,5.251,0,0,0-1.238.846,4.728,4.728,0,0,0-.977,1.26,4.652,4.652,0,0,0-1.436-1.99,3.749,3.749,0,0,0-2.389-.745,5.055,5.055,0,0,0-2.338.55,5.363,5.363,0,0,0-.93.6,8.822,8.822,0,0,0-.825.761l-.261-.861a1.122,1.122,0,0,0-1.168-.8h-2.95V33.637ZM158.67,26.52a1.536,1.536,0,0,0,.53-.077.643.643,0,0,0,.33-.275,1.391,1.391,0,0,0,.169-.538,6.654,6.654,0,0,0,.047-.876,8.41,8.41,0,0,0-.53-3.081,6.539,6.539,0,0,0-1.476-2.3,6.323,6.323,0,0,0-2.258-1.429,8.827,8.827,0,0,0-6.177.138,7.361,7.361,0,0,0-4.041,4.21,8.43,8.43,0,0,0-.55,3.026,9.972,9.972,0,0,0,.638,3.714,7.625,7.625,0,0,0,1.737,2.674,7.2,7.2,0,0,0,2.567,1.622,8.933,8.933,0,0,0,3.141.55,13.22,13.22,0,0,0,1.714-.116,9.488,9.488,0,0,0,1.8-.413,8.257,8.257,0,0,0,1.752-.825,7.069,7.069,0,0,0,1.59-1.375l-1.382-1.706a.988.988,0,0,0-.861-.413,1.791,1.791,0,0,0-.825.2q-.392.2-.86.446a7.181,7.181,0,0,1-1.069.446,4.489,4.489,0,0,1-1.429.2,3.608,3.608,0,0,1-2.535-.9,4.491,4.491,0,0,1-1.213-2.9Zm-9.129-2.766a4.032,4.032,0,0,1,1.015-2.235,2.852,2.852,0,0,1,2.121-.776,2.987,2.987,0,0,1,1.307.261,2.431,2.431,0,0,1,.868.688,2.679,2.679,0,0,1,.477.963,4.249,4.249,0,0,1,.146,1.1Zm-7.053-11.51a2.878,2.878,0,0,0-.63-.891,2.918,2.918,0,0,0-.93-.6,2.97,2.97,0,0,0-1.129-.215,2.774,2.774,0,0,0-1.091.215,2.894,2.894,0,0,0-.9.6,2.864,2.864,0,0,0-.615.891,2.683,2.683,0,0,0-.223,1.091,2.593,2.593,0,0,0,.223,1.067,2.753,2.753,0,0,0,.615.876,3.041,3.041,0,0,0,.9.6,2.679,2.679,0,0,0,1.091.223,2.867,2.867,0,0,0,1.129-.223,3.06,3.06,0,0,0,.93-.6,2.8,2.8,0,0,0,.63-.876,2.505,2.505,0,0,0,.23-1.067,2.615,2.615,0,0,0-.23-1.091m-5.024,21.391h4.763V17.7h-4.763ZM123.8,18.505a1.122,1.122,0,0,0-1.168-.8h-2.95V38.7h4.763V32.582a5.622,5.622,0,0,0,1.536.953,5.416,5.416,0,0,0,2.089.353,6.082,6.082,0,0,0,2.774-.63A6.43,6.43,0,0,0,133,31.506a8.317,8.317,0,0,0,1.4-2.642,10.569,10.569,0,0,0,.5-3.319,12.359,12.359,0,0,0-.437-3.439,8.118,8.118,0,0,0-1.206-2.558,5.322,5.322,0,0,0-1.828-1.6,4.923,4.923,0,0,0-2.305-.55,5.927,5.927,0,0,0-2.835.638,8.216,8.216,0,0,0-2.128,1.637Zm.645,4.041a4.806,4.806,0,0,1,1.292-1.122,3.461,3.461,0,0,1,1.721-.384,2.279,2.279,0,0,1,1.029.231,2,2,0,0,1,.791.761,4.382,4.382,0,0,1,.514,1.391,10.353,10.353,0,0,1,.184,2.121,9.391,9.391,0,0,1-.231,2.243,4.465,4.465,0,0,1-.638,1.5,2.473,2.473,0,0,1-.963.838,2.787,2.787,0,0,1-1.214.261,3.587,3.587,0,0,1-1.32-.246,3.137,3.137,0,0,1-1.168-.825Z" transform="translate(44.589 3.744)"/><g class="c" transform="translate(184.11 41.029)"><g class="c"><path class="a" d="M139.929,37.2h-.858a.367.367,0,0,1-.235-.073.448.448,0,0,1-.136-.179l-.446-1.219h-2.472l-.446,1.219a.4.4,0,0,1-.128.173.357.357,0,0,1-.235.078h-.867l2.348-5.967h1.131Zm-1.96-2.253-.726-1.985q-.054-.132-.111-.314t-.116-.392c-.036.139-.073.271-.111.393s-.076.23-.111.319l-.722,1.978Z" transform="translate(-134.107 -29.518)"/><path class="a" d="M142.1,32.333a.385.385,0,0,1-.106.127.239.239,0,0,1-.138.039.352.352,0,0,1-.187-.065c-.067-.043-.149-.089-.242-.143a2.032,2.032,0,0,0-.327-.142,1.384,1.384,0,0,0-.444-.063,1.325,1.325,0,0,0-.4.055.89.89,0,0,0-.292.154.633.633,0,0,0-.175.238.782.782,0,0,0-.058.3.537.537,0,0,0,.117.351,1.022,1.022,0,0,0,.312.239,3.04,3.04,0,0,0,.442.177c.165.052.334.107.508.166a4.779,4.779,0,0,1,.508.206,1.751,1.751,0,0,1,.442.3,1.322,1.322,0,0,1,.311.439,1.5,1.5,0,0,1,.118.631,2.06,2.06,0,0,1-.138.758,1.766,1.766,0,0,1-.4.615,1.921,1.921,0,0,1-.651.413,2.393,2.393,0,0,1-.879.15,2.87,2.87,0,0,1-1.091-.215,2.749,2.749,0,0,1-.477-.248,2.235,2.235,0,0,1-.4-.322l.326-.532a.364.364,0,0,1,.107-.1.283.283,0,0,1,.14-.039.392.392,0,0,1,.223.084c.08.056.175.118.285.188a2.249,2.249,0,0,0,.386.187,1.48,1.48,0,0,0,.53.084,1.081,1.081,0,0,0,.734-.224.807.807,0,0,0,.26-.646.6.6,0,0,0-.117-.384.969.969,0,0,0-.312-.249,2.422,2.422,0,0,0-.442-.172q-.248-.07-.5-.153a4.593,4.593,0,0,1-.5-.2,1.631,1.631,0,0,1-.442-.3,1.372,1.372,0,0,1-.311-.465,1.744,1.744,0,0,1-.118-.686,1.622,1.622,0,0,1,.131-.635,1.639,1.639,0,0,1,.377-.549,1.853,1.853,0,0,1,.611-.385,2.271,2.271,0,0,1,.834-.143,2.783,2.783,0,0,1,.974.165,2.177,2.177,0,0,1,.759.462Z" transform="translate(-132.478 -29.536)"/><path class="a" d="M145.388,32.333a.386.386,0,0,1-.106.127.239.239,0,0,1-.138.039.352.352,0,0,1-.187-.065c-.067-.043-.149-.089-.242-.143a2.032,2.032,0,0,0-.327-.142,1.384,1.384,0,0,0-.444-.063,1.325,1.325,0,0,0-.4.055.89.89,0,0,0-.292.154.633.633,0,0,0-.175.238.782.782,0,0,0-.058.3.537.537,0,0,0,.117.351,1.022,1.022,0,0,0,.312.239,3.04,3.04,0,0,0,.442.177c.165.052.334.107.508.166a4.779,4.779,0,0,1,.508.206,1.752,1.752,0,0,1,.442.3,1.322,1.322,0,0,1,.311.439,1.5,1.5,0,0,1,.118.631,2.061,2.061,0,0,1-.138.758,1.766,1.766,0,0,1-.4.615,1.921,1.921,0,0,1-.651.413,2.393,2.393,0,0,1-.879.15,2.87,2.87,0,0,1-1.091-.215,2.748,2.748,0,0,1-.477-.248,2.236,2.236,0,0,1-.4-.322l.326-.532a.363.363,0,0,1,.107-.1.283.283,0,0,1,.14-.039.392.392,0,0,1,.223.084c.08.056.175.118.285.188a2.249,2.249,0,0,0,.386.187,1.48,1.48,0,0,0,.53.084,1.081,1.081,0,0,0,.734-.224.807.807,0,0,0,.26-.646.6.6,0,0,0-.117-.384.969.969,0,0,0-.312-.249,2.421,2.421,0,0,0-.442-.172q-.248-.07-.5-.153a4.591,4.591,0,0,1-.5-.2,1.63,1.63,0,0,1-.442-.3,1.372,1.372,0,0,1-.311-.465,1.744,1.744,0,0,1-.118-.686,1.623,1.623,0,0,1,.131-.635,1.639,1.639,0,0,1,.377-.549,1.852,1.852,0,0,1,.611-.385,2.271,2.271,0,0,1,.834-.143,2.783,2.783,0,0,1,.974.165,2.178,2.178,0,0,1,.759.462Z" transform="translate(-131.243 -29.536)"/><path class="a" d="M146.486,32.112v1.655h2.088v.854h-2.088v1.689h2.649V37.2h-3.763V31.23h3.763v.882Z" transform="translate(-129.878 -29.518)"/><path class="a" d="M152.129,32.333a.386.386,0,0,1-.106.127.242.242,0,0,1-.138.039.36.36,0,0,1-.188-.065c-.066-.043-.147-.089-.241-.143a2,2,0,0,0-.329-.142,1.375,1.375,0,0,0-.443-.063,1.325,1.325,0,0,0-.4.055.876.876,0,0,0-.292.154.633.633,0,0,0-.175.238.782.782,0,0,0-.058.3.537.537,0,0,0,.117.351,1,1,0,0,0,.312.239,3.04,3.04,0,0,0,.442.177c.165.052.334.107.508.166a4.78,4.78,0,0,1,.508.206,1.752,1.752,0,0,1,.442.3,1.322,1.322,0,0,1,.311.439,1.525,1.525,0,0,1,.118.631,2.089,2.089,0,0,1-.138.758,1.766,1.766,0,0,1-.4.615,1.921,1.921,0,0,1-.651.413,2.393,2.393,0,0,1-.879.15,2.884,2.884,0,0,1-1.092-.215,2.737,2.737,0,0,1-.476-.248,2.235,2.235,0,0,1-.4-.322l.326-.532a.363.363,0,0,1,.107-.1.283.283,0,0,1,.14-.039.392.392,0,0,1,.223.084c.08.056.175.118.285.188a2.283,2.283,0,0,0,.385.187,1.488,1.488,0,0,0,.531.084,1.081,1.081,0,0,0,.734-.224.807.807,0,0,0,.26-.646.592.592,0,0,0-.118-.384.963.963,0,0,0-.311-.249,2.421,2.421,0,0,0-.442-.172q-.248-.07-.5-.153a4.6,4.6,0,0,1-.5-.2,1.631,1.631,0,0,1-.441-.3,1.375,1.375,0,0,1-.312-.465,1.771,1.771,0,0,1-.117-.686,1.658,1.658,0,0,1,.508-1.184,1.853,1.853,0,0,1,.611-.385,2.271,2.271,0,0,1,.834-.143,2.784,2.784,0,0,1,.974.165,2.178,2.178,0,0,1,.759.462Z" transform="translate(-128.712 -29.536)"/><path class="a" d="M155.42,32.333a.385.385,0,0,1-.106.127.242.242,0,0,1-.138.039.36.36,0,0,1-.188-.065c-.066-.043-.147-.089-.241-.143a2,2,0,0,0-.329-.142,1.375,1.375,0,0,0-.443-.063,1.325,1.325,0,0,0-.4.055.876.876,0,0,0-.292.154.633.633,0,0,0-.175.238.782.782,0,0,0-.058.3.537.537,0,0,0,.117.351,1,1,0,0,0,.312.239,3.04,3.04,0,0,0,.441.177c.165.052.334.107.508.166a4.778,4.778,0,0,1,.508.206,1.752,1.752,0,0,1,.442.3,1.322,1.322,0,0,1,.311.439,1.526,1.526,0,0,1,.118.631,2.089,2.089,0,0,1-.138.758,1.766,1.766,0,0,1-.4.615,1.921,1.921,0,0,1-.651.413,2.393,2.393,0,0,1-.879.15,2.884,2.884,0,0,1-1.092-.215,2.736,2.736,0,0,1-.476-.248,2.234,2.234,0,0,1-.4-.322l.326-.532a.363.363,0,0,1,.107-.1.283.283,0,0,1,.14-.039.392.392,0,0,1,.223.084c.08.056.175.118.285.188a2.284,2.284,0,0,0,.385.187,1.488,1.488,0,0,0,.531.084,1.081,1.081,0,0,0,.734-.224.807.807,0,0,0,.26-.646.592.592,0,0,0-.118-.384.962.962,0,0,0-.311-.249,2.422,2.422,0,0,0-.442-.172q-.248-.07-.5-.153a4.594,4.594,0,0,1-.5-.2,1.631,1.631,0,0,1-.442-.3,1.375,1.375,0,0,1-.312-.465,1.771,1.771,0,0,1-.117-.686,1.622,1.622,0,0,1,.131-.635,1.639,1.639,0,0,1,.377-.549,1.853,1.853,0,0,1,.611-.385,2.272,2.272,0,0,1,.834-.143,2.783,2.783,0,0,1,.974.165,2.178,2.178,0,0,1,.759.462Z" transform="translate(-127.477 -29.536)"/><path class="a" d="M161.191,34.231a3.331,3.331,0,0,1-.217,1.215,2.868,2.868,0,0,1-.612.968,2.783,2.783,0,0,1-.953.637,3.459,3.459,0,0,1-2.472,0,2.807,2.807,0,0,1-.956-.637,2.9,2.9,0,0,1-.616-.968,3.486,3.486,0,0,1,0-2.43,2.879,2.879,0,0,1,.616-.967,2.791,2.791,0,0,1,.956-.638,3.215,3.215,0,0,1,1.234-.228,3.349,3.349,0,0,1,.854.1,3,3,0,0,1,.734.3,2.719,2.719,0,0,1,.6.466,2.881,2.881,0,0,1,.451.613,3.013,3.013,0,0,1,.282.733A3.445,3.445,0,0,1,161.191,34.231Zm-1.135,0a2.736,2.736,0,0,0-.132-.882,1.885,1.885,0,0,0-.375-.662,1.6,1.6,0,0,0-.591-.417,2.2,2.2,0,0,0-1.573,0,1.61,1.61,0,0,0-.594.417,1.866,1.866,0,0,0-.377.662,3,3,0,0,0,0,1.762,1.848,1.848,0,0,0,.377.66,1.636,1.636,0,0,0,.594.414,2.2,2.2,0,0,0,1.573,0,1.626,1.626,0,0,0,.591-.414,1.866,1.866,0,0,0,.375-.66A2.734,2.734,0,0,0,160.056,34.231Z" transform="translate(-126.208 -29.536)"/><path class="a" d="M164.911,37.2h-1a.438.438,0,0,1-.413-.224l-1.254-1.909a.459.459,0,0,0-.155-.154.557.557,0,0,0-.249-.045h-.475V37.2h-1.11V31.23h1.82a3.79,3.79,0,0,1,1.043.125,2.039,2.039,0,0,1,.714.352,1.414,1.414,0,0,1,.41.543,1.783,1.783,0,0,1,.132.7,1.808,1.808,0,0,1-.088.569,1.624,1.624,0,0,1-.256.486,1.709,1.709,0,0,1-.414.385,2.088,2.088,0,0,1-.558.26,1.02,1.02,0,0,1,.2.146,1.046,1.046,0,0,1,.165.2Zm-2.855-3.129a1.71,1.71,0,0,0,.546-.077,1.073,1.073,0,0,0,.385-.217.882.882,0,0,0,.224-.327,1.142,1.142,0,0,0,.074-.418.851.851,0,0,0-.3-.7,1.434,1.434,0,0,0-.915-.242h-.71v1.979Z" transform="translate(-124.291 -29.518)"/><path class="a" d="M169.416,37.2h-.858a.367.367,0,0,1-.235-.073.447.447,0,0,1-.136-.179l-.446-1.219h-2.472l-.446,1.219a.4.4,0,0,1-.128.173.357.357,0,0,1-.235.078h-.867l2.348-5.967h1.131Zm-1.96-2.253-.726-1.985q-.054-.132-.111-.314t-.116-.392c-.036.139-.073.271-.111.393s-.076.23-.111.319l-.722,1.978Z" transform="translate(-123.037 -29.518)"/><path class="a" d="M172.169,32.142h-1.8V37.2h-1.11V32.142h-1.8V31.23h4.709Z" transform="translate(-121.585 -29.518)"/><path class="a" d="M177.1,34.231a3.332,3.332,0,0,1-.217,1.215,2.868,2.868,0,0,1-.612.968,2.783,2.783,0,0,1-.953.637,3.459,3.459,0,0,1-2.472,0,2.794,2.794,0,0,1-.956-.637,2.881,2.881,0,0,1-.618-.968,3.506,3.506,0,0,1,0-2.43,2.861,2.861,0,0,1,.618-.967,2.778,2.778,0,0,1,.956-.638,3.213,3.213,0,0,1,1.232-.228,3.352,3.352,0,0,1,.855.1,3.021,3.021,0,0,1,.734.3,2.711,2.711,0,0,1,.6.466,2.842,2.842,0,0,1,.453.613A3.014,3.014,0,0,1,177,33.4,3.515,3.515,0,0,1,177.1,34.231Zm-1.135,0a2.737,2.737,0,0,0-.132-.882,1.888,1.888,0,0,0-.377-.662,1.579,1.579,0,0,0-.591-.417,2.192,2.192,0,0,0-1.572,0,1.611,1.611,0,0,0-.594.417,1.866,1.866,0,0,0-.377.662,2.975,2.975,0,0,0,0,1.762,1.848,1.848,0,0,0,.377.66,1.637,1.637,0,0,0,.594.414,2.192,2.192,0,0,0,1.572,0,1.6,1.6,0,0,0,.591-.414,1.869,1.869,0,0,0,.377-.66A2.734,2.734,0,0,0,175.962,34.231Z" transform="translate(-120.237 -29.536)"/><path class="a" d="M182.722,37.2h-.858a.368.368,0,0,1-.237-.073.444.444,0,0,1-.135-.179l-.446-1.219h-2.472l-.447,1.219a.392.392,0,0,1-.127.173.357.357,0,0,1-.235.078H176.9l2.348-5.967h1.132Zm-1.96-2.253-.726-1.985c-.036-.088-.074-.193-.111-.314s-.077-.253-.116-.392c-.036.139-.074.271-.111.393s-.077.23-.111.319l-.722,1.978Z" transform="translate(-118.042 -29.518)"/><path class="a" d="M185.077,36.281V37.2h-3.495V31.23h1.11v5.051Z" transform="translate(-116.284 -29.518)"/><path class="a" d="M188.194,36.281V37.2H184.7V31.23h1.11v5.051Z" transform="translate(-115.113 -29.518)"/><path class="a" d="M193.123,37.2h-.858a.368.368,0,0,1-.237-.073.444.444,0,0,1-.135-.179l-.447-1.219h-2.47l-.447,1.219a.4.4,0,0,1-.127.173.357.357,0,0,1-.235.078H187.3l2.348-5.967h1.132Zm-1.961-2.253-.725-1.985c-.036-.088-.074-.193-.111-.314s-.078-.253-.116-.392c-.036.139-.074.271-.113.393s-.076.23-.111.319l-.721,1.978Z" transform="translate(-114.137 -29.518)"/><path class="a" d="M196.545,32.333a.4.4,0,0,1-.1.127.245.245,0,0,1-.138.039.36.36,0,0,1-.188-.065c-.067-.043-.149-.089-.241-.143a2.05,2.05,0,0,0-.329-.142,1.376,1.376,0,0,0-.443-.063,1.319,1.319,0,0,0-.4.055.876.876,0,0,0-.292.154.637.637,0,0,0-.176.238.782.782,0,0,0-.058.3.53.53,0,0,0,.118.351,1,1,0,0,0,.311.239,3,3,0,0,0,.443.177c.164.052.333.107.506.166a4.784,4.784,0,0,1,.508.206,1.752,1.752,0,0,1,.441.3,1.345,1.345,0,0,1,.312.439,1.526,1.526,0,0,1,.117.631,2.061,2.061,0,0,1-.138.758,1.747,1.747,0,0,1-.4.615,1.908,1.908,0,0,1-.651.413,2.393,2.393,0,0,1-.879.15,2.914,2.914,0,0,1-1.568-.462,2.224,2.224,0,0,1-.395-.322l.325-.532a.364.364,0,0,1,.107-.1.284.284,0,0,1,.142-.039.389.389,0,0,1,.221.084c.08.056.175.118.285.188a2.25,2.25,0,0,0,.387.187,1.48,1.48,0,0,0,.53.084,1.081,1.081,0,0,0,.734-.224.807.807,0,0,0,.26-.646.6.6,0,0,0-.117-.384.953.953,0,0,0-.312-.249,2.446,2.446,0,0,0-.44-.172c-.166-.047-.334-.1-.5-.153a4.469,4.469,0,0,1-.5-.2,1.638,1.638,0,0,1-.443-.3,1.392,1.392,0,0,1-.311-.465,1.77,1.77,0,0,1-.118-.686,1.622,1.622,0,0,1,.131-.635,1.639,1.639,0,0,1,.377-.549,1.866,1.866,0,0,1,.611-.385,2.277,2.277,0,0,1,.833-.143,2.784,2.784,0,0,1,.974.165,2.165,2.165,0,0,1,.759.462Z" transform="translate(-112.036 -29.536)"/><path class="a" d="M201.751,37.2h-.858a.368.368,0,0,1-.237-.073.444.444,0,0,1-.135-.179l-.447-1.219H197.6l-.447,1.219a.4.4,0,0,1-.127.173.36.36,0,0,1-.235.078h-.868l2.348-5.967h1.132Zm-1.961-2.253-.725-1.985c-.036-.088-.074-.193-.113-.314s-.077-.253-.116-.392c-.034.139-.073.271-.111.393s-.076.23-.111.319l-.722,1.978Z" transform="translate(-110.898 -29.518)"/><path class="a" d="M205.641,31.23V37.2h-.569a.5.5,0,0,1-.221-.044.515.515,0,0,1-.172-.146l-3.115-3.979q.025.272.025.5V37.2h-.978V31.23h.582a1.066,1.066,0,0,1,.122.006.292.292,0,0,1,.091.025.3.3,0,0,1,.077.054.9.9,0,0,1,.081.094l3.129,3.994c-.01-.1-.017-.193-.022-.285s-.007-.18-.007-.261V31.23Z" transform="translate(-109.14 -29.518)"/><path class="a" d="M206.347,37.2h-1.114V31.23h1.114Z" transform="translate(-107.404 -29.518)"/><path class="a" d="M211.327,32.142h-1.8V37.2h-1.11V32.142h-1.8V31.23h4.708Z" transform="translate(-106.884 -29.518)"/><path class="a" d="M215.5,37.664h-.858a.368.368,0,0,1-.237-.073.445.445,0,0,1-.135-.179l-.447-1.219h-2.47l-.447,1.219a.392.392,0,0,1-.127.173.357.357,0,0,1-.235.078h-.868l2.348-5.967h1.132Zm-3.591-7.679c.055,0,.1,0,.143,0a.361.361,0,0,1,.107.023.375.375,0,0,1,.088.051.571.571,0,0,1,.087.092l.9,1.117h-.739a.968.968,0,0,1-.188-.014.356.356,0,0,1-.15-.084l-1.316-1.188Zm1.63,5.426-.725-1.985c-.036-.088-.074-.193-.111-.314s-.078-.253-.116-.392c-.036.139-.074.271-.111.393s-.077.23-.113.319l-.721,1.978Z" transform="translate(-105.738 -29.985)"/></g></g></g></svg>