<svg xmlns="http://www.w3.org/2000/svg" xmlns:xlink="http://www.w3.org/1999/xlink" width="1130.323" height="446.389" viewBox="0 0 1130.323 446.389"><defs><style>.a,.aj{fill:none;}.b{fill:#97cbfd;}.c{fill:#549be6;}.d{fill:#ffc2b0;}.e{fill:#a8c4e5;opacity:0.4;}.e,.u{mix-blend-mode:multiply;isolation:isolate;}.f,.i{fill:#2a1c9e;}.g{fill:#4432db;}.h{fill:#fff;}.i{stroke:#2a1c9e;stroke-miterlimit:10;stroke-width:4px;}.j{fill:#6271f0;}.k{fill:#9ebbde;}.l{fill:#21ded5;}.m{fill:#e655be;}.n{fill:#2c1f9c;}.o{fill:#c6d2f2;}.p{fill:#8d7fa2;}.q{fill:#6f9ed9;}.r{clip-path:url(#a);}.s{clip-path:url(#b);}.t{fill:#7cb4f7;}.u{opacity:0.3;}.v{clip-path:url(#c);}.w{fill:#abcffa;}.x{fill:#3551a2;}.y{fill:#4b6ccc;}.z{fill:#69a5ed;}.aa{fill:#478bde;}.ab{clip-path:url(#d);}.ac{fill:#cf9d3a;}.ad{fill:#c1cbea;}.ae{fill:#d89eba;}.af{fill:#391f7d;}.ag{fill:#ffc248;}.ah{fill:#b0cdff;}.ai{fill:#d69c8b;}.aj{stroke:#391f7d;stroke-linecap:round;stroke-linejoin:round;}.ak{clip-path:url(#e);}.al{fill:#e6a677;}.am{fill:#d9a782;}.an{fill:#3c2dba;}.ao{clip-path:url(#f);}.ap{fill:url(#g);}.aq{fill:#d4dbdf;}.ar{fill:#97a0bd;}.as{fill:#414e52;}.at{fill:#3d7bc7;}.au{fill:#438be3;}.av{fill:#ffcda8;}.aw{fill:#382521;}</style><clipPath id="a"><rect class="a" width="209.439" height="255.982"/></clipPath><clipPath id="b"><rect class="b" width="209.439" height="255.982"/></clipPath><clipPath id="c"><rect class="a" width="67.503" height="85.38"/></clipPath><clipPath id="d"><rect class="c" width="214.634" height="155.878" transform="translate(0 0)"/></clipPath><clipPath id="e"><rect class="a" width="108.322" height="277.931"/></clipPath><clipPath id="f"><path class="a" d="M84.866,57.558l-9.013,2.033a2.844,2.844,0,0,0-1.4.9L58.976,80.784c-.167.215-.194.377-.1.467l.738,1.09c.062.092.214.124.456.068l9.011-2.033a2.829,2.829,0,0,0,1.4-.9l15.482-20.3c.152-.2.186-.353.12-.445h0l-.738-1.068c-.028-.088-.117-.139-.263-.139a1.044,1.044,0,0,0-.209.026" transform="translate(-58.822 -57.532)"/></clipPath><linearGradient id="g" x1="-2.069" y1="5.619" x2="-2.031" y2="5.619" gradientUnits="objectBoundingBox"><stop offset="0" stop-color="#fff"/><stop offset="1" stop-color="#758ee1"/></linearGradient></defs><g transform="translate(-244 -1212.949)"><g transform="translate(-477.593 696.693)"><path class="d" d="M1241.435,691.731s-5.154,16.075,10.073,26.409c0,0,6.719,1.431,6.333-6.79s-.849-19.847-.849-19.847Z" transform="translate(0.931 1.771)"/><g transform="translate(1148.593 516.431)"><ellipse class="e" cx="40.349" cy="61.688" rx="40.349" ry="61.688" transform="translate(0 27.507) rotate(-19.93)"/><path class="f" d="M1288.344,680.906l-8.014,17.25-37.569-53.493,8.014-17.25Z" transform="translate(-1147.64 -515.308)"/><g transform="translate(108.365 139.366)"><path class="g" d="M1276.358,654.62c8-1.354,12.192,3.714,9.365,11.32s-11.6,14.871-19.6,16.226-12.192-3.714-9.365-11.321S1268.359,655.974,1276.358,654.62Z" transform="translate(-1255.873 -654.401)"/><path class="g" d="M1303.138,742.942l-45.585-62.908,28.186-22.161,45.919,63.263Z" transform="translate(-1255.855 -654.366)"/><path class="g" d="M1321.956,717.5c8-1.354,12.192,3.714,9.365,11.32s-11.6,14.871-19.6,16.226-12.192-3.714-9.365-11.32S1313.957,718.855,1321.956,717.5Z" transform="translate(-1255.411 -653.765)"/><path class="g" d="M1332.92,783.6,1287.335,720.7l28.185-22.161,45.919,63.263Z" transform="translate(-1255.554 -653.955)"/><path class="g" d="M1351.738,758.161c8-1.354,12.192,3.714,9.365,11.321s-11.6,14.87-19.6,16.225-12.192-3.714-9.365-11.32S1343.738,759.516,1351.738,758.161Z" transform="translate(-1255.11 -653.354)"/></g><path class="h" d="M1206.255,556.394l-12.823,37.161c-.659,1.909-2.779,1.922-4.737.031h0c-1.957-1.892-3.009-4.972-2.35-6.881l12.823-37.161c.659-1.909,2.779-1.923,4.735-.031h0C1205.861,551.4,1206.914,554.485,1206.255,556.394Z" transform="translate(-1148.213 -516.11)"/><path class="h" d="M1218.964,572.275l-12.823,37.162c-.658,1.908-2.779,1.922-4.736.031h0c-1.957-1.892-3.009-4.973-2.35-6.881l12.823-37.162c.658-1.908,2.779-1.922,4.735-.03h0C1218.569,567.286,1219.622,570.367,1218.964,572.275Z" transform="translate(-1148.084 -515.949)"/><path class="f" d="M1220.344,528.586c-28.363-12.577-52.266,3.822-53.389,36.629s20.96,69.6,49.323,82.174,52.264-3.822,53.388-36.629S1248.707,541.163,1220.344,528.586Zm41.588,78.745c-.954,27.866-21.256,41.8-45.347,31.113s-42.848-41.932-41.895-69.8,21.256-41.8,45.347-31.113S1262.885,579.464,1261.932,607.331Z" transform="translate(-1148.408 -516.35)"/><path class="i" d="M1270.681,591.887c-.1-.708-.2-1.417-.312-2.126-.021-.126-.047-.252-.068-.379-.058-.337-.121-.675-.182-1.012-.074-.409-.141-.82-.22-1.229-.045-.228-.1-.456-.145-.683-.074-.365-.151-.729-.23-1.095-.062-.281-.114-.562-.179-.842-.077-.337-.165-.674-.245-1.011-.087-.365-.174-.728-.266-1.093-.045-.18-.085-.36-.131-.539-.124-.479-.263-.955-.394-1.431-.086-.31-.167-.619-.255-.928-.025-.087-.047-.175-.072-.262q-.373-1.28-.783-2.555l-.01-.03c-.025-.077-.054-.154-.078-.231-.245-.75-.495-1.5-.759-2.247-.042-.117-.087-.234-.129-.352-.1-.283-.207-.564-.31-.845-.148-.4-.29-.8-.443-1.2-.1-.255-.2-.508-.3-.764q-.182-.465-.369-.928c-.092-.226-.178-.455-.271-.68-.186-.451-.383-.9-.576-1.346-.1-.239-.2-.479-.306-.717-.037-.085-.072-.17-.109-.255q-.52-1.176-1.071-2.339c-.016-.033-.033-.066-.05-.1-.105-.223-.218-.442-.325-.665-.289-.6-.576-1.193-.876-1.784-.047-.093-.1-.183-.146-.276-.248-.486-.508-.966-.765-1.448-.2-.386-.4-.776-.612-1.159-.038-.07-.082-.136-.12-.206q-1.029-1.864-2.136-3.676c-.062-.1-.117-.209-.18-.311-.188-.306-.387-.6-.578-.907-.311-.495-.622-.99-.942-1.479-.283-.433-.572-.86-.861-1.288q-.486-.723-.983-1.435c-.109-.156-.213-.317-.323-.473-.265-.373-.538-.737-.807-1.106-.185-.253-.367-.507-.553-.758q-.879-1.18-1.788-2.329l-.016-.02h0l-.016-.019q-1.039-1.308-2.119-2.569c-.032-.037-.063-.077-.094-.113-.525-.612-1.061-1.211-1.6-1.806-.108-.12-.212-.245-.321-.364l-.019-.021q-.959-1.05-1.948-2.064c-.032-.033-.066-.065-.1-.1-.2-.206-.407-.4-.61-.607-.416-.418-.831-.84-1.254-1.247-.08-.077-.163-.149-.242-.225-.287-.275-.578-.539-.868-.808-.32-.3-.636-.6-.961-.894-.119-.108-.243-.209-.364-.316-.315-.28-.634-.554-.952-.827-.275-.236-.544-.481-.821-.713-.156-.131-.317-.254-.474-.383-.343-.283-.69-.561-1.036-.837-.241-.192-.478-.392-.72-.581-.19-.147-.385-.285-.576-.43-.347-.265-.7-.525-1.049-.784-.214-.157-.423-.322-.637-.476-.231-.166-.468-.319-.7-.483q-.515-.361-1.034-.713c-.179-.12-.354-.249-.533-.368-.292-.192-.588-.371-.881-.558-.323-.207-.646-.415-.971-.615-.13-.081-.259-.168-.39-.247-.4-.239-.8-.462-1.194-.692-.274-.159-.544-.322-.819-.476-.071-.039-.14-.083-.21-.122q-1.082-.6-2.176-1.151l-.019-.009c-.054-.027-.108-.051-.162-.078-.66-.329-1.323-.651-1.991-.954-.168-.077-.335-.151-.5-.226q-.82-.364-1.634-.695c-.206-.084-.411-.156-.617-.236q-.421-.165-.839-.322c-.217-.081-.435-.172-.651-.248-.348-.125-.691-.232-1.036-.349-.249-.083-.5-.171-.745-.25-.1-.032-.2-.071-.306-.1q-1.035-.323-2.06-.593l-.011,0q-1.047-.276-2.08-.5c-.09-.019-.179-.032-.268-.05-.25-.053-.5-.095-.746-.141-.354-.068-.708-.143-1.059-.2-.175-.028-.348-.045-.522-.072-.306-.047-.61-.088-.914-.127-.234-.03-.473-.072-.706-.1s-.486-.039-.73-.063c-.306-.028-.611-.057-.915-.078-.16-.011-.323-.031-.483-.041-.286-.016-.567-.013-.851-.023-.353-.013-.706-.027-1.056-.029-.123,0-.248-.011-.372-.011-.291,0-.575.022-.864.03-.376.009-.751.017-1.123.038-.11.006-.222,0-.331.011-.256.017-.5.056-.755.078-.445.039-.889.08-1.328.136-.122.015-.249.021-.373.037-.486.068-.968.148-1.447.235-.062.011-.122.026-.183.037-.364.069-.726.139-1.086.22-.228.052-.452.114-.678.171-.171.042-.341.083-.511.128-.62.165-1.234.34-1.837.54-.019.006-.037.014-.057.021-.165.055-.323.12-.486.178-.5.177-1,.359-1.494.561-.239.1-.473.209-.709.313-.313.137-.631.267-.94.414-.078.038-.151.085-.229.122-.475.233-.938.487-1.4.743-.225.125-.456.24-.678.372-.676.4-1.34.819-1.987,1.27l-10.571,7.366c.646-.451,1.31-.871,1.987-1.27.221-.13.451-.245.676-.371.463-.257.926-.511,1.4-.744.384-.188.775-.363,1.168-.535.237-.1.471-.215.711-.314.49-.2.991-.383,1.493-.56.163-.058.322-.124.487-.179.621-.207,1.254-.391,1.892-.561.171-.046.342-.087.514-.129.581-.144,1.167-.278,1.761-.39.062-.012.122-.026.185-.037.6-.111,1.207-.2,1.819-.274.438-.057.883-.1,1.328-.136.361-.031.719-.068,1.083-.089s.75-.028,1.125-.038c.41-.01.821-.022,1.236-.019.347,0,.7.017,1.052.029.443.016.889.034,1.337.066.3.021.607.049.911.078q.715.067,1.438.161c.305.039.61.08.916.126.522.08,1.048.173,1.577.273.25.048.5.091.749.143.777.162,1.559.34,2.347.549h.006l.006,0c.783.207,1.573.442,2.366.7.246.078.495.166.742.248q.841.283,1.69.6.418.156.838.321c.748.294,1.5.6,2.252.931.841.373,1.676.771,2.505,1.185.05.025.1.047.151.073.809.407,1.611.837,2.407,1.283.274.153.542.315.814.473.532.307,1.064.618,1.59.943.323.2.645.406.967.612.475.3.948.611,1.417.928.347.232.69.472,1.033.711q.673.471,1.337.96.527.386,1.049.784.652.5,1.3,1.011c.345.277.692.554,1.035.836.434.359.865.725,1.294,1.095.319.276.641.549.957.831.443.394.881.8,1.317,1.2.291.27.585.536.873.811.505.483,1,.977,1.5,1.474.2.2.409.4.61.606q1.047,1.071,2.066,2.185c.105.115.206.235.311.352.575.634,1.143,1.276,1.7,1.93q1.068,1.25,2.1,2.544l.037.044,0,.006c.611.769,1.208,1.552,1.8,2.341.187.252.37.507.555.761q.571.782,1.13,1.577c.332.474.657.953.982,1.434.289.429.579.858.863,1.291.318.488.628.981.938,1.474.255.406.51.812.76,1.221q1.1,1.814,2.134,3.676c.251.451.49.909.733,1.366.257.482.516.962.765,1.448.348.679.684,1.363,1.016,2.049.11.226.224.45.332.676q.635,1.338,1.227,2.692c.105.237.2.478.306.716q.435,1.009.846,2.026.188.464.369.929.385.979.746,1.967c.1.282.209.563.31.844q.465,1.3.893,2.613c.023.072.05.143.073.215.305.946.591,1.9.866,2.847.089.31.17.621.255.931.181.655.358,1.309.524,1.966.092.367.18.733.267,1.1q.221.923.422,1.846.12.548.232,1.1c.13.638.25,1.278.365,1.916.061.335.124.67.181,1.005q.209,1.255.381,2.509c.016.122.037.244.053.367q.19,1.436.323,2.871c.025.272.044.543.068.816.057.686.108,1.372.147,2.057q.029.5.05.991.044.976.06,1.947c.006.314.014.629.015.942.005.924,0,1.847-.034,2.766-.032.965-.089,1.912-.161,2.848-.02.266-.049.525-.074.789-.057.643-.12,1.283-.2,1.912-.043.365-.095.723-.144,1.083-.075.534-.153,1.066-.24,1.59-.064.387-.133.769-.205,1.15q-.136.726-.29,1.437-.138.641-.289,1.27t-.325,1.275q-.2.741-.417,1.465c-.114.378-.229.754-.351,1.124-.19.582-.394,1.15-.6,1.714-.131.354-.257.712-.395,1.059-.07.174-.141.346-.213.518q-.365.883-.761,1.734c-.051.11-.1.224-.153.333q-.5,1.064-1.057,2.075l-.008.015q-.553,1.008-1.153,1.961c-.081.128-.166.251-.247.378q-.458.709-.938,1.389c-.129.182-.261.361-.392.539-.3.413-.616.815-.934,1.21-.122.15-.241.3-.365.453-.436.523-.884,1.033-1.345,1.524-.065.069-.133.133-.2.2q-.6.632-1.234,1.223c-.153.143-.308.284-.463.423q-.54.488-1.1.948c-.154.126-.306.255-.462.379-.517.412-1.042.811-1.582,1.187l10.571-7.367c.539-.376,1.065-.775,1.582-1.186.157-.123.308-.252.462-.38q.558-.459,1.1-.947c.156-.14.31-.28.464-.423q.63-.592,1.234-1.223c.066-.069.133-.132.2-.2.462-.49.908-1,1.345-1.524.123-.147.242-.3.364-.452q.478-.592.934-1.21c.132-.179.264-.358.392-.539q.483-.679.938-1.389c.082-.127.167-.249.247-.379.024-.038.051-.074.075-.112q.559-.9,1.08-1.849l.008-.014q.519-.947,1-1.938c.021-.044.04-.091.062-.135.053-.111.1-.225.154-.336q.4-.85.76-1.732c.071-.173.143-.344.212-.519.052-.128.108-.254.159-.384.085-.219.154-.453.236-.674.209-.564.412-1.133.6-1.715.05-.154.11-.3.16-.456.069-.217.124-.447.19-.668q.218-.726.418-1.466c.053-.2.118-.395.171-.6.056-.22.1-.451.153-.675q.152-.629.29-1.271c.047-.219.1-.43.15-.652.051-.257.091-.524.139-.785.072-.381.141-.763.206-1.149.034-.2.074-.388.105-.586.051-.329.088-.671.134-1,.05-.361.1-.719.145-1.084.018-.146.042-.288.059-.435.054-.485.093-.983.137-1.476.023-.264.053-.523.074-.79.005-.065.013-.127.018-.193q.091-1.236.137-2.506l.005-.148q.039-1.161.042-2.327c0-.145-.007-.293-.007-.439,0-.312-.01-.626-.015-.939-.007-.368-.006-.735-.018-1.1-.009-.282-.029-.565-.041-.846-.015-.329-.03-.659-.05-.989-.012-.217-.018-.433-.032-.651-.031-.47-.077-.939-.116-1.41-.023-.271-.041-.54-.067-.811-.009-.091-.014-.181-.023-.272q-.124-1.271-.292-2.545c0-.019-.006-.037-.008-.056C1270.719,592.132,1270.7,592.01,1270.681,591.887Z" transform="translate(-1148.332 -516.412)"/><path class="j" d="M1212.471,527.936c-13.806-6.122-27.2-5.865-37.715.719-11.348,7.108-17.922,20.492-18.509,37.687-1.147,33.507,21.516,71.228,50.522,84.09,8.456,3.75,16.756,5.107,24.335,4.084a33.481,33.481,0,0,0,13.38-4.8c11.349-7.109,17.922-20.493,18.51-37.688C1264.141,578.52,1241.477,540.8,1212.471,527.936Zm38.751,80.522c-.456,13.326-5.418,23.616-13.971,28.973-7.846,4.916-17.981,5.044-28.54.363-23.364-10.361-41.62-40.814-40.694-67.884.457-13.325,5.418-23.616,13.972-28.973a24.687,24.687,0,0,1,9.878-3.534c5.764-.779,12.133.278,18.661,3.172C1233.894,550.937,1252.149,581.389,1251.223,608.459Z" transform="translate(-1148.516 -516.359)"/></g><path class="k" d="M1264.356,672.488,1254.188,701.3c-1.443,2.235-22.238-8.287-20.462-11.722.313-.606,11.383-35.414,23.288-41.032C1266.683,643.987,1269.7,659.358,1264.356,672.488Z" transform="translate(0.86 1.328)"/><path class="d" d="M1283.153,654.614l-.819-.051a5.054,5.054,0,0,1-4.711-5.346l.984-15.593a5.053,5.053,0,0,1,5.346-4.711l.818.051a5.053,5.053,0,0,1,4.711,5.346l1.259,15.122C1290.565,652.2,1285.918,654.789,1283.153,654.614Z" transform="translate(1.305 1.138)"/><ellipse class="d" cx="8.905" cy="15.71" rx="8.905" ry="15.71" transform="translate(1280.323 611.26) rotate(-2.271)"/><path class="l" d="M1280.881,616.926s2.607,13.694-8.105,17.61c0,0-12.877-6.205-4.809-20.181,7.11-12.318,20.584-4.36,20.584-4.36Z" transform="translate(1.181 0.921)"/><path class="l" d="M1296.4,619.162s-4.005-4.621-11.578-3.575l3.528-5.616S1294.142,608.51,1296.4,619.162Z" transform="translate(1.378 0.946)"/><path class="m" d="M1275.747,625.482c2.286-3.61,7.9-3.789,16.128-1.284,7.409-.1,7.805-8.613,7.805-8.613.834-4.586-2.294-6.395-6.88-7.23l-11.943-2.174c-6.76-1.268-12.775,4.66-13.609,9.246l-.251.763C1266.161,620.775,1271.161,624.648,1275.747,625.482Z" transform="translate(1.197 0.906)"/><path class="n" d="M1316.839,855.987l-13.1,10.958c-3.319,2.212-5.51.692-8.287.1a2.706,2.706,0,0,1-2.112-2.671l.012-2.752c-.12-3.968,3.524-6.3,6.058-7.51l13.4-7.385C1315.337,845.517,1323.63,849.8,1316.839,855.987Z" transform="translate(1.464 3.34)"/><path class="n" d="M1270.543,838.968l3.671,16.68c1.23,8.74-12.744,10.191-13.478.722l-.27-18.1C1260.562,835.467,1268.191,830.09,1270.543,838.968Z" transform="translate(1.132 3.214)"/><path class="o" d="M1304.407,858.174c.033,4.055-9.831,4.135-9.864.081l-.108-13.178L1304.3,845Z" transform="translate(1.475 3.324)"/><path class="o" d="M1272.291,850.185c0,4.056-9.864,4.056-9.864,0V837.006h9.864Z" transform="translate(1.152 3.243)"/><path class="p" d="M1273.718,847.664c-3.865,2.774-10.258,2.71-12.392-.517-2.528-48.241-10.451-80.491-9.958-121.739l30.643-9.088C1276.549,765.839,1275.97,809.343,1273.718,847.664Z" transform="translate(1.04 2.022)"/><path class="p" d="M1305.734,852.1c-3.123,4.361-10.179,4.389-12.261,1.238l-20.646-130.075h35.6Z" transform="translate(1.257 2.092)"/><path class="k" d="M1250.15,722.75c2.553-14,3.411-29.852,1.1-49.176,0-26.755,3.692-26.8,21.629-27.881l4.176-.264a29.73,29.73,0,0,1,14.859,2.921c15.84,7.7,23.515,9.5,20.3,28.507l-3.563,47.195C1308.655,748.347,1248.855,751.312,1250.15,722.75Z" transform="translate(1.027 1.305)"/><path class="q" d="M1298.313,684.6l8.771,36.42,1.051,3.545,1.289-17.554Z" transform="translate(1.515 1.701)"/><path class="m" d="M1271.96,638.772c3.254,6.776,11.328,8.056,15.027,2.643s8.734-16.148,5.482-22.922-22.35-6.407-26.049-1S1268.708,632,1271.96,638.772Z" transform="translate(1.18 0.981)"/><path class="d" d="M1312.309,706.381s3.413,16.533,21.753,18.047c0,0,6.555-2.057,2.178-9.026s-10.5-16.868-10.5-16.868Z" transform="translate(1.656 1.842)"/><path class="k" d="M1296.778,678.973l10.167,28.817c1.442,2.236,22.238-8.287,20.462-11.722-.313-.606-11.383-35.414-23.288-41.032C1294.45,650.472,1291.435,665.843,1296.778,678.973Z" transform="translate(1.473 1.394)"/></g><g transform="translate(932 1253.777)"><g class="r"><g class="s"><path class="t" d="M157.322,206.278c-.127.381-11.535,40.432-11.662,40.686-2.026,8.491-3.168,12.041-9.759,15.843-15.877,9.229-43.139,3.989-46.388-9-.127-.38-13.69-48.037-13.816-48.418-2.408-7.478,1.522-15.59,11.663-21.42,27.756-15.956,77.874-3.25,69.963,22.308" transform="translate(-4.871 -11.489)"/><g class="u" transform="translate(85.785 170.601)"><g class="v"><path class="t" d="M158.406,206.642c-.123.37-11.527,40.426-11.664,40.687-2.017,8.48-3.17,12.034-9.756,15.835-14.683,8.535-39.1,4.706-45.243-6.2,10,3.541,23.822,3.418,33.579-2.291,6.6-3.8,7.74-7.341,9.77-15.835.124-.262,11.527-40.3,11.651-40.687a16.2,16.2,0,0,0-3.019-15.7c11.143,5.036,18,13.489,14.683,24.193" transform="translate(-91.743 -182.449)"/></g></g><path class="w" d="M87.306,183.929c-16.3,9.412-16.389,24.673-.192,34.086s42.539,9.41,58.842,0,16.39-24.668.192-34.08-42.543-9.412-58.842,0" transform="translate(-4.872 -11.486)"/><path class="x" d="M154.273,202.082a10.336,10.336,0,0,1-.579,2.2c-5.445,15.351-41.879,21.837-63.31,10.311-5.444-2.9-8.8-6.488-10.194-10.194-2.317-6.314,1.1-13.149,10.31-18.015,24.617-13.09,66.611-2.78,63.773,15.7" transform="translate(-5.162 -11.722)"/><path class="y" d="M153.742,204.816c-5.445,15.35-41.879,21.837-63.31,10.31-5.444-2.9-8.8-6.487-10.194-10.194,1.332-3.765,4.808-7.415,10.31-10.369,21.721-11.527,57.749-4.981,63.194,10.253" transform="translate(-5.21 -12.254)"/><path class="z" d="M116.929,205.448c-3.423-3.651-22.825-31.27-34.695-51.585s-22.825-29.444-22.825-29.444l-2.053,1.826s21.911,30.357,26.476,38.8,25.793,37.661,26.477,39.259,6.619,1.142,6.619,1.142" transform="translate(-3.725 -8.079)"/><path class="aa" d="M74.411,117.237c3.474-4.292,14.991,5.867,19.332,8.7-1.776-11.181-12.86-20.008-14.311-21.25-18.945-16.206-33.553,1.6-33.553,1.6a19.89,19.89,0,0,0-8.674-10.044c-9.884-5.276-20.894,1.512-22.6,2.562a25.159,25.159,0,0,0-2.455,1.717c6.98-.425,17.292-.456,16.836,3.027-.48,3.671-14.8,4.442-22.747,3.4C.161,116.026.006,126.823,0,127.508a39.5,39.5,0,0,0,.827,8.075,28.521,28.521,0,0,0,6.021-2.369c14.151-7.076,25.336-12.782,13.923,0-7.8,8.733-11.544,14.8-14.959,15.95a41.772,41.772,0,0,0,6.057,8.473c2.986,3.2,8.363,7.8,10.044,15.749a23.793,23.793,0,0,1,.456,6.39c16.886-12.559,18.817-13.923,22.369-15.748,6.063-3.118,6.606-2.31,15.353-5.546-.814-4.1-1.891-9.848-.516-16.365,1.749-8.309,11.878,3.7,12.321,11.549,7.312-3.265,10.417-5.4,13.242-8.126,3.16-3.054,7.085-6.844,8.4-12.687a18,18,0,0,0,.388-2.606c-6.966-1.62-22.771-9-19.519-13.01M44.51,157.18c-2.967-1.6-.529-12.243.684-14.15,1.6-2.511,2.282,15.749-.684,14.15" transform="translate(0 -6.12)"/><path class="b" d="M99.729,28.725A57.847,57.847,0,0,0,84.492,14.682q-.118,1.778-.237,3.557a73.739,73.739,0,0,1,17.784,22.527c12.484,24.819,1.081,39.887,3.2,89.871,1.116,26.325,5.81,58.213,5.81,58.214,1.148.29,2.717.483,3.794-.356,2.705-2.108.263-9.139-1.186-14.464-2.3-8.457-2.143-17.4-3.319-26.084-.78-5.757-1.944-11.861-1.422-36.992.5-23.988,10.251-56.28-9.187-82.229" transform="translate(-5.471 -0.953)"/><path class="z" d="M123.159,198.133c3.749-40.964,9.142-71.108,13.889-80.248,4.621-8.9,12.014-11.574,21.091-9.261-17.78,3.226-21.9,15.985-30.351,88.995Z" transform="translate(-7.998 -7.003)"/><path class="b" d="M124,187.255c-10.478-51.649-4.351-88.377,3.467-112.68,6.084-18.911,17.207-42.778,16.362-43.157-.728-.325-9.435,17.164-13.042,25.135-9.2,20.337-22.672,61.5-13.345,129.93,0,0,2.314,16.59,6.559.771" transform="translate(-7.422 -2.04)"/><path class="z" d="M132.388,204.239c-1.293,9.238-24.17,9.27-25.453-.043,1.279-9.239,24.167-9.288,25.453.043" transform="translate(-6.944 -12.809)"/><path class="aa" d="M212.3,126.074c-4.619-5.6,2.3-.331-15.168-6.923s-24.727-4.945-21.428-9.559,17.473,1.317,17.473,1.317l19.123,9.233s-3.63-11.538-16.815-20.771S190.544,93.1,170.1,91.458s-16.813-3.625-21.759,4.613-2.636,12.2-8.57,9.892c0,0-3.625-30.331-24.069-25.716s-16.814,7.586-14.174,17.8c1.158,4.485,2.063,5.859,2.963,7.274,1.3-1.621,2.868-5.594,12.2-2.656,11.542,3.625,7.913,3.294-1.979,6.26-16.4,4.922,1.979,22.355,1.979,23.738,0,.989,6.923-13.846,13.846-13.846s9.565,1.65.989,9.89-17.472,4.287-5.6,21.759c26.962,39.7,3.517-.2,11.869-13.183,5.935-9.233,9.89-17.8,8.9-5.935-2.945,35.344-4.132,37.776,19.528,45.365,3.036.973,6.823,1.864,8.734,5.2,2.135,3.722.489,7.673,2.717,9.343.858.643,2.435.53,5.617-.561,11.537-3.956,12.858-13.189,19.449-20.771s-9.228-13.189-12.2-20.77-7.913-4.946-12.2-14.178-5.277-16.156,5.934-9.891,20.44,8.571,23.738,14.836,1.648,9.56,5.277,14.506,3.624-22.749-.988-28.353M178.675,154.1c-4.287-1.652-10.222-16.156-10.222-16.156,6.592-.989,14.5,17.8,10.222,16.156" transform="translate(-6.459 -5.18)"/><path class="z" d="M149.272,18.32c6.729-4.808,15.33-1.961,19.766-.493,1.073.356,19.447,6.671,20.629,18.5.734,7.347-5.7,11.507-4.858,23.11.091,1.245.395,4.2-.264,4.285-.451.057-2.689-15.043-20.642-16.132-23-1.393-24.388,12.543-37.628-2.091C125,44.09,122.3,40.422,122.833,37.09c.785-4.948,8.894-9.226,20.167-9.014a17.147,17.147,0,0,1,6.271-9.756" transform="translate(-7.972 -1.016)"/><path class="b" d="M79.283,14.914c1.6-1.37,9.383-11.282,18.97-2.608s-4.646,29.962-9.439,33.615.229-18.26-4.793-18.488,3.2,16.206-3.2,26.7a37.085,37.085,0,0,1-16.206,14.38S76.26,49.572,72.379,43.41,68.5,32.454,66.216,40.9s-2.739,21.455-10.5,26.248S45.445,70.8,45.445,70.8C57.087,61.1,57.592,51.144,56.167,50.26c-.94-.583-3.114,1.756-5.016,3.878-10.12,11.3-10.979,15.493-16.685,19.11-4.543,2.88-10.927,4.613-12.775,2.485-1.764-2.032,1.012-7.124,2.1-9.125,3.6-6.588,7.768-8.336,16.6-17.31,3.626-3.686,6.624-6.761,6.035-7.588-.725-1.018-7.715.418-12.168,5.125-7.989,8.445-15.522,24.65-18.717,20.541a22.018,22.018,0,0,1-1.826-22.825c4.793-9.358,15.75-16.434,27.163-16.434s24.195-3.2,16.206-4.565-22.14,1.825-29.9,5.479-7.761-4.11-2.055-9.131,13.24-1.826,27.163-3.88,20.314-5.479,5.021-5.25-22.825,2.511-20.542-.684C40.647,4.66,70.6-6.36,78.086,4.836c1.114,1.665,2.3,4.676,1.2,10.078" transform="translate(-0.737 0)"/></g></g></g><g transform="translate(303 1229)"><g class="ab" transform="translate(168.438 164.408)"><path class="c" d="M100.182,66.7s-5.881.8-4.74,4,6.057,3.376,6.057,3.376,1.995-5.484,3.726-5.044,1.007,5.633,1.007,5.633.8,2.654,4.621,2.853a21.871,21.871,0,0,1,5.675.868s-4.685-10.479-2.885-8.27,5.052,8.14,6.763,9.079,8.783-1.194,8.783-1.194-.863-.519-4.387-2.974c-.922-.644-1.855-1.247-2.716-1.809-2.426-1.584-4.272-2.838-3.67-3.718.816-1.191,4.248.225,4.983,1.988s10.368,6.238,10.368,6.238l5.011-4.223s-7.564,1.448-9.64-1.544-2.292-4.2-2.292-4.2,7.494,3.309,11.256,1.964l3.763-1.343-4.427-1.6-3.718-1.343,10.236.257,4.121-3.474c2.329-1.963,3.282-1.62,3.282-1.62a20.922,20.922,0,0,0-1.711-3.324c-1.068-1.662-6.361.367-6.361.367a3.491,3.491,0,0,1,2.5-3.289,35.133,35.133,0,0,1,5.633-1.561s-.728-2.633-1.481-2.53-11.462,2.11-12.021,6.091-3.753.123-1.177-2.282S147.349,48.7,147.349,48.7s-4.165-1.735-6.986-1.7c-1.174.015-3.066,1.485-4.876,3.2a67.945,67.945,0,0,0-4.92,5.283s-4.047,2.572-3.736.667,10.229-8.993,10.229-8.993,2.917-4.082-4.515-1.633-12.5,10.07-12.5,10.07-.894,2.2-.182-1.02,3.231-8.9,7.185-8.677-2-4.562-6.489-.108a18.616,18.616,0,0,0-5.288,8.977s-1.89.934-1.559-2.969,4.726-5.2,4.726-5.2-4.8-5.054-7.175.3a56.152,56.152,0,0,0-3.424,10.883s-2.17,2.694-2.654-.959,3.248-6.8,3.248-6.8-1.983-4.309-5.108,2.647-.745,7.817-.745,7.817-3.5.083-6.008.417-5.265,2.181-4.782,4.886,1.767,3.17,1.767,3.17Z" transform="translate(63.214 30.239)"/><path class="c" d="M74.066,27.126c5.113-.929,11.959-2.6,15.774-5.3,6.616-4.691,16.421-5.831,6.616-4.691-3.111.361-7.29,1.191-11.543,2.152a108.273,108.273,0,0,1,16.463-7.922l2.78,2.968.973-4.341c3.525-1.226,7.282-2.358,11.268-3.349,17.068-4.246,30.983-1.378,39.622,3.593-6.876.012-12.9.794-7.64.456,6.9-.444,13.844,11.443,13.844,11.443l3.42.782c-.228,2.268-1.719,4.229-4.64,5.493a68.613,68.613,0,0,0-10.9-12.134,30.863,30.863,0,0,0-15.242-6.947s10.692,5.265,14.707,13.384a53.424,53.424,0,0,0,4.5,7.471c-8.684.98-6.481-5.758-14.911-6.253-1.743-3.981-4.422-8.435-8.256-10.673a17.234,17.234,0,0,0-15.3-1.017l6.071,1.709c3.576,1.008,6.5,6.711,8.3,11.226-9.672,3.042-7.88,9.938-13.334,10.851-7.935-3.449-8.092-11.852-7.908-14.666l.093-.941s-.054.35-.093.941l-1.446,14.778c-8.254-1.679-8.44-8.474-8.44-8.474s-9.359,1.187-15.408,6.081S70.163,34.8,70.163,34.8c-1.969-.532-.539-3.615,3.9-7.679" transform="translate(47.751 3.155)"/><path class="c" d="M85.845,49.222C71.733,82.245,67.2,123.828,66.058,137.187c.248.16.493.328.728.51a15.993,15.993,0,0,1,1.851.488c.23.056.451.081.676.123,1.064-12.334,5.648-57.455,17.928-88.443C100.255,17.025,119.7,6.811,119.7,6.811S102.9,9.319,85.845,49.222" transform="translate(45.519 4.693)"/><path class="c" d="M92.787,14.767c-.858-3.174-3.218-5.785-6.442-7.883C79.639,6.618,72.989,7.471,76,5.322a9.1,9.1,0,0,1,4.866-1.236,52.407,52.407,0,0,0-8.437-2.542c-3.263.439-6.418,1.169-8.322,2.38-4.787,3.047-8.746,2.449-7.346,0,.76-1.329,6.777-2.371,12.121-3.047C61.622-.291,54.45-.259,50.111.775l-.35,2.449L44.8,1.878c-8.628,2.04-24.392,6.974-21.115,15.195a2.031,2.031,0,0,0,1.593-1.257c1.4-3.5,16.446-7.175,18.889-7.069s-7,2.522-11.389,4.272c-4.378,1.741-6.044,7.575-6.057,7.623,3.5,1.991,8.947,1.155,14.724-.492A16.514,16.514,0,0,1,45.564,10.9c4.552-5.067,4.2.015.61,2.814-2.326,1.814-1.632,3.363-.358,5.079,6.989-2.3,13.882-5.03,17.938-4.729,5,.37,13.8,4.164,20.482,5.741-5.13-2.782-14.529-7.621-20.081-8.9-8-1.85,2.4-1.383,10.444,1.763,5.419,2.121,13.546,4.557,18.279,5.924a6.1,6.1,0,0,0-.09-3.824" transform="translate(16.015 0)"/><path class="c" d="M85.813,139.832a13.412,13.412,0,0,0,2.392.255c.157,0,.307,0,.458,0,.066-5.812.363-56.8-8.454-88.511-8.78-31.587-38.2-47-38.2-47s31.815,20.24,38.2,53.844c2.909,15.3,5.343,74.844,5.6,81.41" transform="translate(28.946 3.155)"/><path class="c" d="M97.16,121a6.738,6.738,0,0,0,1.328-.7,7.948,7.948,0,0,1,.924-.529c-.794-9.437-5.375-47.862-28.305-67.328-21.064-17.882-36-20.972-36-20.972s46.73,16.45,55.272,57.192c5.584,26.633,6.6,31.459,6.78,32.336" transform="translate(24.193 21.684)"/><path class="c" d="M96.324,47.013c-2.518,3.819-8.417,9.192-16.5,9.192h-.388c-.483-3.042-1.427-7.744-2.98-10.263-2.182-3.527-11.092-4.765-12.741-4.964,1.113.179,5.532,1.008,7.756,3.664,1.27,1.522,1.27,6.494.954,11.1-2.55-.242-5.447-.568-8.552-.934a39.8,39.8,0,0,1,.944-5.017c1.258-4.827-7.326-9.613-7.829-9.886a17.1,17.1,0,0,1,5.435,7.841c.672,2.013.179,4.512-.65,6.81-4.91-.6-10.221-1.3-15.4-1.973,1.5-4.87,3.567-12.477,2.466-14.1a2.271,2.271,0,0,0-1-.809,4.851,4.851,0,0,0-2.969-.157c-1.48.336-2.581,1.133-1.888,1.616,1.365.954,3.41,5.184,2.728,7.829-.3,1.216-.912,3.368-1.468,5.351-2.782-.356-5.51-.7-8.092-1.017,1.343-2.824,2.687-6.412,1.721-7.923-1.711-2.645-4.775-1.1-5.121,4.376a6.516,6.516,0,0,1-.86,3.032c-4.155-.471-7.7-.818-10.2-.934,1.574-2.466,3.348-5.383,4.576-7.177,1.846-2.677-7.01,3.851-11.124,6.935C8.153,49.018,1.931,46.866.377,40.843A21.642,21.642,0,0,1,8.2,36.424c7.116-1.973,17.892,4.67,18.323-.2s-16.3-4.533-19.005-1.48c-1.049,1.176-4.082,2.865-7.418,4.5A13.342,13.342,0,0,1,0,37.757c0-9.518,9.665-14.366,15.918-14.913,6.929,1.817,13.119,4.052,14.788,6.234,3.579,4.68,4.03,5.268,4.081,5.341a60.763,60.763,0,0,0-5.446-10.231C42.06,27.1,51.252,33.864,59.3,37.411a22.41,22.41,0,0,0,8.93,2.246c.63,0,1.238-.012,1.806-.032,10.9-.367,11.889-4.061,19.34-4.061,6.307,0,7.839,3.724,8.2,6.494-.86-.65-1.784-1.375-2.738-2.16-4.775-3.978-16.707-1.449-16.707-1.449s5.792,1.091,11.932,2.74c3.211.87,5.152,3.5,6.265,5.824" transform="translate(0 15.741)"/><path class="c" d="M62.327,34.379s-11.072-1.228-22.194-1.953c-.986-.062-1.983-.115-2.969-.157a59.842,59.842,0,0,0-10.84.421C14.4,34.484,11.609,35.271,11.19,35.4c1.228-.493,21.429-8.312,40.4-3.233a22.4,22.4,0,0,0,8.93,2.246c.628,0,1.238-.012,1.8-.032" transform="translate(7.711 20.987)"/><path class="c" d="M96.953,60.533c-16.641,13.016-28.388,46.411-28.388,46.411l.769.444c.191.01.373.034.571.035.223.005.437,0,.65,0,1.591-4.381,12.893-34.582,25.711-44.656,20.818-16.36,62.992-7.165,62.992-7.165s-42.174-10.815-62.3,4.929" transform="translate(47.246 35.819)"/><path class="c" d="M48.64,52.122s11.089-3.643,19.183,5.751c8.045,9.341,20.857,49.37,20.857,49.37l-2.6.564S74.127,68.892,65.693,60.26c-5.366-5.495-10.268-7.444-14.729-6.3S43.1,52.142,48.64,52.122" transform="translate(31.535 35.437)"/><path class="c" d="M58.249,61.2s10.283-4.866,16.664-4.419,17.443-1.22,18.72,1.316l1.275,2.535s6.807-2.7,8.935,1.838l2.127,4.544s-6.381-2.745-10.92-2.79l-4.537-.046s12.479,3.545,15.457,6.381a32.954,32.954,0,0,0,3.544,3.164s-1.415,9.884-3.969,8.749c-1.341-.6-4.523-3.307-8.187-5.973-3.309-2.405-7.011-4.775-10.107-5.515-6.523-1.559-6.967-1.3-6.967-1.3s22.71,11.229,25.687,15.484-4.42,11.408-6.807,11.345S84.414,83.328,78.6,78.222A30.631,30.631,0,0,0,66.971,71.7a17.885,17.885,0,0,0,8.793,7.233c5.92,2.135,17.3,13.756,18.576,22.265s-8.934,8.508-8.934,8.508S67.822,82.335,65.98,78.932s-6.667-9.173-5.957-4.446,3.971,7.14,11.2,14.94S84.129,109,84.13,109.7s-6.381,7.091-8.366,5.248S68.106,92.829,63.993,88.716s-4.68-2.694-3.12,0,11.062,19.146,10.21,23.542-9.359,3.027-9.359,3.027a27.156,27.156,0,0,0-1.986-11.536c-2.41-5.246-6.381-15.458-7.515-12.622s5.954,21.132,5.1,23.259-3.4,2.978-13.756,2.127-12.2-3.545-12.2-3.545,5.39-20.421,9.219-22.123-7.516-3.12-9.219,4.68-2.719,18.923-5.1,15.033-6.381-4.4-5.39-7.091,2.952-8.51-.155-5.672-3,4.04-4.1,2.836-4.395-3.12-1.559-5.674,12.621-13.33,19.288-13.472,14.322-1.277,8.082-2.836-21.046,8-22.193,10.21-7.907,6.113-7.907,6.113-4.929-5.655-5.212-8.224S18.329,76.52,25.7,77.655s16.024-4.537,9.785-4.537S10.531,79.215,9.254,81.2s-1.277-1.985-1.277-2.41-3.12-3.545,1.7-5.814,20.561-3.829,23.966-3.687,3.92-2.116-.025-1.838S10.105,72.125,9.68,71.131s-2.128-4.964,3.969-5.814,21.84.284,21.84.284a6.261,6.261,0,0,0-4.235-2.446c-2.714-.25-9.1.885-9.805.885S17.478,61.063,24,59.22s6.805,1.7,11.769.14,9.217-3.544,12.481-.708,10,2.552,10,2.552" transform="translate(4.813 39.04)"/><path class="c" d="M65.089,51.9c-2.206-.476-14.61-.787-22.654,9.445s-12.5,33.58-12.5,33.58,7.29-30.782,20.392-37.71C60.427,51.875,74.8,54,65.089,51.9" transform="translate(20.627 35.637)"/></g></g><g transform="translate(-465.913 966.858)"><path class="d" d="M741.106,470.933h0a4.924,4.924,0,0,0-4.075,5.625l.344,2.151A4.926,4.926,0,0,0,743,482.783h0a4.925,4.925,0,0,0,4.075-5.625l-.344-2.151A4.925,4.925,0,0,0,741.106,470.933Z" transform="translate(-10.499 -29.967)"/><path class="ac" d="M734.428,487.464l-3.859,17.283,14.481-2.864V489.32Z" transform="translate(-8.016 -36.406)"/><g transform="translate(723.691 393.653)"><path class="h" d="M829.309,472.687l6.666-48.107L810.7,422.5l-21.791-11.667-23.953-2.678L741.4,394.923l-8.1,47.658,22.628,19.353,24.34,2.409L802.282,476.3Z" transform="translate(-732.769 -394.146)"/><path class="ad" d="M801.848,476.319l-22.064-11.986-24.4-2.415-.119-.1-22.841-19.536,8.263-48.628,24.081,13.523,23.948,2.678.084.045,21.7,11.619,25.692,2.119-6.789,49ZM755.8,460.962l24.285,2.4,21.955,11.927,26.494-3.541,6.543-47.214-24.854-2.051-.091-.048-21.706-11.622-23.958-2.678-23.029-12.932L733.5,441.894Z" transform="translate(-732.429 -393.653)"/><path class="ad" d="M834.524,430.9l-23.866-2.355-20.391-11.257-22.224-2.107-22.358-12.141-7.117,41.576-.034.2L760.041,462.3l22.675,2.586,20.6,10.837,25.414-2.625Z" transform="translate(-734.798 -397.294)"/><path class="h" d="M745.152,422.253,767.89,436.9s-.1,2.915-.508,2.881-22.726-14.71-22.726-14.71Z" transform="translate(-737.174 -404.752)"/><path class="h" d="M825.392,446.074l-5.226,30.179,2.363,1.135,5.335-30.269Z" transform="translate(-766.477 -413.996)"/><path class="h" d="M781.794,446.835l25.236-3.721-.243-2.677L782.3,443.953Z" transform="translate(-751.586 -411.809)"/><path class="h" d="M822.638,440.437l19.207,12.633-.8,2.983-18.165-12.939Z" transform="translate(-767.437 -411.809)"/><path class="h" d="M878.307,461.79l-25.6-.87-.29,2.886,25.273,1.507Z" transform="translate(-778.992 -419.758)"/><path class="h" d="M863.249,465.063l16.365,18,.572-3.248-13.784-14.4Z" transform="translate(-783.197 -421.365)"/><path class="h" d="M799.581,491.574l-25.437-1.9-.42,2.382,30.819,2.044.367-2.08Z" transform="translate(-748.455 -430.916)"/><path class="h" d="M737.92,461.957l22.329,16.961-.42,2.382L738.563,464.96Z" transform="translate(-734.56 -420.16)"/><path class="h" d="M797.118,438.086l9.82-12.672,3.264.329-8.864,11.291Z" transform="translate(-757.533 -405.979)"/><path class="h" d="M838.817,458.591,823.444,469.2l2.4,2.239,14.692-10.393Z" transform="translate(-767.75 -418.854)"/><path class="h" d="M841,468.486l4.309,14.148,25.006.622-.475,2.7-25.528-.465-5.545-15.561Z" transform="translate(-773.695 -422.694)"/><path class="h" d="M755.006,433.934l-11.959,4.57a32.255,32.255,0,0,0-.625,3.549c.157-.116,15.553-6.446,15.553-6.446Z" transform="translate(-736.299 -409.285)"/><path class="ae" d="M757.315,453.287l-4.537,6.51a.3.3,0,0,0-.045.226l1.7,9.465c.064.357.586.538.774.267l4.446-6.369a.3.3,0,0,0,.045-.222l-1.61-9.605C758.029,453.2,757.5,453.016,757.315,453.287Z" transform="translate(-740.306 -416.745)"/><path class="af" d="M762.623,468.221l-8.392-7.4a.484.484,0,0,0-.28-.121l-8.539-.607c-.331-.024-.438.331-.169.559l7.681,6.513a.488.488,0,0,0,.236.11l9.25,1.49C762.758,468.825,762.9,468.463,762.623,468.221Z" transform="translate(-737.342 -419.438)"/><ellipse class="af" cx="3.596" cy="5.024" rx="3.596" ry="5.024" transform="matrix(0.748, -0.664, 0.664, 0.748, 10.062, 43.108)"/><path class="h" d="M759.563,465.765c-.257,1.459-1.738,2.013-3.307,1.237a4.173,4.173,0,0,1-2.376-4.047c.257-1.459,1.738-2.013,3.307-1.237A4.173,4.173,0,0,1,759.563,465.765Z" transform="translate(-740.739 -419.931)"/><g transform="translate(72.226 65.296)"><path class="af" d="M851.9,503.767a3.286,3.286,0,0,1,1.487-1.792c1.108-.586,1.738.085,2.663.853a3.091,3.091,0,0,0,1.86.9,2.943,2.943,0,0,0,2.076-1.083c.551-.5.808-1.2,1.858-.583.313.185.549.564.877.766a2.161,2.161,0,0,0,1.927.234c1.315-.42,1.645-1.672,3.339-.606.9.564,1.419,1.339,2.544,1.251a2.1,2.1,0,0,0,1.778-1.453c.307-.721-1.092-1.339-1.4-.62-.565,1.326-3.027-.944-3.921-1.07a3.134,3.134,0,0,0-2.185.718q-.329.226-.679.427a.851.851,0,0,1-1.24-.335c-.334-.215-.53-.543-.9-.741a1.951,1.951,0,0,0-1.852-.046c-1.151.533-1.5,2.278-3.388,1.22-.8-.449-1.146-1.193-2.143-1.388-2.087-.409-3.53,1.3-4.1,2.726-.291.729,1.108,1.348,1.4.621Z" transform="translate(-850.46 -500.358)"/></g><g transform="translate(71.481 69.526)"><path class="af" d="M850.679,510.68a3.284,3.284,0,0,1,1.488-1.792c1.108-.586,1.737.084,2.662.853a3.093,3.093,0,0,0,1.859.9,2.947,2.947,0,0,0,2.076-1.083c.551-.5.808-1.2,1.857-.583.313.185.549.564.878.766a2.163,2.163,0,0,0,1.927.234c1.314-.42,1.644-1.673,3.338-.606.9.564,1.419,1.339,2.544,1.251a2.1,2.1,0,0,0,1.778-1.453c.307-.72-1.092-1.338-1.4-.62-.565,1.326-3.027-.944-3.921-1.069a3.135,3.135,0,0,0-2.185.717q-.329.226-.679.428a.85.85,0,0,1-1.239-.335c-.334-.215-.531-.543-.9-.74a1.949,1.949,0,0,0-1.852-.046c-1.151.533-1.5,2.277-3.388,1.219-.8-.449-1.146-1.193-2.143-1.388-2.086-.408-3.529,1.3-4.1,2.727-.291.729,1.107,1.347,1.4.62Z" transform="translate(-849.242 -507.272)"/></g><path class="af" d="M794.406,455.923l-4.534,6.06c-.116.155.039.406.27.438l5.443.747a.214.214,0,0,0,.268-.234l-.908-6.808C794.912,455.875,794.545,455.737,794.406,455.923Z" transform="translate(-754.706 -417.785)"/><path class="af" d="M803.393,467.648l-4.534,6.06c-.116.155.039.405.27.437l5.442.747a.214.214,0,0,0,.269-.234l-.908-6.807C803.9,467.6,803.533,467.462,803.393,467.648Z" transform="translate(-758.194 -422.335)"/><path class="af" d="M786.07,471.12l-4.534,6.06c-.116.155.039.405.27.437l5.443.747a.215.215,0,0,0,.269-.234l-.908-6.807C786.576,471.072,786.21,470.934,786.07,471.12Z" transform="translate(-751.471 -423.683)"/><path class="af" d="M831.618,482.536l-2.631,5.811a.3.3,0,0,0,.178.366l4.344,2.177c.211.106.422-.015.378-.218l-1.713-7.987C832.118,482.419,831.719,482.313,831.618,482.536Z" transform="translate(-769.894 -428.099)"/><path class="af" d="M834.377,501.129l-2.632,5.758a.3.3,0,0,0,.17.362l4.343,2.3c.213.112.43-.008.387-.214l-1.712-8.054C834.877,501.013,834.479,500.907,834.377,501.129Z" transform="translate(-770.964 -435.315)"/><path class="af" d="M769.593,421.559l-3.118,5.435a.285.285,0,0,0,.136.364l4.353,2.741c.209.132.446.026.414-.184l-1.235-8.176C770.1,421.477,769.713,421.349,769.593,421.559Z" transform="translate(-745.631 -404.442)"/><path class="h" d="M772.149,472.182l-.934-.308,8.712-49.428.934.308Z" transform="translate(-747.481 -404.827)"/><path class="h" d="M810.239,474.262l-.934-.308,8.712-49.428.934.308Z" transform="translate(-762.262 -405.634)"/><path class="h" d="M843.259,491.852l-.934-.308,8.712-49.428.934.308Z" transform="translate(-775.077 -412.46)"/></g><path class="d" d="M873.733,513.716h0a4.925,4.925,0,0,0-6.346,2.824l-.781,2.033a4.926,4.926,0,0,0,2.825,6.346h0a4.926,4.926,0,0,0,6.346-2.825l.781-2.033A4.926,4.926,0,0,0,873.733,513.716Z" transform="translate(-60.682 -46.467)"/><path class="ag" d="M762.41,534.3,796.3,558.169c5.16,4.2,16.37,1.874,20.226-4.2l14.742-25.4-5.32-5.442-17.945,18.219s-17.544-19.112-24.768-19.74S762.41,534.3,762.41,534.3Z" transform="translate(-20.373 -49.647)"/><rect class="ah" width="32.651" height="20.704" transform="matrix(0.945, 0.326, -0.326, 0.945, 726.983, 541.947)"/><path class="af" d="M720.122,825.885l8.3-1.409c5.475-2.773,8-4.787,10.551-3.459l.723.376c2.549,1.328,2.345,3.873-.455,5.656l-11.846,10.28a8.1,8.1,0,0,1-9.072-.485s-1.426-1.179-.671-6.436C718.082,827.41,717.882,827.311,720.122,825.885Z" transform="translate(-2.917 -165.686)"/><path class="af" d="M779.494,860.067l8.273,1.559c6.1-.7,9.167-1.713,11.1.417l.547.6c1.93,2.13.855,4.446-2.39,5.146l-14.677,5.531a8.105,8.105,0,0,1-8.34-3.6s-.928-1.6,1.6-6.268C777.052,860.789,776.9,860.628,779.494,860.067Z" transform="translate(-24.807 -181.003)"/><path class="o" d="M786.051,854.786c0,4.181-10.169,4.181-10.169,0V841.2h10.169Z" transform="translate(-25.601 -173.681)"/><path class="ah" d="M782.121,760.352c-1.281,5.3-11.855,4.909-13.914,1.486.672-45.709-5.753-141.855-5.753-141.855l26.029.337A1322.744,1322.744,0,0,1,782.121,760.352Z" transform="translate(-20.39 -87.833)"/><path class="o" d="M728.338,823.577c-.067,3.792-10.226,4.233-10.159.441l.219-12.325,10.159-.441Z" transform="translate(-3.208 -162.06)"/><path class="ah" d="M729.021,744.507c-3.877,4.353-11.938,2.916-13.606-.033l.064-122.678,25.7,2.672Z" transform="translate(-2.135 -88.536)"/><path class="d" d="M774.239,465.034c-.995,8.285-9.022,12.52-14.847,8.155s-9.739-14.62-8.745-22.906,6.523-11.464,12.348-7.1S775.234,456.749,774.239,465.034Z" transform="translate(-15.748 -18.462)"/><path class="d" d="M755.672,504.489l-.922-.284c-3.113-.958-3.362-4.3-2.4-7.411l3.887-17.549a5.942,5.942,0,0,1,7.4-3.919l.922.284a5.941,5.941,0,0,1,3.92,7.4l-2.711,17.634C764.808,503.761,758.785,505.447,755.672,504.489Z" transform="translate(-16.275 -31.594)"/><path class="af" d="M743.075,466.143s1.191,4.27,9.6,3.794c8.01-.453,5.173-12.3,12.576-14.765,8.143-2.713,7.272-11.847,3.337-15.281s-13.479-4.021-19.676,0S735.713,447.221,743.075,466.143Z" transform="translate(-11.644 -16.857)"/><path class="d" d="M776.677,473.4a3.674,3.674,0,1,1-3.21-4.086A3.674,3.674,0,0,1,776.677,473.4Z" transform="translate(-23.068 -29.351)"/><path class="ag" d="M709.913,573.114c1.505-16.251,1.245-28.118,1.505-45.614-1.505-44.267,33.816-27.165,35.886-26.1,21.923,11.295,23.4,13.234,22.72,26.194.1,21.581,1.01,47.471.557,58.089C766.063,600.607,714.927,583.793,709.913,573.114Z" transform="translate(0 -40.212)"/><path class="h" d="M767.246,503.174s-9.12-6.169-14.2-5.577C753.042,497.6,755.67,504.91,767.246,503.174Z" transform="translate(-16.737 -40.322)"/><path class="ai" d="M774.853,493.327s-4.148-1.592-4.78-3.339c0,0,1.638,5,4.416,5.714Z" transform="translate(-23.347 -37.385)"/><path class="aj" d="M771.936,840.471s1.429,4,7.5,3.672,6.866-3.226,6.866-3.226" transform="translate(-24.07 -173.399)"/><path class="aj" d="M714.921,812.654s1.429,4,7.5,3.672,6.867-3.226,6.867-3.226" transform="translate(-1.943 -162.604)"/></g><g transform="translate(1266 1322.813)"><g class="ak"><path class="al" d="M66.166,41.005S73.711,55.1,75.334,57.969s7.047,13.782,7.172,15.965-3.742,5.986-4.052,6.172A29.3,29.3,0,0,1,74.1,79.7s-4.629-3.33-5.376-6.075S63.671,63.928,63.3,63.6,55.5,46.179,55.5,46.179Z" transform="translate(20.96 15.485)"/><path class="am" d="M63.967,49.367c.017.623,6.128,9.1,7.749,11.974a35.353,35.353,0,0,0,2,3.494c.123.123,3.341,1.211,6.564,2.494a27.275,27.275,0,0,1,2.224,5.989c.124,2.182-3.74,5.984-4.05,6.172a29.324,29.324,0,0,1-4.357-.411S69.47,75.748,68.724,73,63.672,63.31,63.3,62.98,55.5,45.562,55.5,45.562l6.019-2.921Z" transform="translate(20.961 16.103)"/><path class="an" d="M54.167,26.378s4.8-.7,7.025,4.659,6.541,16.348,6.541,16.348L59.941,51Z" transform="translate(20.456 9.95)"/><path class="al" d="M60.255,33c-.273-.092,2.74,16.307-3.806,20.155s-14.885-.825-18.087-6.137-3.485-15.5-3.485-15.5l13.471-7.767Z" transform="translate(13.171 8.967)"/></g><g transform="translate(81.035 79.258)"><g class="ao"><rect class="ap" width="36.855" height="36.378" transform="matrix(0.799, -0.602, 0.602, 0.799, -12.023, 9.03)"/></g></g><g class="ak"><path class="aq" d="M59.525,81.595c-.292.386-.145.613.331.507l9.013-2.033a2.832,2.832,0,0,0,1.4-.9L85.746,58.877c.3-.386.15-.614-.322-.508l-9.017,2.036a2.842,2.842,0,0,0-1.4.9Z" transform="translate(22.422 22.033)"/><path class="am" d="M81.334,66.94c-.136-1.126-1.183-2.655-2.567-2.668s-10.608.6-11.961,1.256c-2.021.973-.588,2.575-.282,2.947s-1.292.212-1.152,1.38-1.287,3.031-.647,4.662c.5,1.27.635,1.931,2.947,2.583,2.691.756,3.671.489,6.184-.252s7.858-6.756,7.478-9.908" transform="translate(24.38 24.271)"/><path class="ar" d="M69,192.438a2.723,2.723,0,0,1-.592,3.823c-4.663,3.841-7.788,1.958-15.355-4.129-2.536-2.042-4.9-3.783-5.677-5.574a3.832,3.832,0,0,1-.307-2.9s-2,4.834-.828,7.256c.594,1.223,6.54,4.217,8.8,6.75s9.533,9.216,18.43,9.918,3.339-9.429-4.473-15.142" transform="translate(17.321 69.356)"/><path class="al" d="M68.846,194.759a2.723,2.723,0,0,1-.592,3.823c-4.663,3.841-7.788,1.958-15.355-4.129-2.536-2.042-4.9-3.783-5.677-5.574a3.918,3.918,0,0,1-.313-2.889l.006-.014-.006.014c-.012.022-.032.079-.061.154v-.006c1.047-3.33-.587-8.076-.587-8.076l9.929-.554A28.58,28.58,0,0,0,61,185.7c2.759,3.506,8,9.17,8,9.17l0,.006c-.052-.041-.1-.08-.157-.118" transform="translate(17.47 67.035)"/><path class="as" d="M45.978,188.469h0a3.344,3.344,0,0,0,.222.624c.592,1.225,6.538,4.218,8.8,6.752s9.533,9.216,18.43,9.918c2.959.236,4.311-.74,4.52-2.341.242,2.162-1.008,3.578-4.52,3.3-8.9-.7-16.167-7.384-18.43-9.918a19.56,19.56,0,0,0-3.243-2.666l-.233,1.055a50.513,50.513,0,0,1-5.414-3.874l-.084-1.777a3.355,3.355,0,0,1-.05-1.064Z" transform="translate(17.356 71.173)"/><path class="at" d="M46.985,138.271s15.982-24.2,17.22-36.855,1.292-18.941.307-23.573c0,0-.9,5.486-11.007,9.668l-12.116,17.47Z" transform="translate(15.63 29.397)"/><path class="at" d="M16.678,142.751c2.349-4.827,6.425-10.892,11.378-13.491a58.924,58.924,0,0,1,10.776-3.768l3.333-12.644s7.344,12.279,7.139,12.7c-.1.186-1.949,1.927-3.988,3.812l5.147,10.3s-26.73,20.046-32.672,27.6c0,0-6.114-5.4-9.205-10.965,0,0,5.739-8.712,8.094-13.538" transform="translate(3.242 42.616)"/><path class="au" d="M54.895,109.239s8.293,39.664,8.032,49.933-4.177,26.115,3.421,56.21a44.442,44.442,0,0,1-12.645.227s-5.257-15.892-7.494-19.841-3.335-12.335-3.2-15.892,2.274-12.866,1.528-18.365-19.647-48.828-21.251-57.2c-2.853-14.887,6.085-23.454,6.085-23.454s13.947,11.034,31.19,5.519c0,0-1.123,16.113-5.662,22.865" transform="translate(8.58 30.534)"/><path class="au" d="M29.145,80.856s13.947,11.034,31.19,5.519c0,0-1.123,16.111-5.662,22.865A50.891,50.891,0,0,0,23.308,91.88a24.459,24.459,0,0,1,5.837-11.024" transform="translate(8.802 30.534)"/><path class="ar" d="M23,167.559s1.222,1.918,0,3.4-5.311,2-6.184.174-4-8.1-6.012-10.1-6.881-7.23-5.918-11.585c0,0-5.4,2.091-3.487,7.493s6.1,4.878,8.1,8.358,3.3,9.09,7.423,12.834c2.5,2.274,15.363,5.647,16.34,2.766.423-1.232-2.17-4.275-3.773-6.063-1.616-1.8-6.49-7.273-6.49-7.273" transform="translate(0.373 56.436)"/><path class="al" d="M21.967,169.164s1.222,1.918,0,3.4-5.311,2-6.184.174-4-8.1-6.012-10.1-6.881-7.23-5.918-11.585a23.116,23.116,0,0,0,6.508-5.855l10.123,7.92c-3.042,2.19-3.857,5.161-3.035,7.366s4.519,8.685,4.519,8.685" transform="translate(1.408 54.831)"/><path class="as" d="M.025,155.26l1.185-2.387a4.508,4.508,0,0,1,.242-.49l.074-.145h.012c.021-.033.045-.065.066-.1a5.786,5.786,0,0,0,.168,3.782c1.915,5.4,6.1,4.878,8.1,8.358s3.3,9.09,7.423,12.833c2.274,2.071,13.126,5.044,15.8,3.4a1.056,1.056,0,0,1-.025.547c-.98,2.875-13.84-.488-16.342-2.766-4.114-3.747-5.417-9.351-7.419-12.835a6.444,6.444,0,0,0-1.25-1.529l-.526.6a15.853,15.853,0,0,1-5.2-3.246A7.491,7.491,0,0,1,.025,155.26" transform="translate(0 57.453)"/><path class="g" d="M36.753,76.765c-1.4-7.711-14.078-24.649-13.143-30.838C24.476,40.2,37,30.543,38.9,29.1a14.289,14.289,0,0,0,1.179,2.571c1.988,3.736,12.706,21.425,19.737,17.8s2.578-19.908,2.578-19.908L64.3,28.3c3.873,2.843,5.786,9.619,6.709,16.836a33.43,33.43,0,0,0,1.894,4.29c2.455,4.442,9.276,14.216,2.733,21.065a31.639,31.639,0,0,1-5.329,4.517c-1.463,5.163-3.406,11.308-2.182,13.553,2.671,4.909,5.081,9.7,5.081,9.7s-2.376,7.9-12.542,10.863a30.545,30.545,0,0,1-31.611-8.42c3.395-4.727,9.1-16.226,7.7-23.938" transform="translate(8.898 10.688)"/><path class="g" d="M36.205,69.887c-1-5.508-7.757-15.727-11.193-23.372l10.784,1a8.683,8.683,0,0,1,4.1,7.515c-.1,4.588,1.413,18.761,13.6,17.474,7.6-.8,16.266-4.375,16.266-4.375-1.463,5.163-3.406,11.308-2.182,13.553,2.671,4.909,5.081,9.7,5.081,9.7s-2.376,7.9-12.542,10.863A30.545,30.545,0,0,1,28.5,93.825c3.395-4.727,9.1-16.226,7.7-23.938" transform="translate(9.446 17.566)"/><path class="al" d="M68.571,66.129a16.253,16.253,0,0,1,5.964-2.476c2.181-.473,10.4-.427,10.956-.134s1.24,1.146.273,1.573a25.96,25.96,0,0,1-5.221.923c-1.375.136-1.5.426-1.5.562a7.422,7.422,0,0,0-1.4,1.869A9.186,9.186,0,0,1,76.108,71.6c-1.08,1.351-1.325,4.546-3.87,5.9s-4.254,2.746-7.133,3.488-3.524.178-8.7,1.3-22.366,6.855-28.4,8.1S17.859,91.835,16.63,87.4s.379-11.583,1.6-16.173S21.6,55.642,21.6,55.642l13.826,3.47-5.34,18.259s14.574-1.55,20.018-2.19,9.929-.525,11.422-1.785,7.045-7.267,7.045-7.267" transform="translate(6.115 21.013)"/><path class="al" d="M27.75,76.771A31.641,31.641,0,0,0,22.376,77.9L28,57.233l5.09,1.278Z" transform="translate(8.45 21.613)"/><path class="an" d="M34.092,69.327S23.225,67,19.41,63.105c0,0,2.076-14.852,3.733-19.083s4.811-7.471,7.47-6.64,13.358,5.509,9.127,15.906a135.788,135.788,0,0,0-5.648,16.038" transform="translate(7.33 14.067)"/><path class="al" d="M17.285,86.59a19.854,19.854,0,0,0,7.592.5c5.471-.846,30.489-9.2,30.489-9.2a53.93,53.93,0,0,0,9.367-2.8c3.423-1.587,4.561-5.2,5.008-6.644s4.014-3.915,5.834-4.608a9.53,9.53,0,0,1,3.277-.46c-.193.106-.226.211-.226.277a7.413,7.413,0,0,0-1.4,1.868A9.174,9.174,0,0,1,75.7,68.673c-1.08,1.353-1.325,4.546-3.871,5.9s-4.254,2.747-7.132,3.49-3.524.178-8.7,1.3-22.366,6.857-28.4,8.1c-4.838,1-8.437,1.327-10.3-.867" transform="translate(6.528 23.934)"/><path class="av" d="M66.55,26.78l-1.3,2.8a15.634,15.634,0,0,1-.484,4.158c-.482,1.014-1.867,3.536-1.867,3.536s.416,2.989.03,3.134a4.248,4.248,0,0,1-1.112.142s-2.682,5.775-4.783,6.332-7.347-.434-11.7-4.3A36.111,36.111,0,0,1,34.7,25.62c-2.031-7.249-1.3-14.308,1.6-18.463S48.186-.961,55.339,2.471,65.922,14.406,66.55,18.853a27.544,27.544,0,0,1,0,7.927" transform="translate(12.67 0.44)"/><path class="am" d="M58.185,20.6l-.765,1.645a15.679,15.679,0,0,1-.484,4.156c-.482,1.015-1.867,3.538-1.867,3.538a36.335,36.335,0,0,1-.792-5.52c.028-.905,2.109-2.556,3.907-3.819" transform="translate(20.497 7.779)"/><path class="am" d="M52.505,30a24.448,24.448,0,0,1,3.684-.183c-.327.685-2.788,5.731-4.746,6.249a7.752,7.752,0,0,1-3.1-.03c1.331-1.269,3.634-5.841,4.16-6.035" transform="translate(18.257 11.259)"/><path class="aw" d="M72.63,21.895c.066.614-.4,6.485-11.478,8.572-13.559,2.547-16.46,4.324-19.432,10.609S23.586,51.318,23.586,51.318a37.849,37.849,0,0,0,9.78-13.179C36.523,30.4,35.9,21.058,36.274,15.49A16.539,16.539,0,0,1,49.889.328c9.4-1.792,20.824,3.558,22.741,21.567" transform="translate(8.907 0)"/></g></g></g></svg>