<svg xmlns="http://www.w3.org/2000/svg" xmlns:xlink="http://www.w3.org/1999/xlink" width="1210.097" height="456.729" viewBox="0 0 1210.097 456.729"><defs><style>.a,.cf,.cj{fill:none;}.b{fill:#97cbfd;}.c{clip-path:url(#a);}.d{clip-path:url(#b);}.e{fill:#7cb4f7;}.f{opacity:0.3;}.bx,.f{mix-blend-mode:multiply;}.af,.bm,.bx,.f{isolation:isolate;}.g{clip-path:url(#c);}.h{fill:#abcffa;}.i{fill:#3551a2;}.j{fill:#4b6ccc;}.k{fill:#69a5ed;}.l{fill:#478bde;}.m{fill:#003575;}.n{fill:#1158b0;}.o{fill:#f9bcaa;}.av,.p{fill:#f2f2f2;}.q{fill:#8d7fa2;}.r{fill:#1e1e1e;}.s{fill:#aa212b;}.t{fill:#c1272d;}.u{fill:#bdf4dd;}.v{fill:#2a99d1;}.w{fill:#e2e2e2;}.x{fill:#10457b;}.y{fill:#e6e6e6;}.z{opacity:0.05;}.aa{fill:#f4f4f4;}.ab{fill:#efbe9a;}.ac{fill:#f7caa9;}.ad{fill:#0aafe2;opacity:0.5;}.ae,.ax{fill:#fff;}.ae{opacity:0.2;}.ag{fill:#d6d6d6;}.ah{fill:#b998c1;}.ai{fill:#b8f4ef;}.aj{fill:#b491bc;}.ak{fill:#c8aece;}.al{fill:#35addb;}.am{fill:#e4875d;}.am,.an,.ao,.ap,.aq,.ar,.as,.at,.au,.av,.aw,.ax,.ay,.az,.ba,.bb,.bc,.bd,.be{fill-rule:evenodd;}.an{fill:#e0e0e0;}.ao{fill:#003e46;}.ap{fill:#dbf0f0;}.aq{fill:#242424;}.ar{fill:#995f35;}.as{fill:#ffaa83;}.at{fill:#784d27;}.au{fill:#fffefe;}.aw{fill:#65675b;}.ay{fill:#00c7b4;}.az{fill:#d60074;}.ba{fill:#3e3934;}.bc{fill:#c53300;}.bd{fill:#ff4f11;}.be{fill:#00c6b4;}.bf{fill:#87196e;}.bg{fill:#75165f;}.bh{fill:#d422a9;}.bi{fill:#fc3acd;}.bj{fill:url(#d);}.bk{fill:#3d4663;}.bl{fill:#7e87a8;}.bm{opacity:0.48;mix-blend-mode:screen;fill:url(#e);}.bn{fill:#616b8c;}.bo{fill:#a4adcf;}.bp{fill:#ffcfb5;}.bq{fill:#e6edf7;}.br{fill:#f7f9fc;}.bs{fill:#005eb0;}.bt{fill:#0f98ed;}.bu{fill:#2f364d;}.bv{fill:#f4f6ff;}.bw{clip-path:url(#f);}.bx{opacity:0.39;}.by{clip-path:url(#h);}.bz{fill:#a7bcf5;}.ca{fill:#95c1f5;}.cb{fill:#cfe4fa;}.cc{fill:#b0cff5;}.cd{fill:#b4d3fa;}.ce{fill:#4c89d4;}.cf,.cj{stroke:#fff;stroke-linecap:round;stroke-linejoin:round;}.cf{stroke-width:0.9px;}.cg{fill:#1d50cf;}.ch{fill:#86baf7;}.ci{fill:#97cbff;}.cj{stroke-width:1.013px;}</style><clipPath id="a"><rect class="a" width="171.751" height="209.919"/></clipPath><clipPath id="b"><rect class="b" width="171.751" height="209.919"/></clipPath><clipPath id="c"><rect class="a" width="55.356" height="70.016"/></clipPath><linearGradient id="d" x1="0.545" y1="0.796" x2="1.233" y2="0.072" gradientUnits="objectBoundingBox"><stop offset="0.145" stop-color="#3d4663"/><stop offset="0.36" stop-color="#4c5574"/><stop offset="0.65" stop-color="#5b6585"/><stop offset="0.863" stop-color="#616b8c"/></linearGradient><linearGradient id="e" x1="16.137" y1="-0.505" x2="17.317" y2="-0.505" gradientUnits="objectBoundingBox"><stop offset="0" stop-color="#fff"/><stop offset="0.969"/></linearGradient><clipPath id="f"><rect class="a" width="159.597" height="307.681"/></clipPath><clipPath id="h"><rect class="a" width="99.736" height="43.051" transform="translate(31.176 262.325)"/></clipPath></defs><g transform="translate(-197.513 -1253)"><g transform="translate(451.107 1362.84)"><g class="c"><g class="d"><path class="e" d="M142.51,201c-.1.312-9.459,33.156-9.564,33.365-1.662,6.963-2.6,9.874-8,12.992-13.02,7.568-35.376,3.271-38.041-7.38-.1-.311-11.227-39.393-11.33-39.7-1.975-6.132,1.248-12.785,9.564-17.566C107.9,169.617,149,180.036,142.51,201" transform="translate(-17.492 -41.258)"/><g class="f" transform="translate(70.348 139.902)"><g class="g"><path class="e" d="M146.411,202.288c-.1.3-9.452,33.152-9.565,33.366-1.654,6.954-2.6,9.869-8,12.986-12.041,7-32.061,3.859-37.1-5.087,8.2,2.9,19.535,2.8,27.537-1.879,5.412-3.117,6.347-6.02,8.012-12.986.1-.215,9.453-33.051,9.554-33.366a13.282,13.282,0,0,0-2.476-12.874c9.138,4.13,14.765,11.062,12.041,19.839" transform="translate(-91.743 -182.449)"/></g></g><path class="h" d="M85.1,182.659c-13.37,7.719-13.44,20.234-.157,27.952s34.884,7.717,48.253,0,13.441-20.229.157-27.948-34.887-7.719-48.253,0" transform="translate(-17.495 -41.246)"/><path class="i" d="M140.816,198.2a8.477,8.477,0,0,1-.475,1.805c-4.465,12.589-34.343,17.908-51.918,8.456-4.464-2.376-7.22-5.321-8.36-8.36-1.9-5.177.9-10.783,8.455-14.773,20.188-10.734,54.625-2.28,52.3,12.872" transform="translate(-18.537 -42.093)"/><path class="j" d="M140.515,201.916C136.05,214.5,106.173,219.823,88.6,210.37c-4.464-2.375-7.22-5.32-8.36-8.36,1.092-3.087,3.943-6.081,8.455-8.5,17.813-9.452,47.358-4.085,51.823,8.408" transform="translate(-18.711 -44.004)"/><path class="k" d="M106.209,190.867c-2.807-2.994-18.718-25.643-28.451-42.3S59.04,124.419,59.04,124.419l-1.684,1.5s17.968,24.894,21.712,31.82,21.151,30.884,21.713,32.194,5.428.936,5.428.936" transform="translate(-13.375 -29.014)"/><path class="l" d="M61.021,113.1c2.849-3.52,12.293,4.811,15.854,7.131-1.456-9.169-10.546-16.407-11.736-17.426-15.536-13.289-27.515,1.31-27.515,1.31a16.311,16.311,0,0,0-7.113-8.237c-8.105-4.326-17.134,1.24-18.531,2.1a20.63,20.63,0,0,0-2.014,1.408c5.724-.349,14.18-.374,13.806,2.482-.393,3.01-12.14,3.642-18.654,2.786C.132,112.107,0,120.962,0,121.524a32.388,32.388,0,0,0,.678,6.622A23.389,23.389,0,0,0,5.616,126.2c11.6-5.8,20.776-10.482,11.418,0-6.394,7.162-9.467,12.141-12.267,13.08a34.255,34.255,0,0,0,4.967,6.948c2.448,2.621,6.858,6.394,8.236,12.915a19.512,19.512,0,0,1,.374,5.24c13.848-10.3,15.431-11.418,18.343-12.914,4.972-2.557,5.417-1.894,12.59-4.548a32.362,32.362,0,0,1-.423-13.421c1.434-6.814,9.741,3.036,10.1,9.471,6-2.678,8.542-4.425,10.859-6.664,2.591-2.5,5.81-5.612,6.892-10.4a14.76,14.76,0,0,0,.318-2.137c-5.713-1.329-18.673-7.379-16.007-10.669M36.5,145.856c-2.433-1.31-.434-10.04.561-11.6,1.31-2.059,1.872,12.915-.561,11.6" transform="translate(0 -21.979)"/><path class="b" d="M96.945,26.2a47.438,47.438,0,0,0-12.5-11.516q-.1,1.458-.194,2.917A60.47,60.47,0,0,1,98.839,36.072c10.238,20.353.886,32.709,2.626,73.7.916,21.588,4.764,47.738,4.764,47.739a3.682,3.682,0,0,0,3.111-.292c2.218-1.728.215-7.495-.972-11.862-1.886-6.935-1.758-14.267-2.722-21.39-.64-4.721-1.594-9.727-1.166-30.335.407-19.672,8.406-46.153-7.534-67.432" transform="translate(-19.648 -3.424)"/><path class="k" d="M123.159,181.884c3.074-33.593,7.5-58.312,11.39-65.808,3.79-7.3,9.852-9.491,17.3-7.594-14.581,2.645-17.957,13.108-24.89,72.98Z" transform="translate(-28.721 -25.147)"/><path class="b" d="M122.251,159.212c-8.593-42.355-3.568-72.474,2.843-92.4,4.99-15.508,14.111-35.08,13.417-35.391-.6-.267-7.737,14.075-10.7,20.612-7.546,16.677-18.592,50.429-10.944,106.549,0,0,1.9,13.6,5.378.633" transform="translate(-26.652 -7.326)"/><path class="k" d="M127.808,202.982c-1.061,7.576-19.821,7.6-20.873-.035,1.049-7.577,19.818-7.617,20.873.035" transform="translate(-24.937 -45.999)"/><path class="l" d="M192,117.742c-3.788-4.595,1.89-.271-12.438-5.677s-20.277-4.055-17.572-7.839,14.328,1.08,14.328,1.08L192,112.876s-2.977-9.462-13.789-17.033-4.055-5.138-20.82-6.489-13.788-2.973-17.843,3.783-2.162,10.005-7.028,8.112c0,0-2.973-24.873-19.738-21.089s-13.789,6.221-11.623,14.6a17.042,17.042,0,0,0,2.43,5.965c1.066-1.33,2.352-4.587,10-2.178,9.465,2.973,6.489,2.7-1.623,5.134-13.448,4.036,1.623,18.333,1.623,19.467,0,.811,5.677-11.355,11.355-11.355s7.844,1.353.811,8.11-14.328,3.516-4.595,17.843c22.11,32.558,2.884-.162,9.733-10.811,4.867-7.571,8.11-14.6,7.3-4.867-2.415,28.984-3.388,30.979,16.014,37.2,2.49.8,5.6,1.529,7.163,4.262,1.751,3.052.4,6.292,2.228,7.662.7.528,2,.435,4.606-.46,9.461-3.244,10.544-10.816,15.949-17.033s-7.568-10.816-10-17.032-6.489-4.056-10-11.627-4.327-13.249,4.866-8.111,16.762,7.028,19.466,12.166,1.351,7.84,4.327,11.9,2.972-18.655-.811-23.251M164.42,140.724c-3.516-1.355-8.383-13.249-8.383-13.249,5.406-.811,11.895,14.6,8.383,13.249" transform="translate(-23.194 -18.602)"/><path class="k" d="M144.5,17.838c5.518-3.943,12.572-1.608,16.209-.4.88.292,15.948,5.47,16.917,15.167.6,6.025-4.674,9.436-3.984,18.951.074,1.021.324,3.446-.216,3.514-.37.047-2.205-12.336-16.927-13.229-18.857-1.143-20,10.286-30.857-1.715-1.044-1.153-3.257-4.161-2.824-6.894.643-4.058,7.294-7.566,16.538-7.392a14.061,14.061,0,0,1,5.143-8" transform="translate(-28.629 -3.648)"/><path class="b" d="M67.057,12.23c1.31-1.123,7.695-9.251,15.556-2.139S78.8,34.662,74.872,37.658,75.06,22.683,70.942,22.5s2.621,13.289-2.621,21.9A30.411,30.411,0,0,1,55.031,56.188S64.578,40.652,61.4,35.6s-3.182-8.985-5.054-2.059S54.1,51.134,47.731,55.065s-8.423,3-8.423,3C48.855,50.1,49.27,41.941,48.1,41.215c-.771-.478-2.553,1.44-4.113,3.18-8.3,9.265-9,12.705-13.683,15.671-3.726,2.362-8.961,3.783-10.476,2.038-1.447-1.666.83-5.842,1.725-7.483,2.949-5.4,6.37-6.836,13.612-14.2C38.14,37.4,40.6,34.882,40.115,34.2c-.594-.835-6.327.343-9.978,4.2-6.552,6.925-12.729,20.214-15.349,16.845a18.056,18.056,0,0,1-1.5-18.718A25.847,25.847,0,0,1,35.565,23.058c9.359,0,19.841-2.621,13.289-3.744s-18.156,1.5-24.52,4.493-6.364-3.37-1.685-7.488,10.857-1.5,22.275-3.181,16.659-4.493,4.118-4.306S30.324,10.891,32.2,8.271c3.178-4.449,27.741-13.486,33.88-4.3.913,1.366,1.887,3.835.982,8.265" transform="translate(-2.645 0)"/></g></g></g><g transform="translate(-760.945 -354.484)"><g transform="translate(1472.946 1700.358)"><g transform="translate(13 239.075)"><path class="m" d="M1559.244,3255.321a11.816,11.816,0,0,1,7.445-3.947c4.775-.355,8.345,3.2,12.386,7.231,1.331,1.327.236.446,8.021,11.907,1.444,2.126,2.728,3.99,2.2,6.067-.511,2.016-2.463,3.188-3.59,3.736h0a10.61,10.61,0,0,1-9.459-2.426l-17.853-15.952a4.433,4.433,0,0,1,.848-6.615Z" transform="translate(-1557.284 -3251.35)"/></g><g transform="translate(36.36 227.75)"><path class="m" d="M1709.795,3184.52a11.811,11.811,0,0,1,5.9-6.011c4.445-1.781,8.924.533,13.992,3.152,1.669.862.36.353,11.243,8.928,2.019,1.591,3.806,2.98,3.931,5.119.122,2.076-1.385,3.782-2.294,4.645h0a10.61,10.61,0,0,1-9.75.544l-21.837-9.816a4.433,4.433,0,0,1-1.189-6.562Z" transform="translate(-1708.832 -3177.882)"/></g><path class="n" d="M1725,2507.183l-28.409,11.829q3.357,47.64,6.713,95.281a7.259,7.259,0,0,0,7.519,6.787l.14-.006a7.28,7.28,0,0,0,6.923-7.225Q1721.439,2560.515,1725,2507.183Z" transform="translate(-1662.115 -2382.817)"/><path class="n" d="M1581.66,2573.793l-28.318,11.419q2.621,47.684,5.243,95.367a7.215,7.215,0,0,0,7.349,6.894l.139,0a7.252,7.252,0,0,0,6.965-7.125Q1577.349,2627.069,1581.66,2573.793Z" transform="translate(-1540.95 -2439.159)"/><g transform="translate(44.422 43.323)"><path class="o" d="M1913.638,2522.407a26.4,26.4,0,0,1,4.118,3.514c1.622,1.7,1.225,1.741,2.136,2.507,3.041,2.553,7.043,1.752,7.948,3.859a4.345,4.345,0,0,0,.456.932,3.822,3.822,0,0,0,2.1,1.667,3.982,3.982,0,0,0,3.9-1.573,5.973,5.973,0,0,0,1.4-2.823,6.185,6.185,0,0,0-.237-3.062c-.013-.043-.032-.106-.057-.185a9.613,9.613,0,0,0-3.692-4.629c-2.26-1.4-3.465-.351-6.674-1.222a13.727,13.727,0,0,1-5.417-2.972Z" transform="translate(-1890.13 -2435.644)"/><path class="p" d="M1769,1987.985c-.314.638-.6,1.278-.856,1.893-10.066,24.045-6.343,40.845-6.343,40.845a57.971,57.971,0,0,0,25.249,40.665,6.788,6.788,0,0,0,4.654-2.833,6.5,6.5,0,0,0,1.051-3.814c-7.663-7.149-10.636-13.878-11.969-18.418-3.786-12.9-1.641-34.479,3.114-48.048.573-1.634,2.391-6.594.317-11.182-1.119-2.475-3.717-5.606-7.025-5.675C1772.64,1981.324,1769.452,1987.076,1769,1987.985Z" transform="translate(-1761.132 -1981.417)"/></g><path class="q" d="M1572.231,2033.349c-.565,8.071-.847,12.106-1.643,14.718-3.321,10.9-13.573,16.717-18.231,19.37-5.21,2.968-18.121,10.321-29.772,4.9a22.372,22.372,0,0,1-7.829-6.2,26.7,26.7,0,0,1-1.465-7.65c-.143-3.663.572-5.828.977-13.347.047-.876.1-1.779.063-2.962a55.768,55.768,0,0,0-.846-7.011c-.94-6.393-1.643-17.554-.431-38.413a28.891,28.891,0,0,1,4.372-13.526,23.873,23.873,0,0,1,8.2-8.259c.458-.265.786-.459,1.045-.6,9.946-5.493,14.543-10.326,23.241-13.057a25.556,25.556,0,0,1,8.395-1.37c2.152.046,6.137.132,9.185,2.427,3.378,2.545,4.248,6.775,4.721,10.011,2.881,19.739-4.385,34.552-1.281,45.017a35.6,35.6,0,0,1,1.658,9.725A54.073,54.073,0,0,1,1572.231,2033.349Z" transform="translate(-1506.327 -1919.922)"/><g transform="translate(0 59.406)"><path class="o" d="M1633.485,2624.377a26.4,26.4,0,0,1,4.211,3.4c1.667,1.657,1.271,1.708,2.2,2.449,3.108,2.472,7.087,1.564,8.047,3.646a4.354,4.354,0,0,0,.48.919,3.823,3.823,0,0,0,2.141,1.611,3.983,3.983,0,0,0,3.855-1.677,5.979,5.979,0,0,0,1.324-2.859,6.185,6.185,0,0,0-.319-3.054c-.014-.043-.034-.105-.062-.184a9.611,9.611,0,0,0-3.814-4.529c-2.3-1.338-3.473-.259-6.7-1.043a13.729,13.729,0,0,1-5.495-2.827Z" transform="translate(-1608.739 -2537.844)"/><path class="p" d="M1479.921,2092.535c-.3.647-.564,1.293-.805,1.915-9.42,24.3-5.25,41-5.25,41a57.972,57.972,0,0,0,26.325,39.976,6.785,6.785,0,0,0,4.576-2.956,6.5,6.5,0,0,0,.949-3.841c-7.852-6.942-11-13.589-12.457-18.091-4.5-13.956-2.152-36.622,1.83-48.114a14.543,14.543,0,0,0,.531-8.625c-.918-3.334-3.768-8.031-7.687-8.046C1483.891,2085.736,1481.481,2089.14,1479.921,2092.535Z" transform="translate(-1472.946 -2085.752)"/></g><path class="p" d="M1638.958,1989.39a42.263,42.263,0,0,1-.832,6.077c-.073.341-.147.676-.226,1q-.212.893-.446,1.717c-.664-.165-1.409-.367-2.219-.617q-.424-.13-.869-.28a37.415,37.415,0,0,1-15.593-9.806,35.546,35.546,0,0,1-4.607-6.126l21.108-12.188A43.651,43.651,0,0,1,1638.958,1989.39Z" transform="translate(-1592.398 -1927.734)"/><path class="o" d="M1642.15,1928.212l-2,1.153q-.417-2.695-.833-5.389a5.831,5.831,0,0,0-4.943-4.882h0a5.831,5.831,0,0,0-6.651,5.773v11.673l-2.464,1.346a54.924,54.924,0,0,0,8.928,6.522c4.251,2.491,7.281,4.267,9.135,3.1,1.921-1.207,1.593-4.947,1.241-8.966A37.61,37.61,0,0,0,1642.15,1928.212Z" transform="translate(-1601.784 -1885.327)"/><path class="o" d="M1599.557,1722.713c9.737,5.622,5.253,15,5.221,26.187s-6.363,17.132-17.457,10.546c-9.67-5.74-17.606-19.251-17.574-30.441s6.612-17.654,16.35-12.031" transform="translate(-1554.825 -1712.664)"/><path class="r" d="M1585.323,1709.46c-3.756-1.4-3.974-4.355-8.269-6.863a17.677,17.677,0,0,0-9.409-2.22,16.229,16.229,0,0,0-14.234,7.016,15.667,15.667,0,0,0-1.646,2.709c-2.688,5.634-1.2,11.129-.245,14.684a31.716,31.716,0,0,0,4.129,8.857c2.718,4.453,6.5,8.919,7.537,8.356.716-.388-.8-2.661.163-6.2a10.5,10.5,0,0,0,.686-3.342c0-.542-.058-.6-.2-2.532-.13-1.826-.114-2.242.163-2.692a2.259,2.259,0,0,1,1.632-1.06c.643-.061.824.285,1.387.326,1.241.092,2.337-1.44,2.964-2.317,1.22-1.705,1.021-2.587,2.15-3.312a5.513,5.513,0,0,1,2.079-.669c3.971-.683,9.763-.178,12.208-.557,6.417-.995,11.088-9.163,9.9-10.858C1595.318,1707.347,1590.671,1711.449,1585.323,1709.46Z" transform="translate(-1538.324 -1700.358)"/><path class="s" d="M1747.774,2120.666c-.073.341-.147.676-.226,1q-.212.893-.446,1.717c-.664-.166-1.409-.367-2.219-.617q-.424-.13-.869-.28l-.219-4.318s.347-1.625.85-.706A27.512,27.512,0,0,0,1747.774,2120.666Z" transform="translate(-1702.046 -2052.932)"/><path class="t" d="M1735.777,2103.99c-.25.657-.47,1.242-.653,1.737-.48,1.292-.526,1.453-.439,1.612.453.826,3.769.281,3.918-.628.058-.354-.486-.819-1.575-1.747C1736.543,2104.551,1736.11,2104.226,1735.777,2103.99Z" transform="translate(-1694.309 -2041.773)"/><g transform="translate(22.88 26.284)"><path class="p" d="M1628.727,1890.9a20.184,20.184,0,0,1-6.426-9.612c-.512-1.729-2.072-6.991.6-9.416a3.5,3.5,0,0,1,2.672-.979c2.3.311,3.98,3.714,4.175,8.467l-1.512.062c-.178-4.338-1.609-6.86-2.866-7.03a2.058,2.058,0,0,0-1.451.6c-1.306,1.185-1.361,3.831-.166,7.865a18.7,18.7,0,0,0,5.961,8.894Z" transform="translate(-1621.381 -1870.874)"/><path class="u" d="M1661.457,1905.556a69.371,69.371,0,0,0,21.41-3.211c.309.946,2.922,9.371-2.026,15.331a11.915,11.915,0,0,1-4.519,3.386c-7.309,2.982-14.9-3.4-15.267-3.714a26.545,26.545,0,0,1,.4-11.792Z" transform="translate(-1654.536 -1897.493)"/></g></g><g transform="translate(1543.458 1740.686)"><path class="v" d="M1997.438,2120.642a32.9,32.9,0,0,0-4.9-4.641c-2.323-1.787-2.322-1.29-3.391-2.318-3.568-3.432-3.1-8.5-5.836-9.343a5.421,5.421,0,0,1-1.215-.442,4.762,4.762,0,0,1-2.344-2.379,4.966,4.966,0,0,1,1.436-5.042,7.455,7.455,0,0,1,3.315-2.109,7.707,7.707,0,0,1,3.827-.11c.056.01.136.025.237.046a11.981,11.981,0,0,1,6.228,3.966c2.033,2.617.894,4.25,2.4,8.113a17.119,17.119,0,0,0,4.4,6.324Z" transform="translate(-1971.947 -2073.706)"/><g transform="translate(18.564 37.005)"><path class="w" d="M2126.826,2256.95a19.012,19.012,0,0,1-2.139-.913c-5.135-2.544-14.839-2.333-22.769-3.558a86.839,86.839,0,0,1-19.75-5.923h0A62.14,62.14,0,0,1,2063.7,2230.9a80.822,80.822,0,0,1-12.179-21.387,4.139,4.139,0,0,1-.542-3.247,3.525,3.525,0,0,1,.644-1.156c.365-.458,1.226-1.373,4.923-2.446,2.745-.8,3.583-.674,4.236-.4a3.819,3.819,0,0,1,1.151.751c.293.448.741,1.126,1.3,1.943,1.483,2.178,8,11.758,13.306,16.532,10.849,9.767,27.867,9.562,30.484,9.494,3.527-.092,8.272-.65,14.787.968,3.8.943,6.976,1.733,9.779,4.233,7.134,6.364,7.177,19.662,3.355,21.719C2132.761,2259.073,2127.951,2257.352,2126.826,2256.95Z" transform="translate(-2050.829 -2202.058)"/></g><g transform="translate(72.063 240.495)"><path class="x" d="M2431.364,3556.513a24.368,24.368,0,0,1-3.554-3.465,25.462,25.462,0,0,1-3.8-6.176l-16.708-15.445a5.55,5.55,0,0,0-9.226,3.228c-.92,4.55,2.013,10.086,2.984,11.443,1.157,1.618,1.524,1.551,5.233,5.933,2.2,2.6,2.419,3.034,3.572,4.337a39.572,39.572,0,0,0,7.655,6.634,8.173,8.173,0,0,0,13.845-6.49Z" transform="translate(-2397.899 -3528.753)"/><path class="v" d="M2429.952,3555.676a9.056,9.056,0,0,0,3.178-3.948,8.82,8.82,0,0,0,.644-3.031c.709-4.724-.341-7.193-1.526-8.585-1.418-1.665-4.883-3.965-6.862-5.98a7.548,7.548,0,0,0-.693-.658c-.938-.776-2.245-1.291-12.88-8.627-2.424-1.672-4.549-3.158-6.879-2.491-2.261.648-3.544,2.99-4.139,4.34a13.081,13.081,0,0,0,2.917,11.187l14.91,15.855a11.8,11.8,0,0,0,7.5,2.7A11,11,0,0,0,2429.952,3555.676Z" transform="translate(-2400.126 -3522.192)"/></g><path class="y" d="M2434.309,2946.551a16.712,16.712,0,0,1-2.983,3.759,11.164,11.164,0,0,1-3.143,2.032,8.246,8.246,0,0,1-4.609.572,9.3,9.3,0,0,1-4.972-3.688c-6.8-8.954-11.534-48.4-12.846-60.462-.2-1.851-.324-3.057-.359-3.408-1.072-10.674-2.509-22.993-1.784-37.276.2-3.982.57-8.118,1.163-12.412.193-1.4.412-2.845.7-4.271.843-4.152,2.274-8.195,5.36-10.935,7.325-6.5,18.4-.719,20.146.227.484,4.147,1.027,9.525,1.433,15.888.308,4.807.536,10.179.6,16.007.28,24.456-2.666,24.071-1.776,40.013C2432.179,2909.371,2437.205,2941.467,2434.309,2946.551Z" transform="translate(-2330.503 -2685.556)"/><g transform="translate(37.335 257.957)"><path class="x" d="M2210.508,3660.359a23.363,23.363,0,0,1-4.356-2.224,24.307,24.307,0,0,1-5.343-4.742l-20.251-9.646c-3.922-1.868-8.3,1.4-7.934,5.92a12.977,12.977,0,0,0,6.016,10.031l21.351,12.1c.5.211,4,1.629,7.163-.3C2210.38,3669.524,2211.934,3664.872,2210.508,3660.359Z" transform="translate(-2172.602 -3642.021)"/><path class="v" d="M2209.559,3661.055c2.119-4.271,1.648-7.293,1.362-8.5,0,0-1.319-5.551-12.049-11.359-1.884-1.02-.56-.1-15.55-4.715-2.781-.855-5.225-1.625-7.269-.271-1.985,1.314-2.564,3.949-2.761,5.423a12.687,12.687,0,0,0,5.881,9.807l18.644,10.59c.281.241,4.008,3.332,8.159,1.8A7.913,7.913,0,0,0,2209.559,3661.055Z" transform="translate(-2173.186 -3635.478)"/></g><path class="p" d="M2274.689,2912.309a61.722,61.722,0,0,1-.7,16.983c-1.114,5.6-2.632,8.259-4.158,16.187-.29,1.5-1,5.428-1.143,6.163a79.468,79.468,0,0,0-1.922,16.429c-.38,16.805,2.116,49.337-1.165,54.064a15.8,15.8,0,0,1-3.262,3.4,10.719,10.719,0,0,1-3.288,1.662,8.216,8.216,0,0,1-4.635.037,9.8,9.8,0,0,1-4.66-4.246c-7-11.184-8.1-62.443-8.156-65.1-.3-13.743-.981-30.242,3.262-49.536.252-1.146.524-2.315.841-3.476,1.163-4.283,2.911-8.452,6.382-10.96,5.406-3.9,12.145-1.721,16.325.365a31.409,31.409,0,0,1,3.714,2.183A81.187,81.187,0,0,1,2274.689,2912.309Z" transform="translate(-2193.436 -2748.434)"/><path class="z" d="M2308.15,2878.813c-8.177,7.258-16.548,10.414-24.266,11.271a41.65,41.65,0,0,1-6.1.232,51.888,51.888,0,0,1-21.969-6.088c1.226-4.283,3.068-8.452,6.728-10.96,5.7-3.9,12.8-1.721,17.209.365.889-4.153,2.4-8.195,5.649-10.935,7.723-6.5,19.4-.719,21.238.226C2307.15,2867.071,2307.722,2872.449,2308.15,2878.813Z" transform="translate(-2205.654 -2721.282)"/><path class="p" d="M2286.958,2430.092c-.85,25.952-3.7,23.643-1.766,31.423.681,2.733,2.049,7.1-.5,11.165-2.294,3.662-6.593,5.21-12.9,7.481-5.675,2.041-11.127,4.039-18.787,3.835a42.914,42.914,0,0,1-17.884-4.412,44.055,44.055,0,0,1-2.488-7.864c-1.676-7.795-.107-11.173-.227-20.91a109.6,109.6,0,0,0-1.585-16.5c-1.179-7.4-2.534-9.882-2.263-15.73.153-3.366.372-7.137,2.715-11.319,2.228-3.973,5.192-6.215,9.27-9.231.271-.2,1.393-1.018,3.222-2.135a67.125,67.125,0,0,1,23.046-8.775c.27-.046.541-.089.814-.13a13.487,13.487,0,0,1,6.43.322c4,1.319,6.144,4.611,7.471,7.29C2287.583,2406.846,2287.045,2427.424,2286.958,2430.092Z" transform="translate(-2182.569 -2321.28)"/><path class="v" d="M1994.338,3083.125a32.928,32.928,0,0,0-5.632,3.721c-2.266,1.857-1.782,1.968-3.027,2.776-4.152,2.7-8.982,1.1-10.423,3.565a5.421,5.421,0,0,1-.706,1.083,4.766,4.766,0,0,1-2.849,1.744,4.965,4.965,0,0,1-4.585-2.542,7.448,7.448,0,0,1-1.3-3.707,7.711,7.711,0,0,1,.76-3.752c.023-.052.055-.126.1-.22a11.984,11.984,0,0,1,5.275-5.167c3.009-1.386,4.342.094,8.445-.495a17.124,17.124,0,0,0,7.157-2.853Z" transform="translate(-1960.342 -2905.364)"/><g transform="translate(24.014 88.66)"><path class="aa" d="M2125.871,2545.585c.208.721.385,1.436.54,2.122,6.014,26.806-.945,43.553-.945,43.553a62.174,62.174,0,0,1-11.719,21.186,80.825,80.825,0,0,1-18.579,16.142,4.14,4.14,0,0,1-3.077,1.169,3.521,3.521,0,0,1-1.26-.4c-.522-.268-1.587-.932-3.366-4.346-1.32-2.535-1.364-3.381-1.227-4.074a3.83,3.83,0,0,1,.51-1.276c.366-.364.946-.942,1.65-1.654,6.163-6.23,12.121-12.867,13.914-15.187,9.4-12.161,6.111-37.324,4.593-48.734a16.347,16.347,0,0,1,1.276-9.441c1.753-3.568,5.983-8.2,10.4-7.382C2123.125,2538.1,2125.482,2544.244,2125.871,2545.585Z" transform="translate(-2086.185 -2537.167)"/></g><path class="ab" d="M2345.7,2340.974l-2.1,1.214-.878-5.68a6.146,6.146,0,0,0-5.209-5.145h0a6.146,6.146,0,0,0-7.009,6.084v12.3l-2.6,1.418c6.063,4.537,13.564,3.634,16.735-.453C2347.573,2346.933,2345.9,2341.576,2345.7,2340.974Z" transform="translate(-2266.63 -2274.374)"/><path class="z" d="M2342.084,2388.747c-.549,2.955-2.86,4.914-4.593,6.379l-.143.119a21.383,21.383,0,0,1-8.787,3.963c-4.94.935-13.141.537-14.033-2.552-.2-.707-.172-2.063,2.174-4.424a67.114,67.114,0,0,1,23.046-8.775c.27-.046.541-.089.814-.13C2341.592,2384.968,2342.513,2386.438,2342.084,2388.747Z" transform="translate(-2255.25 -2318.381)"/><path class="p" d="M1972.913,2075.908" transform="translate(-1966.359 -2058.348)"/><g transform="translate(42.948 20.16)"><path class="ac" d="M2231.367,2096.29a18.435,18.435,0,0,0-5.543,3.82c-6.693,6.777-5.785,17.054-5.008,25.865.649,7.346,1.07,11.406,4.418,14.161,4.006,3.3,9.52,2.52,11.708,2.211,11.037-1.555,17.715-11.372,22.131-17.864,3.3-4.845,5.642-8.4,5.788-13.671.042-1.518.242-8.689-5.374-13.778a17.17,17.17,0,0,0-10.944-4.262" transform="translate(-2218.546 -2092.773)"/><path class="u" d="M2232.862,2281.877a72.933,72.933,0,0,1-22.506-3.376c-.325.995-3.072,9.851,2.13,16.116a12.53,12.53,0,0,0,4.75,3.56c7.684,3.135,15.664-3.572,16.049-3.9a27.9,27.9,0,0,0-.422-12.4Z" transform="translate(-2209.292 -2249.872)"/><path class="ad" d="M2218.46,2209.053a2.124,2.124,0,0,1-1.24,1.1,6.212,6.212,0,0,1-3.924-.439,20.282,20.282,0,0,1-2.378-1.079c-1.12-.592-1.9-1.11-1.9-1.11l.275-2.9.314-3.277.431-4.539a8.17,8.17,0,0,1,1.345-1.211,2.746,2.746,0,0,1,1.462-.574,1.009,1.009,0,0,1,.552.329,0,0,0,0,1,0,0c1.421,1.332,4.355,6.392,5.169,10.247v0A5.5,5.5,0,0,1,2218.46,2209.053Z" transform="translate(-2209.019 -2179.26)"/><path class="ae" d="M2214.807,2244.421a20.378,20.378,0,0,1-2.378-1.079l-1.623-4.011.314-3.276Z" transform="translate(-2210.531 -2213.969)"/><path class="ae" d="M2231.438,2209.053a2.124,2.124,0,0,1-1.24,1.1c-1.095-2.769-3.863-9.74-5.835-14.556a2.745,2.745,0,0,1,1.462-.574,1.008,1.008,0,0,1,.551.329,0,0,0,0,1,0,0c1.564,3.118,3.616,7.193,5.17,10.247v0A5.5,5.5,0,0,1,2231.438,2209.053Z" transform="translate(-2221.998 -2179.26)"/></g><path class="p" d="M2215.619,2105.417c.124,2.826,3.134,3,5.613,9.44a37.2,37.2,0,0,1,2.042,8.93c.422,3.387.743,5.09.255,6.379-1.579,4.177-6.873,4.159-6.889,6.379-.016,2.27,5.5,5.157,10.461,5.869,2.522.362,4.491.12,5.1,1.275.8,1.5-2.062,3.259-1.531,5.1.771,2.674,8.043,3.371,13.523,2.3a19.876,19.876,0,0,0,8.93-4.083c1.732-1.465,4.046-3.423,4.593-6.379.77-4.158-2.826-5.589-3.573-10.206-1.008-6.235,4.868-7.839,6.634-16.841.458-2.335,1.76-10.871-3.317-16.585-3.367-3.79-8.011-4.617-10.972-5.1C2231.78,2089.48,2215.325,2098.719,2215.619,2105.417Z" transform="translate(-2171.65 -2071.538)"/><g transform="translate(0)"><path class="p" d="M2000.539,2013.486c.4,1.729.945,4.236.98,4.4.183.844.278,1.266.332,1.548a50.466,50.466,0,0,1,.754,5.585,5.024,5.024,0,0,0,2.6-.7,5.529,5.529,0,0,0,2.178-2.821c1.82-4.474-.091-7.751,1.4-13.907.16-.661.319-1.19.419-1.508-1.195-2.6-2.064-4.162-2.564-5.171-.457-.921-.938-1.831-1.351-2.773-.21-.48-.4-.967-.566-1.465a13.759,13.759,0,0,0-.379-1.34c-1.656,1.008-3.358,1.953-5.035,2.928l-2.069,1.2a6.328,6.328,0,0,0,.349,1.451c.151.592.306,1.182.434,1.78.368,1.731.726,3.438,1.132,5.289C1999.714,2010.565,1999.742,2010.051,2000.539,2013.486Z" transform="translate(-1986.916 -1990.195)"/><g class="af" transform="translate(0.27 0.003)"><path class="p" d="M1932.143,1966.135l7.105-4.129,10.046,5.139-7.105,4.129-10.046-5.139" transform="translate(-1932.143 -1962.006)"/></g><path class="ag" d="M1946.084,2019.488a6.156,6.156,0,0,1-4.117-.11,3.868,3.868,0,0,1-.645-.326,3.985,3.985,0,0,1-1.383-3.139,19.041,19.041,0,0,0-2.706-13.839l-5.623-4.2h0l-.971-.725a37.821,37.821,0,0,1-.246-4.292,30.394,30.394,0,0,1,.27-4.062l1.437.735,8.609,4.4a35.047,35.047,0,0,1,4.76,10.724,39.224,39.224,0,0,1,.865,5.669,41.976,41.976,0,0,1,.084,4.468C1946.371,2016.667,1946.228,2018.262,1946.084,2019.488Z" transform="translate(-1930.394 -1984.663)"/><path class="ah" d="M1997.4,1999.456l7.094-4.133,4.859,10.752-7.205,4.105Z" transform="translate(-1987.068 -1990.184)"/><path class="ai" d="M2010.078,2011.434l4.891-2.85,3.35,7.413-4.968,2.831Z" transform="translate(-1997.796 -2001.401)"/><path class="aj" d="M1932.1,1989.53l-.49,8.345h0l-.971-.725a37.821,37.821,0,0,1-.246-4.292,30.394,30.394,0,0,1,.27-4.062Z" transform="translate(-1930.394 -1984.663)"/><path class="ak" d="M1933.6,1966.846l6.968-4.2-1.3-.664-7.094,4.133Z" transform="translate(-1931.899 -1961.987)"/></g><path class="al" d="M2027.316,2115.685a6.4,6.4,0,0,0-2.807-2.3c-1.578-.624-2.564-.158-3.572-1.021a2.762,2.762,0,0,1-.915-3.03c.525-1.046,2.26-1.583,3.977-.8a6.891,6.891,0,0,1,4.776,2.251,2.618,2.618,0,0,1-1.459,4.894Z" transform="translate(-2006.056 -2085.633)"/></g></g><g transform="translate(-1646.688 471.928)"><path class="am" d="M2007.927,1022.3a10.055,10.055,0,0,1-.239,2.188,65.1,65.1,0,0,1-8.355,7.4l-.08.079v-.079h-.239a43.263,43.263,0,0,1-7.121,3.3,17.2,17.2,0,0,1-3.9.875q-.279-4.575-.2-5.888a17.814,17.814,0,0,1,1.253-6.982,12.15,12.15,0,0,0,2.088.975,9.97,9.97,0,0,0,3.064.318,9,9,0,0,0,4.257-1.711q1.513-1.153,2.944-2.467a7.8,7.8,0,0,0,.8-.836,4.824,4.824,0,0,0,.677-1.512,20.313,20.313,0,0,0,.637-4.774q.43-.508.756-.835l.159-.159,1.552-1.273a3.049,3.049,0,0,1,2.865.079,2.869,2.869,0,0,1,.6,3.422l-.079.179a3.661,3.661,0,0,1-.677.9q-.239.278-.677.756-1.035.876-3.381,2.546a17.745,17.745,0,0,0,3.62,1.989l-.318,1.194Z" transform="translate(-29.332 -22.952)"/><path class="an" d="M1963.9,1006.518c0,.074,0,.146,0,.219,0,.047,0,.093,0,.139q-8.279,4.923-9.668,16.77-1.552-.677-3.143-1.273-2.228-.835-4.5-1.75a16.82,16.82,0,0,1-4.019-1.87,61.243,61.243,0,0,0-5.928-3.262,24.219,24.219,0,0,1-5.689-4.376,57.964,57.964,0,0,1-6.525-7.758,40.849,40.849,0,0,0-5.45-6.6,43.728,43.728,0,0,1-6.008-7.8,51.224,51.224,0,0,1-4.337-7.639,36.606,36.606,0,0,0-1.79-3.2l8.991-.219,1.452-5.093q1.216,1.544,2.566,2.984a91.262,91.262,0,0,0,6.923,7.042q3.58,3.3,6.883,6.724,2.745,2.865,5.45,5.849a19,19,0,0,0,2.706,2.387q3.5,2.507,7.321,4.894a16.067,16.067,0,0,0,3.62,1.87,34.075,34.075,0,0,0,8.832,1.711Z" transform="translate(-12.799 -15.23)"/><path class="an" d="M1994.413,1070.142q-4.974-4.933-8.713-8.991a24.879,24.879,0,0,0,4.5-5.689q.6-.876,1.114-1.711,3.9-6.127,4.734-6.8a118.364,118.364,0,0,0,10.026-7.281q4.5-3.9,4.5-8a8.35,8.35,0,0,0-.955-3.382.712.712,0,0,0-.239-.358.07.07,0,0,1,.08-.079,11.715,11.715,0,0,1,.955,1.472q.6,1.154,2.029,4.376a24.714,24.714,0,0,0,2.188,1.631q-.517,2.466-1.711,6.8a71.775,71.775,0,0,1-2.347,7.957l-7.2.159a13.308,13.308,0,0,0,.995,3.74,15.837,15.837,0,0,1,.955,3.223q0,.04-5.53,5.968Q1997,1066.482,1994.413,1070.142Z" transform="translate(-28.907 -26.477)"/><path class="an" d="M1948.55,1158.147a.324.324,0,0,0,.079-.239l.875-2.984q.159-.438.318-.955,2.148-4.893,4.018-10.185.916-2.427,1.671-4.894.517-1.711,1.034-3.422.517-1.87,1.074-3.819h.04q.478.278.835.517,3.581,2.467,3.581,4.1-7.241,23.911-8.952,23.911a7.119,7.119,0,0,1-2.109-.756Q1950.021,1158.9,1948.55,1158.147Z" transform="translate(-21.318 -47.682)"/><path class="an" d="M1983.249,1095.031q-1.631,3.978-4.177,11.816a64.565,64.565,0,0,1-3.461,9.389q-.358.8-.676.8h-.2q-.239-4.018-.318-7.718a14.7,14.7,0,0,0-.159-2.069q-.079-1.949-.279-3.9-.159-1.115-.239-2.347a10.615,10.615,0,0,1-.239-2.228,92.725,92.725,0,0,1,.677-18.42q.916,1.79,2.188,3.978.358.677,2.546,4.417Q1980.544,1090.973,1983.249,1095.031Z" transform="translate(-26.376 -37.202)"/><path class="an" d="M1970.7,1092.1q-.159,4.894.079,9.509.159,1.671.358,3.3.08,1.631.318,3.3a36.885,36.885,0,0,1,.2,3.9.612.612,0,0,1,0,.438q-.2-1.631-.358-3.223-1.193-8.752-1.193-10.941,0-1.273.358-4.5Q1970.618,1092.935,1970.7,1092.1Z" transform="translate(-25.721 -39.602)"/><path class="an" d="M1979.643,1021.29q.767.6,1.571,1.194.444.318.9.636-.3.58-.617,1.273-1.273,2.626-1.432,2.865l-.12.08-.079.04q-1.194,4.058-2.944,12.055-.955,5.013-1.393,9.151a30.126,30.126,0,0,0-3.143-6.047,3.144,3.144,0,0,0-.4-.477,19.662,19.662,0,0,1,1.631-1.79,29.054,29.054,0,0,0,2.109-2.029q-1.79-1.551-3.74-3.143a3.044,3.044,0,0,1-.955-1.353,3.266,3.266,0,0,1-.08-.716q0-.478,2.467-3.979a66.918,66.918,0,0,1,5.371-6.962.523.523,0,0,1,.239-.239q.319-.358.518-.6Z" transform="translate(-25.894 -25.128)"/><path class="an" d="M1972.3,1076.065q-.4,2.188-.6,4.416v-5.331Q1971.979,1075.627,1972.3,1076.065Z" transform="translate(-26.047 -36.139)"/><path class="an" d="M1973.378,1139.5a6.158,6.158,0,0,1-.835.835l-1.273-.318q-.119.557-.119-1.035a12.108,12.108,0,0,1,.637-2.387,20.268,20.268,0,0,1,.994-2.347Q1973.06,1136.8,1973.378,1139.5Z" transform="translate(-25.935 -48.213)"/><path class="an" d="M1974.531,1152.046a1.616,1.616,0,0,1,.08.517,2.918,2.918,0,0,1-.358,1.273q-.558,1.154-1.432,1.154a1.965,1.965,0,0,1-1.353-.4l-.358-.358a6.454,6.454,0,0,1-.159-1.949q0-2.188.677-2.785a3.3,3.3,0,0,0,1.392,1.87A3.479,3.479,0,0,0,1974.531,1152.046Z" transform="translate(-25.894 -51.329)"/><path class="an" d="M2008.514,1140.5l-2.546-.279q-2.229-.239-3.262-.318,9.627,0,12.254.239,2.864.358,2.705,1.512a16.236,16.236,0,0,1-1.353,3.422,8.991,8.991,0,0,0,.6,6.206q.677,1.353,1.273,6.6a80.624,80.624,0,0,1,.517,8.076q0,1.194-2.228,3.024-3.381,2.666-9.23,2.666-11.458,0-15.556-6.963a13.623,13.623,0,0,1-.915-1.87q-.119-.278-.278-.676a23.8,23.8,0,0,1-1.074-6.485v-2.506q.08-2.227.08-3.063a8.931,8.931,0,0,1,.318-2.069,8.771,8.771,0,0,0,.358-2.029,5.73,5.73,0,0,0-.676-2.188,5.746,5.746,0,0,1-.6-2.148,2.543,2.543,0,0,1,.159-1.154.612.612,0,0,0,.159-.279,7.894,7.894,0,0,1,1.711-.239,6.226,6.226,0,0,1,1.512.239Z" transform="translate(-29.561 -49.367)"/><path class="an" d="M1974.228,1182.887q-.279-2.865-.279-4.058a3.052,3.052,0,0,1,.08-1.035c.106.053.225,0,.358-.159q1.949-.239,2.546.517a3.6,3.6,0,0,1,.517,2.268,24.333,24.333,0,0,1-.119,2.626l-.239.2a4.165,4.165,0,0,1-1.433.159,1.889,1.889,0,0,1-1.193-.239Q1974.228,1183.046,1974.228,1182.887Z" transform="translate(-26.507 -57.065)"/><path class="an" d="M1975.375,1167.341q0,.955-.08.955,0,.08-.358.318H1973.5q-.518-.6-.8-.6a6.463,6.463,0,0,1-.159-1.95,2.712,2.712,0,0,1,.358-1.591,2.2,2.2,0,0,1,.915-.676,6.32,6.32,0,0,1,1.034,1.75A5.1,5.1,0,0,1,1975.375,1167.341Z" transform="translate(-26.221 -54.25)"/><path class="ao" d="M2026.013,1273.6a18.552,18.552,0,0,1-6.763,1.591h-.2a18.578,18.578,0,0,1-3.461-.159,17.573,17.573,0,0,1-3.223-.875v.08a3.859,3.859,0,0,1-1.87-3.461,27.4,27.4,0,0,0,0-4.257q.056-1.451.08-2.9a135.642,135.642,0,0,0-1.174-20.231,142.229,142.229,0,0,0-4.237-20.31q-2.468-5.848-4.416-11.7,10.781,3.1,23.831-.875.437,1.632.955,3.3,3.82,10.3,3.461,24.985-.162,5.752-.994,15.4-.406,4.553-.955,9.986a5.144,5.144,0,0,0-.1,1.671q.036.357.1.756.16.875.358,2.586Q2027.724,1272.286,2026.013,1273.6Z" transform="translate(-31.982 -63.791)"/><path class="ao" d="M1943.283,1241.641a1.2,1.2,0,0,0,.02-.219q.755-4.735,2.506-11.975,2.387-10.265,2.745-11.975.475-2.3.835-4.476a79.3,79.3,0,0,0,1.273-15.7q7.48,5.768,24.11,3.78-.437,4.456-.677,9.111-.16,4.933-3.143,12.373-.543,1.338-.955,2.387-1.372,3.386-1.432,3.66a40.5,40.5,0,0,0-1.791,6.127,58.6,58.6,0,0,0-.4,8.116.721.721,0,0,0,0,.08q-.3,4.718-2.546,7.241-4.416,3.9-11.06,2.785a31.535,31.535,0,0,1-11.021-4.655q-2.029-1.193-.517-3.223.875-1.194,1.353-1.79A3.589,3.589,0,0,0,1943.283,1241.641Z" transform="translate(-19.691 -61.094)"/><path class="ap" d="M1958.527,1263.27a9.706,9.706,0,0,1,.517,3.979,6.938,6.938,0,0,1-1.393,3.66,11.645,11.645,0,0,1-5.172,2.188,29.971,29.971,0,0,1-5.689.438q-4.974-.08-5.928,0a19.755,19.755,0,0,0-5.53,1.114,66.564,66.564,0,0,1-10.583,2.626q-6.365.677-10.026-2.467a4.843,4.843,0,0,1,.517-3.382,6.214,6.214,0,0,1,2.626-2.307,62.751,62.751,0,0,1,9.349-3.581,39.533,39.533,0,0,0,9.23-4.138,31.535,31.535,0,0,0,11.02,4.655Q1954.111,1267.17,1958.527,1263.27Z" transform="translate(-14.386 -74.189)"/><path class="ap" d="M2029.665,1306.152a9.918,9.918,0,0,1-4.774,6.962,21.12,21.12,0,0,1-8.315,2.825,3.049,3.049,0,0,1-2.546-.517,5.867,5.867,0,0,1-1.711-2.029q-1.114-4.535.2-11.538.836-3.82,1.233-5.729a40.031,40.031,0,0,0,.875-5.69v-.08a17.558,17.558,0,0,0,3.223.875,18.577,18.577,0,0,0,3.461.159h.2a18.551,18.551,0,0,0,6.763-1.591q.119,1.354.875,8.2A59.327,59.327,0,0,1,2029.665,1306.152Z" transform="translate(-34.241 -79.991)"/><path class="aq" d="M2012.449,1317.591a5.867,5.867,0,0,0,1.711,2.029,3.049,3.049,0,0,0,2.546.517,21.123,21.123,0,0,0,8.315-2.825,9.919,9.919,0,0,0,4.774-6.963q.835,5.013-3.859,8.315a19.439,19.439,0,0,1-9.23,3.223,3.013,3.013,0,0,1-3.143-.995A4.517,4.517,0,0,1,2012.449,1317.591Z" transform="translate(-34.371 -84.189)"/><path class="aq" d="M1957.638,1273.35q1.473,5.252-3.9,6.684a25.1,25.1,0,0,1-4.894.517q-1.711.08-4.536.159-1.273-1.591-2.268-2.785-2.984.08-10.026,2.149-6.286,1.909-10.105,1.512a14.932,14.932,0,0,1-5.093-.517q-2.865-.994-2.109-3.82,3.659,3.143,10.026,2.467a66.547,66.547,0,0,0,10.583-2.626,19.752,19.752,0,0,1,5.53-1.114q.955-.08,5.928,0a29.959,29.959,0,0,0,5.689-.438A11.645,11.645,0,0,0,1957.638,1273.35Z" transform="translate(-14.372 -76.63)"/><path class="ar" d="M2019.829,991.277a27.2,27.2,0,0,1-10.7,1.79,69.032,69.032,0,0,1-9.906-.676,1.228,1.228,0,0,0-.517-.318l-2.984-1.631a.935.935,0,0,0-.238-.159q-.438-.2-.875-.438a13.351,13.351,0,0,1-3.382-2.307,5.113,5.113,0,0,1-.836-1.074.07.07,0,0,1-.08-.08,5.831,5.831,0,0,1-.2-3.342,2.99,2.99,0,0,1,2.069-2.387,23.408,23.408,0,0,1,11.458-1.074,24.782,24.782,0,0,1,10.663,4.257A13.364,13.364,0,0,1,2019.829,991.277Z" transform="translate(-29.776 -16.56)"/><path class="as" d="M2000.19,1007.178a40.834,40.834,0,0,0-5.65-.816,10.223,10.223,0,0,1-5.649-2.546,4.351,4.351,0,0,1-1.034-1.313q-1.258-2.4-2.507-4.913c.076-.08.143-.154.2-.219a2.863,2.863,0,0,0,.756-2.785,4.768,4.768,0,0,1,.677-3.5,18.822,18.822,0,0,1,2.467-2.785,5.126,5.126,0,0,0,.835,1.074,13.367,13.367,0,0,0,3.382,2.308c.292.159.583.305.875.438a.93.93,0,0,1,.239.159l2.984,1.631a1.232,1.232,0,0,1,.517.318l.08.08h.08q.16.517.756,4.257a16.824,16.824,0,0,0,1.034,4.217v.119a3.251,3.251,0,0,1,.4,1.671l-.159,1.472a7.649,7.649,0,0,1-.239.995A1.327,1.327,0,0,1,2000.19,1007.178Z" transform="translate(-28.836 -18.397)"/><path class="as" d="M1965.8,1063.255a2.892,2.892,0,0,1-.915-.159,17.451,17.451,0,0,0-2.148-2.387q-.437-.358-1.114-.835-.6-.438-1.432-.955a10.131,10.131,0,0,1-3.621-5.252,11.289,11.289,0,0,1-.437-3.979,7.84,7.84,0,0,1,2.626-5.53q-.279-.278-3.979-4.257-3.66-3.978-.756-5.451l8.554,6.286a5.334,5.334,0,0,1,1.035.358,10.406,10.406,0,0,1,4.655,3.66,3.147,3.147,0,0,1,.4.478,30.14,30.14,0,0,1,3.143,6.047q.716,1.949,1.472,4.337a3.047,3.047,0,0,1,.159.4,11.3,11.3,0,0,1-3.143,5.013Q1968.024,1063.414,1965.8,1063.255Z" transform="translate(-22.173 -27.825)"/><path class="as" d="M1981.39,1020.83l-.1-.04a6.091,6.091,0,0,1-1.631-1.512,2.66,2.66,0,0,1-.159-.279,5.326,5.326,0,0,0,1.074,1.194Q1980.974,1020.512,1981.39,1020.83Z" transform="translate(-27.641 -24.668)"/><path class="at" d="M2001.6,995.464a69.027,69.027,0,0,0,9.906.676,27.2,27.2,0,0,0,10.7-1.79q.358,1.274.6,2.626a19.036,19.036,0,0,1-1.949,11.9,18.594,18.594,0,0,1-4.416,4.774q-1.273.914-3.461,2.467-.6.477-1.393.995-.239.159-.517.358a17.764,17.764,0,0,1-3.62-1.989q2.348-1.671,3.382-2.546a10.023,10.023,0,0,0,.756-.756,4.409,4.409,0,0,0,.6-.9l.08-.179a2.869,2.869,0,0,0-.6-3.422l-.08-.079a3.038,3.038,0,0,0-2.785,0l-1.552,1.273-.159.159c-.217.217-.47.5-.756.835q0-.257,0-.517l-1.034-.517q-.888-.232-1.79-.418a1.381,1.381,0,0,0,.04-.139,7.643,7.643,0,0,0,.239-.995l.159-1.472a3.251,3.251,0,0,0-.4-1.671v-.119a16.834,16.834,0,0,1-1.034-4.217q-.6-3.741-.756-4.257h-.08Z" transform="translate(-32.156 -19.633)"/><path class="au" d="M1980.529,1062.575q.916,1.035,1.79,2.069,3.739,4.058,8.713,8.991,2.666,2.626,5.769,5.49a16.392,16.392,0,0,0,1.631-2.427,22.267,22.267,0,0,1,1.511-2.626,4.583,4.583,0,0,1,.6-.875l9.947-18.142q5.173-9.35,11.737-10.105a29.07,29.07,0,0,1,2.865,2.109q5.093,5.013,3.9,13.328a28.519,28.519,0,0,1-5.769,13.328,37.382,37.382,0,0,0-8.753,11.617q-.516.955-2.785,4.575-1.711,2.824-2.706,4.615a17.8,17.8,0,0,1-6.644,7.042q-4.933,2.706-9.151-.159a47.917,47.917,0,0,1-8.076-9.509q-1.511-2.228-2.705-4.1-2.706-4.058-4.337-6.286-2.187-3.739-2.546-4.416-1.273-2.188-2.188-3.979a4.025,4.025,0,0,0-.278-.6,12.747,12.747,0,0,0-1.273-2.626q-.318-.437-.6-.915a5.963,5.963,0,0,0-.4-.6,18.3,18.3,0,0,1-1.631-2.984q2.228.158,4.5-2.228a11.3,11.3,0,0,0,3.143-5.013,3.042,3.042,0,0,0-.159-.4l.159-.159a10.977,10.977,0,0,1,.955,1.353q.319.477.676,1.074a.623.623,0,0,0,.159.12A30.861,30.861,0,0,0,1980.529,1062.575Z" transform="translate(-25.526 -29.97)"/><path class="av" d="M1996.65,1072.062q2.585-3.659,5.371-6.962,5.53-5.928,5.53-5.968a15.837,15.837,0,0,0-.955-3.223,13.3,13.3,0,0,1-.995-3.74l7.2-.159a71.67,71.67,0,0,0,2.348-7.957q1.193-4.336,1.711-6.8a61.628,61.628,0,0,0,5.848,3.223,54.338,54.338,0,0,1,5.132,2.9q-6.564.756-11.737,10.106l-9.947,18.142a4.584,4.584,0,0,0-.6.875,22.268,22.268,0,0,0-1.512,2.626,16.366,16.366,0,0,1-1.631,2.427Q1999.316,1074.688,1996.65,1072.062Z" transform="translate(-31.144 -28.397)"/><path class="av" d="M1985.24,1065.359q-.875-1.035-1.791-2.069a12.93,12.93,0,0,0,.995-3.1q.437-2.148.637-3.183a10.226,10.226,0,0,1,2.705-5.769q-.159-.914-.279-1.87a8.581,8.581,0,0,1,.8-.915,18.964,18.964,0,0,1,1.074,1.87,15.4,15.4,0,0,1,1.472,6.445v1.193q-.518.836-1.114,1.711A24.88,24.88,0,0,1,1985.24,1065.359Z" transform="translate(-28.448 -30.685)"/><path class="av" d="M1977.7,1092.181q1.194,1.87,2.705,4.1a47.927,47.927,0,0,0,8.076,9.509q4.217,2.865,9.151.159a17.8,17.8,0,0,0,6.644-7.042q.994-1.79,2.705-4.615,2.268-3.62,2.785-4.575a37.385,37.385,0,0,1,8.753-11.617q-7.639,15.794-6.008,40.979l10.344,58.325a79.855,79.855,0,0,1-9.429,3.66q-13.049,3.978-23.832.875a36.256,36.256,0,0,1-13.607-7.6h-.079q-16.63,1.99-24.11-3.78a14.148,14.148,0,0,1-2.029-1.95q-6.285-7.161-1.71-23.792,1.471.755,2.466,1.273a7.124,7.124,0,0,0,2.109.756q1.71,0,8.952-23.911,0-1.632-3.581-4.1-.358-.239-.835-.517h-.04a213.429,213.429,0,0,0,5.292-29.6q-.2-2.825-.756-6.206a106.589,106.589,0,0,1-1.472-15.357l.079-.756q.677.477,1.115.835a17.442,17.442,0,0,1,2.148,2.387,2.9,2.9,0,0,0,.915.159,18.258,18.258,0,0,0,1.631,2.984,5.977,5.977,0,0,1,.4.6v5.331q-.438,4.137-.677,8.156-.08.836-.239,1.79-.358,3.223-.358,4.5,0,2.188,1.194,10.941.159,1.591.358,3.223v.08q.16,6.365.915,13.01a20.342,20.342,0,0,0-.995,2.347,12.13,12.13,0,0,0-.636,2.387q0,1.591.119,1.035l1.273.318a6.158,6.158,0,0,0,.835-.835q.159.916.279,1.79c-.026,0-.026.026,0,.08l.08.08a7.146,7.146,0,0,1,1.512,0h.08a.231.231,0,0,1,.08-.159c-.053-.053-.053-.079,0-.079q-.756-7.083-1.114-13.169h.2q.319,0,.677-.8a64.635,64.635,0,0,0,3.461-9.389Q1976.065,1096.159,1977.7,1092.181Z" transform="translate(-20.823 -34.352)"/><path class="av" d="M1971.055,1040.909a10.405,10.405,0,0,0-4.655-3.66v-.955q.08-3.223,0-3.9,1.391-11.847,9.668-16.769a4.682,4.682,0,0,0,.756,2.686,2.671,2.671,0,0,0,.159.278,6.087,6.087,0,0,0,1.631,1.512q-.2.239-.517.6a.522.522,0,0,0-.239.239,66.977,66.977,0,0,0-5.371,6.962q-2.467,3.5-2.467,3.979a3.281,3.281,0,0,0,.08.716,3.044,3.044,0,0,0,.955,1.353q1.949,1.591,3.74,3.143a29.093,29.093,0,0,1-2.108,2.029A19.643,19.643,0,0,0,1971.055,1040.909Z" transform="translate(-24.964 -23.979)"/><path class="av" d="M2013.935,1025.815a4.4,4.4,0,0,0-.836-.6v-.318Q2013.538,1025.377,2013.935,1025.815Z" transform="translate(-34.505 -25.874)"/><path class="av" d="M1981.993,1045.9a47.954,47.954,0,0,0-.4,5.61,2.523,2.523,0,0,1-.04.4q-1.272,2.029-2.705,4.257.278-1.949.6-5.849.08-.836.159-1.552Q1980.561,1047.492,1981.993,1045.9Z" transform="translate(-27.508 -30.164)"/><path class="av" d="M1986.556,1045.15l.438.438q-.6-.2-1.194-.437Z" transform="translate(-28.928 -30.011)"/><path class="av" d="M1971.626,1148.406q-.677.6-.677,2.785a6.452,6.452,0,0,0,.159,1.949l.358.358a1.963,1.963,0,0,0,1.353.4q.875,0,1.432-1.154a2.92,2.92,0,0,0,.358-1.273,1.615,1.615,0,0,0-.08-.517,6.01,6.01,0,0,0,.995-.08,3.564,3.564,0,0,0,2.228-1.392,2.879,2.879,0,0,0,.517-2.467,2.979,2.979,0,0,0-1.353-2.188,2.843,2.843,0,0,0-2.546-.6,3.161,3.161,0,0,0-2.148,1.432,3.2,3.2,0,0,0-.6,2.546Z" transform="translate(-25.894 -50.235)"/><path class="av" d="M1975.375,1167.341a5.1,5.1,0,0,0-.517-1.79,6.32,6.32,0,0,0-1.034-1.75,2.2,2.2,0,0,0-.915.676,2.712,2.712,0,0,0-.358,1.591,6.463,6.463,0,0,0,.159,1.95q.278,0,.8.6h1.432q.358-.239.358-.318Q1975.374,1168.3,1975.375,1167.341Z" transform="translate(-26.221 -54.25)"/><path class="av" d="M1974.228,1182.887q0,.159.239.278a1.889,1.889,0,0,0,1.193.239,4.165,4.165,0,0,0,1.433-.159l.239-.2a24.333,24.333,0,0,0,.119-2.626,3.6,3.6,0,0,0-.517-2.268q-.6-.756-2.546-.517c-.133.159-.252.212-.358.159a3.052,3.052,0,0,0-.08,1.035Q1973.95,1180.022,1974.228,1182.887Z" transform="translate(-26.507 -57.065)"/><path class="av" d="M2008.514,1140.5l-16.073-.279a6.226,6.226,0,0,0-1.512-.239,7.894,7.894,0,0,0-1.711.239.612.612,0,0,1-.159.279,2.543,2.543,0,0,0-.159,1.154,5.746,5.746,0,0,0,.6,2.148,5.73,5.73,0,0,1,.676,2.188,8.771,8.771,0,0,1-.358,2.029,8.931,8.931,0,0,0-.318,2.069q0,.835-.08,3.063v2.506a23.8,23.8,0,0,0,1.074,6.485q.159.4.278.676a13.623,13.623,0,0,0,.915,1.87q4.1,6.962,15.556,6.963,5.848,0,9.23-2.666,2.228-1.83,2.228-3.024a80.624,80.624,0,0,0-.517-8.076q-.6-5.252-1.273-6.6a8.991,8.991,0,0,1-.6-6.206,16.236,16.236,0,0,0,1.353-3.422q.16-1.154-2.705-1.512-2.626-.239-12.254-.239,1.035.08,3.262.318Z" transform="translate(-29.561 -49.367)"/><path class="aw" d="M2010.635,1026.75q.676-.756,1.273-1.353.6-.677,1.154-1.353l-1.353-1.353q.795-.517,1.393-.995a4.313,4.313,0,0,1,1.154.08,1.46,1.46,0,0,1,.955.835,1.547,1.547,0,0,1-.2,1.353q-.994,1.273-2.188,2.626a.07.07,0,0,0-.08.079q-1.511,1.63-3.3,3.342-1.87,1.87-6.127,5.49h-.159c-.053.05-.08.05-.08,0a.07.07,0,0,1-.08-.08l-.8-1.034v-.159l.08-.079A65.085,65.085,0,0,0,2010.635,1026.75Z" transform="translate(-32.278 -25.217)"/><path class="aw" d="M1983.991,1027.738l-1.353.2h-.08c-.106-.053-.159-.092-.159-.12v-.079q.159-.239,1.432-2.865.318-.693.617-1.273.629.43,1.273.856-.95,1.74-1.572,3.123v.08l-.079.08Z" transform="translate(-28.233 -25.608)"/><path class="aw" d="M1974.691,1150.953a3.481,3.481,0,0,1-1.512-.676,3.3,3.3,0,0,1-1.392-1.87v-.2a3.2,3.2,0,0,1,.6-2.546,3.158,3.158,0,0,1,2.148-1.432,2.843,2.843,0,0,1,2.546.6,2.979,2.979,0,0,1,1.353,2.188,2.878,2.878,0,0,1-.517,2.467,3.563,3.563,0,0,1-2.228,1.392A6.009,6.009,0,0,1,1974.691,1150.953Z" transform="translate(-26.054 -50.235)"/><path class="ax" d="M1988,1026.067a17.82,17.82,0,0,0-1.253,6.982q-.08,1.313.2,5.888a14.05,14.05,0,0,1-3.938.08,13.557,13.557,0,0,1-.159-5.53q.8-3.66,1.194-5.53h.08l.08-.08v-.08q.622-1.383,1.572-3.123,1.086.7,2.208,1.372Z" transform="translate(-28.283 -25.828)"/><path class="ax" d="M1992.1,1053.771v-1.194a15.4,15.4,0,0,0-1.472-6.445,18.962,18.962,0,0,0-1.074-1.87,35.753,35.753,0,0,1,3.461-2.705q2.467-1.631,7.48-4.695l.08-.079h.159q4.258-3.62,6.127-5.49,1.79-1.71,3.3-3.342a.715.715,0,0,1,.239.358,8.352,8.352,0,0,1,.955,3.382q0,4.1-4.5,8a118.491,118.491,0,0,1-10.026,7.281Q1996,1047.644,1992.1,1053.771Z" transform="translate(-29.694 -26.497)"/><path class="ax" d="M2012.8,1027.488a10.072,10.072,0,0,0,.239-2.188,4.4,4.4,0,0,1,.835.6.607.607,0,0,1,.2.239Q2013.476,1026.732,2012.8,1027.488Z" transform="translate(-34.444 -25.955)"/><path class="ax" d="M1982.346,1044.465c-.053.291-.106.61-.159.955q-1.432,1.591-2.387,2.865a20.866,20.866,0,0,1,1.034-4.734A4.9,4.9,0,0,0,1982.346,1044.465Z" transform="translate(-27.702 -29.684)"/><path class="ax" d="M1987.188,1045.567l-.437-.437a13.013,13.013,0,0,0,1.353-.08,5.652,5.652,0,0,1-.517.6A.88.88,0,0,0,1987.188,1045.567Z" transform="translate(-29.122 -29.99)"/><path class="ay" d="M1986.129,1045.351a17.654,17.654,0,0,0-2.029,2.586q-2.626,3.979-4.814,7.719a10.9,10.9,0,0,0-.955-1.353l-.159.159q-.755-2.387-1.472-4.337.437-4.138,1.392-9.151,1.751-8,2.944-12.055l.08-.04.119-.08v.08c0,.027.053.066.159.119h.08l1.353-.2q-.4,1.87-1.194,5.53a13.553,13.553,0,0,0,.159,5.53,14.047,14.047,0,0,0,3.939-.08,17.188,17.188,0,0,0,3.9-.875,43.264,43.264,0,0,0,7.122-3.3h.239v.239l.8,1.034a.07.07,0,0,0,.08.08c0,.05.026.05.08,0l-.08.079q-5.013,3.064-7.48,4.695a35.743,35.743,0,0,0-3.461,2.705A8.542,8.542,0,0,0,1986.129,1045.351Z" transform="translate(-27.069 -26.67)"/><path class="ay" d="M1985.136,1044.823h-.756a2.6,2.6,0,0,1-.756-.079,8.1,8.1,0,0,1-1.472-.279,4.909,4.909,0,0,1-1.512-.915,20.867,20.867,0,0,0-1.034,4.734q-.08.716-.159,1.552-.319,3.9-.6,5.849,1.432-2.227,2.705-4.257,2.309-3.461,4.416-6.087a5.664,5.664,0,0,0,.517-.6A13.007,13.007,0,0,1,1985.136,1044.823Z" transform="translate(-27.508 -29.684)"/><path class="ay" d="M1970.834,1088.872q.239-4.019.676-8.156.2-2.228.6-4.416a12.738,12.738,0,0,1,1.273,2.626,4.025,4.025,0,0,1,.278.6,92.744,92.744,0,0,0-.676,18.421,10.6,10.6,0,0,0,.239,2.228q.08,1.233.239,2.347.2,1.949.279,3.9a14.745,14.745,0,0,1,.159,2.069q.08,3.7.318,7.718.358,6.087,1.114,13.169c-.053,0-.053.026,0,.079a.231.231,0,0,0-.079.159h-.08a7.146,7.146,0,0,0-1.512,0l-.08-.08q-.039-.08,0-.08-.119-.875-.278-1.79-.318-2.706-.6-5.252-.757-6.643-.915-13.01v-.08a.607.607,0,0,0,0-.438,36.82,36.82,0,0,0-.2-3.9q-.239-1.671-.318-3.3-.2-1.632-.358-3.3Q1970.674,1093.767,1970.834,1088.872Z" transform="translate(-25.857 -36.374)"/><path class="az" d="M1985.075,1045.058q.6.238,1.194.437a.881.881,0,0,1,.4.08q-2.109,2.626-4.416,6.087a2.549,2.549,0,0,0,.04-.4,48.052,48.052,0,0,1,.4-5.609c.053-.345.107-.664.159-.955a8.07,8.07,0,0,0,1.472.279A2.593,2.593,0,0,0,1985.075,1045.058Z" transform="translate(-28.203 -29.919)"/><path class="az" d="M1979.95,1059.9q2.188-3.739,4.814-7.718a17.668,17.668,0,0,1,2.029-2.586q.119.955.279,1.87a10.226,10.226,0,0,0-2.706,5.769q-.2,1.034-.636,3.183a12.939,12.939,0,0,1-.995,3.1,30.912,30.912,0,0,1-1.949-2.427.622.622,0,0,1-.159-.119Q1980.268,1060.382,1979.95,1059.9Z" transform="translate(-27.733 -30.92)"/><path class="ba" d="M1956.871,1140.75q-.755,2.466-1.671,4.894c.053-.159.106-.318.159-.478Q1956.036,1142.939,1956.871,1140.75Z" transform="translate(-22.676 -49.541)"/><path class="bb" d="M1872.229,963.419l-28.028.676,18.381-64.413,58.8-1.432-12.513,43.983-4.376,15.337-1.452,5.093-8.992.218Z"/><path class="bb" d="M1881.678,937.045l4.734-1.949,3.541,1.79-2.984,12.93a5.33,5.33,0,0,0,.278,3.74,2.55,2.55,0,0,0,2.387,1.591h11.5a4.367,4.367,0,0,0,3.143-1.591,7.829,7.829,0,0,0,2.029-3.74q7.559-33.142-7.639-33.778a4.376,4.376,0,0,0-3.1,1.552,7.823,7.823,0,0,0-2.029,3.74l-2.507,10.822-1.551-.8,4.376-19.057a1.6,1.6,0,0,0-.279-1.512,1.634,1.634,0,0,0-1.393-.636,2.689,2.689,0,0,0-1.711.636,2.972,2.972,0,0,0-.995,1.512l-4.376,19.057-2.347.955,2.546-10.981a5.327,5.327,0,0,0-.279-3.74,2.552,2.552,0,0,0-2.387-1.552q-15.516.636-23.235,33.778a5.329,5.329,0,0,0,.279,3.74,2.55,2.55,0,0,0,2.387,1.591H1873.6a4.335,4.335,0,0,0,3.1-1.591,7.833,7.833,0,0,0,2.029-3.74Z" transform="translate(-3.063 -2.431)"/><path class="bc" d="M1885.176,932.31l2.347-.955L1891.9,912.3a2.977,2.977,0,0,1,.995-1.512,2.69,2.69,0,0,1,1.711-.636,1.633,1.633,0,0,1,1.392.636,1.6,1.6,0,0,1,.279,1.512l-4.376,19.057,1.552.8,2.745,1.392,5.57-7.52a2.091,2.091,0,0,1,1.154-.835,1.53,1.53,0,0,1,1.194.08,1.334,1.334,0,0,1,.676.955,1.968,1.968,0,0,1-.358,1.233l-5.292,7.082h5.61a1.37,1.37,0,0,1,1.114.478,1.257,1.257,0,0,1,.2,1.114,2.061,2.061,0,0,1-.756,1.154,1.9,1.9,0,0,1-1.273.477h-5.411l2.706,7.758a1.855,1.855,0,0,1-.12,1.233,2.256,2.256,0,0,1-1.034.955,1.92,1.92,0,0,1-1.313.159,1.32,1.32,0,0,1-.836-.756l-3.1-8.952-.159-.079-2.387-1.194-3.541-1.79-4.735,1.949-2.546,1.035-.239.079-7.241,8.952a2.373,2.373,0,0,1-1.194.756,1.525,1.525,0,0,1-1.193-.159,1.138,1.138,0,0,1-.557-.955,1.688,1.688,0,0,1,.437-1.233l6.286-7.758h-5.451a1.326,1.326,0,0,1-1.074-.477,1.429,1.429,0,0,1-.239-1.154,2.3,2.3,0,0,1,.8-1.114,1.85,1.85,0,0,1,1.233-.478h5.649l-1.949-7.082a1.609,1.609,0,0,1,.2-1.233,2.256,2.256,0,0,1,1.034-.955,1.9,1.9,0,0,1,1.313-.08,1.319,1.319,0,0,1,.756.835l2.069,7.52Z" transform="translate(-5.488 -2.431)"/><path class="bd" d="M1898.106,933.663l2.507-10.822a7.827,7.827,0,0,1,2.029-3.74,4.376,4.376,0,0,1,3.1-1.552q15.2.636,7.639,33.778a7.827,7.827,0,0,1-2.029,3.74,4.367,4.367,0,0,1-3.143,1.592h-11.5a2.55,2.55,0,0,1-2.387-1.592,5.327,5.327,0,0,1-.279-3.74l2.984-12.93,2.387,1.194.159.08,3.1,8.952a1.32,1.32,0,0,0,.835.756,1.92,1.92,0,0,0,1.313-.159,2.256,2.256,0,0,0,1.034-.955,1.854,1.854,0,0,0,.119-1.233l-2.705-7.758h5.411a1.9,1.9,0,0,0,1.273-.477,2.061,2.061,0,0,0,.756-1.154,1.256,1.256,0,0,0-.2-1.114,1.37,1.37,0,0,0-1.114-.478h-5.61l5.291-7.082a1.966,1.966,0,0,0,.358-1.233,1.334,1.334,0,0,0-.676-.955,1.53,1.53,0,0,0-1.194-.08,2.092,2.092,0,0,0-1.154.836l-5.57,7.519Z" transform="translate(-10.142 -3.943)"/><path class="bd" d="M1882.752,933.822l-2.984,1.233-2.069-7.519a1.318,1.318,0,0,0-.756-.836,1.9,1.9,0,0,0-1.313.08,2.256,2.256,0,0,0-1.034.955,1.608,1.608,0,0,0-.2,1.233l1.949,7.082h-5.65a1.849,1.849,0,0,0-1.233.478,2.3,2.3,0,0,0-.8,1.114,1.429,1.429,0,0,0,.239,1.154,1.326,1.326,0,0,0,1.074.477h5.451l-6.286,7.758a1.691,1.691,0,0,0-.437,1.233,1.14,1.14,0,0,0,.557.955,1.526,1.526,0,0,0,1.194.159,2.373,2.373,0,0,0,1.194-.756l7.241-8.952.239-.08,2.547-1.034-2.944,12.771a7.833,7.833,0,0,1-2.029,3.74,4.335,4.335,0,0,1-3.1,1.592h-11.538a2.55,2.55,0,0,1-2.387-1.592,5.328,5.328,0,0,1-.279-3.74q7.719-33.142,23.235-33.778a2.552,2.552,0,0,1,2.387,1.552,5.327,5.327,0,0,1,.279,3.74Z" transform="translate(-3.063 -3.943)"/><path class="be" d="M1979.305,1015.1a4.681,4.681,0,0,1-.756-2.685c0-.046,0-.092,0-.139,0-.073,0-.145,0-.219q.047-1.277.119-2.487.159-2.188.2-4.177a4.785,4.785,0,0,1,.557-2.148,4.038,4.038,0,0,1,1.114-1.313,10.473,10.473,0,0,1,2.268-1.353,4.037,4.037,0,0,0,1.114-.676.327.327,0,0,0,.04.06q1.248,2.515,2.507,4.914a4.343,4.343,0,0,0,1.035,1.313,10.221,10.221,0,0,0,5.649,2.546,40.8,40.8,0,0,1,5.649.816q.9.186,1.791.418l1.034.517q0,.26,0,.517a20.31,20.31,0,0,1-.637,4.774,4.824,4.824,0,0,1-.677,1.512,7.807,7.807,0,0,1-.8.835q-1.432,1.313-2.944,2.467a9,9,0,0,1-4.257,1.711,9.963,9.963,0,0,1-3.064-.318,12.132,12.132,0,0,1-2.088-.975l-.02-.02q-1.122-.668-2.208-1.373-.645-.426-1.273-.855-.451-.319-.9-.637-.8-.6-1.572-1.194-.416-.319-.816-.636A5.339,5.339,0,0,1,1979.305,1015.1Z" transform="translate(-27.446 -20.766)"/></g><g transform="translate(-20645 -8473)"><g transform="translate(-108 167.805)"><path class="bf" d="M882.991,547.543l-14.009,7.96a2.918,2.918,0,0,1-2.883-5.074,3.1,3.1,0,0,1,.561-.245l15.361-4.864a1.22,1.22,0,0,1,.971,2.223Z" transform="translate(21273.293 9123.459)"/><path class="bf" d="M792.921,436.127l-6.549,14.721a2.918,2.918,0,0,1-5.332-2.372,3.1,3.1,0,0,1,.306-.53l9.475-13.032a1.22,1.22,0,0,1,2.1,1.213Z" transform="translate(21344.855 9218.08)"/><path class="bg" d="M809.754,681.943l-14.277-7.469a2.918,2.918,0,0,1,2.705-5.171,3.089,3.089,0,0,1,.509.339L811.1,679.924a1.22,1.22,0,0,1-1.344,2.019Z" transform="translate(21333.652 9017.862)"/><path class="bf" d="M552.527,428.161l10.95,10.579a2.92,2.92,0,1,1-4.058,4.2,3.075,3.075,0,0,1-.413-.5l-8.348-12.733a1.22,1.22,0,0,1,1.868-1.547Z" transform="translate(21541.463 9223.709)"/><path class="bg" d="M540.757,709.62l11.63-11.152a2.918,2.918,0,1,1,4.039,4.212,3.091,3.091,0,0,1-.484.375l-13.7,8.481a1.22,1.22,0,0,1-1.486-1.917Z" transform="translate(21550.064 8993.376)"/><path class="bh" d="M573.182,459.348c0,2.608-1.848,5.147-2.491,7.553-.665,2.489-2.258,4.508-3.519,6.688-1.279,2.21-1.672,5.167-3.466,6.961s-4.676,2.316-6.886,3.595c-2.179,1.261-3.747,4.695-6.235,5.36-2.406.643-5.471-2.677-8.079-2.677s-5.44,2.446-7.846,1.8c-2.489-.665-4.465-2.923-6.644-4.184-2.21-1.279-2.872-4.148-4.666-5.942a25.557,25.557,0,0,1-4.509-5.5c-1.261-2.179-3.03-3.84-3.7-6.328-.643-2.406-.142-4.724-.142-7.332s-2.905-5.569-2.262-7.974c.665-2.489,3.721-4.153,4.982-6.332,1.279-2.211,1.22-5.667,3.014-7.461s5.724-.918,7.934-2.2a26.35,26.35,0,0,1,6.6-3.032c2.405-.643,4.627-.412,7.235-.412s5.373-2.264,7.778-1.621A31.406,31.406,0,0,1,557.716,433c2.211,1.279,4.078,3.468,5.872,5.262s1.881,4.877,3.16,7.088a26.7,26.7,0,0,1,2.768,6.756C570.159,454.515,573.182,456.74,573.182,459.348Z" transform="translate(21573.738 9221.673)"/><path class="bf" d="M572.923,559.523c-.665,2.489-2.258,4.508-3.519,6.688-1.279,2.211-1.672,5.167-3.466,6.961s-4.676,2.316-6.886,3.6c-2.179,1.261-3.747,4.695-6.235,5.36-2.406.643-5.471-2.677-8.079-2.677s-5.44,2.446-7.846,1.8c-2.489-.665-4.465-2.923-6.644-4.184-2.211-1.279-2.872-4.148-4.666-5.942a25.555,25.555,0,0,1-4.509-5.5c-1.261-2.179-3.03-3.84-3.7-6.328-.643-2.405-.142-4.724-.142-7.332,0-1.4-.838-2.9-1.514-4.367-1.248,1.223-2.57,2.445-2.981,3.982-.643,2.405,2.262,5.366,2.262,7.974s-.5,4.927.142,7.332c.665,2.489,2.434,4.149,3.7,6.328a25.553,25.553,0,0,0,4.509,5.5c1.794,1.794,2.456,4.663,4.667,5.942,2.179,1.261,4.155,3.519,6.644,4.184,2.405.643,5.237-1.8,7.846-1.8s5.674,3.32,8.079,2.677c2.489-.665,4.056-4.1,6.236-5.36,2.211-1.279,5.092-1.8,6.886-3.595s2.187-4.751,3.466-6.961c1.261-2.179,2.854-4.2,3.519-6.688.643-2.406,2.491-4.945,2.491-7.553a3.573,3.573,0,0,0-.065-.663C573.046,559.107,572.979,559.316,572.923,559.523Z" transform="translate(21573.738 9121.46)"/><path class="bi" d="M612.038,503.276a6.821,6.821,0,0,1-.754,2.2,7.144,7.144,0,0,1-1.271,1.8c-.442.519-1.3.608-1.9,1.018a9.049,9.049,0,0,1-1.855.825c-.635.253-1.1,1.146-1.811,1.277-.673.124-1.431-.555-2.153-.555a10.529,10.529,0,0,1-2-.272,9.392,9.392,0,0,1-1.85-.735c-.674-.268-1.53.025-2.092-.36-.6-.41-.8-1.131-1.247-1.649a5.65,5.65,0,0,1-1.1-1.626,4.739,4.739,0,0,1-.17-1.916c0-.716-.44-1.4-.182-2.055a6.656,6.656,0,0,1,.913-1.942,8.492,8.492,0,0,1,1.714-1.292c.562-.385,1.387-.241,2.06-.508.635-.253,1.025-1.507,1.736-1.638.673-.124,1.49.353,2.212.353s1.338.615,2.011.738c.711.131,1.5-.209,2.137.043a9.324,9.324,0,0,1,1.744,1.182,7.33,7.33,0,0,1,1.318,1.559,5.392,5.392,0,0,1,.842,1.736C610.6,502.1,612.038,502.56,612.038,503.276Z" transform="translate(21504.656 9165.662)"/><path class="bf" d="M716.719,342.813l.906,15.71a2.919,2.919,0,1,1-5.828.336,3.078,3.078,0,0,1,.031-.626l2.468-15.542a1.22,1.22,0,0,1,2.422.121Z" transform="translate(21403.748 9297.251)"/><path class="bf" d="M450.109,554.272,465.8,557.95a2.918,2.918,0,1,1-1.332,5.682,3.08,3.08,0,0,1-.578-.2l-14.575-6.868a1.22,1.22,0,0,1,.8-2.291Z" transform="translate(21628.4 9115.796)"/><path class="bg" d="M771.383,767.251l-9.475-13.032a2.918,2.918,0,0,1,4.72-3.432,3.079,3.079,0,0,1,.306.53l6.549,14.721a1.22,1.22,0,0,1-2.1,1.213Z" transform="translate(21361.447 8949.051)"/><path class="bg" d="M619.668,730.345l3.867-10.84a2.934,2.934,0,0,1,5.526,1.971,3.023,3.023,0,0,1-.405.76l-6.848,9.25a1.226,1.226,0,0,1-2.14-1.141Z" transform="translate(21482.447 8976.39)"/><path class="bf" d="M791.268,649.654l-8.572-1.069a2.959,2.959,0,1,1,.732-5.873,3.023,3.023,0,0,1,1.1.365l7.506,4.275a1.237,1.237,0,0,1-.765,2.3Z" transform="translate(21345.439 9040.296)"/><path class="bf" d="M610.982,636.445l5.609-4.13a2.991,2.991,0,1,1,3.547,4.817,3.031,3.031,0,0,1-1.342.551l-6.892,1a1.25,1.25,0,0,1-.922-2.244Z" transform="translate(21490.234 9049.648)"/><path class="bf" d="M761.385,523.443l-4.584,4.071a3.019,3.019,0,1,1-2.51-5.233l6.044-1.025a1.262,1.262,0,0,1,1.049,2.187Z" transform="translate(21369.617 9143.967)"/><circle class="bh" cx="4.185" cy="4.185" r="4.185" transform="translate(22115.406 9635.873)"/><ellipse class="bi" cx="1.853" cy="1.304" rx="1.853" ry="1.304" transform="translate(22118.426 9637.657)"/><circle class="bh" cx="4.186" cy="4.186" r="4.186" transform="translate(22072.268 9675.5) rotate(-80.824)"/><ellipse class="bi" cx="1.853" cy="1.304" rx="1.853" ry="1.304" transform="translate(22075.9 9669.634)"/><circle class="bh" cx="4.185" cy="4.185" r="4.185" transform="translate(22152.238 9664.837)"/><ellipse class="bi" cx="1.853" cy="1.304" rx="1.853" ry="1.304" transform="translate(22155.258 9666.621)"/><circle class="bh" cx="4.185" cy="4.185" r="4.185" transform="translate(22128.41 9719.135) rotate(-68.897)"/><ellipse class="bi" cx="1.853" cy="1.304" rx="1.853" ry="1.304" transform="translate(22132.656 9714.335)"/><circle class="bf" cx="4.185" cy="4.185" r="4.185" transform="translate(22126.957 9661.488)"/><ellipse class="bi" cx="1.853" cy="1.304" rx="1.853" ry="1.304" transform="translate(22129.977 9663.272)"/><circle class="bf" cx="4.185" cy="4.185" r="4.185" transform="translate(22097.66 9682.081)"/><ellipse class="bi" cx="1.853" cy="1.304" rx="1.853" ry="1.304" transform="translate(22100.678 9683.865)"/><circle class="bf" cx="4.185" cy="4.185" r="4.185" transform="translate(22132.316 9684.258)"/><ellipse class="bi" cx="1.853" cy="1.304" rx="1.853" ry="1.304" transform="translate(22135.334 9686.041)"/><circle class="bh" cx="2.735" cy="2.735" r="2.735" transform="translate(22134.771 9649.044)"/><path class="bi" d="M859.032,419.668c0,.47-.542.852-1.21.852s-1.21-.381-1.21-.852.542-.852,1.21-.852S859.032,419.2,859.032,419.668Z" transform="translate(21280.133 9231.393)"/><circle class="bh" cx="2.735" cy="2.735" r="2.735" transform="matrix(0.992, -0.126, 0.126, 0.992, 22089.691, 9649.79)"/><path class="bi" d="M550.608,420.1c.247.4-.013,1.009-.582,1.361a1.08,1.08,0,0,1-1.477-.088c-.247-.4.013-1.009.582-1.361A1.08,1.08,0,0,1,550.608,420.1Z" transform="translate(21543.174 9230.577)"/><circle class="bh" cx="2.735" cy="2.735" r="2.735" transform="matrix(0.234, -0.972, 0.972, 0.234, 22087.271, 9706.245)"/><path class="bi" d="M535.742,775.743c.247.4-.013,1.009-.582,1.361a1.08,1.08,0,0,1-1.477-.088c-.247-.4.013-1.009.582-1.361A1.08,1.08,0,0,1,535.742,775.743Z" transform="translate(21555.863 8927.002)"/><path class="bh" d="M615.664,794.409a2.735,2.735,0,1,1-3.764-.889A2.734,2.734,0,0,1,615.664,794.409Z" transform="translate(21490.125 8911.896)"/><path class="bi" d="M623.795,799.757c.247.4-.013,1.009-.582,1.361a1.08,1.08,0,0,1-1.477-.088c-.247-.4.013-1.01.582-1.361A1.08,1.08,0,0,1,623.795,799.757Z" transform="translate(21480.701 8906.504)"/><circle class="bh" cx="2.735" cy="2.735" r="2.735" transform="matrix(0.234, -0.972, 0.972, 0.234, 22142.186, 9701.055)"/><path class="bi" d="M910.824,740.293c.247.4-.013,1.009-.582,1.361a1.08,1.08,0,0,1-1.477-.088c-.247-.4.013-1.009.582-1.361A1.08,1.08,0,0,1,910.824,740.293Z" transform="translate(21235.693 8957.262)"/></g><g transform="translate(21813 9784.131)"><g transform="translate(73.626)"><g transform="translate(10.578 0.802)"><path class="bj" d="M444.835,674.4c4.645,1.542,8.076,6.21,9.126,13.549a40.688,40.688,0,0,1-.872,14.713l12.548,5.122a45.456,45.456,0,0,0,1.093-16.695c-1.157-8.1-4.971-13.8-10.738-16.051l-9.854-3.854Z" transform="translate(-419.675 -671.189)"/><path class="bk" d="M418.723,745.661a54.613,54.613,0,0,1-4.345,12.034,48.53,48.53,0,0,1-7.19,10.7,35.622,35.622,0,0,1-4.471,4.22c-5.9,4.624-11.651,5.7-16.1,3.681l-1.3,3.216,9.854,3.854c5.767,2.255,12.523.689,19.025-4.41a40,40,0,0,0,5.745-5.576,52.638,52.638,0,0,0,7.008-10.774q.951-1.927,1.775-3.958a57.563,57.563,0,0,0,2.6-8.064Z" transform="translate(-385.31 -714.184)"/></g><path class="bk" d="M385.7,682.114a41.575,41.575,0,0,0-9.655,11.278,54.76,54.76,0,0,0-5.259,11.676,47.22,47.22,0,0,0-2.284,13.494,33.982,33.982,0,0,0,.32,5.222c1.347,9.42,6.616,14.439,13.342,14.1-2.318-2.39-3.967-5.993-4.639-10.692a33.981,33.981,0,0,1-.32-5.222,47.226,47.226,0,0,1,2.284-13.494,54.74,54.74,0,0,1,5.259-11.676,41.567,41.567,0,0,1,9.655-11.277c3.775-2.96,7.492-4.465,10.847-4.635C400.606,676.092,393.269,676.18,385.7,682.114Z" transform="translate(-365.029 -674.008)"/><path class="bl" d="M378.82,674.707c-5.957,4.671-11.116,11.883-14.528,20.307s-4.707,17.147-3.647,24.563c1.157,8.095,4.971,13.8,10.737,16.051s12.523.689,19.025-4.41c5.957-4.672,11.116-11.884,14.528-20.307s4.707-17.147,3.647-24.563c-1.158-8.1-4.971-13.8-10.738-16.051S385.322,669.607,378.82,674.707Zm26.327,12.151c2.019,14.119-5.538,32.776-16.878,41.67s-22.17,4.659-24.189-9.461,5.538-32.775,16.878-41.67S403.129,672.738,405.147,686.857Z" transform="translate(-360.284 -669.29)"/><path class="bm" d="M389.164,686.154c7.893-6.19,15.518-5.51,19.612.762a8.531,8.531,0,0,1-2.274,11.541c-3.829,2.749-9.391,6.87-15.1,11.547q-4.7,3.85-8.145,6.687a5.545,5.545,0,0,1-8.934-5.5C376.558,701.439,382.059,691.727,389.164,686.154Z" transform="translate(-368.303 -676.539)"/><g transform="translate(24.21 64.421)"><path class="bl" d="M428.291,822.233a10.358,10.358,0,0,0-9.182,1.364c-1.281,1-1.753,2.167-1.465,3.189l2.377,14.923,12.945-2.158-2.383-14.816a2.178,2.178,0,0,0-.066-.4A3.363,3.363,0,0,0,428.291,822.233Z" transform="translate(-417.563 -821.704)"/><path class="bk" d="M434.024,858c2.743,1.073,3.079,3.423.751,5.249a10.358,10.358,0,0,1-9.182,1.364c-2.743-1.073-3.078-3.423-.75-5.249A10.357,10.357,0,0,1,434.024,858Z" transform="translate(-420.872 -842.352)"/><path class="bn" d="M431.394,906.722c-.005,0-.014-.058-.014-.058,0-.017,0-.034-.007-.052L425.4,864a2.758,2.758,0,0,1,1.307-2.843,9.23,9.23,0,0,1,8.184-1.216,3,3,0,0,1,1.983,1.866,1.949,1.949,0,0,1,.061.364l6.01,42.736.01.071a2.942,2.942,0,0,1-1.368,2.531,9.231,9.231,0,0,1-8.184,1.216A2.9,2.9,0,0,1,431.394,906.722Z" transform="translate(-422.046 -843.507)"/><path class="bk" d="M446.9,906.343a4.252,4.252,0,0,0,1.375-3.282.205.205,0,0,0,0-.049c0-.024-6.163-43.745-6.21-44.23a4.335,4.335,0,0,1,1.808.589,3.376,3.376,0,0,1,1.889,2.04,1.947,1.947,0,0,1,.061.364l6.01,42.736.01.071a2.942,2.942,0,0,1-1.368,2.531,9.231,9.231,0,0,1-8.184,1.216,3.665,3.665,0,0,1-1.574-1.083A6.22,6.22,0,0,0,446.9,906.343Z" transform="translate(-430.926 -843.11)"/><path class="bo" d="M432.776,825.248l1.648,11.144a.953.953,0,0,1-1.883.29l-1.648-11.144a.953.953,0,0,1,1.883-.29Z" transform="translate(-425.252 -823.294)"/></g></g><g transform="translate(0 15.494)"><g transform="translate(0 33.25)"><g transform="translate(14.028 85.259)"><path class="bp" d="M233.56,1001.525c-.231-1.028-1.482-5.04-1.26-6.261a22.833,22.833,0,0,1,1.918,1.787c1.228,1.986,1.954,2.208,3.118,2.274,1.227.065.029-1.132-.923-3.231a15.507,15.507,0,0,0-2-3.54,10.778,10.778,0,0,0-2.016-1.469c-1.978-1.543-4.038-1.844-4.947-3.845a6.94,6.94,0,0,1-.338-.854c-.138-.42-8.465,1.585-7.8,2.527,1.516,2.133.808,3.137.884,4.355.153,2.522.953,3.829,2.615,7.674.519,1.205,2.445,5.2,4.109,5.968s4.041,1.657,4.954,1.607C233.61,1008.42,234.26,1004.637,233.56,1001.525Z" transform="translate(-219.281 -986.328)"/></g><path class="bq" d="M218.922,786.509a7.39,7.39,0,0,0-7.282-1.573c-2.26.587-4.187,2.086-6.532,5.532-.668.981-2.8,5.25-5.629,9.891-2.729,4.466-8.485,15.652-12.338,23.336-1.45,2.893-1.181,7.311-.472,9.82,4.807,17.015,13.449,39.964,13.449,39.964a17.443,17.443,0,0,0,4.631-.546,6.055,6.055,0,0,0,4-3.281s-2.027-7.268-2.461-8.783c-1.669-5.816-3.858-19.173-4.922-23.411-.951-3.787-2.357-7.382-1-10.121,4.5-9.116,9.06-18.235,12.557-24.746,1.95-3.632,3.729-8.137,5.157-10.78C219.667,788.863,220.586,788.172,218.922,786.509Z" transform="translate(-186.093 -784.615)"/></g><g transform="translate(60.809 242.821)"><path class="bk" d="M339.353,1294.715c3.408-2.391,4.4-3.563,9.653-5.324,1.565-.525,7.464-2.923,9.931-.713,2.179,1.952-.823,5.427-1.945,6.24-3.765,2.726-7.1,3.509-11.345,5.371-.788.345-2.03,2.15-3.976,2.782-3.59,1.165-6.771,2.168-9.876.07-3.439-2.325-1.279-5.616.313-6.4C333.622,1296,336.654,1296.611,339.353,1294.715Z" transform="translate(-329.961 -1284.664)"/><path class="br" d="M330.388,1294.157l.578-7.451c0-1.2,1.734-2.031,2.8-2.556a65.25,65.25,0,0,1,6.218-2.927c1.758-.7,3.729,2.258,8.981.5,1.565-.525,6.593-2.319,9.344-.461a5.952,5.952,0,0,1,1.262,1.872,8.675,8.675,0,0,1,.242.839c.2,1.339.144,2.747-2.777,4.978-3.693,2.821-7.1,3.508-11.345,5.371a65.047,65.047,0,0,1-6.946,2.862,7.289,7.289,0,0,1-6.8-.946c-1.173-.793-1.574-1.482-1.548-2.082Z" transform="translate(-330.208 -1280.436)"/></g><g transform="translate(14.546 236.516)"><path class="bk" d="M229.179,1279.076c3.354-2.471,4.321-3.666,9.53-5.55,1.552-.562,7.908-3.569,9.912-.946,2.17,2.843-.631,5.546-1.806,6.284-4.416,2.776-7.192,3.5-11.3,5.965a30.418,30.418,0,0,1-3.835,2.547c-3.27,1.607-7.1,2.9-10.035.579-2.384-1.889-.291-6.023-.291-6.023C222.937,1281.342,226.522,1281.035,229.179,1279.076Z" transform="translate(-220.506 -1268.985)"/><path class="br" d="M221.343,1279.184l1.2-7.739s4.213-3.817,7.258-5.106c1.741-.737,3.778,2.17,8.989.286,1.552-.562,6.733-2.038,9.524-.243a4.177,4.177,0,0,1,1.11,1.405,8.616,8.616,0,0,1,.26.833c.227,1.333.2,2.743-2.666,5.043-3.63,2.907-7.016,3.674-11.222,5.636a65.132,65.132,0,0,1-6.88,3.025,7.286,7.286,0,0,1-6.822-.787A2.216,2.216,0,0,1,221.343,1279.184Z" transform="translate(-220.944 -1265.52)"/></g><g transform="translate(15.271 118.085)"><path class="bs" d="M245.264,992.994c-1.033-4.78-9.414-7.745-13.346-7.668-2.361.045-7.2-.28-8.28,1.764-1.16,2.209-1.951,8.506-.971,14.172,1.066,6.169,2.137,8.372,2.977,16.206,1.467,13.665,1.651,22.1,1.261,30.175-.029.118-1.558,18.577-2.014,22.571-.952,8.314-.718,15.584-1.128,27.58-.131,3.835-.848,9.436-.923,11.286-.038.968-.312,5.875,7,4.331,4.669-.986,6.955-5.218,6.944-6.367-.091-10.12.884-14.824,1.436-22.783.373-5.406,1.918-10.3,2.989-15.26,1.318-6.105,3.5-16.113,3.5-16.113,2.074-8.447,5.057-24.529,4-39.218C247.9,1002.281,246.978,1000.952,245.264,992.994Z" transform="translate(-222.223 -985.325)"/><path class="bt" d="M293.265,1088.914c-2.1-15.361-.8-21.041-2.618-33.571-.033-1.307-.113-2.982-.291-4.869A281.008,281.008,0,0,0,285.7,1018.6c-.849-3.742-2.315-20.395-3.342-20.743-3.655-1.242-30.731-.044-30.731-.044s.488,10.245,3.093,14.215c.539.821,1.045,1.558,1.534,2.255.007.012.011.024.018.035a86.763,86.763,0,0,1,7.7,16.587c1.364,3.977,5.68,20.192,8.394,29.7.805,7.3,2.447,18.1,2.991,21.335a208.612,208.612,0,0,0,5.317,23.038c2.913,10.519,4.8,19.887,4.8,19.887s.621,5.69,9.432,1.64c4.76-2.187,3.828-6.442,3.828-6.442C295.1,1109.153,294.246,1096.1,293.265,1088.914Z" transform="translate(-239.198 -992.234)"/></g><g transform="translate(14.025)"><path class="br" d="M222.927,848.834c.557-5.785.84-8.811.421-27.313-.221-9.688-.225-25.926,2.294-29.884a11.988,11.988,0,0,1,5.141-5.057,7.1,7.1,0,0,1,4.5-.68,26.091,26.091,0,0,1,5.849,1.05c4.2,1.4,12.4,6.552,16.078,9.2,4.091,2.942,14.425,10.695,18.385,13.895,1.566,1.266,2.059,1.519,2.013,2.824l.027,0s-.014.051-.033.124c-.01.175-.025.359-.051.573a.252.252,0,0,1-.145.176c-2.146,8.2-6.769,27.156-8.757,35.906-.585,2.56-1.727,10.573-2.389,17.992-.48,5.373,9.8,75.985,9.8,75.985s-8.33,8.708-17.9,8.157c-3.126-.18-10.246-2.331-20.3-2.734-12.964-.519-18.576-7.808-18.576-7.808s-.133-70.845,1.427-78.985C221.924,855.888,222.646,851.759,222.927,848.834Z" transform="translate(-219.274 -752.052)"/><path class="bq" d="M315.936,968.587c-.2,1.8-.135,3.69-.3,5.5-.074.825.158,1.988.088,3.026-4.9-.079-10.792-1.15-11-2.581a24.449,24.449,0,0,1,.123-6.237Z" transform="translate(-268.528 -857.41)"/><g transform="translate(22.832)"><path class="bp" d="M280.516,788.09l1.828-10.7,13.988,4.869-2.691,9.369a7,7,0,0,1-2.57,2.411,9.768,9.768,0,0,1-8.629-1.511A7.082,7.082,0,0,1,280.516,788.09Z" transform="translate(-277.453 -747.195)"/><path class="bp" d="M276.076,721.763c-3.193,8.626,2.547,27.364,11.777,26.334,6.045-.674,12.272,5.157,13.764.656a17.165,17.165,0,0,1,3.336-4.773c.906-.88.445-1.6,1.144-2.619.756-1.1,2.646-.666,3.1-1.9.376-1.008-1.4-5.785-1.412-6.616-.014-.67,2.263-2.174,2.173-2.847-.9-6.781-.275-11.55-6.578-13.816C294.657,713.048,279.275,713.136,276.076,721.763Z" transform="translate(-274.386 -710.768)"/><path class="bu" d="M307.871,710.556c-1.769-1.154-5.58-.728-13.579-3.6-6.333-2.277-11.952-.319-14.644,2.269-2.684,1.382-4.009,4.575-5.555,8.385-1.789,4.409-.444,14.407,2.7,19.49,1.238,2,8.613,3.676,12.5-2.1,1.325-1.968,2.371-7.9,6.128-7.63,2.119.155.809,5.562.809,5.562l2.142.139s2.047-3.643,1.44-5.256c-.914-2.412,4.326-3.624,2.692-6.13-.066-.1-.14-.2-.213-.306.454-.11.9-.231,1.34-.369.478-.151,2.162-.841,2.162-.841l-1.455-.126a24.916,24.916,0,0,0,2.839-.59C309.765,717.912,312.944,713.865,307.871,710.556Z" transform="translate(-273.293 -705.949)"/></g><g transform="translate(83.696 89.642)"><path class="bk" d="M437.326,921.3a13.487,13.487,0,0,0-4.634,1.976l1.566,9.283a26.836,26.836,0,0,0,3.024-1.026c1.088-.484,3.1-1.645,4.208-1.591,2.223.107,2.907.165,3.166-.717.187-.637-.8-.687-1.629-.831-.659-.114-1.077-.154-1.637-.208-.227-.023-3.162.562-3.112.41.091-.278,2.815-.708,2.985-.7.511.038,1.06.161,1.8.2a11.064,11.064,0,0,0,2.377.032l-.205-1.459a9.414,9.414,0,0,0-2.627-.47c-.806-.145-1.006-.125-1.407-.227-.168-.042-3.565.44-3.476.291a15.013,15.013,0,0,1,3.405-.564c.511.08,1.017.078,1.913.244a7.908,7.908,0,0,0,2.1.055l-.276-1.964c-.406-.1-2.707-.43-3.085-.467-.345-.035-4.553.212-4.532.163.132-.311,4.331-.567,4.565-.535a11.361,11.361,0,0,0,2.53-.106c.034-.006-.05-1.107-.05-1.107C443.12,921.989,437.912,921.222,437.326,921.3Z" transform="translate(-426.182 -919.914)"/><path class="bp" d="M429.247,918.064a15.786,15.786,0,0,0-5.407.712,14.869,14.869,0,0,1-4.753,2.349c-.582.16-1.643.516-1.746.546-.446.119,2.165,8.617,3.1,7.856,2.533-2.055,2.77-1.134,6.016-1.617,1.177-.175,3.431-.752,4.48-.4,2.113.7,2.756.939,3.242.159.351-.563-.587-.876-1.346-1.237-.6-.287-1-.437-1.522-.64-.213-.083-3.2-.307-3.107-.44.162-.243,2.9.074,3.062.131.482.174.978.439,1.684.678,1.12.378,2.082,1.227,2.94.448,1.033-.937-1.821-1.892-2.87-2.4-.737-.356-.935-.391-1.294-.6-.15-.086-3.552-.533-3.427-.652a15.021,15.021,0,0,1,3.432.37c.471.214.959.348,1.778.749,1.361.663,2.762,1.094,3.127.183.395-.985-.486-1.2-1.86-1.845-.544-.255-1.237-.729-1.848-.966-.323-.126-4.443-1.017-4.409-1.058.21-.264,4.329.6,4.541.71.3.15.424.257.63.359,1.676.831,1.994.937,2.368.616s.461-1.057-1.293-2.2a6.972,6.972,0,0,0-1.062-.672A24.47,24.47,0,0,0,429.247,918.064Z" transform="translate(-417.291 -918.032)"/></g><path class="bq" d="M373.474,884.482c.171-1.025-.171-2.358-.732-4.614a9.688,9.688,0,0,0-1.284-3.178c-.5-.829-1.555-.162-2.512-.034-3.2.428-14.493,3.18-21.051,1.2-1.009-3.045-1.01-9.471-1.246-15.341-.232-5.781-.1-9.074-.561-13.53-.44-4.266-3.635-7.781-5.991-8.01-1.157-.112-3.26,1.03-4.387,2-1.793,1.546-2.567,5.382-1.948,7.74a113.276,113.276,0,0,1,1.128,13.226c.257,6.007.957,12.956,1.538,20.2,0,.949,1.732,6,4.887,7.28,6.261,1.324,23.28-5.058,29.425-5.639C373.269,885.542,373.415,884.835,373.474,884.482Z" transform="translate(-285.249 -783.898)"/><path class="bv" d="M287.779,801.015a6.1,6.1,0,0,0,4.078-.772l.258-4.135a23.149,23.149,0,0,1-7.462-1.059c-5.9-2-5.685-4.667-5.685-4.667l-2.641,5.059c-.1.813,2.571,2.378,4.238,3.5A17.563,17.563,0,0,0,287.779,801.015Z" transform="translate(-252.211 -754.694)"/><path class="bq" d="M285.125,805.9a35.552,35.552,0,0,0,7.77-.192c.3-.039.705.241,1.171.5a5.991,5.991,0,0,0-.775-1.425c-1.335-1.429-3.717-3.605-3.717-3.605a20,20,0,0,1-7.658-.762c-5.9-2-6.555-5.338-6.555-5.338l-3.293,1.594c-.155,1.253.522,3.856,3.752,6.275C277.8,804.438,280.166,805.586,285.125,805.9Z" transform="translate(-249.742 -757.41)"/></g></g><path class="br" d="M331.475,762.755A8.071,8.071,0,0,0,330.52,760l-6.809,1.2c-1.427-1.849-4-4.961-5.257-5.075-1.665-.15-3.3.159-5.062,5.542-1.287,3.937,2.993,7.635,5.408,9.351a12.525,12.525,0,0,0,1.123,3.58c.3.75,3.524.975,5.249-1.35,1.4-1.88,4.753-7,5.985-8.887A2.18,2.18,0,0,0,331.475,762.755Zm-12.611,7.823c-2.357-1.722-6.275-5.221-5.107-8.792,1.674-5.122,3.1-5.422,4.663-5.279,1.014.092,3.384,2.87,4.933,4.861C322.84,762.237,319.51,767.94,318.864,770.578Z" transform="translate(-259.45 -719.407)"/></g></g><g transform="translate(954 1253)"><g class="bw"><g class="bw"><g class="bx"><g class="by"><path class="bz" d="M31.175,283.852c0,11.888,22.327,21.524,49.869,21.524s49.868-9.638,49.868-21.526-22.327-21.525-49.868-21.525-49.869,9.638-49.869,21.527"/></g></g><path class="ca" d="M95.336,303.3c-13.19,5.871-34.644,5.842-47.917-.066s-13.341-15.457-.15-21.329,34.643-5.84,47.918.067,13.338,15.457.149,21.328"/><path class="cb" d="M99.277,299.921c-16.036,7.138-42.119,7.1-58.256-.081s-16.219-18.791-.182-25.929,42.119-7.1,58.255.081,16.22,18.791.183,25.929"/><path class="cb" d="M9.611,226.3,29,288.2l81.957,1.038,19.983-61.292Z"/><path class="cc" d="M107.629,245l-18.71,43.981h-.012c-3.309,6.023-4.94,8.232-11.664,11.225-4.863,2.164-12.009,3.535-18.16,4.349,13.841,1.794,27.337.585,38.41-3.9,5.264-2.132,9.515-3.26,13.1-10.367l1.5-3.629,18.843-58.713Z"/><path class="cd" d="M115.586,239.725c-23.132,9.54-62.136,9.7-87.121.365S1.976,215.449,25.1,205.909s62.136-9.705,87.122-.366,26.488,24.642,3.359,34.182"/><path class="ce" d="M108.915,239.134c-19.854,8.188-53.335,8.329-74.782.313S11.4,218.3,31.25,210.108s53.335-8.33,74.782-.315,22.737,21.153,2.883,29.341"/><path class="k" d="M108.915,239.134c-19.854,8.188-53.335,8.329-74.782.313C18.66,233.665,13.384,225.1,19.559,217.884c8.574-10.015,93.353-5.133,95.864-3.473,11.861,7.838,9.877,17.965-6.508,24.723"/><path class="ce" d="M78.34,222.086c0,2.259-3.579,4.091-7.995,4.091s-8-1.832-8-4.091,3.579-4.091,8-4.091,7.995,1.831,7.995,4.091"/><path class="cf" d="M15.943,235.751s19.306,15.529,56.348,14.863,51.881-13.781,51.881-13.781"/><path class="cg" d="M70.345,223.69a2.691,2.691,0,0,0,2.666-2.714V78.743a2.666,2.666,0,1,0-5.332,0V220.976a2.691,2.691,0,0,0,2.666,2.714"/><path class="cg" d="M71.435,158.214a2.626,2.626,0,0,0,1.646-.58l34.7-27.759a2.745,2.745,0,0,0,.448-3.81,2.636,2.636,0,0,0-3.743-.456l-34.7,27.759a2.744,2.744,0,0,0-.449,3.81,2.644,2.644,0,0,0,2.1,1.036"/><path class="cg" d="M69.931,141.093a2.631,2.631,0,0,0,1.684-.612,2.746,2.746,0,0,0,.379-3.818L41.889,99.113a2.633,2.633,0,0,0-3.751-.386,2.745,2.745,0,0,0-.38,3.817l30.106,37.55a2.642,2.642,0,0,0,2.067,1"/><path class="k" d="M59.323,89.028s20.092,20.656,40.914,13.1-2.7-5.01-8.344-10.82-.07-9.2,4.313-8.848,29.436.925,28.621-8.7-16.281,4.1-18.461-3.932-2.512-.816,13.956-7.127c13.516-5.18,16.532-21.081,13.652-23.374-5.1-4.059-13.947,7.81-17.388,4.9s14.73-13.065,11.753-25.268S121.158,0,121.158,0s-3.773,3.891-14.345,8.949-19.187,8.415-17.8,20.287-8.529,4.792-5.1-8.33-3.566-14.869-7.764-4.462c-3.864,9.574-7.644,21.785-9.4,25.3s-1.355,3.722-.929-5.893S59.168,22.34,55.1,25.519s-2.282,31.724,6.933,36.276-.926,18.589-8.812,1.543-10.048-19.626-12.732-8.1S49.97,81.618,59.323,89.028"/><path class="l" d="M72.692,80.778c11.775-4.431,37.118-10.968,44.069.205.176.282-16.642,6.705-19.318,6.491-4.382-.351-3.361,1.773,2.28,7.582s16.544-7.454-4.279.1c-14.231,5.162-27.088-.4-34.455-5.987,3.291-3.151,7.411-6.774,11.7-8.389"/><path class="ch" d="M12.97,129.877c11.229-4.854,10.793-.5,8.415-7.262-1.028-2.928-3.829-2.314-6.986-.948-13.866,9.071-14.063-8.929,1.82-12.794,6.28-1.931,12.762-.788,14.814-1.01,4.509-.489,10.011-5,3.888-9.8-2.788-2.186-9.268-1.9-13.53-2.048a2.187,2.187,0,0,1-1.151-4c1.307-.888,3.106-1.975,5.492-3.308,20.869-11.661,42.674,5.4,42.674,5.4,10.018,5.708,23.365,18.42,21.305,30.613s-4.427,10-13.519-5.759-18.637.422-8.93,3.26,13.243,31.417,9.263,35.421-11.453,1.418-11.592-8.406-8.458-12.257-10.05-8.357,6.086,17.283,6.83,28.639-17.141,12.3-14.417-1.656-12.032-28.353-9.9-16.592.708,23.839-9.815,31a124.022,124.022,0,0,0-17.172,13.946s-3.4-4.363-6.734-12.906C-3.875,157.4.69,140.705,12.97,129.877"/><path class="ci" d="M109.1,92.888c-3.072,6.188,3.127,6.578,6.735,5.816s18.646.769,22.4,7.95c4.482,8.57-17.922,6.963-16.459,11.755,1.72,5.638,3.291,7.744,14.76,5.339,14.938-3.132,26.132,10.291,22.3,13.988s-20.4,1.342-22.461,4.5,9.027,4.3,12.958,15.839c4.463,13.1-.716,26.174-1.178,27.842-1.723.173-15.629,3.183-27.785-3.441-10.709-5.834-13-18.959-16.466-17.464s-.9,20.226-5.194,23.376-15.622-10.161-10-24.351c4.318-10.894,3.515-16.21-1.749-18.862-4.474-2.256-6.306,16.544-15.241,12.84s-1.962-22.248-.6-25.674,1.062-8.16-5.559-6.183-6.559,25.715-14.859,6.91c-3.585-8.123.23-22.716,11.1-36.185A33.873,33.873,0,0,1,76.236,86.456c11.775-4.431,33.366-11.658,39.817-6.1,10.448,9-3.879,6.345-6.951,12.534"/><path class="cj" d="M146.774,186.12S108.372,112.1,70.2,89.445"/></g></g></g></g></svg>