<svg xmlns="http://www.w3.org/2000/svg" xmlns:xlink="http://www.w3.org/1999/xlink" width="1200.903" height="341.281" viewBox="0 0 1200.903 341.281"><defs><style>.a,.bu{fill:none;}.b{fill:#97cbfd;}.c{clip-path:url(#a);}.d{fill:#f4ba90;}.e{fill:#c7deeb;}.f{fill:#e6f6ff;}.g{fill:#438be3;}.h{fill:#7a3a1d;}.i{fill:#6d2d10;}.j{fill:#4432db;}.k{fill:#e6a677;}.l{fill:#d9a782;}.m{fill:#4a4700;}.n{fill:#003575;}.o{fill:#467de4;}.p{fill:#66d1aa;}.q{opacity:0.5;}.bg,.q{mix-blend-mode:multiply;isolation:isolate;}.r{clip-path:url(#c);}.s{fill:#d1e9f5;}.t{fill:#e2f1f9;}.u{fill:#c6d7e0;}.v{fill:#f9bcaa;}.w{fill:#563317;}.x{fill:#634024;}.y{fill:#cc3241;}.z{clip-path:url(#d);}.aa{clip-path:url(#e);}.ab{clip-path:url(#f);}.ac{clip-path:url(#g);}.ad{fill:#daedf7;}.ae{fill:#b8cdd9;}.af{clip-path:url(#h);}.ag{clip-path:url(#i);}.ah,.cb{fill:#fff;}.ai{fill:#2b5e85;}.aj{fill:#3c7bc7;}.ak{fill:#40404a;}.al{fill:#21275e;}.am{fill:#f0c6b4;}.an{fill:#522917;}.ao{fill:#8a72ac;}.ap{fill:#9f88c1;}.aq{fill:#c7a496;}.ar{fill:#bcbec0;}.as{fill:#2a4e68;}.at{fill:#0f2034;}.au{fill:#e5b0a0;}.av{fill:#939598;}.aw{fill:#2b337c;}.ax{fill:#8d7fa2;}.ay{fill:#ffe762;}.az{fill:#3c2415;}.ba{fill:#603913;}.bb{fill:#b8b8b8;}.bc{fill:#e31b25;}.bd{clip-path:url(#j);}.be{clip-path:url(#k);}.bf{fill:#7cb4f7;}.bg{opacity:0.3;}.bh{clip-path:url(#l);}.bi{fill:#abcffa;}.bj{fill:#3551a2;}.bk{fill:#4b6ccc;}.bl{fill:#69a5ed;}.bm{fill:#478bde;}.bn{fill:#2964d6;}.bo{fill:#00318f;}.bp{fill:#4285ff;}.bq{fill:#c6dbf5;}.br{fill:#dbefff;}.bs{fill:#a8c4e5;}.bt{fill:#2c1f9c;}.bu{stroke:#a8c4e5;stroke-miterlimit:10;stroke-width:1.301px;}.bv{fill:#93b8e6;}.bw{fill:#f5f8ff;}.bw,.bx,.by,.bz,.ca,.cb,.cc,.cd{fill-rule:evenodd;}.bx{fill:#ff65ab;}.by{fill:#dd2b78;}.bz{fill:#789ef9;}.ca{fill:#c4d4fb;}.cc{fill:#d8e3fc;}.cd{fill:#e6edfc;}</style><clipPath id="a"><rect class="a" width="162.698" height="265.369"/></clipPath><clipPath id="c"><rect class="a" width="15.177" height="25.416"/></clipPath><clipPath id="d"><rect class="a" width="3.55" height="4"/></clipPath><clipPath id="e"><rect class="a" width="5.942" height="4.306"/></clipPath><clipPath id="f"><rect class="a" width="3.101" height="5.925"/></clipPath><clipPath id="g"><rect class="a" width="24.919" height="15.17"/></clipPath><clipPath id="h"><rect class="a" width="213.786" height="279.669"/></clipPath><clipPath id="i"><rect class="a" width="213.784" height="279.67"/></clipPath><clipPath id="j"><rect class="a" width="209.439" height="255.982"/></clipPath><clipPath id="k"><rect class="b" width="209.439" height="255.982"/></clipPath><clipPath id="l"><rect class="a" width="67.503" height="85.38"/></clipPath></defs><g transform="translate(-272.408 -1356.777)"><g transform="translate(667.939 1366.046)"><g class="c"><g class="c"><path class="d" d="M57.21,614.924s-3.642,7.769-2.266,25.008,5.1,29.946,5.827,35.53,2.509,8.093,2.752,10.279,3.562,24.037,4.452,29.7,1.214,9.955-.324,11.574,1.3,5.989,4.452,5.989,7.688-6.8,7.688-6.8-2.347-4.451-1.3-11.977,3.48-18.048,2.994-23.309-4.533-9.874-4.047-14.649,2.186-22.985,2.186-22.985l-2.186-28.65Z" transform="translate(-43.999 -495.229)"/><path class="e" d="M42.569,1172.074a30.865,30.865,0,0,1-3.833,5.222c-1.485,1.294-6.373,5.319-7.953,6.373a11.028,11.028,0,0,0-3.833,5.7c-.431,1.964.479,3.5,2.923,4.408s5.989.239,8.816-1.245,9.1-6.373,11.643-7.474,8.049-3.737,8.863-5.079.288-5.509,0-7.713a5.988,5.988,0,0,0-2.539-4.217s-.191,2.923-1.1,3.929-2.443,2.635-4.6,2.587a4.742,4.742,0,0,1-4.168-2.108,2.619,2.619,0,0,0-4.216-.383" transform="translate(-21.621 -940.687)"/><path class="f" d="M59.2,1220.139a4.941,4.941,0,0,0,.427-2.223c-1.544,1.791-6.287,4.6-9.1,5.481-3.067.958-7.282,5.031-9.87,6.708s-7.378,3.305-9.869,2.491a9.063,9.063,0,0,1-3.81-3.153c-.007.029-.016.059-.022.088-.431,1.964.479,3.5,2.923,4.408s5.989.24,8.815-1.245,9.1-6.373,11.643-7.474,8.049-3.737,8.863-5.079" transform="translate(-21.622 -980.848)"/><path class="g" d="M81.491,690.921c-.485-5.26-4.533-9.874-4.047-14.649s2.186-22.985,2.186-22.985l-2.186-28.65-20.232-9.713s-3.642,7.769-2.266,25.008,5.1,29.946,5.827,35.53,2.508,8.093,2.752,10.279,3.562,24.037,4.452,29.7c.3,1.915.534,3.667.656,5.218A17.886,17.886,0,0,0,79,719.507a26.755,26.755,0,0,1,.227-5.277c1.052-7.527,2.753-18.049,2.267-23.309" transform="translate(-44 -495.229)"/><path class="g" d="M81,720.385a19.866,19.866,0,0,0,2.663-.878,26.754,26.754,0,0,1,.227-5.277c1.052-7.527,2.753-18.049,2.267-23.309s-4.533-9.874-4.047-14.649S84.3,653.287,84.3,653.287l-2.186-28.65-20.232-9.713a24.8,24.8,0,0,0-1.448,5,21.006,21.006,0,0,0,13.04,9.48c.27,4.9,3.225,11.009,3.225,11.009s2.878,10.3,3.181,15-2.726,19.844-2.347,22.8,4.392,10.3,4.014,19.541c-.262,6.377-.451,16.794-.543,22.638" transform="translate(-48.67 -495.229)"/><path class="d" d="M132.569,656.726s6.8,28.6,10.334,38.4,3,7.6,5.534,11.8a60.843,60.843,0,0,1,7.2,16.334c1.533,6.267,6.134,23.934,5.733,28s4.2,5.133,5.6,5,4.276-6.087,4.038-8.01a88.048,88.048,0,0,1-1.417-13.257c-.437-10.459,1.379-13.6-1.221-22s-6.8-8.467-7.867-14-.133-27.7-.133-37.82-5.075-25.642-5.075-25.642L127.5,638.991s-1.133,11.535,5.066,17.735" transform="translate(-102.619 -511.825)"/><path class="g" d="M168.37,712.995c-2.6-8.4-6.8-8.467-7.867-14s-.133-27.7-.133-37.82-5.075-25.642-5.075-25.642L127.5,638.991s-1.133,11.535,5.066,17.735c0,0,6.8,28.6,10.334,38.4s3,7.6,5.534,11.8a60.842,60.842,0,0,1,7.2,16.334c1.191,4.865,4.229,16.6,5.341,23.508a11.707,11.707,0,0,0,3.493.093c2.782-.329,4.689-1.1,5.926-2.4a91.231,91.231,0,0,1-.8-9.463c-.437-10.459,1.379-13.6-1.221-22" transform="translate(-102.619 -511.825)"/><path class="g" d="M169.6,734.995c-.437-10.459,1.379-13.6-1.221-22s-6.8-8.467-7.867-14-.133-27.7-.133-37.82-5.075-25.642-5.075-25.642l-27.793,3.459a31.6,31.6,0,0,0,.231,6.7,31.7,31.7,0,0,0,6.173,1.068c5.442.51,9.268,0,11.394-.722s4.039-.948,4.847.929,3.932,13.4,4.559,24.283,2.243,28.656,4.624,31.462,7.993,10.375,8.163,19.388c.141,7.483.184,16.651,1.282,23.573a6.22,6.22,0,0,0,1.62-1.211,91.168,91.168,0,0,1-.8-9.463" transform="translate(-102.623 -511.825)"/><path class="h" d="M102.574,156.277l-2.605,8.284s-.824,4.686-2.958,7.219S92.6,182.749,92.6,182.749l15.379-2.39L107.034,158Z" transform="translate(-74.579 -125.858)"/><path class="i" d="M113.419,179.046l-.795,2.223s4.078-4.4,3.635-8.3a53.671,53.671,0,0,1-.1-7.834H120l.949,22.358-12.245,1.726c.773-2.868,2.38-7.843,4.712-10.172" transform="translate(-87.547 -132.99)"/><path class="d" d="M27.53,278.117,24.8,276.993s-5.631,1.5-8.032,5.176-2.852,10.882-4.5,15.609-4.577,13.357-6.078,15.533-3.6,5.7-3.527,8.105,8.855,3.827,12.982-2.026,10.206-28.764,10.206-28.764Z" transform="translate(-2.14 -223.076)"/><path class="d" d="M29.646,358.09c-1.644,3.038-2.255,3.244-2.856,5.332s-3.316,9.009-8.2,13.281c-2.1,1.838-1.367,4.814.187,7.646a10.114,10.114,0,0,0,8.65-4.1c3.591-5.093,8.658-23.1,9.914-27.689-2.6,1.29-6.609,3.528-7.7,5.534" transform="translate(-13.926 -283.931)"/><path class="j" d="M51.347,282.169c-2.4,3.677-2.852,10.881-4.5,15.609-.364,1.042-.79,2.274-1.249,3.584a43.492,43.492,0,0,1,10.424,4.1c2.449-7.454,4.407-14.836,4.407-14.836l1.684-12.509-2.732-1.124s-5.631,1.5-8.032,5.176" transform="translate(-36.721 -223.076)"/><path class="j" d="M72.525,334.411c2.449-7.454,4.407-14.836,4.407-14.836l.893-6.637c-1.986.688-4.362,1.714-4.757,2.8-.7,1.91-1.549,6.025-3.181,8.791-1.013,1.718-2.679,4.857-3.8,6.99a53.425,53.425,0,0,1,6.435,2.9" transform="translate(-53.226 -252.024)"/><path class="j" d="M80.811,264.075s-7.033,1.565-9.735,2.391c0,0-2.4,5.779-2.7,8.555s-.3,6.37-1.351,9.489-6.3,9.871-5.853,16.326,2.852,10.73,2.927,13.431-.826,10.28-2.026,13.507a55.412,55.412,0,0,0-1.951,6.754s.6,7.279,12.832,11.106,25.664-.45,29.041-8.48c0,0-4.8-9.154-4.577-14.407s3.527-21.087,3.527-21.087l4.577-24.088s-4.243-6.829-9.68-10.731-15.028-2.766-15.028-2.766" transform="translate(-48.418 -212.548)"/><path class="d" d="M146.758,242.53s.628,7.348.512,9.253-6.466,14.144-1.559,15.357,13.8-5.658,16.224-9.584a19.271,19.271,0,0,0,3.175-9.757Z" transform="translate(-115.851 -195.321)"/><path class="j" d="M172.336,400.59l2.627-13.828-4.791,2.263s-4.878,5.394-4.935,8.091,1.227,9.814-3.593,12.339-10.638-.212-12.876-1.7c0,0,6.025,7.9,9.583,9.677s4.59,4.705,5.05,8.837c.328,2.958,1.627,11.262,2.066,17.26,3.729-1.732,6.6-4.3,7.919-7.441,0,0-4.8-9.154-4.577-14.407s3.527-21.087,3.527-21.087" transform="translate(-119.811 -311.479)"/><path class="k" d="M151.375,123.85c0,2.91.635,13.1,3.382,17.439s6.447,7.927,10.569,7.715,7.4-9.044,8.561-12.819.951-10.75.581-13.974-3.594-12.313-12.313-11.732-10.781,7.5-10.781,13.37" transform="translate(-121.91 -88.953)"/><path class="k" d="M231.08,212.89a18.588,18.588,0,0,1-1.9.944c-1.313.551-4.363,1.78-4.956,2.711a8.483,8.483,0,0,0-.593,5.041c.381,1.483.255,2.627-1.227,2.8a28.094,28.094,0,0,1-1.026,7.118c.108,0,.216.008.326,0,4.122-.211,7.4-9.044,8.561-12.819a24.8,24.8,0,0,0,.819-5.793" transform="translate(-178.283 -171.451)"/><path class="h" d="M151.136,119.035c-.83,0-4.967-1.425-6.922-.325s-1.709,3.664-3.948,4.234-2.607,2.647-1.954,3.5c0,0-.754-1.894,0-2.932a5.38,5.38,0,0,1,1.831-1.547s-3.431,2.289-4.678-.285c-.5-1.04-5.024-1.274-5.024-1.274a30.966,30.966,0,0,1,3.107-11.3c2.763-5.171,6.145-7.659,12.661-7.659,9.954,0,14.566,13.78,11.638,17.095a4.812,4.812,0,0,0-3.9-.9c-2.02.591-2,1.385-2.814,1.385" transform="translate(-105.051 -81.704)"/><path class="i" d="M169.681,225.325a5.6,5.6,0,0,1-.285-1.095,1.656,1.656,0,0,0,.285,1.095" transform="translate(-136.42 -180.583)"/><path class="i" d="M156.244,101.452a17.69,17.69,0,0,0-4.611.548c3.767,2.5,9.458,7.912,9.458,14.906,0,0-5.036-2.4-8.7.568,0,0,5.116-2.271,8.084.305,0,0-4.672-1.31-7.029.306s-5.947,5.2-9.536,1.472c0,0-.454.468-1.015,1.116,1.162.191,2.354.505,2.6,1.01.966,1.993,3.239,1.071,4.218.553a5.289,5.289,0,0,0-1.371,1.28,2.526,2.526,0,0,0-.285,1.837,2.724,2.724,0,0,1,2.239-2.407c2.239-.57,1.995-3.135,3.948-4.234s6.091.325,6.922.325c.814,0,.794-.794,2.814-1.385a4.811,4.811,0,0,1,3.9.9c2.928-3.315-1.684-17.1-11.638-17.095" transform="translate(-115.085 -81.704)"/><path class="k" d="M143.253,193.6s-2.644-3.681-2.979-2.041a11.475,11.475,0,0,0,.837,5.889c.77,2.008,2.911,3.347,2.811,2.242s-.669-6.09-.669-6.09" transform="translate(-112.875 -153.935)"/><path class="d" d="M223.831,419.836c-.648.75-3.807,3.725-4.789,5.73s-3.6,5.485-3.971,6.877-.123,1.638,1.187,1.433,5.117-5.812,5.772-5.567.573,3.807.369,4.38a12.776,12.776,0,0,1-2.743,3.847c-1.065.778-3.233,2.292-2.21,2.743a3.631,3.631,0,0,0,1.928.286,12.372,12.372,0,0,0,3.884-.7c1.8-.7,3.562-3.684,4.789-5.69s1.555-8.228,2.17-10.889,2.988-14.778,3.97-19.69a53.16,53.16,0,0,0,.983-14.082c-.287-4.748-.819-10.93-.532-14.491s.211-19.239.638-23.005-.064-8.842-1.211-11.052-3.028-4.707-4.994-4.666-8.637,5.485-7.532,14.286,2.21,24.151,2.374,26.935a90.887,90.887,0,0,1,.409,9.251c-.123,3.415,0,8.515.163,13.919s.7,15.309.368,16.865a12.507,12.507,0,0,1-1.022,3.275" transform="translate(-173.082 -270.037)"/><path class="j" d="M241.574,328.08l-1.238.418s-3.494.652-6.293,5.343-.864,7.037-.864,7.037l6.884-3.976Z" transform="translate(-187.266 -264.219)"/><path class="j" d="M247.227,339.11c.465,3.162,5.291-7.953,8.081-9.168,4.6-2,6.193.8,6.193.8-.787-2.19-4.861-9.172-7.137-10.018,0,0-9.147,4.721-7.137,18.389" transform="translate(-198.872 -258.292)"/><path class="j" d="M252.483,347.78a8.573,8.573,0,0,1,3.232-6.685,16.123,16.123,0,0,0-7.255,2.93,20.662,20.662,0,0,0-1.23,11.493c.465,3.162,5.291-7.953,8.081-9.168a7.776,7.776,0,0,1,2.933-.721h0s-1.893-1.471-5.761,2.151" transform="translate(-198.874 -274.701)"/><path class="d" d="M52.852,349.556a1.441,1.441,0,0,0-.543-2.049c-1.125-.643-1.808-.482-3.576-.362s-5.264,1.567-7.574,3.054-3.034,3.416-4.409,5.535a12.136,12.136,0,0,1-3.344,3.344c-1.546.683-8.981,4.339-8.981,4.339-1.806.667-11.628,4.319-14.245,5.7s-8.185,4.476-9.053,5.866S-.517,380.924.441,382.9s6.037,3.25,13.835-1.341a106.946,106.946,0,0,0,14.709-10.746h-.1l7.915-5.706s3.656-1.446,5.3-2.17,5.545-2.251,7.011-2.993a5.217,5.217,0,0,0,2.431-3.034,19.508,19.508,0,0,1,.925-2.692c.6-1.165,0-1.808.327-2.049s.034-1.286-.127-1.446,0-.8.182-1.165" transform="translate(0 -279.484)"/><path class="d" d="M59.885,350.589h0a2.2,2.2,0,0,1-2.035,1.87,2.5,2.5,0,0,0-1.969.964,9.3,9.3,0,0,1,1.407-.281,16.214,16.214,0,0,1,2.049,0s.281,1.526.281,1.928-2.17,1.687-2.572,2.009-.562,1.969-.522,2.411-1.125,1.567-2.25,2.009-7.674,2.411-7.795,2.451a5.873,5.873,0,0,0-.161,1.567c0,.241-.563.321-3.536,1.366-1.936.681-5.916,4.034-8.231,5.627-2.174,1.442-16.367,11.611-25.525,14.445,2.146,1.055,6.529.991,12.52-2.536a106.941,106.941,0,0,0,14.709-10.746h-.1l7.915-5.706s3.656-1.446,5.3-2.17,5.545-2.251,7.011-2.993a5.218,5.218,0,0,0,2.431-3.034,19.5,19.5,0,0,1,.925-2.692c.6-1.165,0-1.808.327-2.049s.034-1.286-.127-1.446,0-.8.182-1.165a1.468,1.468,0,0,0-.235-1.829" transform="translate(-7.269 -282.347)"/><path class="l" d="M246.184,830.626a8.365,8.365,0,0,0-3.256,2.221,35.59,35.59,0,0,1-3.462,4.171,10.439,10.439,0,0,1-2.757,1.476c.133-.009.215-.022.215-.022a12.374,12.374,0,0,0,3.884-.7c1.8-.7,3.562-3.684,4.789-5.69a6.118,6.118,0,0,0,.586-1.461" transform="translate(-190.633 -668.944)"/><path class="e" d="M281.215,1213.53s-1.311,7.141-2.162,10.351-2.227,8.254-2.293,10.94.2,5.7,4.782,5.7,8-2.583,9.052-4.466c1.77-3.165.316-9.816.906-13.747s.459-9.892,0-11.465c0,0-.765,2.978-2.107,3.553s-3.594-1.007-5.271-.815-2.031.28-2.908-.052" transform="translate(-222.882 -975.152)"/><path class="f" d="M291.531,1319.917a10.793,10.793,0,0,0,.91-4.943c-.055,1.522-.494,2.813-2.446,4.943-2.287,2.5-5.845,2.584-9.726,2.2a6.345,6.345,0,0,1-2.353-.654c.421,1.637,1.572,2.919,4.563,2.919,4.586,0,8-2.583,9.052-4.466" transform="translate(-223.819 -1059.014)"/><path class="m" d="M530.416,1114.481a7.8,7.8,0,0,0,.02-1.2,30.133,30.133,0,0,0-1.466-5.735l-15.662,4.554s-2.8,1.976-6,3.926-9.493,5.783-11.016,8.854c-1.062,2.137-1.6,4.23-.987,5.587,0-.012-.013-.022-.018-.035a2.926,2.926,0,0,0,.087,1.073c.28.687,2.31,2,6.056,1.661s7.524-1.375,9.9-2.918l.055-.038a.748.748,0,0,0,.094-.062l.039-.032c.216-.148.429-.308.635-.479,1.84-1.345,6.048-4.165,8.3-4.942.03-.01.057-.022.085-.032.9-.192,4.655-1,6.215-1.444,1.775-.506,3-1.961,3.555-4.272a11.649,11.649,0,0,0,.11-4.523c0,.02,0,.042-.006.063" transform="translate(-398.686 -891.958)"/><path class="n" d="M520.838,1176.884c-3.727,1.221-7.4,5.325-13.143,7.423s-9.669.579-11.444-.335c.005.01.008.021.013.032,0-.012-.013-.022-.018-.035a2.926,2.926,0,0,0,.087,1.073c.28.687,2.31,2,6.055,1.661s7.524-1.375,9.9-2.918l.055-.038a.75.75,0,0,0,.094-.062l.04-.032c.216-.148.428-.308.635-.479,1.84-1.345,6.048-4.165,8.3-4.941l.085-.032c.9-.192,4.655-1,6.214-1.444a4.739,4.739,0,0,0,3.026-2.731c-2.508.906-7.042,1.923-9.9,2.86" transform="translate(-399.644 -945.499)"/><path class="m" d="M732.114,1208.739s-3.974,11.561-4.7,14.162-3.613,11.055,0,12.5,10.621-.145,13.583-3.613,1.663-8.6,2.1-11.344.939-5.563.939-5.563l-1.3-8.147Z" transform="translate(-584.393 -971.842)"/><path class="n" d="M727.806,1264.306c3.613,1.445,10.621-.145,13.583-3.613s1.663-8.6,2.1-11.344.939-5.563.939-5.563l-.186-1.16c-1.383,2.8-1.209,9.4-1.209,11.522,0,2.489-.766,3.876-2.823,6.268s-7.273,3.253-11.1,2.823a4.9,4.9,0,0,1-2.985-1.457,2.962,2.962,0,0,0,1.685,2.524" transform="translate(-584.781 -1000.748)"/><path class="o" d="M660.564,785.23c.794.794,3.82,3.458,9.545,1.729s8.517-6.527,7.343-8.715-1.76-2.387-.732-4-1.247-2.365-.7-7.583c.184-1.762.916-20.7,0-26.872s-5.94-11.307-6.879-21.292-.94-43.814-.94-43.814H641.182s5.726,37.647,8.957,49.541,10.573,43.771,10.426,47.656-2.085,5.472-1.116,6.367a3.16,3.16,0,0,1,.969,2.364c0,.294-1.226,3.25.146,4.622" transform="translate(-516.376 -543.352)"/><path class="o" d="M537.955,693.7s1.865,17.153,4.475,28.215,6.04,35.549,4.946,36.791-1.715,2.735-1.093,3.48-4.971,6.592-.5,8.392,18.3-1.1,19.925-3.539-.022-4.257-.562-5.006-1.065-.321,0-2.193-1.4-3.1-1.663-4.813,1.283-18.346.7-24.872-4.761-16.473-4.493-19.415,3.1-31.825,3.1-31.825l-24.176-1.872Z" transform="translate(-433.242 -545.26)"/><path class="o" d="M676.72,774.241c1.028-1.615-1.247-2.364-.7-7.583.184-1.762.916-20.7,0-26.872s-5.94-11.307-6.879-21.292-.94-43.814-.94-43.814H641.182s2.938,19.313,5.792,34.644c10.459.529,17.234-3.69,17.234-3.69s.778,11.019,1.037,14.389,4.278,8.815,3.112,11.083,1.166,4.732,3.759,5.9,1.685,5.445,1.556,14.778-1.815,14.778-4.149,19,4.019,1.226,4.407,3.43-4.915,5.112-8.181,6.726,1.182,1.182,5.071.312,5.314.092,2.326,2.685c-2.012,1.746-7.189,2.513-10.356,2.829a10.118,10.118,0,0,0,7.319.2c5.724-1.729,8.517-6.527,7.343-8.715s-1.76-2.387-.732-4" transform="translate(-516.376 -543.352)"/><path class="o" d="M558.048,768.1c-1.042.99-4.99,2.14-8.6,3.042,5.883.094,14.961-2.146,16.259-4.094,1.626-2.439-.022-4.257-.562-5.006s-1.065-.321,0-2.193-1.4-3.1-1.663-4.813,1.283-18.346.7-24.872-4.761-16.473-4.493-19.415,3.1-31.824,3.1-31.824l-24.176-1.873-.66,16.657s.4,3.692,1.093,8.755c6.8,5.891,15.764,6.767,15.764,6.767s2.741,5.362,1.311,7.508-1.072,2.979.953,5.482,2.383,4.767,3.218,11.44-1.549,17.637-3.814,19.9,0,3.933,4.051,3.933,1.557,3.772-4.8,5.619-4.261,2.842.029,1.889,4.29,1.192,2.283,3.1" transform="translate(-433.242 -545.26)"/><path class="p" d="M347.006,140.423a4.232,4.232,0,0,0,.454,2.588c.7,1.271,2.725,4.723,3.247,5.653s2.838,4.926,3.2,6.583l7.991-3.519s-2.224-5.425-2.292-5.948,2.06-3.116,2.475-4.11-1.5-3.518-1.5-3.518l-4.2-4.683-2.633-3.558-.784-.079s-.1,2.486-1.259,3.439-3.246,5.4-3.246,5.4Z" transform="translate(-279.426 -104.562)"/><g class="q" transform="translate(67.536 25.272)"><g class="r"><path class="p" d="M356.383,133.47l-2.633-3.558-.784-.08s-.1,2.486-1.259,3.439-3.246,5.4-3.246,5.4l-1.454,1.747a4.232,4.232,0,0,0,.454,2.588c.7,1.271,2.725,4.722,3.247,5.653s2.838,4.926,3.2,6.583l4.641-2.043c-.577-2.369-1.475-5.833-1.475-5.833a9.453,9.453,0,0,0,2.533-1.59c-.068-.522,2.06-3.116,2.475-4.11s-1.5-3.517-1.5-3.517Z" transform="translate(-346.962 -129.832)"/></g></g><path class="o" d="M377.064,216.43a31.325,31.325,0,0,1-9.468,4.108l2.69,6.011,9.449-4.056Z" transform="translate(-296.043 -174.302)"/><path class="s" d="M375.578,173.619a24,24,0,0,1-10.835,5.558s10.308,28.385,12.407,30.407,6.49.924,10.164-1.558,20.352-18.562,20.352-18.562l3.556-27.2s-6.012,1.527-9.783,6.013-7.11,11.882-9.353,14.841-8.637,8.256-8.637,8.256Z" transform="translate(-293.746 -130.679)"/><path class="t" d="M577.874,211.368c1.788-9.538,6.557-32.191,6.557-32.191s-7.141-9.013-12.992-13.412c-3.636-2.734-8.879,1.5-12.327,5.1l.864-7.172-6.083-1.139s-7.78-.287-8.755-.287-4.666,3.378-5.963,10.543-2.345,24.16-2.834,29.684-2.381,36.854-2.8,42.1-2.516,36.714-2.516,36.714,4.755,7.763,9.161,9.161,6.638-.753,6.781-5.8h0c.544,4.812,1.6,10.962,9.565,10.753,9.062-.238,19.791-2.981,24.917-8.226,0,0-1.073-30.283-3.457-41.728a93.655,93.655,0,0,1-.118-34.1" transform="translate(-427.661 -130.679)"/><path class="o" d="M626.995,186.08s.227,6.71.6,8.625c0,0,6.6-4.762,8.893-6.132s12.708-8.4,12.732-9.942a34.132,34.132,0,0,0-.9-5.384l-1.142-1.029-18.343,1.741s-2.111,6.74-1.843,12.121" transform="translate(-504.931 -138.696)"/><rect class="u" width="2.732" height="16.351" transform="translate(67.467 22.154) rotate(-39.699)"/><path class="u" d="M315.468,65.259l-.241.2,7.038,8.479.241-.2Z" transform="translate(-253.868 -52.556)"/><path class="s" d="M602.343,201.32s-.893-12.337,2.429-19.312l-3.124-1.575s-4.827,8.059-6.031,12.068l5.6.4a83.9,83.9,0,0,0,1.122,8.418" transform="translate(-479.68 -145.312)"/><path class="s" d="M630.171,192.7s8.706-7.391,12-9.343,9.968-4.92,8.556-13.628l3,4.073s1.627,8.367-10.164,16.854l-3.138-4.7Z" transform="translate(-507.508 -136.69)"/><path class="v" d="M638.776,131.9s-1.289.849,1.87,8.219c0,0,11.083-1.028,14.19-5.673s2.218-5.811,2.218-5.811-.624-1.086-.254-5.135-8.611-6.093-8.611-6.093l-8.547,6.6-.558,6.905s.1-1.919-.309.991" transform="translate(-514.228 -94.554)"/><path class="v" d="M588.313,27.731a11.4,11.4,0,0,1-1.478,3.291c-.725,1.115-1.924,3.375-1.478,4.016s1.84.864,1.84.864a24.465,24.465,0,0,1,1,3.848c.139,1.339,0,3.988,2.148,4.629s9.108-.275,12.186-1.645c3.633-1.617,11.377-7.752,11.852-8.421a28.462,28.462,0,0,0,3.988-12.158A13.557,13.557,0,0,0,608.055,8.378c-6.693-1.533-12.91,1.685-15.616,3.994s-5.159,7.44-5.242,10.4.446,3.235.7,3.737a3.328,3.328,0,0,1,.419,1.226" transform="translate(-471.339 -6.426)"/><path class="v" d="M594.531,108.374c-1.858-.675-4.7-1.515-6.36-1.991a1.872,1.872,0,0,1,.143.6,11.4,11.4,0,0,1-1.478,3.291c-.725,1.115-1.924,3.375-1.478,4.016s1.84.864,1.84.864a24.449,24.449,0,0,1,1,3.848c.139,1.339,0,3.988,2.148,4.629a10.825,10.825,0,0,0,2.982.233c-.585-2.191.791-6.484.586-8.376-.252-2.315,2.2-3.039,4.155-3.764s-.781-2.342-3.542-3.347" transform="translate(-471.339 -85.675)"/><path class="w" d="M599.61,7.67c-.556,1.046-1.227,4.991,1.17,5.1s7.725.53,9.37,2.4.53,4.21,1.785,4.49,3.04,2.008,3.04,3.263,1.617,2.622,1.617,2.622,3.231-2.286,5.032-1.533,3.417,4.935,3.417,4.935a27.919,27.919,0,0,0,4.128-8.422c1.841-5.633,1.227-13.635-6.051-17.93S608.226.085,604.6,2.6s-4.044,3.29-4.991,5.075" transform="translate(-482.468 -0.001)"/><path class="x" d="M666.7,100.181s3.231-2.286,5.032-1.533,3.417,4.936,3.417,4.936a26.766,26.766,0,0,0,3.79-7.434c-5.449-.667-13.682-2.535-17.639-3.473.082.839.123,1.482.743,1.62,1.255.279,3.04,2.008,3.04,3.263s1.618,2.622,1.618,2.622" transform="translate(-532.58 -74.637)"/><path class="v" d="M700.07,121.191c.642-1.26,1.98-2.371,3.457-1.84a2.757,2.757,0,0,1,.921,4.434c-1.45,1.812-3.933,3.458-4.769,3.123s-1.115-2.76.391-5.717" transform="translate(-562.936 -96.01)"/><path class="y" d="M368.72,140.452l2.1-1.745-5.8-6.981-3.931-.458Z" transform="translate(-290.808 -105.717)"/><path class="p" d="M348.249,140.375a1.692,1.692,0,0,1,2,0c.635.6,3.2,2.808,4.4,3.984s2.353,1.882,1.906,2.564-.376,1.435-1.859.682-2.47-1.317-2.47-1.317,2.234,2.588,2.611,3.1.259,2.023-.376,2.07-1.435-.753-1.435-.753.095,1.081-.858.858a12.643,12.643,0,0,1-2.952-1.376c-.87-.494-1.246-.894-1.811-.729s-2.023,1.576-2.234.353a4.45,4.45,0,0,1,.118-2.117s-.447-2.776,1.67-3.387c0,0-.066-2.577,1.294-3.937" transform="translate(-277.922 -112.783)"/><g class="q" transform="translate(71.553 34.743)"><g class="z"><path class="p" d="M371.143,181.673a2.4,2.4,0,0,0-1.21-1.951c-.953-.545-2.338-1.233-2.338-1.233s1.794,1.256,2.248,1.641a3.793,3.793,0,0,1,.981,2.358c.372-.212.319-.816.319-.816" transform="translate(-367.595 -178.489)"/></g></g><g class="q" transform="translate(70.1 30.14)"><g class="aa"><path class="p" d="M364.449,158.34l-.117-.134s.677.386,1.741.941c-.831-.869-2.471-2.567-3.218-3.214-1.022-.886-2-1.476-2.362-.795a2.572,2.572,0,0,0-.363,1.067s1.794-.286,2.339.368a17.5,17.5,0,0,0,1.979,1.767" transform="translate(-360.131 -154.841)"/></g></g><path class="p" d="M400.438,148.593a2.839,2.839,0,0,1,1.2,1.385,3.828,3.828,0,0,0,1.544,2.18,2.507,2.507,0,0,1,1.089,2.565c0,1.249.454,2.5-1.135,1.794s-4.353-3.655-4.231-6.107,1.529-1.816,1.529-1.816" transform="translate(-321.258 -119.61)"/><g class="q" transform="translate(77.647 28.91)"><g class="ab"><path class="p" d="M402,150.877l0,0a4.417,4.417,0,0,1-.364-.9,2.839,2.839,0,0,0-1.2-1.385s-1.407-.636-1.529,1.816a6.356,6.356,0,0,0,1.739,4.034c-.045-1.515.563-2.337,1.356-3.567" transform="translate(-398.905 -148.519)"/></g></g><path class="p" d="M379.49,120.405a2.45,2.45,0,0,0-1.8,1.66c-.064.753,2.969,5.289,4.133,5.857a1.406,1.406,0,0,0,1.98-1.843c-.588-1.516-3.133-5.7-4.31-5.674" transform="translate(-304.168 -96.968)"/><path class="u" d="M607.243,384.51c.046.406.1.823.153,1.244-.029-1.289-.065-2.395-.158-3.154-.659-5.4-2.085-57.2.716-80.306a117.25,117.25,0,0,1,2.911-15.948l-.4-.108a117.58,117.58,0,0,0-2.922,16.006c-2.8,23.132-1.375,75-.715,80.407.112.918.14,2.37.175,4.053,0,.011,0,.024,0,.035a13.091,13.091,0,0,0,.243-2.228Z" transform="translate(-487.937 -230.521)"/><path class="p" d="M504.08,423.929a61.544,61.544,0,0,1-6.673-3.776c-1.6-1.258-5.144-4-6.669-3.544a37,37,0,0,1-5.334,1.105c-1.372.152-5.221-.077-6.021,1.3a3.221,3.221,0,0,0-.19,2.744,1.646,1.646,0,0,0-.458,1.753,4.71,4.71,0,0,0,1.086,1.963,3.293,3.293,0,0,0,.4,2.839s1.029,2.9,1.6,3.2,1.9.648,5.487.457,8.567-.972,9.7-.648,6.385,2.668,6.385,2.668Z" transform="translate(-385.491 -335.475)"/><g class="q" transform="translate(93.172 83.34)"><g class="ac"><path class="p" d="M503.583,440.517a17.877,17.877,0,0,0-7.7-2.834c-5.068-.381-9.679.229-10.67,0s-1.448-2.1-1.334-2.515-.571-1.067-.876-1.41-1.6-1.067-2.058-1.791a9.942,9.942,0,0,1-1.412-3.815,1.211,1.211,0,0,0-.15.194,3.221,3.221,0,0,0-.191,2.744,1.645,1.645,0,0,0-.457,1.753,4.709,4.709,0,0,0,1.086,1.963,3.293,3.293,0,0,0,.4,2.839s1.029,2.9,1.6,3.2,1.9.648,5.487.457,8.567-.972,9.7-.648,6.385,2.668,6.385,2.668Z" transform="translate(-478.664 -428.153)"/></g></g><path class="o" d="M573.7,439.578l-2.133-1.029a20.966,20.966,0,0,1-2.477,10.784l3.734,1.524s2.248-5.678.877-11.279" transform="translate(-458.315 -353.185)"/><path class="s" d="M572.894,298.773a18.054,18.054,0,0,0,2.9-12.627l22.116,8.531s7.1-21.581,9.414-28.316,6.595-14.866,10.829-17.21a20.984,20.984,0,0,1,5.9,15.254c-.507,9.2-5.287,20.2-8.546,27.374s-7.6,18.54-12.238,18.177-30.371-11.184-30.371-11.184" transform="translate(-461.38 -200.654)"/><path class="ad" d="M585.544,119.216s-2.275,4.507-2.43,5.024,3.58,9.672,5.229,10.293,8.536-.458,11.92-1.677,10-6.9,10-6.9-7.51,4.576-10.168,5.478c0,0-2.518-4.91-1.764-6.473.414-.858,9.148-4.8,9.148-4.8l.5-.436-10.3,3.693a25.77,25.77,0,0,1-4.629-.57c-2.575-.55-5.33-3.324-7.5-3.627" transform="translate(-469.607 -96.011)"/><path class="ae" d="M645.468,172.6s4.482-.533,4.02-1.565-1.209-2.881-1.209-2.775.971,2.526.272,2.632-1.594-.577-1.645-.413,1.693.907,1.088,1.087-2.526,1.034-2.526,1.034" transform="translate(-519.827 -135.503)"/><path class="ae" d="M639.987,144.152s2.95.071,3.094.6.321,2.561.321,2.561-.3-1.956-.6-2.063-1.308.907-1.308.907l.658-1.123Z" transform="translate(-515.413 -116.093)"/><path class="ae" d="M630.608,163.074c.152.022.3.042.448.061Z" transform="translate(-507.86 -131.332)"/><path class="ae" d="M586.067,154.648l8.481,1.153c-2.774-.393-6.652-1.27-8.715-1.758.072.191.151.394.234.605" transform="translate(-471.8 -124.058)"/><path class="ae" d="M593.635,172.44q.209.447.426.887l6.265-.65Z" transform="translate(-478.084 -138.874)"/></g></g></g><g transform="translate(272.408 1418.39)"><g class="af"><g transform="translate(0 -0.001)"><g class="ag"><path class="k" d="M18.254,28.676c.084-1.245,5.956-1.07,7.557-.088s4,6.4,4,6.4S47.647,43.271,49.3,45.566s8.507,6.04,8.507,6.04l-1.417,5.421-1.07,1.333S50.4,54.807,48.9,54.628C43.766,54.272,32.565,42.361,27.5,38.273c-.711-.978-2.93-.8-4.619-2.487s-.18-4-.18-4-4.531-1.86-4.443-3.106" transform="translate(54.611 83.167)"/><path class="ah" d="M31.819,62.817a9.132,9.132,0,0,1-3.545-.255c-1.573-.539.3,7.074.3,7.074s5.6,4.942,7.8,5.5A2.783,2.783,0,0,0,39.963,72.9c.2-1.214-.679-3.046-1.373-5.669s-6.77-4.419-6.77-4.419" transform="translate(82.713 187.099)"/><path class="ai" d="M28.775,61.157a24.4,24.4,0,0,1-.1,6.188c.347,4.706,4.882,5.369,6.834,4.016a78.988,78.988,0,0,1,.431-9.82Z" transform="translate(85.793 182.978)"/><path class="k" d="M38.074,80.886c.854-8.69,2.4-15.94-.427-22.371V54.691l-9.684,1.78s.675.978.731,4.8C28.677,66.5,30.4,74.279,30.908,80.5c0,0,.75,1.721,3.533,1.92s3.633-1.537,3.633-1.537" transform="translate(83.66 163.633)"/><path class="aj" d="M42.107,49.7c-1.285,13.1-1.6,22.606-1.6,22.606s-3.557,3.732-11.425,2.667c-2.267-.443-1.03-16.618-1.03-16.618s15.293-13.3,14.052-8.654" transform="translate(82.932 145.755)"/><path class="ah" d="M33.927,65.69c-.244.679-8.3-.579-9.76,1.421s-.79,5.832,2.726,7.345c1.421.615,4.491.475,7.465.723,4.4.363,8.822.834,9.433-.22,1.206-2.092.2-4.415-.742-7.185Z" transform="translate(70.122 196.541)"/><path class="ai" d="M26.628,63.713c.435,3.5.559,6.451.044,7.9,0,0-2.73,3.229,1.844,4.335,6.611,1.6,7.277-2.251,7.277-2.251a26.028,26.028,0,0,1-.762-2.595,44.376,44.376,0,0,1-.148-7.221Z" transform="translate(77.382 190.626)"/><path class="k" d="M38.353,88.362c.164-7.465.423-18.115-2.695-22.315.391-2.172,1.417-7.908,1.417-7.908L31.391,55.56s-6.343-.359-6.686,1.357c.2,3.976,1.09,9.932,1.09,9.932a217.378,217.378,0,0,1,4.3,21.349s.79,2.208,4.2,2.383,4.064-2.219,4.064-2.219" transform="translate(73.916 166.14)"/><path class="g" d="M25.1,54.318s-1.066,27.9-.89,29.5c.18,7.2,16.95,5.277,16.443,1.062-.667-5.5-.176-16.351-.176-16.351s10.886-6,12.175-9.984-1.2-12.786-1.2-12.786H36.7l-9.245,2.459Z" transform="translate(72.384 136.909)"/><path class="k" d="M27.583,36.452a15.839,15.839,0,0,1,.1,7.4l.806,2.088,9.425.619,4.794-2.224,2.315-4.706-3.385-5.868L29.823,34.3l-2.663.711a10.848,10.848,0,0,0,.423,1.445" transform="translate(81.261 101.012)"/><path class="ak" d="M36.521,36.3c2.18,3.872-2.108,9.465-2.108,9.465l-2.778-6s2.707-7.333,4.886-3.469" transform="translate(94.65 105.231)"/><path class="o" d="M25.864,56.271s-1.545-4.02,9.521-17.481c4.4,3.2,15.868-3.337,15.868-3.337s4.5,1.725,5.445,7.868c1.625,14.666-6.914,22.135-5.445,32.135-10.4,12.93-26.666,9.193-26.666,9.193Z" transform="translate(73.563 106.074)"/><path class="k" d="M31.426,44.893c-2.882,6.008-2.455,14.068-5.88,23.273-.459,1.229-3.685,4.263-3.685,6.483,0,3.581,3.014,7.585,4.619,6.714S27.526,73.9,27.9,73.231s1.912-.483,2.355-.263-1.086,4,.136,4.263,3.621-3.868,3.022-6-2.044-2.579-2.224-3.693c1.685-4.882,7.888-14.307,8.211-19.832.08-2.679-7.03-4.351-7.976-2.814" transform="translate(65.407 132.562)"/><path class="aj" d="M36.087,39.7c-10.116-5.022-10.65,16.483-11.74,19.437-1.489,4,8.734,7.106,9.265,3.01.547-4.211,7.8-19.812,2.475-22.447" transform="translate(72.401 116.52)"/><path class="k" d="M29.162,31.672c-.192,1.924-3.589,7.661-3.253,10.263a9.126,9.126,0,0,0,2.615,4.722s1.912,1.477,3.517.679a2.927,2.927,0,0,0,2.754,1.772l6.088-.679,1.824-6.954-4-8.275L34.04,30.079s-4.687-.331-4.878,1.593" transform="translate(77.447 89.931)"/><path class="al" d="M38.6,28.573A54.412,54.412,0,0,0,27.845,30.19s3.289.962,3.11,1.944a6.853,6.853,0,0,0-4.531,3.018,10.885,10.885,0,0,1,4.359,8.886,22.894,22.894,0,0,1-1.249,4.443s3.736-.623,4.978,1.337-1.329,3.732-1.329,3.732,3.908,3.285,11.908.443c1.325-.471,7.034-4.176,7.022-10.575-.012-7.561-6.4-13.229-6.4-13.229l-.539,1.493a8.176,8.176,0,0,0-6.575-3.11" transform="translate(79.059 85.489)"/><path class="am" d="M62.52,28.473s2.667,3.21,4,4.447C61.1,37.9,55.411,45.1,48.122,50.875a5.5,5.5,0,0,1-3.7.886v7.732l3.517,2.758s4.263-2.044,4.263-4.8C62.6,47.682,74.963,42.788,80.74,33.275c1.429-2.351-9.481-14.355-9.481-14.355Z" transform="translate(132.916 56.608)"/><path class="an" d="M42.386,59.835s5.293.978,7.07,1.066S60.6,70.777,60.6,70.777s1.3,5.768.495,7.01-5.685,1.693-7.193.18S49.815,70.9,49.815,70.9,41.64,66.765,41.1,64.37a5.851,5.851,0,0,1,1.281-4.535" transform="translate(122.688 179.023)"/><path class="an" d="M49.18,61.637c-4.487.8-11.6-1.23-13.557-.084s-4.978,4.882.623,7.637S60.777,76.3,63.8,74.614,66.186,66.2,66.186,66.2,53.663,60.834,49.18,61.637" transform="translate(98.836 183.086)"/><path class="ao" d="M65.79,37.233c1.429,7.393-.966,50.985-.966,50.985A74.721,74.721,0,0,1,68.552,106c.806,9.82-2.547,35.009-3.728,37.42-3.07,6.263-18.407.93-16.714-5.425-.084-4.307,6.846-13.908,4.447-42.131A250.809,250.809,0,0,1,41.71,59.96l-.758-22.726s24.207-5.792,24.838,0" transform="translate(122.525 103.699)"/><path class="ap" d="M39.763,38.028c-1.832,4.607.443,15.2-1.022,18.127-5.908,24.714-1.062,41.472-2.535,54.4.068,2.631,9.872,29.333,4.938,47.468-.136,2.263,9.644,10.619,18.351,3.6,2.575-32.534-7.82-51.6-7.82-51.6L62.106,67.185S80.3,62.027,81.9,52.6c1.341-7.9-8.359-23.624-8.359-23.624s-32.083,7.185-33.776,9.05" transform="translate(106.873 86.701)"/><path class="j" d="M48.62,18.653c-9.9,9.209,7.062,17.265,9.573,19.153,2.527,1.892,11.664-6.1,9.5-9.752s-9.173-18.606-19.069-9.4" transform="translate(136.274 46.988)"/><path class="aq" d="M41.354,18.886,42.42,30.215l12.93-3.066-2.934-12Z" transform="translate(123.729 45.316)"/><path class="an" d="M37.777,36.461a43.624,43.624,0,0,0-1.066,4.706c16.267,9.241,33.864-9.581,33.864-9.581l-1.465-3.481Z" transform="translate(109.837 84.092)"/><path class="j" d="M67.864,22.851s-3.082,2.75-8.595.97c-7.377,7.385-22.331,12.69-23.2,17.96C34.91,48.8,42.156,52.232,40.2,60.978c-.579,2.619.846,9.776.048,13.421,8.674,9.868,29.508-7.11,31.153-8.619C76.155,48.715,85.48,40.663,86.738,31.47a20.482,20.482,0,0,0-4-15.261l-5.205-.695Z" transform="translate(107.545 46.418)"/><path class="al" d="M62.7,8.232C47.72,3.7,42.83,12.116,41.991,14.008c-5.062,11.381-2.12,24.578-2.966,28.538,3.058.531,4.922-2.846,4.922-2.846s2.4,7.549.4,14.088c2.631.483,9.022-6.447,10.271-8.136,1.425,4.8,7.337,6.535,7.337,6.535s-.5-2,1.062-2.267,2.8,3.557,3.2,8.535a22.337,22.337,0,0,0,1.333-11.337s3.333.335,3.333,3.07a15.321,15.321,0,0,0,1.062-7.329s1.333.531,1.2,1.725c1.2-3.261,6.619-31.193-10.443-36.35" transform="translate(116.468 20.679)"/><path class="am" d="M73.768,24.076c-4.89,9.417-11.289,24.886-12.842,26.087C52.795,58.65,45.769,71.807,37.506,78.2c-1.014.786-4.539.355-6.978,1.824-1.5.9-1.3,3.333-1.3,3.333s-5.856,8.175-3.768,10,8.447,1.7,10.8-.04c4.8-3.553,6.531-9.557,6.531-9.557S65.058,66.107,70.467,56.478c6.623-8.3,15.389-27.069,15.389-27.069s-6.092-4.918-12.088-5.333" transform="translate(74.823 72.035)"/><path class="j" d="M51.487,21C39.4,14.958,38.154,33.8,37.263,36.826s9.433,8.639,12.092,5.333S63.57,27.05,51.487,21" transform="translate(111.328 59.285)"/><path class="ar" d="M30.056,19.263s2.834,1.026,1.932,6.85-5.265,5.6-5.265,5.6L24.2,29.1l-.615-7.389,2.978-1.689Z" transform="translate(70.577 57.635)"/><path class="as" d="M28.873,19.62s2.567.727,1.369,5.349c-.8,4.7-4.1,4.036-4.1,4.036l-1.4-4.5,2.068-4.156Z" transform="translate(74.023 58.703)"/><path class="am" d="M28.412,19.811l7.205,11.68s-4.842-.575-6.012-3.186c-1.241-.224-3.493-.623-3.493-.623l-1.5-4.774Z" transform="translate(73.625 59.274)"/><path class="at" d="M25.725,19.263a41.914,41.914,0,0,0,6.595,1.421c-4.83,3.082-2.726,9.385-2.726,9.385l-6-.4Z" transform="translate(70.577 57.635)"/><path class="ah" d="M27.931,16.7c1.094,8,5.928,31.844,5.928,31.844L55.7,56.159s-4.531,3.517-3.333,12.447c-2.168-.259-25.62-3.952-29.353-8.427s-8-50.55-8-50.55S26.57.164,27.931,16.7" transform="translate(44.93 20.743)"/><path class="ar" d="M20.116,10.261c7.788,17.425.739,37.157.739,37.157L15.194,21.235S18.2,7.327,20.116,10.261" transform="translate(45.459 29.484)"/><path class="au" d="M13.751,6.107c-.407,1.565-2.726,2.906-2.726,2.906l-1.585,3.1.926,10.662L12.9,27.756,20.5,29.8l4.351-1.158L27.7,24.115V16.558l-5.681-8.89s-7.86-3.118-8.267-1.561" transform="translate(28.244 16.971)"/><path class="av" d="M17.037,17.355,12,33.678l8.06,17.257,5.154-13.744-.974-19.157Z" transform="translate(35.89 51.926)"/><path class="o" d="M9.07,51.179s-2.1,8.148-.24,10.271,12.511,2.455,12.511,2.455,12.092,6.623,18.75,4.639c2.551-.758,3.313-6.643.447-7.389-8.064-2.1-14.307-8.231-14.307-8.231Z" transform="translate(24.115 153.125)"/><path class="aw" d="M30.536,22.716c6.906,24.047,6.822,70.018,5.489,76.741-4.934,16.4-7.6,38.933-7.066,42.793-1.066,2.535-14.4,7.07-19.732-2.655,1.07-27.876,9.732-43.2,9.732-43.2S9.407,67.868,9.227,64.14,7.758,34.121,7.758,34.121L11.347,22.8l15.261-.08s2.7-2.6,3.928,0" transform="translate(23.211 64.509)"/><path class="aw" d="M21.273,20.466a47.108,47.108,0,0,1,.87,5.525,28.762,28.762,0,0,1-11.581,5.677l.471-7.625Z" transform="translate(31.604 61.234)"/><path class="ax" d="M17.47,6.8s-.411,7.11,1.6,9.641c2.87,3.6,7.417,7.736,9.7,7.042,2.667-.818,2.8-6.535,2.8-6.535l7.2,1.329a31.746,31.746,0,0,1,1.8,19.069C38.48,46.759,32.257,56.567,31.191,61.9s-12.8,7.066-12.8,7.066L10.237,49.074,7.323,15.61l6.966-8.2Z" transform="translate(21.91 20.334)"/><path class="ah" d="M13.458,8.755c8.3,15.768,1.07,30.043,2.691,90.649,1.513-.671,5.992-2.008,8.04-7.808-1.381-23.832,7.585-72.749-1.118-81.4-.715-2-9.161-1.88-9.613-1.437" transform="translate(40.265 25.389)"/><path class="o" d="M14.055,52.986c3.046,4.69,9.748,9.185,10.834,10.339s1.245,5.5.814,6.152c-1.337,2-8.491,4.132-13.513,1.465s-9.98-10.6-10.666-12,0-3.728,0-3.728S12.011,52.5,14.055,52.986" transform="translate(3.642 158.356)"/><path class="aw" d="M9.163,34.848c-1.868,6.914-.267,31.983-1.6,33.939C-2.661,90.3.365,119.269.9,120.694c2,5.824,16.934,7.557,19.065-2.044C17.251,96.515,26.248,74.8,26.248,74.8s6.647-28.79,7.449-36.865S11.031,27.926,9.163,34.848" transform="translate(0.206 91.582)"/><path class="ah" d="M34.915,6.382C27.25,10.174,19.534,10.961,10.037,22.4A124.087,124.087,0,0,0,7.151,38.118c.3,20.043-5.924,52.574-5.7,66.885,4.048,17.6,31.061,11.912,33.728,9.066,2.355-30.063,7.469-57.623,7.645-70.96S35.617,17.827,34.915,6.382" transform="translate(4.322 19.096)"/><path class="ar" d="M9.643,14.924,17.36,42.473l4.375,2.176-.467,4.4-8.531-1.685L7.58,18.9Z" transform="translate(22.677 44.654)"/><path class="v" d="M40.876,13.515c-.463,2-3.066,4.407-3.066,4.407a41.84,41.84,0,0,1-1.4,5.856c-.862,2.539-6.331,7.469-6.331,7.469a9.866,9.866,0,0,1-5.07.667c-2.463-.463-8.6-7.732-9.6-9.2s-.4-5.07-.4-5.07-2.8-1.13-2.866-3.261a11.409,11.409,0,0,1-1.465-3.6l2.064-5.928,7.736-1.2L35.946,5.116s5.4,6.4,4.93,8.4" transform="translate(31.957 10.925)"/><path class="ay" d="M13.267,25.306s-.331-4.667,2.068-4.667,4.491,3.824,4.754,6.491c2.267-2.2,6.307.1,11.241-5.625,4.6,3.665,4.471-.068,10.666,2.93.451-.359,4.866-2.463,2-10.93C35.734-7.16,22.868,2.041,22.868,2.041s-8.8-2.2-11.668,9.8,2.068,13.465,2.068,13.465" transform="translate(30.835 0)"/><path class="v" d="M16.089,32.067s2.766,6.643,3.852,7.7,3.373,2.675,4.858,2.691,5.784-.878,6.954-1.9a4.733,4.733,0,0,0,1.261-3.281c.22-1.84-3.317-1.178-3.317-1.178L28.54,32.89s2.934,2.387,3.289.651c.5-1.034-4.575-6.14-6.168-6.6s-4.076-1.186-4.076-1.186L18.732,27.54Z" transform="translate(48.137 77.061)"/><path class="aw" d="M19.147,25.3s3.557,1.6,6.223,1.417c0,8-4.806,8.982-4.806,8.982l-5.681-2.044Z" transform="translate(44.532 75.691)"/><path class="ar" d="M3.486,16.2S8.939,51.574,11.606,54s19.612,8.914,19.612,8.914L31.737,59,18.54,36.162Z" transform="translate(10.43 48.476)"/><path class="ah" d="M7.709,10.941C26.543,4.742,24.172,29.8,24.172,29.8l5.405,29.548S53.6,68.776,55.884,70.153C57.5,72.868,54.71,82.465,49.6,82.776c-15.173-3.042-30.929-10.471-33-11.892S7.526,38.326,4.855,32.462s-3.9-19.293,2.854-21.52" transform="translate(8.146 29.786)"/><path class="az" d="M43.785,23.491l-22.079-5.1.543-.595L44.332,22.9l7.445,24.367-.555.595Z" transform="translate(64.943 53.24)"/><path class="ba" d="M51.226,47.423l-22.087-5.11L21.705,17.943l22.083,5.106Z" transform="translate(64.941 53.684)"/><path class="bb" d="M42,23.458,21.913,18.812l.5-.535L42.5,22.919l6.762,22.171-.5.539Z" transform="translate(65.562 54.684)"/><path class="ah" d="M48.766,45.228,28.683,40.582l-6.77-22.171L42,23.057Z" transform="translate(65.56 55.084)"/><path class="bc" d="M38.561,22.607,22.513,18.895l.5,1.653L39.068,24.26Z" transform="translate(67.357 56.533)"/><path class="bb" d="M39.765,26.536,23.713,22.827l.5,1.653,16.052,3.708Z" transform="translate(70.948 68.299)"/><path class="bb" d="M39.559,25.877,23.511,22.164l.5,1.657,16.052,3.708Z" transform="translate(70.343 66.315)"/><path class="bb" d="M33.642,23.9,23.311,21.508l.507,1.653,10.323,2.387Z" transform="translate(69.745 64.352)"/><path class="bb" d="M39.15,24.551,23.107,20.838l.5,1.653,16.048,3.716Z" transform="translate(69.134 62.347)"/><path class="bb" d="M38.952,23.888,22.9,20.176l.5,1.653,16.044,3.712Z" transform="translate(68.529 60.366)"/><path class="bb" d="M38.749,23.229,22.7,19.513l.507,1.649,16.048,3.72Z" transform="translate(67.921 58.382)"/><path class="v" d="M29.743,19.749a7.553,7.553,0,0,1,5.7,1.832c2.711,2.315,2.008,9.824,1.162,11.473s-2.208,3.2-4.363,2.511-5.126-4.8-5.385-8.459,3.728-4.6,3.728-4.6Z" transform="translate(80.318 58.961)"/></g></g></g></g><g transform="translate(944 1356.777)"><g class="bd"><g class="be"><path class="bf" d="M157.322,206.278c-.127.381-11.535,40.432-11.662,40.686-2.026,8.491-3.168,12.041-9.759,15.843-15.877,9.229-43.139,3.989-46.388-9-.127-.38-13.69-48.037-13.816-48.418-2.408-7.478,1.522-15.59,11.663-21.42,27.756-15.956,77.874-3.25,69.963,22.308" transform="translate(-4.871 -11.489)"/><g class="bg" transform="translate(85.785 170.601)"><g class="bh"><path class="bf" d="M158.406,206.642c-.123.37-11.527,40.426-11.664,40.687-2.017,8.48-3.17,12.034-9.756,15.835-14.683,8.535-39.1,4.706-45.243-6.2,10,3.541,23.822,3.418,33.579-2.291,6.6-3.8,7.74-7.341,9.77-15.835.124-.262,11.527-40.3,11.651-40.687a16.2,16.2,0,0,0-3.019-15.7c11.143,5.036,18,13.489,14.683,24.193" transform="translate(-91.743 -182.449)"/></g></g><path class="bi" d="M87.306,183.929c-16.3,9.412-16.389,24.673-.192,34.086s42.539,9.41,58.842,0,16.39-24.668.192-34.08-42.543-9.412-58.842,0" transform="translate(-4.872 -11.486)"/><path class="bj" d="M154.273,202.082a10.336,10.336,0,0,1-.579,2.2c-5.445,15.351-41.879,21.837-63.31,10.311-5.444-2.9-8.8-6.488-10.194-10.194-2.317-6.314,1.1-13.149,10.31-18.015,24.617-13.09,66.611-2.78,63.773,15.7" transform="translate(-5.162 -11.722)"/><path class="bk" d="M153.742,204.816c-5.445,15.35-41.879,21.837-63.31,10.31-5.444-2.9-8.8-6.487-10.194-10.194,1.332-3.765,4.808-7.415,10.31-10.369,21.721-11.527,57.749-4.981,63.194,10.253" transform="translate(-5.21 -12.254)"/><path class="bl" d="M116.929,205.448c-3.423-3.651-22.825-31.27-34.695-51.585s-22.825-29.444-22.825-29.444l-2.053,1.826s21.911,30.357,26.476,38.8,25.793,37.661,26.477,39.259,6.619,1.142,6.619,1.142" transform="translate(-3.725 -8.079)"/><path class="bm" d="M74.411,117.237c3.474-4.292,14.991,5.867,19.332,8.7-1.776-11.181-12.86-20.008-14.311-21.25-18.945-16.206-33.553,1.6-33.553,1.6a19.89,19.89,0,0,0-8.674-10.044c-9.884-5.276-20.894,1.512-22.6,2.562a25.159,25.159,0,0,0-2.455,1.717c6.98-.425,17.292-.456,16.836,3.027-.48,3.671-14.8,4.442-22.747,3.4C.161,116.026.006,126.823,0,127.508a39.5,39.5,0,0,0,.827,8.075,28.521,28.521,0,0,0,6.021-2.369c14.151-7.076,25.336-12.782,13.923,0-7.8,8.733-11.544,14.8-14.959,15.95a41.772,41.772,0,0,0,6.057,8.473c2.986,3.2,8.363,7.8,10.044,15.749a23.793,23.793,0,0,1,.456,6.39c16.886-12.559,18.817-13.923,22.369-15.748,6.063-3.118,6.606-2.31,15.353-5.546-.814-4.1-1.891-9.848-.516-16.365,1.749-8.309,11.878,3.7,12.321,11.549,7.312-3.265,10.417-5.4,13.242-8.126,3.16-3.054,7.085-6.844,8.4-12.687a18,18,0,0,0,.388-2.606c-6.966-1.62-22.771-9-19.519-13.01M44.51,157.18c-2.967-1.6-.529-12.243.684-14.15,1.6-2.511,2.282,15.749-.684,14.15" transform="translate(0 -6.12)"/><path class="b" d="M99.729,28.725A57.847,57.847,0,0,0,84.492,14.682q-.118,1.778-.237,3.557a73.739,73.739,0,0,1,17.784,22.527c12.484,24.819,1.081,39.887,3.2,89.871,1.116,26.325,5.81,58.213,5.81,58.214,1.148.29,2.717.483,3.794-.356,2.705-2.108.263-9.139-1.186-14.464-2.3-8.457-2.143-17.4-3.319-26.084-.78-5.757-1.944-11.861-1.422-36.992.5-23.988,10.251-56.28-9.187-82.229" transform="translate(-5.471 -0.953)"/><path class="bl" d="M123.159,198.133c3.749-40.964,9.142-71.108,13.889-80.248,4.621-8.9,12.014-11.574,21.091-9.261-17.78,3.226-21.9,15.985-30.351,88.995Z" transform="translate(-7.998 -7.003)"/><path class="b" d="M124,187.255c-10.478-51.649-4.351-88.377,3.467-112.68,6.084-18.911,17.207-42.778,16.362-43.157-.728-.325-9.435,17.164-13.042,25.135-9.2,20.337-22.672,61.5-13.345,129.93,0,0,2.314,16.59,6.559.771" transform="translate(-7.422 -2.04)"/><path class="bl" d="M132.388,204.239c-1.293,9.238-24.17,9.27-25.453-.043,1.279-9.239,24.167-9.288,25.453.043" transform="translate(-6.944 -12.809)"/><path class="bm" d="M212.3,126.074c-4.619-5.6,2.3-.331-15.168-6.923s-24.727-4.945-21.428-9.559,17.473,1.317,17.473,1.317l19.123,9.233s-3.63-11.538-16.815-20.771S190.544,93.1,170.1,91.458s-16.813-3.625-21.759,4.613-2.636,12.2-8.57,9.892c0,0-3.625-30.331-24.069-25.716s-16.814,7.586-14.174,17.8c1.158,4.485,2.063,5.859,2.963,7.274,1.3-1.621,2.868-5.594,12.2-2.656,11.542,3.625,7.913,3.294-1.979,6.26-16.4,4.922,1.979,22.355,1.979,23.738,0,.989,6.923-13.846,13.846-13.846s9.565,1.65.989,9.89-17.472,4.287-5.6,21.759c26.962,39.7,3.517-.2,11.869-13.183,5.935-9.233,9.89-17.8,8.9-5.935-2.945,35.344-4.132,37.776,19.528,45.365,3.036.973,6.823,1.864,8.734,5.2,2.135,3.722.489,7.673,2.717,9.343.858.643,2.435.53,5.617-.561,11.537-3.956,12.858-13.189,19.449-20.771s-9.228-13.189-12.2-20.77-7.913-4.946-12.2-14.178-5.277-16.156,5.934-9.891,20.44,8.571,23.738,14.836,1.648,9.56,5.277,14.506,3.624-22.749-.988-28.353M178.675,154.1c-4.287-1.652-10.222-16.156-10.222-16.156,6.592-.989,14.5,17.8,10.222,16.156" transform="translate(-6.459 -5.18)"/><path class="bl" d="M149.272,18.32c6.729-4.808,15.33-1.961,19.766-.493,1.073.356,19.447,6.671,20.629,18.5.734,7.347-5.7,11.507-4.858,23.11.091,1.245.395,4.2-.264,4.285-.451.057-2.689-15.043-20.642-16.132-23-1.393-24.388,12.543-37.628-2.091C125,44.09,122.3,40.422,122.833,37.09c.785-4.948,8.894-9.226,20.167-9.014a17.147,17.147,0,0,1,6.271-9.756" transform="translate(-7.972 -1.016)"/><path class="b" d="M79.283,14.914c1.6-1.37,9.383-11.282,18.97-2.608s-4.646,29.962-9.439,33.615.229-18.26-4.793-18.488,3.2,16.206-3.2,26.7a37.085,37.085,0,0,1-16.206,14.38S76.26,49.572,72.379,43.41,68.5,32.454,66.216,40.9s-2.739,21.455-10.5,26.248S45.445,70.8,45.445,70.8C57.087,61.1,57.592,51.144,56.167,50.26c-.94-.583-3.114,1.756-5.016,3.878-10.12,11.3-10.979,15.493-16.685,19.11-4.543,2.88-10.927,4.613-12.775,2.485-1.764-2.032,1.012-7.124,2.1-9.125,3.6-6.588,7.768-8.336,16.6-17.31,3.626-3.686,6.624-6.761,6.035-7.588-.725-1.018-7.715.418-12.168,5.125-7.989,8.445-15.522,24.65-18.717,20.541a22.018,22.018,0,0,1-1.826-22.825c4.793-9.358,15.75-16.434,27.163-16.434s24.195-3.2,16.206-4.565-22.14,1.825-29.9,5.479-7.761-4.11-2.055-9.131,13.24-1.826,27.163-3.88,20.314-5.479,5.021-5.25-22.825,2.511-20.542-.684C40.647,4.66,70.6-6.36,78.086,4.836c1.114,1.665,2.3,4.676,1.2,10.078" transform="translate(-0.737 0)"/></g></g></g><g transform="translate(387.982 1209.387)"><path class="bn" d="M1257.3,590.755l67.861-37.731-55.077-77.088Z" transform="translate(-239.837 -168.478)"/><path class="bo" d="M1145.736,385.34,985.365,292.75,957.9,196.128l160.371,92.59Z" transform="translate(-60.407 -0.794)"/><path class="bp" d="M1017.468,422.277,857.1,329.687l40-134.884,160.371,92.59Z" transform="translate(0 0)"/><path class="bq" d="M1073.564,316.888,937.057,236.956l-2.115,7.006-.015-.009L903.69,347.429,1040.2,427.362l2.115-7.006.015.009Z" transform="translate(-27.922 -25.261)"/><path class="br" d="M1063.787,321.055,927.279,241.122l-2.115,7.006-.015-.009L893.912,351.6l136.507,79.933,2.115-7.006.015.009Z" transform="translate(-22.063 -27.758)"/><path class="ah" d="M1053.107,319.038,916.6,239.106l-2.115,7.006-.015-.009L883.233,349.579l136.507,79.933,2.115-7.006.015.009Z" transform="translate(-15.663 -26.55)"/><ellipse class="bs" cx="3.742" cy="4.603" rx="3.742" ry="4.603" transform="matrix(0.806, -0.592, 0.592, 0.806, 913.274, 228.978)"/><g transform="translate(911.454 200.372)"><path class="bt" d="M999.473,235.536c-1.656-1.04-2.578-2.908-2.667-5.4-.217-6.12,4.885-13.613,11.141-16.363a11.117,11.117,0,0,1,4.417-1.022,6.19,6.19,0,0,1,3.324.876c1.656,1.04,2.578,2.907,2.667,5.4h0a14.466,14.466,0,0,1-1.409,6.361l3.537,2.089a18.851,18.851,0,0,0,1.924-8.593h0c-.137-3.843-1.757-6.929-4.563-8.691-3.1-1.943-7.3-1.992-11.529-.132-7.884,3.465-13.841,12.346-13.562,20.218.136,3.843,1.757,6.93,4.563,8.692a9.52,9.52,0,0,0,2.731,1.16,1.722,1.722,0,0,0,2.042-2.218h0a3.145,3.145,0,0,0-1.78-1.95A5.279,5.279,0,0,1,999.473,235.536Z" transform="translate(-992.744 -208.699)"/></g><ellipse class="bs" cx="3.742" cy="4.603" rx="3.742" ry="4.603" transform="matrix(0.806, -0.592, 0.592, 0.806, 937.96, 243.254)"/><g transform="translate(936.139 214.647)"><path class="bt" d="M1061.076,271.16c-1.656-1.04-2.578-2.908-2.667-5.4-.217-6.12,4.885-13.613,11.141-16.363a11.119,11.119,0,0,1,4.417-1.022,6.185,6.185,0,0,1,3.324.876c1.656,1.04,2.579,2.907,2.667,5.4h0a14.478,14.478,0,0,1-1.409,6.361l3.538,2.089a18.846,18.846,0,0,0,1.923-8.593h0c-.136-3.843-1.757-6.929-4.563-8.691-3.1-1.944-7.3-1.992-11.529-.132-7.884,3.465-13.841,12.346-13.562,20.218.136,3.843,1.757,6.93,4.563,8.692a9.522,9.522,0,0,0,2.731,1.16,1.723,1.723,0,0,0,2.042-2.218h0a3.143,3.143,0,0,0-1.78-1.95A5.277,5.277,0,0,1,1061.076,271.16Z" transform="translate(-1054.347 -244.323)"/></g><ellipse class="bs" cx="3.742" cy="4.603" rx="3.742" ry="4.603" transform="matrix(0.806, -0.592, 0.592, 0.806, 962.646, 257.529)"/><g transform="translate(960.825 228.922)"><path class="bt" d="M1122.68,306.784c-1.656-1.04-2.578-2.908-2.667-5.4-.217-6.12,4.885-13.613,11.141-16.363a11.117,11.117,0,0,1,4.417-1.022,6.186,6.186,0,0,1,3.324.876c1.656,1.04,2.578,2.907,2.667,5.4h0a14.465,14.465,0,0,1-1.409,6.361l3.538,2.089a18.851,18.851,0,0,0,1.924-8.593h0c-.136-3.843-1.757-6.929-4.563-8.691-3.1-1.943-7.3-1.992-11.529-.132-7.884,3.465-13.841,12.346-13.562,20.218.136,3.843,1.757,6.93,4.563,8.692a9.519,9.519,0,0,0,2.731,1.16,1.722,1.722,0,0,0,2.042-2.218h0a3.145,3.145,0,0,0-1.78-1.95A5.269,5.269,0,0,1,1122.68,306.784Z" transform="translate(-1115.951 -279.947)"/></g><path class="bs" d="M1194.414,385.062a3.276,3.276,0,0,1-4.065,3.394,5.375,5.375,0,0,1-4.065-5.081,3.276,3.276,0,0,1,4.065-3.394A5.375,5.375,0,0,1,1194.414,385.062Z" transform="translate(-197.275 -110.923)"/><g transform="translate(985.51 243.197)"><path class="bt" d="M1184.283,342.408c-1.656-1.04-2.578-2.908-2.667-5.4-.217-6.12,4.885-13.613,11.141-16.363a11.119,11.119,0,0,1,4.417-1.022,6.185,6.185,0,0,1,3.324.876c1.656,1.04,2.578,2.907,2.667,5.4h0a14.473,14.473,0,0,1-1.409,6.361l3.538,2.089a18.846,18.846,0,0,0,1.923-8.593h0c-.136-3.843-1.757-6.929-4.563-8.691-3.1-1.944-7.3-1.992-11.529-.132-7.884,3.465-13.841,12.346-13.562,20.218.136,3.843,1.757,6.93,4.563,8.692a9.535,9.535,0,0,0,2.732,1.16,1.723,1.723,0,0,0,2.042-2.218h0a3.143,3.143,0,0,0-1.78-1.95A5.279,5.279,0,0,1,1184.283,342.408Z" transform="translate(-1177.554 -315.571)"/></g><ellipse class="bs" cx="3.742" cy="4.603" rx="3.742" ry="4.603" transform="translate(1012.017 286.079) rotate(-36.333)"/><g transform="translate(1010.196 257.472)"><path class="bt" d="M1245.887,378.032c-1.656-1.04-2.578-2.908-2.666-5.4-.217-6.12,4.885-13.613,11.141-16.363a11.117,11.117,0,0,1,4.417-1.022,6.185,6.185,0,0,1,3.324.876c1.656,1.04,2.578,2.907,2.667,5.4h0a14.469,14.469,0,0,1-1.409,6.361l3.537,2.089a18.847,18.847,0,0,0,1.924-8.593h0c-.137-3.843-1.757-6.929-4.563-8.691-3.1-1.943-7.3-1.992-11.529-.132-7.884,3.465-13.841,12.346-13.562,20.218.136,3.843,1.757,6.93,4.563,8.692a9.535,9.535,0,0,0,2.731,1.16,1.722,1.722,0,0,0,2.042-2.218h0a3.145,3.145,0,0,0-1.78-1.95A5.266,5.266,0,0,1,1245.887,378.032Z" transform="translate(-1239.158 -351.195)"/></g><g transform="translate(878.051 240.826)"><line class="bu" x2="125.301" y2="72.342" transform="translate(19.314)"/><line class="bu" x2="125.301" y2="72.342" transform="translate(14.485 16.518)"/><line class="bu" x2="125.301" y2="72.342" transform="translate(9.657 33.036)"/><line class="bu" x2="125.301" y2="72.342" transform="translate(4.828 49.554)"/><line class="bu" x2="125.301" y2="72.342" transform="translate(0 66.072)"/><path class="bu" d="M971.757,341.31,954.933,331.6l4.828-16.518,16.824,9.713Z" transform="translate(-936.682 -312.905)"/><path class="bu" d="M1013.742,365.55l-16.824-9.713,4.828-16.518,16.824,9.714Z" transform="translate(-961.843 -327.431)"/><path class="bu" d="M1055.727,389.79l-16.824-9.714,4.828-16.518,16.824,9.713Z" transform="translate(-987.004 -341.958)"/><path class="bu" d="M1097.712,414.03l-16.824-9.714,4.828-16.518,16.824,9.713Z" transform="translate(-1012.164 -356.485)"/><path class="bu" d="M1139.7,438.271l-16.824-9.713,4.828-16.518,16.824,9.714Z" transform="translate(-1037.325 -371.011)"/><path class="bu" d="M1181.683,462.511l-16.824-9.714,4.828-16.518,16.824,9.713Z" transform="translate(-1062.486 -385.538)"/><path class="bu" d="M1223.668,486.751l-16.824-9.714,4.828-16.518,16.824,9.713Z" transform="translate(-1087.647 -400.064)"/><path class="bu" d="M959.708,382.531l-16.824-9.714,4.828-16.518,16.824,9.713Z" transform="translate(-929.461 -337.607)"/><path class="bu" d="M1001.693,406.771l-16.824-9.714L989.7,380.54l16.824,9.713Z" transform="translate(-954.622 -352.134)"/><path class="bu" d="M1043.678,431.011l-16.824-9.714,4.828-16.518,16.824,9.714Z" transform="translate(-979.783 -366.661)"/><path class="bu" d="M1085.663,455.251l-16.824-9.713,4.829-16.518,16.824,9.714Z" transform="translate(-1004.943 -381.187)"/><path class="bu" d="M1127.648,479.491l-16.824-9.714,4.828-16.518,16.824,9.713Z" transform="translate(-1030.104 -395.714)"/><path class="bu" d="M1169.633,503.731l-16.824-9.713,4.828-16.518,16.824,9.713Z" transform="translate(-1055.265 -410.241)"/><path class="bu" d="M1211.618,527.972l-16.824-9.713,4.828-16.518,16.824,9.713Z" transform="translate(-1080.426 -424.767)"/><path class="bu" d="M947.658,423.752l-16.824-9.714,4.828-16.518,16.824,9.713Z" transform="translate(-922.24 -362.31)"/><path class="bu" d="M989.643,447.992l-16.824-9.714,4.828-16.518,16.824,9.713Z" transform="translate(-947.401 -376.837)"/><path class="bu" d="M1031.628,472.232l-16.824-9.714L1019.632,446l16.824,9.713Z" transform="translate(-972.561 -391.364)"/><path class="bu" d="M1073.614,496.472l-16.824-9.713,4.828-16.518,16.824,9.713Z" transform="translate(-997.722 -405.89)"/><path class="bu" d="M1115.6,520.712,1098.774,511l4.828-16.518,16.824,9.714Z" transform="translate(-1022.883 -420.417)"/><path class="bu" d="M1157.584,544.952l-16.824-9.713,4.828-16.518,16.824,9.713Z" transform="translate(-1048.044 -434.943)"/><path class="bu" d="M1199.569,569.192l-16.824-9.713,4.829-16.518,16.824,9.713Z" transform="translate(-1073.205 -449.47)"/><path class="bu" d="M935.609,464.973l-16.824-9.714,4.828-16.518,16.824,9.713Z" transform="translate(-915.019 -387.013)"/><path class="bu" d="M977.594,489.213,960.769,479.5l4.828-16.518,16.824,9.713Z" transform="translate(-940.18 -401.54)"/><path class="bu" d="M1019.579,513.453l-16.824-9.713,4.828-16.518,16.824,9.714Z" transform="translate(-965.341 -416.066)"/><path class="bu" d="M1061.564,537.693l-16.824-9.714,4.828-16.518,16.824,9.713Z" transform="translate(-990.501 -430.593)"/><path class="bu" d="M1103.549,561.933l-16.824-9.713,4.828-16.518,16.824,9.713Z" transform="translate(-1015.662 -445.12)"/><path class="bu" d="M1145.534,586.173l-16.824-9.713,4.828-16.518,16.824,9.713Z" transform="translate(-1040.823 -459.646)"/><path class="bu" d="M1187.519,610.413l-16.824-9.713,4.828-16.518,16.824,9.713Z" transform="translate(-1065.984 -474.173)"/></g><path class="bn" d="M989.055,315.874l-7.106-4.1a1.287,1.287,0,0,1-.532-1.519h0a.872.872,0,0,1,1.286-.469l7.106,4.1a1.287,1.287,0,0,1,.532,1.519h0A.872.872,0,0,1,989.055,315.874Z" transform="translate(-74.458 -68.828)"/><path class="bn" d="M971.458,342.208l-7.106-4.1a1.288,1.288,0,0,1-.532-1.519h0a.873.873,0,0,1,1.287-.47l7.106,4.1a1.288,1.288,0,0,1,.531,1.519h0A.872.872,0,0,1,971.458,342.208Z" transform="translate(-63.912 -84.609)"/><path class="bv" d="M979.323,332.977l-7.106-4.1c-.02-.012-.041-.017-.061-.027l-4.476-2.584a.873.873,0,0,0-1.287.469,1.288,1.288,0,0,0,.532,1.519l7.106,4.1c.02.012.041.017.061.027l4.476,2.584a.872.872,0,0,0,1.286-.469A1.287,1.287,0,0,0,979.323,332.977Z" transform="translate(-65.455 -78.704)"/><path class="bn" d="M1177.853,494.623l-7.106-4.1c-.02-.011-.041-.017-.061-.027l-4.476-2.584a.872.872,0,0,0-1.286.469,1.288,1.288,0,0,0,.532,1.519l7.106,4.1c.02.012.041.017.061.027l4.476,2.584a.872.872,0,0,0,1.287-.47A1.287,1.287,0,0,0,1177.853,494.623Z" transform="translate(-184.43 -175.575)"/><path class="bn" d="M1031.26,340.276l-7.106-4.1a1.287,1.287,0,0,1-.532-1.519h0a.872.872,0,0,1,1.286-.469l7.106,4.1a1.288,1.288,0,0,1,.532,1.519h0A.872.872,0,0,1,1031.26,340.276Z" transform="translate(-99.75 -83.452)"/><path class="bn" d="M1073.465,364.679l-7.106-4.1a1.288,1.288,0,0,1-.532-1.519h0a.872.872,0,0,1,1.287-.469l7.106,4.1a1.287,1.287,0,0,1,.532,1.519h0A.872.872,0,0,1,1073.465,364.679Z" transform="translate(-125.043 -98.076)"/><path class="bn" d="M1115.67,389.082l-7.106-4.1a1.288,1.288,0,0,1-.531-1.519h0a.872.872,0,0,1,1.286-.47l7.106,4.1a1.288,1.288,0,0,1,.532,1.519h0A.872.872,0,0,1,1115.67,389.082Z" transform="translate(-150.336 -112.7)"/><path class="bn" d="M1157.875,413.485l-7.106-4.1a1.288,1.288,0,0,1-.532-1.519h0a.872.872,0,0,1,1.286-.469l7.106,4.1a1.288,1.288,0,0,1,.532,1.519h0A.872.872,0,0,1,1157.875,413.485Z" transform="translate(-175.629 -127.324)"/><path class="bn" d="M1200.081,437.888l-7.106-4.1a1.288,1.288,0,0,1-.532-1.519h0a.872.872,0,0,1,1.286-.469l7.106,4.1a1.287,1.287,0,0,1,.532,1.519h0A.872.872,0,0,1,1200.081,437.888Z" transform="translate(-200.922 -141.948)"/><path class="bn" d="M1242.286,462.29l-7.106-4.1a1.288,1.288,0,0,1-.532-1.519h0a.872.872,0,0,1,1.286-.469l7.106,4.1a1.287,1.287,0,0,1,.532,1.519h0A.872.872,0,0,1,1242.286,462.29Z" transform="translate(-226.214 -156.572)"/><path class="bn" d="M965.731,348.152a1.05,1.05,0,0,0-.525-.909l-2.967-1.713a.873.873,0,0,0-1.287.47,1.288,1.288,0,0,0,.532,1.519l2.673,1.543a1.05,1.05,0,0,0,1.574-.909Z" transform="translate(-62.194 -90.25)"/><path class="bn" d="M991.532,442.769l-7.106-4.1a1.288,1.288,0,0,1-.532-1.519h0a.872.872,0,0,1,1.286-.469l7.106,4.1a1.287,1.287,0,0,1,.532,1.519h0A.872.872,0,0,1,991.532,442.769Z" transform="translate(-75.942 -144.874)"/><path class="bn" d="M985.805,448.714a1.05,1.05,0,0,0-.525-.909l-2.968-1.714a.872.872,0,0,0-1.286.47,1.288,1.288,0,0,0,.532,1.519l2.672,1.543a1.05,1.05,0,0,0,1.575-.909Z" transform="translate(-74.223 -150.514)"/><path class="bn" d="M1048.637,423.074l-7.106-4.1a1.288,1.288,0,0,1-.532-1.519h0a.873.873,0,0,1,1.287-.469l7.106,4.1a1.288,1.288,0,0,1,.531,1.519h0A.872.872,0,0,1,1048.637,423.074Z" transform="translate(-110.164 -133.071)"/><path class="bn" d="M1042.91,429.018a1.05,1.05,0,0,0-.525-.909l-2.967-1.713a.873.873,0,0,0-1.287.469,1.289,1.289,0,0,0,.532,1.519l2.673,1.543a1.05,1.05,0,0,0,1.574-.909Z" transform="translate(-108.446 -138.712)"/><path class="bn" d="M1167.762,500.145a1.05,1.05,0,0,0-.525-.909l-2.968-1.714a.872.872,0,0,0-1.286.469,1.288,1.288,0,0,0,.532,1.519l2.672,1.543a1.05,1.05,0,0,0,1.574-.909Z" transform="translate(-183.267 -181.337)"/></g><g transform="translate(598.955 1046.781)"><path class="bw" d="M642.107,464.607l15.3,2.639,11.61,13.018,6.157,13.369L673.6,508.761l-12.49,9.675-14.073-8.092-9.147-16.36-3.342-14.6Z" transform="translate(-3.316 -7.069)"/><path class="bw" d="M659.6,549.173l3.236-2q11.106.2,17.816-3.076l-.04.04a.115.115,0,0,0-.08.04Q673.5,549.412,659.6,549.173Z" transform="translate(-8.354 -23.051)"/><path class="bx" d="M653.381,523.295Q637.6,504.759,631.89,489.779c-.081-.213-.161-.426-.24-.639a55.44,55.44,0,0,1-1.857-6.092q-.169-.743-.32-1.478a34.568,34.568,0,0,1-.26-13.482v-.04c.118-.319.231-.638.34-.959a27.414,27.414,0,0,0,1.258-7.29,39.254,39.254,0,0,0-1.6-12.084l3-3.715c.213.107.427.226.639.359a45.64,45.64,0,0,0,9.547,4.254q.491.147.979.28a24.81,24.81,0,0,0,10.007.739v18.555l-3.555-2.017a1.266,1.266,0,0,0-1.518.28,1.168,1.168,0,0,0-.24.719v8.988l-7.79-4.474a1.081,1.081,0,0,0-.759-.12,1.211,1.211,0,0,0-.719.4,1.112,1.112,0,0,0-.28.759v10.945a1.18,1.18,0,0,0,.16.6,1.16,1.16,0,0,0,.439.439l8.948,5.193v10.306a1.509,1.509,0,0,0,.12.6,1.16,1.16,0,0,0,.44.439l4.754,2.676Z" transform="translate(-2.135 -2.925)"/><path class="by" d="M659.6,469.605V451.05q1.087,1.412,2.217,2.756,1.647,1.965,3.376,3.775a63.855,63.855,0,0,0,16.358,12.443c.125.067.252.133.38.2L687,482.568q-3.236,7.829,0,20.333,2.477,15.54-6.152,22.33a1.285,1.285,0,0,1-.2.16q-6.711,3.275-17.816,3.076l-3.236-3.755V505.338l4.794,2.716a1.532,1.532,0,0,0,.839.16,1.591,1.591,0,0,0,.679-.4,1.116,1.116,0,0,0,.28-.759v-8.988l7.75,4.434a1.355,1.355,0,0,0,.8.16,1.435,1.435,0,0,0,.679-.439,1.112,1.112,0,0,0,.28-.759V490.518a1.184,1.184,0,0,0-.16-.6,1.16,1.16,0,0,0-.439-.44l-8.908-5.113V474.02a1.19,1.19,0,0,0-.16-.6,1.16,1.16,0,0,0-.44-.439Z" transform="translate(-8.354 -4.343)"/><path class="bz" d="M690.5,538.729q10.147-7.99,7.27-26.285-3.835-14.7,0-23.928l5.713-3.316.04.04q-3.835,9.228,0,23.888,2.957,18.575-7.55,26.525l-4.953,2.876Q690.78,538.61,690.5,538.729Z" transform="translate(-14.566 -11.209)"/><path class="bz" d="M631.383,443.809l-3,3.715a39.254,39.254,0,0,1,1.6,12.084,27.411,27.411,0,0,1-1.258,7.29c-.109.321-.222.64-.34.959v.04a34.567,34.567,0,0,0,.26,13.482q.15.736.32,1.478a55.448,55.448,0,0,0,1.857,6.092c.079.213.159.426.24.639q5.713,14.98,21.492,33.516l3.236,3.755-3.236,2A205.013,205.013,0,0,1,629.465,495.5q-.719-1.558-1.318-3.076a59.257,59.257,0,0,1-2-5.832,46.457,46.457,0,0,1-1.159-5.313c-.037-.246-.07-.493-.1-.739a32.78,32.78,0,0,1,.22-10.686,25.976,25.976,0,0,0,.979-3.276c.08-.358.153-.717.22-1.078a30.44,30.44,0,0,0,.339-7.81,43.078,43.078,0,0,0-1.538-8.169l5.113-6.431.04-.04a12.782,12.782,0,0,1,1.118.719Z" transform="translate(-1.308 -2.734)"/><path class="ca" d="M698.082,484.876l-6.032-14.461,5.792-3.316.18.42,5.772,14.042Z" transform="translate(-14.878 -7.57)"/><path class="cb" d="M626.35,432.726l.559-.32,1.079-.619,4.115-2.337a57.275,57.275,0,0,0,12.563,6.072q.478.157.959.3a29.492,29.492,0,0,0,12.683,1.138L652.6,440.2a27.311,27.311,0,0,1-8.129-.06q-.5-.078-1-.18-1.085-.2-2.2-.479a42.557,42.557,0,0,1-4.734-1.518,58.452,58.452,0,0,1-8.029-3.915Q627.429,433.405,626.35,432.726Z" transform="translate(-1.668)"/><path class="cb" d="M655.86,509.464l-4.754-2.676a1.16,1.16,0,0,1-.439-.44,1.508,1.508,0,0,1-.12-.6V495.443l-8.948-5.193a1.161,1.161,0,0,1-.44-.439,1.182,1.182,0,0,1-.16-.6V478.265a1.113,1.113,0,0,1,.28-.759,1.211,1.211,0,0,1,.719-.4,1.082,1.082,0,0,1,.759.12l7.79,4.474v-8.988a1.168,1.168,0,0,1,.24-.719,1.266,1.266,0,0,1,1.518-.28l3.555,2.017,5.992,3.376a1.159,1.159,0,0,1,.439.439,1.189,1.189,0,0,1,.16.6v10.346l8.908,5.113a1.161,1.161,0,0,1,.44.44,1.187,1.187,0,0,1,.16.6v10.946a1.112,1.112,0,0,1-.28.759,1.436,1.436,0,0,1-.679.44,1.357,1.357,0,0,1-.8-.16l-7.75-4.434v8.988a1.117,1.117,0,0,1-.279.759,1.591,1.591,0,0,1-.679.4,1.532,1.532,0,0,1-.839-.16Z" transform="translate(-4.614 -8.469)"/><path class="cc" d="M668.388,442.974a77.924,77.924,0,0,0,22.85,18.436l-5.792,3.316a75.608,75.608,0,0,1-19.055-14.361q-1.733-1.773-3.415-3.7-1.922-2.2-3.775-4.594l5.712-3.236.04-.04c.031.041.065.081.1.12Q666.683,441.024,668.388,442.974Z" transform="translate(-8.273 -1.88)"/><path class="cd" d="M619.089,481.367a49.62,49.62,0,0,1-.8-5.053,37.993,37.993,0,0,1,.4-11.245,29.562,29.562,0,0,0,1.019-3.336q.128-.522.24-1.059a33.924,33.924,0,0,0,.639-7.61,47.572,47.572,0,0,0-1.9-11.884l1.358-1.738,4.634-5.892q1.078.678,2.157,1.318a58.458,58.458,0,0,0,8.029,3.915A42.573,42.573,0,0,0,639.6,440.3q1.112.28,2.2.479.5.1,1,.18a27.309,27.309,0,0,0,8.129.06q1.853,2.4,3.775,4.594,1.683,1.923,3.416,3.7a75.608,75.608,0,0,0,19.055,14.361l6.032,14.461q-3.835,9.228,0,23.928,2.876,18.3-7.27,26.285a2.645,2.645,0,0,1-.4.32q-8.228,6.112-24.607,5.832Q623.888,504,619.089,481.367Zm32.157-33.835a24.812,24.812,0,0,1-10.007-.739q-.488-.132-.979-.28a45.637,45.637,0,0,1-9.547-4.254c-.213-.133-.427-.252-.639-.359v-.04a12.759,12.759,0,0,0-1.118-.719l-.04.04-5.113,6.431a43.079,43.079,0,0,1,1.538,8.169,30.434,30.434,0,0,1-.34,7.81c-.067.362-.14.721-.22,1.078a25.975,25.975,0,0,1-.979,3.276,32.777,32.777,0,0,0-.22,10.686c.03.246.062.493.1.739a46.457,46.457,0,0,0,1.158,5.313,59.241,59.241,0,0,0,2,5.832q.6,1.517,1.318,3.076a205.011,205.011,0,0,0,23.089,33.356q13.9.24,20.932-4.993a.115.115,0,0,1,.08-.04l.04-.04a1.292,1.292,0,0,0,.2-.16q8.628-6.791,6.152-22.33-3.236-12.5,0-20.333l-5.073-12.344c-.128-.066-.255-.133-.379-.2a63.855,63.855,0,0,1-16.358-12.443q-1.729-1.81-3.375-3.775Q652.334,448.943,651.246,447.531Z" transform="translate(0 -0.824)"/></g></g></svg>