<?xml version="1.0" encoding="utf-8"?>
<!-- Generator: Adobe Illustrator 24.0.3, SVG Export Plug-In . SVG Version: 6.00 Build 0)  -->
<svg version="1.1" id="Livello_1" xmlns="http://www.w3.org/2000/svg" xmlns:xlink="http://www.w3.org/1999/xlink" x="0px" y="0px"
	 viewBox="0 0 40 40" style="enable-background:new 0 0 40 40;" xml:space="preserve">
<style type="text/css">
	.st0{fill:#FFFFFF;}
	.st1{fill:#7ECEF5;}
	.st2{fill:#1E3A6D;}
</style>
<g id="Group_2714" transform="translate(-115.368 -339.264)">
	<g id="Group_2693" transform="translate(126.368 346.922)">
		<g id="Group_2692" transform="translate(0)">
			<path id="Path_6844" class="st0" d="M25,10.1l-8.6-3.4l-7.7,12v11.9l8.5-4.7l9.6,4.7V10.1L25,10.1z"/>
		</g>
	</g>
	<g id="Group_2695" transform="translate(115.887 346.922)">
		<g id="Group_2694">
			<path id="Path_6845" class="st0" d="M2.9,10.1l8.6-3.4l7.7,12v11.9l-8.5-4.7L1,30.5V10.1L2.9,10.1z"/>
		</g>
	</g>
	<g id="Group_2697" transform="translate(121.667 339.607)">
		<g id="Group_2696" transform="translate(0 0)">
			<path id="Path_6846" class="st1" d="M13.4,1.3l6.1,2.5l2.1,4l0.1,4.5l-8.3,13.1L5.3,12.7V7.2l4.3-4.9L13.4,1.3z"/>
		</g>
	</g>
	<g id="Group_2699" transform="translate(124.499 342.78)">
		<g id="Group_2698">
			<circle id="Ellipse_89" class="st0" cx="10.6" cy="6.8" r="3.2"/>
		</g>
	</g>
	<g id="Group_2701" transform="translate(130.81 346.922)">
		<g id="Group_2700">
			<path id="Path_6847" class="st0" d="M12.8,25.9l9.6,4.7V10.1l-1.9,0L12,6.6v19.7L12.8,25.9z"/>
		</g>
	</g>
	<g id="Group_2703" transform="translate(115.887 346.922)">
		<g id="Group_2702">
			<path id="Path_6848" class="st0" d="M11.5,6.6l-8.6,3.4l-1.9,0v20.4l9.6-4.7l0.8,0.5L11.5,6.6z"/>
		</g>
	</g>
	<g id="Group_2713" transform="translate(115.368 339.264)">
		<g id="Group_2706" transform="translate(0 7.721)">
			<g id="Group_2705">
				<g id="Group_2704">
					<path id="Path_6849" class="st2" d="M38,31.4c-0.1,0-0.3,0-0.4-0.1l-9.2-4.6c-0.1,0-0.1,0-0.2,0c-0.1,0-0.1,0-0.2,0.1l-8,4.5
						c0,0-0.1,0-0.1,0l0,0l-0.1,0c-0.1,0-0.1,0-0.2,0c-0.1,0-0.1,0-0.2,0c0,0,0,0-0.1,0l0,0c0,0-0.1,0-0.1,0l-8-4.5
						c-0.1-0.1-0.3-0.1-0.4,0l-9.2,4.6c-0.1,0.1-0.2,0.1-0.4,0.1c-0.5,0-0.8-0.4-0.8-0.8V9.9c0-0.3,0.2-0.6,0.5-0.8l6.1-2.4
						c0.4-0.2,0.9,0,1.1,0.4c0.2,0.4,0,0.9-0.4,1.1c0,0,0,0-0.1,0l-5.3,2.1c-0.2,0.1-0.3,0.2-0.3,0.4v17.9c0,0.2,0.2,0.4,0.4,0.4
						c0,0,0,0,0,0c0.1,0,0.1,0,0.2,0l7.3-3.7c0.1-0.1,0.2-0.2,0.2-0.4V14.8c0-0.5,0.4-0.8,0.9-0.8c0.4,0,0.8,0.4,0.8,0.8V25
						c0,0.1,0.1,0.3,0.2,0.3l6.1,3.5c0.2,0.1,0.4,0,0.5-0.2c0-0.1,0.1-0.1,0.1-0.2v-5.2c0-0.5,0.3-0.8,0.8-0.9
						c0.5,0,0.8,0.3,0.9,0.8c0,0,0,0.1,0,0.1v5.2c0,0.2,0.2,0.4,0.4,0.4c0.1,0,0.1,0,0.2-0.1l6.1-3.5c0.1-0.1,0.2-0.2,0.2-0.3V14.8
						c0-0.5,0.4-0.8,0.8-0.8s0.8,0.4,0.8,0.8V25c0,0.2,0.1,0.3,0.2,0.4l7.3,3.7c0.1,0,0.1,0,0.2,0c0.2,0,0.4-0.2,0.4-0.4V10.7
						c0-0.2-0.1-0.3-0.3-0.4l-5.3-2.1c-0.4-0.2-0.6-0.6-0.5-1.1c0.1-0.3,0.4-0.5,0.8-0.5c0.1,0,0.2,0,0.3,0.1l6.1,2.4
						c0.3,0.1,0.5,0.4,0.5,0.8v20.7C38.8,31.1,38.4,31.4,38,31.4L38,31.4z"/>
				</g>
			</g>
		</g>
		<g id="Group_2709" transform="translate(5.615)">
			<g id="Group_2708">
				<g id="Group_2707">
					<path id="Path_6850" class="st2" d="M14.1,27c-0.3,0-0.5-0.1-0.6-0.3c-0.9-1.2-8.7-11.5-8.7-16.3C4.8,5.2,8.9,1,14.1,1
						c5.2,0,9.3,4.2,9.3,9.3c0,4.8-7.8,15.2-8.7,16.3C14.6,26.9,14.4,27,14.1,27z M14.1,2.6c-4.3,0-7.7,3.5-7.7,7.7
						c0,3.6,5.7,11.6,7.4,14c0.1,0.2,0.4,0.2,0.6,0.1c0,0,0.1-0.1,0.1-0.1c1.7-2.4,7.4-10.4,7.4-14C21.8,6.1,18.4,2.6,14.1,2.6z"/>
				</g>
			</g>
		</g>
		<g id="Group_2712" transform="translate(8.423 2.807)">
			<g id="Group_2711">
				<g id="Group_2710">
					<path id="Path_6851" class="st2" d="M11.3,12c-2.5,0-4.5-2-4.5-4.5c0-2.5,2-4.5,4.5-4.5c2.5,0,4.5,2,4.5,4.5l0,0
						C15.8,10,13.8,12,11.3,12z M11.3,4.7C9.7,4.7,8.5,6,8.5,7.5s1.3,2.8,2.8,2.8s2.8-1.3,2.8-2.8C14.1,6,12.9,4.7,11.3,4.7
						L11.3,4.7z"/>
				</g>
			</g>
		</g>
	</g>
</g>
</svg>
