<svg xmlns="http://www.w3.org/2000/svg" width="37.714" height="36" viewBox="0 0 37.714 36">
  <defs>
    <style>.a{fill:#73d7ff;}.b{fill:#fff;}.c{fill:#003575;}</style>
  </defs>
  <g transform="translate(-333.721 -120.8)">
    <rect class="a" width="35.571" height="26.089" transform="translate(334.697 129.436)"/>
    <rect class="b" width="35.571" height="7.085" transform="translate(334.697 122.03)"/>
    <path class="b" d="M361.166,142.933H356.92v-4.246h-4.768v4.246h-4.246V147.7h4.246v4.246h4.768V147.7h4.246Z"
          transform="translate(-2.027 -2.555)"/>
    <g transform="translate(333.721 120.8)">
      <path class="c"
            d="M336.61,156.8a3,3,0,0,1-2.889-3.214V123.364a2.851,2.851,0,0,1,2.889-2.564h31.936a2.85,2.85,0,0,1,2.889,2.564v30.222a3,3,0,0,1-2.889,3.214Zm-.878-26.471a.4.4,0,0,0-.4.394v22.863c0,.956.512,1.6,1.273,1.6h31.936c.749,0,1.272-.657,1.272-1.6V130.723a.4.4,0,0,0-.4-.394Zm.878-7.912a1.318,1.318,0,0,0-1.269.9.358.358,0,0,0,0,.052v4.944a.4.4,0,0,0,.4.4h33.691a.4.4,0,0,0,.4-.4v-4.953a.413.413,0,0,0,0-.056,1.321,1.321,0,0,0-1.268-.891Z"
            transform="translate(-333.721 -120.8)"/>
      <g transform="translate(11.175 14.274)">
        <path class="c"
              d="M352.034,152.816a.809.809,0,0,1-.808-.808v-3.263a.4.4,0,0,0-.4-.4h-3.263a.809.809,0,0,1-.808-.808v-4.813a.809.809,0,0,1,.808-.808h3.263a.4.4,0,0,0,.4-.4v-3.264a.809.809,0,0,1,.808-.808h4.813a.81.81,0,0,1,.809.808v3.264a.4.4,0,0,0,.394.4h3.264a.809.809,0,0,1,.808.808v4.813a.809.809,0,0,1-.808.808H358.05a.4.4,0,0,0-.394.4v3.263a.81.81,0,0,1-.809.808Zm-3.263-9.279a.4.4,0,0,0-.4.394v2.407a.4.4,0,0,0,.4.4h3.263a.809.809,0,0,1,.808.808V150.8a.4.4,0,0,0,.4.4h2.407a.394.394,0,0,0,.394-.4v-3.263a.81.81,0,0,1,.808-.808h3.264a.4.4,0,0,0,.4-.4v-2.407a.4.4,0,0,0-.4-.394h-3.264a.81.81,0,0,1-.808-.808v-3.264a.4.4,0,0,0-.394-.4h-2.407a.4.4,0,0,0-.4.4v3.264a.809.809,0,0,1-.808.808Z"
              transform="translate(-346.759 -137.453)"/>
      </g>
      <path class="c" d="M340.144,125.415a.809.809,0,1,0,.808.808A.81.81,0,0,0,340.144,125.415Z"
            transform="translate(-334.523 -121.459)"/>
      <path class="c" d="M347.689,125.415a.809.809,0,1,0,.808.808A.809.809,0,0,0,347.689,125.415Z"
            transform="translate(-335.601 -121.459)"/>
      <path class="c" d="M343.917,125.415a.809.809,0,1,0,.808.808A.809.809,0,0,0,343.917,125.415Z"
            transform="translate(-335.062 -121.459)"/>
    </g>
  </g>
</svg>
