<?xml version="1.0" encoding="utf-8"?>
<!-- Generator: Adobe Illustrator 24.0.3, SVG Export Plug-In . SVG Version: 6.00 Build 0)  -->
<svg version="1.1" id="Livello_1" xmlns="http://www.w3.org/2000/svg" xmlns:xlink="http://www.w3.org/1999/xlink" x="0px" y="0px"
	 viewBox="0 0 40 40" style="enable-background:new 0 0 40 40;" xml:space="preserve">
<style type="text/css">
	.st0{fill:#FFFFFF;}
	.st1{fill:#73D7FF;}
	.st2{fill:#003575;}
</style>
<title>img_consensi</title>
<desc>Created with Sketch.</desc>
<g>
	<g id="Group_2834" transform="translate(-729.445 -1253.979)">
		<g id="Group_2833" transform="translate(745.454 1271.134)">
			<path id="Path_6838_5_" class="st0" d="M11.3,0.4"/>
			<path id="Path_6838_1_" class="st0" d="M4-11"/>
			<path id="Path_6839_2_" class="st0" d="M10.8-0.7"/>
			<path id="Path_6841" class="st1" d="M-10,15.7v-1.5c0-1.7,1-3.3,2.5-4c1.1-0.6,2.2-1.1,3.4-1.4C-3.5,8.6-3,8.5-2.6,8.4
				c0,0,0.5-0.1,1.4-0.3c0.6,2.6,4.1,7.1,4.9,8.1v4.5C-2.7,20.6-6.7,19-8.5,18.1C-9.4,17.7-10,16.7-10,15.7z"/>
			<path id="Path_6842" class="st1" d="M17.8,15.8c-0.1,0.9-0.6,1.7-1.5,2.2c-3.7,1.7-7.8,2.7-11.9,2.6v-4.3c0.8-1,4.2-5.4,4.7-8
				c0.5,0.1,0.9,0.2,1.4,0.3c0.5,0.2,1,0.3,1.5,0.4c1.1,0.4,2.2,0.8,3.3,1.3c1.5,0.7,2.5,2.2,2.5,3.8v1.4L17.8,15.8z"/>
		</g>
	</g>
	<path class="st2" d="M31.8,26.4C31,26.1,30,25.6,29,25.3c0,0-1-0.4-2.7-0.7c-0.4-0.1-0.9-0.2-1.4-0.2l0,0c-0.2-0.1-0.6-0.1-0.9-0.1
		c5.2-0.4,7.3-1.5,7.3-1.6c0.1-0.1,0.2-0.1,0.2-0.2c0.1-0.1,0-0.2-0.1-0.3c-3-5.4-2.6-10.4-2.6-10.4s0,0,0-0.1
		c0-4.9-4.3-9.4-9.1-9.4s-9.1,4.5-9.1,9.4c0,0,0,0,0,0.1s0.4,5-2.6,10.4C8,22.2,8,22.3,8,22.4c0.1,0.1,0.1,0.2,0.2,0.2
		c0.1,0.1,2.2,1.1,6.9,1.5c-1.4,0.2-2.9,0.6-4.3,1.1c-1,0.4-2,0.8-2.8,1.2c-1.8,0.9-3,2.8-3,4.8v1.5c0,1.4,0.7,2.7,2,3.3
		c2.3,1.2,6.5,2.7,12.9,2.7c6.5,0,10.6-1.5,12.9-2.7c1.2-0.6,2-1.9,2-3.3v-1.5C34.8,29.2,33.6,27.4,31.8,26.4z M28.1,30.2L28.1,30.2
		c0.6,0,1,0.4,1,1s-0.4,1-1,1s-1-0.4-1-1c-0.1-0.5,0.2-0.9,0.7-1C27.9,30.2,28,30.2,28.1,30.2z M22.6,23c-0.1,0.1-0.2,0.1-0.4,0.2
		C22.4,23.2,22.5,23,22.6,23C22.6,23,22.6,23,22.6,23z M16.3,23.4L16.3,23.4L16.3,23.4L16.3,23.4z M7.5,35.1
		c-0.8-0.4-1.4-1.4-1.3-2.3v-1.5c0-1.6,0.9-3.1,2.4-3.8c0.9-0.4,1.8-0.8,2.8-1.2c-0.2,0.7-0.3,1.4-0.4,2.1c-1.4,0.4-2.4,1.7-2.1,3.2
		l0.3,1.8c-0.2,0.3-0.2,0.8,0.2,1.1c0.1,0,0.1,0.1,0.1,0.1c0.3,0.2,0.8,0.2,1.1-0.2c0-0.1,0.1-0.1,0.1-0.1c0.2-0.2,0.3-0.6,0.1-0.8
		c-0.1-0.1-0.1-0.1-0.1-0.1c-0.1-0.1-0.3-0.3-0.4-0.3l-0.4-1.5c-0.1-1,0.6-1.9,1.5-2c1-0.1,1.9,0.6,2,1.5l0.3,1.6
		c-0.1,0.1-0.3,0.3-0.3,0.4c-0.1,0.4,0.2,0.9,0.6,1s0.9-0.2,1-0.6c0.1-0.3,0-0.7-0.3-0.9l-0.3-1.6c-0.1-1.3-1.2-2.4-2.5-2.5
		c0.1-0.8,0.2-1.6,0.5-2.4l0.9-0.3c0,0,0.5-0.1,1.4-0.3c0.6,2.5,3.9,6.8,4.7,7.8v4.5C13.1,37.6,9.2,36.1,7.5,35.1z M33.9,32.8
		c-0.3,0.9-0.8,1.7-1.5,2.3c-3.7,1.7-7.8,2.7-11.9,2.6v-4.3c0.8-1,4.2-5.4,4.7-8c0.5,0.1,0.9,0.2,1.4,0.3c0.1,0,0.2,0,0.3,0.1
		c0.4,1.2,0.6,2.4,0.6,3.6c-1.1,0.4-1.7,1.6-1.3,2.6c0.4,1.1,1.6,1.7,2.6,1.3s1.7-1.6,1.3-2.6l0,0c-0.2-0.7-0.8-1.2-1.5-1.4
		c-0.1-1-0.3-2.1-0.5-3.1c1.1,0.4,2.2,0.8,3.3,1.3c1.5,0.7,2.4,2.2,2.4,3.9L33.9,32.8L33.9,32.8z"/>
	<path class="st0" d="M13.2,12.2c-0.2,0-0.4,0.2-0.4,0.4c-0.1,0.4-0.1,0.8-0.1,1.2c0,2.6,0.9,5.2,2.4,7.2c0.4,0.4,0.7,0.9,1.2,1.3
		c0,0.4,0,0.7-0.1,1c-3.9-0.2-6.2-1-7.1-1.3c2.8-5.3,2.5-9.9,2.5-10.5c0-4.5,4-8.5,8.3-8.5c4.3,0,8.3,4,8.3,8.5
		c-0.1,0.5-0.3,5.2,2.5,10.5c-0.9,0.4-3.1,1.1-7.1,1.3c0-0.2-0.1-0.6-0.1-1c0.4-0.4,0.8-0.8,1.2-1.3c1.6-2,2.4-4.6,2.4-7.2
		c0-0.2,0-0.6,0-0.9c0-0.2-0.2-0.4-0.4-0.4c-2.2,0-3.9-1.5-4.2-3.7c0-0.2-0.2-0.4-0.4-0.4c-0.2,0-0.4,0.1-0.5,0.2
		C20.7,10.7,17.3,12.1,13.2,12.2C13.2,12.2,13.2,12.2,13.2,12.2"/>
	<path class="st0" d="M13.7,13c3.5-0.1,6.6-1.3,8.1-3c0.7,1.9,2.3,3.2,4.4,3.4c0,0.1,0,0.2,0,0.4c0,2.4-0.8,4.8-2.2,6.7
		c-1.2,1.6-2.8,2.6-4,2.6c-2.5,0-6.3-3.9-6.3-9.3C13.7,13.5,13.7,13.3,13.7,13z"/>
	<path id="Path_6840" class="st0" d="M19.8,32.2c-1.4-1.8-4-5.5-4.2-7.2c0.6-0.6,0.9-1.3,1.2-2.1c0.9,0.6,1.9,0.9,3,0.9
		c1.1,0,2.2-0.3,3.1-0.9c0.2,0.7,0.6,1.5,1.2,2C24,26.6,21.4,30.2,19.8,32.2z"/>
	<ellipse id="Ellipse_88" class="st0" cx="28.2" cy="31.4" rx="1.5" ry="1.5"/>
</g>
</svg>
