<?xml version="1.0" encoding="utf-8"?>
<!-- Generator: Adobe Illustrator 23.1.1, SVG Export Plug-In . SVG Version: 6.00 Build 0)  -->
<svg version="1.1" id="Livello_1" xmlns="http://www.w3.org/2000/svg" xmlns:xlink="http://www.w3.org/1999/xlink" x="0px" y="0px"
	 viewBox="0 0 40 40" style="enable-background:new 0 0 40 40;" xml:space="preserve">
<style type="text/css">
	.st0{fill:#73D7FF;}
	.st1{fill:#FFFFFF;}
	.st2{fill:#003575;}
	.st3{fill:#394553;}
</style>
<g>
	<g>
		<g>
			<g>
				<polygon class="st0" points="17.1,2.2 21.3,4.6 25.6,6 30.6,6.3 31,12.2 30.4,17.1 28.8,23 26.8,26.7 25,28.9 23,30.8 
					19.4,33.5 17.1,34.1 13.5,32.9 10.1,30.3 7.6,26.7 6.1,24 3.8,17.4 2.8,9.7 3.8,6.1 10,5.5 15.2,3.4 				"/>
			</g>
		</g>
	</g>
	<ellipse class="st1" cx="17.1" cy="18.2" rx="6.8" ry="6.8"/>
	<g>
		<path class="st2" d="M17.1,34.9c-0.2,0-0.3,0-0.5-0.1C2.2,30.5,2.1,12.6,2.4,7.2c0.1-0.9,0.8-1.6,1.7-1.6c0,0,0,0,0.1,0
			c0.3,0,0.6,0,0.9,0c5.5,0,9.4-2.6,10.9-3.8c0.3-0.2,0.7-0.4,1-0.4c0.4,0,0.7,0.1,1,0.4c1.4,1.1,5.4,3.8,10.9,3.8
			c0.3,0,0.6,0,0.9,0l0,0c1,0,1.7,0.7,1.8,1.6c0.3,5.4,0.2,23.3-14.2,27.7C17.4,34.9,17.3,34.9,17.1,34.9z M4.2,7C4.1,7,4,7,3.9,7.1
			C3.8,7.1,3.8,7.2,3.8,7.3C3.5,13.9,4.2,29.6,17,33.4c0,0,0.1,0,0.1,0c0,0,0.1,0,0.1,0c13.3-4,13.4-21,13.1-26.1
			C30.3,7.1,30.1,7,30,7l0,0c-0.3,0-0.6,0-0.9,0c-5.7,0-9.8-2.5-11.7-4c-0.1,0-0.1-0.1-0.2-0.1c-0.1,0-0.2,0-0.2,0.1
			C15.3,4.2,11,7,5.1,7C4.8,7,4.5,7,4.2,7L4.2,7z"/>
		<path class="st2" d="M17.1,21.7c-0.2,0-0.4-0.1-0.5-0.2l-2.9-2.9c-0.3-0.3-0.3-0.7,0-1c0.1-0.1,0.3-0.2,0.5-0.2
			c0.2,0,0.4,0.1,0.5,0.2l2.1,2.1c0.1,0.1,0.2,0.1,0.2,0.1c0.1,0,0.2,0,0.2-0.1l6.8-6.7c0.1-0.1,0.3-0.2,0.5-0.2
			c0.2,0,0.4,0.1,0.5,0.2c0.1,0.1,0.2,0.3,0.2,0.5c0,0.2-0.1,0.4-0.2,0.5l-7.5,7.5C17.5,21.6,17.3,21.7,17.1,21.7z"/>
		<path class="st2" d="M17.1,26.4c-4.6,0-8.3-3.7-8.3-8.2c0-4.5,3.7-8.2,8.3-8.2c1.4,0,2.9,0.4,4.1,1.1c0.2,0.1,0.3,0.3,0.3,0.4
			c0.1,0.2,0,0.4-0.1,0.5c-0.1,0.2-0.4,0.4-0.6,0.4c-0.1,0-0.2,0-0.4-0.1c-1-0.6-2.2-0.9-3.4-0.9c-3.8,0-6.8,3-6.8,6.8
			c0,3.7,3.1,6.8,6.8,6.8c3.4,0,6.3-2.5,6.7-5.8c0.1-0.3,0.4-0.6,0.7-0.6c0,0,0.1,0,0.1,0c0.4,0.1,0.7,0.4,0.6,0.8
			C24.7,23.3,21.2,26.4,17.1,26.4z"/>
	</g>
</g>
<g>
	<g>
		<circle class="st0" cx="34.2" cy="29.5" r="2.8"/>
	</g>
	<g>
		<path class="st0" d="M33.5,33.5c0,2-1.6,3.6-3.6,3.6s-3.6-1.6-3.6-3.6c0-2,1.6-3.6,3.6-3.6S33.5,31.5,33.5,33.5z"/>
		<path class="st2" d="M29.9,37.2c-2.1,0-3.8-1.7-3.8-3.8c0-2.1,1.7-3.8,3.8-3.8s3.8,1.7,3.8,3.8C33.7,35.5,32,37.2,29.9,37.2z
			 M29.9,30.1c-1.9,0-3.4,1.5-3.4,3.4c0,1.9,1.5,3.4,3.4,3.4s3.4-1.5,3.4-3.4C33.3,31.6,31.8,30.1,29.9,30.1z"/>
	</g>
	<g>
		<path class="st1" d="M30.4,32.7c0.1,0.3-0.1,0.7-0.5,0.9c-0.4,0.2-0.9,0-1-0.3s0.1-0.7,0.5-0.9C29.8,32.2,30.2,32.4,30.4,32.7z"/>
	</g>
	<g>
		<g>
			<path class="st2" d="M29.9,30c-0.2,0-0.3-0.1-0.3-0.3v-1.9c0-0.2,0.1-0.3,0.3-0.3s0.3,0.1,0.3,0.3v1.9C30.2,29.8,30.1,30,29.9,30
				z"/>
		</g>
		<g>
			<path class="st2" d="M29.9,39.4c-0.2,0-0.3-0.1-0.3-0.3v-1.9c0-0.2,0.1-0.3,0.3-0.3s0.3,0.1,0.3,0.3V39
				C30.2,39.2,30.1,39.4,29.9,39.4z"/>
		</g>
	</g>
	<g>
		<g>
			<path class="st2" d="M35.6,33.7h-1.9c-0.2,0-0.3-0.1-0.3-0.3c0-0.2,0.2-0.3,0.3-0.3h1.9c0.2,0,0.3,0.1,0.3,0.3
				C35.9,33.6,35.7,33.7,35.6,33.7z"/>
		</g>
		<g>
			<path class="st2" d="M26.1,33.7h-1.9c-0.2,0-0.3-0.1-0.3-0.3c0-0.2,0.2-0.3,0.3-0.3h1.9c0.2,0,0.3,0.1,0.3,0.3
				C26.4,33.6,26.2,33.7,26.1,33.7z"/>
		</g>
	</g>
	<g>
		<g>
			<path class="st2" d="M25.9,37.7c-0.1,0-0.2,0-0.2-0.1c-0.1-0.1-0.1-0.3,0-0.5l1.3-1.3c0.1-0.1,0.3-0.1,0.5,0
				c0.1,0.1,0.1,0.3,0,0.5l-1.3,1.3C26.1,37.7,26,37.7,25.9,37.7z"/>
		</g>
	</g>
	<g>
		<g>
			<path class="st2" d="M27.3,31.1c-0.1,0-0.2,0-0.2-0.1l-1.4-1.3c-0.1-0.1-0.1-0.3,0-0.5c0.1-0.1,0.3-0.1,0.5,0l1.3,1.3
				c0.1,0.1,0.1,0.3,0,0.5C27.4,31.1,27.3,31.1,27.3,31.1z"/>
		</g>
		<g>
			<path class="st2" d="M33.9,37.7c-0.1,0-0.2,0-0.2-0.1l-1.3-1.3c-0.1-0.1-0.1-0.3,0-0.5c0.1-0.1,0.3-0.1,0.5,0l1.3,1.3
				c0.1,0.1,0.1,0.3,0,0.5C34,37.7,33.9,37.7,33.9,37.7z"/>
		</g>
	</g>
	<g>
		<g>
			<g>
				<path class="st1" d="M27.7,33.2c0,0.1-0.1,0.2-0.2,0.2c-0.1,0-0.2-0.1-0.2-0.2c0-0.1,0.1-0.2,0.2-0.2
					C27.6,33,27.7,33.1,27.7,33.2z"/>
				<path class="st1" d="M27.6,33.6c-0.2,0-0.5-0.2-0.5-0.5s0.2-0.5,0.5-0.5c0.2,0,0.5,0.2,0.5,0.5S27.8,33.6,27.6,33.6z"/>
			</g>
		</g>
	</g>
	<g>
		<g>
			<g>
				<path class="st1" d="M31.9,31.9c0,0.1-0.1,0.2-0.2,0.2s-0.2-0.1-0.2-0.2c0-0.1,0.1-0.2,0.2-0.2C31.8,31.8,31.9,31.8,31.9,31.9z"
					/>
				<path class="st1" d="M31.8,32.4c-0.2,0-0.5-0.2-0.5-0.5s0.2-0.5,0.5-0.5s0.5,0.2,0.5,0.5S32,32.4,31.8,32.4z"/>
			</g>
		</g>
	</g>
	<g>
		<g>
			<g>
				<path class="st1" d="M31.5,34.4c0,0.1-0.2,0.1-0.3,0c-0.1,0-0.2-0.2-0.2-0.2c0-0.1,0.2-0.1,0.3,0C31.4,34.3,31.5,34.4,31.5,34.4
					z"/>
				<path class="st1" d="M31.3,34.8c-0.1,0-0.2,0-0.3,0c-0.3-0.1-0.5-0.4-0.4-0.6c0-0.1,0.1-0.2,0.2-0.2c0.1,0,0.3,0,0.5,0
					c0.2,0.1,0.3,0.2,0.4,0.3c0,0.1,0,0.2,0,0.3C31.7,34.7,31.6,34.8,31.3,34.8C31.4,34.8,31.4,34.8,31.3,34.8z M31.2,34.3
					c0,0,0,0.1,0,0.1C31.2,34.4,31.3,34.4,31.2,34.3c0.1,0,0.1-0.1,0.1-0.1C31.3,34.2,31.2,34.3,31.2,34.3L31.2,34.3z"/>
			</g>
		</g>
	</g>
	<g>
		<path class="st3" d="M34.6,31.1c-0.1,0-0.2,0-0.3-0.1c0,0-0.1-0.1-0.1-0.1c0-0.2,0.1-0.5,0.4-0.5c0.2-0.1,0.4,0,0.5,0.1
			c0,0,0.1,0.1,0.1,0.2c0,0.2-0.1,0.5-0.4,0.5C34.7,31,34.7,31.1,34.6,31.1z"/>
	</g>
	<g>
		<path class="st0" d="M31.5,29.2c0-1.4,1.1-2.6,2.5-2.7c1.6-0.2,3,0.9,3.2,2.5c0.2,1.6-0.9,3-2.5,3.2c-0.1,0-0.3,0-0.5,0"/>
		<path class="st2" d="M34.3,32.4c0,0-0.1,0-0.2,0l0-0.4c0.2,0,0.3,0,0.5,0c0.7-0.1,1.3-0.5,1.8-1c0.5-0.6,0.6-1.2,0.5-2
			c-0.1-0.7-0.4-1.4-1-1.8c-0.6-0.5-1.2-0.6-2-0.5c-1.3,0.2-2.3,1.2-2.4,2.6h-0.4c0-1.5,1.2-2.8,2.7-2.9c0.8-0.1,1.6,0.1,2.3,0.6
			c0.7,0.5,1.1,1.2,1.2,2.1c0.1,0.8-0.1,1.6-0.6,2.3c-0.5,0.7-1.2,1.1-2.1,1.2C34.6,32.4,34.4,32.4,34.3,32.4z"/>
	</g>
	<g>
		<g>
			<path class="st2" d="M34,26.6c-0.1,0-0.2-0.1-0.2-0.2L33.6,25c0-0.1,0-0.2,0.2-0.2c0.1,0,0.2,0.1,0.2,0.2l0.2,1.4
				C34.2,26.5,34.1,26.6,34,26.6L34,26.6z"/>
		</g>
	</g>
	<g>
		<g>
			<path class="st2" d="M37.2,29.2c-0.1,0-0.2-0.1-0.2-0.2c0-0.1,0.1-0.2,0.2-0.2l1.4-0.2c0.1,0,0.2,0.1,0.2,0.2
				c0,0.1-0.1,0.2-0.2,0.2L37.2,29.2L37.2,29.2z"/>
		</g>
	</g>
	<g>
		<g>
			<path class="st2" d="M36.1,27.2c0,0-0.1,0-0.1,0c-0.1-0.1-0.1-0.2,0-0.3l0.9-1.2c0.1-0.1,0.2-0.1,0.3,0c0.1,0.1,0.1,0.2,0,0.3
				l-0.9,1.2C36.3,27.2,36.2,27.2,36.1,27.2z"/>
		</g>
	</g>
	<g>
		<g>
			<path class="st2" d="M32,27.8c0,0-0.1,0-0.1,0l-1.2-0.9c-0.1-0.1-0.1-0.2,0-0.3c0.1-0.1,0.2-0.1,0.3,0l1.2,0.9
				c0.1,0.1,0.1,0.2,0,0.3C32.1,27.7,32.1,27.8,32,27.8z"/>
		</g>
		<g>
			<path class="st2" d="M37.8,32.3c0,0-0.1,0-0.1,0l-1.2-0.9c-0.1-0.1-0.1-0.2,0-0.3c0.1-0.1,0.2-0.1,0.3,0l1.2,0.9
				c0.1,0.1,0.1,0.2,0,0.3C37.9,32.2,37.9,32.3,37.8,32.3z"/>
		</g>
	</g>
	<g>
		<g>
			<g>
				<path class="st1" d="M34.9,28.3c-0.2,0-0.3-0.1-0.3-0.3c0-0.2,0.1-0.3,0.3-0.4c0.2,0,0.3,0.1,0.4,0.3l0,0c0,0.1,0,0.2-0.1,0.2
					C35.1,28.2,35,28.3,34.9,28.3C34.9,28.3,34.9,28.3,34.9,28.3z"/>
			</g>
		</g>
	</g>
	<g>
		<g>
			<g>
				<path class="st1" d="M33.2,28.8c-0.2,0-0.3-0.1-0.3-0.3c0-0.1,0-0.2,0.1-0.2c0-0.1,0.1-0.1,0.2-0.1c0.1,0,0.2,0,0.2,0.1
					c0.1,0,0.1,0.1,0.1,0.2l0,0c0,0.1,0,0.2-0.1,0.2C33.4,28.7,33.3,28.8,33.2,28.8L33.2,28.8z"/>
			</g>
		</g>
	</g>
	<g>
		<g>
			<g>
				<path class="st1" d="M35.6,29.5c-0.1,0-0.2,0-0.3-0.1s-0.1-0.1-0.1-0.2c0-0.2,0.1-0.3,0.4-0.4c0.2,0,0.5,0.1,0.5,0.3l0,0
					C36.1,29.3,35.9,29.5,35.6,29.5C35.6,29.5,35.6,29.5,35.6,29.5z"/>
			</g>
		</g>
	</g>
</g>
</svg>
