<svg xmlns="http://www.w3.org/2000/svg" xmlns:xlink="http://www.w3.org/1999/xlink" width="1013.781" height="459.221" viewBox="0 0 1013.781 459.221"><defs><style>.a,.aq,.av{fill:none;}.b{fill:#d4dbdf;}.c{fill:#003f97;}.d{fill:#1158b0;}.e{fill:#2e383b;}.f{fill:#d88f69;}.g{fill:#bbc2c6;}.h{fill:#e6ad9d;}.i{fill:#f9bcaa;}.j{fill:#eef5f9;}.k{fill:#3a2bb2;}.l{fill:#e6a677;}.m{fill:#8a72ac;}.n{fill:#db9866;}.o{fill:#9f88c1;}.p{fill:#612104;}.q{fill:#f2a983;}.r{fill:#7a3a1d;}.s{fill:#4356ba;}.t{fill:#5c6fd3;}.u{fill:#c1060b;}.v{fill:#f5ab95;}.w{fill:#da1f24;}.x{fill:#6d2d10;}.y{fill:#e0ac9c;}.z{fill:#512817;}.aa{fill:#fff;}.ab{fill:#438be3;}.ac{fill:#3d7bc7;}.ad{fill:#4432db;}.ae{fill:#e6005e;}.af{fill:#ffb783;}.ag{clip-path:url(#a);}.ah{opacity:0.39;mix-blend-mode:multiply;isolation:isolate;}.ai{clip-path:url(#c);}.aj{fill:#a7bcf5;}.ak{fill:#95c1f5;}.al{fill:#cfe4fa;}.am{fill:#b0cff5;}.an{fill:#b4d3fa;}.ao{fill:#4c89d4;}.ap{fill:#69a5ed;}.aq,.av{stroke:#fff;stroke-linecap:round;stroke-linejoin:round;}.aq{stroke-width:0.9px;}.ar{fill:#1d50cf;}.as{fill:#478bde;}.at{fill:#86baf7;}.au{fill:#97cbff;}.av{stroke-width:1.013px;}.aw{fill:url(#d);}.ax{fill:#fd5;}.ay{fill:#f3cc4b;}.az{fill:#a28b2d;}.ba{fill:url(#e);}.bb{fill:url(#f);}.bc{fill:#467de4;}.bd{fill:#294d90;}.be{fill:#b3c8f0;}.bf{fill:#661900;}.bg{fill:#043575;}</style><clipPath id="a"><rect class="a" width="192.39" height="370.902"/></clipPath><clipPath id="c"><rect class="a" width="120.229" height="51.897"/></clipPath><linearGradient id="d" x1="8.293" y1="-2.313" x2="8.86" y2="-0.656" gradientUnits="objectBoundingBox"><stop offset="0" stop-color="#f3cc4b"/><stop offset="1" stop-color="#a0892c"/></linearGradient><linearGradient id="e" x1="8.266" y1="-2.074" x2="8.833" y2="-0.418" xlink:href="#d"/><linearGradient id="f" x1="8.335" y1="-1.836" x2="8.901" y2="-0.18" xlink:href="#d"/></defs><g transform="translate(-340 -1205.779)"><g transform="translate(-12423 -6645)"><path class="b" d="M649.341,1437.592s.436,6.067.363,7.778a3.207,3.207,0,0,1-1.852,3.2,14.291,14.291,0,0,0-4.689,5.088,10.607,10.607,0,0,1-8.757,6.031c-4.868.291-10.644-.29-10.571-3.16s2.5-6.069,4.976-8.538,6-5.522,7.449-7.449,2.654-2.73,4-2.217c4.469,1.709-.216,6.322,2.725,5.523s4.724-5.525,6.359-6.251" transform="translate(12280.719 6832.81)"/><path class="b" d="M326.468,1055.6s3.742.981,4.759,2.18a6.632,6.632,0,0,1,1.345,5.377,9.27,9.27,0,0,1-4.358,5.523c-2.543,1.563-5.816,3.452-6.979,6s-2.433,8.9-7.809,10.136-10.575,2-11.192-2.834,3.379-7.485,5.086-9.337,6.759-7.158,7.486-8.1,1.924-.255,3.16.435,4.9.181,6.431-1.925,3.27-5.161,2.071-7.449" transform="translate(12654.731 7147.1)"/><path class="c" d="M351.106,744.738l8.668,25.617c10.97,2.358,16.95,10.314,19.524,14.7s9.683,9.685,9.683,9.685c1.175,7.218-5.838,11.487-11.215,13.187s-6.363-7.077-10.7-12.343-12.506-9.874-14.261-11.245-14.317-11.685-14.317-11.685-6.639-9.106-8.834-14.212-3.566-20.62-3.566-20.62Z" transform="translate(12594.092 7408.549)"/><path class="d" d="M493.715,721.227c.717,2.458,1.94,17.83.1,22.85s-19.154,47.633-20.282,52.037.307,10.039-.513,15.572-10.777,35.612-10.777,40.359c0,0-4.186,5.826-10.128,5.111s-7.393-3.39-7.393-3.39,7.709-26.919,9.143-38.084,1.229-21.1,2.868-28.068,12.8-51.834,12.8-51.834Z" transform="translate(12467.397 7422.206)"/><path class="e" d="M624.925,1498.863a.65.65,0,0,1,.032-.077c.45,2.526,5.9,3.042,10.539,2.764a10.607,10.607,0,0,0,8.757-6.03,14.288,14.288,0,0,1,4.689-5.088,3.211,3.211,0,0,0,1.694-1.954c-.06,1.229-.278,3.59-.278,3.59s-.181.655-1.563,1.382a9.705,9.705,0,0,0-4.251,3.6c-.945,1.78-2.507,4.324-7.74,5.2a18.7,18.7,0,0,1-9.772-.622c-1.782-.54-2.617-1.084-2.107-2.756" transform="translate(12279.629 6790.943)"/><path class="e" d="M296.065,1100.131c.021-.056.044-.109.066-.166a7.387,7.387,0,0,0,0,1.945c.618,4.833,5.812,4.07,11.192,2.834s6.648-7.593,7.809-10.136,4.436-4.433,6.979-6a9.271,9.271,0,0,0,4.358-5.523,6.011,6.011,0,0,0-.21-3.262h0c.644.9,1.916,3.625,1.371,5.261s-2.251,3.268-4.214,4.431-6.252,2.979-7.231,4.615-3.053,7.921-5.234,9.445a14.568,14.568,0,0,1-8.755,2.725c-3.96.037-7.829-1.161-6.131-6.175" transform="translate(12660.836 7127.163)"/><path class="f" d="M709,679.094s-2.543,1.748-1.986,2.3,5.935,4.027,7.95,3.868a16.239,16.239,0,0,0,4.769-1.113c1.218-.478,3.6-2.649,2.6-3.126a9.136,9.136,0,0,1-2.174-1.642c-.16-.161-1.172-5.355-1.172-5.355Z" transform="translate(12193.126 7461.036)"/><path class="g" d="M479.254,285.19l-5.049-2.25,4.206,7.83Z" transform="translate(12477.697 7782.81)"/><path class="h" d="M485.246,266.658l19.41-9.28c-1.252,5.063,1.283,10.38,1.283,10.38s-12.655,26.294-23.054,24.4c-6.335-1.151,2.361-25.5,2.361-25.5" transform="translate(12449.883 7803.841)"/><path class="i" d="M675.819,442.918a16.105,16.105,0,0,1-1.58,5.882,81.191,81.191,0,0,0-5.309,15.579c-1.327,6.149-4.982,15.634-6.2,17.331s-3.762,5.669-4.133,6.941a3.6,3.6,0,0,0,0,2.6c.212.158,2.808-.9,3.656-.637a8.419,8.419,0,0,1,2.226,1.644,17.734,17.734,0,0,0,2.067,3.71c.9.952,2.278,2.172,2.861,1.483s.159-2.861.159-2.861-1.7-6.212-1.537-7.219,3.922-1.047,3.867-3.327-.264-3.869-.264-3.869l9.7-13.407,1.43-23.846Z" transform="translate(12241.548 7651.187)"/><path class="g" d="M613.991,319.124a70.4,70.4,0,0,0,6.482,3.207c3.011,1.243,9.906-32,9.906-32s-5.783-1.051-8.924,2.806-4.256,10.536-4.387,12.76-3.077,13.224-3.077,13.224" transform="translate(12301.796 7776.834)"/><path class="b" d="M394.648,347.506c.095-6.411-1.038-24.512-.284-30.453s6.129-23,11.5-26.113l3.434,2.449s-3.245,5.657-3.434,7.354a1.977,1.977,0,0,0,.931,2.181s-.294,9.241,1.885,13.949c0,0,5.759-8.479,8.789-9.963l15.788-9.229s10.285,9.029,10.85,9.6,2.5,12.1-.6,20.683-5.6,27.536-5.128,32.9,1.328,20.018,1.328,20.018a15.831,15.831,0,0,1-4.875,4.421l-1.349-16.015-2.347,17.856a27.387,27.387,0,0,1-5.948,1.565c-10.653,1.6-26.775-3.447-33.281-11.577,0,0,2.638-23.211,2.734-29.624" transform="translate(12526.309 7776.228)"/><path class="j" d="M460.275,300.806a13.963,13.963,0,0,0,2.933-5.17l4.284,6.322c-2.5,4.9-12.473,20.05-12.473,20.05l-4.981-11.234s7.214-6.488,10.238-9.968" transform="translate(12493.744 7772.364)"/><path class="j" d="M603.915,306.772s-2.623,6.437-2.5,9.179l-6.8,6.8s5.3-11.98,9.3-15.974" transform="translate(12331.693 7763.202)"/><path class="i" d="M284.934,539.488a106.635,106.635,0,0,1-2.4-13.364c-.058-1.363-8.179-10.224-8.179-10.224l13.758-2.866c.327,1.752,5.094,6.994,6.053,9.65s2.517,11.474,2.932,17.194-.162,14.688.286,16.2.189,4.664.365,5.786,1.413,6.462,1.794,7.922-1.543,4.17-1.876,5.2a6.972,6.972,0,0,1-1.913,2.294s-3.711.2-5.041.908-4.073-.325-4.073-.325-1.614-4.657-1.989-4.874l.51-2.854c.752-2.125.151-3.293,1.837-4.951s3.374-3.73,3.141-4.75-4.215-17.608-5.2-20.945" transform="translate(12692.782 7593.498)"/><path class="i" d="M483.509,141.042c-.591,1.185-3.369,5.96-8.589,7.7s-8.03,2.443-10.547,1.776-1.74-2.183-1.814-3-1.072-5.254-1.072-5.254-1.038-.48-1-1.222a4.34,4.34,0,0,1,.482-1.555,36.182,36.182,0,0,1-.74-4.183,5.275,5.275,0,0,1,.667-3.182,8.309,8.309,0,0,1-1-2.666c0-.89.815-7.81,3.849-11.437s10.585-8.326,18.064-5.883,8.81,9.438,9.14,13.066-2.145,9.177-3.367,11.362a19.789,19.789,0,0,1-4.072,4.479" transform="translate(12468.51 7923.896)"/><path class="k" d="M463.532,114.664c-1.46-.345-6.292-2.7-5.131-7.39,1.079-4.36,6.108-9.1,13.5-9.564,8.622-.544,13.175,3.741,15.71,9.532s1.238,9.69,0,13.768a27.566,27.566,0,0,1-3.4,7.126l-1.8-2.888s1.37-2.886-.408-2.293a21.941,21.941,0,0,1-3.072,1c-.406,0-.481-2.444-1.333-3.812s-2.535-.5-2.5-2.536.2-3.585-2.425-3.09a24.967,24.967,0,0,1-9.143.15" transform="translate(12470.719 7935.248)"/><path class="k" d="M460.526,209.74c1.971-.047,8.665-.3,13.072-1.655-.279,1.284-.664,2.52-1.047,3.775a27.563,27.563,0,0,1-3.4,7.126l-1.8-2.888s1.371-2.886-.408-2.293a21.943,21.943,0,0,1-3.072,1c-.406,0-.481-2.444-1.333-3.812-.553-.892-1.458-.838-2.012-1.251" transform="translate(12485.777 7844.397)"/><path class="h" d="M470.051,232.142s1.924-3.219,4.072-2.7,1,3.073.258,4.551-4.552,5.886-4.921,3.592a14.807,14.807,0,0,1,.591-5.443" transform="translate(12482.448 7826.873)"/><path class="g" d="M396.716,467.263c1.951-12.2,2.073-17.928,1.951-22.2s.047-14.878,4.717-17.805c2.054-1.287,5.393-1.159,8.514-.571a35.634,35.634,0,0,1-1.7,12.607c-3.1,8.584-5.6,27.536-5.128,32.9s1.328,20.018,1.328,20.018a15.834,15.834,0,0,1-4.875,4.421l-1.349-16.015-2.347,17.856a27.364,27.364,0,0,1-5.918,1.559c1.128-8.014,3.384-23.907,4.8-32.775" transform="translate(12559.621 7664.89)"/><path class="b" d="M316.288,370.035s-9.525,7.482-8.139,16.428,10.31,26.016,10.31,26.016,7.227-2.662,10.378-4.84a39.1,39.1,0,0,0,6.025-4.794s-7.414-25.3-18.575-32.81" transform="translate(12651.544 7711.152)"/><path class="l" d="M192.681,839.208s.077-3.818,0-5.284-.232-3.317-.964-3.7-4.435-1.62-5.553-1a4.232,4.232,0,0,0-2.16,2.815,9.189,9.189,0,0,0,1.157,3.587c.733,1.465.424,2.7,1.543,3.432s1.118,1.235,1.118,1.235.887,11.647,1.2,13.691a16.214,16.214,0,0,0,4.358,8.1c2.545,2.507,11.994,10.182,12.8,13.113s5.747,1.7,5.669,1.2-2.506-11.377-2.506-11.377a34.115,34.115,0,0,1-4.513-2.97c-1.7-1.427-6.441-6.286-6.441-6.286S195.3,847,194.456,844.646s-1.774-5.438-1.774-5.438" transform="translate(12796.537 7333.494)"/><path class="l" d="M78.428,1328.842a6.491,6.491,0,0,1,.773-4.086c.469-.469,4.417-4.058,5-5.743s.359-10.851.635-13.281-.635-5.024-.8-6.156a13.931,13.931,0,0,1,.385-6.324c.856-2.153,5.555-16.661,8.439-21.489s7.534-7.888,9.124-8.123,7.711-.882,7.711,1.942,0,7.594-5.062,14.952-11.124,17.541-11.124,17.541,1.412,6,.117,10.124-3.267,9.068-3.682,10.675a9.462,9.462,0,0,0-.137,3.359s-3.324,5.391-4.9,6.112-6.473.5-6.473.5" transform="translate(12917.42 6976.123)"/><path class="m" d="M204.191,1593.962a19.881,19.881,0,0,1-2.291,2.761c-1.381,1.381-2.706,2.6-4.749,1.988a9.461,9.461,0,0,1-3.479-1.988s-3.948,2.789-5.191,4.86-.441,4.141,2.43,4.252,6.82-.967,8.062-2.375,2.043-3.368,3.4-4.2,2.346-1.546,2.374-2.65a8.868,8.868,0,0,0-.553-2.651" transform="translate(12802.948 6704.155)"/><path class="l" d="M33.787,1381.027c-.748-1-.72-3.85-.72-3.85l.387-2.188,1.357-4.126a72.856,72.856,0,0,1-9.3-3.045,29.666,29.666,0,0,0-6.48-1.994l6.286-9.443a15.054,15.054,0,0,1,8.945,4.707,23.676,23.676,0,0,0,6.785,5.9,2.658,2.658,0,0,1,1.079,3.406c-.581,1.247-5.372,8.28-5.372,8.28Z" transform="translate(12995.257 6899.626)"/><path class="l" d="M40.3,1377.178s-.028,2.852.72,3.85l2.963-2.354s2.753-4.042,4.338-6.541a45.246,45.246,0,0,1-5.668-4.452c-3.61-3.336-7.262-8.147-7.541-10.7a14.025,14.025,0,0,0-2.566-.6l-6.286,9.443a29.68,29.68,0,0,1,6.48,1.994,72.842,72.842,0,0,0,9.3,3.045l-1.357,4.126Z" transform="translate(12988.021 6899.626)"/><path class="m" d="M14.088,1424.222s.61,4.071,2.216,2.8,2.243-3.157,3.572-4.458,3.407-4.043,1.8-6.341c0,0,3.046.386,3.073,2.381s.055,2.548-1.246,3.794-3.24,3.346-3.683,4.872-1.883,4.848-3.461,5.734-5.871,1.5-6.868-.5.332-2.686,1.191-3.6,3.406-4.237,3.406-4.68" transform="translate(13014.623 6850.395)"/><path class="n" d="M119.038,1010.671s-.745,5.926.543,8.209-.819,15.557-9.143,10.886-7.087-14.6-6.975-14.581,15.575-4.514,15.575-4.514" transform="translate(12902.754 7184.063)"/><path class="o" d="M22.729,1098.739s18.752,9.078,34.264-5.618c0,0-10.559-18.246-11.092-24.612s.333-13.745,1.76-17.764,2.736-8.336,2.736-8.336L42,1035.751s-3.042,8.2-10.425,5.577-2.671-10.151-2.671-10.151l-4.393.7S21.3,1036.8,21.1,1046.761s-.718,24.486,0,30.9a35.337,35.337,0,0,0,3.632,11.707Z" transform="translate(12980.334 7167.191)"/><path class="m" d="M189.907,1214.2a134.494,134.494,0,0,0,.345,14.042,35.334,35.334,0,0,0,3.632,11.707l2.283-7.529s-4.545-10.807-6.26-18.219" transform="translate(12811.178 7016.606)"/><path class="m" d="M25.744,1129.688c-.534-6.366.333-13.745,1.76-17.764.691-1.949,1.355-3.967,1.856-5.529-.583-.234-.928-.5-.924-.809a10.53,10.53,0,0,0-1.814-.018c-6.558.534-5.293,5.343-5.633,11.074s-.535,22.586.631,29.677c.564,3.433,1.223,10.333,1.829,15.476a29.822,29.822,0,0,0,13.387-7.494s-10.558-18.246-11.092-24.612" transform="translate(13000.49 7106.012)"/><path class="l" d="M12.18,1132.7c-.178-.077-.609.178-1.167,1.218s-1.548,2.842-2.436,2.486-.28-1.979.3-3.1a43.869,43.869,0,0,1,2.08-4.491,8.089,8.089,0,0,1,1.65-2s-1.116-7.461-1.574-10.226a40.539,40.539,0,0,0-3.045-9.363c-.964-1.751-4.592-8.932-5.354-10.2s-3.7-3.856-2.234-6.8,6.064-4.288,8.678.381,3.147,6.75,4.517,9.261,3.324,7.333,3.654,10.073-.431,15.53-.254,16.646,1.5,3.7.787,6.547a10.252,10.252,0,0,1-3.02,5.4c-.825.571-3.882,1.447-4.212.99s.507-.99,1.4-1.8a4.347,4.347,0,0,0,.938-3.349,4.051,4.051,0,0,0-.71-1.675" transform="translate(13023.004 7120.809)"/><path class="p" d="M179.745,963.55s-1.663,13.571-.026,17.639c0,0,6.226-3.463,6.464-3.213s-6.438-14.426-6.438-14.426" transform="translate(12823.085 7222.832)"/><path class="l" d="M83.734,897.319a14.618,14.618,0,0,0-4.146,6.5c-.645,2.326-1.243,4.678-.72,5.547s.747,1.289.523,1.962a11.588,11.588,0,0,0-.523,4.539c.271,1.569,1.559,4.2,1.755,5.294s.309,2.8,2.13,3.026A24.589,24.589,0,0,0,94.043,921.3c3.279-2.046,6.388-6.472,8.153-12.187s.5-9.721-2.914-12.579-9.244-4.426-15.548.785" transform="translate(12924.066 7280.142)"/><path class="q" d="M84.784,997.368c-.224.868-.7,2.255.421,2.486s3.389-2.15,4.51-3.971-1.54-4.09-3.25-2.773-1.681,4.258-1.681,4.258" transform="translate(12936.043 7198.835)"/><path class="r" d="M74.155,889.537s-9.062,1.167-10.685,13.141A15.544,15.544,0,0,0,71.639,906l1.9-4.28-.529,4.43a18.7,18.7,0,0,0,7.407,1.08l.467-1.987s.92,10.713-2.956,18.379c0,0,10.434-1.135,12.774-7.573,1.259-3.467,2.743-12.055-.96-19.671s-11.014-7.86-15.584-6.84" transform="translate(12937.665 7284.083)"/><path class="i" d="M1323.948,965.428a6.48,6.48,0,0,1,.773-4.082c.469-.47,4.413-4.056,4.993-5.739s.359-10.841.634-13.27-.634-5.021-.8-6.152a13.912,13.912,0,0,1,.385-6.317c.856-2.152,5.551-16.648,8.432-21.471s7.528-7.881,9.116-8.116,7.705-.882,7.705,1.941,0,7.586-5.058,14.938-11.116,17.527-11.116,17.527,1.412,6,.117,10.116-3.263,9.061-3.679,10.666a9.448,9.448,0,0,0-.136,3.357s-3.322,5.387-4.9,6.106-6.468.5-6.468.5" transform="translate(11451.167 7275.08)"/><path class="r" d="M1449.614,1230.324a19.939,19.939,0,0,1-2.29,2.76c-1.379,1.379-2.7,2.593-4.745,1.986a9.451,9.451,0,0,1-3.476-1.986s-3.946,2.786-5.187,4.855-.442,4.138,2.428,4.248,6.814-.966,8.055-2.373,2.042-3.365,3.393-4.193,2.345-1.545,2.373-2.649a8.885,8.885,0,0,0-.552-2.649" transform="translate(11336.785 7003.341)"/><path class="i" d="M1279.345,1017.561c-.747-1-.719-3.846-.719-3.846l.388-2.186,1.355-4.123a72.921,72.921,0,0,1-9.3-3.043,29.613,29.613,0,0,0-6.474-1.992l6.281-9.435a15.041,15.041,0,0,1,8.937,4.7,23.643,23.643,0,0,0,6.78,5.893,2.657,2.657,0,0,1,1.079,3.4c-.581,1.246-5.368,8.273-5.368,8.273Z" transform="translate(11528.939 7198.655)"/><path class="i" d="M1285.854,1013.716s-.028,2.85.719,3.846l2.96-2.351s2.751-4.039,4.335-6.536a45.191,45.191,0,0,1-5.663-4.449c-3.608-3.333-7.257-8.14-7.535-10.686a13.968,13.968,0,0,0-2.565-.6l-6.281,9.435a29.624,29.624,0,0,1,6.474,1.992,72.9,72.9,0,0,0,9.3,3.043l-1.355,4.123Z" transform="translate(11521.711 7198.654)"/><path class="r" d="M1259.661,1060.72s.609,4.067,2.214,2.794,2.241-3.154,3.569-4.455,3.4-4.039,1.8-6.337c0,0,3.044.387,3.071,2.38s.055,2.545-1.245,3.79-3.237,3.344-3.68,4.868-1.881,4.845-3.458,5.73-5.866,1.494-6.862-.5.332-2.684,1.19-3.6,3.4-4.233,3.4-4.676" transform="translate(11548.292 7149.464)"/><path class="s" d="M1363.589,917.718a33.261,33.261,0,0,0,5.6,16.285c5.4,7.886,12.365-14.69,12.365-14.69Z" transform="translate(11417.767 7260.541)"/><path class="t" d="M1321.869,917.667s10.491,3.442,14.184,4.448c0,0,9.713-16.786,10.815-22.828s-.514-9-2.674-9.819-13.287,6.082-14.6,8.645-7.721,19.554-7.721,19.554" transform="translate(11459.486 7283.839)"/><path class="i" d="M1442.136,724.686s-1.189.792-1.873-.828a9.331,9.331,0,0,1,.4-7.168,45.021,45.021,0,0,1,4.43-6.123s4.755-9.653,6.16-12.715,2.809-5.872,2.809-5.872,1.656-7.826,1.908-10.666-.684-9.5,3.783-9.972,1.224,10.733,1.224,10.733l-3.206,20.854s-4.718,5.331-5.979,7.024-2.053,2.342-2.125,3.314a8.394,8.394,0,0,1-1.225,3.422,4.156,4.156,0,0,0-.684,3.457c.324,1.4.916,3.335.174,3.479s-1.3-1.668-1.525-2.739a4.213,4.213,0,0,0-.659-1.833,6.71,6.71,0,0,0-.7,2.575c0,.927,1.009,3.666.247,3.831s-1.236-.948-1.319-1.957-.494-3.6-.494-3.6a2.28,2.28,0,0,0-.556,1.236,6.254,6.254,0,0,0,.432,2.718c.289.638.722,1.875.124,2.019s-1.344-1.187-1.344-1.187" transform="translate(11323.71 7463.259)"/><path class="u" d="M1449.651,686.777l-3.546-.75s.612-9.929,1.431-12.206,2.28-2.247,4.311-2.247-2.2,15.2-2.2,15.2" transform="translate(11332.292 7463.058)"/><path class="v" d="M1364.527,647.516s-.744,5.921.542,8.2-.818,15.544-9.136,10.878-7.081-14.589-6.969-14.569,15.563-4.51,15.563-4.51" transform="translate(11436.513 7482.852)"/><path class="w" d="M1305.527,716.039s-.985,4.82,11.918,5.959,16.786-1.175,16.786-1.175-1.831-7.47-3.349-12.673,1-12.253,3.013-15.695,1.259-10.939,1.259-10.939l-7.889-6s-3.021,7.99-9.987,6-3.441-9.2-3.441-9.2l-4.016-.739s-2.68,5.491-3.024,9.242a145,145,0,0,0-.6,16.844c.167,7.3-.671,18.379-.671,18.379" transform="translate(11474.317 7463.058)"/><path class="u" d="M1314.376,746.729l-5.723.232a27.555,27.555,0,0,0-1.07,8.874c.137,5.388-.894,15.664-1.167,21.2a59.477,59.477,0,0,1-.9,7.061c5.821-.261,7.8-1.438,7.8-1.438s-1.831-7.47-3.349-12.673,1-12.253,3.013-15.695c1.127-1.925,1.387-5.119,1.4-7.561" transform="translate(11495.232 7401.224)"/><path class="i" d="M1328.1,537.963a14.163,14.163,0,0,0-4.016,6.3c-.625,2.254-1.2,4.533-.7,5.374s.724,1.248.507,1.9a11.228,11.228,0,0,0-.507,4.4c.263,1.52,1.511,4.072,1.7,5.129s.3,2.714,2.063,2.932a23.824,23.824,0,0,0,10.937-2.8c3.176-1.981,6.189-6.269,7.9-11.806s.489-9.417-2.823-12.186-8.955-4.288-15.062.761" transform="translate(11459.725 7575.717)"/><path class="i" d="M1441.26,620.178c-.25-1.205-1.6-2.255-2.478-2.825a1.2,1.2,0,0,0,.126.328c.507.842.724,1.248.507,1.9a11.228,11.228,0,0,0-.507,4.4c.263,1.52,1.511,4.071,1.7,5.129.151.843.255,2.063,1.18,2.635a29.107,29.107,0,0,1-.664-4.806c0-.516-.624-.923-1-1.167s-.245-1.059.244-1.792a4.728,4.728,0,0,0,.9-3.8" transform="translate(11344.199 7507.668)"/><path class="r" d="M1322.947,541.088c-.172.734.755,2.44,2.9,3.539,1.938,1,5.821,1.491,8.874,1.712,2.885.209,2.971,1.188,2.971,3.246s.343,4.018,2.576,2.322a4.1,4.1,0,0,1,3.628-.475,17.74,17.74,0,0,0,1.83-6.872c.333-4.256-1.028-9.279-7.1-11.164s-14.176,1.237-15.679,7.691" transform="translate(11460.753 7577.191)"/><path class="x" d="M1327.7,616.327a4.094,4.094,0,0,1,3.628-.475,16.237,16.237,0,0,0,1.546-4.7,32.48,32.48,0,0,1-8.074.661,4.483,4.483,0,0,1,.324,2.194c0,2.058.343,4.017,2.576,2.322" transform="translate(11473.32 7512.771)"/><path class="y" d="M1329.114,634.885c-.217.841-.678,2.184.407,2.408s3.283-2.083,4.369-3.847-1.493-3.962-3.148-2.686-1.628,4.125-1.628,4.125" transform="translate(11471.327 7496.951)"/><path class="i" d="M1190.01,628.184a17.172,17.172,0,0,1,5.355.682,28.332,28.332,0,0,0,4.771,1.071h4.186l2.824-11a23.517,23.517,0,0,1-2.726-3.943c-.389-1.12-.536-2.532.1-2.824s1.217.39,2-1.217.487-2.969,2.823-2,3.456,1.411,4.187,3.748.876,2.044,0,4.235a20.537,20.537,0,0,0-1.1,3.359s.221,9.444-.606,13.679-2.629,4.673-5.16,4.965-12.462-1.119-15.14-.633-4.041-2.337-4.041-3.943-.243-5.208,2.531-6.182" transform="translate(11616.404 7514.846)"/><path class="w" d="M1293.5,716.521s-2.488,6.413-.938,9.917c0,0-6.385-.09-8.2-.249-5.578-.489-4.944-3.887-4.944-6.09s3.831-5.332,6.32-5.169a58.352,58.352,0,0,1,7.762,1.591" transform="translate(11520.736 7427.391)"/><path class="u" d="M1284.692,765.658c.1-.951.89-2.241,2.035-2.2,1.033.033,6.123.012,7.929,0a7.183,7.183,0,0,0,.506,2.909s-6.385-.09-8.2-.249a9.1,9.1,0,0,1-2.271-.459" transform="translate(11518.137 7387.463)"/><path class="z" d="M1035.461,52.669s-4.315,9.012-3.387,15.525,5.957,12.757,3.955,20.01,13.633,3.255,14.1-5.958-14.667-29.577-14.667-29.577" transform="translate(11807.959 7972.267)"/><path class="l" d="M1151.473,397.616s-5.622,17.441-6.652,20.592-3.283,6.95-3.539,7.914-1.609,8.109-1.866,9.267,1.158,4.442,1.607,5.472.857,2.141,1.586,2.166a28.341,28.341,0,0,0,5.283-.931.663.663,0,0,0,.252-.907s.55-.846.782-1.141,2.2-1.307,2.547-1.855.807-1.962.342-2.425a20.387,20.387,0,0,0-1.771-1.562,11.982,11.982,0,0,1-.865-1.879,20.514,20.514,0,0,0-.211-4.955,5.535,5.535,0,0,1-.336-2.763c.1-.718,5.587-9.027,8.287-11.2a84.1,84.1,0,0,0-.6-9.466c-.583-4.17-2.415-5.672-4.843-6.328" transform="translate(11682.135 7688.459)"/><path class="b" d="M1137.274,1301.532s.062,4.091-1.05,4.44-7.653,1.391-10.436,2.644-6.331,3.617-10.158,4.173-8.067-.26-7.271-3.168,14.088-7.059,14.088-7.059Z" transform="translate(11707.296 6944.754)"/><path class="b" d="M797.557,1052.05l18.948-21.823a56.7,56.7,0,0,1,1.8,5.893,15.441,15.441,0,0,1-1.8,6.625c-1.412,2.924-2.289,9.062-5.7,11.156a15.888,15.888,0,0,1-9.258,2.582c-2.484-.193-4.528-2.484-3.993-4.432" transform="translate(12081.335 7167.973)"/><path class="aa" d="M1136.688,1252.911s.391,6.976,0,8.737-2.868,2.608-4.433,2.74a18.581,18.581,0,0,0-7.694,2.8,20.273,20.273,0,0,1-9.782,4.367c-4.825.848-6.585-.846-6.911-2.477s.782-4.074,5.412-6.733,7.984-4.4,10.083-6.83c2.415-2.794,2.7-3.259,2.7-3.259Z" transform="translate(11707.788 6985.295)"/><path class="aa" d="M818.436,1004.7s3.07,5.573,2.471,9.166-3.85,11.424-4.965,15.13-6.764,6.1-11.555,5.843-4.536-4.45-3-7.361,6.42-10.182,6.675-13.095a38.635,38.635,0,0,0-.345-7.106Z" transform="translate(12078.151 7188.975)"/><path class="ab" d="M1061.8,624.03c.236,1.406,3.931,9.967,3.344,16.593s-4.633,22.694-4.749,26.625a48.815,48.815,0,0,0,.783,8.512c-4.365,2.28-10.42,1.28-12.06.615a8.812,8.812,0,0,0,.99-3.615c.116-4.985-1.089-30.025-1.679-34.54a123.9,123.9,0,0,0-2.343-13.661c-.762-2.523-.293-6.509-.526-8.8s-.646-29.145-.178-36.768,6.391-29.026,6.391-29.026l11.729,7.565,9.032,19.761s-6.1,27.5-7.273,33.248-3.7,12.081-3.46,13.487" transform="translate(11783.221 7563.11)"/><path class="ac" d="M808.888,567.828l30.493-3.637s5.629,4.983,7.272,17.006,2.813,35.242,2.813,35.242,8.326,2.874,10.672,8.209,3.037,11.563,4.663,15.524c.468,1.142,1.482,3.033,1.916,4.04-.974,1.991-.682,9.187-8.784,9.814a5.1,5.1,0,0,1-3.194-.636,4.981,4.981,0,0,0-.338-2.472c-.636-2.878-.789-5.906-2.488-9.131s-5.144-10.63-7.783-11.684-6.742-3.52-8.15-7.037-14.017-31.138-14.777-33.484a50.683,50.683,0,0,1-8.817-10.683,23.8,23.8,0,0,1-3.5-11.071" transform="translate(12030.915 7551.408)"/><path class="l" d="M1090.14,202.788c-.193-5.884,8.974-6.768,8.974-6.768l1.95,1.114c.115,2.886-10.693,21.923-9.885,18.8s-.845-7.261-1.038-13.146" transform="translate(11746.719 7854.324)"/><path class="z" d="M898.908,139.463s-3.252-11.567-5.792-14.184-7.317-6.729-7.317-14.332-8.181,2.9-8.181,2.9-.835,16.6-.721,16.6,22.792,13.854,22.792,13.854Z" transform="translate(11985.891 7926.59)"/><path class="l" d="M887.185,252c2.061-6.811,11.836-7.383,12.736-6.669s5.292,2.485,7.844,6.286a1.691,1.691,0,0,1-.5,2.265l-4.988,13.491s-1.062,3.272-2.062,5.667-5.3,2.717-8.732,1.511-6.354-15.738-4.293-22.55" transform="translate(11975.83 7813.945)"/><path class="ad" d="M922.311,449.7s9.416,6.986,16.826,8.026c15.256,2.144,26.832.367,29.747-6.64a96.932,96.932,0,0,0-7.579-19.575c-1.542-2.8,3.548-16.628,3.548-16.628l-39.018-3.6a43.134,43.134,0,0,0,1.88,7.241c1.054,2.437-.752,4.418-.784,8.042s-4.619,23.137-4.619,23.137" transform="translate(11908.646 7677.221)"/><path class="z" d="M880.106,31.219s8.469-6.3,10.625-3.656,4.026,9.656,4.026,14.636-.574,8.1,5.482,14.688c6.292,6.839,4.556,15.9,4.556,15.9s-3.478-10.154-7.889-12.7a26.154,26.154,0,0,1,1.371,4.462s-4.977-4.033-6.581-7.655-4.306-13.443-7.443-15.961-4.146-9.707-4.146-9.707" transform="translate(11979.995 7993.457)"/><path class="ae" d="M942.307,401.9c1.747,1.045,4.07,1.246,7.075.151l-2.785,5.6s-6.475,8.562-15.3,7.546c-.2-.024-.4-.049-.6-.077,9.411-.085,11.378-7.339,11.605-13.222" transform="translate(11926.659 7684.936)"/><path class="l" d="M730.825,273.925c3.224.433,5.56,6.714,8.188,10.654s9.557,16.71,11.089,19.191,5.182,7.808,6.131,14.74.73,21.891,1.533,23.714a30.932,30.932,0,0,1,1.751,6.641,30.958,30.958,0,0,0,.876,3.783,9.362,9.362,0,0,1,2.407.814,3.267,3.267,0,0,1-1.311,2.919,14.369,14.369,0,0,1-5.329,1.752,10.073,10.073,0,0,1-4.6-1.752c-.293-.365-1.461-.948-1.826-4.963s1.314-8.391,1.167-9.632-6.5-27.29-9.159-31.086-10.031-13.5-12.148-15.25-7.954-6.86-9.048-11.238,1.576-11.456,10.274-10.288" transform="translate(12150.49 7790.333)"/><path class="k" d="M923.5,417.664l26.762,2.471s-5.09,13.829-3.548,16.628a96.933,96.933,0,0,1,7.579,19.575c-1.507,3.627-5.34,5.85-10.8,6.855-1.225-6.233-4.107-19.968-6.631-25.063-3.308-6.682-13.225-10.308-14.5-17.33a3.527,3.527,0,0,1,1.138-3.136" transform="translate(11923.234 7671.964)"/><path class="ad" d="M938.956,208.071c3.583-7.874,6.814-15.43,9.6-17.667,4.636-3.723,23.1,5.63,23.1,5.63l4.506,3.578s-7.479-.881-10.116,7.486c-2.659,8.438-1.567,24.578,10.406,20.222l-2.785,5.6s-6.475,8.562-15.3,7.546c-8.7-1-10.715-5.078-14.212-6.84-3.726-1.879-13.431-.05-13.46-9.747-.016-5.385,5.355-9.435,8.254-15.81" transform="translate(11899.586 7859.665)"/><path class="af" d="M961.441,163.222l16.373-7.937c-.661,10.6,4.65,12.654,4.65,12.654s-3.524-1.475-8.739,5.084c-3.946,4.963-6.419,10.768-13.923,9.106s1.638-18.906,1.638-18.906" transform="translate(11888.943 7887.839)"/><path class="l" d="M955.292,20.788c.2-1.721,2.047-9.836,7.787-13.482s12.949-4.139,17.7.165S984.919,21.9,982.3,27.426l-2.17,3.279s-2.585,5.123-6.476,7.622-11.269,4.957-13.237,4.59-2.172-2.993-2.541-3.976-1.884-5.737-2.336-7.866-.245-4.756.329-5.779a15.2,15.2,0,0,1-.575-4.508" transform="translate(11887.374 8011.977)"/><path class="z" d="M972.841,23.616c-7.66,2.582-9.552-4.362-12.923-6.027a9.006,9.006,0,0,0-5.8-1.033,11.8,11.8,0,0,0-1.86-1.974c-.9-.707-2.362-.818-2.046-2.685.284-1.7,2.68-10.963,15.252-11.845,11.037-.767,14.419,6.454,14.677,11.587a23.586,23.586,0,0,1-4.72,15.551Z" transform="translate(11892.426 8015.605)"/><path class="z" d="M982.337,89.777a6.441,6.441,0,0,0,4.349,2.309c-2.139-.69-2.068-1.354-4.493-4.051a10.967,10.967,0,0,0-5.491-3.294c4.468.332,7.394,5.088,9.889,6.112s7.8.071,7.8.071l-2.167,4.143-1.243-1.726c-7.66,2.581-9.552-4.362-12.923-6.027a9,9,0,0,0-5.8-1.032c3.654-1.9,7.85,1.144,10.085,3.495" transform="translate(11874.286 7945.879)"/><path class="q" d="M970.164,128.482c.6-1.26,3.071-3.543,4.645-3.387s.629,3.267-.512,4.961-2.441,2.873-3.818,2.677-1.1-2.6-.315-4.251" transform="translate(11893.522 7912.684)"/><rect class="a" width="278" height="294" transform="translate(12763 8016)"/></g><g transform="translate(800.402 1205.779)"><g class="ag"><g class="ag"><g class="ah" transform="translate(37.582 316.226)"><g class="ai"><path class="aj" d="M31.175,288.275c0,14.331,26.915,25.947,60.116,25.947s60.115-11.618,60.115-25.949-26.915-25.948-60.115-25.948-60.116,11.618-60.116,25.95" transform="translate(-31.176 -262.325)"/></g></g><path class="ak" d="M107.236,308.594c-15.9,7.077-41.762,7.042-57.763-.08s-16.082-18.633-.181-25.712,41.761-7.04,57.764.081,16.079,18.633.18,25.71" transform="translate(7.689 57.023)"/><path class="al" d="M113.745,306.36c-19.331,8.6-50.773,8.561-70.226-.1s-19.552-22.652-.219-31.257,50.773-8.56,70.225.1,19.553,22.652.221,31.257" transform="translate(5.931 55.187)"/><path class="al" d="M9.611,226.3l23.367,74.62,98.8,1.251,24.089-73.886Z" transform="translate(1.975 46.499)"/><path class="am" d="M117.6,248.509,95.05,301.527h-.014c-3.989,7.261-5.955,9.923-14.061,13.531-5.862,2.609-14.477,4.261-21.891,5.243,16.685,2.163,32.954.705,46.3-4.7,6.346-2.57,11.47-3.93,15.8-12.5l1.8-4.375L145.7,227.947Z" transform="translate(12.14 46.837)"/><path class="an" d="M137.549,248.166c-27.885,11.5-74.9,11.7-105.022.44S.6,218.9,28.477,207.4s74.9-11.7,105.023-.441,31.931,29.705,4.049,41.206" transform="translate(1.787 40.817)"/><path class="ao" d="M127.768,246.379c-23.934,9.87-64.294,10.04-90.148.377s-27.41-25.5-3.475-35.367,64.294-10.042,90.148-.38,27.409,25.5,3.475,35.37" transform="translate(3.527 41.891)"/><path class="ap" d="M127.794,244.76c-23.934,9.87-64.294,10.04-90.148.377-18.652-6.97-25.012-17.3-17.569-25.994,10.336-12.073,112.535-6.188,115.562-4.187,14.3,9.448,11.906,21.656-7.845,29.8" transform="translate(3.501 43.51)"/><path class="ao" d="M81.626,222.927c0,2.723-4.314,4.932-9.638,4.932s-9.638-2.208-9.638-4.932,4.314-4.932,9.638-4.932,9.638,2.207,9.638,4.932" transform="translate(12.811 44.792)"/><path class="aq" d="M15.943,235.751s23.273,18.72,67.926,17.917,62.541-16.613,62.541-16.613" transform="translate(3.276 48.441)"/><path class="ar" d="M70.893,254.031a3.244,3.244,0,0,0,3.214-3.272V79.3a3.214,3.214,0,1,0-6.428,0V250.759a3.243,3.243,0,0,0,3.214,3.272" transform="translate(13.906 15.622)"/><path class="ar" d="M71.983,165.033a3.166,3.166,0,0,0,1.984-.7L115.8,130.871a3.309,3.309,0,0,0,.54-4.593,3.178,3.178,0,0,0-4.512-.55L70,159.191a3.308,3.308,0,0,0-.541,4.593,3.187,3.187,0,0,0,2.529,1.249" transform="translate(14.13 25.69)"/><path class="ar" d="M76.665,149.924a3.172,3.172,0,0,0,2.03-.738,3.31,3.31,0,0,0,.457-4.6L42.861,99.318a3.174,3.174,0,0,0-4.522-.465,3.309,3.309,0,0,0-.458,4.6L74.173,148.72a3.185,3.185,0,0,0,2.492,1.2" transform="translate(7.635 20.16)"/><path class="ap" d="M63.272,107.321s24.22,24.9,49.321,15.8-3.257-6.039-10.058-13.043-.084-11.089,5.2-10.666,35.484,1.115,34.5-10.486-19.626,4.94-22.254-4.74-3.028-.984,16.824-8.591c16.293-6.244,19.929-25.413,16.457-28.177-6.144-4.893-16.813,9.415-20.961,5.908s17.757-15.75,14.168-30.46S137.812,0,137.812,0s-4.548,4.691-17.293,10.788S97.39,20.932,99.064,35.243,88.783,41.02,92.913,25.2s-4.3-17.924-9.359-5.379c-4.658,11.541-9.215,26.261-11.336,30.5s-1.633,4.487-1.12-7.1S63.085,26.93,58.175,30.763,55.424,69,66.532,74.492,65.416,96.9,55.91,76.352,43.8,52.694,40.562,66.586,52,98.388,63.272,107.321" transform="translate(8.241)"/><path class="as" d="M75.1,82.005c14.194-5.341,44.745-13.222,53.124.247.212.34-20.062,8.083-23.287,7.825-5.282-.423-4.052,2.137,2.748,9.14s19.943-8.986-5.158.118c-17.155,6.223-32.654-.477-41.535-7.217,3.967-3.8,8.934-8.166,14.108-10.113" transform="translate(12.532 15.371)"/><path class="at" d="M15.635,139.173c13.536-5.851,13.011-.6,10.144-8.754-1.239-3.53-4.616-2.789-8.421-1.143C.643,140.211.405,118.513,19.552,113.853c7.57-2.328,15.384-.95,17.858-1.218,5.435-.589,12.068-6.023,4.687-11.809-3.361-2.635-11.172-2.3-16.31-2.469A2.637,2.637,0,0,1,24.4,93.536c1.576-1.07,3.744-2.381,6.62-3.988,25.157-14.057,51.442,6.511,51.442,6.511,12.076,6.881,28.166,22.2,25.683,36.9s-5.337,12.049-16.3-6.942-22.466.509-10.765,3.93,15.964,37.872,11.166,42.7-13.806,1.709-13.974-10.133-10.2-14.776-12.115-10.074,7.337,20.834,8.233,34.524-20.663,14.825-17.379-2-14.5-34.179-11.935-20,.853,28.737-11.832,37.367a149.506,149.506,0,0,0-20.7,16.812s-4.094-5.259-8.118-15.558c-9.1-31.235-3.6-51.363,11.206-64.416" transform="translate(0 17.39)"/><path class="au" d="M121.37,95.878c-3.7,7.459,3.77,7.93,8.119,7.011s22.477.927,27,9.584c5.4,10.331-21.6,8.394-19.841,14.17,2.073,6.8,3.967,9.335,17.793,6.436,18.007-3.776,31.5,12.406,26.881,16.862s-24.592,1.618-27.076,5.426,10.882,5.179,15.621,19.094c5.38,15.8-.863,31.552-1.42,33.563-2.077.209-18.84,3.837-33.494-4.148-12.909-7.033-15.676-22.855-19.849-21.052S114.021,207.2,108.845,211s-18.832-12.249-12.054-29.355c5.205-13.132,4.237-19.541-2.108-22.738-5.393-2.72-7.6,19.943-18.373,15.478s-2.365-26.819-.722-30.949,1.28-9.837-6.7-7.453-7.907,31-17.912,8.33c-4.322-9.792.277-27.384,13.387-43.62A40.833,40.833,0,0,1,81.75,88.124c14.194-5.341,40.222-14.053,48-7.356,12.595,10.847-4.676,7.649-8.379,15.109" transform="translate(10.15 16.097)"/><path class="av" d="M162.508,205.984S116.216,116.75,70.2,89.445" transform="translate(14.424 18.379)"/></g></g></g><g transform="translate(82 -29)"><g transform="translate(777 1148.809)"><g transform="translate(326.74 295.811)"><path class="aw" d="M345.2,507.289c3.853,7.583,10.945,14.486,20.624,20.074,31.905,18.42,83.633,18.419,115.539,0,15.3-8.849,23.889-20.844,23.878-33.347h.051l-.16-16.443-5.081-.051c-4.067-6.329-10.439-12.08-18.687-16.865-31.9-18.421-83.63-18.424-115.536,0-7.572,4.394-13.571,9.6-17.654,15.332l-6.375-.064.109,17.371c0,.033,0,.066,0,.1l.011,1.764h.1a29.29,29.29,0,0,0,3.184,12.137Z" transform="translate(-341.731 -430.596)"/><ellipse class="ax" cx="81.698" cy="47.168" rx="81.698" ry="47.168" transform="translate(0 0)"/><ellipse class="ay" cx="64.397" cy="37.18" rx="64.397" ry="37.18" transform="translate(17.301 9.989)"/><path class="az" d="M397.326,466.311c.982-9.012,7.61-17.509,18.649-23.906,25.149-14.518,65.922-14.518,91.071,0,11.068,6.406,17.708,14.924,18.678,23.954,1.207-10.66-5.586-21.1-18.648-28.671-25.149-14.52-65.923-14.519-91.072,0C402.954,445.241,396.151,455.665,397.326,466.311Z" transform="translate(-379.841 -416.81)"/><g transform="translate(34.547 17.135)"><path class="az" d="M454.39,499.757a27.669,27.669,0,0,0,8.642,9.324l-.226.065,3.375,1.949,3.374,1.948.114-.131c14.781,6.982,35.348,8.2,52.282,3.107l4.969,2.869,10.123-1.949v-4.494l-4.38-.835q.509-.253,1.006-.515,1.69-.976,3.2-2.046l3.544,2.046,10.123-1.949v-4.495l-7.817-.931a18.842,18.842,0,0,0,4.828-11.658l.054.042s.027-5.225,0-5.447l-.838-.007c-1.445-4.586-4.883-8.885-9.99-12.495l.267-.077-3.374-1.948-3.375-1.948-.134.154c-8.527-4.034-19.211-6.238-30.235-6.239v8.268c8.85-.01,17.345,2.007,23.621,5.61,9.1,5.268,12.146,13.09,7.817,20.1l-14.566-8.41-.834.161a12.612,12.612,0,0,0-1.537-1.433c-.222.013-7.752-1.274-7.752-1.274v4.495l19.98,11.535a27.846,27.846,0,0,1-3.108,2.1,35.411,35.411,0,0,1-3.646,1.792L508.058,500.2l-7.306-6.752-7.576,1.458v4.495l17.935,10.355c-12.138,2.5-25.682.744-34.806-4.51-6.245-3.622-9.745-8.527-9.73-13.638h-9.415l-4.875-4.495v4.495a17.117,17.117,0,0,0,2.106,8.144Z" transform="translate(-452.284 -459.602)"/><path class="ax" d="M469.555,498.641l.113-.13c14.781,6.982,35.348,8.2,52.282,3.106l4.969,2.869,10.123-1.948-6.954-4.014q1.868-.863,3.579-1.831,1.691-.976,3.205-2.046l3.544,2.046,10.123-1.948-8.311-4.8c8.815-9.787,6.669-21.666-5.453-30.192l.267-.077-3.375-1.948-3.375-1.948-.134.154c-8.527-4.034-19.211-6.238-30.235-6.24v8.268c8.85-.01,17.345,2.008,23.621,5.61,9.1,5.268,12.146,13.09,7.818,20.1l-14.567-8.41-10.123,1.948,19.98,11.536a27.805,27.805,0,0,1-3.109,2.1,35.35,35.35,0,0,1-3.646,1.792l-16.6-9.584L493.176,485l17.934,10.355c-12.138,2.5-25.682.744-34.806-4.51-6.245-3.622-9.745-8.527-9.73-13.638h-14.29c-.019,6.365,3.779,12.537,10.749,17.468l-.226.066,3.375,1.948Z" transform="translate(-452.284 -449.695)"/></g></g><g transform="translate(331.225 273.349)"><path class="ba" d="M359.568,435.322c3.854,7.583,10.945,14.486,20.624,20.074,31.905,18.42,83.633,18.419,115.539,0,15.3-8.849,23.889-20.844,23.878-33.347h.051L519.5,405.6l-5.081-.051c-4.067-6.329-10.439-12.08-18.687-16.865-31.9-18.421-83.63-18.424-115.536,0-7.573,4.395-13.57,9.6-17.654,15.332l-6.375-.064.11,17.371c0,.033,0,.065,0,.1l.011,1.764h.1a29.292,29.292,0,0,0,3.184,12.137Z" transform="translate(-356.104 -358.628)"/><ellipse class="ax" cx="81.698" cy="47.168" rx="81.698" ry="47.168" transform="translate(0 0)"/><ellipse class="ay" cx="64.397" cy="37.18" rx="64.397" ry="37.18" transform="translate(17.301 9.989)"/><path class="az" d="M411.7,394.344c.982-9.012,7.61-17.509,18.649-23.906,25.148-14.518,65.922-14.518,91.071,0,11.067,6.407,17.708,14.923,18.678,23.955,1.207-10.66-5.587-21.1-18.648-28.671-25.149-14.52-65.923-14.519-91.072,0C417.327,373.273,410.524,383.7,411.7,394.344Z" transform="translate(-394.214 -344.843)"/><g transform="translate(34.548 17.135)"><path class="az" d="M468.763,427.79a27.666,27.666,0,0,0,8.642,9.324l-.226.066,3.375,1.949,3.374,1.948.114-.131c14.78,6.982,35.348,8.2,52.282,3.107l4.969,2.869,10.123-1.949v-4.495l-4.38-.835q.509-.253,1.006-.515,1.69-.976,3.2-2.046l3.544,2.046,10.123-1.949v-4.494l-7.817-.931a18.842,18.842,0,0,0,4.828-11.658l.054.042s.027-5.225,0-5.447l-.838-.007c-1.446-4.586-4.883-8.885-9.99-12.495l.267-.077-3.374-1.948-3.375-1.949-.134.155c-8.527-4.034-19.211-6.238-30.235-6.239V400.4c8.85-.01,17.345,2.008,23.621,5.61,9.1,5.268,12.146,13.09,7.817,20.1l-14.566-8.41-.834.16a12.61,12.61,0,0,0-1.537-1.433c-.222.013-7.752-1.274-7.752-1.274v4.495l19.98,11.535a27.921,27.921,0,0,1-3.108,2.1,35.4,35.4,0,0,1-3.646,1.792l-11.841-6.837-7.306-6.752-7.576,1.458v4.495l17.935,10.355c-12.138,2.5-25.682.744-34.806-4.51-6.245-3.622-9.745-8.527-9.731-13.638h-9.415l-4.875-4.495v4.494a17.121,17.121,0,0,0,2.106,8.145Z" transform="translate(-466.657 -387.635)"/><path class="ax" d="M483.928,426.674l.113-.131c14.781,6.982,35.348,8.2,52.282,3.107l4.968,2.869,10.123-1.948-6.953-4.014q1.868-.863,3.579-1.83,1.69-.976,3.205-2.046l3.544,2.046,10.123-1.948-8.311-4.8c8.815-9.787,6.669-21.665-5.453-30.192l.267-.077-3.374-1.948-3.375-1.948-.134.154c-8.527-4.034-19.211-6.238-30.236-6.239V386c8.85-.01,17.345,2.008,23.621,5.61,9.1,5.268,12.146,13.09,7.817,20.1l-14.566-8.41-10.123,1.948,19.98,11.536a27.856,27.856,0,0,1-3.109,2.1,35.287,35.287,0,0,1-3.646,1.792l-16.6-9.584-10.123,1.948,17.935,10.355c-12.138,2.5-25.682.744-34.806-4.51-6.245-3.622-9.745-8.527-9.73-13.638h-14.29c-.02,6.365,3.779,12.537,10.749,17.468l-.226.066,3.375,1.948Z" transform="translate(-466.657 -377.728)"/></g></g><g transform="translate(320 250.899)"><path class="bb" d="M323.6,363.393c3.854,7.583,10.945,14.485,20.624,20.074,31.905,18.42,83.633,18.419,115.539,0,15.3-8.849,23.889-20.844,23.878-33.348h.051l-.16-16.443-5.081-.051c-4.067-6.329-10.439-12.08-18.687-16.865-31.9-18.421-83.63-18.424-115.536,0-7.572,4.395-13.571,9.6-17.654,15.331l-6.375-.064.109,17.371c0,.033,0,.066,0,.1l.011,1.764h.1a29.292,29.292,0,0,0,3.184,12.137Z" transform="translate(-320.138 -286.699)"/><ellipse class="ax" cx="81.698" cy="47.168" rx="81.698" ry="47.168" transform="translate(0 0)"/><ellipse class="ay" cx="64.397" cy="37.18" rx="64.397" ry="37.18" transform="translate(17.301 9.989)"/><path class="az" d="M375.733,322.415c.982-9.012,7.61-17.509,18.648-23.906,25.149-14.519,65.922-14.518,91.072,0,11.067,6.407,17.708,14.924,18.678,23.955,1.207-10.66-5.587-21.1-18.648-28.671-25.149-14.52-65.923-14.519-91.072,0C381.361,301.344,374.558,311.769,375.733,322.415Z" transform="translate(-358.248 -272.914)"/><g transform="translate(34.547 17.135)"><path class="az" d="M432.8,355.86a27.667,27.667,0,0,0,8.643,9.324l-.226.066,3.375,1.949,3.374,1.948.114-.131c14.781,6.983,35.348,8.2,52.282,3.107l4.968,2.869,10.124-1.949v-4.495l-4.38-.835q.509-.253,1.006-.515,1.69-.976,3.2-2.046l3.544,2.046,10.123-1.949v-4.494l-7.817-.931a18.841,18.841,0,0,0,4.827-11.658l.054.042s.027-5.225,0-5.448l-.838-.007c-1.446-4.586-4.883-8.885-9.99-12.495l.267-.077-3.374-1.948-3.375-1.949-.134.155c-8.528-4.034-19.211-6.238-30.235-6.239v8.268c8.85-.01,17.345,2.008,23.621,5.61,9.1,5.268,12.146,13.09,7.817,20.1l-14.566-8.41-.834.16a12.564,12.564,0,0,0-1.537-1.433c-.221.013-7.752-1.274-7.752-1.274v4.495l19.981,11.536a27.848,27.848,0,0,1-3.109,2.1,35.2,35.2,0,0,1-3.646,1.792l-11.842-6.837-7.306-6.752-7.576,1.458v4.495l17.935,10.355c-12.137,2.5-25.682.743-34.806-4.51-6.245-3.622-9.745-8.527-9.731-13.638h-9.415l-4.875-4.495v4.494a17.116,17.116,0,0,0,2.106,8.145Z" transform="translate(-430.69 -315.706)"/><path class="ax" d="M447.961,354.745l.114-.131c14.781,6.982,35.348,8.2,52.282,3.107l4.968,2.869,10.123-1.948-6.953-4.014q1.868-.863,3.579-1.83,1.69-.976,3.2-2.046l3.544,2.046,10.123-1.948-8.311-4.8c8.815-9.787,6.669-21.666-5.453-30.192l.267-.077-3.374-1.948-3.375-1.948-.133.154c-8.528-4.034-19.211-6.238-30.236-6.239v8.268c8.85-.01,17.345,2.008,23.621,5.61,9.1,5.268,12.146,13.09,7.817,20.1l-14.566-8.41-10.123,1.948,19.98,11.536a27.9,27.9,0,0,1-3.108,2.1,35.385,35.385,0,0,1-3.646,1.792l-16.6-9.584-10.123,1.948,17.935,10.355c-12.138,2.5-25.682.743-34.806-4.51-6.245-3.622-9.745-8.527-9.73-13.638H430.69c-.019,6.365,3.779,12.537,10.749,17.468l-.227.066,3.375,1.949Z" transform="translate(-430.69 -305.799)"/></g></g></g><g transform="translate(-293 439)"><path class="bc" d="M863.412,68.7l-18.066-21.93-6.195.876L857.976,70.66Z" transform="translate(592.268 986.888)"/><path class="bd" d="M788.693,139.474l6.371-3.142,37.565-33.323-5.437,1.961Z" transform="translate(623.051 952.578)"/><path class="be" d="M817.184,108.063l-38,34.519,3.709-.041,38.5-34.5Z" transform="translate(628.853 949.511)"/><path class="bc" d="M788.693,191.608l33.488,43.847,5.17-5.105-32.287-41.883Z" transform="translate(623.051 900.445)"/><path class="bc" d="M705.445,75.254,678.268,40l-7.871.638L700.63,80.222Z" transform="translate(695.218 991.018)"/><path class="be" d="M702.868,227.625,675.9,252.12l1.234,1.688,26.846-24.06Z" transform="translate(691.859 876.556)"/><path class="be" d="M779.182,196.564l33.375,43.873,3.822-.066-33.488-43.847Z" transform="translate(628.853 895.529)"/><path class="be" d="M851.916,72.056l4.206-.026L837.3,49.016l-1.185,3.636Z" transform="translate(594.121 985.518)"/><path class="be" d="M744.965,89.036l35.543-36.384,1.185-3.636L750.935,80.754l-4.815,4.968Z" transform="translate(649.728 985.518)"/><path class="be" d="M697.577,84.533l1.156-3.314L668.5,41.635l-1.213,3.081Z" transform="translate(697.115 990.021)"/><path class="be" d="M649.449,44.716l1.213-3.081L638.047,58.566l.736.4Z" transform="translate(714.953 990.021)"/><path class="bf" d="M638.784,85.452l-.736-.4,28.106,37.865,1.106.876Z" transform="translate(714.953 963.532)"/><path class="be" d="M671.086,182.16l-24.953,25.749.716,1.07,25.343-25.943Z" transform="translate(710.02 904.292)"/><path class="bd" d="M704.8,227.625l1.114,2.123-26.846,24.06,6.9-4,21-18.632,29.891,40.271-.836-1.769Z" transform="translate(689.929 876.556)"/><path class="bg" d="M712.154,161.031l15.453-10.265-33.374-43.873,38-34.519-15.8-19.4L680.891,89.354,650.6,49.537,639.935,63.784l28.476,38.345-25.343,25.943,10.892,15.4,26.966-24.5Z" transform="translate(713.802 985.2)"/><path class="be" d="M825.14,319.3l.836,1.769,18.44-12.1-3.822.066Z" transform="translate(600.815 826.932)"/></g></g></g></svg>