<svg xmlns="http://www.w3.org/2000/svg" xmlns:xlink="http://www.w3.org/1999/xlink" width="1097.37" height="384.845" viewBox="0 0 1097.37 384.845"><defs><style>.a,.aj,.ak,.am,.g{fill:none;}.b{fill:#467de4;}.c{fill:#3d4993;}.d{fill:#2b337c;}.e{fill:#f9bcaa;}.f{fill:#8d7fa2;}.aj,.g{stroke:#fff;}.aj,.am,.g{stroke-linecap:round;stroke-linejoin:round;}.g{stroke-width:3.646px;}.h{fill:#76688b;}.i{fill:#aec7e6;}.j{fill:#dee5ff;}.k{fill:#fff;}.l{fill:#4432db;}.m{fill:#191791;}.n{fill:#f2b7a5;}.o{fill:#d59c8b;}.p{fill:#915151;}.q{fill:#ffae43;}.r{fill:#d4563b;}.s{fill:#acaff2;}.t{fill:#1e345b;}.u{fill:#6e87eb;}.v{fill:#a8c4e5;}.w{fill:#dcdbff;}.x{fill:#eeedff;}.y{fill:#885f49;}.z{fill:#6468d1;}.aa{fill:#6b70e0;}.ab{clip-path:url(#a);}.ac{fill:#99a8e0;}.ad{fill:#e6f0ff;}.ae{fill:#ff8066;}.af{clip-path:url(#b);}.ag{fill:#1d50cf;}.ah{fill:#3f42b8;}.ai{fill:#8b8fe8;}.aj{stroke-width:0.829px;}.ak{stroke:#191791;stroke-miterlimit:10;stroke-width:0.927px;}.al{fill:#2027d1;}.am{stroke:#33458f;stroke-width:0.309px;}</style><clipPath id="a"><rect class="a" width="25.461" height="14.72" transform="translate(146.914 93.629)"/></clipPath><clipPath id="b"><rect class="a" width="137.803" height="260.234"/></clipPath></defs><g transform="translate(-1671.883 -1146)"><g transform="translate(-497.117 385)"><path class="b" d="M30.4,141.2a15.29,15.29,0,0,0-8.313-2.7c-2.257,0-18.645,10.052-19.59,11.443-2.116,3.12.984,6.549.984,6.549h0c.741,1.4,2.444,2.521,6.144,2.19l20.823-6.918s.444-10.282-.05-10.564" transform="translate(2169 931)"/><path class="c" d="M28.471,140.786l4.663-.408L34.1,151.44l-4.663.409a5.553,5.553,0,0,1-.968-11.063" transform="translate(2169 931)"/><path class="b" d="M43.2,139.914c.527-.009,7.714.676,11.723,2.878,1.978,1.087,11.5,17.785,11.655,19.46.351,3.752-4.016,5.265-4.016,5.265l0,0c-1.322.868-3.357,1.034-6.44-1.038l-20.4-19.407,4.415-8.032a20.016,20.016,0,0,0,3.06.876" transform="translate(2169 931)"/><path class="d" d="M50.4,97.466S22.723,81.512,12.919,82.6.882,87.914.014,90.643s40.455,38.083,61.8,37.835l8.066,2.356s33.59,10.485,34.6,2.389c1.061-8.506-12.939-21.6-19.765-25.325S50.4,97.466,50.4,97.466" transform="translate(2169 931)"/><path class="d" d="M1.52,90.774S12.441,80.6,32.048,111.862s21.593,34.981,21.593,34.981l-20.1-3.969S-8.408,98.216,1.52,90.774" transform="translate(2169 931)"/><path class="d" d="M104.479,133.223s-4.351-10.482-20.956-5.679c-19.107,5.528-51.9,10.724-51.9,10.724S29.97,149.86,32.735,152.3c10.034,1.444,64.446.734,71.744-11.14,2.387-3.883,0-7.938,0-7.938" transform="translate(2169 931)"/><path class="e" d="M33.352,48.428,25.878,68.537a6.656,6.656,0,0,1-10.14,3.708L7.567,66.709l-.73,10.873L18.714,85.71a9.01,9.01,0,0,0,13.012-3.14C36.2,74.321,42.2,63.189,42.2,62.87c0-.506-8.849-14.442-8.849-14.442" transform="translate(2169 931)"/><path class="f" d="M37.675,36.507,24.519,61.169c2.148,8.581,6.8,12.947,12.673,15.252l4.992-33.358Z" transform="translate(2169 931)"/><path class="g" d="M28.752,56.465s1.865,8.9,15.962,13.722" transform="translate(2169 931)"/><path class="f" d="M36.733,95.456c3.062-20.075-1.527-20.332-3.381-36.264,0-25.389,9.593-34.785,25.589-28.95L65.549,32c19.306,10.4,29.111,9.878,25.658,30.31l-2.981,39.485c0,23.055-52.722,20.768-51.493-6.337" transform="translate(2169 931)"/><path class="h" d="M78.474,70.034,86.8,104.6l1,3.364L89.017,91.3Z" transform="translate(2169 931)"/><path class="e" d="M88.7,45.6S102.588,62.841,106.457,99.2a14.47,14.47,0,0,1-17.832,15.632L62.889,108.1l.055-6.393s32.566,8.553,30.125-2.037C90.318,87.741,68.552,55.281,88.7,45.6" transform="translate(2169 931)"/><path class="i" d="M21.446,84.676,9.995,80.94a2.361,2.361,0,0,1-1.546-1.823L4.644,57.127c-.145-.84.311-1.386,1.02-1.22L17.5,58.686a2.357,2.357,0,0,1,1.547,1.822l3.787,21.886a1.346,1.346,0,0,1-.474,1.253Z" transform="translate(2169 931)"/><path class="j" d="M11.365,65.024S8.585,79.937,8.44,79.1L3.655,57.352l1.264-1.325a.825.825,0,0,1,.736-.14l11.834,2.779a1.926,1.926,0,0,1,.965.635Z" transform="translate(2169 931)"/><path class="k" d="M20.632,84.9,8.824,82.114A2.341,2.341,0,0,1,7.3,80.283L3.5,58.294c-.145-.84.3-1.382,1.007-1.216l11.8,2.788A2.339,2.339,0,0,1,17.822,61.7l3.805,21.99c.145.84-.287,1.378-1,1.212" transform="translate(2169 931)"/><path class="l" d="M19.963,84.748l-11.451-2.7A2.27,2.27,0,0,1,7.038,80.27L3.348,58.945c-.141-.814.289-1.34.976-1.178l11.445,2.7a2.266,2.266,0,0,1,1.469,1.776l3.69,21.325c.141.816-.278,1.337-.965,1.176" transform="translate(2169 931)"/><path class="e" d="M7.905,77.139h0A3.374,3.374,0,0,1,4,74.417l-.954-5.349a3.365,3.365,0,1,1,6.626-1.182l.953,5.35a3.375,3.375,0,0,1-2.722,3.9" transform="translate(2169 931)"/><path class="f" d="M76.977,64.4l9.649,27.347c1.369,2.122,21.1-7.865,19.417-11.124-.3-.576-10.8-33.606-22.1-38.939C74.769,37.353,71.907,51.94,76.977,64.4" transform="translate(2169 931)"/><path class="e" d="M68.493,104.224l.292,1.209a4.146,4.146,0,0,1-3.051,4.986l-4.527,1.09a4.144,4.144,0,0,1-4.986-3.05l-.291-1.209a4.144,4.144,0,0,1,3.05-4.986l4.527-1.091a4.146,4.146,0,0,1,4.986,3.051" transform="translate(2169 931)"/><path class="m" d="M19.228,65.3h0a.327.327,0,0,1-.377-.263l-.3-1.668a.324.324,0,1,1,.638-.114l.3,1.668a.326.326,0,0,1-.262.377" transform="translate(2169 931)"/><path class="m" d="M19.717,68.028h0a.324.324,0,0,1-.376-.262l-.3-1.668a.325.325,0,1,1,.639-.115l.3,1.668a.325.325,0,0,1-.262.377" transform="translate(2169 931)"/><path class="k" d="M15.523,65.367h0a1.4,1.4,0,0,1-.866-1.031l-.427-2.393c-.082-.454.175-.732.57-.619a1.4,1.4,0,0,1,.866,1.032l.427,2.392c.082.454-.175.733-.57.619" transform="translate(2169 931)"/><path class="m" d="M15.364,62.468c0,.3-.214.457-.478.352a.844.844,0,0,1-.477-.734c0-.3.214-.458.477-.352a.841.841,0,0,1,.478.734" transform="translate(2169 931)"/><path class="g" d="M83.918,84.07s10.885-.1,19.663-10.668" transform="translate(2169 931)"/><path class="d" d="M57.766,32.112s3.258,1.423,4.6,1.25S72.9,20.428,63.829,9.965C58.087,3.337,46.09,11.683,46.09,11.683Z" transform="translate(2169 931)"/><path class="n" d="M58.178,26.537c.944,7.315-3.1,11.237-9.04,8.761S37.623,24.884,36.678,17.569s3.1-11.237,9.041-8.761S57.234,19.223,58.178,26.537" transform="translate(2169 931)"/><path class="n" d="M64.145,21.507c.943,7.314-5.016,12.684-10.952,10.207S41.678,21.3,40.732,13.985s3.1-11.237,9.04-8.76S63.2,14.193,64.145,21.507" transform="translate(2169 931)"/><path class="n" d="M62.137,43.435l-.719.3a4.8,4.8,0,0,1-6.252-2.576l-5.7-13.689a4.8,4.8,0,0,1,2.576-6.252l.718-.3A4.8,4.8,0,0,1,59.014,23.5l7.41,12.348c1.011,2.427-1.859,6.581-4.287,7.592" transform="translate(2169 931)"/><path class="n" d="M65.65,24.066a3.247,3.247,0,1,1-3.636-2.805,3.248,3.248,0,0,1,3.636,2.805" transform="translate(2169 931)"/><path class="d" d="M45.041,11.819s3.5,16.8,20.193,9.027c0,0,7.28-11.989-6.829-19.177-12.436-6.337-19.27,7.414-19.27,7.414Z" transform="translate(2169 931)"/><path class="d" d="M37.424,20.949s.826-5.943,7.617-9.13l-5.9-2.736s-5.545,1.891-1.712,11.866" transform="translate(2169 931)"/><path class="o" d="M53.176,36.153a13.088,13.088,0,0,0,8.79-8.058s-1.791,9.835-7.2,11.886Z" transform="translate(2169 931)"/><rect class="a" width="113.1" height="168.123" transform="translate(2169 931)"/><rect class="a" width="113.1" height="168.123" transform="translate(2169 931)"/></g><g transform="translate(-253.117 273)"><path class="e" d="M99.67,20.366l17.586,22.027a7.144,7.144,0,0,1-7.247,11.4L94.591,50.1,91.259,38.313,106.6,42.945,96.045,25.323Z" transform="translate(2356 873)"/><path class="d" d="M106.6,42.944l7.684,10.584q-2.313,3.4-23.3-4.882L88.009,32.46Z" transform="translate(2356 873)"/><path class="p" d="M76.937,4.841S65.316-8.192,50.019,8.51s-22.9-.294-34.168,14.863S11.082,42.094,2.065,51.8s13.786,30.486,24.27,20.16S64.854,64.3,67.218,54.906,76.937,4.841,76.937,4.841" transform="translate(2356 873)"/><path class="p" d="M78.371,10.9l.322,20.852s-13.029,8.23-19.448,3.5S60.912,8.287,68.937,9.531,78.371,10.9,78.371,10.9" transform="translate(2356 873)"/><path class="d" d="M94.672,220.875,82.815,210.787c-1.545-.743-4.9-.853-7.142-.383a2.181,2.181,0,0,0-1.709,2.147l0,2.217c-.106,3.2.214,3.634,2.252,4.614L88.328,225.2a7.418,7.418,0,0,0,6.65-.226l.459-.313c1.618-1.1,1.274-2.81-.765-3.79" transform="translate(2356 873)"/><path class="e" d="M91.789,119.786l-9.868,90.689c-.417,5.669-6.628,3.836-7.179.392L71.961,129.3Z" transform="translate(2356 873)"/><path class="d" d="M55.634,237.277l3.64-13.908c0-1.714-1.358-4.785-2.754-6.6a2.179,2.179,0,0,0-2.676-.608l-2,.965c-2.925,1.292-3.529,3.932-3.527,6.194l.358,11.27c0,2.262-.291,4.242,1.406,5.221l.65.285c1.7.978,4.9-.558,4.9-2.82" transform="translate(2356 873)"/><path class="e" d="M67.552,129.328l-9.868,90.689c-.417,5.669-6.628,3.836-7.179.392l-2.781-81.563Z" transform="translate(2356 873)"/><path class="b" d="M91.437,54.119s-.749-18.083-1.3-18.658C84.7,29.813,78.8,29.132,71.606,32.251,67.048,34.228,60,38.914,53.149,43.022c-19.191,11.5-12.43,31.212-12.43,31.212l2.358,4.676,3.07-8.147,1.159,5.752c1.578,7.84,4.219,8.675,4.3,16.672.107,10.615,42.9,1.116,40.2-14.51Z" transform="translate(2356 873)"/><path class="q" d="M48.884,84.355c-4.032,4.64-3.25,6.09-5.428,13.785-1.073,3.79-1.061,10.425-.633,16.756.42,6.213,4.394,37.917,4.394,37.917,7.912,2.662,11.425,2.907,29.709-4.972,10.378-4.472,15.656-8.415,15.656-8.415.765-39.915-.773-60.745-.774-60.749-4.2,10.722-19.955,11.35-42.924,5.678" transform="translate(2356 873)"/><path class="m" d="M90.15,81.655s-15.654,9.862-32.511,4.1v4.931a51.563,51.563,0,0,0,34.514-5.693Z" transform="translate(2356 873)"/><path class="d" d="M60.828,38.312s-8,22.453,2.973,67.434c9.905,40.616-.828,41.956-.828,41.956s-11.626,6.688-19.479-2.542c0,0-3.96-63.409-1.967-76.167s19.3-30.681,19.3-30.681" transform="translate(2356 873)"/><path class="d" d="M73.918,31.377S88.96,42.459,89.551,86.2c.346,25.539.245,40.1.1,47.8a2.192,2.192,0,0,0,4,1.274l.315-.462a10.786,10.786,0,0,0,1.866-6.35L93.763,48.145S92.7,22.784,73.918,31.377" transform="translate(2356 873)"/><path class="e" d="M13.429,52.6h0a3.532,3.532,0,0,0-.387,4.965l3.7,4.319a3.532,3.532,0,0,0,4.963.386h0a3.53,3.53,0,0,0,.387-4.964l-3.7-4.319a3.531,3.531,0,0,0-4.963-.386" transform="translate(2356 873)"/><path class="e" d="M48.2,67.131,36.225,87.6c-1.774,2.761-7.117,2.837-8.08-.3l-11.8-26.453,6.134-2.3,9.09,17.815L39.71,57.922Z" transform="translate(2356 873)"/><path class="d" d="M60.828,38.312a48.25,48.25,0,0,0-28.4,36.1l9.429,7.189L53.118,63.014Z" transform="translate(2356 873)"/><path class="r" d="M64.234,30.189a13.4,13.4,0,0,0,8.787,1.493L72.846,34.7a9.486,9.486,0,0,1-8.612-4.512" transform="translate(2356 873)"/><path class="s" d="M102.043,26.7,90.422,34.021a1.638,1.638,0,0,1-2.177-.526L74.664,14.372a1.472,1.472,0,0,1,.3-2.12L86.371,4.9a1.639,1.639,0,0,1,2.176.526l13.517,19.033a1.4,1.4,0,0,1,.149,1.367Z" transform="translate(2356 873)"/><path class="s" d="M84.13,16.646s4.634,17.581,4.115,16.85L74.038,14.063l.361-1.036a1.317,1.317,0,0,1,.563-.775L86.371,4.9a1.472,1.472,0,0,1,1.122-.182Z" transform="translate(2356 873)"/><path class="m" d="M101.445,27.733l-11.39,7.319a1.629,1.629,0,0,1-2.158-.557L74.317,15.371a1.45,1.45,0,0,1,.288-2.1L85.99,5.956a1.625,1.625,0,0,1,2.154.563l13.581,19.124a1.433,1.433,0,0,1-.28,2.09" transform="translate(2356 873)"/><path class="j" d="M99.178,24.643l-11.2,7.215L75.97,15.049,87.1,7.878l11.543,16.7c.1.143.686-.03.533.069" transform="translate(2356 873)"/><path class="e" d="M98.954,21.652h0a2.968,2.968,0,0,0,.337-4.172l-3.1-3.641a2.96,2.96,0,0,0-4.51,3.834l3.1,3.642a2.969,2.969,0,0,0,4.173.337" transform="translate(2356 873)"/><path class="e" d="M61.724,25.324c.158,6.114,8.228,8.41,13.477,5.195S80.89,19.8,80.732,13.685,72.238,5.6,66.989,8.813s-5.423,10.4-5.265,16.511" transform="translate(2356 873)"/><path class="e" d="M67.964,41.047h0a4.521,4.521,0,0,0,4.761-4.24l.737-12.715a4.508,4.508,0,0,0-9-.521l-.737,12.715a4.522,4.522,0,0,0,4.24,4.761" transform="translate(2356 873)"/><path class="p" d="M59.844,21.913s7.684-1.488,11.3-5.738,5.247-7.667,3.207-8.937S57.8,3.792,59.844,21.913" transform="translate(2356 873)"/><path class="p" d="M73.4,9.523s5.663.586,7.35,5.981c2.581-4.264-1.459-16.96-11.9-9.019Z" transform="translate(2356 873)"/><path class="e" d="M59.1,24.256a3.079,3.079,0,0,0,3.693,2.225,3.079,3.079,0,0,0,1.458-4.058A3.079,3.079,0,0,0,60.554,20.2,3.08,3.08,0,0,0,59.1,24.256" transform="translate(2356 873)"/><rect class="a" width="118.846" height="240.397" transform="translate(2356 873)"/></g><g transform="translate(-66.117 319)"><path class="t" d="M123.39,219.94l7.65,2.686c5.916.3,8.993-.15,10.513,2.082l.433.633c1.519,2.234.147,4.174-3.05,4.312l-16.643,2.785c-3.2.138-4.48-1.94-5.582-4.563a11.175,11.175,0,0,1,1.137-6.624c1.294-2.511,2.983-1.2,5.542-1.311" transform="translate(2575 844)"/><path class="d" d="M52.659,186.266s21.646,25.926,42.989-.919S41.97,160.115,41.97,160.115Z" transform="translate(2575 844)"/><path class="u" d="M60.176,169.522h0c.784,1.687-2.361-6.314-1.114-4.933,2.6,2.876,8.84,13.039,12.531,14.219,4.459,1.425.78-1.6.78-1.6s37.136-21.68,36.355-22.751c-6.112-8.381-11.908-11-23.626-6.444-13.34,5.189-28.683,13.435-24.926,21.507" transform="translate(2575 844)"/><path class="d" d="M90.4,190.31c6.959-5.019,13.9-10.19,21.317-14.533,1.205-.706,2.427-1.388,3.683-2,.219-.107.441-.206.659-.314.643-.318.662-.727.016-.023-.488.532-.846.29-.233.115.314-.089.617-.222.928-.317.391-.119.816-.173,1.195-.312,1.226-.447-2.415.156-.926.142,1.574-.014-.662-.1-1.115-.211,1.523.382-1.71-.88-.962-.446s-1.944-1.694-.858-.592c-.325-.329-1.454-2.093-.72-.774.072.129-.672-2.345-.389-.817.081.436.185.907.305,1.332.365,1.286-.137-2.3-.088-.521.015.521.071,1.042.087,1.563.044,1.406.007,2.815-.059,4.22-.233,4.94-.059,9.9-.029,14.841.05,8.213.124,16.46-.453,24.659-.315,4.495,4.18,8.795,8.6,8.6a8.8,8.8,0,0,0,8.6-8.6c.957-13.615.164-27.285.535-40.913.156-5.7-.371-12.062-4.731-16.24a18.62,18.62,0,0,0-20.185-3.217c-8.923,4.348-19.442,12.1-27.454,17.878-3.761,2.712-1.985,9.115.519,13.4,2.173,3.714,7.977,5.814,11.763,3.084" transform="translate(2575 844)"/><path class="v" d="M257.92,215.037l.408-.053a2.232,2.232,0,0,0,1.931-2.5l-8.777-68.292a2.233,2.233,0,0,0-2.5-1.93l-.408.053a2.232,2.232,0,0,0-1.93,2.5l8.776,68.292a2.233,2.233,0,0,0,2.5,1.93" transform="translate(2575 844)"/><path class="v" d="M164.051,270.155h0a2.416,2.416,0,0,1-2.2-2.614l9.489-110.172a2.416,2.416,0,0,1,4.814.414l-9.49,110.173a2.416,2.416,0,0,1-2.614,2.2" transform="translate(2575 844)"/><path class="v" d="M15.736,180.911l-.668-.058a2.08,2.08,0,0,1-1.894-2.251l6.977-81.01A2.08,2.08,0,0,1,22.4,95.7l.669.058a2.08,2.08,0,0,1,1.894,2.251l-6.978,81.01a2.08,2.08,0,0,1-2.251,1.894" transform="translate(2575 844)"/><path class="w" d="M260.37,143.832H249.825L100.5,57.616c-2.479-1.431-6.812-1.252-9.675.4L24.568,96.268h-9.9V103.4a2.731,2.731,0,0,0,1.634,2.82l158.2,91.338c2.48,1.431,6.812,1.251,9.676-.4L258,154.54c1.618-.935,2.421-2.14,2.365-3.269h0Z" transform="translate(2575 844)"/><path class="x" d="M174.506,190.424,16.306,99.087c-2.48-1.432-2.169-3.933.694-5.586L90.82,50.882c2.864-1.654,7.2-1.833,9.675-.4l158.2,91.337c2.48,1.432,2.169,3.933-.7,5.586l-73.819,42.62c-2.864,1.653-7.2,1.833-9.676.4" transform="translate(2575 844)"/><path class="s" d="M161.6,125.342,104.918,92.613a1.038,1.038,0,0,0-1.047.006L86.662,102.776a1.039,1.039,0,0,0,.008,1.794l56.5,32.617a1.037,1.037,0,0,0,1.039,0l17.4-10.046a1.039,1.039,0,0,0,0-1.8" transform="translate(2575 844)"/><path class="k" d="M144.244,134.951l-56.5-32.618a1.039,1.039,0,0,1-.009-1.794l17.209-10.156A1.038,1.038,0,0,1,106,90.377l56.687,32.729a1.038,1.038,0,0,1,0,1.8l-17.4,10.046a1.037,1.037,0,0,1-1.039,0" transform="translate(2575 844)"/><path class="s" d="M107.75,95.458a.481.481,0,0,1-.415-.048l-3.811-2.2c-.137-.079-.174-.186-.084-.239l2.525-1.458a.474.474,0,0,1,.415.048l3.811,2.2c.137.079.175.187.083.24Z" transform="translate(2575 844)"/><path class="s" d="M112.171,102.025a.471.471,0,0,1-.415-.048l-3.812-2.2c-.136-.079-.173-.186-.081-.239l2.526-1.459a.478.478,0,0,1,.412.048l3.81,2.2c.14.081.176.187.086.239Z" transform="translate(2575 844)"/><path class="s" d="M109.936,104.752a.479.479,0,0,1-.414-.049l-3.812-2.2c-.135-.078-.175-.186-.085-.238l2.527-1.46a.484.484,0,0,1,.413.049l3.811,2.2c.137.079.175.187.085.239Z" transform="translate(2575 844)"/><path class="s" d="M103.888,105.278a.48.48,0,0,1-.413-.048l-3.812-2.2c-.135-.078-.172-.186-.083-.238l2.526-1.459a.482.482,0,0,1,.414.048l3.811,2.2c.136.079.173.187.082.239Z" transform="translate(2575 844)"/><path class="s" d="M99.971,107.54a.616.616,0,0,1-.492-.093l-4.993-2.882c-.179-.1-.253-.231-.161-.283l2.964-1.713a.624.624,0,0,1,.492.093l4.993,2.881c.181.105.252.233.162.284Z" transform="translate(2575 844)"/><path class="s" d="M132.776,126.5a.471.471,0,0,1-.387-.064l-3.808-2.2c-.139-.08-.191-.181-.115-.225l1.1-.633a.478.478,0,0,1,.39.066l3.808,2.2c.137.079.187.179.112.223Z" transform="translate(2575 844)"/><path class="s" d="M137.868,129.513a.469.469,0,0,1-.386-.064l-3.808-2.2c-.14-.08-.191-.181-.116-.225l1.1-.633a.478.478,0,0,1,.39.066l3.807,2.2c.138.079.188.179.113.223Z" transform="translate(2575 844)"/><path class="s" d="M143.266,132.558a.471.471,0,0,1-.382-.068l-3.809-2.2c-.137-.079-.192-.179-.119-.221l1.056-.61a.477.477,0,0,1,.383.068l3.81,2.2c.137.08.19.179.118.221Z" transform="translate(2575 844)"/><path class="s" d="M139.946,128.351a.474.474,0,0,1-.382-.067l-3.809-2.2c-.137-.079-.192-.179-.119-.221l1.056-.61a.477.477,0,0,1,.383.068l3.809,2.2c.138.08.191.179.119.221Z" transform="translate(2575 844)"/><path class="s" d="M126.188,122.667a.484.484,0,0,1-.416-.049l-24.8-14.313c-.135-.078-.176-.187-.084-.24l2.965-1.712a.492.492,0,0,1,.415.048l24.8,14.313c.138.079.176.189.087.24Z" transform="translate(2575 844)"/><path class="s" d="M123.648,120.5a1.43,1.43,0,0,1-.21-.109L103.7,109a1.256,1.256,0,0,1-.189-.121l.185-.107a1.651,1.651,0,0,1,.209.109l19.738,11.391a1.116,1.116,0,0,1,.19.122Z" transform="translate(2575 844)"/><path class="s" d="M109.113,108.291a.48.48,0,0,1-.414-.049l-3.812-2.2c-.134-.078-.174-.188-.085-.239l2.527-1.459a.484.484,0,0,1,.415.048l3.81,2.2c.139.08.175.188.084.24Z" transform="translate(2575 844)"/><path class="s" d="M114.36,111.318a.48.48,0,0,1-.412-.047l-3.811-2.2c-.136-.079-.175-.187-.086-.239l2.527-1.459a.475.475,0,0,1,.415.049l3.81,2.2c.136.077.173.186.083.239Z" transform="translate(2575 844)"/><path class="s" d="M119.608,114.347a.478.478,0,0,1-.412-.048l-3.812-2.2c-.136-.078-.173-.186-.083-.238l2.526-1.459a.48.48,0,0,1,.413.048l3.811,2.2c.136.079.173.187.082.239Z" transform="translate(2575 844)"/><path class="s" d="M124.856,117.376a.481.481,0,0,1-.413-.048l-3.812-2.2c-.137-.079-.174-.187-.084-.239l2.526-1.459a.482.482,0,0,1,.415.049l3.811,2.2c.137.079.173.187.083.239Z" transform="translate(2575 844)"/><path class="s" d="M130.1,120.4a.488.488,0,0,1-.416-.049l-3.811-2.2c-.135-.079-.172-.187-.083-.238l2.526-1.459a.478.478,0,0,1,.414.047l3.809,2.2c.139.079.177.188.086.241Z" transform="translate(2575 844)"/><path class="s" d="M135.353,123.431a.482.482,0,0,1-.414-.048l-3.81-2.2c-.137-.08-.175-.188-.085-.239l2.526-1.459a.478.478,0,0,1,.415.048l3.81,2.2c.137.079.174.187.083.239Z" transform="translate(2575 844)"/><path class="s" d="M147.174,130.253a.483.483,0,0,1-.414-.049l-10.383-5.992c-.138-.079-.175-.187-.084-.239l2.526-1.459a.483.483,0,0,1,.414.048l10.383,5.992c.138.08.174.187.083.24Z" transform="translate(2575 844)"/><path class="s" d="M115.158,107.763a.469.469,0,0,1-.411-.048l-3.813-2.2c-.136-.079-.174-.185-.083-.238l2.526-1.459a.475.475,0,0,1,.412.049l3.812,2.2c.138.08.173.186.083.238Z" transform="translate(2575 844)"/><path class="s" d="M120.407,110.792a.478.478,0,0,1-.412-.048l-3.814-2.2c-.134-.078-.173-.184-.082-.237l2.527-1.459a.474.474,0,0,1,.41.048l3.813,2.2c.136.078.174.186.084.238Z" transform="translate(2575 844)"/><path class="s" d="M125.655,113.821a.477.477,0,0,1-.413-.049l-3.812-2.2c-.134-.078-.176-.187-.085-.239l2.527-1.46a.489.489,0,0,1,.413.05l3.811,2.2c.136.079.175.187.085.239Z" transform="translate(2575 844)"/><path class="s" d="M130.9,116.849a.48.48,0,0,1-.413-.048l-3.81-2.2c-.137-.08-.176-.186-.085-.239l2.527-1.459a.478.478,0,0,1,.413.049l3.809,2.2c.137.078.175.186.085.238Z" transform="translate(2575 844)"/><path class="s" d="M136.153,119.876a.48.48,0,0,1-.413-.048l-3.814-2.2c-.136-.079-.174-.185-.083-.238l2.527-1.459a.474.474,0,0,1,.411.049l3.813,2.2c.136.078.174.186.084.238Z" transform="translate(2575 844)"/><path class="s" d="M141.4,122.9a.476.476,0,0,1-.413-.048l-3.81-2.2c-.138-.079-.176-.186-.086-.239l2.527-1.459a.48.48,0,0,1,.414.049l3.809,2.2c.137.079.174.186.084.238Z" transform="translate(2575 844)"/><path class="s" d="M146.646,125.932a.478.478,0,0,1-.412-.048l-3.813-2.2c-.135-.078-.173-.184-.082-.237l2.526-1.459a.476.476,0,0,1,.411.048l3.812,2.2c.137.078.174.186.084.238Z" transform="translate(2575 844)"/><path class="s" d="M117.394,105.037a.478.478,0,0,1-.415-.048l-3.812-2.2c-.134-.078-.172-.186-.08-.239l2.526-1.459a.479.479,0,0,1,.411.048l3.811,2.2c.138.08.174.187.085.239Z" transform="translate(2575 844)"/><path class="s" d="M122.641,108.065a.481.481,0,0,1-.414-.047l-3.811-2.2c-.137-.079-.174-.187-.083-.24l2.526-1.459a.481.481,0,0,1,.413.049l3.811,2.2c.136.078.173.186.083.238Z" transform="translate(2575 844)"/><path class="s" d="M127.89,111.094a.479.479,0,0,1-.416-.048l-3.811-2.2c-.136-.079-.173-.186-.082-.239l2.527-1.459a.476.476,0,0,1,.411.048l3.81,2.2c.139.08.176.187.086.239Z" transform="translate(2575 844)"/><path class="s" d="M133.137,114.122a.474.474,0,0,1-.414-.047l-3.812-2.2c-.137-.079-.175-.186-.083-.239l2.526-1.459a.48.48,0,0,1,.414.049l3.81,2.2c.138.08.173.186.084.238Z" transform="translate(2575 844)"/><path class="s" d="M138.387,117.148a.479.479,0,0,1-.414-.045l-3.812-2.2c-.137-.08-.173-.186-.083-.239l2.527-1.459a.477.477,0,0,1,.413.048l3.81,2.2c.136.078.173.186.083.237Z" transform="translate(2575 844)"/><path class="s" d="M143.635,120.178a.485.485,0,0,1-.417-.048l-3.811-2.2c-.134-.078-.173-.186-.082-.239l2.526-1.459a.481.481,0,0,1,.412.048l3.811,2.2c.138.079.176.187.086.239Z" transform="translate(2575 844)"/><path class="s" d="M148.882,123.206a.481.481,0,0,1-.414-.047l-3.812-2.2c-.136-.079-.173-.186-.082-.239l2.526-1.459a.478.478,0,0,1,.413.049l3.811,2.2c.136.078.173.186.084.238Z" transform="translate(2575 844)"/><path class="s" d="M106.924,99a.48.48,0,0,1-.416-.048l-6.462-3.729c-.138-.079-.175-.186-.083-.24l2.525-1.459a.489.489,0,0,1,.415.049l6.461,3.73c.138.079.175.186.085.238Z" transform="translate(2575 844)"/><path class="s" d="M157.607,124.225a.479.479,0,0,1-.414-.048l-6.463-3.729c-.135-.078-.174-.187-.083-.24l2.524-1.458a.484.484,0,0,1,.415.048l6.462,3.729c.137.079.175.186.083.24Z" transform="translate(2575 844)"/><path class="s" d="M104.687,101.723a.476.476,0,0,1-.414-.049l-7.7-4.446c-.137-.079-.176-.186-.085-.238l2.526-1.46a.481.481,0,0,1,.413.049l7.7,4.446c.139.08.175.187.085.239Z" transform="translate(2575 844)"/><path class="s" d="M98.642,102.251a.483.483,0,0,1-.414-.049l-5.137-2.964c-.137-.08-.175-.187-.085-.239l2.526-1.459a.481.481,0,0,1,.415.048l5.136,2.964c.138.079.175.188.084.24Z" transform="translate(2575 844)"/><path class="s" d="M113,98.486a.477.477,0,0,1-.416-.049l-3.809-2.2c-.136-.079-.174-.186-.084-.239l2.526-1.458a.472.472,0,0,1,.414.048l3.808,2.2c.14.08.177.187.085.24Z" transform="translate(2575 844)"/><path class="s" d="M118.221,101.5a.481.481,0,0,1-.415-.048l-3.812-2.2c-.136-.079-.174-.187-.084-.239l2.526-1.459a.479.479,0,0,1,.414.049l3.811,2.2c.137.079.176.187.084.24Z" transform="translate(2575 844)"/><path class="s" d="M123.467,104.525a.469.469,0,0,1-.413-.046l-3.811-2.2c-.136-.078-.174-.187-.083-.238l2.525-1.459a.479.479,0,0,1,.414.048l3.81,2.2c.139.08.174.186.083.239Z" transform="translate(2575 844)"/><path class="s" d="M128.717,107.555a.481.481,0,0,1-.415-.048l-3.809-2.2c-.138-.079-.175-.187-.084-.239l2.525-1.458a.474.474,0,0,1,.415.048l3.808,2.2c.138.079.176.187.084.24Z" transform="translate(2575 844)"/><path class="s" d="M133.963,110.583a.473.473,0,0,1-.413-.047l-3.811-2.2c-.137-.08-.174-.187-.084-.24l2.525-1.458a.478.478,0,0,1,.415.048l3.81,2.2c.139.08.174.186.082.239Z" transform="translate(2575 844)"/><path class="s" d="M139.213,113.61a.483.483,0,0,1-.413-.048l-3.813-2.2c-.135-.079-.172-.186-.082-.238l2.525-1.459a.476.476,0,0,1,.413.048l3.812,2.2c.136.078.175.185.083.239Z" transform="translate(2575 844)"/><path class="s" d="M144.461,116.639a.479.479,0,0,1-.414-.048l-3.811-2.2c-.138-.079-.176-.187-.085-.239l2.525-1.459a.481.481,0,0,1,.416.049l3.81,2.2c.138.079.175.187.084.24Z" transform="translate(2575 844)"/><path class="s" d="M149.707,119.666a.474.474,0,0,1-.412-.047l-3.814-2.2c-.135-.078-.172-.185-.081-.237l2.525-1.459a.473.473,0,0,1,.412.047l3.813,2.2c.137.078.174.185.082.238Z" transform="translate(2575 844)"/><path class="s" d="M152.759,122.337a.565.565,0,0,0-.223-.073.307.307,0,0,0-.187.025l-2.527,1.459a.088.088,0,0,0-.045.11.284.284,0,0,0,.127.129l.995.574-3.313,1.913a.087.087,0,0,0-.043.11.277.277,0,0,0,.128.129l2.567,1.481a.6.6,0,0,0,.225.075.315.315,0,0,0,.191-.025l6-3.469a.083.083,0,0,0,.042-.109.273.273,0,0,0-.128-.13Z" transform="translate(2575 844)"/><path class="y" d="M18.577,172.82c-3.37-1.2,12.615-42.824,16.612-74.769l56.756,26.811c-5.222,27.646-5.75,9.822-3.423,42.774-29.979,44-56.869,31.541-69.945,5.184" transform="translate(2575 844)"/><path class="e" d="M104.371,140.991a22.177,22.177,0,0,0,11.487,8.839c6.537,2.2,31.178,1.375,38.648-.217,2.926-.624,1.6-7.58-1.393-7.829-7.144-.594-27.706-.561-33.765-2.446a57.337,57.337,0,0,1-5.553-4.116c-.312-.453-13.276.364-9.424,5.769" transform="translate(2575 844)"/><path class="s" d="M172.762,144.049l-7.244,4.963a7.544,7.544,0,0,1-8.98-.526c-2.268-2.119-1.94-5.35.73-7.18l7.241-4.964a7.547,7.547,0,0,1,8.981.527c2.268,2.119,1.942,5.35-.728,7.18" transform="translate(2575 844)"/><path class="m" d="M170.949,142.38l-7.242,4.964a7.546,7.546,0,0,1-8.981-.526c-2.269-2.119-1.941-5.351.729-7.181l7.242-4.963a7.542,7.542,0,0,1,8.98.527c2.27,2.119,1.942,5.35-.728,7.179" transform="translate(2575 844)"/><path class="v" d="M169.259,134.7a5.46,5.46,0,0,0-2.322,1.226.71.71,0,0,0,0,1,.724.724,0,0,0,1,0c.076-.067.153-.132.233-.194l-.143.111a4.808,4.808,0,0,1,1.043-.611l-.169.072a4.68,4.68,0,0,1,.735-.241.707.707,0,0,0-.376-1.363" transform="translate(2575 844)"/><path class="v" d="M59.422,279.415h0a1.432,1.432,0,0,1-1.206-1.626l7.236-77.678c.116-.782,5.248-2.134,6.031-2.017s7.48,1.235,7.364,2.017l-17.8,78.1a1.433,1.433,0,0,1-1.627,1.206" transform="translate(2575 844)"/><path class="v" d="M4.993,245.93h0A1.432,1.432,0,0,1,3.787,244.3l7.236-77.678c.116-.782,5.248-2.134,6.031-2.018s7.48,1.236,7.364,2.018l-17.8,78.1a1.432,1.432,0,0,1-1.627,1.207" transform="translate(2575 844)"/><path class="v" d="M118.552,248.38h0a1.484,1.484,0,0,0,1.25-1.686l-4.792-64.056c-.12-.811-5.013,2.476-5.823,2.6s-7.341,2.771-7.221,3.581l14.9,58.315a1.483,1.483,0,0,0,1.685,1.249" transform="translate(2575 844)"/><path class="e" d="M93.694,98.6l-32.515,2.855,8.856,13.42,25.182-12.1Z" transform="translate(2575 844)"/><path class="y" d="M38.3,92.474c-3.572,3.864-3.264,6.134-3.7,11.618-.425,5.361.566,9.536,5.625,11.227l50.4,16.853s14.1-19.595-2.449-26.707A61.871,61.871,0,0,1,78.2,99.976c-17.016-1.995-18.9-12.039-18.9-12.039-8.022-3.048-14.885-2.068-20.993,4.537" transform="translate(2575 844)"/><path class="y" d="M79.395,122.7l20.517,21.557c6.881,5.041,18.59-9.887,13.254-14.506l-20.619-21.58c-3.423-2.94-8.05-2.925-10.7.035-2.763,3.085-5.643,10.979-2.452,14.494" transform="translate(2575 844)"/><path class="y" d="M98.895,137.074c4.213-1.379,8.5-3.181,10.477-10.012" transform="translate(2575 844)"/><path class="z" d="M110.133,201.007,75.241,222.37c-5.651,3.461-10.019,1.837-9.708-3.608l.3-5.231c.313-5.445,5.192-12.731,10.843-16.191l34.893-21.364c5.651-3.46,10.019-1.836,9.707,3.609l-.3,5.231c-.313,5.445-5.193,12.731-10.844,16.191" transform="translate(2575 844)"/><path class="z" d="M8.518,183.522.223,129.974c-1.479-8.079,4.561-10.769,13.081-5.825l34.072,19.772a36.752,36.752,0,0,1,14.573,16.643l14.382,35.474c4.124,10.17-4.776,20.177-13.384,15.051Z" transform="translate(2575 844)"/><path class="aa" d="M71.593,223.919,52.472,164.6c-3.923-9.677-19.178-16.7-28.426-22.068L0,128.58c.037.381.088.773.163,1.181L8.33,182.484a20.1,20.1,0,0,0,1.139,4.828s.412,2.59,6.7,5.945l50.5,30.015c1.94,1.272,4.437,1.059,4.916.647" transform="translate(2575 844)"/><path class="s" d="M119.177,79.735l74.486,43.973a1.757,1.757,0,0,0,1.77-.037l5.38-3.106a1.81,1.81,0,0,0,.25-3.1L126.577,73.494a1.755,1.755,0,0,0-1.769.037l-5.38,3.106a1.81,1.81,0,0,0-.251,3.1" transform="translate(2575 844)"/><path class="s" d="M160.041,112.665l-16.8-9.7c-1.348-.779-1.309-2.045.086-2.785L167.054,87.6a5.247,5.247,0,0,1,4.625.065l15.11,8.723c1.279.739,1.318,1.927.088,2.685L164.84,112.63a5.2,5.2,0,0,1-4.8.035" transform="translate(2575 844)"/><path class="j" d="M160.041,110.391l-16.8-9.7c-1.348-.779-1.309-2.045.086-2.784l23.728-12.584a5.25,5.25,0,0,1,4.625.065l15.11,8.724c1.279.738,1.318,1.927.088,2.684l-22.037,13.56a5.2,5.2,0,0,1-4.8.035" transform="translate(2575 844)"/><g transform="translate(2575 844)"><g class="ab"><path class="s" d="M146.915,96,168.1,108.35l4.275-2.631L151.386,93.63Z"/></g></g><path class="ac" d="M216.161,53.982l-4.287-2.553-6.727-4.036a1.642,1.642,0,0,0-.357-.3L126.557.147a.751.751,0,0,0-.848-.031h0l-2.43,1.632,1.838,2.023L120.34,60.107a2.029,2.029,0,0,0,.117.823l-.785,9.006a2.4,2.4,0,0,0,1.05,2.08l11.085,6.6a1.62,1.62,0,0,0,.2.149l75.663,45.064.769,3.045,2.36-1.6a.908.908,0,0,0,.442-.778l5.964-68.437a2.4,2.4,0,0,0-1.049-2.082" transform="translate(2575 844)"/><path class="ad" d="M120.721,72.016l11.086,6.6a1.593,1.593,0,0,0,.2.147L147.4,87.934l69.422-33.267a2.069,2.069,0,0,0-.666-.684l-4.287-2.554-6.726-4.036a1.7,1.7,0,0,0-.358-.3L126.556.147a.751.751,0,0,0-.848-.031h0l-2.429,1.633,1.838,2.021-4.777,56.339a2.061,2.061,0,0,0,.117.822l-.785,9a2.4,2.4,0,0,0,1.05,2.081" transform="translate(2575 844)"/><path class="j" d="M213.678,55.655l-11.086-6.6a1.594,1.594,0,0,0-.2-.147L124.445,2.482a.8.8,0,0,0-1.291.687L117.19,71.607a2.4,2.4,0,0,0,1.049,2.081l11.085,6.6a1.675,1.675,0,0,0,.205.147l77.944,46.424a.8.8,0,0,0,1.29-.688l5.965-68.438a2.4,2.4,0,0,0-1.05-2.081" transform="translate(2575 844)"/><path class="m" d="M213.658,55.662l-10.993-6.6a1.675,1.675,0,0,0-.358-.3L124.074,1.819c-.593-.355-1.128-.058-1.188.661l-5.029,59.3a2.262,2.262,0,0,0,.967,1.954l10.993,6.6a1.675,1.675,0,0,0,.358.3l78.233,46.945c.593.355,1.128.058,1.188-.662l5.029-59.3a2.262,2.262,0,0,0-.967-1.955" transform="translate(2575 844)"/><path class="s" d="M212.684,58.59,134.75,11.825v.006L124.882,5.91l-4.913,54.433L197.9,107.107v0l9.868,5.921Z" transform="translate(2575 844)"/><path class="w" d="M123.794,59.025,178.472,41.27,195.433,51,141.049,68.182Z" transform="translate(2575 844)"/><path class="w" d="M123.812,56.364l52.579-16.141-10.8-6.1L124.715,46.912Z" transform="translate(2575 844)"/><path class="s" d="M161.825,94.072c-.152,1.754-1.469,2.461-2.939,1.578a5.5,5.5,0,0,1-2.387-4.774c.152-1.754,1.469-2.461,2.939-1.578a5.5,5.5,0,0,1,2.387,4.774" transform="translate(2575 844)"/><path class="ae" d="M76.606,84.918c-3.024,7.4-8.936,8.924-13.2,3.415s-5.275-15.972-2.249-23.367,8.935-8.924,13.2-3.415,5.274,15.972,2.249,23.367" transform="translate(2575 844)"/><path class="e" d="M84.918,83.373c-3.024,7.4-11.511,9.264-15.778,3.754S63.866,71.155,66.891,63.76s8.936-8.924,13.2-3.414,7.848,15.631,4.824,23.027" transform="translate(2575 844)"/><path class="e" d="M66.206,96.259h0c-2.7-.918-5.945-1.088-5.026-3.785l3.963-11.142A5.193,5.193,0,0,1,71.716,78.1l.8.272a5.2,5.2,0,0,1,3.233,6.573l-2.154,12.58c-.918,2.7-4.69-.347-7.387-1.265" transform="translate(2575 844)"/><path class="p" d="M56.987,81.484s.041,7.283,10.418,6.96c7.444-.232,6.612-12.393,14.071-12.787,8.207-.434,10.756-10.235,8-14.4s-11.421-7.139-18.162-5-16.638.882-14.324,25.236" transform="translate(2575 844)"/><path class="e" d="M81.054,79.8a3.518,3.518,0,1,1-1.925-4.587A3.518,3.518,0,0,1,81.054,79.8" transform="translate(2575 844)"/><path class="q" d="M80.765,101.457c-13.528-2.692-23.2,5.187-24.391-14.562,0,0,3.61-.8,4.747,1.181,2,3.483,3.789,6.967,9.418,6.928,2.915-.02,6.649-.156,7.5,1.277Z" transform="translate(2575 844)"/><path class="e" d="M98.631,102.884l-4.953,1.328A3.618,3.618,0,1,1,91.8,97.223l4.953-1.328a3.618,3.618,0,1,1,1.874,6.989" transform="translate(2575 844)"/><path class="e" d="M163.631,145.867l-5.707,2.481a4.4,4.4,0,0,1-5.776-2.274h0a4.4,4.4,0,0,1,2.276-5.777l5.707-2.482a4.391,4.391,0,0,1,3.5,8.053" transform="translate(2575 844)"/><rect class="a" width="260.37" height="279.431" transform="translate(2575 844)"/><rect class="a" width="260.37" height="279.431" transform="translate(2575 844)"/></g><g transform="matrix(0.956, 0, -0.046, 0.988, 2300.248, 1272.43)"><g class="af"><g class="af"><path class="m" d="M57.7,189.734a2.323,2.323,0,0,0,2.3-2.344V64.58a2.3,2.3,0,1,0-4.605,0V187.39a2.323,2.323,0,0,0,2.3,2.344" transform="translate(3.035 3.41)"/><path class="ag" d="M58.6,131a2.272,2.272,0,0,0,1.422-.5L89.98,106.532a2.369,2.369,0,0,0,.387-3.289,2.277,2.277,0,0,0-3.232-.394L57.171,126.818a2.37,2.37,0,0,0-.386,3.289,2.285,2.285,0,0,0,1.811.9" transform="translate(3.084 5.608)"/><path class="ag" d="M58.715,117.426a2.272,2.272,0,0,0,1.455-.527,2.37,2.37,0,0,0,.327-3.3L34.5,81.179a2.273,2.273,0,0,0-3.239-.333,2.368,2.368,0,0,0-.328,3.3L56.93,116.564a2.281,2.281,0,0,0,1.785.862" transform="translate(1.667 4.4)"/><path class="z" d="M49.423,76.871S66.771,94.707,84.75,88.186s-2.333-4.327-7.2-9.341S77.484,70.9,81.269,71.2s25.417.8,24.713-7.512S91.925,67.23,90.042,60.3s-2.169-.7,12.051-6.154c11.67-4.473,14.274-18.2,11.787-20.182-4.4-3.505-12.043,6.743-15.014,4.233s12.72-11.282,10.148-21.818S102.814,0,102.814,0s-3.258,3.36-12.385,7.726S73.861,14.993,75.061,25.243s-7.365,4.138-4.406-7.193S67.576,5.212,63.949,14.2c-3.335,8.265-6.6,18.809-8.119,21.844s-1.17,3.215-.8-5.087-5.739-11.666-9.255-8.922S43.8,49.426,51.759,53.356s-.8,16.05-7.609,1.332-8.677-16.945-10.993-7,8.19,22.781,16.266,29.179" transform="translate(1.799 0)"/><path class="ah" d="M60.031,66.393c10.167-3.826,32.049-9.471,38.052.176.152.244-14.37,5.79-16.68,5.605-3.784-.3-2.9,1.532,1.968,6.547s14.285-6.437-3.695.084c-12.287,4.456-23.389-.342-29.75-5.17,2.842-2.72,6.4-5.849,10.106-7.243" transform="translate(2.735 3.355)"/><path class="aa" d="M11.2,108.346c9.695-4.191,9.318-.428,7.266-6.27-.889-2.528-3.308-2-6.033-.82C.461,109.09.29,93.547,14,90.21c5.423-1.668,11.018-.68,12.791-.872,3.893-.421,8.643-4.313,3.357-8.458-2.407-1.887-8-1.643-11.683-1.768a1.889,1.889,0,0,1-.995-3.453c1.13-.767,2.682-1.706,4.742-2.857,18.019-10.068,36.847,4.664,36.847,4.664,8.65,4.928,20.174,15.905,18.4,26.432s-3.823,8.63-11.672-4.972-16.093.365-7.712,2.815,11.435,27.127,8,30.584-9.89,1.225-10.009-7.258-7.3-10.583-8.677-7.216,5.254,14.923,5.9,24.728-14.8,10.619-12.448-1.429-10.389-24.482-8.549-14.326.611,20.583-8.474,26.765a107.048,107.048,0,0,0-14.828,12.04,48.141,48.141,0,0,1-5.814-11.144C-3.346,132.113.6,117.7,11.2,108.346" transform="translate(0 3.796)"/><path class="ai" d="M91.988,76.691c-2.653,5.344,2.7,5.68,5.816,5.023s16.1.663,19.342,6.864c3.871,7.4-15.475,6.012-14.212,10.15,1.486,4.867,2.842,6.685,12.745,4.609,12.9-2.7,22.564,8.886,19.254,12.077s-17.614,1.16-19.393,3.886,7.794,3.711,11.188,13.677c3.854,11.316-.618,22.6-1.017,24.04-1.487.149-13.495,2.748-23.992-2.971-9.246-5.038-11.227-16.369-14.216-15.079s-.777,17.464-4.485,20.183-13.489-8.773-8.632-21.025c3.727-9.407,3.034-14-1.51-16.286-3.864-1.947-5.446,14.285-13.161,11.086s-1.694-19.209-.517-22.168.916-7.045-4.8-5.338-5.663,22.2-12.83,5.967c-3.095-7.014.2-19.614,9.589-31.244a29.255,29.255,0,0,1,12.455-9c10.167-3.827,28.811-10.066,34.38-5.269,9.022,7.77-3.349,5.479-6,10.822" transform="translate(2.216 3.514)"/><path class="aj" d="M123.584,156.693S90.424,92.778,57.463,73.219" transform="translate(3.148 4.012)"/></g></g></g><g transform="matrix(0.978, 0, -0.05, 0.97, -69.381, 276.262)"><path class="ak" d="M34.829,65.989s18.044,72.115,15.424,118.4" transform="translate(2063.616 998.717)"/><path class="ak" d="M26.8,26.637c-.115,2.526,31.2,61.694,29.028,153.8" transform="translate(2056.792 965.254)"/><path class="ak" d="M67.178,24.293c-.055,1.264-30.664-2.37-24.217,144.317" transform="translate(2069.773 963.261)"/><path class="ak" d="M77.931,81.594S47.6,56.611,43.259,157.652" transform="translate(2070.785 1009.66)"/><path class="al" d="M4.171,90.794a29.953,29.953,0,0,0,.659,18.844S20.245,83.589,43.257,79.77s-2.731-15.926-2.731-15.926Z" transform="translate(2036.508 996.893)"/><path class="al" d="M45.74,52.341S66.1,40.314,77.625,40.834,63.712,20.394,53.558,27.619,45.74,52.341,45.74,52.341" transform="translate(2072.697 964.8)"/><path class="al" d="M7.367,5.146S-.917,17.2.082,26.336c0,0,11.028-7.176,23.251-5.007S7.367,5.146,7.367,5.146" transform="translate(2033.999 946.98)"/><path class="z" d="M55.805,60.482a4.473,4.473,0,0,1-7.762,1.9c-8.127-9.516-23.135-26.391-33.406-33.77C-2.012,16.648-.113,1.618,23.369.148s44.582,7.71,37.5,38.4Z" transform="translate(2037.138 942.604)"/><path class="ai" d="M57.816,87.148s-7.516,16.239,13.624,23.17c31.443,10.308,47.816,46.593,47.816,46.593s.768-26.169-5.04-45.466c-5.769-19.169-11.724-32.631-24.184-36.99S66.212,69.4,57.816,87.148" transform="translate(2082.059 1003.707)"/><path class="ai" d="M46.334,41.226S51.918,9.213,90.15,26.44C113.629,37.02,111.6,78.353,111.6,78.353c-13.089-32.1-49.729-40.62-65.263-37.127" transform="translate(2073.4 960.758)"/><path class="z" d="M64.178,94.151c-7.242-6.983-27.966-21.4-60.569.305,0,0,2.924-28.693,31.028-33.907C61.151,55.631,65.98,69,66.933,92.909a1.629,1.629,0,0,1-2.755,1.242" transform="translate(2037.069 993.231)"/><path class="z" d="M57.89,99.116S39.6,86.855,34.3,113.174s-9.581,36.888-9.581,36.888,32.934-10.913,36.69-23.079S65.6,101.1,57.89,99.116" transform="translate(2055.021 1024.46)"/><path class="am" d="M62.949,77.358s38.433,19.9,46,51.978" transform="translate(2087.528 1008.384)"/><path class="am" d="M43.193,54.221S36.47,11.055,14.27.88" transform="translate(2046.134 943.353)"/><path class="am" d="M51.616,97.984s-7.757,12.651-10.541,24.881S28.6,143.378,28.6,143.378" transform="translate(2058.322 1025.923)"/></g></g></svg>