<svg xmlns="http://www.w3.org/2000/svg" width="69" height="88" viewBox="0 0 69 88"><defs><style>.a{fill:#1e3a6d;}.b{fill:#7ecef5;}</style></defs><path class="a" d="M60.149,75.426,44.037,69.809v-8.66A21.921,21.921,0,0,0,55.611,46.872C59.7,40.085,62.419,34,62.419,26.277,62.419,11.064,51.072,1,34.051,1,17.711,1,6.591,11.3,6.591,26.511c0,7.021,2.723,13.34,6.808,20.362A22.594,22.594,0,0,0,24.974,61.149v8.66L8.634,75.426A12.75,12.75,0,0,0,.01,87.83,1.089,1.089,0,0,0,1.145,89H67.638A1.328,1.328,0,0,0,69,87.6h0A13.185,13.185,0,0,0,60.149,75.426ZM14.534,20.894h0l-.227.234v.234a35.373,35.373,0,0,0-1.589,10.766v7.723a30.556,30.556,0,0,1-3.4-13.34C9.315,12.7,19.3,3.574,34.505,3.574c12.936,0,25.871,7.021,25.871,22.936a31.742,31.742,0,0,1-3.4,13.809V32.362A32.682,32.682,0,0,0,54.93,21.128c-.227-.468-.454-.7-.908-.7H52.887C48.8,23,42.9,22.3,33.824,18.085H32.69l-.227.234-.227.234v.234h0v.936h0l3.4,7.021A33.75,33.75,0,0,1,16.35,20.66l-.454.234H14.534Zm.454,19.894v-8.66A35.831,35.831,0,0,1,16.123,23.7a34.608,34.608,0,0,0,19.063,5.851h2.5c.227,0,.227,0,.454-.234h0c.227,0,.227-.234.454-.234v-.234a.227.227,0,0,1,.227-.234v-.468h0v-.468l-2.95-5.851A30.864,30.864,0,0,0,46.987,24.4a15.386,15.386,0,0,0,5.674-1.17,29.1,29.1,0,0,1,1.362,8.894v8.66c0,11.234-8.851,20.128-19.517,20.128A19.683,19.683,0,0,1,14.988,40.787ZM41.54,62.319v8.426h0c0,2.34-3.631,3.511-7.035,3.511s-7.035-1.17-7.035-3.511h0V62.319a23.364,23.364,0,0,0,7.035,1.17h0A14.9,14.9,0,0,0,41.54,62.319ZM2.506,86.66A10.23,10.23,0,0,1,9.542,78l15.886-5.383a4.838,4.838,0,0,0,2.95,3.043,14.838,14.838,0,0,0,6.354,1.4c3.858,0,8.17-1.4,9.3-4.447L59.7,78a10.527,10.527,0,0,1,7.035,8.66Z" transform="translate(0 -1)"/><path class="b" d="M3,88a10.235,10.235,0,0,1,7.12-8.633L26.2,74a4.857,4.857,0,0,0,2.986,3.033,15.208,15.208,0,0,0,6.431,1.4c3.9,0,8.269-1.4,9.417-4.433L60.88,79.367A10.531,10.531,0,0,1,68,88Z" transform="translate(0 -1)"/></svg>