<svg xmlns="http://www.w3.org/2000/svg" width="82.539" height="82.539" viewBox="0 0 82.539 82.539"><defs><style>.a{fill:#73d7ff;}.b{fill:#fff;}.c{fill:#003575;}</style></defs><g transform="translate(-333.721 -115.832)"><g transform="translate(335.995 177.303)"><path class="a" d="M359.858,148.6a18.907,18.907,0,0,0,28.54,0l8.089,6.5,10.2,1.321,5.746,7.093.82,4.572-29.311-1.96H334.933l4.924-10.291,11.9-1.7Z" transform="translate(-334.933 -148.601)"/></g><g transform="translate(391.197 144.131)"><path class="a" d="M365.377,130.918l-1.016,15.476h10.317l2.97-7.035-1.8-7.191Z" transform="translate(-364.361 -130.918)"/></g><g transform="translate(345.473 144.131)"><path class="a" d="M352.257,130.918l1.016,15.476H342.956l-2.97-7.035,1.8-7.191Z" transform="translate(-339.986 -130.918)"/></g><g transform="translate(359.636 129.903)"><path class="b" d="M378.244,141.88c0-15.33-8.35-18.547-15.354-18.547h0c-7,0-15.354,3.217-15.354,18.547,0,15.219,9.242,25.315,15.354,25.315h0C369,167.195,378.244,157.1,378.244,141.88Z" transform="translate(-347.536 -123.333)"/></g><g transform="translate(333.721 115.832)"><g transform="translate(0 60.568)"><path class="c" d="M416.237,168.177a1.358,1.358,0,0,1,0-.231c-1.484-8.607-5.446-13.745-10.6-13.745l-1.135.006c-4.656,0-8.335-.008-12.056-5.331a1.77,1.77,0,1,0-2.9,2.024c4.414,6.32,9.376,6.849,14.079,6.849.358,0,.711,0,1.064-.006l.949,0c2.628,0,4.954,2.808,6.384,7.7a.862.862,0,0,1-.829,1.107h-72.4a.865.865,0,0,1-.831-1.107c1.433-4.894,3.761-7.7,6.387-7.7l.955,0c.341,0,.692,0,1.045,0h0c4.907,0,10.07-.527,14.486-6.847a1.774,1.774,0,0,0-.437-2.463,1.776,1.776,0,0,0-2.467.439c-3.452,4.939-7.2,5.331-11.734,5.331l-1.85-.006c-5.157,0-9.117,5.136-10.6,13.743a1.288,1.288,0,0,1,0,.225,1.11,1.11,0,0,1-.024.158,1.4,1.4,0,0,1,.038.193,1.788,1.788,0,0,0,.066.34,1.831,1.831,0,0,0,.139.306,1.778,1.778,0,0,0,.182.272,1.578,1.578,0,0,0,.246.233,1.769,1.769,0,0,0,.268.184,1.787,1.787,0,0,0,.338.126,1.7,1.7,0,0,1,.238.092,1.668,1.668,0,0,0,.236.017l79.012,0,.024,0a2.072,2.072,0,0,0,.244-.015,1.586,1.586,0,0,1,.242-.1,1.638,1.638,0,0,0,.325-.122,2.076,2.076,0,0,0,.516-.415,1.809,1.809,0,0,0,.186-.278,1.474,1.474,0,0,0,.2-.645,1.3,1.3,0,0,1,.036-.191A1.013,1.013,0,0,1,416.237,168.177Z" transform="translate(-333.721 -148.12)"/></g><g transform="translate(10.52)"><path class="c" d="M396.052,142.575a.862.862,0,0,1-.493-.437V141.3c0-8.336-2.172-14.733-6.457-19.016s-10.683-6.453-19.023-6.453-14.741,2.17-19.023,6.453-6.457,10.679-6.459,18.99v.867a.861.861,0,0,1-.49.433,7.027,7.027,0,0,0-4.778,6.626v5.267a7.046,7.046,0,0,0,7.04,7.035h7.1a.906.906,0,0,1,.154.251c3.487,9.156,10.257,15.549,16.459,15.549a10.5,10.5,0,0,0,3.21-.521,1.768,1.768,0,0,0-.544-3.452,1.839,1.839,0,0,0-.544.083,6.94,6.94,0,0,1-2.122.353c-6.112,0-15.354-10.1-15.354-25.315,0-15.33,8.35-18.547,15.354-18.547,5.222,0,9.182,1.713,11.771,5.095a1.768,1.768,0,1,0,2.808-2.15c-3.243-4.241-8.284-6.483-14.579-6.483-9.781,0-16.256,5.365-18.232,15.106a.862.862,0,0,1-.846.692h-2a.863.863,0,0,1-.865-.863c0-7.494,1.765-12.9,5.4-16.534s9.044-5.4,16.542-5.4,12.908,1.765,16.542,5.4,5.4,9.04,5.4,16.534a.863.863,0,0,1-.865.863h-1.1l-3.112-.017-.008,0-.011,0H386.9a1.394,1.394,0,0,0-.178.017,1.77,1.77,0,0,0-1.54,1.972,35.727,35.727,0,0,1,.248,4.315,34.134,34.134,0,0,1-1.713,10.73,1.747,1.747,0,0,0,.1,1.349,1.766,1.766,0,0,0,1.032.885,1.743,1.743,0,0,0,.446.084v0h.043l.015,0,.017,0h5.783a.865.865,0,0,1,.865.865,3.5,3.5,0,0,1-3.5,3.5H377.982a.866.866,0,0,1-.865-.865v-2.634a1.77,1.77,0,0,0-3.54,0v5.267a1.773,1.773,0,0,0,1.771,1.769H388.52a7.046,7.046,0,0,0,7.038-7.036v-.486a.868.868,0,0,1,.574-.814,7.04,7.04,0,0,0,4.7-6.6V149.2A7.025,7.025,0,0,0,396.052,142.575ZM350.38,145.7a.862.862,0,0,1,.863.9l-.009.218c-.024.553-.049,1.077-.049,1.626a38.041,38.041,0,0,0,.959,8.458.863.863,0,0,1-.842,1.056h-4.932a3.5,3.5,0,0,1-3.5-3.5V149.2a3.5,3.5,0,0,1,3.5-3.5Zm46.908,8.764a3.5,3.5,0,0,1-3.5,3.5h-4.941a.872.872,0,0,1-.677-.325.863.863,0,0,1-.165-.732,38,38,0,0,0,.966-8.458c0-.625-.026-1.246-.052-1.846a.862.862,0,0,1,.863-.9h4.007a3.5,3.5,0,0,1,3.5,3.5Z" transform="translate(-339.329 -115.832)"/></g></g></g></svg>