<svg xmlns="http://www.w3.org/2000/svg" viewBox="0 0 147.8 77.1"><defs><style>.cls-1{fill:#1165af;}.cls-2{fill:#fff;}.cls-3{isolation:isolate;}</style></defs><g id="Livello_2" data-name="Livello 2"><g id="Livello_1-2" data-name="Livello 1"><g id="Raggruppa_7735" data-name="Raggruppa 7735"><path id="Tracciato_210" data-name="Tracciato 210" class="cls-1" d="M20.3,29a.7.7,0,0,1-.4.8,2.2,2.2,0,0,1-1.4.3h-.6a3.8,3.8,0,0,1-4.1-3.6V20.5H12.6a1.9,1.9,0,0,1-1-.3,1.4,1.4,0,0,1,0-1.7h0a1.9,1.9,0,0,1,1-.3h1.2V16a1.5,1.5,0,0,1,.4-1,1.2,1.2,0,0,1,1.1-.4,1.2,1.2,0,0,1,1.1.4,1,1,0,0,1,.4,1v2.2h2.1a1.9,1.9,0,0,1,1,.3,1.4,1.4,0,0,1,0,1.7,1.9,1.9,0,0,1-1,.3h-2v5.4c0,1.2.5,1.8,1.6,1.9h.6C19.9,27.9,20.3,28.3,20.3,29Z"/><path id="Tracciato_211" data-name="Tracciato 211" class="cls-1" d="M32.6,18.3a1.5,1.5,0,0,1,.4,1.1v9.3a1.2,1.2,0,0,1-.4,1,1.8,1.8,0,0,1-2.1.1,1.4,1.4,0,0,1-.4-1v-.6a4,4,0,0,1-1.5,1.4,4.2,4.2,0,0,1-2.1.6c-2.9,0-4.4-1.7-4.4-4.9V19.4a1.5,1.5,0,0,1,.4-1,1.5,1.5,0,0,1,1.1-.4,1.2,1.2,0,0,1,1.1.4,1.2,1.2,0,0,1,.4,1v5.9a4.1,4.1,0,0,0,.5,1.9,2.3,2.3,0,0,0,1.6.6,2.8,2.8,0,0,0,2-.8,3.2,3.2,0,0,0,.8-2.2V19.4a1.2,1.2,0,0,1,.4-1,1.2,1.2,0,0,1,1.1-.4A1.4,1.4,0,0,1,32.6,18.3Z"/><path id="Tracciato_220" data-name="Tracciato 220" class="cls-1" d="M44.2,22.1c0-2.1-.1-4.4-2.2-4.4s-2,2.3-1.9,4.4a18,18,0,1,1-18-18h0c2.1,0,3.8,0,3.8-2.1s-1.7-2-3.8-2A22.1,22.1,0,1,0,44.2,22.1Z"/><circle id="Ellisse_70" data-name="Ellisse 70" class="cls-1" cx="40.2" cy="11.8" r="3.8"/><circle id="Ellisse_71" data-name="Ellisse 71" class="cls-1" cx="31.4" cy="11.8" r="2.7"/><path id="Tracciato_221" data-name="Tracciato 221" class="cls-1" d="M29.7,5.3a1.7,1.7,0,0,0,1.7,1.6,1.6,1.6,0,1,0,0-3.2h0a1.7,1.7,0,0,0-1.7,1.6Z"/></g><path id="Tracciato_59942" data-name="Tracciato 59942" class="cls-1" d="M50.6,17.4V40.3h97.2V28s0-10.6-10.6-10.6Z"/><path id="Tracciato_59944" data-name="Tracciato 59944" class="cls-2" d="M138.5,33.2h.5c.1-.1.3-.2.3-.3s.2-.3.2-.5a2.7,2.7,0,0,0,0-.9,6.1,6.1,0,0,0-.5-3,6.8,6.8,0,0,0-1.4-2.3,7.4,7.4,0,0,0-2.2-1.4,9.1,9.1,0,0,0-6.1.1,7.2,7.2,0,0,0-4,4.2,7.3,7.3,0,0,0-.5,3,7.4,7.4,0,0,0,.6,3.6,9.5,9.5,0,0,0,1.7,2.7,6.4,6.4,0,0,0,2.5,1.5,8.5,8.5,0,0,0,3.1.6h1.7l1.8-.4,1.7-.8a10.7,10.7,0,0,0,1.6-1.4l-1.4-1.7a1.2,1.2,0,0,0-.8-.4l-.9.2-.8.5-1.1.4-1.4.2a3.8,3.8,0,0,1-2.5-.9,5,5,0,0,1-1.2-2.8Zm-9-2.7a4.4,4.4,0,0,1,1-2.2,2.7,2.7,0,0,1,2.1-.7,2,2,0,0,1,1.3.2,2.7,2.7,0,0,1,.8.7,4.1,4.1,0,0,1,.5.9,4.5,4.5,0,0,1,.1,1.1Zm-7.4,9.6a5.4,5.4,0,0,0,2-1l-1.4-2.2-.3-.3h-.6l-.2.2h-.7a.8.8,0,0,1-.8-.3,1.6,1.6,0,0,1-.3-.9V27.8h3.9V24.6h-3.9V20h-2.4a1,1,0,0,0-1,.7l-1,3.9-2.5.4v1.9a.9.9,0,0,0,.8.9h1.4v8.1a6.3,6.3,0,0,0,.3,1.9,4.1,4.1,0,0,0,2.4,2.4,6.3,6.3,0,0,0,1.9.3,6.7,6.7,0,0,0,2.4-.4M106.3,24.6V35.7a5.1,5.1,0,0,1-1.3.9,4,4,0,0,1-1.5.3,1.5,1.5,0,0,1-1.5-.6,2.8,2.8,0,0,1-.6-1.8V24.6H96.7v9.9a10,10,0,0,0,.4,2.4,6.9,6.9,0,0,0,1,1.9A4.1,4.1,0,0,0,99.8,40a5.9,5.9,0,0,0,2.3.5l1.4-.2a2.8,2.8,0,0,0,1.2-.4,2.7,2.7,0,0,0,1-.6l.9-.7.3.9a.9.9,0,0,0,1.1.7h3V24.6ZM89,40.2h4.7V17.6H89Zm-15.1-12,.5.6a1.2,1.2,0,0,0,.8.2,1.6,1.6,0,0,0,1-.2l.8-.4.9-.4a3.3,3.3,0,0,1,1.4-.1,1.7,1.7,0,0,1,1.6.6,3.2,3.2,0,0,1,.6,2v.6a17.4,17.4,0,0,0-4.5.6,7.7,7.7,0,0,0-2.8,1.2,4.6,4.6,0,0,0-1.5,1.6,4.7,4.7,0,0,0-.4,1.7,5.7,5.7,0,0,0,.3,1.8,3.7,3.7,0,0,0,2.5,2.2,6.3,6.3,0,0,0,1.9.3h1.5l1.2-.4a4.1,4.1,0,0,0,1.1-.7,4.7,4.7,0,0,0,1.2-.9l.3.9a1.6,1.6,0,0,0,.6.8,1.6,1.6,0,0,0,1,.1H86V30.4A6.4,6.4,0,0,0,84.4,26a5.6,5.6,0,0,0-4.5-1.7,11.5,11.5,0,0,0-3.7.6A9.2,9.2,0,0,0,73,26.7ZM81.5,36a4.9,4.9,0,0,1-1.4,1.1,4.1,4.1,0,0,1-1.6.3,3.1,3.1,0,0,1-1.3-.3,1.3,1.3,0,0,1-.4-1.2,1.9,1.9,0,0,1,.2-.7,1.3,1.3,0,0,1,.7-.6,4.4,4.4,0,0,1,1.5-.5l2.3-.2ZM70.9,26.3l-1-.8-1.2-.6-1.5-.4-1.7-.2a8.4,8.4,0,0,0-2.7.4,5.9,5.9,0,0,0-1.9,1.1,4.8,4.8,0,0,0-1.2,1.6,5.8,5.8,0,0,0-.4,1.9,5.7,5.7,0,0,0,.3,1.8,3.8,3.8,0,0,0,.9,1.3l1.1.9,1.4.5,1.3.5,1.2.4.8.5a.8.8,0,0,1,.3.8,1.1,1.1,0,0,1-.4.9c-.2.1-.4.3-.6.3h-.9a2.7,2.7,0,0,1-1.3-.2l-.9-.3-.7-.4a1,1,0,0,0-.7-.2.8.8,0,0,0-.7.2,1,1,0,0,0-.5.4l-1.1,1.8,1.1.7a3.5,3.5,0,0,0,1.4.6l1.5.4,1.6.2a9.2,9.2,0,0,0,2.9-.4,5.6,5.6,0,0,0,2-1.1,5.2,5.2,0,0,0,1.3-1.7,5.4,5.4,0,0,0,.4-2.2,4.5,4.5,0,0,0-.3-1.6,4.4,4.4,0,0,0-.8-1.1,3.2,3.2,0,0,0-1.2-.8,3.1,3.1,0,0,0-1.3-.6l-1.3-.5-1.2-.4-.8-.5a.9.9,0,0,1-.3-.7,1,1,0,0,1,.4-.9,2.5,2.5,0,0,1,1.4-.4l1.1.2a1.6,1.6,0,0,1,.9.3l.7.3h1.2l.4-.4Z"/><path id="Tracciato_59943" data-name="Tracciato 59943" class="cls-1" d="M146.7,58.9h.5c.2,0,.3-.1.3-.2a1.4,1.4,0,0,0,.2-.6c0-.3.1-.5.1-.8a8.1,8.1,0,0,0-.6-3.1,6,6,0,0,0-3.6-3.6,9.1,9.1,0,0,0-6.1.1,7.5,7.5,0,0,0-4,4.2,9.3,9.3,0,0,0-.5,2.9,11.5,11.5,0,0,0,.6,3.7,9,9,0,0,0,1.7,2.6,8.7,8.7,0,0,0,2.6,1.6,9.9,9.9,0,0,0,3,.5h1.7l1.8-.4,1.7-.8a7,7,0,0,0,1.6-1.4l-1.4-1.6a.9.9,0,0,0-.8-.4,1.5,1.5,0,0,0-.9.2l-.8.4-1,.4a3.6,3.6,0,0,1-1.4.2,3.2,3.2,0,0,1-2.5-.8,4,4,0,0,1-1.2-2.9Zm-9-2.7a4.4,4.4,0,0,1,1-2.2,3.2,3.2,0,0,1,2.1-.8,2.9,2.9,0,0,1,2.2,1,2.5,2.5,0,0,1,.4.9,4.3,4.3,0,0,1,.2,1.1Zm-7.4,9.6a6.8,6.8,0,0,0,2.1-1L131,62.6l-.3-.4h-1.6a.9.9,0,0,1-.8-.4,2,2,0,0,1-.2-.9V53.5h3.8V50.3h-3.8V45.7h-2.5a1,1,0,0,0-1,.7l-.9,3.8-2.5.5v1.9a.9.9,0,0,0,.8.9h1.4v8.1a5.7,5.7,0,0,0,.3,1.8,3.9,3.9,0,0,0,2.3,2.4,6.4,6.4,0,0,0,2,.3,8.5,8.5,0,0,0,2.3-.3M109.5,51a1.1,1.1,0,0,0-1.2-.7h-2.9V65.9h4.7V54.7l1.3-.9a3.2,3.2,0,0,1,1.4-.3,2,2,0,0,1,1.6.7,2.2,2.2,0,0,1,.5,1.7v10h4.7v-10a5.9,5.9,0,0,0-.4-2.3,4.4,4.4,0,0,0-1-1.9,4.5,4.5,0,0,0-1.7-1.3,5.4,5.4,0,0,0-2.2-.4h-1.4l-1.2.4-1,.7-1,.7ZM92.7,61.5a7.6,7.6,0,0,1,0-6.9,2.5,2.5,0,0,1,2.4-1.1,2.6,2.6,0,0,1,2.4,1.1,8.3,8.3,0,0,1,0,6.9,3,3,0,0,1-2.4,1.2,2.7,2.7,0,0,1-2.4-1.2m-.9-10.9a6.7,6.7,0,0,0-2.5,1.6,6,6,0,0,0-1.6,2.5,9.6,9.6,0,0,0-.6,3.3,9.7,9.7,0,0,0,.6,3.4,6,6,0,0,0,1.6,2.5,7,7,0,0,0,2.5,1.7,11.1,11.1,0,0,0,6.6,0,7.9,7.9,0,0,0,2.5-1.7,7.2,7.2,0,0,0,1.6-2.5,9.7,9.7,0,0,0,.6-3.4,9.6,9.6,0,0,0-.6-3.3,7.2,7.2,0,0,0-1.6-2.5,7.6,7.6,0,0,0-2.5-1.6,9.4,9.4,0,0,0-6.6,0M66.9,65.9V54.6l1.1-.8a2.4,2.4,0,0,1,1.2-.3,2.2,2.2,0,0,1,1.5.6,3,3,0,0,1,.6,1.8v10h4.6v-10a2.6,2.6,0,0,1,.7-1.8,2,2,0,0,1,1.5-.6q2.1,0,2.1,2.4v10h4.7v-10a7.7,7.7,0,0,0-.4-2.5,5.2,5.2,0,0,0-1-1.8,5.7,5.7,0,0,0-1.8-1.2,6.1,6.1,0,0,0-2.4-.4l-1.4.2-1.4.4a3.4,3.4,0,0,0-1.2.9,4,4,0,0,0-1,1.2,4.1,4.1,0,0,0-1.4-2,3.9,3.9,0,0,0-2.3-.7,5.9,5.9,0,0,0-2.3.5l-.9.6a6,6,0,0,0-.8.8l-.3-.9a1.1,1.1,0,0,0-1.1-.8H62.3V65.9Zm-8.1-7h.6l.3-.2c.1-.2.1-.4.2-.6v-.8a10.6,10.6,0,0,0-.5-3.1,5.4,5.4,0,0,0-1.5-2.2,5.5,5.5,0,0,0-2.2-1.4,8.8,8.8,0,0,0-6,.1,7.2,7.2,0,0,0-4,4.2,7.1,7.1,0,0,0-.5,2.9,7.8,7.8,0,0,0,.6,3.7A7.3,7.3,0,0,0,47.5,64,8.2,8.2,0,0,0,50,65.6a10.6,10.6,0,0,0,3.1.5h1.7l1.7-.4,1.8-.8a6.6,6.6,0,0,0,1.5-1.4l-1.3-1.6a.9.9,0,0,0-.9-.4,1.2,1.2,0,0,0-.8.2L56,62l-1.1.4a3.2,3.2,0,0,1-1.4.2,3.3,3.3,0,0,1-2.5-.8,5,5,0,0,1-1.2-2.9Zm-8.9-2.7a3.7,3.7,0,0,1,1-2.2,3,3,0,0,1,2.1-.8l1.3.3a1.8,1.8,0,0,1,.8.7,2.6,2.6,0,0,1,.5.9,4.1,4.1,0,0,1,.1,1.1ZM43,44.9l-.6-.9-1-.6-1.1-.2-1,.2-.9.6a2.4,2.4,0,0,0-.6.9,2,2,0,0,0-.2,1.1,1.8,1.8,0,0,0,.2,1,2.4,2.4,0,0,0,.6.9l.9.6,1,.2,1.1-.2,1-.6L43,47a3.6,3.6,0,0,0,.2-1,3.6,3.6,0,0,0-.2-1.1m-5,21h4.7V50.3H38ZM24.6,51a.9.9,0,0,0-1.1-.7H20.6V70.9h4.7V64.8a4,4,0,0,0,1.5,1,4.4,4.4,0,0,0,2,.3,6.7,6.7,0,0,0,2.8-.6,6.8,6.8,0,0,0,2.1-1.7A9.1,9.1,0,0,0,35,61.2a9.5,9.5,0,0,0,.5-3.3,12.4,12.4,0,0,0-.4-3.3,7.2,7.2,0,0,0-1.2-2.5,5.5,5.5,0,0,0-1.8-1.6,3.6,3.6,0,0,0-2.2-.5,4.5,4.5,0,0,0-2.8.6A6.5,6.5,0,0,0,25,52.2Zm.7,4a6.3,6.3,0,0,1,1.2-1.1,3.5,3.5,0,0,1,1.7-.4,1.7,1.7,0,0,1,1,.3,1.4,1.4,0,0,1,.8.7,3.4,3.4,0,0,1,.5,1.4,12.3,12.3,0,0,1,.2,2,15,15,0,0,1-.2,2.2,3.5,3.5,0,0,1-.7,1.5,1.8,1.8,0,0,1-.9.8,2.7,2.7,0,0,1-1.2.3l-1.3-.2a3.1,3.1,0,0,1-1.1-.9Z"/><g id="Assessorato_salute" data-name="Assessorato salute" class="cls-3"><g class="cls-3"><path class="cls-1" d="M45.8,77H44.7c-.1,0-.1-.1-.1-.2l-.5-1.1H41.7l-.4,1.1c-.1.1-.1.2-.2.2h-1l2.3-5.9h1.1Zm-1.9-2.2-.8-2a.5.5,0,0,0-.1-.3.8.8,0,0,0-.1-.4c0,.2-.1.3-.1.4a.4.4,0,0,1-.1.3l-.7,2Z"/><path class="cls-1" d="M49.5,72.2h-.1a.1.1,0,0,1-.1.1h-.5l-.3-.2h-.8l-.3.2c-.1,0-.1.1-.2.2v.3c0,.1,0,.3.1.3l.3.3.4.2h.5l.5.2.5.3.3.4c0,.2.1.4.1.7a1.9,1.9,0,0,1-.2.7l-.4.6a.9.9,0,0,1-.6.4l-.9.2h-1l-.5-.3-.4-.3.3-.5h.5l.3.2.4.2h.5a.9.9,0,0,0,.7-.3.6.6,0,0,0,.3-.6l-.2-.4c0-.1-.1-.1-.3-.2l-.4-.2h-.5l-.5-.2-.4-.3a.5.5,0,0,1-.3-.5,1.3,1.3,0,0,1-.1-.6,1.5,1.5,0,0,1,.1-.7l.4-.5a.9.9,0,0,1,.6-.4H49l.8.5Z"/><path class="cls-1" d="M53.9,72.2h-.1c0,.1,0,.1-.1.1h-.4L53,72h-.9l-.3.2a.3.3,0,0,0-.1.2.4.4,0,0,0-.1.3V73l.3.3.5.2H53l.5.2.4.3.3.4a1.5,1.5,0,0,1,.1.7,1.7,1.7,0,0,1-.1.7l-.4.6-.7.4-.8.2H51.2l-.5-.3-.3-.3.3-.5h.1a.1.1,0,0,1,.1-.1h.2l.3.2.4.2h.5a.8.8,0,0,0,.7-.3.8.8,0,0,0,.2-1l-.3-.2-.5-.2h-.5l-.4-.2-.5-.3-.3-.5a1.3,1.3,0,0,1-.1-.6,1.5,1.5,0,0,1,.1-.7l.4-.5.6-.4h1.8a1.8,1.8,0,0,1,.7.5Z"/><path class="cls-1" d="M56.4,72v1.6h2v.9h-2v1.6H59V77H55.3V71.1H59V72Z"/><path class="cls-1" d="M63,72.2h-.1c0,.1,0,.1-.1.1h-.4l-.3-.2h-.9l-.3.2a.3.3,0,0,0-.1.2.4.4,0,0,0-.1.3c0,.1,0,.3.1.3l.3.3.5.2h.5l.5.2.4.3.3.4a1.5,1.5,0,0,1,.1.7,1.7,1.7,0,0,1-.1.7l-.4.6-.7.4-.8.2H60.3l-.5-.3-.3-.3.3-.5h.1a.1.1,0,0,1,.1-.1h.2l.3.2.4.2h.5a.8.8,0,0,0,.7-.3.8.8,0,0,0,.2-1l-.3-.2-.5-.2H61l-.5-.2-.4-.3-.3-.5a1.3,1.3,0,0,1-.1-.6,1.5,1.5,0,0,1,.1-.7l.4-.5.6-.4h1.8a1.8,1.8,0,0,1,.7.5Z"/><path class="cls-1" d="M67.5,72.2h-.7l-.3-.2h-.8l-.3.2a.2.2,0,0,0-.2.2v.3c0,.1,0,.3.1.3l.3.3.4.2h.5l.5.2.4.3a.5.5,0,0,1,.3.4,1.4,1.4,0,0,1,.2.7,1.9,1.9,0,0,1-.2.7l-.4.6-.6.4-.9.2h-1l-.5-.3-.4-.3.3-.5h.5l.3.2.3.2h.6a.9.9,0,0,0,.7-.3.8.8,0,0,0,.2-.6.6.6,0,0,0-.1-.4l-.3-.2-.4-.2h-.5l-.5-.2-.4-.3a.5.5,0,0,1-.3-.5,1.4,1.4,0,0,1-.2-.6,1.4,1.4,0,0,1,.2-.7c0-.2.2-.3.3-.5l.6-.4H67l.8.5Z"/><path class="cls-1" d="M74.4,74.1a5,5,0,0,1-.2,1.2l-.6.9a2.1,2.1,0,0,1-1,.6,2.1,2.1,0,0,1-1.2.3,2.7,2.7,0,0,1-1.2-.3,1.5,1.5,0,0,1-.9-.6,2.4,2.4,0,0,1-.6-.9,2.5,2.5,0,0,1-.2-1.2,2.2,2.2,0,0,1,.2-1.2,2.1,2.1,0,0,1,.6-1l.9-.6,1.2-.2h.9a1.1,1.1,0,0,1,.7.3l.6.4.4.6.3.8A1.9,1.9,0,0,1,74.4,74.1Zm-1.1,0a2.4,2.4,0,0,0-.2-.9.9.9,0,0,0-.3-.6l-.6-.5H70.7a1,1,0,0,0-.6.5.9.9,0,0,0-.4.6,2.5,2.5,0,0,0-.1.9,1.9,1.9,0,0,0,.1.8,1.6,1.6,0,0,0,.4.7.9.9,0,0,0,.6.4h1.5l.6-.4a1.5,1.5,0,0,0,.3-.7A1.9,1.9,0,0,0,73.3,74.1Z"/><path class="cls-1" d="M79.9,77h-1l-.4-.2-1.2-1.9c0-.1-.1-.1-.2-.1h-.7V77H75.3V71.1h1.8l1.1.2.7.3.4.5c0,.3.1.5.1.7a1.3,1.3,0,0,1-.1.6,1.3,1.3,0,0,1-.3.5l-.4.3-.5.3h.2a.2.2,0,0,0,.2.2Zm-2.8-3.1h.6l.3-.3c.1-.1.2-.2.2-.3s.1-.2.1-.4a.9.9,0,0,0-.3-.7l-.9-.2h-.7v1.9Z"/><path class="cls-1" d="M85.6,77H84.5c-.1,0-.1-.1-.1-.2l-.5-1.1H81.5l-.4,1.1-.2.2h-1l2.3-5.9h1.1Zm-2-2.2-.7-2a.5.5,0,0,0-.1-.3c0-.1-.1-.2-.1-.4s-.1.3-.1.4a.4.4,0,0,1-.1.3l-.7,2Z"/><path class="cls-1" d="M89.7,72H87.9v5H86.8V72H85.1v-.9h4.6Z"/><path class="cls-1" d="M95.9,74.1a2.7,2.7,0,0,1-.3,1.2,2.4,2.4,0,0,1-.6.9,1.5,1.5,0,0,1-.9.6,2.7,2.7,0,0,1-1.2.3,2.1,2.1,0,0,1-1.2-.3,2.1,2.1,0,0,1-1-.6l-.6-.9a5,5,0,0,1-.2-1.2,3.7,3.7,0,0,1,.2-1.2l.6-1,1-.6,1.2-.2h.8a.9.9,0,0,1,.7.3.9.9,0,0,1,.6.4l.5.6.3.8C95.8,73.5,95.9,73.8,95.9,74.1Zm-1.2,0a2.5,2.5,0,0,0-.1-.9.9.9,0,0,0-.4-.6l-.5-.5H92.1l-.6.5a.9.9,0,0,0-.3.6,2.4,2.4,0,0,0-.2.9,1.9,1.9,0,0,0,.2.8,1.5,1.5,0,0,0,.3.7l.6.4h1.6a1,1,0,0,0,.5-.4,1.6,1.6,0,0,0,.4-.7A1.9,1.9,0,0,0,94.7,74.1Z"/><path class="cls-1" d="M103.5,77h-1l-.2-.2-.4-1.1H99.5L99,76.7c0,.1,0,.2-.1.2H97.8l2.3-5.9h1.1Zm-1.9-2.2-.7-2v-.3c-.1-.1-.1-.2-.1-.4a.8.8,0,0,0-.1.4c-.1.2-.1.3-.2.3l-.7,2Z"/><path class="cls-1" d="M107.6,76.1V77h-3.5V71.1h1.1v5Z"/><path class="cls-1" d="M111.8,76.1V77h-3.5V71.1h1.1v5Z"/><path class="cls-1" d="M117.6,77h-1.1c-.1,0-.1-.1-.1-.2l-.5-1.1h-2.4l-.4,1.1-.2.2h-1.1l2.4-5.9h1.1Zm-2-2.2-.7-2a.5.5,0,0,0-.1-.3c0-.1-.1-.2-.1-.4s-.1.3-.1.4a.4.4,0,0,1-.1.3l-.7,2Z"/><path class="cls-1" d="M123,72.2h-.7L122,72h-.8l-.3.2a.2.2,0,0,0-.2.2v.3c0,.1,0,.3.1.3l.3.3.4.2h.5l.5.2.4.3a.5.5,0,0,1,.3.4,1.4,1.4,0,0,1,.2.7,1.9,1.9,0,0,1-.2.7l-.4.6c-.1.2-.4.3-.6.4l-.9.2h-1l-.5-.3-.4-.3.3-.5h.5l.3.2.3.2h.6a.9.9,0,0,0,.7-.3.8.8,0,0,0,.2-.6.6.6,0,0,0-.1-.4l-.3-.2-.4-.2H121l-.5-.2-.4-.3a.5.5,0,0,1-.3-.5,1.4,1.4,0,0,1-.2-.6,1.4,1.4,0,0,1,.2-.7c0-.2.2-.3.3-.5l.6-.4h1.8l.8.5Z"/><path class="cls-1" d="M129.2,77h-1.1v-.2l-.4-1.1h-2.5l-.4,1.1v.2h-1.1l2.3-5.9h1.1Zm-1.9-2.2-.7-2c-.1,0-.1-.2-.1-.3l-.2-.4c0,.2,0,.3-.1.4s0,.3-.1.3l-.7,2Z"/><path class="cls-1" d="M134.7,71.1V77H134l-.2-.2-3.1-3.9a.9.9,0,0,1,.1.5V77h-1V71.1h.7a.1.1,0,0,0,.1.1h.1l3.1,3.9V71.1Z"/><path class="cls-1" d="M137.1,77H136V71.1h1.1Z"/><path class="cls-1" d="M142.5,72h-1.7v5h-1.1V72h-1.8v-.9h4.6Z"/><path class="cls-1" d="M147.8,77h-1.1l-.2-.2-.4-1.1h-2.4l-.5,1.1c0,.1,0,.2-.1.2H142l2.3-5.9h1.2Zm-3.6-7.5h.4l.9,1.1h-.9a.1.1,0,0,1-.1-.1l-1.3-1.1Zm1.6,5.3-.7-2v-.3c0-.1-.1-.2-.1-.4s-.1.3-.1.4v.3l-.7,2Z"/></g></g></g></g></svg>