<svg xmlns="http://www.w3.org/2000/svg" xmlns:xlink="http://www.w3.org/1999/xlink" width="1186.565" height="487.765" viewBox="0 0 1186.565 487.765"><defs><style>.a{fill:none;}.b{fill:#5f019a;}.c{fill:#a1cafd;}.d{fill:#549be6;}.e{clip-path:url(#a);}.f{clip-path:url(#b);}.g{fill:#eeedff;}.h{fill:#191791;}.i{fill:#dee5ff;}.j{fill:#f9bcaa;}.k{fill:#8d7fa2;}.ad,.l{fill:#fff;}.m{clip-path:url(#c);}.n{clip-path:url(#d);}.o{clip-path:url(#e);}.p{fill:#2b337c;}.q{fill:#fca78d;}.r{fill:#a0e2e2;}.s{fill:#dcdce2;}.t{fill:#3d4993;}.u{isolation:isolate;}.v{fill:#006da6;}.w{fill:#006366;}.x{fill:#003854;}.y{fill:#00191a;}.z{fill:#a1c3c9;}.aa{fill:#add8d4;}.ab{opacity:0.05;}.ac{fill:#00c9d1;}.ad{opacity:0.5;}</style><clipPath id="a"><rect class="a" width="140.047" height="273"/></clipPath><clipPath id="b"><rect class="b" width="140.047" height="273"/></clipPath><clipPath id="c"><rect class="c" width="214.57" height="320.132"/></clipPath><clipPath id="d"><rect class="d" width="214.634" height="155.878" transform="translate(0 0)"/></clipPath><clipPath id="e"><rect class="a" width="179.337" height="270.426"/></clipPath></defs><g transform="translate(-193.121 -1219.359)"><g transform="translate(748 1362)"><g class="e"><g class="f"><path class="g" d="M121.143,52.862,109.8,45.179a1.951,1.951,0,0,1-.548-2.351l9.76-22.3a1.291,1.291,0,0,1,1.9-.733l11.274,7.462a1.951,1.951,0,0,1,.548,2.351l-9.714,22.2c-.245.56-.52.641-1.071.8Z" transform="translate(7.14 1.282)"/><path class="g" d="M121.394,30.746S108.87,43.68,109.242,42.828l9.734-23.056,1.025-.15a1.133,1.133,0,0,1,.9.169l11.274,7.462a1.646,1.646,0,0,1,.66.993Z" transform="translate(7.15 1.282)"/><path class="h" d="M120.078,52.771l-11.24-7.458a1.938,1.938,0,0,1-.514-2.348l9.761-22.3a1.274,1.274,0,0,1,1.881-.734L131.2,27.383a1.938,1.938,0,0,1,.505,2.348l-9.761,22.3a1.259,1.259,0,0,1-1.865.736" transform="translate(7.079 1.291)"/><path class="i" d="M121.476,48.953l-11.068-7.325,8.547-19.673,11,7.281L121.292,48.4c-.072.167.336.648.184.548" transform="translate(7.227 1.437)"/><path class="j" d="M125.558,49.813h0a3.758,3.758,0,0,1-3.108-4.292l.606-3.788a3.747,3.747,0,0,1,7.4,1.184l-.606,3.788a3.758,3.758,0,0,1-4.292,3.108" transform="translate(8.012 2.525)"/><path class="h" d="M38.028,221.468l7.491-.94c5.013-2.273,7.356-3.978,9.589-2.689l.633.365c2.232,1.288,1.95,3.561-.629,5.05L44.1,232a7.267,7.267,0,0,1-8.109-.788s-1.232-1.112-.351-5.792c.5-2.669.327-2.766,2.389-3.956" transform="translate(2.312 14.23)"/><path class="h" d="M63.778,230.64l8.421,1.585c6.207-.713,9.332-1.742,11.3.426l.557.615c1.966,2.168.87,4.526-2.432,5.239l-14.942,5.63a8.251,8.251,0,0,1-8.491-3.668s-.945-1.63,1.633-6.382c1.47-2.711,1.314-2.875,3.956-3.445" transform="translate(3.798 15.097)"/><path class="j" d="M33.678,125.035l2.96,103.086c.183,6.556,7.758,4.234,8.614.224l1.885-95.584Z" transform="translate(2.204 8.184)"/><path class="j" d="M54.14,130.169l6.306,111.1c.291,6.949,7.579,4.577,8.338.341l1.812-103.6Z" transform="translate(3.544 8.521)"/><path class="b" d="M77.323,93.953l-7.3,134.395s-5.253,8.187-12.382,0l-5.252-111.18L49.614,93.953Z" transform="translate(3.248 6.15)"/><path class="b" d="M51.285,96.857,48.317,213.634s-8.217,7.846-15.083-1.963L31.282,93.313Z" transform="translate(2.048 6.108)"/><path class="j" d="M12.263,103.807h0a4.178,4.178,0,0,1-2.846,5.159l-4.1,1.183A4.177,4.177,0,0,1,.163,107.3h0a4.178,4.178,0,0,1,2.846-5.159l4.1-1.183a4.178,4.178,0,0,1,5.158,2.847" transform="translate(0 6.598)"/><path class="i" d="M29.8,54.612,6.692,104.034l7.39,5.551L50.811,58.7Z" transform="translate(0.438 3.575)"/><path class="j" d="M63.34,31.451c-2.386,8.315-8.788,7.98-14.028,2.553S41.979,20.11,44.363,11.8,52.93,1.14,58.171,6.569s7.554,16.568,5.169,24.883" transform="translate(2.84 0.238)"/><path class="j" d="M71.73,28.962c-2.386,8.315-11.3,11.323-16.539,5.9S47.637,18.288,50.023,9.973s12.36-11.325,17.6-5.9,6.493,16.57,4.107,24.886" transform="translate(3.213 0.088)"/><path class="j" d="M50.281,53.25l-.728-.224c-2.457-.756-2.427-4.129-1.434-7.356l4.371-18.087c.992-3.227,3.815-5.251,6.273-4.494l.728.224c2.457.756,3.656,4.016,2.663,7.243L58.731,48.647c-.993,3.227-5.992,5.358-8.45,4.6" transform="translate(3.108 1.501)"/><path class="h" d="M44.01,27.36s.514,4.567,9.195,5.467c8.273.858,7.324-11.732,15.306-13.034,8.78-1.432,9.4-10.923,5.937-15.087S61.318-1.633,54.313,1.455,39.6,6.782,44.01,27.36" transform="translate(2.796 0)"/><path class="j" d="M66.5,24.382a3.809,3.809,0,1,1-2.61-4.71,3.808,3.808,0,0,1,2.61,4.71" transform="translate(3.864 1.278)"/><path class="i" d="M31.011,59.877l-2.273,44.23s-2.884,8.312,20.636,14.551c19.324,5.126,30.307-3.6,31.427-5.782L79.619,69.871,96.612,80.264A55.876,55.876,0,0,0,69.985,44.631c-4.1-2.316-10.175-5.093-15.138-7.256-7.372-3.214-10.725-2.055-17.53,2.231-3.629,2.285-6.305,20.271-6.305,20.271" transform="translate(1.874 2.326)"/><path class="i" d="M65.289,61.427l20.723,22.6a15.77,15.77,0,0,0,25.045-2.378l20.11-32.6-7.813-4.629-20.43,23.7a6.175,6.175,0,0,1-9.328.037c-6.041-6.917-16.241-18.085-19.661-18.73-4.974-.937-8.646,11.994-8.646,11.994" transform="translate(4.274 2.908)"/><path class="k" d="M56.327,13.275c-.595,5.157-4.674,8.921-9.113,8.411s-7.555-5.107-6.96-10.264S44.929,2.5,49.366,3.012s7.555,5.107,6.961,10.264" transform="translate(2.63 0.194)"/><path class="h" d="M50.059,9.422c.932-4.905-5.651-7.575-8.624-3.563A19.469,19.469,0,0,0,38.882,11c-4.9,13.982-28.843,9.115-19.894,35.743,0,0-12.7,15.33,6.551,24.626,3.089,1.491,6.915.243,10.712-2.172,9.59-6.1,13.826-17.732,11.515-28.859-.812-3.9-.87-8.054.975-11.4,2.339-4.239,3.3-9.2,1.762-13.8a11.18,11.18,0,0,1-.444-5.723" transform="translate(0.974 0.256)"/><path class="l" d="M60.3,40.388s-6.968-5.463-12.2-4.572c0,0,.31,7,12.2,4.572" transform="translate(3.148 2.338)"/></g></g></g><g transform="translate(983 1219.359)"><g class="m"><path class="c" d="M119.721,84.287s6.3-5.457,13.207-6.63,13.938,2.722,13.938,2.722-9.617-3.067-15.6.282a29.163,29.163,0,0,1-11.542,3.626" transform="translate(67.703 43.791)"/><path class="c" d="M131.1,100.126c11.575,2.182,22.149,10.663,26.059,21.878a45.206,45.206,0,0,0-28.766-15.029c-10.577-1.23-22.013,1.774-32.545,2.769,3.605-4.044,10.539-6.353,15.564-7.981a39.32,39.32,0,0,1,19.688-1.638" transform="translate(54.203 56.277)"/><path class="c" d="M131.864,94.754c10.411,2.4,19.771,9.916,23.473,20.057a38.793,38.793,0,0,0-25.657-13.545c-9.993-1.105-19.677,2.362-29.582,2.932,9.011-6.594,20.417-11.552,31.766-9.445" transform="translate(56.606 53.306)"/><path class="c" d="M132.421,89.349c9.761,1.663,16.864,9.726,20.931,18.274-5.993-7.024-14.677-12.028-24-12.576-8.128-.477-16.809,2.073-24.718,3.738C112,92.154,122.41,87.7,132.421,89.349" transform="translate(59.172 50.333)"/><path class="c" d="M133.056,84.168c9.027,2.254,13.543,7.892,17.39,15.976-4.21-5.889-11.43-9.808-18.564-10.736-7.491-.974-15.522,2.176-22.875,3.316,6.295-5.838,15.292-10.329,24.049-8.555" transform="translate(61.644 47.376)"/><path class="c" d="M133.412,79.384a21.668,21.668,0,0,1,14.152,13.1c-8.333-10.431-22.67-10.609-34.22-6.008,5.143-5.161,12.652-9.022,20.068-7.087" transform="translate(64.097 44.605)"/><path class="c" d="M133.682,74.4a21.345,21.345,0,0,1,10.537,11.411c-5.783-8.6-17.376-8.883-26.217-5.471,4.335-3.789,9.587-7.575,15.68-5.94" transform="translate(66.731 41.851)"/><path class="c" d="M115.762,84.2c3.378-2.646,15.7-6.012,14.529-11.846-.941-4.682-11.575-2.769-14.888-2.381,2.519.25,9.092-1.226,9.191,2.48.049,1.9-9.393,11.176-8.833,11.748" transform="translate(65.261 39.166)"/><path class="c" d="M113.527,91.8c2.427-5.166,11.106-10.829,9.463-17.244-1.908-7.452-13.809-4.444-18.893-3.612,5.113-.484,11.447-1.152,12.825,5.282.521,2.437-4.794,14.534-3.4,15.574" transform="translate(58.868 39.379)"/><path class="c" d="M112.233,99.959c1.32-6.7,5.539-14.252,3.538-21.2-3.043-10.57-14.171-7.654-21.95-5.451,7.089-3.082,13.29,1.245,16.159,7.66a22.493,22.493,0,0,1,2.3,9.811c-.05,1.266-1.722,8.49-.052,9.182" transform="translate(53.056 40.26)"/><path class="c" d="M111.014,107.329c-1.205-9.686,2.747-20.643-4.518-29.032-5.232-6.043-15.9-6.109-20.8.415,8.108-4.9,14.954,1.124,18.788,8.358a47.688,47.688,0,0,1,3.6,9.986c.324,1.218,1.406,9.856,2.932,10.273" transform="translate(48.46 41.729)"/><path class="c" d="M111.2,113.915c-3.569-9.293-3.363-20.056-9.127-28.483C99.7,81.963,96.086,77.974,91.6,77.738c-4.85-.257-9.118,3.439-12.745,6.171,9.368-4.344,17.484.958,22.183,9.168,2.02,3.527,3.432,7.356,5.144,11.032.622,1.335,3.654,9.62,5.017,9.806" transform="translate(44.595 43.954)"/><path class="c" d="M110.326,116.974c-3.846-1.785-4.96-8.887-6.093-12.5-1.376-4.379-2.647-8.894-4.981-12.883-2.254-3.85-5.39-6.905-9.723-8.249-6.187-1.921-12.2,2.394-17.5,5.075,7.505-1.824,18.856-2.032,23.553,5.233,3.292,5.093,6.976,23.171,14.749,23.318" transform="translate(40.73 46.863)"/><path class="c" d="M144.535,78.014c-7.471,6-12.573,14.263-18.127,21.93-6.268,8.654-11.256,17.9-16.169,27.365-6.486,12.5-11.081,25.972-15.574,39.289C85.65,193.309,78.195,268.99,76.529,275.307c-1.526-.412-4.217.207-5.742-.205,5.028-17.288,9.86-105.421,34.27-144.783,5.919-9.546,11.145-19.683,17.754-28.74,6.207-8.505,12.684-17.817,21.723-23.566" transform="translate(40.03 44.117)"/><path class="c" d="M96.857,44.192c9.91,1.284,17.681,8.689,23.9,15.942C102.46,51.817,88,49.651,68.717,55.341c-.484-.416,10.259-7.6,10.929-7.95a27.844,27.844,0,0,1,17.211-3.2" transform="translate(38.851 24.834)"/><path class="c" d="M98.9,37.558c9.592,1.252,14.985,10.3,18.086,18.567-13.288-15.632-31.074-12.836-47.14-4-.8-.658,9.847-10.417,10.544-10.871A25.1,25.1,0,0,1,98.9,37.558" transform="translate(39.474 20.977)"/><path class="c" d="M102.623,29.819c9.672,2.921,13.665,16.937,14.575,25.558-.756-11.334-11.666-17.468-21.962-18.069-10.849-.632-17.545,4.981-25.7,10.976-1.39-.784,11.417-13.041,13.631-14.249,5.03-2.746,13.67-6.4,19.456-4.216" transform="translate(39.263 16.486)"/><path class="c" d="M100.212,22.765C106.9,25.68,112.231,34.957,113.942,41.8c-9.108-17.2-29.973-13.338-42.463-2.1,4.927-7.616,18.161-22.224,28.733-16.94" transform="translate(40.422 12.237)"/><path class="c" d="M96.857,14.812c8.919,5.957,13,16.909,15.614,26.847-2.666-7.114-6.462-16.089-14.326-18.731-9.661-3.248-17.9,4.5-24.993,9.819,4.706-6.116,13.466-24.088,23.7-17.934" transform="translate(41.368 7.661)"/><path class="c" d="M91.615,9.728c6.689.524,11.023,6.159,14.811,11.029-8.341-9.9-23.376-8.5-30.93,1.573,3.522-5.872,8.269-12.937,16.118-12.6" transform="translate(42.694 5.495)"/><path class="c" d="M75.819,21.786c.05-16.868,18.8-21.807,30.6-12.84-.141.186-5.694-2.484-6.854-2.718A16.8,16.8,0,0,0,89.007,7.366c-6.364,2.749-10.025,8.577-13.188,14.42" transform="translate(42.876 2.567)"/><path class="c" d="M81.633,32.939c.229-17.565.789-30.612-20.871-27,12.533,0,19.8,15.652,20.871,27" transform="translate(34.361 3.016)"/><path class="c" d="M80.5,40.756C79.079,23.782,73.877,3.447,52.055,11.381,65.371,16.014,75.833,27.661,80.5,40.756" transform="translate(29.437 5.435)"/><path class="c" d="M81.528,48.66C78.293,40.1,78.384,30.143,71.34,23.5c-7.61-7.179-14.783-5.567-22.968-.454C66.5,24,72.99,35.343,81.528,48.66" transform="translate(27.355 10.548)"/><path class="c" d="M84.4,54.474c-2.145-1.162-3.64-7.278-4.866-9.349a41.875,41.875,0,0,0-9.179-11.134c-7.874-6.541-18.465-8.632-27.343-2.51C61.05,30.86,72.354,43.153,84.4,54.474" transform="translate(24.325 15.74)"/><path class="c" d="M83.652,60.59C69.959,57.764,59.171,20.643,41.34,40.258,52.873,34.649,55.967,44,62.5,50.188c5.118,4.852,12.12,13.2,21.156,10.4" transform="translate(23.378 19.545)"/><path class="c" d="M76.3,24.116c-2.577-10.742-3.278-29.771,13.683-22.5C81.935,0,78.851,18.446,76.3,24.116" transform="translate(42.363 0)"/><path class="c" d="M85.613,7.26C75.557,37.008,70.23,64.307,71.222,95.755c.74,23.537,1.137,47.084,1.57,70.628.9,48.792,1.1,97.689,3.641,146.431-6.646-.759-5-3.748-5.147-9.7q-.195-7.669-.373-15.342-.425-18.293-.8-36.586-.871-42.626-1.476-85.257C67.918,113.054,61.837,56.206,85.613,7.26" transform="translate(38.126 4.106)"/><path class="c" d="M100.2,291.341C90.116,224.812,81.15,157.168,64.918,91.816c-1.384-5.573-2.639-11.461-5.072-16.695C54.4,63.41,36.707,46.4,22.771,48.219,42.063,45.7,57.563,71.582,61.156,87.914c3.671,16.688,6.578,33.563,9.582,50.381,7.527,42.132,14.587,84.351,21.559,126.58.706,4.277,1.288,28.542,7.9,26.466" transform="translate(12.877 27.171)"/><path class="c" d="M36.4,48.175c-15.1-.849-30.008,8-33.436,22.939C11.1,57.344,22.846,54.789,36.4,48.175" transform="translate(1.676 27.212)"/><path class="c" d="M38.234,48.917c-15.572-1.277-28.073,11.1-30.339,25.8,7.173-13.9,17.446-18.532,30.339-25.8" transform="translate(4.465 27.611)"/><path class="c" d="M40.046,50.318c-15.8-2.7-25.767,14.241-27.32,27.709,3.114-6.542,6.952-13,12.236-18.038,4.534-4.322,10.231-6.027,15.084-9.672" transform="translate(7.197 28.294)"/><path class="c" d="M41.694,51.959C26.011,50.751,17.748,68.372,17.748,81.69a49.239,49.239,0,0,1,10.484-18.28c4.011-4.382,9.766-6.927,13.462-11.45" transform="translate(10.037 29.35)"/><path class="c" d="M43.458,53.79c-13.612,2.245-21.809,18.14-20.68,30.98,3.015-13.731,15.245-19.193,20.68-30.98" transform="translate(12.822 30.419)"/><path class="c" d="M45.441,55.462a31.1,31.1,0,0,0-17.57,32.669c1.756-13.205,14.807-20.225,17.57-32.669" transform="translate(15.564 31.364)"/><path class="c" d="M38.895,58.182c7.14-6.127,14.057-7.262,22.1-1.861-8.258-1.962-14.122-.528-22.1,1.861" transform="translate(21.995 29.89)"/><path class="c" d="M59.98,51.557c-9.135-.424-16.042,1.29-24.149,5.343,6.282-8.375,15.093-9.11,24.149-5.343" transform="translate(20.263 27.927)"/><path class="c" d="M57.5,46.26c-8.477,1.509-17.416,3.046-24.351,8.595,5.3-9.28,14.742-10.285,24.351-8.595" transform="translate(18.748 25.778)"/><path class="c" d="M51.042,45.432c-6.6,1.7-16.372,1.068-20.9,7.111,5.26-9.2,11.931-7.536,20.9-7.111" transform="translate(17.043 25.47)"/><path class="c" d="M35.757,50.693C25.91,46.76,20.324,45.038,9.749,44.673c10.442-1.331,18.445-2.47,26.008,6.019" transform="translate(5.513 24.741)"/><path class="c" d="M35.381,49.033c-7.431-1.445-13.274-4.124-20.909-2.387C9.442,47.788,4.558,50.542,0,52.9c11.251-4.764,23.3-4.211,35.382-3.865" transform="translate(-0.001 26.058)"/><path class="c" d="M30.442,52.335c-2.276-2.852-3.861-6.533-7-8.627,5.993-3,6.6,4.961,7,8.627" transform="translate(13.256 24.343)"/><path class="c" d="M28.86,51.969c-1.237-6.613,4.783-11.046,10.481-6.487-3.612-3.612-8.48,4.263-10.481,6.487" transform="translate(16.228 24.666)"/><path class="c" d="M72.858,243.414c.2.255.424-4,3.239-29.659C78.071,187.939,87,160.438,93.922,149.987c12.242-19.434,32.473-13.412,32.276-13.607.266.263-19.1-6.492-31.95,16.4-3.519,5.957-12.734,32.043-14.979,58.157-3.219,25.862-3.84,32.033-3.911,31.783Z" transform="translate(41.202 76.708)"/><path class="c" d="M105.6,136.128c.022-.055,9.562.9,14.518,6.035,4.878,5.107,4.3,15.134,4.369,15.148-.146.094-3.208-13.182-9.189-15.282a22.7,22.7,0,0,1-9.7-5.9" transform="translate(59.72 76.98)"/><path class="c" d="M103.293,136.146c.02-.036,8.593,1.738,12.818,6.954,4.711,5.883,3.444,16.026,3.51,16.056-.122.058-2.35-12.443-8.159-15.884a24.817,24.817,0,0,1-8.169-7.126" transform="translate(58.413 76.991)"/><path class="c" d="M100.936,136.325c.017-.02,7.572,2.707,11.128,7.953,4.532,6.769,2.628,16.986,2.685,17.034-.092.022-1.484-11.553-7.159-16.547a25.847,25.847,0,0,1-6.653-8.44" transform="translate(57.08 77.092)"/><path class="c" d="M98.563,136.568c.009,0,6.5,3.8,9.445,9.042,4.308,7.779,1.843,18.025,1.888,18.091-.059-.014-.676-10.519-6.181-17.286a25.566,25.566,0,0,1-5.152-9.847" transform="translate(55.738 77.23)"/><path class="c" d="M96.162,136.834c0,.009,5.371,5,7.771,10.231,4.014,8.914,1.085,19.146,1.118,19.226a38.853,38.853,0,0,0-5.223-18.1,25.246,25.246,0,0,1-3.666-11.355" transform="translate(54.38 77.38)"/><path class="c" d="M93.778,137.125a68.263,68.263,0,0,1,6.109,11.514c3.618,10.18.362,20.352.377,20.444.017-.07.665-8.163-4.288-19a25.558,25.558,0,0,1-2.2-12.961" transform="translate(52.965 77.545)"/><path class="c" d="M98.976,140.9c-.049.044-2.989-8.289-7.121-8.424a16.514,16.514,0,0,0-7.784,2.023c0-.02,6.586-.3,9.169,1.556a68.918,68.918,0,0,1,5.736,4.845" transform="translate(47.543 74.915)"/><path class="c" d="M86.574,130.1c0-.008,6.957,1.738,9.5,4.028,2.264,2.074,5.315,6.923,5.329,6.907-.067.047-2.5-9.7-6.17-10.894a18.957,18.957,0,0,0-8.657-.041" transform="translate(48.958 73.291)"/><path class="c" d="M89.885,125.937c0,.009,6.752,4.238,9.2,7.059,1.911,2.311,4.329,9.1,4.358,9.081-.089.044-1.509-11.253-4.546-13.368-3.471-2.265-9-2.785-9.009-2.773" transform="translate(50.83 71.218)"/><path class="c" d="M93.712,126.542c-.008.013,5.689,4.318,7.942,6.644,1.569,1.713,3.5,8.31,3.526,8.289-.072.036-1.36-10.022-3.6-11.826-2.708-2.037-7.86-3.115-7.864-3.108" transform="translate(52.995 71.56)"/><path class="c" d="M104.119,137.968c0-.045,7.9-3.248,11.453-4.255,2.3-.7,8.914,1.872,8.914,1.868-.009.025-8.584-4.723-11.413-3.684-3.508,1.257-8.97,6.041-8.955,6.071" transform="translate(58.88 74.504)"/><path class="c" d="M106.914,136.964c0-.05,8.407-2.578,12.5-2.162,3.059.38,11.488,9.935,11.558,9.83-.031.053-6.874-6.43-9.5-6.6-4.5-.225-14.547-1.1-14.553-1.071" transform="translate(60.46 76.205)"/><path class="c" d="M102.817,139.256c-.044-.064,6.512-7.525,7.4-7.366.849.1-2.387-2.009-3.4-1.462-1.074.529-4.055,8.812-4,8.828" transform="translate(58.143 73.706)"/><path class="c" d="M103.995,139.763c-.056-.013,2.492-8.61.825-9.816-1.73-1.212-5.786-1.44-5.788-1.434s2.538-.265,2.7.977c.092,1.284,2.206,10.314,2.264,10.273" transform="translate(56.003 72.661)"/><path class="c" d="M94.387,234.148c.567-1.093-2.315-7.73-2.625-8.811-3.475-12.054-6.641-24.207-11.627-35.751-4.037-9.348-8.781-18.941-15.5-26.686-6.243-7.2-19.42-17.994-29.5-12.958,10.8-3.98,22.85,6.934,29.093,14.639,6.137,7.574,10.365,17.34,14.066,26.254,4.573,11.016,7.666,22.593,11.156,33.982,1.046,3.413,1.036,8.963,4.93,9.33" transform="translate(19.873 84.061)"/><path class="c" d="M40.2,149.244c-9.243,5.957-11.29,16.178-11.29,26.183a71,71,0,0,1,4.671-14.147c.809-1.65,7.607-10.686,6.619-12.036" transform="translate(16.351 84.398)"/><path class="c" d="M41.186,149.094c-9.44,7.239-9.388,20.168-9.388,30.93,0-3.374,9.507-30.847,9.388-30.93" transform="translate(17.982 84.313)"/><path class="c" d="M42.65,149.3c-6.5,7.087-11.544,24.7-6.2,33.611-3.1-6.2-.2-11.87,1.965-17.753,1.016-2.757,1.794-5.612,2.569-8.433.307-1.124.969-6.876,1.663-7.425" transform="translate(19.343 84.432)"/><path class="c" d="M43.755,149.733c-6.725,9.071-6.188,20.663-6.188,31.434,2.043-10.21,6.076-21,6.188-31.434" transform="translate(21.238 84.675)"/><path class="c" d="M45.2,150.276a42.663,42.663,0,0,0-3.358,29.079c-2.948-8.847,5.021-19.533,3.358-29.079" transform="translate(22.982 84.982)"/><path class="c" d="M46.833,150.846c-2.37,8.808-5.492,19.93-.288,28.261-2.383-9.537,3.122-18.3.288-28.261" transform="translate(24.721 85.304)"/><path class="c" d="M46.063,154c.294-6.138,7.655-8.5,12.364-5.359-1.041,0-14.248,2.937-12.364,5.359" transform="translate(25.945 83.27)"/><path class="c" d="M55.164,145.376c-4.4,1.032-9.586,3.139-11.15,7.832-3.134-7.834,10.857-9.651,11.15-7.832" transform="translate(24.632 81.844)"/><path class="c" d="M51.062,142.382c-5.086,1.06-9.417,5.733-9.417,11.049-2.47-5.558,7.572-14.678,9.417-11.049" transform="translate(23.331 80.048)"/><path class="c" d="M46.979,142.442c-4.682.714-7.779,5.6-7.273,10.148-.93-2.48-.833-5.728.944-7.8.622-.72,5.462-3.646,6.329-2.348" transform="translate(22.125 80.367)"/><path class="c" d="M42.558,149.756c-4.722-3.543-11.539-1.273-15.117,2.813,2.087-2.087,4.552-5.06,7.544-5.736,1.271-.288,7.964.678,7.572,2.923" transform="translate(15.518 83.007)"/><path class="c" d="M41.311,149.536C32.97,147.9,28.079,157.855,24.427,163.7a32.358,32.358,0,0,1,8.532-9.77c.781-.559,8.316-4.493,8.352-4.391" transform="translate(13.814 84.462)"/><path class="c" d="M40.37,151.25c-1.587-2.455-4.2-3.981-6.231-6.013,3.361-2.016,5.7,6.253,6.231,6.013" transform="translate(19.306 81.953)"/><path class="c" d="M39.146,151.7c-1.772-2.87-3.646-9.055,1.933-8.543-2.636-.02-3.015,7.682-1.933,8.543" transform="translate(21.125 80.94)"/></g></g><g transform="translate(279 1206)"><g class="n" transform="translate(168.438 164.408)"><path class="d" d="M100.182,66.7s-5.881.8-4.74,4,6.057,3.376,6.057,3.376,1.995-5.484,3.726-5.044,1.007,5.633,1.007,5.633.8,2.654,4.621,2.853a21.871,21.871,0,0,1,5.675.868s-4.685-10.479-2.885-8.27,5.052,8.14,6.763,9.079,8.783-1.194,8.783-1.194-.863-.519-4.387-2.974c-.922-.644-1.855-1.247-2.716-1.809-2.426-1.584-4.272-2.838-3.67-3.718.816-1.191,4.248.225,4.983,1.988s10.368,6.238,10.368,6.238l5.011-4.223s-7.564,1.448-9.64-1.544-2.292-4.2-2.292-4.2,7.494,3.309,11.256,1.964l3.763-1.343-4.427-1.6-3.718-1.343,10.236.257,4.121-3.474c2.329-1.963,3.282-1.62,3.282-1.62a20.922,20.922,0,0,0-1.711-3.324c-1.068-1.662-6.361.367-6.361.367a3.491,3.491,0,0,1,2.5-3.289,35.133,35.133,0,0,1,5.633-1.561s-.728-2.633-1.481-2.53-11.462,2.11-12.021,6.091-3.753.123-1.177-2.282S147.349,48.7,147.349,48.7s-4.165-1.735-6.986-1.7c-1.174.015-3.066,1.485-4.876,3.2a67.945,67.945,0,0,0-4.92,5.283s-4.047,2.572-3.736.667,10.229-8.993,10.229-8.993,2.917-4.082-4.515-1.633-12.5,10.07-12.5,10.07-.894,2.2-.182-1.02,3.231-8.9,7.185-8.677-2-4.562-6.489-.108a18.616,18.616,0,0,0-5.288,8.977s-1.89.934-1.559-2.969,4.726-5.2,4.726-5.2-4.8-5.054-7.175.3a56.152,56.152,0,0,0-3.424,10.883s-2.17,2.694-2.654-.959,3.248-6.8,3.248-6.8-1.983-4.309-5.108,2.647-.745,7.817-.745,7.817-3.5.083-6.008.417-5.265,2.181-4.782,4.886,1.767,3.17,1.767,3.17Z" transform="translate(63.214 30.239)"/><path class="d" d="M74.066,27.126c5.113-.929,11.959-2.6,15.774-5.3,6.616-4.691,16.421-5.831,6.616-4.691-3.111.361-7.29,1.191-11.543,2.152a108.273,108.273,0,0,1,16.463-7.922l2.78,2.968.973-4.341c3.525-1.226,7.282-2.358,11.268-3.349,17.068-4.246,30.983-1.378,39.622,3.593-6.876.012-12.9.794-7.64.456,6.9-.444,13.844,11.443,13.844,11.443l3.42.782c-.228,2.268-1.719,4.229-4.64,5.493a68.613,68.613,0,0,0-10.9-12.134,30.863,30.863,0,0,0-15.242-6.947s10.692,5.265,14.707,13.384a53.424,53.424,0,0,0,4.5,7.471c-8.684.98-6.481-5.758-14.911-6.253-1.743-3.981-4.422-8.435-8.256-10.673a17.234,17.234,0,0,0-15.3-1.017l6.071,1.709c3.576,1.008,6.5,6.711,8.3,11.226-9.672,3.042-7.88,9.938-13.334,10.851-7.935-3.449-8.092-11.852-7.908-14.666l.093-.941s-.054.35-.093.941l-1.446,14.778c-8.254-1.679-8.44-8.474-8.44-8.474s-9.359,1.187-15.408,6.081S70.163,34.8,70.163,34.8c-1.969-.532-.539-3.615,3.9-7.679" transform="translate(47.751 3.155)"/><path class="d" d="M85.845,49.222C71.733,82.245,67.2,123.828,66.058,137.187c.248.16.493.328.728.51a15.993,15.993,0,0,1,1.851.488c.23.056.451.081.676.123,1.064-12.334,5.648-57.455,17.928-88.443C100.255,17.025,119.7,6.811,119.7,6.811S102.9,9.319,85.845,49.222" transform="translate(45.519 4.693)"/><path class="d" d="M92.787,14.767c-.858-3.174-3.218-5.785-6.442-7.883C79.639,6.618,72.989,7.471,76,5.322a9.1,9.1,0,0,1,4.866-1.236,52.407,52.407,0,0,0-8.437-2.542c-3.263.439-6.418,1.169-8.322,2.38-4.787,3.047-8.746,2.449-7.346,0,.76-1.329,6.777-2.371,12.121-3.047C61.622-.291,54.45-.259,50.111.775l-.35,2.449L44.8,1.878c-8.628,2.04-24.392,6.974-21.115,15.195a2.031,2.031,0,0,0,1.593-1.257c1.4-3.5,16.446-7.175,18.889-7.069s-7,2.522-11.389,4.272c-4.378,1.741-6.044,7.575-6.057,7.623,3.5,1.991,8.947,1.155,14.724-.492A16.514,16.514,0,0,1,45.564,10.9c4.552-5.067,4.2.015.61,2.814-2.326,1.814-1.632,3.363-.358,5.079,6.989-2.3,13.882-5.03,17.938-4.729,5,.37,13.8,4.164,20.482,5.741-5.13-2.782-14.529-7.621-20.081-8.9-8-1.85,2.4-1.383,10.444,1.763,5.419,2.121,13.546,4.557,18.279,5.924a6.1,6.1,0,0,0-.09-3.824" transform="translate(16.015 0)"/><path class="d" d="M85.813,139.832a13.412,13.412,0,0,0,2.392.255c.157,0,.307,0,.458,0,.066-5.812.363-56.8-8.454-88.511-8.78-31.587-38.2-47-38.2-47s31.815,20.24,38.2,53.844c2.909,15.3,5.343,74.844,5.6,81.41" transform="translate(28.946 3.155)"/><path class="d" d="M97.16,121a6.738,6.738,0,0,0,1.328-.7,7.948,7.948,0,0,1,.924-.529c-.794-9.437-5.375-47.862-28.305-67.328-21.064-17.882-36-20.972-36-20.972s46.73,16.45,55.272,57.192c5.584,26.633,6.6,31.459,6.78,32.336" transform="translate(24.193 21.684)"/><path class="d" d="M96.324,47.013c-2.518,3.819-8.417,9.192-16.5,9.192h-.388c-.483-3.042-1.427-7.744-2.98-10.263-2.182-3.527-11.092-4.765-12.741-4.964,1.113.179,5.532,1.008,7.756,3.664,1.27,1.522,1.27,6.494.954,11.1-2.55-.242-5.447-.568-8.552-.934a39.8,39.8,0,0,1,.944-5.017c1.258-4.827-7.326-9.613-7.829-9.886a17.1,17.1,0,0,1,5.435,7.841c.672,2.013.179,4.512-.65,6.81-4.91-.6-10.221-1.3-15.4-1.973,1.5-4.87,3.567-12.477,2.466-14.1a2.271,2.271,0,0,0-1-.809,4.851,4.851,0,0,0-2.969-.157c-1.48.336-2.581,1.133-1.888,1.616,1.365.954,3.41,5.184,2.728,7.829-.3,1.216-.912,3.368-1.468,5.351-2.782-.356-5.51-.7-8.092-1.017,1.343-2.824,2.687-6.412,1.721-7.923-1.711-2.645-4.775-1.1-5.121,4.376a6.516,6.516,0,0,1-.86,3.032c-4.155-.471-7.7-.818-10.2-.934,1.574-2.466,3.348-5.383,4.576-7.177,1.846-2.677-7.01,3.851-11.124,6.935C8.153,49.018,1.931,46.866.377,40.843A21.642,21.642,0,0,1,8.2,36.424c7.116-1.973,17.892,4.67,18.323-.2s-16.3-4.533-19.005-1.48c-1.049,1.176-4.082,2.865-7.418,4.5A13.342,13.342,0,0,1,0,37.757c0-9.518,9.665-14.366,15.918-14.913,6.929,1.817,13.119,4.052,14.788,6.234,3.579,4.68,4.03,5.268,4.081,5.341a60.763,60.763,0,0,0-5.446-10.231C42.06,27.1,51.252,33.864,59.3,37.411a22.41,22.41,0,0,0,8.93,2.246c.63,0,1.238-.012,1.806-.032,10.9-.367,11.889-4.061,19.34-4.061,6.307,0,7.839,3.724,8.2,6.494-.86-.65-1.784-1.375-2.738-2.16-4.775-3.978-16.707-1.449-16.707-1.449s5.792,1.091,11.932,2.74c3.211.87,5.152,3.5,6.265,5.824" transform="translate(0 15.741)"/><path class="d" d="M62.327,34.379s-11.072-1.228-22.194-1.953c-.986-.062-1.983-.115-2.969-.157a59.842,59.842,0,0,0-10.84.421C14.4,34.484,11.609,35.271,11.19,35.4c1.228-.493,21.429-8.312,40.4-3.233a22.4,22.4,0,0,0,8.93,2.246c.628,0,1.238-.012,1.8-.032" transform="translate(7.711 20.987)"/><path class="d" d="M96.953,60.533c-16.641,13.016-28.388,46.411-28.388,46.411l.769.444c.191.01.373.034.571.035.223.005.437,0,.65,0,1.591-4.381,12.893-34.582,25.711-44.656,20.818-16.36,62.992-7.165,62.992-7.165s-42.174-10.815-62.3,4.929" transform="translate(47.246 35.819)"/><path class="d" d="M48.64,52.122s11.089-3.643,19.183,5.751c8.045,9.341,20.857,49.37,20.857,49.37l-2.6.564S74.127,68.892,65.693,60.26c-5.366-5.495-10.268-7.444-14.729-6.3S43.1,52.142,48.64,52.122" transform="translate(31.535 35.437)"/><path class="d" d="M58.249,61.2s10.283-4.866,16.664-4.419,17.443-1.22,18.72,1.316l1.275,2.535s6.807-2.7,8.935,1.838l2.127,4.544s-6.381-2.745-10.92-2.79l-4.537-.046s12.479,3.545,15.457,6.381a32.954,32.954,0,0,0,3.544,3.164s-1.415,9.884-3.969,8.749c-1.341-.6-4.523-3.307-8.187-5.973-3.309-2.405-7.011-4.775-10.107-5.515-6.523-1.559-6.967-1.3-6.967-1.3s22.71,11.229,25.687,15.484-4.42,11.408-6.807,11.345S84.414,83.328,78.6,78.222A30.631,30.631,0,0,0,66.971,71.7a17.885,17.885,0,0,0,8.793,7.233c5.92,2.135,17.3,13.756,18.576,22.265s-8.934,8.508-8.934,8.508S67.822,82.335,65.98,78.932s-6.667-9.173-5.957-4.446,3.971,7.14,11.2,14.94S84.129,109,84.13,109.7s-6.381,7.091-8.366,5.248S68.106,92.829,63.993,88.716s-4.68-2.694-3.12,0,11.062,19.146,10.21,23.542-9.359,3.027-9.359,3.027a27.156,27.156,0,0,0-1.986-11.536c-2.41-5.246-6.381-15.458-7.515-12.622s5.954,21.132,5.1,23.259-3.4,2.978-13.756,2.127-12.2-3.545-12.2-3.545,5.39-20.421,9.219-22.123-7.516-3.12-9.219,4.68-2.719,18.923-5.1,15.033-6.381-4.4-5.39-7.091,2.952-8.51-.155-5.672-3,4.04-4.1,2.836-4.395-3.12-1.559-5.674,12.621-13.33,19.288-13.472,14.322-1.277,8.082-2.836-21.046,8-22.193,10.21-7.907,6.113-7.907,6.113-4.929-5.655-5.212-8.224S18.329,76.52,25.7,77.655s16.024-4.537,9.785-4.537S10.531,79.215,9.254,81.2s-1.277-1.985-1.277-2.41-3.12-3.545,1.7-5.814,20.561-3.829,23.966-3.687,3.92-2.116-.025-1.838S10.105,72.125,9.68,71.131s-2.128-4.964,3.969-5.814,21.84.284,21.84.284a6.261,6.261,0,0,0-4.235-2.446c-2.714-.25-9.1.885-9.805.885S17.478,61.063,24,59.22s6.805,1.7,11.769.14,9.217-3.544,12.481-.708,10,2.552,10,2.552" transform="translate(4.813 39.04)"/><path class="d" d="M65.089,51.9c-2.206-.476-14.61-.787-22.654,9.445s-12.5,33.58-12.5,33.58,7.29-30.782,20.392-37.71C60.427,51.875,74.8,54,65.089,51.9" transform="translate(20.627 35.637)"/></g></g><g transform="translate(193.121 1436.698)"><g class="o"><path class="p" d="M202.812,296.665c.017.011,0,.009-.024,0-.061-.046-.067-.056.024,0" transform="translate(-57.523 -84.16)"/><path class="p" d="M201.314,292.216h0s.068-4.772.326-4.707c.088.067.5-2.5.774-2.328.489-.373,1.6,3.892,2.2,3.579-2.48-4.08-3.007-6.84-1.708-6.245.891-.831,2.5-8.119,2.868-9.319.279-.911,2.15-3.016,3.142-1.712.9,1.178,1.387,4.213,1.656,5.29a47.537,47.537,0,0,1,1.116,5.543,9.5,9.5,0,0,1-1.4,5.818,1.485,1.485,0,0,1,.253.938c-.17,6.272-1.011,7.688-4.555,8-3.152.28-4.306-1.854-4.67-4.857" transform="translate(-57.118 -76.908)"/><rect class="q" width="5.444" height="14.343" transform="translate(72.527 54.973)"/><path class="p" d="M141.136,54.349l-39.19,8.066a1.778,1.778,0,0,1-1.845-1.442L94.238,8.884a.677.677,0,0,1,.544-.8L133.972.019a1.78,1.78,0,0,1,1.845,1.443l5.863,52.088a.678.678,0,0,1-.545.8" transform="translate(-26.736 0)"/><path class="r" d="M127.622,44.1l-1.134.233c-.834.172-1.6-.529-1.72-1.564l-.027-.234,3.908-.8.06.538a1.627,1.627,0,0,1-1.087,1.832" transform="translate(-35.392 -11.841)"/><path class="r" d="M128.252,49.7l-1.134.234c-.834.172-1.6-.529-1.72-1.564l-.026-.234,3.907-.8.061.538a1.626,1.626,0,0,1-1.088,1.831" transform="translate(-35.571 -13.43)"/><path class="r" d="M126.992,38.505l-1.135.234c-.834.171-1.6-.529-1.721-1.565l-.026-.234,3.908-.8.06.538a1.627,1.627,0,0,1-1.087,1.832" transform="translate(-35.213 -10.253)"/><path class="r" d="M126.361,32.907l-1.134.234c-.834.171-1.6-.529-1.72-1.565l-.026-.233,3.907-.8.061.537a1.627,1.627,0,0,1-1.088,1.832" transform="translate(-35.035 -8.664)"/><path class="r" d="M125.731,27.308l-1.134.234c-.834.171-1.6-.529-1.72-1.565l-.027-.233,3.908-.8.061.537a1.627,1.627,0,0,1-1.088,1.832" transform="translate(-34.855 -7.076)"/><path class="r" d="M125.115,21.5l-1.133.233c-.855.176-1.645-.543-1.765-1.6l-.23-2.048,3.907-.8.276,2.448a1.577,1.577,0,0,1-1.055,1.776" transform="translate(-34.611 -4.9)"/><path class="r" d="M128.915,55.692l-1.38.284c-1.014.208-1.951-.644-2.094-1.9l-.032-.283,4.755-.978.074.655a1.978,1.978,0,0,1-1.323,2.228" transform="translate(-35.582 -14.983)"/><path class="r" d="M129.566,61.541l-1.537.316c-1.13.234-2.173-.717-2.331-2.121l-.035-.314,5.294-1.089.082.728a2.2,2.2,0,0,1-1.473,2.481" transform="translate(-35.654 -16.55)"/><path class="r" d="M130.269,67.784l-1.537.317c-1.13.233-2.173-.718-2.331-2.121l-.036-.315,5.295-1.089.082.728a2.2,2.2,0,0,1-1.473,2.481" transform="translate(-35.853 -18.321)"/><path class="r" d="M130.916,73.661l-1.857.382c-1.366.281-2.628-.867-2.819-2.564L126.2,71.1l6.4-1.318.1.881a2.663,2.663,0,0,1-1.781,3" transform="translate(-35.805 -19.799)"/><path class="r" d="M130.432,11.393a6.487,6.487,0,0,0,2.29.052c3.333-.892,4.336-2.89,6.979-3.534a1.246,1.246,0,0,1,1.486.648,2.7,2.7,0,0,1,.2,2.049,1.808,1.808,0,0,1-.948,1c-1.7.912-3.662.951-5.569,1.1a9.152,9.152,0,0,0-2.775.443c-.5.206-1.108.978-1.726.688a1.472,1.472,0,0,1-.615-1.094c-.158-.915.227-1.447.678-1.351" transform="translate(-36.804 -2.231)"/><path class="r" d="M113.679,15.368a7.275,7.275,0,0,1-2.175.97c-3.378.49-4.775-1.014-7.441-.567a1.54,1.54,0,0,0-1.275,1.217,2.659,2.659,0,0,0,.26,2.037,1.415,1.415,0,0,0,1.125.574c1.827.186,3.705-.565,5.558-1.191a9.3,9.3,0,0,1,2.747-.694c.521,0,1.274.489,1.8-.037a1.78,1.78,0,0,0,.347-1.292c-.05-.937-.536-1.29-.945-1.016" transform="translate(-29.137 -4.335)"/><path class="r" d="M137.484,18.95a13.145,13.145,0,0,1,5.808,8.986,41.369,41.369,0,0,1,.554,11.523,20.45,20.45,0,0,1-1.355,5.731c-.641,1.645-2.083,3.218-4.024,2.1-.768-.441-1-1.759-1.329-2.585-.867-2.182-1.561-3.856-3.344-5.264-.337-.266-.749.334-.413.6,2.14,1.689,2.453,3.943,3.667,6.328.521,1.025,1.3,2.26,2.48,2.446,2.753.433,3.809-3.825,4.364-5.89a35.734,35.734,0,0,0,.771-15.262c-.817-4.394-3.475-7.014-6.766-9.319-.349-.244-.762.355-.412.6" transform="translate(-37.808 -5.19)"/><path class="r" d="M132.27,24.952c3.064.251,5.178-.843,7.666-2.917.352-.293-.365-1.5-.68-1.164-1.938,2.086-3.976,3.6-6.887,3.358-.426-.035-.524.688-.1.723" transform="translate(-37.45 -5.905)"/><path class="r" d="M132.826,29.7a13.778,13.778,0,0,0,9.734-3.182c.357-.287-.455-1.724-.757-1.371a11.935,11.935,0,0,1-8.878,3.829c-.426-.031-.525.693-.1.723" transform="translate(-37.608 -7.12)"/><path class="r" d="M133.728,34.526a14.488,14.488,0,0,0,10.579-1.707c.382-.234.139-1.495-.247-1.258-3.17,1.938-6.848,2.964-10.233,2.242-.415-.088-.509.636-.1.723" transform="translate(-37.867 -8.946)"/><path class="r" d="M132.98,39.1c3.708.825,8.283.92,11.555-1.925.346-.3.045-1.794-.3-1.492a13.184,13.184,0,0,1-11.155,2.694c-.413-.092-.508.632-.1.723" transform="translate(-37.655 -10.114)"/><path class="r" d="M133.018,44.2a15.52,15.52,0,0,0,11.461.134c.412-.157.193-1.852-.217-1.7-3.508,1.344-7.681,2.312-10.979.878-.39-.169-.653.516-.265.684" transform="translate(-37.686 -12.093)"/><path class="r" d="M133.458,48.44c3.26,1.455,6.879,2.2,10.408.869.412-.156.51-1.695.1-1.54a13.733,13.733,0,0,1-10.243-.013c-.388-.173-.652.511-.265.684" transform="translate(-37.811 -13.542)"/><path class="r" d="M136.984,53.12a10.705,10.705,0,0,0,3.348,1.608,8.2,8.2,0,0,0,3.894-.436c.418-.121.6-1.428.178-1.306-1.127.326-2.435,1-3.579.827A9.371,9.371,0,0,1,137.4,52.52c-.36-.222-.774.377-.412.6" transform="translate(-38.826 -14.887)"/><path class="r" d="M109.489,24.694a16.1,16.1,0,0,0-3.568,10.916,40.012,40.012,0,0,0,2.007,11.224,17.125,17.125,0,0,0,2.555,4.927c.974,1.312,2.7,2.234,4.3.39.637-.731.569-2.083.7-3,.348-2.433.642-4.309,2.035-6.371.263-.389.787.019.525.407-1.671,2.474-1.474,4.752-2.108,7.517-.271,1.188-.743,2.681-1.829,3.333-2.533,1.521-4.478-2.119-5.463-3.866A32.776,32.776,0,0,1,104.553,35.9c-.185-4.523,1.776-8.094,4.411-11.618a.333.333,0,1,1,.525.408" transform="translate(-29.661 -6.848)"/><path class="r" d="M116.329,28.8c-2.87,1.473-5.129,1.279-7.961.3-.4-.138.017-1.582.393-1.385,2.309,1.212,4.587,1.834,7.314.435.4-.2.652.446.254.65" transform="translate(-30.7 -7.857)"/><path class="r" d="M116.082,33.872a13,13,0,0,1-9.994.878c-.4-.13.056-1.828.421-1.613a10.722,10.722,0,0,0,9.319.084c.4-.2.654.451.254.651" transform="translate(-30.055 -9.397)"/><path class="r" d="M115.883,38.246a14.811,14.811,0,0,1-10.475,2.626c-.416-.069-.462-1.371-.042-1.3a14.234,14.234,0,0,0,10.263-1.976c.377-.251.627.4.254.651" transform="translate(-29.812 -10.65)"/><path class="r" d="M117.264,42.49c-3.359,2.28-7.706,4.21-11.455,2.811-.4-.148-.438-1.7-.04-1.546,3.581,1.337,8.042.257,11.242-1.915.375-.255.625.4.254.651" transform="translate(-29.93 -11.854)"/><path class="r" d="M118.387,46.667a17.266,17.266,0,0,1-10.912,4.739c-.428.016-.592-1.691-.167-1.706,3.646-.128,7.842-.883,10.676-3.579.335-.319.737.23.4.547" transform="translate(-30.375 -13.058)"/><path class="r" d="M119.211,50.57c-2.793,2.7-6.083,4.87-9.746,5.017-.428.017-.86-1.413-.435-1.43a15.213,15.213,0,0,0,9.777-4.134c.332-.321.734.227.4.547" transform="translate(-30.885 -14.165)"/><path class="r" d="M118.1,56.464a13.787,13.787,0,0,1-2.842,2.882,8.609,8.609,0,0,1-3.813,1.15c-.427.052-.887-1.123-.458-1.176,1.148-.143,2.547-.022,3.6-.65a11.886,11.886,0,0,0,2.989-2.614.332.332,0,1,1,.525.407" transform="translate(-31.442 -15.865)"/><path class="r" d="M147.239,18.583a1.134,1.134,0,0,0,.413-.737,4.685,4.685,0,0,0-.077-1.782c-.256-1.094-.691-1.31-1.012-1.316L144.11,14.7c-.278-.005-1.593-.223-.933,2.2.347,1.279,1.723,1.636,2.1,1.806a1.789,1.789,0,0,0,1.96-.126" transform="translate(-40.571 -4.169)"/><path class="r" d="M101.263,27.821a.879.879,0,0,1-.555-.538,4.49,4.49,0,0,1-.318-1.732c0-1.147.372-1.529.677-1.664l2.33-1.031c.264-.117,1.471-.855,1.375,1.726a3.92,3.92,0,0,1-1.609,2.57,1.9,1.9,0,0,1-1.9.668" transform="translate(-28.483 -6.432)"/><path class="r" d="M127.022,25.393l-4.853,1a.246.246,0,0,1-.271-.246.306.306,0,0,1,.2-.345l4.853-1a.246.246,0,0,1,.271.246.3.3,0,0,1-.2.343" transform="translate(-34.585 -7.036)"/><path class="r" d="M124.09,12.734l-1.134.234c-.834.171-1.6-.529-1.72-1.565l-.026-.234,3.907-.8.061.537a1.627,1.627,0,0,1-1.088,1.832" transform="translate(-34.39 -2.941)"/><path class="r" d="M125.381,10.819l-4.853,1a.247.247,0,0,1-.271-.246.306.306,0,0,1,.2-.344l4.853-1a.246.246,0,0,1,.271.246.306.306,0,0,1-.2.344" transform="translate(-34.119 -2.901)"/><path class="r" d="M127.652,30.992l-4.853,1c-.13.027-.252-.085-.271-.246a.306.306,0,0,1,.2-.344l4.854-1c.13-.027.252.084.27.246a.3.3,0,0,1-.2.343" transform="translate(-34.763 -8.625)"/><path class="r" d="M128.283,36.59l-4.853,1a.246.246,0,0,1-.271-.246.3.3,0,0,1,.2-.344l4.853-1c.13-.027.251.083.27.246a.307.307,0,0,1-.2.344" transform="translate(-34.942 -10.213)"/><path class="r" d="M128.912,42.189l-4.853,1a.247.247,0,0,1-.271-.246.3.3,0,0,1,.2-.344l4.854-1a.246.246,0,0,1,.271.246.306.306,0,0,1-.2.344" transform="translate(-35.121 -11.801)"/><path class="r" d="M129.542,47.788l-4.853,1a.247.247,0,0,1-.271-.246.306.306,0,0,1,.2-.345l4.853-1a.246.246,0,0,1,.271.246.306.306,0,0,1-.2.344" transform="translate(-35.3 -13.39)"/><path class="r" d="M130.173,53.385l-4.853,1a.246.246,0,0,1-.27-.246.306.306,0,0,1,.2-.345l4.854-1a.246.246,0,0,1,.27.246.3.3,0,0,1-.2.343" transform="translate(-35.479 -14.978)"/><path class="r" d="M131.05,58.868,125.4,60.032c-.13.027-.251-.084-.27-.246a.307.307,0,0,1,.2-.344l5.653-1.163a.246.246,0,0,1,.271.246.3.3,0,0,1-.2.343" transform="translate(-35.501 -16.534)"/><path class="r" d="M132.139,64.276l-6.83,1.406a.246.246,0,0,1-.271-.246.305.305,0,0,1,.2-.343l6.83-1.406a.246.246,0,0,1,.27.246.3.3,0,0,1-.2.343" transform="translate(-35.476 -18.068)"/><path class="r" d="M132.963,69.728l-8.14,1.675a.247.247,0,0,1-.271-.246.305.305,0,0,1,.2-.343l8.14-1.675a.246.246,0,0,1,.271.246.306.306,0,0,1-.2.344" transform="translate(-35.338 -19.615)"/><path class="r" d="M127.692,16.415a1.758,1.758,0,0,1-1.314,1.917,1.412,1.412,0,0,1-1.677-1.3,1.758,1.758,0,0,1,1.314-1.917,1.411,1.411,0,0,1,1.677,1.3" transform="translate(-35.377 -4.28)"/><path class="r" d="M123.787,17.218a1.759,1.759,0,0,1-1.314,1.917,1.412,1.412,0,0,1-1.677-1.3,1.758,1.758,0,0,1,1.314-1.917,1.411,1.411,0,0,1,1.677,1.3" transform="translate(-34.269 -4.507)"/><path class="l" d="M237.069,144.176l-25,29.533-4.457-6.115,18.228-28.112Z" transform="translate(-58.906 -39.574)"/><path class="s" d="M209.444,219.758l1.282-37.929L193.7,192.4l1.935,31.177,3.67,40.362c-.028,2.634,8.607,2.725,8.635.09Z" transform="translate(-54.956 -51.589)"/><path class="p" d="M181.52,313.474c0,.02,0,.009.015-.017,0-.077,0-.087-.015.017" transform="translate(-51.501 -88.918)"/><path class="p" d="M177.18,311.455h0L175,308.481c.037-.188-.6,1.886-.7,2.131,0,.11-.014.369-.041.691a11.846,11.846,0,0,0-1.829.686c-1.75-4.442-3.63-6.531-3.942-5.136-1.2.207-7.978-2.919-9.157-3.351-.9-.328-3.7-.11-3.264,1.468.4,1.427,2.518,3.652,3.213,4.518a47.537,47.537,0,0,0,3.74,4.24,9.5,9.5,0,0,0,5.48,2.4,1.492,1.492,0,0,0,.595.769c5.1,3.655,6.734,3.842,9.128,1.21,2.129-2.341,1.127-4.551-1.045-6.656" transform="translate(-44.268 -86.074)"/><path class="s" d="M181.316,281.515v-49.05l4.832-35.883L167.1,201.655l.012,39.12,4.251,38.809c.751,8.431,11.091,3.451,9.958,1.932" transform="translate(-47.409 -55.775)"/><path class="l" d="M202.345,180.857c5.9-27.039,6.822-58.116,5.121-91.327a16.78,16.78,0,0,0-.836-6.211l-.637-1.912a3.925,3.925,0,0,0-5.929-2.008c-6.235,1.365-33.67,15.768-35.769,21.905l5.174,40.9-5.314,58.363c-.012,14.523,40.309-4.965,38.19-19.708" transform="translate(-46.575 -22.335)"/><path class="l" d="M233.937,129.468l.76-.31a6.652,6.652,0,0,0,3.633-8.648L223.178,83.4a6.653,6.653,0,0,0-8.648-3.633l-.759.31a6.653,6.653,0,0,0-3.634,8.648l15.152,37.108a6.652,6.652,0,0,0,8.648,3.633" transform="translate(-59.482 -22.494)"/><path class="j" d="M200.094,83.932l-1.546-16.608-10.7,5.36,1.241,17.409c-.019,2.424,11.01-.586,11-6.161" transform="translate(-53.297 -19.101)"/><path class="j" d="M189.181,34.765s6.919-3.1,6.249,11.744c-.466,10.322-6.763,19.163-14.535,23.05-4.839,2.421-10.685-.9-10.685-6.042v-20.8c0-6.2,6.025-9.8,12.632-10.08Z" transform="translate(-48.293 -9.259)"/><path class="p" d="M192.665,63.252s9.37-3.536,8.119-18.621c-1.333-16.078-17.368-15-22.909-12.717-2.924,1.207-5.437,3.394-8.261,6.6-2.567,2.919,1.844,5.942,6.106,5.828,1.69-.045.724,6.93,1.279,8.412.986,2.633,2.883,3.757,3.89,6.3.952,2.41.852,5.875,3.3,5.871a25.672,25.672,0,0,0,8.472-1.681" transform="translate(-47.908 -8.685)"/><path class="j" d="M101.76,85.46l3.379-1c-.766.95-2.046,6.393-3.266,6.347l-3.665-1.97L95.782,76.425a3.054,3.054,0,0,1,.242-1.726l3.768-5.469a1.044,1.044,0,0,1,1.865.3,3.189,3.189,0,0,1,.007,1.771l-1.427,3.684.4,4.537.449,1.362Z" transform="translate(-27.166 -19.514)"/><path class="p" d="M183.9,88.511s8.137.16,14.312-8.425l6.863-1.1-1.7,3.869a20.628,20.628,0,0,1-24.783,11.47l-2.538-.757Z" transform="translate(-49.952 -22.41)"/><path class="p" d="M178.458,61.808s-1.752,8.737-8.269,9.938c0,0-.888,8.306,4.554,8.5s11.428-7.3,11.428-7.3,6.882-10.754,6.4-11.138-14.114,0-14.114,0" transform="translate(-48.271 -17.488)"/><path class="j" d="M180.32,62.139c0,2.581,1.5,4.674,3.349,4.674a2.479,2.479,0,0,0,.592-.072c1.566-.391,2.757-2.3,2.757-4.6,0-2.581-1.5-4.674-3.349-4.674s-3.349,2.093-3.349,4.674" transform="translate(-51.161 -16.304)"/><path class="l" d="M159.139,101.441l-.405-.713a6.653,6.653,0,0,0-9.044-2.489l-25.428,14.455a6.53,6.53,0,0,1-9.173-2.976l-8.653-19.051a1.1,1.1,0,0,0-1.428-.564l-7.176,2.969a1.105,1.105,0,0,0-.579,1.486l12.608,23.487a14.89,14.89,0,0,0,19.907,6.209l26.883-13.771a6.652,6.652,0,0,0,2.488-9.044" transform="translate(-27.564 -25.541)"/><path class="p" d="M172.316,43.711h-2.449a4.681,4.681,0,0,1,0-9.362h2.449a4.681,4.681,0,0,1,0,9.362" transform="translate(-46.867 -9.746)"/><path class="j" d="M1.777,184.219l26.485,31.013,4.121-6.605L12.722,179Z" transform="translate(-0.504 -50.786)"/><path class="s" d="M69.117,367.709c-5,3.731-6.62,3.949-9.05,1.378-4.066-4.3,2.9-8.356,7.9-12.088s8.084-4.258,10.2-1.424-4.051,8.4-9.049,12.134" transform="translate(-16.696 -100.373)"/><path class="p" d="M59.765,332.756l3.522-48.125-2.14-36.375,16.676-1.121-3.36,45.918-6.845,39.173c-.848,4.688-8.267,5.144-7.853.53" transform="translate(-16.952 -70.118)"/><path class="s" d="M38.811,346.625c-5,3.732-6.619,3.949-9.049,1.379-4.067-4.3,2.9-8.357,7.9-12.088s8.083-4.258,10.2-1.425-4.051,8.4-9.049,12.134" transform="translate(-8.097 -94.391)"/><path class="p" d="M29.467,311.146l3.523-48.125c1.205-17.36-.653-24.586,4.6-38.823l9.935,1.327-3.36,45.918L37.32,310.617c-.848,4.687-7.853,4.845-7.853.529" transform="translate(-8.36 -63.61)"/><path class="p" d="M63.757,237.9,45.67,226.6l-2.16,19.828,17.135,8Z" transform="translate(-12.345 -64.291)"/><path class="j" d="M135.18,167.8l-9.845,3.935c-.019.006-.133.054-.313.132a3.878,3.878,0,0,1-5.3-2.722,5.11,5.11,0,0,1,.029-3.388l3.511-5.054,2.066-3.94s1.449-.162.9,3.143c-.17,1.019-.8,2.036-.87,2.764a8.555,8.555,0,0,0,1.563-.021l8.408-4.055c.649-.351,1.3-.574,1.647.076l.064.119c.352.649-.168,1.109-.817,1.46l-2.38,1.42,3.51-1.261c.683-.282,1.349-.437,1.632.246l.052.125c.281.682-.283,1.085-.965,1.367l-2.49,1.154.491-.148c.7-.245,1.37-.363,1.615.333l.045.128c.245.7-.34,1.069-1.036,1.313l-4.617,1.846,2.483-.746c.7-.244,1.37-.362,1.615.334l.044.128c.246.7-.339,1.069-1.036,1.314" transform="translate(-33.891 -44.476)"/><path class="j" d="M111.093,203.275,121,172.651l-7.785-.052L98.269,204.862l2.963,1.92a6.6,6.6,0,0,0,9.861-3.506" transform="translate(-27.881 -48.97)"/><path class="l" d="M35.652,189.848l-5.27-56.3a16.688,16.688,0,0,1,.831-6.174l.633-1.9a3.9,3.9,0,0,1,5.893-2l33.733,19.164-.887,71.152c.317,5.34,3.139,31.717-2.14,30.859-8.861-1.441-36.953-6.734-36.609-15.6.081-2.084,3.932-37.492,3.816-39.2" transform="translate(-8.613 -34.841)"/><path class="l" d="M4.078,170.3l-.711-.4a6.611,6.611,0,0,1-2.531-8.973L20.3,126.166a6.612,6.612,0,0,1,8.974-2.531l.711.4a6.612,6.612,0,0,1,2.531,8.974L13.051,167.768A6.611,6.611,0,0,1,4.078,170.3" transform="translate(0 -34.841)"/><path class="j" d="M53.651,129.04l3.172-15.482,9.521,6.154-2.968,16.267c-.234,2.285-12.456,1.415-9.726-6.939" transform="translate(-15.109 -32.219)"/><path class="l" d="M97.073,198.814l-.736.35a5.728,5.728,0,0,1-8.074-3.126l-12.817-36.01a7.335,7.335,0,0,1,3.831-8.792l.737-.35a5.727,5.727,0,0,1,8.073,3.126L100.9,190.023a7.335,7.335,0,0,1-3.832,8.791" transform="translate(-21.302 -42.63)"/><path class="j" d="M56.172,81.108s-6.855-3.066-6.191,11.634a27.259,27.259,0,0,0,14.4,22.838c4.794,2.4,10.585-.89,10.585-5.986V88.983C74.965,82.838,69,79.272,62.45,79Z" transform="translate(-14.168 -22.413)"/><path class="t" d="M51.519,109.665s-10.057-2.829-8.839-17.746c1.3-15.9,17.837-15.363,23.228-12.973,2.845,1.261,5.29,3.485,8.037,6.727,2.5,2.95-.15,4.321-3.13,7.213a18.82,18.82,0,0,0-4.054,6.731c-.96,2.587-2.806,3.658-3.786,6.159-.926,2.367-.829,5.8-3.214,5.742a24.965,24.965,0,0,1-8.242-1.854" transform="translate(-12.08 -22.042)"/><path class="j" d="M75.448,112.287c0,2.558-1.486,4.631-3.319,4.631a2.393,2.393,0,0,1-.587-.072c-1.553-.387-2.731-2.281-2.731-4.559,0-2.557,1.486-4.631,3.318-4.631s3.319,2.074,3.319,4.631" transform="translate(-19.524 -30.545)"/><path class="l" d="M47.409,99.37l4.825,1.418a2.619,2.619,0,0,0,3.242-1.769l.184-.625a2.621,2.621,0,0,0-1.77-3.242l-4.825-1.418A2.62,2.62,0,0,0,45.824,95.5l-.183.626a2.619,2.619,0,0,0,1.769,3.241" transform="translate(-12.919 -26.564)"/><path class="t" d="M48.877,98.647s5.1,13.591-1.649,27.359,4.992,32.884-1,41.376a70.743,70.743,0,0,0-5.957-14.021c-4.533-8.492-9.56-24.165-5-33.1S43.8,97.431,43.8,97.431c.445-1.337,3.5-1.2,5.081,1.216" transform="translate(-9.497 -27.404)"/></g></g><g transform="translate(-2212.477 819.797)"><g transform="translate(3448.477 501.203)"><g transform="translate(99.692 127.051)"><g class="u"><path class="v" d="M3622.361,720.542a11.143,11.143,0,0,1-4.079,1.564c-1.453.227-3.441.142-4.287-1.284,2.125,3.582,11.366,17.077,11.645,17.42,1.22,1.5,4.4,1.525,7.635-.406a5.683,5.683,0,0,0,3.024-4.912c-.016-.9-6.652-13.668-8.626-17l-1.413-2.381C3627.828,716.188,3624.305,719.348,3622.361,720.542Z" transform="translate(-3613.733 -712.367)"/><path class="w" d="M3624.013,718.67c2.815-2.535,3.311-5.506,1.108-6.639s-6.267,0-9.082,2.536-3.3,5.5-1.1,6.634S3621.2,721.2,3624.013,718.67Z" transform="translate(-3613.562 -711.592)"/></g></g><g transform="translate(87.355 108.165)"><g class="u"><path class="x" d="M3604.662,692.045a14.617,14.617,0,0,1-5.344,2.049c-1.9.3-4.509.185-5.617-1.682,2.784,4.693,14.892,22.375,15.258,22.824,1.6,1.961,5.76,2,10-.533a7.447,7.447,0,0,0,3.962-6.436c-.021-1.185-8.716-17.908-11.3-22.268l-1.85-3.12C3611.824,686.34,3607.208,690.479,3604.662,692.045Z" transform="translate(-3593.358 -681.333)"/><path class="y" d="M3606.826,689.591c3.688-3.321,4.338-7.213,1.451-8.7s-8.211,0-11.9,3.323-4.326,7.21-1.444,8.692S3603.145,692.905,3606.826,689.591Z" transform="translate(-3593.133 -680.318)"/></g></g><path class="x" d="M3451.385,897.15,3509.47,930.9a15.518,15.518,0,0,0,14.08,0l58.472-33.759c1.961-1.132,2.939-2.617,2.935-4.1l-.009-3.248c0,1.483-.974,2.968-2.935,4.1l-58.472,33.759a15.519,15.519,0,0,1-14.081,0L3451.376,893.9c-1.925-1.118-2.889-2.583-2.893-4.049l.01,3.248C3448.5,894.566,3449.46,896.031,3451.385,897.15Z" transform="translate(-3448.479 -655.132)"/><path class="l" d="M3509.062,922.075a15.518,15.518,0,0,0,14.08.145l58.816-33.157c1.972-1.112,2.965-2.586,2.977-4.069l.024-7.988c-.011,1.483-1,2.957-2.977,4.069l-58.816,33.157a15.516,15.516,0,0,1-14.08-.145l-57.734-34.349c-1.914-1.139-2.862-2.613-2.851-4.079l-.024,7.988c-.011,1.467.937,2.941,2.851,4.079Z" transform="translate(-3448.477 -649.531)"/><g transform="translate(0.024 187.28)"><path class="v" d="M3509.1,888.6a15.516,15.516,0,0,0,14.08.145L3582,855.593c3.923-2.212,3.973-5.859.121-8.15l-57.734-34.35a15.5,15.5,0,0,0-14.071-.149L3451.5,846.1c-3.923,2.212-3.982,5.864-.13,8.155Z" transform="translate(-3448.516 -811.329)"/></g><g transform="translate(21.695 182.536)"><g class="u"><g transform="translate(26.74)"><path class="l" d="M3540.541,804.156a3.484,3.484,0,0,0-3.506-.348l-8.352,4.853a3.483,3.483,0,0,1,3.506.348Z" transform="translate(-3528.683 -803.474)"/></g><g transform="translate(0 4.853)"><path class="l" d="M3514.649,812.193c-1.539-.888-3.1-.992-4.148.181l-26.1,29.141,35.225,20.338.116-40.885A11.021,11.021,0,0,0,3514.649,812.193Z" transform="translate(-3484.403 -811.511)"/></g><g transform="translate(30.245 0.683)"><path class="l" d="M3547.936,813.378a11.023,11.023,0,0,0-5.1-8.774l-8.352,4.853a11.021,11.021,0,0,1,5.1,8.774Z" transform="translate(-3534.488 -804.604)"/></g></g></g><g transform="translate(56.92 169.249)"><g class="u"><g transform="translate(16.859)"><path class="l" d="M3582.508,782.153A3.485,3.485,0,0,0,3579,781.8l-8.352,4.853a3.485,3.485,0,0,1,3.506.349Z" transform="translate(-3570.651 -781.47)"/></g><path class="z" d="M3576.43,835l.116-40.886-8.352,4.854a11.02,11.02,0,0,0-5.1-8.774c-1.539-.889-3.1-.992-4.148.181l-16.137,26.69-.079,36.076,25.344-13.287Z" transform="translate(-3542.734 -784.654)"/><g transform="translate(20.364 0.683)"><path class="l" d="M3589.9,791.375a11.021,11.021,0,0,0-5.1-8.774l-8.352,4.853a11.02,11.02,0,0,1,5.1,8.774Z" transform="translate(-3576.456 -782.601)"/></g></g></g><g transform="translate(32.295 55.826)"><g class="u"><g transform="translate(24.362 117.645)"><path class="l" d="M3560.234,788.461l-8.352,4.854-9.584,7.371,8.352-4.853Z" transform="translate(-3542.298 -788.461)"/></g><g transform="translate(16.61 45.002)"><path class="z" d="M3543.422,668.169l-8.352,4.853c-2.475,1.438-4.1,4.223-4.634,8.19-5.682,42.487,15.259,63.354,16.36,64.453l8.352-4.854c-1.1-1.1-22.043-21.965-16.36-64.452C3539.319,672.392,3540.946,669.607,3543.422,668.169Z" transform="translate(-3529.461 -668.169)"/></g><g transform="translate(19.572)"><path class="l" d="M3550.716,599.08l8.352-4.853a22.065,22.065,0,0,0-16.351,2.591l-8.352,4.853A22.065,22.065,0,0,1,3550.716,599.08Z" transform="translate(-3534.365 -593.647)"/></g><g transform="translate(35.923 0.579)"><path class="l" d="M3569.793,594.606l-8.352,4.854,12.635,7.121,8.352-4.853Z" transform="translate(-3561.441 -594.606)"/></g><g transform="translate(0 4.853)"><path class="l" d="M3536.733,647.806l13.648,7.863.132-46.284-12.636-7.121c-16.138-3.805-34.4,11.114-35.792,45.68-2.152,53.338,22.912,77.487,24.231,78.758l9.583-7.371c-1.1-1.1-22.042-21.966-16.36-64.453C3520.727,646.018,3527.38,643.059,3536.733,647.806Z" transform="translate(-3501.956 -601.684)"/></g><g transform="translate(48.427 7.7)"><path class="l" d="M3582.279,611.251l-.131,46.284,8.352-4.853.131-46.284Z" transform="translate(-3582.147 -606.398)"/></g><g transform="translate(48.558 7.7)"><path class="aa" d="M3590.716,606.4l-8.352,4.853,4.509,2.6,8.352-4.853Z" transform="translate(-3582.365 -606.398)"/></g><g transform="translate(52.936 10.303)"><path class="aa" d="M3589.745,615.562l-.131,46.284,8.352-4.853.131-46.284Z" transform="translate(-3589.614 -610.709)"/></g><g transform="translate(48.427 12.553)"><path class="aa" d="M3582.279,614.435l-.131,46.284,4.509,2.6.131-46.284Z" transform="translate(-3582.147 -614.435)"/></g></g></g><g transform="translate(24.772 147.367)"><path class="x" d="M3542.63,812.637a13.522,13.522,0,0,0,12.269,0l50.949-29.415c3.4-1.962,3.409-5.14.033-7.1l-50.61-29.412a13.506,13.506,0,0,0-12.261,0l-50.949,29.415c-3.4,1.963-3.417,5.144-.04,7.107Z" transform="translate(-3489.499 -745.235)"/><path class="x" d="M3492.028,808.63l50.61,29.412a13.522,13.522,0,0,0,12.269,0l50.949-29.415c1.708-.986,2.561-2.28,2.557-3.571l-.008-2.83c0,1.292-.848,2.586-2.557,3.572L3554.9,835.212a13.522,13.522,0,0,1-12.269,0L3492.02,805.8c-1.678-.975-2.517-2.251-2.521-3.529l.008,2.83C3489.51,806.38,3490.35,807.656,3492.028,808.63Z" transform="translate(-3489.499 -767.81)"/></g><g transform="translate(76.658 111.645)"><g transform="translate(1.481 12.461)"><g class="u"><g transform="translate(0.04 4.252)"><path class="v" d="M3595.028,718.577a15.137,15.137,0,0,1-13.584,2.1,5.228,5.228,0,0,1-3.224-2.849l5.584,20.515c.222,1.415,1.371,2.684,3.395,3.476a11.6,11.6,0,0,0,8.9-1.375c1.726-1.387,2.451-2.968,2.225-4.4l-1.039-21.228A5.269,5.269,0,0,1,3595.028,718.577Z" transform="translate(-3578.05 -714.177)"/><path class="v" d="M3609.738,713.758l.031.639A3.318,3.318,0,0,0,3609.738,713.758Z" transform="translate(-3590.534 -713.758)"/><path class="v" d="M3578.109,719.39l-.171-.627A3.27,3.27,0,0,0,3578.109,719.39Z" transform="translate(-3577.938 -715.741)"/></g><path class="w" d="M3594.89,715.369c3.43-2.756,2.906-6.279-1.171-7.875a15.149,15.149,0,0,0-13.584,2.1c-3.43,2.756-2.9,6.281,1.171,7.875A15.137,15.137,0,0,0,3594.89,715.369Z" transform="translate(-3577.872 -706.717)"/></g></g><g class="u"><g transform="translate(0 5.818)"><path class="x" d="M3575.514,696.481l-.095-.671A2.774,2.774,0,0,0,3575.514,696.481Z" transform="translate(-3575.419 -695.753)"/><path class="x" d="M3617,696.377a2.76,2.76,0,0,0,.086-.661Z" transform="translate(-3591.889 -695.716)"/><path class="x" d="M3582.329,722.923a18.492,18.492,0,0,0,11.67,0c2.485-1.15,3.726-2.657,3.721-4.163l2.87-21.95c-.308,1.278-1.514,2.521-3.634,3.5-4.938,2.284-12.908,2.284-17.814,0-2.068-.963-3.25-2.179-3.565-3.435l3.093,21.94C3578.674,720.3,3579.895,721.789,3582.329,722.923Z" transform="translate(-3575.481 -696.149)"/></g><path class="x" d="M3596.893,696.062c4.938-2.284,4.964-5.984.058-8.268s-12.875-2.285-17.814,0-4.958,5.987-.058,8.268S3591.955,698.347,3596.893,696.062Z" transform="translate(-3575.419 -686.082)"/></g></g><g transform="translate(57.112 62.29)"><g class="u"><path class="x" d="M3560.648,629.016l2.505-1.457c1.663-.966,2.7-3.023,2.7-5.948.017-5.876-4.116-13.034-9.23-15.987-2.579-1.489-4.913-1.627-6.6-.648l-2.506,1.456c1.685-.979,4.02-.841,6.6.648,5.114,2.953,9.247,10.111,9.229,15.987C3563.343,625.992,3562.312,628.049,3560.648,629.016Z" transform="translate(-3544.823 -604.351)"/><g transform="translate(0 1.456)"><path class="x" d="M3552.29,629.326c5.114,2.952,9.274.582,9.29-5.3s-4.115-13.034-9.229-15.987-9.282-.586-9.3,5.29S3547.167,626.368,3552.29,629.326Z" transform="translate(-3543.052 -606.762)"/></g></g></g><g transform="translate(52.723 87.938)"><g class="u"><path class="x" d="M3544.6,659.178l1.255-.729a3.253,3.253,0,0,0,1.354-2.98,10.19,10.19,0,0,0-4.623-8.007,3.277,3.277,0,0,0-3.3-.325l-1.255.729a3.276,3.276,0,0,1,3.3.324,10.189,10.189,0,0,1,4.623,8.007A3.251,3.251,0,0,1,3544.6,659.178Z" transform="translate(-3536.671 -646.824)"/><g transform="translate(0 0.729)"><path class="x" d="M3545.064,656.676a10.188,10.188,0,0,0-4.623-8.008c-2.565-1.481-4.649-.294-4.657,2.65a10.193,10.193,0,0,0,4.627,8.014C3542.973,660.812,3545.056,659.625,3545.064,656.676Z" transform="translate(-3535.784 -648.031)"/></g></g></g><g transform="translate(45.343 90.753)"><g class="u"><path class="x" d="M3528.871,663.877l9.172-5.385a1.963,1.963,0,0,0,.816-1.8,6.132,6.132,0,0,0-2.782-4.825,1.974,1.974,0,0,0-1.99-.2l-9.172,5.385a1.973,1.973,0,0,1,1.99.2,6.131,6.131,0,0,1,2.783,4.825A1.961,1.961,0,0,1,3528.871,663.877Z" transform="translate(-3524.098 -651.486)"/><g transform="translate(0 5.386)"><path class="x" d="M3529.151,665.613a6.131,6.131,0,0,0-2.783-4.825c-1.544-.891-2.8-.176-2.806,1.6a6.146,6.146,0,0,0,2.788,4.828C3527.9,668.107,3529.146,667.387,3529.151,665.613Z" transform="translate(-3523.563 -660.404)"/></g></g></g><g transform="translate(65.354 119.833)"><g transform="translate(0 16.761)"><g class="u"><path class="v" d="M3556.723,756.207c-.209.874,1.008,2.075,3.527,3.236,4.024,1.856,5.154,1.777,8.312,1.217,1.187-.211,1.828-.618,1.954-1.144l8.322-25.539c-.126.526-.768.934-1.954,1.144-3.158.56-8.988-.489-13.013-2.344-2.518-1.161-3.736-2.362-3.526-3.236Z" transform="translate(-3556.7 -728.245)"/><g transform="translate(3.621)"><path class="w" d="M3579.258,734.271c3.157-.56,2.46-2.521-1.565-4.376s-9.864-2.908-13.021-2.348-2.459,2.521,1.573,4.38S3576.1,734.831,3579.258,734.271Z" transform="translate(-3562.696 -727.396)"/></g></g></g><g transform="translate(1.504)"><g class="u"><path class="x" d="M3559.218,729.316c-.258,1.077,1.242,2.557,4.347,3.989,4.961,2.287,6.355,2.19,10.246,1.5,1.463-.26,2.254-.763,2.41-1.411l10.171-28.287c-.155.649-.86-2.045-2.322-1.786-3.892.691-11.167,2.594-16.128.307-3.1-1.431-4.605-2.911-4.347-3.989Z" transform="translate(-3559.19 -699.64)"/></g></g></g><g transform="translate(59.414 102.648)"><g transform="translate(2.838 7.771)"><path class="l" d="M3605.069,697.6c-.018.147-.036.293-.065.441-.019.1-.044.2-.068.294-.035.142-.073.286-.119.429-.032.1-.069.2-.106.3-.054.146-.114.292-.179.438-.045.1-.09.2-.141.3-.078.158-.164.318-.255.477-.053.094-.1.188-.163.283-.127.208-.269.417-.417.626-.038.053-.07.106-.109.159-.2.274-.425.548-.664.822-.06.068-.125.136-.186.2q-.335.37-.713.741c-.074.072-.146.145-.223.217q-.568.536-1.229,1.069c-.1.08-.2.159-.3.239q-.376.294-.782.585c-.115.083-.228.166-.346.249-.383.268-.779.533-1.2.8l-.015.01q-.546.342-1.13.681c-.758.437-1.552.851-2.364,1.251-.257.127-.526.245-.789.368-.571.267-1.149.528-1.742.777-.291.122-.586.24-.882.357q-1.126.449-2.294.853c-.248.086-.49.177-.74.26-.337.112-.68.214-1.021.32-.471.146-.94.293-1.417.428-.241.069-.485.133-.729.2-.559.151-1.121.3-1.687.432-.2.049-.4.1-.6.145-.743.172-1.489.333-2.238.477-.11.022-.219.039-.329.06q-1.009.19-2.02.345c-.166.026-.332.052-.5.077q-1.118.164-2.232.287c-.135.015-.271.027-.406.04q-.982.1-1.955.167c-.149.01-.3.023-.446.032q-1.1.067-2.178.089c-.171,0-.34,0-.511,0q-.844.009-1.668-.011c-.231-.005-.463-.011-.693-.02-.489-.019-.969-.05-1.447-.085-.263-.019-.529-.033-.788-.057-.331-.03-.648-.075-.972-.113-.458-.054-.917-.108-1.36-.178s-.872-.152-1.3-.237c-.214-.043-.435-.08-.644-.127-.639-.144-1.261-.3-1.854-.485-4.265-1.309-6.631-3.413-7.129-5.875l1.062,5.251c.5,2.463,2.864,4.566,7.129,5.875.594.182,1.215.341,1.854.485.21.047.431.084.646.127.339.068.67.143,1.019.2.09.015.188.022.277.036.444.069.9.123,1.36.178.249.029.486.071.738.1.077.007.157.01.234.017.258.024.524.038.787.057.332.024.657.056.994.072.149.007.3.007.454.013.229.009.46.014.692.02s.456.017.688.019c.324,0,.653,0,.98-.008.171,0,.339,0,.512,0,.082,0,.161,0,.243,0q.833-.021,1.681-.069c.084,0,.169-.013.253-.018.148-.009.3-.022.446-.032.317-.022.633-.04.952-.068s.668-.065,1-.1c.136-.014.27-.025.406-.04l.226-.023q.818-.092,1.641-.208c.122-.017.244-.039.365-.057.166-.024.332-.051.5-.077.266-.041.532-.078.8-.123.408-.068.814-.146,1.222-.222.109-.021.219-.039.329-.06l.137-.025q.869-.169,1.734-.364c.123-.027.245-.06.367-.088.2-.047.4-.1.6-.145.278-.067.559-.13.835-.2s.568-.156.853-.232c.242-.066.484-.13.725-.2.126-.036.255-.068.382-.1.35-.1.692-.217,1.04-.326s.681-.207,1.017-.319c.084-.027.17-.051.254-.079.166-.056.322-.124.487-.181q1.167-.4,2.295-.853c.156-.062.322-.114.478-.178.139-.057.267-.123.4-.18.593-.249,1.17-.51,1.743-.777.263-.123.531-.242.789-.368.813-.4,1.607-.814,2.363-1.251q.585-.337,1.129-.68h0l.022-.015c.416-.261.808-.525,1.188-.79.12-.083.233-.168.349-.251.269-.194.529-.388.78-.584.064-.05.137-.1.2-.15.037-.03.065-.059.1-.089q.66-.532,1.228-1.068c.027-.025.061-.05.087-.076.05-.048.089-.1.138-.144q.379-.37.713-.74c.041-.046.091-.091.132-.137.019-.022.034-.043.053-.066.238-.275.462-.55.665-.824l.018-.022c.033-.045.057-.089.089-.135.15-.21.291-.419.419-.628.018-.028.04-.056.057-.085.04-.066.068-.131.105-.2.09-.159.177-.319.255-.477.021-.044.05-.089.071-.133s.044-.113.069-.17c.064-.147.125-.293.178-.439.021-.056.05-.114.069-.17s.023-.09.038-.135c.046-.144.084-.287.119-.429.016-.065.041-.13.054-.2.007-.033.008-.066.015-.1.029-.148.047-.295.064-.441.008-.069.025-.139.031-.208,0-.021,0-.041,0-.062.012-.184.011-.365,0-.545,0-.047,0-.095,0-.141l0-.019a5.016,5.016,0,0,0-.087-.658v0l-1.062-5.251a4.8,4.8,0,0,1,.087.659c0,.053,0,.107,0,.161a5.217,5.217,0,0,1,0,.545C3605.094,697.421,3605.08,697.511,3605.069,697.6Z" transform="translate(-3551.627 -688.771)"/><path class="aa" d="M3596.593,702.251c10.773-6.22,11.332-13.779,1.232-16.879s-27.029-.562-37.8,5.658-11.333,13.779-1.233,16.879S3585.812,708.476,3596.593,702.251Z" transform="translate(-3551.562 -684.051)"/></g><path class="x" d="M3604.011,691.643c-.017.147-.036.293-.064.441-.019.1-.045.2-.069.294-.035.143-.073.286-.119.429-.032.1-.069.2-.106.3-.054.146-.114.292-.179.438-.045.1-.091.2-.141.3-.078.158-.164.317-.255.476-.054.094-.1.188-.163.283-.127.208-.269.417-.418.626-.037.052-.07.106-.109.158-.2.274-.425.548-.664.823-.059.068-.125.136-.186.2q-.334.37-.713.741c-.074.072-.147.146-.223.218q-.567.535-1.229,1.069c-.1.08-.2.159-.3.239q-.377.294-.782.585c-.115.083-.228.166-.346.249-.383.267-.779.533-1.2.8l-.015.01q-.545.342-1.131.681c-.757.437-1.551.851-2.364,1.251-.258.127-.526.245-.789.368-.571.268-1.15.528-1.742.777-.291.122-.586.24-.882.358q-1.127.448-2.294.853c-.248.086-.491.177-.741.26-.336.111-.679.214-1.02.319-.47.146-.94.293-1.417.428-.241.069-.485.133-.728.2q-.84.227-1.686.432c-.2.049-.4.1-.6.146-.743.172-1.49.332-2.238.477-.11.021-.22.039-.33.06q-1.008.189-2.019.345l-.5.077q-1.118.164-2.231.287l-.406.04q-.983.1-1.955.167c-.149.01-.3.022-.446.031q-1.1.067-2.178.089c-.171,0-.341,0-.511,0q-.843.009-1.668-.011c-.232-.005-.463-.011-.693-.019-.49-.019-.969-.051-1.448-.085-.263-.019-.528-.034-.787-.057-.331-.03-.648-.075-.972-.113-.458-.054-.917-.107-1.36-.178s-.872-.152-1.3-.237c-.214-.043-.435-.08-.645-.127-.638-.143-1.26-.3-1.854-.485-4.265-1.309-6.631-3.412-7.129-5.875l1.062,5.251c.5,2.463,2.864,4.566,7.129,5.875.594.182,1.215.341,1.854.485.209.047.431.084.646.127.339.068.67.143,1.019.2.09.015.187.022.277.036.443.07.9.124,1.361.178.249.029.485.072.738.1.076.008.157.01.234.017.259.024.525.038.788.057.331.023.657.056.994.071.149.007.3.007.453.013.229.009.461.014.693.019s.455.017.687.019c.324,0,.653,0,.981-.008.17,0,.339,0,.511,0,.082,0,.162,0,.244,0q.833-.022,1.681-.069c.083,0,.168-.013.253-.018.148-.009.3-.021.446-.031.317-.022.633-.041.952-.068s.668-.066,1-.1c.135-.015.27-.026.406-.04.075-.008.15-.014.225-.023q.819-.092,1.641-.208c.122-.017.243-.039.365-.056.166-.024.331-.051.5-.077.266-.041.531-.078.8-.123.408-.068.815-.146,1.222-.222.109-.021.219-.039.329-.06l.138-.025q.869-.169,1.733-.364c.123-.028.245-.06.368-.088.2-.047.4-.1.605-.146.278-.067.559-.129.835-.2s.568-.155.852-.232c.243-.065.484-.129.725-.2.127-.036.256-.067.382-.1.351-.1.693-.218,1.04-.326s.681-.207,1.016-.318c.084-.028.17-.051.254-.08.166-.056.322-.124.487-.181q1.167-.405,2.295-.853c.157-.062.323-.114.478-.178.138-.057.266-.123.4-.18.593-.249,1.17-.51,1.742-.777.263-.123.531-.242.789-.368.813-.4,1.606-.814,2.364-1.251q.585-.337,1.129-.68h0l.022-.015c.415-.261.808-.525,1.188-.79.12-.083.234-.167.35-.251q.4-.291.78-.584c.064-.049.137-.1.2-.149.037-.03.066-.06.1-.089q.66-.533,1.228-1.068c.027-.025.061-.051.087-.076.05-.048.089-.1.138-.143q.379-.371.713-.741c.041-.046.091-.091.132-.137.02-.022.034-.043.052-.066.239-.275.463-.55.665-.824l.018-.022c.033-.045.057-.089.089-.135.15-.21.291-.419.419-.627.018-.028.04-.057.057-.085.039-.066.067-.131.1-.2.091-.159.177-.318.255-.477.022-.044.05-.089.071-.132s.044-.114.069-.171q.1-.22.179-.439c.021-.056.05-.113.069-.169s.023-.09.038-.135c.046-.144.084-.287.119-.429.016-.065.041-.131.054-.2.007-.033.008-.065.014-.1.029-.148.048-.295.065-.441.008-.069.025-.139.031-.208,0-.021,0-.041,0-.062a5.352,5.352,0,0,0,0-.545c0-.047,0-.095,0-.141,0-.007,0-.013,0-.019a5.027,5.027,0,0,0-.086-.658v0l-1.062-5.251a5.151,5.151,0,0,1,.087.66c0,.052,0,.107,0,.16.006.181.007.362,0,.545C3604.036,691.463,3604.022,691.553,3604.011,691.643Z" transform="translate(-3548.37 -678.639)"/><ellipse class="x" cx="27.184" cy="11.607" rx="27.184" ry="11.607" transform="matrix(0.98, -0.198, 0.198, 0.98, 0, 10.772)"/></g><g transform="translate(70.865 31.829)"><g class="u"><g transform="translate(0 9.878)"><path class="l" d="M3595.2,649.487c3.381-1.952,5.07-4.512,5.063-7.068l-.157-72.15c.007,2.556-1.682,5.117-5.062,7.069-6.719,3.879-17.563,3.879-24.238,0-3.313-1.925-4.973-4.446-4.98-6.971v76.45c.007,2.525,1.463,4.1,4.775,6.024C3578.981,655.789,3588.483,653.366,3595.2,649.487Z" transform="translate(-3565.826 -570.268)"/></g><g class="ab" transform="translate(0 9.975)"><path d="M3565.826,570.429V573.8a3.879,3.879,0,0,1,.656-.683A6.141,6.141,0,0,1,3565.826,570.429Z" transform="translate(-3565.826 -570.429)"/></g><path class="l" d="M3595.043,570.858c6.719-3.879,6.754-10.16.079-14.04s-17.519-3.879-24.238,0-6.745,10.165-.079,14.039S3588.325,574.736,3595.043,570.858Z" transform="translate(-3565.826 -553.91)"/></g></g><g transform="translate(69.221 174.032)"><g class="u"><path class="x" d="M3565.48,794.041a12.583,12.583,0,0,1,11.41,0,5.3,5.3,0,0,1,1.826,1.65c1.072-1.659.471-3.6-1.826-4.936a12.579,12.579,0,0,0-11.41,0c-2.325,1.342-2.943,3.3-1.862,4.965A5.345,5.345,0,0,1,3565.48,794.041Z" transform="translate(-3563.103 -789.39)"/><path class="z" d="M3577.2,799.524a1.671,1.671,0,1,0,.03-3.324,12.583,12.583,0,0,0-11.41,0,1.673,1.673,0,1,0-.037,3.328A12.582,12.582,0,0,0,3577.2,799.524Z" transform="translate(-3563.441 -791.545)"/></g></g><g transform="translate(70.865 31.829)"><g class="u"><g transform="translate(0 9.878)"><path class="x" d="M3565.853,570.956l-.027-.527C3565.827,570.6,3565.837,570.781,3565.853,570.956Z" transform="translate(-3565.826 -570.332)"/><path class="x" d="M3570.981,580.355c6.675,3.879,17.519,3.879,24.237,0,3.381-1.952,5.07-4.512,5.063-7.068l-.158-3.019c.007,2.556-1.682,5.117-5.062,7.069-6.719,3.879-17.562,3.879-24.237,0-3.082-1.791-4.732-4.1-4.953-6.444l.13,2.492C3566.008,575.909,3567.668,578.43,3570.981,580.355Z" transform="translate(-3565.844 -570.268)"/></g><path class="x" d="M3595.043,570.858c6.719-3.879,6.754-10.16.079-14.04s-17.519-3.879-24.238,0-6.745,10.165-.079,14.039S3588.325,574.736,3595.043,570.858Z" transform="translate(-3565.826 -553.91)"/></g></g><g transform="translate(76.196 5.433)"><g class="u"><g transform="translate(0 6.82)"><path class="x" d="M3578.2,552.882c4.608,2.679,12.095,2.679,16.734,0,2.334-1.348,3.5-3.115,3.495-4.881l-.109-26.508c.005,1.765-1.161,3.533-3.5,4.881-4.638,2.678-12.125,2.678-16.734,0-2.287-1.329-3.434-3.07-3.438-4.813l.109,26.508C3574.767,549.813,3575.913,551.553,3578.2,552.882Z" transform="translate(-3574.653 -521.494)"/></g><path class="x" d="M3594.825,521.9c4.639-2.678,4.664-7.015.055-9.694s-12.1-2.678-16.734,0-4.657,7.018-.055,9.693S3590.187,524.579,3594.825,521.9Z" transform="translate(-3574.653 -510.2)"/></g></g><g transform="translate(74.955)"><g class="u"><g transform="translate(0 7.532)"><path class="x" d="M3576.516,523.5c5.09,2.957,13.358,2.957,18.48,0,2.578-1.489,3.866-3.44,3.86-5.39l-.12-4.439c.005,1.949-1.282,3.9-3.86,5.39-5.123,2.958-13.391,2.958-18.481,0-2.525-1.468-3.791-3.39-3.8-5.315l.12,4.439C3572.725,520.114,3573.991,522.036,3576.516,523.5Z" transform="translate(-3572.599 -513.675)"/></g><path class="x" d="M3594.876,514.124c5.123-2.958,5.15-7.747.061-10.7s-13.358-2.958-18.481,0-5.143,7.75-.061,10.7S3589.753,517.082,3594.876,514.124Z" transform="translate(-3572.598 -501.203)"/><g transform="translate(4.021 2.324)"><path class="x" d="M3581.921,508.912a14.113,14.113,0,0,1,12.807,0,5.3,5.3,0,0,1,2.4,2.531c.663-1.693-.13-3.537-2.4-4.856a14.115,14.115,0,0,0-12.807,0c-2.3,1.327-3.1,3.185-2.439,4.887A5.353,5.353,0,0,1,3581.921,508.912Z" transform="translate(-3579.258 -505.051)"/></g></g></g></g><path class="ac" d="M3594.834,515.53a5.358,5.358,0,0,0,2.441-2.562,5.3,5.3,0,0,0-2.4-2.531,14.113,14.113,0,0,0-12.807,0A5.354,5.354,0,0,0,3579.63,513a5.292,5.292,0,0,0,2.4,2.531A14.105,14.105,0,0,0,3594.834,515.53Z" transform="translate(-51.952 -3.049)"/><path class="ad" d="M3583.9,516.342a22.517,22.517,0,0,1,12.583-4.616,6.49,6.49,0,0,0-1.609-1.29,14.113,14.113,0,0,0-12.807,0A5.354,5.354,0,0,0,3579.63,513a5.292,5.292,0,0,0,2.4,2.531A10.276,10.276,0,0,0,3583.9,516.342Z" transform="translate(-51.952 -3.049)"/></g></g></svg>