<svg xmlns="http://www.w3.org/2000/svg" xmlns:xlink="http://www.w3.org/1999/xlink" width="925.397" height="653.246" viewBox="0 0 925.397 653.246">
  <defs>
    <clipPath id="clip-path">
      <rect id="Rettangolo_147558" data-name="Rettangolo 147558" width="925.397" height="653.246" fill="none"/>
    </clipPath>
  </defs>
  <g id="Raggruppa_22089" data-name="Raggruppa 22089" transform="translate(0 0.001)">
    <g id="Raggruppa_22086" data-name="Raggruppa 22086" transform="translate(0 -0.001)">
      <g id="Raggruppa_22085" data-name="Raggruppa 22085" transform="translate(0 0)" clip-path="url(#clip-path)">
        <path id="Tracciato_62771" data-name="Tracciato 62771" d="M250.915,614.507c-43.537-1.3-79.065-21.825-113.1-49-23.717-18.94-42.384-44.331-50.686-73.754-9.69-34.339-7.5-72.775,10.252-103.727,10.566-18.425,26.074-33.558,37.377-51.54,22.81-36.292,26.737-80.822,37.4-122.34,8.9-34.673,23.193-68.593,46.539-95.731s56.537-46.965,92.266-49.177c40.031-2.478,80.048,16.711,119.4,8.984,23.83-4.679,44.542-18.734,65.483-31.031C541.888,20.153,593.554.129,646.944,0,690.375-.108,718.8,20.73,739.47,58.38c13.915,25.341,23.522,53.257,41.088,76.219a134.406,134.406,0,0,0,62.516,45.092c21.189,7.3,43.992,9.2,64.98,17.065,57.5,21.536,91.3,88.5,81.932,149.184-3.421,22.157-11.68,43.327-15.428,65.432-7.871,46.424,4.511,93.828,3.29,140.9-.337,12.981-1.789,26.223-7.312,37.976s-15.707,21.9-28.405,24.62c-8.695,1.862-17.769.164-26.267-2.454-36.912-11.371-68.017-31.125-107.582-33.227-45.4-2.412-91.961,16.39-135.164,27.677-44.664,11.669-92.959,19.12-136.246,3.079-15.916-5.9-30.714-14.843-47.147-19.1-32.07-8.3-65.564,2.141-97.833,9.634a551.572,551.572,0,0,1-140.979,14.03" transform="translate(-66.141 0.002)" fill="#dfe9ff"/>
        <path id="Tracciato_62772" data-name="Tracciato 62772" d="M295.6,2063.7s-36.449,29.7-66.926,46.264c-18.641,10.134-42.228,107.782-51.7,134.916H0c20.552-36.214,96.821-206.589,106-250.2,12.634-59.983,89.289-24.9,89.289-24.9Z" transform="translate(0 -1591.63)" fill="#faa1a0"/>
        <path id="Tracciato_62773" data-name="Tracciato 62773" d="M858.149,2241.138S874,2221.222,874,2183.1l3.528,40.885s-2.795,14.01-19.375,17.149" transform="translate(-697.016 -1773.186)" fill="#9a644a"/>
        <path id="Tracciato_62774" data-name="Tracciato 62774" d="M1014.248,1126.861c-19.283-12.761-124.9,82.451-161.48,116.443-26.727,22.664-40.41-26.156-65.79-10.836-22.744,18.963,11.98,50.5,16.6,73.888-2.367,10.315,45.019,12.06,51.875,18.635,63.291,21.764,72.764,41.638,80.174,35.311,11.035-10.6,17.808-31.606,11.356-40.306-7.995-12.552-5.839-2.522-10.177-18.908-5.879-20.7-17.622-57.619-15.81-54.413,77.7-76.682,119.287-102.427,93.256-119.815" transform="translate(-632.989 -914.323)" fill="#faa1a0"/>
        <path id="Tracciato_62775" data-name="Tracciato 62775" d="M942.546,1060.2V763.424a23.088,23.088,0,0,1,23.088-23.088h136.14a23.088,23.088,0,0,1,23.088,23.088V1060.2a23.088,23.088,0,0,1-23.088,23.088H965.634a23.088,23.088,0,0,1-23.088-23.088" transform="translate(-765.566 -601.324)" fill="#253858"/>
        <path id="Rettangolo_147557" data-name="Rettangolo 147557" d="M80.3,0H86a80.3,80.3,0,0,1,80.3,80.3v166.34a80.3,80.3,0,0,1-80.3,80.3H80.3A80.3,80.3,0,0,1,0,246.634V80.3A80.3,80.3,0,0,1,80.3,0Z" transform="translate(184.991 147.023)" fill="#b2d4ff"/>
        <path id="Tracciato_62776" data-name="Tracciato 62776" d="M1161.718,811.488v296.784a11.841,11.841,0,0,1-1.46,5.716,12.1,12.1,0,0,1-5.767,5.271c-.362.155-.735.3-1.118.425a11.869,11.869,0,0,1-3.6.559H1013.627a11.5,11.5,0,0,1-2.941-.373c-.321-.083-.642-.176-.963-.29a11.96,11.96,0,0,1-8.087-11.307V811.488a11.989,11.989,0,0,1,11.97-11.97h136.142a11.989,11.989,0,0,1,11.97,11.97" transform="translate(-813.56 -649.394)" fill="#deebff"/>
        <path id="Tracciato_62777" data-name="Tracciato 62777" d="M582.324,1526.993c-9.226,38.188-57.512,69.469-72.443,26.642-18.752-51.2,17.346-143.826,58.951-195.857.311-.435,1.74-2.485,2.133-3.055,5.281-7.714,9.081-14.279,12.591-18.089a17.988,17.988,0,0,1,1.5-1.47c3.21-2.775,6.326-2.961,10.3.756,19.1,17.686-11.3,62.926-11.618,85.239-.515,36.346,8.014,66.756-1.419,105.835" transform="translate(-410.009 -1082.788)" fill="#faa1a0"/>
        <path id="Tracciato_62778" data-name="Tracciato 62778" d="M1768.3,1623.044c3.81-28.129,70.5-45.248,53.665-3.36.118.011,16.3,15.492.516,37.558,44.538,50.856-74.939,73.056-35.519,21.786,0,0-33.6-10.648-1.808-39.575,0,0-18.741.825-16.854-16.408" transform="translate(-1436.162 -1295.155)" fill="#faa1a0"/>
        <path id="Tracciato_62779" data-name="Tracciato 62779" d="M1867.4,1747.579a1.183,1.183,0,0,1-.569-2.221l31.9-17.449a1.183,1.183,0,0,1,1.135,2.076l-31.9,17.449a1.18,1.18,0,0,1-.567.145" transform="translate(-1515.801 -1403.345)" fill="#9a644a"/>
        <path id="Tracciato_62780" data-name="Tracciato 62780" d="M1875.615,1950.681a1.183,1.183,0,0,1-.6-2.2l31.328-18.506a1.183,1.183,0,1,1,1.2,2.037l-31.328,18.506a1.175,1.175,0,0,1-.6.165" transform="translate(-1522.472 -1567.451)" fill="#9a644a"/>
        <path id="Tracciato_62781" data-name="Tracciato 62781" d="M1217.837,2054.933H1110.293a6.678,6.678,0,0,1-6.678-6.678v-19.534a6.678,6.678,0,0,1,6.678-6.678h107.544a6.678,6.678,0,0,1,6.678,6.678v19.534a6.678,6.678,0,0,1-6.678,6.678" transform="translate(-896.391 -1642.367)" fill="#0065ff"/>
        <path id="Tracciato_62782" data-name="Tracciato 62782" d="M1214.418,1198.96H1113.712a10.1,10.1,0,0,1-10.1-10.1V1035.58a10.1,10.1,0,0,1,10.1-10.1h100.705a10.1,10.1,0,0,1,10.1,10.1v153.282a10.1,10.1,0,0,1-10.1,10.1" transform="translate(-896.391 -832.93)" fill="#fff"/>
        <path id="Tracciato_62783" data-name="Tracciato 62783" d="M1494.594,2320.944a3.859,3.859,0,1,1,3.859,3.859,3.859,3.859,0,0,1-3.859-3.859" transform="translate(-1213.957 -1882.01)" fill="#b2d4ff"/>
        <path id="Tracciato_62784" data-name="Tracciato 62784" d="M1406.126,2320.944a3.859,3.859,0,1,1,3.859,3.859,3.859,3.859,0,0,1-3.859-3.859" transform="translate(-1142.1 -1882.01)" fill="#2684ff"/>
        <path id="Tracciato_62785" data-name="Tracciato 62785" d="M1317.657,2320.944a3.859,3.859,0,1,1,3.859,3.859,3.86,3.86,0,0,1-3.859-3.859" transform="translate(-1070.243 -1882.01)" fill="#b2d4ff"/>
        <path id="Tracciato_62786" data-name="Tracciato 62786" d="M1131.249,890.194h-36.234a1.988,1.988,0,1,1,0-3.976h36.234a1.988,1.988,0,0,1,0,3.976" transform="translate(-887.791 -719.814)" fill="#b2d4ff"/>
        <path id="Tracciato_62787" data-name="Tracciato 62787" d="M1161.813,943.835h-66.8a1.988,1.988,0,0,1,0-3.976h66.8a1.988,1.988,0,0,1,0,3.976" transform="translate(-887.792 -763.383)" fill="#b2d4ff"/>
      </g>
    </g>
    <text id="APPROVA" transform="translate(225.341 400.89)" fill="#fff" font-size="15" font-family="OpenSans-Bold, Open Sans" font-weight="700"><tspan x="0" y="0">APPROVA</tspan></text>
    <g id="Raggruppa_22088" data-name="Raggruppa 22088" transform="translate(0 -0.001)">
      <g id="Raggruppa_22087" data-name="Raggruppa 22087" transform="translate(0 0)" clip-path="url(#clip-path)">
        <path id="Tracciato_62788" data-name="Tracciato 62788" d="M1627.533,2311.785h-196.9c-2.871-8.628-5.788-17.618-7.87-24.479-5.678-18.738-12.208-36.719-17.933-48.548s-20.394-30.614-14.716-37.554c5.678-6.924,18.134-6.067,29.653,2.421,6.743,4.968,12.047,11.641,20.583,30.875-.316-2.382-10.725-71.638-11.072-83.279-.363-11.829-5.063-59.936-5.615-70.062-1.009-18.138-7.618-37.617,9.464-39.132s17.555,21.088,21.34,36.513,17.192,75.362,20.347,87.648c6.388,24.905,10.347,43.8,16.088,47.917,4.7,3.359-5.754-42.23,15.11-45.662,21.285-3.5,25.426,14.007,25.426,14.007s8.2-8.218,19.558-5.063c11.356,3.17,20.82,23.817,20.82,23.817s10.41-5.505,17.981,5.378,15.78,30.96,23.028,51.576c2.446,6.958,9.7,32.7,14.716,53.627" transform="translate(-1128.048 -1658.539)" fill="#faa1a0"/>
        <path id="Tracciato_62789" data-name="Tracciato 62789" d="M3887.626,487.876c1.1-10.281-1.279-22.311-11.044-28.2-22.04-13.3-43.063-14.514-64.051-11.561-24.005,3.378-39.678,17.18-26.24,57.643l50.875-6.694,20.9,24.677L3877,531.97s9.674-35.117,10.63-44.094" transform="translate(-3071.328 -362.891)" fill="#260e14"/>
        <path id="Tracciato_62790" data-name="Tracciato 62790" d="M3884.19,646.508a1.825,1.825,0,0,1-2.493-1.814c.183-4.2.222-12.381-2.623-20.033a24.175,24.175,0,0,0-11.963-13.364c-6.753-3.27-53.407-12.982-60.32,3.548-.487,1.012-3.785,6.136-3.542,23.169a183.817,183.817,0,0,0,4.885,38.914c5.832,22.542,24.927,26.166,24.927,26.166l-.147,11.97c-.027,3.561-4.488,8.952-4.488,8.952l10.045,28.361a9.324,9.324,0,0,0,16.44,2.217l28.05-40.262,0-.008c-.726-10.14-1.041-19.663-.748-39.152,7.385,1.3,20.9-1,21.682-17.577-.016-.146.044-.3.029-.447.4-14.372-13.588-13.187-19.735-10.641" transform="translate(-3089.108 -491.789)" fill="#f08282"/>
        <path id="Tracciato_62791" data-name="Tracciato 62791" d="M3961.451,1075.774c26.405-1.522,30.741-22.223,30.741-22.223-15.734,16.484-30.648,13.515-30.648,13.515Z" transform="translate(-3217.616 -855.727)" fill="#9a644a"/>
        <path id="Tracciato_62792" data-name="Tracciato 62792" d="M4225.635,870.823a1.023,1.023,0,0,1-.934-1.439,23.907,23.907,0,0,1,11.128-11.551,1.023,1.023,0,1,1,.9,1.836,21.834,21.834,0,0,0-10.162,10.548,1.023,1.023,0,0,1-.935.607" transform="translate(-3431.364 -696.673)" fill="#9a644a"/>
        <path id="Tracciato_62793" data-name="Tracciato 62793" d="M4245.806,897.706a1.017,1.017,0,0,1-.514-.14,23.905,23.905,0,0,0-4.526-1.065c-.858-.153-1.6-.284-2.053-.4a1.023,1.023,0,1,1,.509-1.981c.38.1,1.12.229,1.9.369a20.2,20.2,0,0,1,5.2,1.312,1.023,1.023,0,0,1-.516,1.906" transform="translate(-3442.192 -726.206)" fill="#9a644a"/>
        <path id="Tracciato_62794" data-name="Tracciato 62794" d="M3715.759,1419.793c-2.965,38.989-4.227,93.894-1.687,117.363,3.075,28.233,4.905,91.04,4.905,91.04H3515.889l10.426-248.733-5.93-136.8,70.361-36.86s15.41,38.942,19.29,39.463c4.969.662,41.939-46.75,45.867-44.873,8.391,4.1,23.722,11.625,36.7,18.3,19.006,9.826,32.508,26.371,34.968,42.964.567,3.9.567,11.53.157,21.4-1.246,31.923-6.687,87.285-9.984,115.423-.71,6.2-1.388,13.423-1.988,21.309" transform="translate(-2855.716 -974.956)" fill="#fff"/>
        <path id="Tracciato_62795" data-name="Tracciato 62795" d="M3953.041,1187.446c-24.441,43.075-71.3,156.345-71.3,156.345-.511-41.725,6.136-150.945,6.136-150.945l7.957-4.172s8.324,35.957,12.21,36.468c4.95.675,32.807-35.466,38.636-40.764Z" transform="translate(-3152.85 -961.989)" fill="#8777d9"/>
        <path id="Tracciato_62796" data-name="Tracciato 62796" d="M3775.385,1442.559a.789.789,0,0,1-.77-.619l-17.794-80.839a.789.789,0,0,1,.237-.751l17.017-15.616-16.891-10.166a.789.789,0,0,1-.3-1.02c.677-1.394,16.6-34.154,17.847-36.018a.789.789,0,0,1,1.313.875c-.93,1.4-11.622,23.249-17.426,35.184l17.177,10.337a.79.79,0,0,1,.127,1.257l-17.46,16.021,17.7,80.4a.789.789,0,0,1-.6.94.779.779,0,0,1-.17.019" transform="translate(-3051.394 -1053.61)" fill="#deebff"/>
        <path id="Tracciato_62797" data-name="Tracciato 62797" d="M3889.793,1410.5a.789.789,0,0,1-.614-1.283l57.7-71.8-14.16-19.263a.789.789,0,0,1,.333-1.2l28.514-11.814-3.376-49.341a.789.789,0,0,1,1.574-.108l3.414,49.906a.788.788,0,0,1-.485.782l-28.109,11.646,13.923,18.941a.788.788,0,0,1-.021.961l-58.075,72.276a.788.788,0,0,1-.615.295" transform="translate(-3158.773 -1019.317)" fill="#deebff"/>
        <path id="Tracciato_62798" data-name="Tracciato 62798" d="M3752.4,1749.48c-1.269,31.948-21.863,146.1-34.974,155.121-30.373,20.883-158.987,40.509-158.987,40.509l-5.463-17.779,52.673-23.037,68.518-31.743,40.5-112.656Z" transform="translate(-2885.841 -1420.983)" fill="#deebff"/>
        <path id="Tracciato_62799" data-name="Tracciato 62799" d="M3827.494,2682.886a.788.788,0,0,1-.788-.777c-.014-.878-1.322-88.686,0-160.579a.788.788,0,0,1,.788-.774h.015a.788.788,0,0,1,.774.8c-1.321,71.866-.013,159.648,0,160.526a.788.788,0,0,1-.776.8h-.012" transform="translate(-3107.692 -2047.438)" fill="#deebff"/>
        <path id="Tracciato_62800" data-name="Tracciato 62800" d="M4201.02,2847.895c-9.306,0-18.573-.27-27.687-.535-2.855-.083-6.767-.2-9.548-2.116-2.53-1.747-3.576-4.526-4.329-7.268q-.173-.63-.353-1.278c-2.458-8.9-5.516-19.968-.643-26.637,2.531-3.464,7-5.346,13.267-5.593,14.97-.588,30.307-.336,45.14-.093,4.053.067,8.245.135,12.357.186a.788.788,0,0,1-.009,1.577h-.01c-4.116-.05-8.309-.119-12.364-.186-14.811-.244-30.126-.495-45.051.092-5.848.23-9.792,1.848-12.056,4.947-4.424,6.054-1.478,16.718.89,25.287q.179.649.354,1.281c.778,2.837,1.706,5.009,3.7,6.387,2.217,1.53,5.251,1.738,8.7,1.838,17.9.521,36.407,1.059,54.553-.47a.789.789,0,0,1,.132,1.572c-8.974.756-18.028,1.01-27.045,1.01" transform="translate(-3375.531 -2277.584)" fill="#deebff"/>
        <path id="Tracciato_62801" data-name="Tracciato 62801" d="M3852.3,2158.281a.788.788,0,0,1-.788-.765c-.218-7.441,2.309-33.606,2.417-34.716a.789.789,0,1,1,1.57.152c-.026.271-2.625,27.175-2.41,34.517a.789.789,0,0,1-.765.812h-.023" transform="translate(-3128.313 -1723.626)" fill="#deebff"/>
        <path id="Tracciato_62802" data-name="Tracciato 62802" d="M3562.417,2814.65s-18.233,9.622-32.082,18.706l1.42-27.571c13.375,1.767,30.662,8.864,30.662,8.864" transform="translate(-2867.451 -2278.948)" fill="#deebff"/>
        <path id="Tracciato_62803" data-name="Tracciato 62803" d="M3933.864,495.835s-3.948-24.755-12.4-26.134-43.341-4.777-51.056-15.149-5.756-26.086,4.911-29.8,64.646-14.081,78.389,28.107a50.794,50.794,0,0,1-.462,22.276Z" transform="translate(-3139.869 -341.852)" fill="#260e14"/>
        <path id="Tracciato_62804" data-name="Tracciato 62804" d="M3067.683,967.858l-15.024,80.95a9.647,9.647,0,0,1-11.249,7.743l-52.492-9.742a9.658,9.658,0,0,1-7.722-11.264l15.024-80.95a9.644,9.644,0,0,1,11.246-7.726l52.492,9.742a9.632,9.632,0,0,1,7.725,11.247" transform="translate(-2421.289 -768.944)" fill="#fff"/>
        <path id="Tracciato_62805" data-name="Tracciato 62805" d="M3163.952,1098.909a1.839,1.839,0,0,1-1.472-2.143l15.023-80.943a1.839,1.839,0,1,1,3.615.671l-15.023,80.943a1.838,1.838,0,0,1-2.143,1.472" transform="translate(-2568.64 -823.862)" fill="#deebff"/>
        <path id="Tracciato_62806" data-name="Tracciato 62806" d="M3113.459,1018.62a4.624,4.624,0,0,1-5.416,3.72l-10.49-1.947a4.646,4.646,0,1,1,1.7-9.136l10.49,1.947a4.644,4.644,0,0,1,3.721,5.416" transform="translate(-2512.845 -821.31)" fill="#4c9aff"/>
        <path id="Tracciato_62807" data-name="Tracciato 62807" d="M3104.506,1012.233l-1.7,9.136-5.257-.976a4.646,4.646,0,1,1,1.7-9.136Z" transform="translate(-2512.845 -821.31)" fill="#b2d4ff"/>
        <path id="Tracciato_62808" data-name="Tracciato 62808" d="M3096.783,1108.471a4.624,4.624,0,0,1-5.416,3.72l-10.489-1.947a4.646,4.646,0,1,1,1.7-9.136l10.49,1.947a4.643,4.643,0,0,1,3.72,5.415" transform="translate(-2499.3 -894.29)" fill="#4c9aff"/>
        <path id="Tracciato_62809" data-name="Tracciato 62809" d="M3087.83,1102.084l-1.7,9.136-5.257-.976a4.646,4.646,0,1,1,1.7-9.135Z" transform="translate(-2499.3 -894.29)" fill="#b2d4ff"/>
        <path id="Tracciato_62810" data-name="Tracciato 62810" d="M3080.107,1198.322a4.624,4.624,0,0,1-5.416,3.72l-10.49-1.947a4.646,4.646,0,1,1,1.7-9.135l10.49,1.947a4.644,4.644,0,0,1,3.721,5.416" transform="translate(-2485.755 -967.27)" fill="#4c9aff"/>
        <path id="Tracciato_62811" data-name="Tracciato 62811" d="M3071.154,1191.934l-1.7,9.136-5.257-.976a4.646,4.646,0,1,1,1.7-9.136Z" transform="translate(-2485.755 -967.269)" fill="#b2d4ff"/>
        <path id="Tracciato_62812" data-name="Tracciato 62812" d="M3063.431,1288.173a4.624,4.624,0,0,1-5.416,3.72l-10.489-1.947a4.646,4.646,0,1,1,1.7-9.135l10.49,1.947a4.644,4.644,0,0,1,3.72,5.416" transform="translate(-2472.211 -1040.25)" fill="#4c9aff"/>
        <path id="Tracciato_62813" data-name="Tracciato 62813" d="M3054.478,1281.785l-1.7,9.136-5.257-.976a4.646,4.646,0,1,1,1.7-9.136Z" transform="translate(-2472.211 -1040.249)" fill="#57d9a3"/>
        <path id="Tracciato_62814" data-name="Tracciato 62814" d="M3046.756,1378.023a4.624,4.624,0,0,1-5.416,3.72l-10.49-1.947a4.646,4.646,0,1,1,1.7-9.136l10.49,1.947a4.643,4.643,0,0,1,3.721,5.416" transform="translate(-2458.666 -1113.229)" fill="#4c9aff"/>
        <path id="Tracciato_62815" data-name="Tracciato 62815" d="M3037.8,1371.636l-1.7,9.136-5.257-.976a4.646,4.646,0,1,1,1.7-9.136Z" transform="translate(-2458.666 -1113.229)" fill="#57d9a3"/>
        <path id="Tracciato_62816" data-name="Tracciato 62816" d="M3311.936,1055.456a4.624,4.624,0,0,1-5.416,3.72l-10.49-1.947a4.646,4.646,0,1,1,1.7-9.136l10.49,1.947a4.644,4.644,0,0,1,3.721,5.416" transform="translate(-2674.053 -851.23)" fill="#4c9aff"/>
        <path id="Tracciato_62817" data-name="Tracciato 62817" d="M3302.982,1049.069l-1.7,9.136-5.257-.976a4.646,4.646,0,1,1,1.7-9.136Z" transform="translate(-2674.054 -851.23)" fill="#b2d4ff"/>
        <path id="Tracciato_62818" data-name="Tracciato 62818" d="M3295.26,1145.307a4.624,4.624,0,0,1-5.416,3.72l-10.489-1.947a4.646,4.646,0,1,1,1.7-9.136l10.49,1.947a4.644,4.644,0,0,1,3.72,5.416" transform="translate(-2660.509 -924.21)" fill="#4c9aff"/>
        <path id="Tracciato_62819" data-name="Tracciato 62819" d="M3286.306,1138.92l-1.7,9.136-5.256-.976a4.646,4.646,0,1,1,1.7-9.136Z" transform="translate(-2660.509 -924.21)" fill="#b2d4ff"/>
        <path id="Tracciato_62820" data-name="Tracciato 62820" d="M3278.583,1235.158a4.624,4.624,0,0,1-5.416,3.72l-10.49-1.947a4.646,4.646,0,1,1,1.7-9.136l10.49,1.947a4.643,4.643,0,0,1,3.72,5.416" transform="translate(-2646.964 -997.189)" fill="#4c9aff"/>
        <path id="Tracciato_62821" data-name="Tracciato 62821" d="M3269.63,1228.771l-1.7,9.136-5.257-.976a4.646,4.646,0,1,1,1.7-9.136Z" transform="translate(-2646.964 -997.189)" fill="#b2d4ff"/>
        <path id="Tracciato_62822" data-name="Tracciato 62822" d="M3261.907,1325.009a4.624,4.624,0,0,1-5.416,3.72L3246,1326.782a4.646,4.646,0,1,1,1.7-9.136l10.49,1.947a4.643,4.643,0,0,1,3.721,5.415" transform="translate(-2633.419 -1070.169)" fill="#4c9aff"/>
        <path id="Tracciato_62823" data-name="Tracciato 62823" d="M3252.954,1318.622l-1.7,9.136-5.257-.976a4.646,4.646,0,1,1,1.7-9.136Z" transform="translate(-2633.419 -1070.169)" fill="#57d9a3"/>
        <path id="Tracciato_62824" data-name="Tracciato 62824" d="M3245.231,1414.86a4.624,4.624,0,0,1-5.416,3.72l-10.49-1.947a4.646,4.646,0,1,1,1.7-9.135l10.49,1.947a4.643,4.643,0,0,1,3.72,5.416" transform="translate(-2619.875 -1143.149)" fill="#4c9aff"/>
        <path id="Tracciato_62825" data-name="Tracciato 62825" d="M3236.278,1408.473l-1.7,9.136-5.257-.976a4.646,4.646,0,1,1,1.7-9.135Z" transform="translate(-2619.874 -1143.149)" fill="#57d9a3"/>
        <path id="Tracciato_62826" data-name="Tracciato 62826" d="M2594.644,1350.53l20.124,53.492a7.193,7.193,0,0,1-4.208,9.255l-34.943,13.16a7.176,7.176,0,0,1-9.247-4.188l-20.157-53.524a7.156,7.156,0,0,1,1.692-7.657c2.415-2.345,5.308-5.857,5.762-9.594a8.239,8.239,0,0,0,.054-1.164,7.528,7.528,0,0,0-.487-2.485l22.529-8.484a8.66,8.66,0,0,0,4.625,4.717,22.113,22.113,0,0,0,7.981,1.839,7.164,7.164,0,0,1,6.276,4.634" transform="translate(-2067.737 -1087.854)" fill="#4c9aff"/>
        <path id="Tracciato_62827" data-name="Tracciato 62827" d="M2612.764,1344.057a257.936,257.936,0,0,0-26.667,6.253,7.528,7.528,0,0,0-.487-2.485l22.529-8.485a8.66,8.66,0,0,0,4.625,4.717" transform="translate(-2100.114 -1087.854)" fill="#2684ff"/>
        <path id="Tracciato_62828" data-name="Tracciato 62828" d="M2573.544,1265.331l-22.816,8.592a2.1,2.1,0,0,1-2.7-1.222l-5.409-14.363a2.1,2.1,0,0,1,1.222-2.7l22.816-8.593a2.1,2.1,0,0,1,2.7,1.222l5.409,14.363a2.1,2.1,0,0,1-1.222,2.7" transform="translate(-2065.087 -1012.78)" fill="#344563"/>
        <path id="Tracciato_62829" data-name="Tracciato 62829" d="M2616.41,1451.238l10.219,27.192-48.4,18.227-10.238-27.185Z" transform="translate(-2085.805 -1178.741)" fill="#2684ff"/>
        <path id="Tracciato_62830" data-name="Tracciato 62830" d="M2813.407,1232.328l16.675,97.27a11.564,11.564,0,0,1-9.44,13.373l-63.075,10.813a11.577,11.577,0,0,1-13.355-9.465l-16.676-97.27a11.559,11.559,0,0,1,9.444-13.352l63.075-10.813a11.546,11.546,0,0,1,13.352,9.444" transform="translate(-2215.253 -993.127)" fill="#fff"/>
        <path id="Tracciato_62831" data-name="Tracciato 62831" d="M2822.61,1339.146a9.459,9.459,0,0,1-7.713,10.905,9.274,9.274,0,0,1-7.566-2.025c-.047-.035-.076-.072-.124-.106a10.673,10.673,0,0,1-1.074-1.051,9.221,9.221,0,0,1-2.14-4.531,9.433,9.433,0,0,1,7.713-10.905,10.012,10.012,0,0,1,3.109,0,7.436,7.436,0,0,1,1.105.236l.025.017a9.587,9.587,0,0,1,6.666,7.46" transform="translate(-2277.379 -1081.333)" fill="#57d9a3"/>
        <path id="Tracciato_62832" data-name="Tracciato 62832" d="M2814.417,1350.018q-.036,0-.072,0a.755.755,0,0,1-.682-.82c.015-.168.415-4.128,3.943-5.541a.756.756,0,1,1,.562,1.4c-2.657,1.064-2.986,4.145-3,4.276a.758.758,0,0,1-.752.684" transform="translate(-2285.343 -1091.314)" fill="#abf5d1"/>
        <path id="Tracciato_62833" data-name="Tracciato 62833" d="M3045.13,1301a9.459,9.459,0,0,1-7.713,10.905,9.274,9.274,0,0,1-7.567-2.025c-.047-.034-.076-.072-.124-.107a10.672,10.672,0,0,1-1.074-1.051,9.222,9.222,0,0,1-2.14-4.531,9.433,9.433,0,0,1,7.713-10.905,10,10,0,0,1,3.109,0,7.436,7.436,0,0,1,1.105.236l.025.017a9.587,9.587,0,0,1,6.666,7.46" transform="translate(-2458.117 -1050.348)" fill="#57d9a3"/>
        <path id="Tracciato_62834" data-name="Tracciato 62834" d="M3036.937,1311.871c-.024,0-.047,0-.072,0a.755.755,0,0,1-.682-.82c.015-.168.415-4.128,3.943-5.541a.756.756,0,1,1,.562,1.4c-2.657,1.064-2.986,4.145-3,4.276a.758.758,0,0,1-.752.684" transform="translate(-2466.082 -1060.329)" fill="#abf5d1"/>
        <path id="Tracciato_62835" data-name="Tracciato 62835" d="M2846.571,1478.913a9.459,9.459,0,0,1-7.713,10.905,9.273,9.273,0,0,1-7.566-2.025c-.048-.034-.076-.072-.125-.106a10.671,10.671,0,0,1-1.074-1.051,9.218,9.218,0,0,1-2.14-4.531,9.432,9.432,0,0,1,7.713-10.905,10,10,0,0,1,3.109,0,7.436,7.436,0,0,1,1.105.236l.025.017a9.587,9.587,0,0,1,6.666,7.46" transform="translate(-2296.84 -1194.855)" fill="#57d9a3"/>
        <path id="Tracciato_62836" data-name="Tracciato 62836" d="M2838.377,1489.785c-.024,0-.048,0-.072,0a.756.756,0,0,1-.683-.82c.015-.168.415-4.128,3.943-5.541a.756.756,0,1,1,.563,1.4c-2.658,1.064-2.987,4.145-3,4.276a.758.758,0,0,1-.752.684" transform="translate(-2304.805 -1204.836)" fill="#abf5d1"/>
        <path id="Tracciato_62837" data-name="Tracciato 62837" d="M3069.092,1440.764a9.459,9.459,0,0,1-7.713,10.905,9.273,9.273,0,0,1-7.566-2.024c-.048-.035-.076-.072-.125-.107a10.63,10.63,0,0,1-1.074-1.051,9.221,9.221,0,0,1-2.14-4.531,9.433,9.433,0,0,1,7.713-10.905,10.012,10.012,0,0,1,3.109,0,7.452,7.452,0,0,1,1.105.236l.025.017a9.588,9.588,0,0,1,6.666,7.46" transform="translate(-2477.579 -1163.87)" fill="#57d9a3"/>
        <path id="Tracciato_62838" data-name="Tracciato 62838" d="M3060.9,1451.637c-.024,0-.048,0-.072,0a.755.755,0,0,1-.683-.82c.015-.168.415-4.128,3.943-5.541a.756.756,0,0,1,.563,1.4c-2.658,1.064-2.987,4.145-3,4.276a.758.758,0,0,1-.752.684" transform="translate(-2485.543 -1173.852)" fill="#abf5d1"/>
        <path id="Tracciato_62839" data-name="Tracciato 62839" d="M2870.531,1618.678a9.459,9.459,0,0,1-7.713,10.905,9.272,9.272,0,0,1-7.566-2.024c-.048-.035-.076-.072-.125-.106a10.671,10.671,0,0,1-1.074-1.051,9.218,9.218,0,0,1-2.14-4.531,9.433,9.433,0,0,1,7.713-10.905,10.012,10.012,0,0,1,3.109,0,7.452,7.452,0,0,1,1.105.236l.025.017a9.587,9.587,0,0,1,6.666,7.46" transform="translate(-2316.302 -1308.378)" fill="#57d9a3"/>
        <path id="Tracciato_62840" data-name="Tracciato 62840" d="M2862.338,1629.553c-.023,0-.046,0-.069,0a.757.757,0,0,1-.685-.822c.016-.168.415-4.128,3.943-5.541a.756.756,0,1,1,.562,1.4c-2.677,1.072-3,4.242-3,4.274a.757.757,0,0,1-.752.688" transform="translate(-2324.266 -1318.36)" fill="#abf5d1"/>
        <path id="Tracciato_62841" data-name="Tracciato 62841" d="M3093.052,1580.531a9.46,9.46,0,0,1-7.714,10.905,9.273,9.273,0,0,1-7.566-2.025c-.048-.035-.076-.072-.125-.107a10.617,10.617,0,0,1-1.074-1.051,9.214,9.214,0,0,1-2.14-4.531,9.433,9.433,0,0,1,7.713-10.905,10.012,10.012,0,0,1,3.109,0,7.436,7.436,0,0,1,1.105.236l.025.017a9.589,9.589,0,0,1,6.667,7.46" transform="translate(-2497.04 -1277.393)" fill="#57d9a3"/>
        <path id="Tracciato_62842" data-name="Tracciato 62842" d="M3084.858,1591.4a.709.709,0,0,1-.072,0,.755.755,0,0,1-.683-.82c.016-.168.415-4.128,3.943-5.541a.756.756,0,1,1,.562,1.4c-2.658,1.064-2.986,4.145-3,4.276a.758.758,0,0,1-.752.685" transform="translate(-2505.004 -1287.375)" fill="#abf5d1"/>
        <path id="Tracciato_62843" data-name="Tracciato 62843" d="M2894.492,1758.445a9.459,9.459,0,0,1-7.713,10.905,9.273,9.273,0,0,1-7.566-2.025c-.047-.034-.076-.072-.124-.106a10.685,10.685,0,0,1-1.074-1.051,9.22,9.22,0,0,1-2.14-4.531,9.433,9.433,0,0,1,7.713-10.905,10,10,0,0,1,3.109,0,7.455,7.455,0,0,1,1.105.236l.025.017a9.588,9.588,0,0,1,6.666,7.46" transform="translate(-2335.763 -1421.9)" fill="#ffab00"/>
        <path id="Tracciato_62844" data-name="Tracciato 62844" d="M2886.166,1769.215c-.025,0-.05,0-.074,0a.786.786,0,0,1-.71-.854c.015-.169.417-4.147,3.962-5.567a.787.787,0,0,1,.585,1.461c-2.64,1.057-2.968,4.121-2.98,4.251a.788.788,0,0,1-.783.712" transform="translate(-2343.595 -1431.748)" fill="#ffe380"/>
        <path id="Tracciato_62845" data-name="Tracciato 62845" d="M3117.012,1720.3a9.459,9.459,0,0,1-7.713,10.905,9.273,9.273,0,0,1-7.566-2.025c-.048-.034-.076-.072-.124-.107a10.633,10.633,0,0,1-1.074-1.051,9.222,9.222,0,0,1-2.14-4.531,9.433,9.433,0,0,1,7.713-10.905,10,10,0,0,1,3.109,0,7.436,7.436,0,0,1,1.105.236l.025.017a9.588,9.588,0,0,1,6.666,7.46" transform="translate(-2516.502 -1390.916)" fill="#ffab00"/>
        <path id="Tracciato_62846" data-name="Tracciato 62846" d="M3108.687,1731.068c-.025,0-.05,0-.074,0a.786.786,0,0,1-.71-.854c.015-.169.417-4.147,3.962-5.567a.787.787,0,0,1,.585,1.461c-2.64,1.057-2.968,4.121-2.98,4.25a.789.789,0,0,1-.783.712" transform="translate(-2524.334 -1400.764)" fill="#ffe380"/>
        <path id="Tracciato_62847" data-name="Tracciato 62847" d="M2964.506,1403.081a2.2,2.2,0,0,1-2.545-1.8l-16.674-97.262a2.2,2.2,0,0,1,4.344-.745l16.674,97.262a2.2,2.2,0,0,1-1.8,2.545" transform="translate(-2392.23 -1057.073)" fill="#deebff"/>
        <path id="Tracciato_62848" data-name="Tracciato 62848" d="M3194.844,1384.161l-14.42,77.721a6.269,6.269,0,0,1-7.3,5.017l-35.913-6.675a6.234,6.234,0,0,1-5-7.283l14.42-77.721Z" transform="translate(-2543.996 -1116.997)" fill="#4c9aff"/>
        <path id="Tracciato_62849" data-name="Tracciato 62849" d="M3154.492,1461.141a2.421,2.421,0,0,1-1.937-2.819l14.354-77.338,40.66,7.547-14.354,77.337a2.422,2.422,0,0,1-2.82,1.937Z" transform="translate(-2560.572 -1121.679)" fill="#0065ff"/>
        <path id="Tracciato_62850" data-name="Tracciato 62850" d="M3246.035,1307.7l-47.994-8.908a3.456,3.456,0,0,1-2.767-4.028l2.365-12.742a3.456,3.456,0,0,1,4.028-2.767l47.994,8.908a3.456,3.456,0,0,1,2.767,4.028l-2.365,12.742a3.456,3.456,0,0,1-4.028,2.767" transform="translate(-2595.255 -1039.002)" fill="#344563"/>
        <path id="Tracciato_62851" data-name="Tracciato 62851" d="M3214.323,1306.235a.787.787,0,0,1-.775-.931l2.562-13.8a.787.787,0,1,1,1.548.287l-2.562,13.8a.787.787,0,0,1-.773.643" transform="translate(-2610.135 -1048.475)" fill="#172b4d"/>
        <path id="Tracciato_62852" data-name="Tracciato 62852" d="M3255.038,1313.791a.8.8,0,0,1-.145-.013.787.787,0,0,1-.63-.918l2.562-13.8a.787.787,0,1,1,1.548.287l-2.562,13.8a.787.787,0,0,1-.773.644" transform="translate(-2643.205 -1054.612)" fill="#172b4d"/>
        <path id="Tracciato_62853" data-name="Tracciato 62853" d="M3295.754,1321.348a.787.787,0,0,1-.775-.931l2.562-13.8a.787.787,0,1,1,1.548.287l-2.562,13.8a.787.787,0,0,1-.773.643" transform="translate(-2676.276 -1060.75)" fill="#172b4d"/>
        <path id="Tracciato_62854" data-name="Tracciato 62854" d="M3336.469,1328.9a.788.788,0,0,1-.775-.931l2.562-13.8a.787.787,0,1,1,1.548.287l-2.562,13.8a.788.788,0,0,1-.773.644" transform="translate(-2709.345 -1066.888)" fill="#172b4d"/>
        <path id="Tracciato_62855" data-name="Tracciato 62855" d="M3377.184,1336.461a.8.8,0,0,1-.145-.013.787.787,0,0,1-.63-.918l2.562-13.8a.787.787,0,1,1,1.548.287l-2.562,13.8a.787.787,0,0,1-.773.643" transform="translate(-2742.416 -1073.025)" fill="#172b4d"/>
        <path id="Tracciato_62856" data-name="Tracciato 62856" d="M3417.9,1344.017a.788.788,0,0,1-.775-.931l2.562-13.8a.787.787,0,0,1,1.548.287l-2.562,13.8a.787.787,0,0,1-.773.643" transform="translate(-2775.486 -1079.163)" fill="#172b4d"/>
        <path id="Tracciato_62857" data-name="Tracciato 62857" d="M3458.614,1351.574a.787.787,0,0,1-.775-.931l2.562-13.8a.787.787,0,1,1,1.548.287l-2.562,13.8a.787.787,0,0,1-.773.643" transform="translate(-2808.555 -1085.301)" fill="#172b4d"/>
        <path id="Tracciato_62858" data-name="Tracciato 62858" d="M3363.115,1470.8l-3.812-7.914a4.464,4.464,0,0,0-8.043,3.875l3.813,7.913a4.464,4.464,0,1,0,8.043-3.874" transform="translate(-2721.639 -1186.15)" fill="#0052cc"/>
        <path id="Tracciato_62859" data-name="Tracciato 62859" d="M3278.059,1439.374l8.063-3.483a4.464,4.464,0,1,0-3.541-8.2l-8.062,3.483a4.464,4.464,0,1,0,3.541,8.2" transform="translate(-2657.479 -1159.321)" fill="#0052cc"/>
        <path id="Tracciato_62860" data-name="Tracciato 62860" d="M3200.215,1722.2l8.662-1.455a4.464,4.464,0,0,0-1.479-8.8l-7.632,1.282.472-.276a4.464,4.464,0,0,0-6.313-.044l-6.253,6.168a4.439,4.439,0,0,0-1.114,1.823l-2.84-5.9a4.464,4.464,0,0,0-8.043,3.875l3.811,7.913a4.457,4.457,0,0,0,8.414-1.187l.014.051a4.463,4.463,0,0,0,4.211.864c.016,0,.03-.015.046-.02a4.462,4.462,0,0,0,2.855,4.023l8.2,3.15a4.464,4.464,0,1,0,3.2-8.333l-8.2-3.15a16.148,16.148,0,0,0,1.985.016" transform="translate(-2579.024 -1390.23)" fill="#ff8b00"/>
        <path id="Tracciato_62861" data-name="Tracciato 62861" d="M3319.44,1545.682l-8.41-2.536a4.464,4.464,0,1,0-2.576,8.548l4.448.938-6.462,1.574a4.463,4.463,0,0,0-3.28,5.393,1.548,1.548,0,0,1-.1,2.858,4.464,4.464,0,0,0,1.565,6.116l7.557,4.477a4.464,4.464,0,0,0,4.551-7.681l-5.362-3.177,5.711-1.391a4.414,4.414,0,0,0,2.7-6.718l.046.01a4.464,4.464,0,0,0-.389-8.41" transform="translate(-2682.346 -1253.237)" fill="#0052cc"/>
        <path id="Tracciato_62862" data-name="Tracciato 62862" d="M3189.417,1472.431l-6.926,37.381a5.156,5.156,0,0,1-6.024,4.156l-29.93-5.541,8.836-47.582,29.909,5.562a5.157,5.157,0,0,1,4.134,6.024" transform="translate(-2555.717 -1186.544)" fill="#4c9aff"/>
        <path id="Tracciato_62863" data-name="Tracciato 62863" d="M3337.616,1261.781l16.678-77.993a48.75,48.75,0,0,1,5.064-13.506c4.262-7.636,11.158-20.837,13.01-29.494l6.532-30.548a3.329,3.329,0,0,1,4.483-2.4,3.449,3.449,0,0,1,1.974,3.956l-6.5,30.381c-1.851,8.657-.956,23.524-.191,32.235a48.755,48.755,0,0,1-.9,14.4l-16.678,77.993a8.813,8.813,0,0,1-10.447,6.766l-6.26-1.339a8.813,8.813,0,0,1-6.766-10.448" transform="translate(-2710.759 -899.631)" fill="#57d9a3"/>
        <path id="Tracciato_62864" data-name="Tracciato 62864" d="M3337.616,1881.179l2.35-10.987,23.473,5.02-2.349,10.987a8.813,8.813,0,0,1-10.447,6.766l-6.26-1.339a8.813,8.813,0,0,1-6.766-10.447" transform="translate(-2710.759 -1519.029)" fill="#00875a"/>
        <path id="Tracciato_62865" data-name="Tracciato 62865" d="M3354.906,1884.876l2.35-10.987,20.226,4.325-2.349,10.987a8.813,8.813,0,0,1-10.447,6.766l-3.013-.644a8.813,8.813,0,0,1-6.766-10.447" transform="translate(-2724.802 -1522.032)" fill="#36b37e"/>
        <path id="Tracciato_62866" data-name="Tracciato 62866" d="M3409.358,1953.3a6.209,6.209,0,0,1-1.3-.138.787.787,0,0,1,.329-1.539,4.617,4.617,0,0,0,5.472-3.545.787.787,0,0,1,1.539.329,6.2,6.2,0,0,1-6.038,4.893" transform="translate(-2767.625 -1581.781)" fill="#fff"/>
        <path id="Tracciato_62867" data-name="Tracciato 62867" d="M3411.2,1795.639a4.985,4.985,0,1,1-3.832-5.917,4.985,4.985,0,0,1,3.832,5.917" transform="translate(-2762.677 -1453.578)" fill="#344563"/>
        <path id="Tracciato_62868" data-name="Tracciato 62868" d="M3414.379,1798.752a3.282,3.282,0,1,1-3.9,2.524,3.287,3.287,0,0,1,3.9-2.524" transform="translate(-2770.042 -1460.944)" fill="#091e42"/>
        <path id="Tracciato_62869" data-name="Tracciato 62869" d="M3426.068,1624.721l3.064.655a3.418,3.418,0,0,1,2.628,4.057l-3.764,17.6a3.418,3.418,0,0,1-4.057,2.628l-3.064-.655a3.418,3.418,0,0,1-2.628-4.057l3.764-17.6a3.418,3.418,0,0,1,4.057-2.628" transform="translate(-2776.347 -1319.588)" fill="#fff"/>
        <path id="Tracciato_62870" data-name="Tracciato 62870" d="M3553.665,1114.337l.876-4.1a3.329,3.329,0,0,1,4.483-2.4A3.449,3.449,0,0,1,3561,1111.8l-.84,3.929Z" transform="translate(-2886.399 -899.631)" fill="#36b37e"/>
        <path id="Tracciato_62871" data-name="Tracciato 62871" d="M3520.948,1493.108l-14.254,47.276a8.45,8.45,0,0,1-10.526,5.664l-17.736-5.347a8.449,8.449,0,0,1-5.641-10.538l14.254-47.276a8.471,8.471,0,0,1,3.5-4.676l9.013-5.826,16.741,5.047,4.308,9.843a8.469,8.469,0,0,1,.336,5.834" transform="translate(-2820.415 -1195.917)" fill="#4c9aff"/>
        <path id="Tracciato_62872" data-name="Tracciato 62872" d="M3624.322,1483.57l-22.214-9.38,2.786-1.806,16.741,5.047Z" transform="translate(-2925.746 -1195.917)" fill="#2684ff"/>
        <path id="Tracciato_62873" data-name="Tracciato 62873" d="M3672.139,1308.561l-9.6-2.894,4.342-14.4a5.013,5.013,0,0,1,9.6,2.894Z" transform="translate(-2974.83 -1045.909)" fill="#0065ff"/>
        <rect id="Rettangolo_147559" data-name="Rettangolo 147559" width="28.498" height="35.411" transform="translate(655.646 323.399) rotate(-73.222)" fill="#0065ff"/>
        <path id="Tracciato_62874" data-name="Tracciato 62874" d="M3629.121,1390.9l-20.337-6.132,3.8-12.617a6.926,6.926,0,0,1,8.631-4.632l7.073,2.133a6.926,6.926,0,0,1,4.632,8.631Z" transform="translate(-2931.168 -1110.501)" fill="#4c9aff"/>
        <path id="Tracciato_62875" data-name="Tracciato 62875" d="M3617.98,1458.844l-20.182-6.085a2.324,2.324,0,1,1,1.342-4.45l20.182,6.085a2.324,2.324,0,0,1-1.342,4.45" transform="translate(-2920.902 -1176.281)" fill="#0065ff"/>
        <path id="Tracciato_62876" data-name="Tracciato 62876" d="M2633.036,1666.437v216.247l-13.2-9.854-15.133,1.815V1658.377Z" transform="translate(-2115.621 -1346.986)" fill="#8fc0ff"/>
        <rect id="Rettangolo_147560" data-name="Rettangolo 147560" width="177.565" height="216.255" transform="translate(517.406 319.447)" fill="#b2d4ff"/>
        <path id="Tracciato_62877" data-name="Tracciato 62877" d="M2931.607,1953.521a52.892,52.892,0,1,1,52.892,52.892,52.892,52.892,0,0,1-52.892-52.892" transform="translate(-2381.144 -1543.751)" fill="#fff"/>
        <path id="Tracciato_62878" data-name="Tracciato 62878" d="M3088.928,2012.537H3064.1V1987.7a2.873,2.873,0,0,0-2.873-2.873h-11.256a2.873,2.873,0,0,0-2.873,2.873v24.832h-24.832a2.873,2.873,0,0,0-2.873,2.873v11.256a2.873,2.873,0,0,0,2.873,2.873h24.832v24.832a2.872,2.872,0,0,0,2.873,2.873h11.256a2.873,2.873,0,0,0,2.873-2.873v-24.832h24.833a2.873,2.873,0,0,0,2.873-2.873V2015.41a2.873,2.873,0,0,0-2.873-2.873" transform="translate(-2452.444 -1612.143)" fill="#4c9aff"/>
        <path id="Tracciato_62879" data-name="Tracciato 62879" d="M2675.494,2605.108a1.077,1.077,0,0,1-1.077-1.077v-35.324a1.077,1.077,0,0,1,2.154,0v35.324a1.077,1.077,0,0,1-1.077,1.077" transform="translate(-2172.246 -2085.51)" fill="#69aaff"/>
        <path id="Tracciato_62880" data-name="Tracciato 62880" d="M2675.494,1888.772a1.077,1.077,0,0,1-1.077-1.077V1745.9a1.077,1.077,0,0,1,2.154,0V1887.7a1.077,1.077,0,0,1-1.077,1.077" transform="translate(-2172.246 -1417.203)" fill="#69aaff"/>
        <path id="Tracciato_62881" data-name="Tracciato 62881" d="M3180.773,2562.273s-19.709-.218-29.307.925c-9.664,1.15-15.187,5.522-28.3,9.2-5.811,1.631-17.3,2.875-11.965,9.938,4.142,5.479,22.612.989,22.612.989s-7.5,13.9-11.643,20.75c-2.55,4.219-7.51,16.3-3.153,19.938,4.217,3.523,9.39,0,9.39,0s1.422,10.243,10.812,4.837c0,0,2.3,7.967,10.681,4.552,0,0,5.822,5.685,10.659.851s24.483-30.727,33.439-36.986-9.022-34.795-13.222-35" transform="translate(-2525.894 -2081.146)" fill="#8777d9"/>
        <path id="Tracciato_62882" data-name="Tracciato 62882" d="M3450.558,1583.523s-.086,34.125,22,47.624c0,0,139.491-30.245,156.974-55.812,21.427-31.335,42.536-127.315,45.295-161.728s-17.213-48.328-35.682-50.27c-21.67-2.278-30.5,42.059-42.224,95.328-7.986,36.273-17.095,67.179-17.095,67.179Z" transform="translate(-2802.653 -1107.278)" fill="#fff"/>
        <path id="Tracciato_62883" data-name="Tracciato 62883" d="M3783.362,1553.583a.789.789,0,0,1-.322-1.509l64.8-28.915a.789.789,0,0,1,1.023.361l7.95,15.57-1.5-20.331a.789.789,0,0,1,1.076-.792l12.981,5.125-12.786-15.547a.788.788,0,0,1-.172-.611c.048-.342,4.905-34.629,13.182-69.623,4.865-20.572,9.945-37.367,15.1-49.918a94.494,94.494,0,0,1,9.323-17.977c3.489-4.98,7.063-8.1,10.623-9.276a.789.789,0,0,1,.495,1.5c-11.368,3.754-23.126,30.044-34,76.027-7.817,33.05-12.579,65.474-13.108,69.147l14.5,17.632a.789.789,0,0,1-.9,1.234l-14.647-5.782,1.7,22.974a.789.789,0,0,1-1.489.417l-9.386-18.382-64.121,28.61a.786.786,0,0,1-.321.069" transform="translate(-3072.325 -1104.717)" fill="#deebff"/>
        <path id="Tracciato_62884" data-name="Tracciato 62884" d="M1415.872,1681.964a6.459,6.459,0,0,0-1.128.632,3.033,3.033,0,0,0-.848.9,2.864,2.864,0,0,0-.376,1.188,3.154,3.154,0,0,0,.87,2.336,9.673,9.673,0,0,0,1.946,1.769l-.191-6.947c-.09.039-.183.076-.272.117" transform="translate(-1148.089 -1366.049)" fill="#fff"/>
        <path id="Tracciato_62885" data-name="Tracciato 62885" d="M1430.026,1682.036l-.164,6.83a9.588,9.588,0,0,0,1.836-1.688,3.16,3.16,0,0,0,.87-2.336,2.877,2.877,0,0,0-.376-1.188,3.03,3.03,0,0,0-.849-.905,6.449,6.449,0,0,0-1.128-.632c-.062-.028-.127-.054-.189-.081" transform="translate(-1161.379 -1366.203)" fill="#fff"/>
        <path id="Tracciato_62886" data-name="Tracciato 62886" d="M1414.956,1648.068l-.182-6.6c-.174.071-.344.143-.516.224a6.8,6.8,0,0,0-1.088.623,2.909,2.909,0,0,0-.8.818,2.132,2.132,0,0,0-.3,1.065,3.171,3.171,0,0,0,.771,2.211,6.731,6.731,0,0,0,1.985,1.6c.04.023.083.041.124.063" transform="translate(-1146.927 -1333.248)" fill="#fff"/>
        <path id="Tracciato_62887" data-name="Tracciato 62887" d="M1430.873,1648.136l.042-.021a6.738,6.738,0,0,0,1.984-1.6,3.173,3.173,0,0,0,.772-2.211,2.135,2.135,0,0,0-.3-1.065,2.9,2.9,0,0,0-.8-.818,6.76,6.76,0,0,0-1.088-.623c-.152-.072-.3-.135-.456-.2Z" transform="translate(-1162.2 -1333.359)" fill="#fff"/>
        <path id="Tracciato_62888" data-name="Tracciato 62888" d="M1254.037,1275.683h-33.9v-33.9a1.1,1.1,0,0,0-1.1-1.1h-31.785a1.1,1.1,0,0,0-1.1,1.1v33.9h-33.9a1.1,1.1,0,0,0-1.1,1.1v31.785a1.1,1.1,0,0,0,1.1,1.1h33.9v33.9a1.1,1.1,0,0,0,1.1,1.1h31.785a1.1,1.1,0,0,0,1.1-1.1v-33.9h33.9a1.1,1.1,0,0,0,1.1-1.1v-31.785a1.1,1.1,0,0,0-1.1-1.1m-42.556,12.979c4.554-.6,13.282-.483,19.354-.968l7.211-.725c-3.8,2.539-7.4,3.385-14.61,3.748-3.227.121-6.451.242-9.3.6-2.277.243-6.26.968-7.4,1.815l5.123.354c4.174-.121,8.538.121,13.093-.484a23.229,23.229,0,0,1,2.847-.485c-4.554,4.233-17.268,3.388-21.443,4.354a3.279,3.279,0,0,0-1.9,1.088l-.193.275-.385,16.014c.567-.252,1.131-.505,1.685-.771a25.435,25.435,0,0,0,2.327-1.244,10.512,10.512,0,0,0,2-1.541,5.056,5.056,0,0,0,1.245-1.97,4.716,4.716,0,0,0,.218-1.118c0-.095.015-.167.015-.28v-.349c0,.051,0,.009,0,.017l0-.017v-.034l-.005-.069c0-.046-.008-.091-.012-.136-.009-.091-.023-.18-.04-.269a3.341,3.341,0,0,0-1.031-1.838,6,6,0,0,0-1.677-1.081,3.66,3.66,0,0,1-1.611-.1c-1.365-.379-2.281-1.37-2.048-2.214s1.53-1.222,2.9-.843a2.855,2.855,0,0,1,2.026,1.594,7.522,7.522,0,0,1,1.74,1.319,5.479,5.479,0,0,1,.945,1.318,4.934,4.934,0,0,1,.491,1.565c.019.135.034.27.041.4,0,.067.008.135.008.2l0,.225-.015.339c0,.113-.023.265-.036.4a6.366,6.366,0,0,1-.367,1.519,6.641,6.641,0,0,1-1.726,2.5,11.967,11.967,0,0,1-2.354,1.661,26.679,26.679,0,0,1-2.5,1.2c-.434.185-.868.362-1.3.535a7.885,7.885,0,0,1,1.224.777,3.894,3.894,0,0,1,1.023,1.161,3.1,3.1,0,0,1,.365,1.531l0,.185-.01.183c-.011.125-.03.271-.053.39a3.732,3.732,0,0,1-.219.734,4.509,4.509,0,0,1-.793,1.255,7.433,7.433,0,0,1-2.241,1.667l.035.017a6.931,6.931,0,0,1,1.2.751,3.571,3.571,0,0,1,.937,1.106,3.334,3.334,0,0,1,.37,1.394,3.06,3.06,0,0,1,0,.361,2.371,2.371,0,0,1-.044.365,2.931,2.931,0,0,1-.228.684,4.957,4.957,0,0,1-.782,1.159,9.882,9.882,0,0,1-2.064,1.734c.089.059.181.113.268.177a4.414,4.414,0,0,1,.453.378,2.32,2.32,0,0,1,.381.46,1.145,1.145,0,0,1,.124.28.752.752,0,0,1,.022.306,1.719,1.719,0,0,1-.2.561,4.134,4.134,0,0,1-.314.494,7.773,7.773,0,0,1-.759.881,7.646,7.646,0,0,0,.717-.91,4.056,4.056,0,0,0,.289-.5,2.207,2.207,0,0,0,.106-.265,1.169,1.169,0,0,0,.06-.27.637.637,0,0,0-.03-.267,1.026,1.026,0,0,0-.122-.245,2.173,2.173,0,0,0-.376-.416,4.627,4.627,0,0,0-.64-.457l-.1,4.18-.117-4.245a4.855,4.855,0,0,0-.747.522,2.168,2.168,0,0,0-.376.416,1.039,1.039,0,0,0-.122.245.631.631,0,0,0-.03.267,1.192,1.192,0,0,0,.059.27,2.135,2.135,0,0,0,.107.265,4.1,4.1,0,0,0,.288.5,7.622,7.622,0,0,0,.717.91,7.773,7.773,0,0,1-.759-.881,4.165,4.165,0,0,1-.314-.494,1.707,1.707,0,0,1-.2-.561.754.754,0,0,1,.021-.306,1.174,1.174,0,0,1,.124-.28,2.327,2.327,0,0,1,.38-.46,4.458,4.458,0,0,1,.454-.378c.086-.063.179-.118.267-.177a9.918,9.918,0,0,1-2.064-1.734,4.964,4.964,0,0,1-.782-1.159,2.936,2.936,0,0,1-.228-.684,2.419,2.419,0,0,1-.044-.365,3.084,3.084,0,0,1,0-.361,3.326,3.326,0,0,1,.37-1.394,3.564,3.564,0,0,1,.937-1.106,6.915,6.915,0,0,1,1.2-.751l.035-.017a7.432,7.432,0,0,1-2.242-1.667,4.517,4.517,0,0,1-.793-1.255,3.74,3.74,0,0,1-.219-.734,3.927,3.927,0,0,1-.052-.39l-.01-.183,0-.185a3.094,3.094,0,0,1,.365-1.531,3.883,3.883,0,0,1,1.023-1.161,7.9,7.9,0,0,1,1.224-.777c-.434-.173-.869-.35-1.3-.535a26.838,26.838,0,0,1-2.5-1.2,11.962,11.962,0,0,1-2.353-1.661,6.635,6.635,0,0,1-1.726-2.5,6.337,6.337,0,0,1-.367-1.519c-.012-.13-.031-.283-.035-.4l-.015-.339,0-.225c0-.067.006-.135.009-.2.007-.134.022-.269.04-.4a4.941,4.941,0,0,1,.491-1.565,5.48,5.48,0,0,1,.945-1.318,7.542,7.542,0,0,1,1.74-1.319,2.859,2.859,0,0,1,2.026-1.594c1.365-.379,2.661,0,2.9.843s-.682,1.835-2.048,2.214a3.659,3.659,0,0,1-1.611.1,5.994,5.994,0,0,0-1.677,1.081,3.337,3.337,0,0,0-1.03,1.838c-.017.088-.031.178-.04.269,0,.046-.011.09-.012.136l0,.069,0,.034V1307c0-.009,0,.033,0-.017v.349c0,.113.011.185.014.28a4.711,4.711,0,0,0,.219,1.118,5.051,5.051,0,0,0,1.245,1.97,10.5,10.5,0,0,0,2,1.541,25.414,25.414,0,0,0,2.327,1.244c.571.274,1.154.536,1.739.8l-.443-16.154-.112-.159a3.276,3.276,0,0,0-1.9-1.088c-4.174-.967-16.888-.121-21.442-4.354a23.225,23.225,0,0,1,2.847.485c4.555.6,8.918.362,13.093.484l5.123-.354c-1.139-.847-5.123-1.572-7.4-1.815-2.847-.362-6.071-.483-9.3-.6-7.208-.364-10.814-1.209-14.61-3.748l7.212.725c6.071.484,14.8.363,19.354.968.949.12,2.656.484,3.415.484-7.02-6.167-27.322-1.088-36.051-7.86.19,0,3.794.725,5.5.846,10.805,1.069,26.544-.888,33.937,3.962l-.081-2.943c-1.522-.365-2.131-1.731-2.131-3.365a3.464,3.464,0,0,1,6.928,0c0,1.631-.606,3-2.125,3.363l-.072,3.025c7.34-4.952,23.194-2.967,34.058-4.042,1.707-.121,5.311-.846,5.5-.846-8.729,6.772-29.031,1.694-36.051,7.86.758,0,2.465-.363,3.414-.484" transform="translate(-935.011 -1007.725)" fill="#09ad00"/>
      </g>
    </g>
  </g>
</svg>
