<svg id="Raggruppa_22084" data-name="Raggruppa 22084" xmlns="http://www.w3.org/2000/svg" xmlns:xlink="http://www.w3.org/1999/xlink" width="824.227" height="860.068" viewBox="0 0 824.227 860.068">
  <defs>
    <clipPath id="clip-path">
      <rect id="Rettangolo_147556" data-name="Rettangolo 147556" width="824.227" height="860.068" fill="none"/>
    </clipPath>
    <clipPath id="clip-path-3">
      <rect id="Rettangolo_147552" data-name="Rettangolo 147552" width="152.866" height="106.697" transform="translate(667.91 700.151)" fill="none"/>
    </clipPath>
    <clipPath id="clip-path-4">
      <rect id="Rettangolo_147553" data-name="Rettangolo 147553" width="124.182" height="41.607" transform="translate(113.534 733.768)" fill="none"/>
    </clipPath>
    <clipPath id="clip-path-5">
      <rect id="Rettangolo_147554" data-name="Rettangolo 147554" width="112.404" height="45.218" transform="translate(541.897 799.044)" fill="none"/>
    </clipPath>
  </defs>
  <g id="Raggruppa_22083" data-name="Raggruppa 22083" clip-path="url(#clip-path)">
    <g id="Raggruppa_22082" data-name="Raggruppa 22082">
      <g id="Raggruppa_22081" data-name="Raggruppa 22081" clip-path="url(#clip-path)">
        <path id="Tracciato_62545" data-name="Tracciato 62545" d="M27.05,696.981s-90.06-191.814,58.479-334.2c118.385-113.477,198.8-164.49,259.243-259.493C427.685-27.031,620.823-26.867,743.382,63.705s60.964,388.853,71.087,489.779S863.982,847.375,659.2,857.22,80.879,859.663,27.05,696.981" fill="#dee8ff"/>
        <g id="Raggruppa_22074" data-name="Raggruppa 22074" opacity="0.35" style="mix-blend-mode: multiply;isolation: isolate">
          <g id="Raggruppa_22073" data-name="Raggruppa 22073">
            <g id="Raggruppa_22072" data-name="Raggruppa 22072" clip-path="url(#clip-path-3)">
              <path id="Tracciato_62546" data-name="Tracciato 62546" d="M667.91,806.848l135.964-28.933c8.581-17.163,13.811-35.99,16.9-55.879l-92.943-21.885Z" fill="#7b88ba"/>
            </g>
          </g>
        </g>
        <path id="Tracciato_62547" data-name="Tracciato 62547" d="M208.462,236.954s14.6,4.13,11.312,16.127-11.312,21.556-11.312,21.556l-12.93-10.6Z" fill="#223a7a"/>
        <path id="Tracciato_62548" data-name="Tracciato 62548" d="M760.979,422.713l-196.034-23.03c-4.94-.53-9.438-3.38-9.438-8.166l-4.614-287.035c0-5.279,4.418-9.085,9.867-8.5l199.3,21.353a11.088,11.088,0,0,1,9.867,10.616V415.005C769.925,419.792,765.92,423.242,760.979,422.713Z" fill="none" stroke="#223c8c" stroke-linecap="round" stroke-linejoin="round" stroke-width="0.973"/>
        <path id="Tracciato_62549" data-name="Tracciato 62549" d="M749.73,421.508,574.689,402.754l-3.6-286.157L749.73,135.736Z" fill="#b1bde6"/>
        <path id="Tracciato_62550" data-name="Tracciato 62550" d="M599.935,119.687V371.759" fill="none" stroke="#223c8c" stroke-linecap="round" stroke-linejoin="round" stroke-width="0.973"/>
        <path id="Tracciato_62551" data-name="Tracciato 62551" d="M749.73,375.875l-178.643-20.16V345.522l178.643,20.16Z" fill="#fff"/>
        <path id="Tracciato_62552" data-name="Tracciato 62552" d="M599.172,332.733l-28.084,12.789L749.73,368.239v-18.81Z" fill="#c6d1f7"/>
        <path id="Tracciato_62553" data-name="Tracciato 62553" d="M749.73,294.037l-178.643-20.16V263.684l178.643,20.16Z" fill="#fff"/>
        <path id="Tracciato_62554" data-name="Tracciato 62554" d="M599.172,250.9l-28.084,12.789L749.73,286.4v-18.81Z" fill="#c6d1f7"/>
        <path id="Tracciato_62555" data-name="Tracciato 62555" d="M749.73,212.2l-178.643-20.16V181.846l178.643,20.16Z" fill="#fff"/>
        <path id="Tracciato_62556" data-name="Tracciato 62556" d="M599.172,169.057l-28.084,12.789L749.73,204.563v-18.81Z" fill="#c6d1f7"/>
        <path id="Tracciato_62557" data-name="Tracciato 62557" d="M743.037,354.227l-13.58,6.575s-.769.4-1.115.541c-.02.016-.041.031-.064.046l.615.075a5.4,5.4,0,0,0,2.4-.6l18.156-9c.795-.395,1.015-.769.49-.833l-5.875-.716.046,2.533a1.825,1.825,0,0,1-1.072,1.383" fill="#b1bde6"/>
        <path id="Tracciato_62558" data-name="Tracciato 62558" d="M686.913,340.926l40.66,5.013a1.336,1.336,0,0,1,.518.175c.035-.02.069-.039.1-.057l16.4-8.316a1.139,1.139,0,0,1,.917-.122c-.02-.1-.144-.183-.39-.213l-40.636-5.01a4.855,4.855,0,0,0-2.318.5l-15.606,7.915c-.351.178-.539.355-.56.495a.856.856,0,0,1,.914-.377" fill="#dae1f2"/>
        <path id="Tracciato_62559" data-name="Tracciato 62559" d="M729.6,346.036v14.648l15.252-7.736a2.134,2.134,0,0,0,1.2-1.626l-.052-2.98-.177-10.207v-.005a80.113,80.113,0,0,1-16.23,7.883.08.08,0,0,1,0,.023" fill="#c9d4f2"/>
        <path id="Tracciato_62560" data-name="Tracciato 62560" d="M744.591,337.741l-16.4,8.316c-.035.018-.069.037-.1.057a1.072,1.072,0,0,1,.24.192,2.522,2.522,0,0,1,.353-.094c.481-.092.877-.335.914-.2a80.058,80.058,0,0,0,16.229-7.883h0a.524.524,0,0,0-.322-.51,1.14,1.14,0,0,0-.917.122" fill="#b1bde6"/>
        <path id="Tracciato_62561" data-name="Tracciato 62561" d="M729.6,360.683V346.035a.08.08,0,0,0,0-.022c-.037-.136-.433.106-.914.2a2.7,2.7,0,0,0-.352.094.675.675,0,0,1,.205.454V360.93a.511.511,0,0,1-.187.389c.388-.167,1.252-.636,1.252-.636" fill="#b1bde6"/>
        <path id="Tracciato_62562" data-name="Tracciato 62562" d="M686.913,356.5l40.66,5.013a1.049,1.049,0,0,0,.705-.14.481.481,0,0,0,.072-.054.509.509,0,0,0,.187-.389V346.759a.675.675,0,0,0-.205-.454,1.1,1.1,0,0,0-.241-.191,1.348,1.348,0,0,0-.518-.176l-40.66-5.013a.858.858,0,0,0-.915.378.487.487,0,0,0-.049.2v14.171c0,.388.431.755.964.821" fill="#7585ba"/>
        <path id="Tracciato_62563" data-name="Tracciato 62563" d="M686.913,356.5l24.861,3.065-10.187-16.83-14.674-1.81a.858.858,0,0,0-.915.378.487.487,0,0,0-.049.2v14.171c0,.388.431.755.964.821" fill="#fff"/>
        <path id="Tracciato_62564" data-name="Tracciato 62564" d="M699.813,347.737l-12.051-1.481a1.067,1.067,0,0,1-.986-.936.8.8,0,0,1,.987-.694l12.05,1.481a1.065,1.065,0,0,1,.986.936.8.8,0,0,1-.986.694" fill="#7e8dbf"/>
        <path id="Tracciato_62565" data-name="Tracciato 62565" d="M699.813,351.7l-12.051-1.481a1.067,1.067,0,0,1-.986-.936.8.8,0,0,1,.987-.694l12.05,1.481a1.065,1.065,0,0,1,.986.936.8.8,0,0,1-.986.694" fill="#7e8dbf"/>
        <path id="Tracciato_62566" data-name="Tracciato 62566" d="M722.881,351.1l-10.972-1.395a.9.9,0,0,1-.79-.9.963.963,0,0,1,1.077-.949l10.972,1.4a.9.9,0,0,1,.79.9.963.963,0,0,1-1.077.949" fill="#fff"/>
        <path id="Tracciato_62567" data-name="Tracciato 62567" d="M719.672,354.479l-4.554-.579a.9.9,0,0,1-.79-.9.964.964,0,0,1,1.077-.95l4.553.579a.9.9,0,0,1,.79.9.962.962,0,0,1-1.076.949" fill="#fff"/>
        <path id="Tracciato_62568" data-name="Tracciato 62568" d="M687.242,323.777l40.66,5.013a1.336,1.336,0,0,1,.518.176c.035-.021.069-.039.1-.057l16.4-8.317a1.138,1.138,0,0,1,.917-.121c-.02-.1-.144-.184-.39-.213l-40.636-5.011a4.845,4.845,0,0,0-2.318.5l-15.606,7.914c-.351.179-.539.356-.56.495a.856.856,0,0,1,.914-.377" fill="#dae1f2"/>
        <path id="Tracciato_62569" data-name="Tracciato 62569" d="M729.932,328.888v14.648l15.252-7.736a2.134,2.134,0,0,0,1.2-1.626l-.052-2.98-.177-10.207v-.005a80.111,80.111,0,0,1-16.23,7.883.078.078,0,0,1,0,.023" fill="#c9d4f2"/>
        <path id="Tracciato_62570" data-name="Tracciato 62570" d="M744.921,320.593l-16.4,8.316c-.035.018-.069.037-.1.057a1.1,1.1,0,0,1,.241.192,2.476,2.476,0,0,1,.352-.094c.481-.092.877-.335.914-.2a80.052,80.052,0,0,0,16.229-7.883h0a.521.521,0,0,0-.321-.51,1.139,1.139,0,0,0-.917.122" fill="#b1bde6"/>
        <path id="Tracciato_62571" data-name="Tracciato 62571" d="M729.932,343.535V328.887a.078.078,0,0,0,0-.022c-.037-.136-.433.106-.913.2a2.523,2.523,0,0,0-.353.093.675.675,0,0,1,.205.454v14.171a.509.509,0,0,1-.187.389c.389-.167,1.252-.636,1.252-.636" fill="#b1bde6"/>
        <path id="Tracciato_62572" data-name="Tracciato 62572" d="M687.242,339.352l40.66,5.013a1.052,1.052,0,0,0,.706-.14.53.53,0,0,0,.071-.054.507.507,0,0,0,.188-.389V329.611a.676.676,0,0,0-.206-.454,1.074,1.074,0,0,0-.241-.191,1.337,1.337,0,0,0-.518-.176l-40.66-5.013a.858.858,0,0,0-.914.377.482.482,0,0,0-.05.207v14.17c0,.388.432.755.964.821" fill="#7585ba"/>
        <path id="Tracciato_62573" data-name="Tracciato 62573" d="M687.242,339.352l24.861,3.065-10.187-16.831-14.674-1.809a.858.858,0,0,0-.914.377.482.482,0,0,0-.05.207v14.17c0,.388.432.755.964.821" fill="#fff"/>
        <path id="Tracciato_62574" data-name="Tracciato 62574" d="M700.143,330.588l-12.051-1.481a1.067,1.067,0,0,1-.986-.936.794.794,0,0,1,.986-.694l12.051,1.481a1.066,1.066,0,0,1,.986.936.8.8,0,0,1-.986.694" fill="#7e8dbf"/>
        <path id="Tracciato_62575" data-name="Tracciato 62575" d="M700.143,334.552l-12.051-1.481a1.067,1.067,0,0,1-.986-.937.794.794,0,0,1,.986-.693l12.051,1.481a1.066,1.066,0,0,1,.986.936.8.8,0,0,1-.986.694" fill="#7e8dbf"/>
        <path id="Tracciato_62576" data-name="Tracciato 62576" d="M723.211,333.953l-10.972-1.395a.9.9,0,0,1-.79-.9.963.963,0,0,1,1.077-.95l10.972,1.395a.9.9,0,0,1,.79.9.962.962,0,0,1-1.077.949" fill="#fff"/>
        <path id="Tracciato_62577" data-name="Tracciato 62577" d="M720,337.331l-4.553-.579a.9.9,0,0,1-.79-.9.963.963,0,0,1,1.077-.95l4.553.579a.9.9,0,0,1,.79.9.963.963,0,0,1-1.077.949" fill="#fff"/>
        <path id="Tracciato_62578" data-name="Tracciato 62578" d="M617.779,330.165l40.66,5.013a1.336,1.336,0,0,1,.518.175c.035-.02.069-.039.1-.057l16.4-8.316a1.139,1.139,0,0,1,.917-.122c-.02-.1-.144-.183-.39-.214l-40.636-5.009a4.855,4.855,0,0,0-2.318.5l-15.606,7.915c-.351.178-.539.355-.56.495a.856.856,0,0,1,.914-.377" fill="#dae1f2"/>
        <path id="Tracciato_62579" data-name="Tracciato 62579" d="M660.468,335.275v14.648l15.252-7.736a2.134,2.134,0,0,0,1.2-1.626l-.052-2.98-.177-10.207v-.005a80.106,80.106,0,0,1-16.23,7.883.078.078,0,0,1,0,.023" fill="#c9d4f2"/>
        <path id="Tracciato_62580" data-name="Tracciato 62580" d="M675.458,326.98l-16.4,8.316c-.035.018-.069.037-.1.057a1.071,1.071,0,0,1,.24.192,2.522,2.522,0,0,1,.353-.094c.481-.092.877-.335.914-.2a80.052,80.052,0,0,0,16.229-7.883h0a.521.521,0,0,0-.321-.51,1.14,1.14,0,0,0-.917.122" fill="#b1bde6"/>
        <path id="Tracciato_62581" data-name="Tracciato 62581" d="M660.469,349.923V335.275a.078.078,0,0,0-.005-.022c-.037-.136-.433.106-.914.2a2.654,2.654,0,0,0-.352.093.672.672,0,0,1,.206.454V350.17a.51.51,0,0,1-.188.389c.389-.166,1.253-.636,1.253-.636" fill="#b1bde6"/>
        <path id="Tracciato_62582" data-name="Tracciato 62582" d="M617.779,345.74l40.66,5.013a1.059,1.059,0,0,0,.706-.139.647.647,0,0,0,.071-.055.507.507,0,0,0,.188-.389V336a.675.675,0,0,0-.205-.454,1.1,1.1,0,0,0-.241-.191,1.342,1.342,0,0,0-.518-.176l-40.66-5.012a.855.855,0,0,0-.914.377.475.475,0,0,0-.05.206v14.17c0,.388.432.755.964.821" fill="#7585ba"/>
        <path id="Tracciato_62583" data-name="Tracciato 62583" d="M617.779,345.74,642.64,348.8l-10.187-16.83-14.674-1.809a.855.855,0,0,0-.914.377.475.475,0,0,0-.05.206v14.17c0,.388.432.755.964.821" fill="#fff"/>
        <path id="Tracciato_62584" data-name="Tracciato 62584" d="M630.68,336.976l-12.051-1.481a1.067,1.067,0,0,1-.986-.936.8.8,0,0,1,.987-.694l12.05,1.481a1.065,1.065,0,0,1,.986.936.8.8,0,0,1-.986.694" fill="#7e8dbf"/>
        <path id="Tracciato_62585" data-name="Tracciato 62585" d="M630.68,340.94l-12.051-1.481a1.067,1.067,0,0,1-.986-.936.8.8,0,0,1,.987-.694l12.05,1.481a1.065,1.065,0,0,1,.986.936.8.8,0,0,1-.986.694" fill="#7e8dbf"/>
        <path id="Tracciato_62586" data-name="Tracciato 62586" d="M653.748,340.341l-10.972-1.395a.9.9,0,0,1-.79-.9.963.963,0,0,1,1.077-.949l10.972,1.395a.9.9,0,0,1,.79.9.963.963,0,0,1-1.077.949" fill="#fff"/>
        <path id="Tracciato_62587" data-name="Tracciato 62587" d="M650.538,343.719l-4.553-.579a.9.9,0,0,1-.789-.9.962.962,0,0,1,1.076-.95l4.553.579a.9.9,0,0,1,.79.9.963.963,0,0,1-1.077.95" fill="#fff"/>
        <g id="Raggruppa_22077" data-name="Raggruppa 22077" opacity="0.35" style="mix-blend-mode: multiply;isolation: isolate">
          <g id="Raggruppa_22076" data-name="Raggruppa 22076">
            <g id="Raggruppa_22075" data-name="Raggruppa 22075" clip-path="url(#clip-path-4)">
              <path id="Tracciato_62588" data-name="Tracciato 62588" d="M237.7,756.686c-.728,11.429-29.11,19.748-63.394,18.58s-61.488-11.379-60.76-22.808,29.11-19.748,63.394-18.58,61.488,11.379,60.76,22.808" fill="#7b88ba"/>
            </g>
          </g>
        </g>
        <path id="Tracciato_62589" data-name="Tracciato 62589" d="M385.862,328.6s2.3-3.268,5.539-.307-2.77,27.047-2.77,27.047l-8.859-1.425s-4.439-.636,0-8.75a64.815,64.815,0,0,0,6.09-16.565" fill="#adbad6"/>
        <path id="Tracciato_62590" data-name="Tracciato 62590" d="M472.149,301.269s-23.277,80.239-42,78.86c-6.2-.457-14.5-7.26-10.534-18.852,5.8-16.943,21.055-61.894,21.055-61.894Z" fill="#ffa9a8"/>
        <path id="Tracciato_62591" data-name="Tracciato 62591" d="M357.307,330.476s64.3,62.423,82.749,42.494c12.506-13.509-9.2-21.294-34.125-34.375-21.89-11.488-46.318-21.9-46.318-21.9Z" fill="#ffa9a8"/>
        <path id="Tracciato_62592" data-name="Tracciato 62592" d="M343.126,346.766l23.086-6.254c.044-.014.315-.081.742-.185,5.3-1.291,8.435-7.65,6.58-13.266-1.053-3.188-2.436-6.037-4.151-6.884l-12.65-5.233-8.611-5.055s-2.892,1.773,2.132,7.728c1.548,1.836,3.946,3.006,4.961,4.389a20.048,20.048,0,0,1-2.934,2.225l-20.556,3.925c-1.634.225-3.107.709-2.976,2.547l.024.337c.132,1.838,1.653,2.023,3.287,1.8l6.148-.554-8.06,2.518c-1.611.415-3.039,1.068-2.738,2.872l.055.331c.3,1.8,1.837,1.809,3.449,1.394l6.032-1.26-1.093.412c-1.593.511-2.99,1.248-2.6,3.027l.071.327c.386,1.779,1.924,1.691,3.517,1.18l10.827-2.933-5.522,2.081c-1.593.511-2.991,1.248-2.6,3.027l.071.327c.386,1.779,1.924,1.691,3.517,1.18" fill="#ffa9a8"/>
        <g id="Raggruppa_22080" data-name="Raggruppa 22080" opacity="0.35" style="mix-blend-mode: multiply;isolation: isolate">
          <g id="Raggruppa_22079" data-name="Raggruppa 22079">
            <g id="Raggruppa_22078" data-name="Raggruppa 22078" clip-path="url(#clip-path-5)">
              <path id="Tracciato_62593" data-name="Tracciato 62593" d="M654.3,821.654c0,12.487-25.162,22.609-56.2,22.609s-56.2-10.122-56.2-22.609,25.163-22.609,56.2-22.609,56.2,10.122,56.2,22.609" fill="#7b88ba"/>
            </g>
          </g>
        </g>
        <path id="Tracciato_62594" data-name="Tracciato 62594" d="M506.128,189.942c-6.321,3.1-32.584,6.415-33.754-2.585-1.506-11.579,8.353-16.214,17.325-16.876,33.932-2.5,48.3-2.319,49.411,27.127,0,0-1.18,31.659-20.045,30.35,3.876-6.565,4.243-26.808,1.739-24.842-11.934,9.37-8.9-16.008-14.676-13.174" fill="#223a7a"/>
        <path id="Tracciato_62595" data-name="Tracciato 62595" d="M534.317,268.113l-46.7-4.542,8.781-17.26c14.324-2.175,23.766-4.656,35.261,1.325Z" fill="#1e47a1"/>
        <path id="Tracciato_62596" data-name="Tracciato 62596" d="M454.112,270.94c-6.5,9.281-5.6,13.813-5.026,24.174.559,10.13,8.572,17.057,19.725,17.1l93.429,7.9L576,312.94s9.173-38.165-1.786-43.378c-27-12.842-40.063-15.587-54.465-16.36-24.063-1.291-50.611-3.7-65.634,17.738" fill="#2455bf"/>
        <path id="Tracciato_62597" data-name="Tracciato 62597" d="M459.474,443.108c-1.542,4.07-3.315-106.617-1.134-176.9L574.349,311.7c.026,52.838,3.06,76.559.831,146.489-34.6,23.618-115.353,15.712-115.706-15.077" fill="#2455bf"/>
        <path id="Tracciato_62598" data-name="Tracciato 62598" d="M500.092,255.258,495.83,212.8l28.559,7.532,7.115,38c1.352,5.833-25.5,19.322-31.412-3.081" fill="#ffa9a8"/>
        <path id="Tracciato_62599" data-name="Tracciato 62599" d="M501.192,264.656a14.425,14.425,0,0,0,6.426-.383l9.737,15.843-.61.645c-1.892,2-5.119,2.25-6.149.469Z" fill="#1e47a1"/>
        <path id="Tracciato_62600" data-name="Tracciato 62600" d="M512.35,266.56s-3.3.188-5.336-1.073L488.9,278.413l.134.641c.418,1.992,3.065,2.578,5.045,1.118Z" fill="#1e47a1"/>
        <path id="Tracciato_62601" data-name="Tracciato 62601" d="M510.153,264.4s-12.941.542-13.759-18.086l-6.1,2.041c-1.133.938-3.843,1.91-5.348,8.38a17,17,0,0,0-.04,9l2.108,10.4c.473,2.332,3.582,3.006,5.873,1.274Z" fill="#4d85ff"/>
        <path id="Tracciato_62602" data-name="Tracciato 62602" d="M504.2,264.329s13.017,2.47,27.457-16.693l8.464,6.531c1.82,1.722.212,3.922-1.226,5.457l-18.778,20c-2.2,2.348-5.978,2.621-7.139.517Z" fill="#4d85ff"/>
        <path id="Tracciato_62603" data-name="Tracciato 62603" d="M499.016,244.326s12.608-6.712,12.655-6.834c0,0-.849,8.551-12.008,13.488Z" fill="#e37b7b"/>
        <path id="Tracciato_62604" data-name="Tracciato 62604" d="M488.566,243.253c-5.16-4.556-8.606-7.8-9.815-18.187l-.641-27.547c-1.555-13.349,4.466-21.513,17.117-20.882l1.264.063c12.651.63,24.274,12.068,25.829,25.418,7.117,5.092,3.828,8.162.223,26.838-1.874,3.836-11.729,11.966-19.467,15.511-1.758.806-11.569,1.383-14.51-1.214" fill="#ffa9a8"/>
        <path id="Tracciato_62609" data-name="Tracciato 62609" d="M529.186,216.414c-2.361,4.113-6.2,5.49-8.571,3.075s-2.382-7.706-.021-11.818,6.2-5.49,8.571-3.076,2.382,7.706.021,11.819" fill="#ffa9a8"/>
        <path id="Tracciato_62610" data-name="Tracciato 62610" d="M524.369,211.03A.673.673,0,0,1,524.1,211a.683.683,0,0,1-.431-.887c.033-.1.828-2.347,2.654-2.951a3.584,3.584,0,0,1,3.371.809.706.706,0,0,1,.112.994.715.715,0,0,1-.994.155,2.327,2.327,0,0,0-2.094-.61,3.5,3.5,0,0,0-1.715,2.02.75.75,0,0,1-.637.5" fill="#e37b7b"/>
        <path id="Tracciato_62611" data-name="Tracciato 62611" d="M525.675,212.863c-.187,1.055-.895,1.712-1.58,1.467a2.1,2.1,0,0,1-.9-2.353c.187-1.055.894-1.712,1.58-1.467a2.1,2.1,0,0,1,.9,2.353" fill="#e37b7b"/>
        <path id="Tracciato_62613" data-name="Tracciato 62613" d="M472.269,184.1s-1.89,8.606,6.25,10.11,29.829-4.623,35.732.571,1.074,17.932,5.845,17.638c6.133-.377,4.081-22.552,4.081-22.552L512.644,177.02s-18.032-14.456-40.375,7.081" fill="#223a7a"/>
        <path id="Tracciato_62614" data-name="Tracciato 62614" d="M510.457,264.4s-3.3.188-5.336-1.073l-18.115,12.926.134.641c.418,1.992,3.064,2.578,5.045,1.118Z" fill="#fcfeff"/>
        <path id="Tracciato_62615" data-name="Tracciato 62615" d="M503.872,264.3a14.424,14.424,0,0,0,6.426-.383l9.736,15.843-.609.645c-1.892,2-5.119,2.25-6.149.469Z" fill="#fcfeff"/>
        <path id="Tracciato_62616" data-name="Tracciato 62616" d="M667.91,806.848,743.381,748.8l-.844-265.014L667.91,518.107Z" fill="#7c98db"/>
        <path id="Tracciato_62617" data-name="Tracciato 62617" d="M750.269,485.87V448.333L675.49,492.281v38.491Z" fill="#7d9ce3"/>
        <path id="Tracciato_62618" data-name="Tracciato 62618" d="M618.836,176.293c0,1.982-5.018,3.73-11.208,3.9s-11.209-1.294-11.209-3.276,5.019-3.73,11.209-3.9,11.208,1.293,11.208,3.276" fill="#b1bde6"/>
        <path id="Tracciato_62619" data-name="Tracciato 62619" d="M603.165,159.886c-5.479.153-9.921,1.71-9.921,3.478V176.99h.049c.492,1.6,4.723,2.752,9.872,2.608s9.379-1.527,9.872-3.16l.049,0V162.809c0-1.768-4.442-3.076-9.921-2.923" fill="#fff"/>
        <path id="Tracciato_62620" data-name="Tracciato 62620" d="M603.165,154.706c-5.479.153-9.921,1.71-9.921,3.478V171.81h.049c.492,1.6,4.723,2.752,9.872,2.608s9.379-1.527,9.872-3.16l.049,0V157.629c0-1.768-4.442-3.076-9.921-2.923" fill="#fff"/>
        <path id="Tracciato_62621" data-name="Tracciato 62621" d="M593.243,161.108s7.1,4.394,17.51.506l.122,16.6a4.029,4.029,0,0,0,2.211-1.783V156.217l-16.438,1.065-3.405,1.551Z" fill="#dae1f2"/>
        <path id="Tracciato_62622" data-name="Tracciato 62622" d="M609.143,154.392a30.119,30.119,0,0,0-6.178-.423,30.643,30.643,0,0,0-6.178.768l-5.03.141.048,3.3c.486,1.826,5.292,3.136,11.16,2.972s10.675-1.743,11.16-3.6l.048-3.3Z" fill="#7e8dbf"/>
        <path id="Tracciato_62623" data-name="Tracciato 62623" d="M614.173,154.251c0,1.983-5.018,3.731-11.208,3.9s-11.209-1.294-11.209-3.276,5.019-3.73,11.209-3.9,11.208,1.293,11.208,3.275" fill="#8f9dcf"/>
        <path id="Tracciato_62624" data-name="Tracciato 62624" d="M593.243,165.042s2.517,1.731,8.361,1.757v6.327s-5.565.7-8.361-1.448Z" fill="#9ba7cf"/>
        <path id="Tracciato_62625" data-name="Tracciato 62625" d="M645.915,179.021c0,1.982-5.018,3.73-11.208,3.9S623.5,181.63,623.5,179.648s5.019-3.73,11.209-3.9,11.208,1.294,11.208,3.276" fill="#b1bde6"/>
        <path id="Tracciato_62626" data-name="Tracciato 62626" d="M630.244,162.614c-5.479.153-9.921,1.71-9.921,3.478v13.626h.049c.492,1.605,4.723,2.752,9.872,2.608s9.379-1.527,9.872-3.16l.049,0V165.537c0-1.768-4.442-3.076-9.921-2.923" fill="#fff"/>
        <path id="Tracciato_62627" data-name="Tracciato 62627" d="M630.244,157.434c-5.479.153-9.921,1.71-9.921,3.478v13.626h.049c.492,1.6,4.723,2.752,9.872,2.608s9.379-1.527,9.872-3.16l.049,0V160.357c0-1.768-4.442-3.076-9.921-2.923" fill="#fff"/>
        <path id="Tracciato_62628" data-name="Tracciato 62628" d="M620.322,163.836s7.1,4.394,17.51.506l.122,16.6a4.033,4.033,0,0,0,2.211-1.783V158.944l-16.438,1.066-3.4,1.551Z" fill="#dae1f2"/>
        <path id="Tracciato_62629" data-name="Tracciato 62629" d="M636.222,157.12a30.118,30.118,0,0,0-6.178-.423,30.64,30.64,0,0,0-6.178.768l-5.03.141.048,3.3c.486,1.826,5.292,3.136,11.16,2.972s10.675-1.743,11.16-3.6l.049-3.3Z" fill="#7e8dbf"/>
        <path id="Tracciato_62630" data-name="Tracciato 62630" d="M641.252,156.98c0,1.983-5.018,3.73-11.208,3.9s-11.209-1.294-11.209-3.276,5.019-3.73,11.209-3.9,11.208,1.294,11.208,3.276" fill="#8f9dcf"/>
        <path id="Tracciato_62631" data-name="Tracciato 62631" d="M620.322,167.77s2.517,1.731,8.361,1.757v6.327s-5.565.7-8.361-1.448Z" fill="#9ba7cf"/>
        <path id="Tracciato_62632" data-name="Tracciato 62632" d="M673.948,182.333c0,1.982-5.018,3.73-11.208,3.9s-11.209-1.294-11.209-3.276,5.019-3.73,11.209-3.9,11.208,1.294,11.208,3.276" fill="#b1bde6"/>
        <path id="Tracciato_62633" data-name="Tracciato 62633" d="M658.277,165.926c-5.479.153-9.921,1.71-9.921,3.478V183.03h.049c.492,1.6,4.723,2.752,9.872,2.608s9.379-1.527,9.872-3.16l.049,0V168.849c0-1.768-4.442-3.076-9.921-2.923" fill="#fff"/>
        <path id="Tracciato_62634" data-name="Tracciato 62634" d="M658.277,160.746c-5.479.153-9.921,1.71-9.921,3.478V177.85h.049c.492,1.6,4.723,2.752,9.872,2.608s9.379-1.527,9.872-3.16l.049,0V163.669c0-1.768-4.442-3.076-9.921-2.923" fill="#fff"/>
        <path id="Tracciato_62635" data-name="Tracciato 62635" d="M648.356,167.149s7.1,4.394,17.51.506l.122,16.6a4.033,4.033,0,0,0,2.211-1.783V162.257l-16.438,1.066-3.4,1.551Z" fill="#dae1f2"/>
        <path id="Tracciato_62636" data-name="Tracciato 62636" d="M664.255,160.433a30.119,30.119,0,0,0-6.178-.423,30.643,30.643,0,0,0-6.178.768l-5.03.141.048,3.3c.486,1.826,5.292,3.136,11.16,2.972s10.675-1.743,11.16-3.6l.048-3.3Z" fill="#7e8dbf"/>
        <path id="Tracciato_62637" data-name="Tracciato 62637" d="M669.286,160.292c0,1.982-5.018,3.73-11.208,3.9s-11.209-1.294-11.209-3.276,5.019-3.73,11.209-3.9,11.208,1.294,11.208,3.276" fill="#8f9dcf"/>
        <path id="Tracciato_62638" data-name="Tracciato 62638" d="M648.356,171.082s2.517,1.731,8.361,1.757v6.327s-5.565.7-8.361-1.448Z" fill="#9ba7cf"/>
        <path id="Tracciato_62639" data-name="Tracciato 62639" d="M737.827,272.8c0,1.983-5.018,3.73-11.208,3.9s-11.209-1.294-11.209-3.276,5.019-3.73,11.209-3.9,11.208,1.294,11.208,3.276" fill="#b1bde6"/>
        <path id="Tracciato_62640" data-name="Tracciato 62640" d="M722.156,256.388c-5.479.153-9.921,1.71-9.921,3.478v13.626h.049c.493,1.605,4.723,2.752,9.872,2.608s9.379-1.527,9.872-3.16l.049,0V259.311c0-1.768-4.442-3.076-9.921-2.923" fill="#fff"/>
        <path id="Tracciato_62641" data-name="Tracciato 62641" d="M722.156,251.208c-5.479.153-9.921,1.71-9.921,3.478v13.626h.049c.493,1.6,4.723,2.752,9.872,2.608s9.379-1.527,9.872-3.16l.049,0V254.131c0-1.768-4.442-3.076-9.921-2.923" fill="#fff"/>
        <path id="Tracciato_62642" data-name="Tracciato 62642" d="M712.235,257.61s7.1,4.394,17.51.506l.122,16.6a4.028,4.028,0,0,0,2.21-1.783V252.718l-16.438,1.066-3.405,1.551Z" fill="#dae1f2"/>
        <path id="Tracciato_62643" data-name="Tracciato 62643" d="M728.134,250.894a30.118,30.118,0,0,0-6.178-.423,30.689,30.689,0,0,0-6.177.769l-5.031.14.048,3.3c.486,1.826,5.293,3.136,11.16,2.972s10.675-1.744,11.16-3.6l.049-3.3Z" fill="#7e8dbf"/>
        <path id="Tracciato_62644" data-name="Tracciato 62644" d="M733.165,250.754c0,1.982-5.018,3.73-11.208,3.9s-11.209-1.294-11.209-3.276,5.019-3.73,11.209-3.9,11.208,1.294,11.208,3.276" fill="#8f9dcf"/>
        <path id="Tracciato_62645" data-name="Tracciato 62645" d="M712.235,261.544s2.517,1.731,8.361,1.757v6.327s-5.565.7-8.361-1.448Z" fill="#9ba7cf"/>
        <path id="Tracciato_62646" data-name="Tracciato 62646" d="M594.408,246.376l40.66,5.013a1.336,1.336,0,0,1,.518.175c.035-.02.069-.039.1-.057l16.4-8.316a1.139,1.139,0,0,1,.917-.122c-.02-.1-.144-.183-.39-.214l-40.636-5.009a4.843,4.843,0,0,0-2.318.5l-15.606,7.915c-.351.178-.539.355-.56.5a.856.856,0,0,1,.914-.377" fill="#dae1f2"/>
        <path id="Tracciato_62647" data-name="Tracciato 62647" d="M637.1,251.486v14.648l15.252-7.736a2.134,2.134,0,0,0,1.2-1.626l-.052-2.98-.177-10.207v-.005a80.11,80.11,0,0,1-16.23,7.883.08.08,0,0,1,0,.023" fill="#dae1f2"/>
        <path id="Tracciato_62648" data-name="Tracciato 62648" d="M652.087,243.191l-16.4,8.316c-.035.018-.069.037-.1.057a1.072,1.072,0,0,1,.24.192,2.521,2.521,0,0,1,.353-.094c.481-.092.877-.335.914-.2a80.053,80.053,0,0,0,16.229-7.883h0a.524.524,0,0,0-.322-.51,1.136,1.136,0,0,0-.917.122" fill="#b1bde6"/>
        <path id="Tracciato_62649" data-name="Tracciato 62649" d="M637.1,266.133V251.485a.078.078,0,0,0,0-.022c-.037-.136-.433.106-.914.2a2.547,2.547,0,0,0-.352.093.675.675,0,0,1,.205.454V266.38a.513.513,0,0,1-.187.389c.388-.167,1.252-.636,1.252-.636" fill="#b1bde6"/>
        <path id="Tracciato_62650" data-name="Tracciato 62650" d="M594.408,261.95l40.66,5.013a1.053,1.053,0,0,0,.706-.14.528.528,0,0,0,.071-.054.51.51,0,0,0,.188-.389V252.209a.675.675,0,0,0-.2-.454,1.075,1.075,0,0,0-.241-.191,1.343,1.343,0,0,0-.518-.176l-40.66-5.013a.856.856,0,0,0-.914.378.473.473,0,0,0-.05.2v14.171c0,.388.432.755.964.821" fill="#fff"/>
        <path id="Tracciato_62651" data-name="Tracciato 62651" d="M626.086,256.434l-26.222-3.223a2.32,2.32,0,0,1-2.146-2.037,1.729,1.729,0,0,1,2.146-1.51l26.222,3.222a2.32,2.32,0,0,1,2.146,2.038,1.73,1.73,0,0,1-2.146,1.51" fill="#7e8dbf"/>
        <path id="Tracciato_62652" data-name="Tracciato 62652" d="M646.6,253.287l40.66,5.013a1.336,1.336,0,0,1,.518.175c.034-.02.069-.039.1-.057l16.4-8.316a1.139,1.139,0,0,1,.917-.122c-.02-.1-.144-.183-.39-.214l-40.637-5.009a4.853,4.853,0,0,0-2.317.5l-15.606,7.915c-.352.178-.539.355-.561.495a.858.858,0,0,1,.915-.377" fill="#dae1f2"/>
        <path id="Tracciato_62653" data-name="Tracciato 62653" d="M689.29,258.4v14.648l15.252-7.736a2.134,2.134,0,0,0,1.2-1.626l-.052-2.98-.177-10.207v-.005a80.109,80.109,0,0,1-16.23,7.883.078.078,0,0,1,0,.023" fill="#dae1f2"/>
        <path id="Tracciato_62654" data-name="Tracciato 62654" d="M704.28,250.1l-16.4,8.316c-.035.018-.069.037-.1.057a1.073,1.073,0,0,1,.24.192,2.521,2.521,0,0,1,.353-.094c.481-.092.877-.335.914-.2a80.052,80.052,0,0,0,16.229-7.883h0a.521.521,0,0,0-.321-.51,1.139,1.139,0,0,0-.917.122" fill="#b1bde6"/>
        <path id="Tracciato_62655" data-name="Tracciato 62655" d="M689.29,273.044V258.4a.078.078,0,0,0,0-.022c-.037-.136-.433.106-.914.2a2.549,2.549,0,0,0-.352.093.675.675,0,0,1,.2.454v14.171a.509.509,0,0,1-.187.389c.389-.167,1.252-.636,1.252-.636" fill="#b1bde6"/>
        <path id="Tracciato_62656" data-name="Tracciato 62656" d="M646.6,268.861l40.66,5.013a1.059,1.059,0,0,0,.706-.139.638.638,0,0,0,.071-.055.506.506,0,0,0,.187-.389V259.12a.675.675,0,0,0-.2-.454,1.1,1.1,0,0,0-.241-.191,1.336,1.336,0,0,0-.518-.176l-40.66-5.012a.857.857,0,0,0-.915.377.488.488,0,0,0-.049.206v14.17c0,.388.432.755.964.821" fill="#fff"/>
        <path id="Tracciato_62657" data-name="Tracciato 62657" d="M678.279,263.345l-26.222-3.223a2.319,2.319,0,0,1-2.146-2.037,1.73,1.73,0,0,1,2.146-1.511l26.222,3.223a2.32,2.32,0,0,1,2.146,2.038,1.73,1.73,0,0,1-2.146,1.51" fill="#7e8dbf"/>
        <path id="Tracciato_62659" data-name="Tracciato 62659" d="M667.91,529.794l7.58.978,67.069-39.7.05,16.672-74.7,45.743Z" fill="#6284cc"/>
        <path id="Tracciato_62660" data-name="Tracciato 62660" d="M489.2,249.144s-34.017,6.234-42.26,22.343-7.986,25.38-7.986,25.38,14.584,34.878,13.217,57.882-1.753,56.879-1.753,56.879l21.733,5.538s.024-73.559,0-78.567c-.069-15.026-.615-61.094,17.049-89.455" fill="#fcfeff"/>
        <path id="Tracciato_62661" data-name="Tracciato 62661" d="M536.387,251.04s10.338,5.947-2.9,20.447-21.126,48.809-21.9,75.864-.309,73.982-.309,73.982l52.823,8.714L581.919,312.94s8.5-33.688-9.144-45.231a144.7,144.7,0,0,0-36.388-16.669" fill="#fcfeff"/>
        <path id="Tracciato_62662" data-name="Tracciato 62662" d="M583.593,302.565s-3.8,93.895-22.262,97.316c-6.11,1.132-15.869-3.339-14.977-15.558,1.3-17.86,4.642-65.213,4.642-65.213Z" fill="#fcfeff"/>
        <path id="Tracciato_62663" data-name="Tracciato 62663" d="M667.91,514.5,173.523,449.746l.091,277.141,494.3,79.961Z" fill="#91aff2"/>
        <path id="Tracciato_62664" data-name="Tracciato 62664" d="M250.354,387.264,160.29,427.889l515.2,64.392,74.779-43.948Z" fill="#edf3ff"/>
        <path id="Tracciato_62665" data-name="Tracciato 62665" d="M445.629,612.825c.306,26.409-21.112,45.741-47.839,43.177s-48.64-26.05-48.948-52.459,21.111-45.741,47.838-43.177,48.642,26.05,48.949,52.459" fill="#006cb4"/>
        <path id="Tracciato_62666" data-name="Tracciato 62666" d="M675.49,530.772l-515.2-66.483v-36.4l515.2,64.392Z" fill="#abbfed"/>
        <path id="Tracciato_62667" data-name="Tracciato 62667" d="M395.181,639.1h0a6.056,6.056,0,0,1-6.171-6.059V583.554a6.326,6.326,0,0,1,6.171-6.282,6.056,6.056,0,0,1,6.171,6.059v49.483a6.326,6.326,0,0,1-6.171,6.282" fill="#fcfeff"/>
        <path id="Tracciato_62668" data-name="Tracciato 62668" d="M364.656,606.139h0a6.319,6.319,0,0,1,7.068-5.246l48.862,6.932A6.063,6.063,0,0,1,425.7,614.8a6.319,6.319,0,0,1-7.068,5.246l-48.861-6.932a6.063,6.063,0,0,1-5.119-6.976" fill="#fcfeff"/>
        <path id="Tracciato_62669" data-name="Tracciato 62669" d="M173.528,466l494.382,63.8v23.69L173.523,486.915Z" fill="#6c8fe0"/>
        <path id="Tracciato_62670" data-name="Tracciato 62670" d="M157.128,500.456l-7.6,96.781s-15.963,18.533-13.976,49.929c1.3,20.6,10.98,85.972,10.98,85.972l15.453,2.185,15.452-151.881Z" fill="#faa1a0"/>
        <path id="Tracciato_62671" data-name="Tracciato 62671" d="M146.956,732.029a3.106,3.106,0,0,0-3.658,1.817c-2.181,5.246-6.64,17.316-3.61,21.854,2.351,3.519,4.473,3.477,7.187,4.564a10.055,10.055,0,0,0,5.643.53L179.2,743.286c3.495-.781-2.12-7.492-7.3-7.57-7-.107-9.44.385-9.44.385Z" fill="#223a7a"/>
        <path id="Tracciato_62672" data-name="Tracciato 62672" d="M162.4,731.262l-.726,11.554s-5.217-.652-6.979-5.141a8.873,8.873,0,0,0-6.077-5.209l-2.426-.638,1.586-8.621Z" fill="#faa1a0"/>
        <path id="Tracciato_62673" data-name="Tracciato 62673" d="M166.762,688.415a370.331,370.331,0,0,1-2.816-49.139,22.172,22.172,0,0,0-11.173-19.516c-4.354-2.42-9.493-3.243-14.531.735,0,0,3.913-12.929,6.222-15.873s29.978,7.519,29.978,7.519Z" fill="#f08282"/>
        <path id="Tracciato_62674" data-name="Tracciato 62674" d="M196.618,516.363,184.583,610.4s-16.513,16.02-16.059,47.137c.3,20.418,6.672,85.968,6.672,85.968l15.029,4.264L210.512,605.2Z" fill="#faa1a0"/>
        <path id="Tracciato_62675" data-name="Tracciato 62675" d="M175.508,739.121a3.108,3.108,0,0,0-3.729,1.668c-2.388,5.155-7.33,17.036-4.483,21.692,2.207,3.611,4.328,3.654,7,4.849a10.048,10.048,0,0,0,5.618.756l37.348-10.747c3.523-.64,7.123-10.11-6.488-10.5-7-.2-19.943-3.027-19.943-3.027Z" fill="#223a7a"/>
        <path id="Tracciato_62676" data-name="Tracciato 62676" d="M191.119,741.9l-1.336,8.6s-5.186-.861-6.766-5.417a8.877,8.877,0,0,0-5.864-5.449l-2.4-.734,1.93-8.551Z" fill="#faa1a0"/>
        <path id="Tracciato_62677" data-name="Tracciato 62677" d="M204.535,596.864l6.475,14.954L191.1,741.894h0l0,.016-.89,5.86-.02-.005-.423,2.724a10.471,10.471,0,0,1-3.312-1.3s18.318-115.127,18.08-152.33" fill="#f08282"/>
        <path id="Tracciato_62678" data-name="Tracciato 62678" d="M202.911,640.272s3.858-18.477-12.253-21.38c0,0-9.909-2.272-16.373,7.894,0,0,4.969-11.961,10.259-17.947s26.513,1.7,26.513,1.7Z" fill="#f08282"/>
        <path id="Tracciato_62679" data-name="Tracciato 62679" d="M161.948,734.838l5.545-62.729-2.065-26.563-5.93,88.575Z" fill="#f08282"/>
        <path id="Tracciato_62680" data-name="Tracciato 62680" d="M182.992,610.774l-1.613-25.165,31.505-.967-1.874,27.176Z" fill="#f08282"/>
        <path id="Tracciato_62681" data-name="Tracciato 62681" d="M126.809,366s5.094,60.185,20,57.236,69.459-14.715,69.459-14.715l-68.255-42.879Z" fill="#f08282"/>
        <path id="Tracciato_62682" data-name="Tracciato 62682" d="M144.261,391.006c-5.637,2.862-11.051,2.714-16.185-1.2l-1.53-6.422,13.913.288Z" fill="#f0f0f0"/>
        <path id="Tracciato_62683" data-name="Tracciato 62683" d="M145.4,315.44s-22.055,13.068-21.336,32.93c.246,6.8.985,37.3.985,37.3,3.891,3.4,13.061,3.334,21.681,1.327Z" fill="#2455bf"/>
        <path id="Tracciato_62684" data-name="Tracciato 62684" d="M255.972,401.617c28.521-3.241,51.549,1.08,69.841-5.219l.13,12.327s-78.536,28.121-84.369,14.994c-8.718-19.619,14.4-22.1,14.4-22.1" fill="#faa1a0"/>
        <path id="Tracciato_62685" data-name="Tracciato 62685" d="M199.388,355.28s33.977,67.986,46.933,71.512,13.759-19.584,13.759-19.584l-41.954-59.745Z" fill="#faa1a0"/>
        <path id="Tracciato_62686" data-name="Tracciato 62686" d="M207.4,348.818l-8.012,6.463s33.977,67.987,46.933,71.512c4.4,1.2,6.906,1.256,11.394-.234-12.963-6.8-42.311-62.165-50.315-77.741" fill="#f08282"/>
        <path id="Tracciato_62687" data-name="Tracciato 62687" d="M243.978,380.442l4.237,7.043a30.154,30.154,0,0,1-23.949,15.106l-4.48-6.912Z" fill="#f0f0f0"/>
        <path id="Tracciato_62688" data-name="Tracciato 62688" d="M223.138,398.788c13.707-3.554,19.888-8.106,20.982-17.611,0,0-8.194-11.583-14.218-21.53a55.11,55.11,0,0,0-7.312-13.029l-.009-.005a65.907,65.907,0,0,0-19.555-19.435c-5.292-4.407-9.208-7.039-9.208-7.039l-26.467-11.933-19.771,5.8c-17.937,10.377-13.847,19.806-10.659,48.194.018.153,6.529,23.978,8.588,44.683,1.411,14.182-3.651,30.463-3.651,30.463-1.978,6.649-4.7,10.016-7.443,20.355v0c-5.335,13.192-9.424,33.4-3.318,60.376,8.745,38.636,8.235,84.419,8.235,84.419s25.305,18.687,52.386,13.8c2.7-.488,6.835-1.032,11.132-2h.005a11.16,11.16,0,0,0,3.475-.88,41.927,41.927,0,0,0,4.774-1.65c5.668-2.044,10.2-4.608,9.356-12.338l.894-140.9c0-1.047-.174-9.063-.577-10.581l-2.651-16.812a52.447,52.447,0,0,1,2.991-27.351c.659-1.677,1.339-3.35,2.022-5.01" fill="#3072ff"/>
        <path id="Tracciato_62689" data-name="Tracciato 62689" d="M343.8,384.637c-.631,1.525-4.354,3.917-5.969,5.811a73.948,73.948,0,0,0-7.4,10.6s-7.082,1.443-7.321-4.471S333.242,386.3,333.242,386.3l10.322-6.867s2.555-.408.233,5.2" fill="#faa1a0"/>
        <path id="Tracciato_62690" data-name="Tracciato 62690" d="M350.253,400.862c1.453-1.777,3.056-3.753,3.056-3.753a15.451,15.451,0,0,0,2.825-11.478l-11.538,4.69c-5.884.16-10.817.584-12.906,2.837l-3.1-.361a1.272,1.272,0,0,0-1.152.5l-8.1,10.572a1.271,1.271,0,0,0,1.006,2.075c1.15-.052,2.795-.2,4.716-.395l-4.191,4.935s17.874-4.026,23.961-6.213c.061-.022.133-.044.215-.067a10.324,10.324,0,0,0,5.2-3.341" fill="#faa1a0"/>
        <path id="Tracciato_62691" data-name="Tracciato 62691" d="M223.085,400.594l9.191-4.817c-3.986-9.617-10.727-25.3-20.689-38.573-12.108-16.132-27.961-28.053-41.687-29.418l7.193,47.293,12.059-10.787s30.443,41.828,33.933,36.3" fill="#3071ff"/>
        <line id="Linea_399" data-name="Linea 399" x1="25.641" y1="32.449" transform="translate(195.315 365.951)" fill="none" stroke="#223c8c" stroke-linecap="round" stroke-linejoin="round" stroke-width="0.973"/>
        <path id="Tracciato_62693" data-name="Tracciato 62693" d="M214.461,300.578c2.279-4.443,3.9-9.341,3.347-19.662l-1.194-22.288c-.71-13.265-10.138-23.107-20.95-21.87l-1.08.123c-10.812,1.237-19.076,13.1-18.366,26.367l1.153,21.516c.557,10.409,20.326,15.711,28.886,16.774,1.774.22,7.8-.167,8.2-.96" fill="#faa1a0"/>
        <path id="Tracciato_62694" data-name="Tracciato 62694" d="M206.959,301.586s-17.845-3.171-19.247-20.183L168.783,293.43l-4.721,22.98,27.121,2.512,3.182-18.436a103.018,103.018,0,0,0,12.594,1.1" fill="#f08282"/>
        <path id="Tracciato_62695" data-name="Tracciato 62695" d="M202.551,326.466a.605.605,0,0,0,.391-1.1l-6.216-4.28a17.927,17.927,0,0,0-5.336-3l-26.656-9.44a4.206,4.206,0,0,0-2.818,0l-9.21,3.282s4.633,18.353,22.947,14.786c8.329-1.622,21.584-.715,26.9-.25" fill="#f0f0f0"/>
        <path id="Tracciato_62696" data-name="Tracciato 62696" d="M166.468,295.125a5.457,5.457,0,0,0,2.9,1.371l5.05.758c6.471-1.319,7.111-6.033,7.909-8.681,1.41-4.677,7.229-7.4,8.41-14.421.469-2.78,6.436-1.939,7.324-6.963a26.463,26.463,0,0,1,8.612-14.8s8.772-4.643,7.108-9.162c-2.431-6.6-5.739-6.618-10.575-10.1-10.8-7.777-41.01-5.37-49.387,17.868-8.185,22.708,7.866,39.711,12.649,44.13" fill="#223a7a"/>
        <path id="Tracciato_62697" data-name="Tracciato 62697" d="M196.869,275.331c.2,4.69-2.646,8.621-6.362,8.781s-6.89-3.513-7.091-8.2,2.646-8.62,6.361-8.78,6.89,3.512,7.092,8.2" fill="#faa1a0"/>
        <path id="Tracciato_62701" data-name="Tracciato 62701" d="M192.226,274.637a.383.383,0,0,0,.2-.043.834.834,0,0,0,.285-.955c-.029-.1-.716-2.437-2.1-2.99-.808-.324-1.644.016-2.484,1.009a.97.97,0,0,0-.042,1.054.439.439,0,0,0,.749.117c.566-.67,1.084-.919,1.538-.74.709.28,1.225,1.575,1.364,2.051a.618.618,0,0,0,.5.5" fill="#e37b7b"/>
        <path id="Tracciato_62702" data-name="Tracciato 62702" d="M191.327,276.63c.183,1.1.739,1.764,1.24,1.474s.761-1.419.578-2.523-.739-1.764-1.241-1.474-.76,1.419-.577,2.523" fill="#e37b7b"/>
        <path id="Tracciato_62703" data-name="Tracciato 62703" d="M129.426,509.649s3.581,14.718,22.931,24.558" fill="none" stroke="#223c8c" stroke-linecap="round" stroke-linejoin="round" stroke-width="0.973"/>
        <path id="Tracciato_62704" data-name="Tracciato 62704" d="M177.014,234.566s-22.189-10.225-36.519,3.7-2.111,33.315-22.4,45.07-14.374,32.409,9.1,45.939,39.679-5.271,37.625-19.227-18.495-44.183.017-47.395,22.729-7.268,12.178-28.09" fill="#223a7a" fill-rule="evenodd"/>
        <path id="Tracciato_62705" data-name="Tracciato 62705" d="M577.067,841.5H562.883a49.192,49.192,0,0,1-49.191-49.191V734.621H626.258v57.686A49.191,49.191,0,0,1,577.067,841.5" fill="#b5ccff"/>
        <path id="Tracciato_62706" data-name="Tracciato 62706" d="M626.259,734.622h-.925c-7.941,71.076-65.013,91.187-92.314,96.765A48.968,48.968,0,0,0,562.884,841.5h14.184a49.192,49.192,0,0,0,49.191-49.192Z" fill="#94ace3"/>
        <path id="Tracciato_62707" data-name="Tracciato 62707" d="M626.259,734.622c0,10.67-25.2,19.32-56.283,19.32s-56.283-8.65-56.283-19.32,25.2-19.32,56.283-19.32,56.283,8.65,56.283,19.32" fill="#3a5499"/>
        <path id="Tracciato_62708" data-name="Tracciato 62708" d="M537.588,520.361c-.129,2.865,35.39,69.97,32.921,174.432" fill="none" stroke="#223a7a" stroke-linecap="round" stroke-linejoin="round" stroke-width="3.121"/>
        <path id="Tracciato_62709" data-name="Tracciato 62709" d="M554.429,602.942s20.465,81.788,17.493,134.286" fill="none" stroke="#223a7a" stroke-linecap="round" stroke-linejoin="round" stroke-width="3.121"/>
        <path id="Tracciato_62710" data-name="Tracciato 62710" d="M598.1,515.441c-.065,1.432-34.777-2.688-27.467,163.674" fill="none" stroke="#223a7a" stroke-linecap="round" stroke-linejoin="round" stroke-width="3.121"/>
        <path id="Tracciato_62711" data-name="Tracciato 62711" d="M611.441,633.052s-34.4-28.335-39.323,86.26" fill="none" stroke="#223a7a" stroke-linecap="round" stroke-linejoin="round" stroke-width="3.121"/>
        <path id="Tracciato_62712" data-name="Tracciato 62712" d="M488.911,629.005s-3.568,10.526.751,21.372c0,0,17.482-29.544,43.579-33.876s-3.1-18.061-3.1-18.061Z" fill="#172854"/>
        <path id="Tracciato_62713" data-name="Tracciato 62713" d="M577.1,549s23.089-13.641,36.162-13.05-15.781-23.183-27.3-14.988S577.1,549,577.1,549" fill="#172854"/>
        <path id="Tracciato_62714" data-name="Tracciato 62714" d="M489.7,475.262s-9.4,13.675-8.261,24.033c0,0,12.508-8.138,26.368-5.679S489.7,475.262,489.7,475.262" fill="#172854"/>
        <path id="Tracciato_62715" data-name="Tracciato 62715" d="M548.187,533.058a5.074,5.074,0,0,1-8.8,2.152c-9.217-10.794-26.238-29.932-37.886-38.3-18.884-13.565-16.728-30.613,9.9-32.279s50.562,8.745,42.529,43.55Z" fill="#21ba6e"/>
        <path id="Tracciato_62716" data-name="Tracciato 62716" d="M601.414,632.6s-8.525,18.418,15.452,26.278c35.66,11.692,54.23,52.843,54.23,52.843s.872-29.679-5.716-51.565c-6.544-21.741-13.3-37.006-27.429-41.952s-27.014-5.727-36.537,14.4" fill="#21ba6e"/>
        <path id="Tracciato_62717" data-name="Tracciato 62717" d="M578.571,531.807s6.333-36.307,49.693-16.769c26.629,12,24.326,58.877,24.326,58.877-14.845-36.4-56.4-46.07-74.019-42.108" fill="#21b06e"/>
        <path id="Tracciato_62718" data-name="Tracciato 62718" d="M557.6,628.66c-8.214-7.92-31.717-24.277-68.695.345,0,0,3.317-32.54,35.192-38.454,30.071-5.579,35.546,9.587,36.627,36.7a1.847,1.847,0,0,1-3.124,1.409" fill="#21b06e"/>
        <path id="Tracciato_62719" data-name="Tracciato 62719" d="M570.834,669.707S550.09,655.8,544.081,685.651s-10.864,41.839-10.864,41.839,37.351-12.38,41.611-26.177,4.747-29.357-3.994-31.606" fill="#21b06e"/>
        <path id="Tracciato_62720" data-name="Tracciato 62720" d="M613.44,626.8s43.588,22.571,52.168,58.952" fill="none" stroke="#223a7a" stroke-linecap="round" stroke-linejoin="round" stroke-width="1.171"/>
        <path id="Tracciato_62721" data-name="Tracciato 62721" d="M544.089,526.8s-7.625-48.957-32.8-60.5" fill="none" stroke="#223a7a" stroke-linecap="round" stroke-linejoin="round" stroke-width="1.171"/>
        <path id="Tracciato_62722" data-name="Tracciato 62722" d="M567.463,670.085s-8.8,14.347-11.956,28.22-14.142,23.264-14.142,23.264" fill="none" stroke="#223a7a" stroke-linecap="round" stroke-linejoin="round" stroke-width="1.171"/>
        <path id="Tracciato_62723" data-name="Tracciato 62723" d="M626.259,753.057c0,10.67-25.2,19.32-56.283,19.32s-56.283-8.65-56.283-19.32" fill="none" stroke="#fcfeff" stroke-linecap="round" stroke-linejoin="round" stroke-width="1.946"/>
        <path id="Tracciato_62725" data-name="Tracciato 62725" d="M493.9,414.591s-3.011,3.177,0,6.011,15.373,20.608,22.759,13.223S499.648,411.07,493.9,414.591" fill="#adbad6"/>
        <path id="Tracciato_62726" data-name="Tracciato 62726" d="M497.208,438.788s77.335-20.553,70.16-53.957c-3.934-18.312-24.745-1.212-50.594,17.085-15.02,10.632-29.154,25.366-29.154,25.366Z" fill="#ffa9a8"/>
        <path id="Tracciato_62727" data-name="Tracciato 62727" d="M375.944,349.018s11.736-9.972,8.563-21.057l9.278,4.456L391.4,354.4l-8.09,1.546Z" fill="#4d85ff"/>
        <path id="Tracciato_62728" data-name="Tracciato 62728" d="M497.684,415.464l-4.558,3.37a1.692,1.692,0,0,0,.312,2.9c4.1,1.889,11.605,6.3,13.852,14.005l9.748-3.868-3.318-14.705S504.9,412.6,504.7,412.6s-7.02,2.869-7.02,2.869" fill="#4d85ff"/>
        <path id="Tracciato_62729" data-name="Tracciato 62729" d="M493.9,414.591s15.2,1.374,22.759,19.234l48.285-24.644,5.687-40.924-40.668,14.477Z" fill="#fcfeff"/>
        <path id="Tracciato_62730" data-name="Tracciato 62730" d="M615.763,473.043,600.123,463.02l40.186-10.583,7.779,13.048Z" fill="#6178ad"/>
        <path id="Tracciato_62731" data-name="Tracciato 62731" d="M690.169,422.4,545.961,459.433l7.569-76.326,144.208-37.033Z" fill="#6178ad"/>
        <path id="Tracciato_62732" data-name="Tracciato 62732" d="M648.088,465.484l-32.326,7.558L613.1,409.18l32.325-7.558Z" fill="#98b2ed"/>
        <path id="Tracciato_62733" data-name="Tracciato 62733" d="M613.1,409.181l-7.222,34.247,8.584-1.586Z" fill="#4a5c85"/>
        <path id="Tracciato_62734" data-name="Tracciato 62734" d="M553.53,383.107l-6.309-2.567-6.861,75.438,5.6,3.455Z" fill="#98b2ed"/>
        <path id="Tracciato_62735" data-name="Tracciato 62735" d="M547.221,380.54l145.467-37.3,5.05,2.838L553.53,383.107Z" fill="#98b2ed"/>
        <path id="Tracciato_62736" data-name="Tracciato 62736" d="M439.766,290.62l-17.3,51.585L391.4,328.3s2.528,21.236-11.628,25.622c0,0,12.837,11.126,26.6,18.64s25.313,10.212,28.71,9.776c10.278-1.317,20.191-28.9,20.191-28.9-2.064-23.241-6.834-45.64-15.513-62.819" fill="#fcfeff"/>
        <path id="Tracciato_62737" data-name="Tracciato 62737" d="M550.78,322.182l-8.845,44.554L520.4,391.179" fill="none" stroke="#adbad6" stroke-linecap="round" stroke-linejoin="round" stroke-width="0.973"/>
        <path id="Tracciato_62738" data-name="Tracciato 62738" d="M451.793,361.815V303.763l-1.98-4.381" fill="none" stroke="#adbad6" stroke-linecap="round" stroke-linejoin="round" stroke-width="0.973"/>
        <path id="Tracciato_62739" data-name="Tracciato 62739" d="M546.3,254.4s-.541,30.361-2.209,42.039L523.146,316.7l3.385,19.8L512.18,355.343" fill="none" stroke="#adbad6" stroke-linecap="round" stroke-linejoin="round" stroke-width="0.973"/>
        <path id="Tracciato_62740" data-name="Tracciato 62740" d="M483.884,251.04S459.3,283.022,459.3,283.891s8.93,24.569,8.93,24.569l-6.815,21.3,8.942,20.093" fill="none" stroke="#adbad6" stroke-linecap="round" stroke-linejoin="round" stroke-width="0.973"/>
        <path id="Tracciato_62741" data-name="Tracciato 62741" d="M168.457,231.075s8.87,5.7,2.624,18.641l-6.246,12.94" fill="none" stroke="#fff" stroke-miterlimit="10" stroke-width="0.973"/>
        <path id="Tracciato_62742" data-name="Tracciato 62742" d="M213.8,245.579s-8.193,21.335-12.87,28.593-1.477.092-1.842-4.207.961-23.774.961-23.774Z" fill="#223a7a"/>
        <path id="Tracciato_62743" data-name="Tracciato 62743" d="M126.338,276.186s-14.016-2.6-16.28,10.83l-2.264,13.427s1.163-25.762,21.975-22.089" fill="#223a7a"/>
        <path id="Tracciato_62744" data-name="Tracciato 62744" d="M410.537,239.679h-80.73a17.837,17.837,0,0,1-17.837-17.837V195.429a17.836,17.836,0,0,1,17.837-17.836h80.73a17.836,17.836,0,0,1,17.837,17.836v26.413a17.837,17.837,0,0,1-17.837,17.837" fill="#73d7ff" fill-rule="evenodd"/>
        <path id="Tracciato_62745" data-name="Tracciato 62745" d="M395.682,257.9h0a19.361,19.361,0,0,0,1.082-6.389V222.773a19.409,19.409,0,0,0-19.409-19.408H279.641a19.408,19.408,0,0,0-19.408,19.408v28.741a19.408,19.408,0,0,0,19.408,19.408h97.714l17.216,9.428a3.461,3.461,0,0,0,5.049-3.748Z" fill="none" stroke="#223a7a" stroke-linecap="round" stroke-miterlimit="10" stroke-width="1.814"/>
        <line id="Linea_400" data-name="Linea 400" x2="79.796" transform="translate(293.809 223.932)" fill="none" stroke="#223a7a" stroke-linecap="round" stroke-miterlimit="10" stroke-width="1.73"/>
        <line id="Linea_401" data-name="Linea 401" x2="77.377" transform="translate(274.35 245.509)" fill="none" stroke="#223a7a" stroke-linecap="round" stroke-miterlimit="10" stroke-width="2.397"/>
        <path id="Tracciato_62746" data-name="Tracciato 62746" d="M307.3,169.028a23.535,23.535,0,1,1-23.535-23.535A23.535,23.535,0,0,1,307.3,169.028" fill="#e634a7" fill-rule="evenodd"/>
        <path id="Tracciato_62747" data-name="Tracciato 62747" d="M702.443,187.046c0,1.6-4.042,3-9.028,3.144s-9.028-1.042-9.028-2.639,4.042-3,9.028-3.144,9.028,1.042,9.028,2.639" fill="#b1bde6"/>
        <path id="Tracciato_62748" data-name="Tracciato 62748" d="M696.877,183.332c.014-2.85.058-11.674.058-11.857a4.194,4.194,0,0,0-1.993-3.359c-.433-.317-1.75-.436-1.866-1.94,0,0-7.742-1.477-7.611-.107.11,1.155-2.291,1.754-2.98,2.4a4.482,4.482,0,0,0-1.993,3.47v12.93h.031a3.4,3.4,0,0,0-.031.452c0,2.891,3.681,5.131,8.222,5,.2-.005.391-.017.584-.031,4.267-.31,7.637-2.667,7.637-5.433,0-.084-.006-.168-.012-.251Z" fill="#ebf5ff"/>
        <path id="Tracciato_62749" data-name="Tracciato 62749" d="M693.26,163.606c-.063.159-.012.322-.117.487a1.577,1.577,0,0,1-.143.139c0,.009-.01.018-.015.028l.015-.028a7.2,7.2,0,0,1-4.078,1.108c-2.481.069-4.471-.347-4.471-1.292l-.022,1.354v.532c0,.945,2.012,1.655,4.493,1.586.327-.009.646-.032.953-.066,2.023-.223,3.54-.95,3.54-1.771v-1.837c0,.035-.15-.274-.155-.24" fill="#7e8dbf"/>
        <path id="Tracciato_62750" data-name="Tracciato 62750" d="M693.415,163.814c0,.9-2.007,1.69-4.482,1.759s-4.482-.606-4.482-1.508,2.007-1.691,4.482-1.76,4.482.606,4.482,1.509" fill="#8f9dcf"/>
        <path id="Tracciato_62751" data-name="Tracciato 62751" d="M723.078,188.71c0,1.6-4.042,3-9.028,3.144s-9.028-1.042-9.028-2.639,4.042-3,9.028-3.144,9.028,1.042,9.028,2.639" fill="#b1bde6"/>
        <path id="Tracciato_62752" data-name="Tracciato 62752" d="M717.513,185c.014-2.85.058-11.673.058-11.857a4.194,4.194,0,0,0-1.993-3.359c-.433-.317-1.75-.436-1.866-1.939,0,0-7.742-1.478-7.611-.107.11,1.154-2.291,1.754-2.98,2.4a4.484,4.484,0,0,0-1.993,3.47V186.53h.031a3.394,3.394,0,0,0-.031.452c0,2.891,3.681,5.132,8.222,5,.2-.006.391-.017.584-.031,4.267-.311,7.637-2.668,7.637-5.434,0-.084-.006-.167-.012-.251Z" fill="#ebf5ff"/>
        <path id="Tracciato_62753" data-name="Tracciato 62753" d="M713.9,165.27c-.063.159-.012.322-.117.487a1.577,1.577,0,0,1-.143.139c0,.009-.01.018-.015.027l.015-.027A7.2,7.2,0,0,1,709.558,167c-2.482.069-4.471-.347-4.471-1.292l-.022,1.354v.532c0,.945,2.011,1.655,4.493,1.586.327-.009.646-.032.953-.066,2.023-.223,3.54-.951,3.54-1.771V165.51c0,.035-.15-.274-.155-.24" fill="#7e8dbf"/>
        <path id="Tracciato_62754" data-name="Tracciato 62754" d="M714.05,165.478c0,.9-2.007,1.69-4.482,1.759s-4.482-.606-4.482-1.508,2.007-1.691,4.482-1.76,4.482.606,4.482,1.509" fill="#8f9dcf"/>
        <path id="Tracciato_62755" data-name="Tracciato 62755" d="M742.151,190.31c0,1.6-4.042,3-9.028,3.144s-9.028-1.042-9.028-2.639,4.042-3.005,9.028-3.144,9.028,1.042,9.028,2.639" fill="#b1bde6"/>
        <path id="Tracciato_62756" data-name="Tracciato 62756" d="M736.586,186.6c.014-2.85.058-11.673.058-11.857a4.194,4.194,0,0,0-1.993-3.359c-.433-.317-1.75-.436-1.866-1.94,0,0-7.742-1.477-7.611-.107.11,1.155-2.291,1.754-2.98,2.4a4.482,4.482,0,0,0-1.993,3.47v12.93h.031a3.4,3.4,0,0,0-.031.452c0,2.891,3.681,5.131,8.222,5,.2-.005.391-.016.584-.031,4.267-.31,7.637-2.667,7.637-5.433,0-.084-.006-.168-.012-.251Z" fill="#ebf5ff"/>
        <path id="Tracciato_62757" data-name="Tracciato 62757" d="M732.969,166.869c-.063.159-.012.322-.117.487a1.577,1.577,0,0,1-.143.139c0,.009-.01.018-.015.028l.015-.028a7.2,7.2,0,0,1-4.078,1.108c-2.481.069-4.471-.347-4.471-1.292l-.022,1.354v.532c0,.945,2.012,1.655,4.493,1.586.327-.009.646-.032.953-.066,2.023-.223,3.54-.95,3.54-1.771v-1.837c0,.035-.15-.274-.155-.24" fill="#7e8dbf"/>
        <path id="Tracciato_62758" data-name="Tracciato 62758" d="M733.123,167.078c0,.9-2.007,1.69-4.482,1.76s-4.482-.607-4.482-1.509,2.007-1.691,4.482-1.76,4.482.606,4.482,1.509" fill="#8f9dcf"/>
        <path id="Tracciato_62759" data-name="Tracciato 62759" d="M445.068,437.987a2.528,2.528,0,0,0,1.831,1.672l.033.01c2.786.857,7.642-.906,14.436-5.242.278-.105,1.392-.376,2.947-.732a12.226,12.226,0,0,0-4.5,6.068c-2.139,8.359-1.1,12.487-1.048,12.658l.061.234.251.117a2.658,2.658,0,0,0,2.087-.061c2.209-.94,3.719-4.445,4.491-10.417.206-1.605,1.42-3.056,3.617-4.328a6.485,6.485,0,0,0-2.313,3.44c-.875,3.851-.634,12.171-.624,12.522l.009.332.365.141a2.536,2.536,0,0,0,1.942-.176,3.6,3.6,0,0,0,1.006-.743c-.023.123-.034.19-.034.19l-.091.535.647.069c4.777.509,5.643-3.749,6.276-6.858.081-.4.161-.793.246-1.167.328-1.44,1.344-3.291,3.127-3.764,4.924-1.306,8.658-1.975,10.516-1.888.458.022,4.255-.469,4.81-.5,10.482-.59,9.556-11.311,0-15.214-11.6,1.214-28.713.771-34.335,4.08l-.1.022-15.725,8.655Z" fill="#ffa9a8"/>
        <path id="Tracciato_62760" data-name="Tracciato 62760" d="M274.35,167.219l8.208,12.033L293.185,158.8" fill="none" stroke="#fcfeff" stroke-linecap="round" stroke-linejoin="round" stroke-width="3.578"/>
        <path id="Tracciato_62761" data-name="Tracciato 62761" d="M419.474,438.788c0,3.088-7.793,5.592-17.406,5.592s-17.406-2.5-17.406-5.592,7.793-5.591,17.406-5.591,17.406,2.5,17.406,5.591" fill="#ceddff"/>
        <path id="Tracciato_62762" data-name="Tracciato 62762" d="M395.138,412.547c-8.509,0-15.407,2.232-15.407,4.985v21.227h.077c.765,2.522,7.335,4.492,15.331,4.492s14.565-1.971,15.33-4.492h.077V417.532c0-2.753-6.9-4.985-15.407-4.985" fill="#fff"/>
        <path id="Tracciato_62763" data-name="Tracciato 62763" d="M395.138,404.479c-8.509,0-15.407,2.232-15.407,4.985v21.227h.077c.765,2.522,7.335,4.492,15.33,4.492s14.566-1.971,15.331-4.492h.077V409.464c0-2.753-6.9-4.985-15.407-4.985" fill="#fff"/>
        <path id="Tracciato_62764" data-name="Tracciato 62764" d="M404.422,404.25a50.052,50.052,0,0,0-19.187,0h-7.813l.075,5.14c.754,2.865,8.219,5.115,17.331,5.115s16.577-2.25,17.331-5.115l.075-5.14Z" fill="#3072ff"/>
        <path id="Tracciato_62765" data-name="Tracciato 62765" d="M412.234,404.25c0,3.088-7.793,5.591-17.406,5.591s-17.406-2.5-17.406-5.591,7.793-5.591,17.406-5.591,17.406,2.5,17.406,5.591" fill="#73d7ff"/>
        <path id="Tracciato_62766" data-name="Tracciato 62766" d="M379.731,420.147c1.272,3.891,17.582,6.454,25.45,3.055v14s-15.764,4.241-25.45-3.181Z" fill="#e634a7"/>
        <path id="Tracciato_62767" data-name="Tracciato 62767" d="M379.731,411.8a34.825,34.825,0,0,0,14.329,2.7c8.587-.086,14.425-1.5,16.486-3.2" fill="none" stroke="#223c8c" stroke-linecap="round" stroke-linejoin="round" stroke-width="0.984"/>
        <path id="Tracciato_62768" data-name="Tracciato 62768" d="M379.731,412.144V437a3.035,3.035,0,0,0,1.612,2.691c4.093,2.153,15.43,6.778,27.641-.007a3.052,3.052,0,0,0,1.562-2.668v-25.71" fill="none" stroke="#223c8c" stroke-linecap="round" stroke-linejoin="round" stroke-width="0.984"/>
        <path id="Tracciato_62769" data-name="Tracciato 62769" d="M144.261,421.508s-1.732,22.749,24.255,21.744a189.5,189.5,0,0,0,47.757-8.365" fill="none" stroke="#223c8c" stroke-linecap="round" stroke-linejoin="round" stroke-width="0.973"/>
        <path id="Tracciato_62770" data-name="Tracciato 62770" d="M551.638,256.555s27.495,6.265,32.328,28.17-4.007,60.8-4.007,60.8" fill="none" stroke="#adbad6" stroke-linecap="round" stroke-linejoin="round" stroke-width="0.973"/>
      </g>
    </g>
  </g>
</svg>
