<svg xmlns="http://www.w3.org/2000/svg" xmlns:xlink="http://www.w3.org/1999/xlink" width="1147.029" height="402.811" viewBox="0 0 1147.029 402.811"><defs><style>.a,.bb,.l,.q{fill:none;}.b{clip-path:url(#a);}.c{opacity:0.39;}.ao,.c{mix-blend-mode:multiply;isolation:isolate;}.d{clip-path:url(#c);}.e{fill:#a7bcf5;}.f{fill:#95c1f5;}.g{fill:#cfe4fa;}.h{fill:#b0cff5;}.i{fill:#b4d3fa;}.j{fill:#4c89d4;}.k{fill:#69a5ed;}.bb,.l,.q{stroke:#fff;stroke-linecap:round;stroke-linejoin:round;}.l{stroke-width:0.9px;}.m{fill:#1d50cf;}.n{fill:#478bde;}.o{fill:#86baf7;}.p{fill:#97cbff;}.q{stroke-width:1.013px;}.r{clip-path:url(#d);}.s{fill:#123475;}.t{fill:#ffaa82;}.u{fill:#e9f5ff;}.v{fill:#bbb9be;}.w{fill:#724526;}.x{fill:#a8c4e5;}.y{fill:#1d60dc;}.z{fill:#f28f70;}.aa{fill:#ea8a6c;}.ab{fill:#4083ff;}.ac{fill:#d9eaff;}.ad{fill:#a2c2e8;}.ae{fill:#fff;}.af{fill:#915a34;}.ag{fill:#ffc2a6;}.ah{fill:#84acdd;}.ai{fill:#8aacce;}.aj{fill:#3171bd;}.ak{fill:#b8ddff;}.al{fill:#9ec4f0;}.am{fill:#6895ba;}.an{fill:#a56941;}.ao{opacity:0.4;}.ap{clip-path:url(#f);}.aq{fill:#d1dff0;}.ar{fill:#80a8f2;}.as{fill:#a6c5ff;}.at{clip-path:url(#g);}.au{clip-path:url(#k);}.av{fill:#bdd4f0;}.aw{clip-path:url(#l);}.ax{fill:#d3e0f2;}.ay{clip-path:url(#m);}.az{clip-path:url(#o);}.ba{fill:#1953bf;}.bb{stroke-width:2.55px;}.bc{fill:#1c4591;}.bd{fill:#2c4482;}.be{fill:#e1eaf4;}.bf{fill:#2e5cb0;}.bg{fill:#bdd4f2;}.bh{fill:#5a8ff2;}.bi{fill:#fcfeff;}.bj{clip-path:url(#p);}.bk{fill:#578ceb;}.bl{fill:#699eff;}.bm{clip-path:url(#q);}.bn{clip-path:url(#r);}.bo{clip-path:url(#t);}.bp{fill:#4285ff;}.bq{fill:#6ea1ff;}.br{fill:#2964d6;}.bs{fill:#87b2ff;}.bt{opacity:0.37;}.bu{clip-path:url(#u);}.bv{fill:#f3f3f3;}.bw{fill:#bcc8db;}.bx{fill:#d1d1e8;}.by{fill:#dfe5f0;}.bz{clip-path:url(#v);}.ca{fill:#cad9eb;}.cb{opacity:0.61;}.cc{clip-path:url(#w);}.cd{clip-path:url(#x);}.ce{fill:#89a8cc;}.cf{fill:#e1e8f2;}.cg{clip-path:url(#y);}.ch{fill:#191791;}.ci{fill:#ff8066;}.cj{fill:#acaff2;}.ck{fill:#dee5fe;}.cl{fill:#bdc6e8;}.cm{fill:#f9bcaa;}.cn{fill:#4432db;}.co{fill:#8d7fa2;}.cp{fill:#e6a677;}.cq{fill:#5445d9;}</style><clipPath id="a"><rect class="a" width="159.597" height="307.681"/></clipPath><clipPath id="c"><rect class="a" width="99.736" height="43.051" transform="translate(31.176 262.325)"/></clipPath><clipPath id="d"><rect class="a" width="353.317" height="317.678"/></clipPath><clipPath id="f"><rect class="a" width="13.215" height="4.995"/></clipPath><clipPath id="g"><rect class="a" width="13.214" height="4.995"/></clipPath><clipPath id="k"><rect class="a" width="11.733" height="7.841"/></clipPath><clipPath id="l"><rect class="a" width="9.599" height="6.415"/></clipPath><clipPath id="m"><rect class="a" width="11.732" height="7.841"/></clipPath><clipPath id="o"><rect class="a" width="11.732" height="7.842"/></clipPath><clipPath id="p"><rect class="a" width="13.215" height="4.993"/></clipPath><clipPath id="q"><rect class="a" width="18.12" height="11.777"/></clipPath><clipPath id="r"><rect class="a" width="219.435" height="203.762"/></clipPath><clipPath id="t"><rect class="a" width="35.031" height="21.903"/></clipPath><clipPath id="u"><rect class="a" width="64.06" height="41.85"/></clipPath><clipPath id="v"><rect class="a" width="44.315" height="32.545"/></clipPath><clipPath id="w"><rect class="a" width="30.695" height="19.042"/></clipPath><clipPath id="x"><rect class="a" width="37.159" height="17.749"/></clipPath><clipPath id="y"><rect class="a" width="122.029" height="262.932"/></clipPath></defs><g transform="translate(-233 -1258)"><g transform="translate(1023 1258)"><g class="b"><g class="b"><g class="c"><g class="d"><path class="e" d="M31.175,283.852c0,11.888,22.327,21.524,49.869,21.524s49.868-9.638,49.868-21.526-22.327-21.525-49.868-21.525-49.869,9.638-49.869,21.527"/></g></g><path class="f" d="M95.336,303.3c-13.19,5.871-34.644,5.842-47.917-.066s-13.341-15.457-.15-21.329,34.643-5.84,47.918.067,13.338,15.457.149,21.328"/><path class="g" d="M99.277,299.921c-16.036,7.138-42.119,7.1-58.256-.081s-16.219-18.791-.182-25.929,42.119-7.1,58.255.081,16.22,18.791.183,25.929"/><path class="g" d="M9.611,226.3,29,288.2l81.957,1.038,19.983-61.292Z"/><path class="h" d="M107.629,245l-18.71,43.981h-.012c-3.309,6.023-4.94,8.232-11.664,11.225-4.863,2.164-12.009,3.535-18.16,4.349,13.841,1.794,27.337.585,38.41-3.9,5.264-2.132,9.515-3.26,13.1-10.367l1.5-3.629,18.843-58.713Z"/><path class="i" d="M115.586,239.725c-23.132,9.54-62.136,9.7-87.121.365S1.976,215.449,25.1,205.909s62.136-9.705,87.122-.366,26.488,24.642,3.359,34.182"/><path class="j" d="M108.915,239.134c-19.854,8.188-53.335,8.329-74.782.313S11.4,218.3,31.25,210.108s53.335-8.33,74.782-.315,22.737,21.153,2.883,29.341"/><path class="k" d="M108.915,239.134c-19.854,8.188-53.335,8.329-74.782.313C18.66,233.665,13.384,225.1,19.559,217.884c8.574-10.015,93.353-5.133,95.864-3.473,11.861,7.838,9.877,17.965-6.508,24.723"/><path class="j" d="M78.34,222.086c0,2.259-3.579,4.091-7.995,4.091s-8-1.832-8-4.091,3.579-4.091,8-4.091,7.995,1.831,7.995,4.091"/><path class="l" d="M15.943,235.751s19.306,15.529,56.348,14.863,51.881-13.781,51.881-13.781"/><path class="m" d="M70.345,223.69a2.691,2.691,0,0,0,2.666-2.714V78.743a2.666,2.666,0,1,0-5.332,0V220.976a2.691,2.691,0,0,0,2.666,2.714"/><path class="m" d="M71.435,158.214a2.626,2.626,0,0,0,1.646-.58l34.7-27.759a2.745,2.745,0,0,0,.448-3.81,2.636,2.636,0,0,0-3.743-.456l-34.7,27.759a2.744,2.744,0,0,0-.449,3.81,2.644,2.644,0,0,0,2.1,1.036"/><path class="m" d="M69.931,141.093a2.631,2.631,0,0,0,1.684-.612,2.746,2.746,0,0,0,.379-3.818L41.889,99.113a2.633,2.633,0,0,0-3.751-.386,2.745,2.745,0,0,0-.38,3.817l30.106,37.55a2.642,2.642,0,0,0,2.067,1"/><path class="k" d="M59.323,89.028s20.092,20.656,40.914,13.1-2.7-5.01-8.344-10.82-.07-9.2,4.313-8.848,29.436.925,28.621-8.7-16.281,4.1-18.461-3.932-2.512-.816,13.956-7.127c13.516-5.18,16.532-21.081,13.652-23.374-5.1-4.059-13.947,7.81-17.388,4.9s14.73-13.065,11.753-25.268S121.158,0,121.158,0s-3.773,3.891-14.345,8.949-19.187,8.415-17.8,20.287-8.529,4.792-5.1-8.33-3.566-14.869-7.764-4.462c-3.864,9.574-7.644,21.785-9.4,25.3s-1.355,3.722-.929-5.893S59.168,22.34,55.1,25.519s-2.282,31.724,6.933,36.276-.926,18.589-8.812,1.543-10.048-19.626-12.732-8.1S49.97,81.618,59.323,89.028"/><path class="n" d="M72.692,80.778c11.775-4.431,37.118-10.968,44.069.205.176.282-16.642,6.705-19.318,6.491-4.382-.351-3.361,1.773,2.28,7.582s16.544-7.454-4.279.1c-14.231,5.162-27.088-.4-34.455-5.987,3.291-3.151,7.411-6.774,11.7-8.389"/><path class="o" d="M12.97,129.877c11.229-4.854,10.793-.5,8.415-7.262-1.028-2.928-3.829-2.314-6.986-.948-13.866,9.071-14.063-8.929,1.82-12.794,6.28-1.931,12.762-.788,14.814-1.01,4.509-.489,10.011-5,3.888-9.8-2.788-2.186-9.268-1.9-13.53-2.048a2.187,2.187,0,0,1-1.151-4c1.307-.888,3.106-1.975,5.492-3.308,20.869-11.661,42.674,5.4,42.674,5.4,10.018,5.708,23.365,18.42,21.305,30.613s-4.427,10-13.519-5.759-18.637.422-8.93,3.26,13.243,31.417,9.263,35.421-11.453,1.418-11.592-8.406-8.458-12.257-10.05-8.357,6.086,17.283,6.83,28.639-17.141,12.3-14.417-1.656-12.032-28.353-9.9-16.592.708,23.839-9.815,31a124.022,124.022,0,0,0-17.172,13.946s-3.4-4.363-6.734-12.906C-3.875,157.4.69,140.705,12.97,129.877"/><path class="p" d="M109.1,92.888c-3.072,6.188,3.127,6.578,6.735,5.816s18.646.769,22.4,7.95c4.482,8.57-17.922,6.963-16.459,11.755,1.72,5.638,3.291,7.744,14.76,5.339,14.938-3.132,26.132,10.291,22.3,13.988s-20.4,1.342-22.461,4.5,9.027,4.3,12.958,15.839c4.463,13.1-.716,26.174-1.178,27.842-1.723.173-15.629,3.183-27.785-3.441-10.709-5.834-13-18.959-16.466-17.464s-.9,20.226-5.194,23.376-15.622-10.161-10-24.351c4.318-10.894,3.515-16.21-1.749-18.862-4.474-2.256-6.306,16.544-15.241,12.84s-1.962-22.248-.6-25.674,1.062-8.16-5.559-6.183-6.559,25.715-14.859,6.91c-3.585-8.123.23-22.716,11.1-36.185A33.873,33.873,0,0,1,76.236,86.456c11.775-4.431,33.366-11.658,39.817-6.1,10.448,9-3.879,6.345-6.951,12.534"/><path class="q" d="M146.774,186.12S108.372,112.1,70.2,89.445"/></g></g></g><g transform="translate(640 1298.026)"><g class="r"><g class="r"><path class="s" d="M84.244,72.287,74.7,75.466l-7.821-5.542s12.907-6.973,17.367,2.363" transform="translate(-18.778 -18.931)"/><path class="t" d="M55.383,58.7s-6.494.585-6.087,17.8c.283,11.976,3.174,18.4,13.942,18.967,6.849.364,13.577-1.582,13.737-7.562.478-3.481-.534-9.8-.416-13.04.2-5.434.187-6.58-1.659-10.705.193-7.212-4.681-4.375-13.246-4.358Z" transform="translate(-13.837 -16.484)"/><path class="t" d="M227.174,116.852l-7.165,16.256c-4.722-.537-12.2-1.846-27.224-4l-.089,7.686c13.369,1.384,27.018,7.4,31.378,5.877,2.911-.939,4.819-4.507,6.3-6.632l6.259-16.607Z" transform="translate(-54.107 -32.811)"/><path class="u" d="M374.777,58.489,126.426,25.4l14.658-7.673L388.817,50.734Z" transform="translate(-35.499 -4.977)"/><path class="u" d="M374.777,115.481,126.426,82.391l14.658-7.673,247.733,33.008Z" transform="translate(-35.499 -20.98)"/><path class="v" d="M283.016,239.682l-33.092-3.616.846-50.226,33.091,3.615Z" transform="translate(-70.177 -52.182)"/><path class="w" d="M294.488,59.58l-23.5-1.184-.185-31.56,10.226.515c7.329.369,13.307,6.933,13.352,14.661Z" transform="translate(-76.04 -7.535)"/><path class="x" d="M230.043,121.864l12.7-37.274c1.262-3.405,5.321-4.849,9.066-3.225s5.106,4.989,4.494,9.107L240.76,127.345c-3.733-4.924-7.034-6.106-10.717-5.48" transform="translate(-64.594 -22.659)"/><path class="y" d="M291.252,78.152l-17.106-.99-.027-8.718c5.516-1.2,9.593-1.56,15.209.378Z" transform="translate(-76.97 -18.941)"/><path class="y" d="M254.565,100.409s2.442,35.14,1.936,40.218c-.48,4.819,27.424,7.114,29.993,4.809s18.717-52.253,18.717-52.253c-8.993-22.041-36.255-8.713-50.647,7.227" transform="translate(-71.479 -22.907)"/><path class="y" d="M291.489,150.736c-8.189,5.15-24.927,4.524-37.224-4.232,0,0-11.745,38.143,2.266,44.049,5.883,2.48,26.887,4.4,32.883,2.855,25.217-6.5,2.076-42.672,2.076-42.672" transform="translate(-70.101 -41.137)"/><path class="y" d="M272.22,70.015c1.374-.875,5.483-.583,5.972-.334a10.474,10.474,0,0,1,4.511,1.6c8.566,5.964,22.354,11.108,21.729,18.492,0,0,0,5.273-4.67,4.549l-22.989-3.9L257.48,87.48c-4.665-.724-5.688-7.788-5.688-7.788.488-6.978,11.8-4.186,20.428-9.676" transform="translate(-70.701 -19.494)"/><path class="z" d="M276.929,78.9c10.454,1.74,12.459-2.149,16.4-4.371-3.832-2.65-1.351-.545-5.046-3.089a15.594,15.594,0,0,0-5.513-1.9,6.9,6.9,0,0,0-4.166-.21c-4.243,1.5-4.613,2.084-9.084,3.407,3.2,2.666-2.438,4.527,7.406,6.166" transform="translate(-75.68 -19.399)"/><path class="z" d="M284.914,69.884l-1.249.11c-2.494.219-4.472.8-4.818-1.392L276.2,51.862c-.346-2.189,1.412-4.16,3.906-4.379l1.249-.11a4.7,4.7,0,0,1,5.164,3.581l2.3,14.55c.346,2.189-1.412,4.16-3.906,4.379" transform="translate(-77.542 -13.296)"/><path class="aa" d="M277.256,58.556l9.551-8.835.552,6.5c-.414,2.817-5.531,7.474-9.2,6.864Z" transform="translate(-77.851 -13.961)"/><path class="ab" d="M279.266,77.513s6.3,1.824,11.507-8.159l6.185,5.286a1.607,1.607,0,0,1,.321,2.374l-5.88,7.863a3.956,3.956,0,0,1-4.8.682Z" transform="translate(-78.415 -19.474)"/><path class="ab" d="M279.794,77.536s-7.282.848-7.8-8.707l-4.749,4.763a1.877,1.877,0,0,0-.6,2.05l2.027,6.321a2.1,2.1,0,0,0,3.075,1.027Z" transform="translate(-74.846 -19.327)"/><path class="ac" d="M277.031,112.173l3.6,93.875c.136,3.549,4.507,17.532,8.219,17.062l25.687-10.822c2.066-.216,2.827-2.847,2.678-4.815l-9.014-60.05a15.535,15.535,0,0,0-.425-2.642c-1.866-7.389-3.587-13.63-3.646-15.492-.111-3.445,9.189-33.391,5.033-41.526S298.082,79.5,298.082,79.5L286.836,94.726Z" transform="translate(-77.788 -22.322)"/><path class="ad" d="M326.709,209.645l-9.014-60.05a15.54,15.54,0,0,0-.425-2.642c-1.866-7.389-3.587-13.63-3.646-15.492-.111-3.445,9.189-33.391,5.033-41.526a15.349,15.349,0,0,0-6.77-7.022c-7.8,15.362,2.556,30.218-6.905,36.286,0,0,1.857,21.278,4.156,30.382a19.266,19.266,0,0,1,.524,3.254l9.554,63.654,4.815-2.029c2.066-.216,2.826-2.847,2.678-4.815" transform="translate(-85.636 -23.281)"/><path class="ac" d="M252.1,74.99s-7.072.521-7.524,7.45a22.71,22.71,0,0,0,.2,3.234,25.55,25.55,0,0,1-1.629,12.155,12.458,12.458,0,0,0,5.161,15.742s.38,5.494,1.313,11.16c0,0-10.04,35.8-13.356,74.8-.191,2.236-2.4,7.519.027,8.113l9.63,9.1c3.417.836,9.414-9.57,9.461-12.742l3.521-97.4c-.329-12.746,2.191-22.241-2.165-32.554Z" transform="translate(-66.032 -20.791)"/><path class="ae" d="M267.875,71.209s-4.945,1.062-8.893,2.092a1.387,1.387,0,0,0-1,1.542l2.4,14.131,4.344,3.983-3.8.562,4.274,15.393s3.94-8.429,1.582-26.483c-.906-6.935,1.1-11.219,1.1-11.219" transform="translate(-72.433 -19.995)"/><path class="af" d="M263.679,54.584c-2.478-1.554-6.42-3.615-7.773-5.989a7.64,7.64,0,0,1-.726-1.62,5.493,5.493,0,0,1,.315-3.692,19.651,19.651,0,0,1,1.872-3.146,42.713,42.713,0,0,0,2.564-4.428Z" transform="translate(-71.599 -10.027)"/><path class="af" d="M260.356,32.3s2.071,19.78,3.63,23.9c.744,1.964,1.669,2.553,3.741,3.483l.718.283c.909.24.941-.755.852-1.774l-1.873-27.1Z" transform="translate(-73.106 -8.728)"/><path class="t" d="M275.681,53.953c-8.689,1.62-9.8-4.056-9.938-10.167l.793-11.364c-.447-8.139,2.1-8.181,8.668-7.875l.053,0c6.573.306,11.991,4.131,12.133,10.243l-.855,6.684c-.6,10.26-10.854,12.481-10.854,12.481" transform="translate(-74.618 -6.868)"/><path class="ag" d="M266.023,48.946l-.012-5.726-.629,4.747a12.645,12.645,0,0,0-.1,2.3c.214,4.24,1.13,7.957,5.056,8.909-3.218-2.051-4.227-6.287-4.318-10.226" transform="translate(-74.485 -12.136)"/><path class="t" d="M295.74,48.788a3.342,3.342,0,0,1-3.818,2.855,3.491,3.491,0,0,1-2.386-4.226,3.341,3.341,0,0,1,3.818-2.854,3.49,3.49,0,0,1,2.386,4.225" transform="translate(-81.276 -12.494)"/><path class="af" d="M272.935,24.5s-10.362,1.506-10.639,9.719c0,0-4.414-8.341.011-12.434s9.939-10.513,19.205-5.168Z" transform="translate(-73.1 -4.095)"/><path class="af" d="M309.386,57.511a11.685,11.685,0,0,0,3.992-6.172,5.988,5.988,0,0,0,.212-1.619A6.462,6.462,0,0,0,312.1,46.1c-.833-1.092-1.221-2.77-2.222-3.749-1.4-1.368-1.574-5.722-2.826-7.194Z" transform="translate(-86.218 -9.871)"/><path class="af" d="M288.85,36.544h0a19.3,19.3,0,0,1,4.737,4.462,7.04,7.04,0,0,1,.376,7.209,15.266,15.266,0,0,0-1.259,2.215c-.5,1.409-.766,5.558,1.382,6.193a6.941,6.941,0,0,0,5.749-1.231,4.827,4.827,0,0,0,1.525-3.541c.446-4.238-3.28-28.681-4.575-31.046-5.057-9.235-17.766-2.227-18.01-.645a8.459,8.459,0,0,1-.877,2.8c-.593,1.261-.12,2.3.752,3.381.967,1.2,1.769,2.483,2.812,3.65a52.225,52.225,0,0,0,7.388,6.547" transform="translate(-77.957 -4.528)"/><path class="t" d="M169.786,145.234l13.521-4.2c.025-.009.185-.055.434-.126,3.111-.877,4.826-4.707,3.607-7.989-.691-1.863-1.571-3.518-2.6-3.982l-7.6-2.824-5.2-2.8s-1.672,1.11,1.428,4.525c.955,1.053,2.4,1.693,3.029,2.489a11.9,11.9,0,0,1-1.688,1.379l-12.075,2.763c-.962.169-1.822.487-1.705,1.571l.022.2c.117,1.084,1.021,1.161,1.982.993l3.626-.46-4.714,1.663c-.944.28-1.774.7-1.558,1.758l.04.195c.217,1.061,1.126,1.03,2.07.75l3.541-.875-.638.268c-.931.337-1.742.8-1.475,1.846l.049.192c.267,1.044,1.174.959,2.106.622l6.342-1.967-3.222,1.35c-.931.337-1.742.8-1.475,1.846l.049.191c.266,1.044,1.174.959,2.106.623" transform="translate(-44.999 -34.625)"/><path class="x" d="M268.705,246.142,46.325,211.349,48.9,333.761l221.632,37.582Z" transform="translate(-13.008 -59.345)"/><path class="x" d="M268.705,246.142,46.325,211.349l.915,38.793,222.01,33.341Z" transform="translate(-13.008 -59.345)"/><path class="ah" d="M357.352,372.907l56.272-37.1,1.623-118.891-59.72,30.788Z" transform="translate(-99.828 -60.908)"/><path class="u" d="M339.932,200.974,105.041,172.32,32.034,203.747,272.729,238.7Z" transform="translate(-8.995 -48.386)"/><path class="ai" d="M348.483,230.111l12.668-4.042c1.016-.324.987-1.372-.065-2.305L343.2,207.9a4.1,4.1,0,0,0-3.487-1.026l-11.393,3.636c-.964.308-.994,1.274-.066,2.182l16.615,16.269a4.135,4.135,0,0,0,3.618,1.149" transform="translate(-91.979 -58.062)"/><path class="aj" d="M348.483,227.515l12.668-4.042c1.016-.324.987-1.372-.065-2.305L343.2,205.306a4.1,4.1,0,0,0-3.487-1.026l-11.393,3.636c-.964.308-.994,1.274-.066,2.182l16.615,16.269a4.134,4.134,0,0,0,3.618,1.149" transform="translate(-91.979 -57.333)"/><path class="ac" d="M311.517,177.454l60.164-21.782c.447-.161.861-.049,1.762.423l3.118,1.564L367.155,191.4a1.293,1.293,0,0,1-.806,1.044s-59.092,17.671-59.042,17.273Z" transform="translate(-86.289 -43.692)"/><path class="ak" d="M333.548,196.621c-6.666-5.291-15.569,15.731-21.183,23.564a18.006,18.006,0,0,0-1.356,2.283l-3.515-2.155a2.736,2.736,0,0,1-.221-2.068l3.8-31.434.019-.155a1.57,1.57,0,0,1,.388-.672Z" transform="translate(-86.253 -52.223)"/><path class="k" d="M378.144,158.754c.045-.351-.289-.5-.743-.342L317.492,179.9a1.624,1.624,0,0,0-.495.293,1.274,1.274,0,0,0-.557.767l-4.178,33.4c-.046.371.319.531.811.357l59.645-21.239a1.5,1.5,0,0,0,.98-.994l.283-2.258Z" transform="translate(-87.679 -44.462)"/><path class="aj" d="M338.25,188.871l27.508-9.96c.2-.073.393-.022.806.193l1.426.716-4.3,15.426a.591.591,0,0,1-.369.477s-27.018,8.08-26.995,7.9Z" transform="translate(-94.437 -50.228)"/><path class="aj" d="M348.322,197.635c-3.048-2.419-7.118,7.192-9.685,10.774a8.155,8.155,0,0,0-.621,1.044l-1.607-.985a1.25,1.25,0,0,1-.1-.946l1.738-14.373.009-.07a.722.722,0,0,1,.177-.307Z" transform="translate(-94.42 -54.129)"/><path class="al" d="M338.961,205.962l27.27-9.711a.688.688,0,0,0,.449-.455l1.909-15.269c.022-.17-.145-.243-.37-.163l-27.271,9.711a.687.687,0,0,0-.448.455L338.59,205.8c-.022.17.145.243.37.163" transform="translate(-95.072 -50.636)"/><path class="p" d="M339.315,203.8l27.392-9.824c.208-.075.189.892.209.731l1.9-14.388c.021-.16-.132-.231-.339-.156l-27.392,9.824a.64.64,0,0,0-.414.427l-1.7,13.229c-.021.16.132.231.339.156" transform="translate(-95.181 -50.58)"/><path class="ak" d="M367.376,206.561a3.869,3.869,0,0,0-.2-.973l-.377-5.279a4.094,4.094,0,0,0-5.181-3.546l-12.054,3.843a3.387,3.387,0,0,0-2.363,3.638l1.515,14.839c.009.092.026.181.042.27l.536,5.285a3.365,3.365,0,0,0,4.164,2.878l12.991-4.137a2.751,2.751,0,0,0,1.915-2.9Z" transform="translate(-97.485 -55.201)"/><path class="am" d="M430.821,235.913V214.4L366.7,250.514v17.839Z" transform="translate(-102.966 -60.203)"/><path class="am" d="M272.729,268.805,32.034,233.01V216.017l240.695,34.949Z" transform="translate(-8.995 -60.656)"/><path class="aa" d="M266.3,38.715s.963-4.553,8.91-8.409l-1.02-3.477-7.309,4.392Z" transform="translate(-74.774 -7.533)"/><path class="an" d="M272.52,26.829c4.293.7-7.044,2.5-11.921,11.314,0,0-3-10.693,11.921-11.314" transform="translate(-73.105 -7.533)"/><path class="an" d="M277.27,26.829s.567,9.463,14.878,15.044c0,0-2.938-11.973-14.878-15.044" transform="translate(-77.855 -7.533)"/><g class="ao" transform="translate(312.849 83.622)"><g class="ap"><path class="x" d="M448.2,118.827c0,1.379-2.958,2.47-6.607,2.437s-6.607-1.177-6.607-2.556,2.958-2.47,6.607-2.437,6.607,1.177,6.607,2.556" transform="translate(-434.99 -116.27)"/></g></g><path class="ae" d="M438.354,103.059c-3.23-.029-5.849.944-5.849,2.173v9.478h.029c.291,1.129,2.784,2.031,5.819,2.058s5.529-.831,5.819-1.954h.029v-9.478c0-1.23-2.619-2.249-5.849-2.278" transform="translate(-121.443 -28.938)"/><path class="ae" d="M438.354,98.049c-3.23-.029-5.849.944-5.849,2.173V109.7h.029c.291,1.129,2.784,2.031,5.819,2.058s5.529-.83,5.819-1.953h.029v-9.478c0-1.229-2.619-2.249-5.849-2.278" transform="translate(-121.443 -27.531)"/><path class="aq" d="M432.505,102.762s4.187,3.232,10.322.785L442.9,115.1a2.362,2.362,0,0,0,1.3-1.185V99.851l-9.69.334-2.007.995Z" transform="translate(-121.443 -28.037)"/><path class="ar" d="M441.536,97.776a16.2,16.2,0,0,0-7.283-.065l-2.965-.027.029,2.3c.286,1.282,3.119,2.312,6.579,2.342s6.292-.948,6.578-2.225L444.5,97.8Z" transform="translate(-121.101 -27.329)"/><path class="as" d="M444.5,96.99c0,1.379-2.958,2.47-6.607,2.437s-6.607-1.177-6.607-2.556,2.958-2.47,6.607-2.437,6.607,1.177,6.607,2.556" transform="translate(-121.101 -26.516)"/><path class="as" d="M432.505,107.7s1.484,1.266,4.929,1.429v4.4s-3.28.35-4.929-1.215Z" transform="translate(-121.443 -30.242)"/><g class="ao" transform="translate(169.535 23.385)"><g class="at"><path class="x" d="M248.938,35.072c0,1.379-2.958,2.47-6.607,2.437s-6.607-1.177-6.607-2.556,2.958-2.47,6.607-2.437,6.607,1.177,6.607,2.556" transform="translate(-235.724 -32.515)"/></g></g><g class="ao" transform="translate(148.481 20.699)"><g class="at"><path class="x" d="M219.664,31.337c0,1.379-2.958,2.47-6.607,2.437s-6.607-1.177-6.607-2.556,2.959-2.47,6.607-2.437,6.607,1.177,6.607,2.556" transform="translate(-206.45 -28.78)"/></g></g><g class="ao" transform="translate(295.724 82.019)"><g class="ap"><path class="x" d="M424.393,116.6c0,1.379-2.958,2.47-6.607,2.437s-6.607-1.177-6.607-2.556,2.958-2.47,6.607-2.437,6.607,1.177,6.607,2.556" transform="translate(-411.179 -114.04)"/></g></g><path class="ae" d="M414.543,100.828c-3.23-.029-5.849.944-5.849,2.173v9.478h.029c.291,1.129,2.784,2.031,5.819,2.058s5.529-.83,5.819-1.953h.029v-9.478c0-1.229-2.619-2.249-5.849-2.278" transform="translate(-114.757 -28.311)"/><path class="ae" d="M414.543,95.819c-3.23-.029-5.849.944-5.849,2.173v9.478h.029c.291,1.129,2.784,2.031,5.819,2.058s5.529-.831,5.819-1.954h.029V98.1c0-1.23-2.619-2.25-5.849-2.278" transform="translate(-114.757 -26.905)"/><path class="aq" d="M408.694,100.532s4.187,3.232,10.322.785l.072,11.552a2.361,2.361,0,0,0,1.3-1.186V97.621l-9.69.334-2.007.994Z" transform="translate(-114.757 -27.411)"/><path class="ar" d="M417.725,95.546a16.2,16.2,0,0,0-7.283-.065l-2.965-.027.029,2.3c.286,1.282,3.119,2.312,6.579,2.343s6.292-.949,6.578-2.225l.029-2.295Z" transform="translate(-114.415 -26.703)"/><path class="as" d="M420.69,94.76c0,1.379-2.958,2.47-6.607,2.437s-6.607-1.177-6.607-2.556,2.958-2.47,6.607-2.437,6.607,1.177,6.607,2.556" transform="translate(-114.415 -25.89)"/><path class="as" d="M408.694,105.474s1.484,1.266,4.929,1.429v4.4s-3.28.35-4.929-1.215Z" transform="translate(-114.757 -29.616)"/><g class="ao" transform="translate(278.125 80.049)"><g class="at"><path class="x" d="M399.924,113.859c0,1.379-2.958,2.47-6.607,2.437s-6.607-1.177-6.607-2.556,2.958-2.47,6.607-2.437,6.607,1.177,6.607,2.556" transform="translate(-386.71 -111.302)"/></g></g><path class="ae" d="M390.073,98.09c-3.23-.029-5.849.944-5.849,2.173v9.478h.03c.291,1.129,2.784,2.031,5.819,2.058s5.529-.83,5.819-1.953h.029v-9.478c0-1.229-2.619-2.249-5.849-2.278" transform="translate(-107.886 -27.543)"/><path class="ae" d="M390.073,93.081c-3.23-.029-5.849.944-5.849,2.173v9.478h.03c.291,1.128,2.784,2.031,5.819,2.058s5.529-.831,5.819-1.954h.029V95.359c0-1.23-2.619-2.25-5.849-2.278" transform="translate(-107.886 -26.136)"/><path class="aq" d="M384.224,97.794s4.187,3.232,10.322.785l.072,11.552a2.362,2.362,0,0,0,1.3-1.185V94.883l-9.689.334-2.008.995Z" transform="translate(-107.886 -26.642)"/><path class="ar" d="M393.255,92.808a16.2,16.2,0,0,0-7.283-.065l-2.965-.027.029,2.3c.286,1.282,3.119,2.312,6.579,2.343s6.292-.949,6.578-2.225l.029-2.295Z" transform="translate(-107.545 -25.934)"/><path class="as" d="M396.22,92.022c0,1.379-2.958,2.47-6.607,2.437s-6.607-1.177-6.607-2.556,2.958-2.47,6.607-2.437,6.607,1.177,6.607,2.556" transform="translate(-107.545 -25.121)"/><path class="as" d="M384.224,102.736s1.484,1.266,4.929,1.429v4.4s-3.28.35-4.929-1.215Z" transform="translate(-107.886 -28.847)"/><g class="ao" transform="translate(267.962 33.965)"><g class="au"><path class="x" d="M380.468,49.91l-7.26,4.691s-.411.284-.6.386a.364.364,0,0,1-.034.032l.328.042a2.449,2.449,0,0,0,1.283-.447L383.9,48.2c.424-.28.543-.539.262-.575l-3.142-.4.024,1.727a1.294,1.294,0,0,1-.573.959" transform="translate(-372.578 -47.225)"/></g></g><path class="u" d="M345.028,40.344l19.357,2.35a.552.552,0,0,1,.246.094l.05-.034,7.806-5.045a.463.463,0,0,1,.437-.083c-.009-.06-.068-.1-.186-.119L353.392,35.16a2.008,2.008,0,0,0-1.1.32l-7.429,4.8c-.168.108-.257.213-.267.294a.4.4,0,0,1,.435-.231" transform="translate(-96.759 -9.871)"/><path class="av" d="M373.453,43.8v8.49l7.26-4.691a1.3,1.3,0,0,0,.573-.959l-.025-1.726L381.178,39v0a37.476,37.476,0,0,1-7.726,4.791V43.8" transform="translate(-104.862 -10.951)"/><path class="x" d="M380.309,38.665,372.5,43.709l-.049.035a.513.513,0,0,1,.114.108,1.08,1.08,0,0,1,.168-.06c.229-.06.417-.206.435-.127a37.451,37.451,0,0,0,7.726-4.791h0a.3.3,0,0,0-.153-.291.464.464,0,0,0-.437.083" transform="translate(-104.582 -10.826)"/><path class="x" d="M373.218,54.154v-8.5c-.018-.078-.206.067-.435.127a1.126,1.126,0,0,0-.168.059.422.422,0,0,1,.1.26v8.213a.331.331,0,0,1-.089.229c.186-.1.6-.386.6-.386" transform="translate(-104.626 -12.812)"/><path class="as" d="M345.019,51.4l19.357,2.35a.431.431,0,0,0,.335-.091.288.288,0,0,0,.034-.032.331.331,0,0,0,.09-.228V45.181a.422.422,0,0,0-.1-.26.531.531,0,0,0-.115-.108.561.561,0,0,0-.246-.095l-13.937-1.692-5.42-.658a.4.4,0,0,0-.435.231.33.33,0,0,0-.024.12v8.213a.5.5,0,0,0,.459.462" transform="translate(-96.749 -11.896)"/><path class="ae" d="M345.019,51.4l12.168,1.477-6.748-9.846-5.42-.658a.4.4,0,0,0-.435.231.33.33,0,0,0-.024.12v8.213a.5.5,0,0,0,.459.462" transform="translate(-96.749 -11.896)"/><g class="ao" transform="translate(134.922 58.979)"><g class="aw"><path class="x" d="M194.053,84.2l-5.94,3.838s-.336.232-.488.316a.24.24,0,0,1-.028.026l.269.035a2,2,0,0,0,1.049-.365l7.941-5.25c.348-.23.444-.442.215-.471l-2.57-.325.019,1.413a1.059,1.059,0,0,1-.468.785" transform="translate(-187.598 -82.006)"/></g></g><path class="x" d="M188.681,86.858V78.378c-.018-.078-.207.068-.435.127a1.129,1.129,0,0,0-.168.059.425.425,0,0,1,.1.26v8.213a.335.335,0,0,1-.089.229c.185-.1.6-.409.6-.409" transform="translate(-52.81 -22.002)"/><path class="u" d="M190.93,61.278,180.454,60.15l-6.73,4.349,9.96,1.209a.55.55,0,0,1,.247.095c.016-.012.032-.024.049-.035,0,0,7.066-4.476,6.949-4.491" transform="translate(-48.78 -16.89)"/><path class="av" d="M195.086,62.605v0c-.021.017-2.3,1.464-6.172,3.809V82.434l5.706-3.687a1.3,1.3,0,0,0,.573-.959l-.024-1.727Z" transform="translate(-53.045 -17.578)"/><path class="x" d="M194.915,61.714,187.966,66.2c-.017.011-.033.022-.05.035a.528.528,0,0,1,.115.107,1.12,1.12,0,0,1,.168-.059c.229-.06.418-.206.435-.127a25.723,25.723,0,0,0,6.173-3.61c0-.148.28-.948.108-.836" transform="translate(-52.765 -17.326)"/><path class="x" d="M188.681,76.393v-8.5c-.018-.079-.207.067-.435.127a1.13,1.13,0,0,0-.168.059.422.422,0,0,1,.1.26v8.213a.335.335,0,0,1-.089.229c.185-.1.6-.387.6-.387" transform="translate(-52.81 -19.057)"/><path class="ax" d="M184,67.6a.544.544,0,0,0-.114-.108.554.554,0,0,0-.247-.094l-10.084-1.225V81.953a.9.9,0,0,0,.787.888l9.3,1.128a.434.434,0,0,0,.335-.09.365.365,0,0,0,.035-.032.335.335,0,0,0,.089-.228V67.862a.422.422,0,0,0-.1-.26" transform="translate(-48.732 -18.581)"/><path class="as" d="M238.253,30.685l-5.471-1.371c-2.688-.339-4.874-2.117-4.857-3.948l.122-12.977c.017-1.832,4.919-2.713,4.919-2.713l5.458.69s4.875,2.117,4.857,3.948l-.111,11.808c-.017,1.832-3.275,4.212-4.917,4.563" transform="translate(-63.999 -2.717)"/><path class="as" d="M234.893,31.017l-5.508-.548c-2.713-.27-4.918-1.991-4.9-3.823l.122-12.977c.017-1.833,5.462-3.457,5.462-3.457l5.009,1.167s4.918,1.99,4.9,3.823l-.122,12.975c-.017,1.833-2.251,3.111-4.964,2.839" transform="translate(-63.033 -2.868)"/><path class="ar" d="M237.486,9.1a10.915,10.915,0,0,0-4.842.037l-1.972.015.019,1.5c.19.837,2.074,1.481,4.374,1.463s4.183-.69,4.374-1.53l.019-1.5Z" transform="translate(-64.771 -2.485)"/><path class="as" d="M239.457,8.554c0,.9-1.966,1.652-4.392,1.671s-4.392-.7-4.392-1.6,1.966-1.652,4.392-1.671,4.392.7,4.392,1.6" transform="translate(-64.771 -1.952)"/><path class="ar" d="M239.193,5.1l-1.777.014a9.845,9.845,0,0,0-4.364.034l-1.777.014.016,1.255h-.016l.017,1.356c.171.754,1.869,1.336,3.942,1.319s3.771-.623,3.942-1.38l.017-1.356h-.016Z" transform="translate(-64.94 -1.371)"/><path class="as" d="M239.193,4.618c0,.815-1.773,1.489-3.959,1.506s-3.959-.63-3.959-1.445,1.773-1.489,3.959-1.506,3.959.63,3.959,1.445" transform="translate(-64.94 -0.891)"/><path class="u" d="M234.957,29.126l-4.481-.531a2.525,2.525,0,0,1-2.207-2.4V18.933a1.9,1.9,0,0,1,2.207-1.881l4.481.531a2.526,2.526,0,0,1,2.207,2.4v7.257a1.9,1.9,0,0,1-2.207,1.881" transform="translate(-64.096 -4.784)"/><path class="as" d="M210.488,27.512l-5.471-1.37c-2.688-.34-4.874-2.117-4.857-3.949l.123-12.976C200.3,7.384,205.2,6.5,205.2,6.5l5.459.69s4.874,2.116,4.856,3.948l-.111,11.807c-.017,1.833-3.275,4.212-4.917,4.563" transform="translate(-56.203 -1.826)"/><path class="as" d="M207.128,27.846l-5.508-.549c-2.713-.27-4.918-1.991-4.9-3.823l.122-12.977c.017-1.832,5.462-3.457,5.462-3.457l5.009,1.167s4.918,1.99,4.9,3.822l-.122,12.977c-.017,1.833-2.251,3.11-4.964,2.839" transform="translate(-55.237 -1.977)"/><path class="ar" d="M209.721,5.93a10.916,10.916,0,0,0-4.842.037l-1.972.015.019,1.5c.19.837,2.074,1.482,4.374,1.464s4.183-.691,4.374-1.531l.019-1.5Z" transform="translate(-56.974 -1.594)"/><path class="as" d="M211.692,5.382c0,.9-1.966,1.652-4.392,1.671s-4.393-.7-4.393-1.6S204.874,3.8,207.3,3.779s4.392.7,4.392,1.6" transform="translate(-56.974 -1.061)"/><path class="ar" d="M211.428,1.925l-1.777.014a9.831,9.831,0,0,0-4.364.033l-1.777.014.016,1.255h-.016l.017,1.356c.171.755,1.869,1.336,3.942,1.32s3.771-.623,3.942-1.38l.017-1.356h-.016Z" transform="translate(-57.144 -0.48)"/><path class="as" d="M211.428,1.445c0,.815-1.773,1.489-3.959,1.506s-3.959-.63-3.959-1.445S205.283.017,207.469,0s3.959.629,3.959,1.444" transform="translate(-57.144 0)"/><path class="u" d="M207.192,25.954l-4.481-.531a2.526,2.526,0,0,1-2.206-2.405V15.762a1.9,1.9,0,0,1,2.206-1.881l4.481.531a2.527,2.527,0,0,1,2.207,2.4v7.257a1.9,1.9,0,0,1-2.207,1.881" transform="translate(-56.3 -3.893)"/><g class="ao" transform="translate(292.885 37.163)"><g class="ay"><path class="x" d="M415.122,54.358l-7.26,4.691s-.411.284-.6.386a.349.349,0,0,1-.034.032l.329.042a2.454,2.454,0,0,0,1.283-.447l9.706-6.418c.424-.281.543-.54.262-.576l-3.141-.4L415.7,53.4a1.294,1.294,0,0,1-.573.959" transform="translate(-407.232 -51.672)"/></g></g><path class="u" d="M379.681,44.791l19.357,2.35a.551.551,0,0,1,.246.094l.05-.034,7.806-5.045a.463.463,0,0,1,.437-.083c-.009-.06-.068-.1-.186-.119l-19.345-2.349a2.011,2.011,0,0,0-1.1.32l-7.429,4.8c-.168.108-.257.213-.267.294a.4.4,0,0,1,.435-.231" transform="translate(-106.489 -11.12)"/><path class="av" d="M408.107,48.25v8.49l7.26-4.691a1.3,1.3,0,0,0,.573-.959l-.024-1.727-.085-5.913v0a37.474,37.474,0,0,1-7.726,4.791v.013" transform="translate(-114.592 -12.199)"/><path class="x" d="M414.962,43.113l-7.806,5.044-.05.035a.511.511,0,0,1,.114.108,1.158,1.158,0,0,1,.168-.06c.229-.06.417-.206.435-.127a37.426,37.426,0,0,0,7.726-4.791h0a.3.3,0,0,0-.153-.291.464.464,0,0,0-.437.083" transform="translate(-114.312 -12.075)"/><path class="x" d="M407.872,58.6V50.1c-.018-.078-.206.068-.435.127a1.126,1.126,0,0,0-.168.059.418.418,0,0,1,.1.26v8.213a.331.331,0,0,1-.089.229c.186-.1.6-.386.6-.386" transform="translate(-114.357 -14.061)"/><path class="as" d="M379.672,55.843l19.357,2.351a.434.434,0,0,0,.335-.09c.012-.011.024-.022.035-.033a.332.332,0,0,0,.089-.228V49.629a.422.422,0,0,0-.1-.26.531.531,0,0,0-.115-.108.551.551,0,0,0-.246-.094l-19.357-2.35a.4.4,0,0,0-.435.231.331.331,0,0,0-.024.12v8.213a.5.5,0,0,0,.459.462" transform="translate(-106.479 -13.145)"/><path class="ae" d="M182.39,79.8l-4.945-.539V71.526l4.945.539Z" transform="translate(-49.825 -20.084)"/><g class="ao" transform="translate(151.001 61.078)"><g class="aw"><path class="x" d="M216.409,87.12l-5.94,3.838s-.336.233-.488.316a.165.165,0,0,1-.028.027l.269.034a2,2,0,0,0,1.049-.365l7.942-5.251c.347-.229.444-.442.214-.47l-2.57-.325.02,1.413a1.06,1.06,0,0,1-.469.785" transform="translate(-209.954 -84.924)"/></g></g><path class="x" d="M211.037,89.775V81.3c-.018-.078-.207.068-.435.128a1.127,1.127,0,0,0-.168.059.422.422,0,0,1,.1.26v8.213a.332.332,0,0,1-.089.228c.185-.1.6-.409.6-.409" transform="translate(-59.087 -22.821)"/><path class="u" d="M213.286,64.195,202.81,63.067l-6.73,4.349,9.96,1.209a.549.549,0,0,1,.247.095c.016-.012.032-.024.049-.035,0,0,7.066-4.476,6.949-4.491" transform="translate(-55.057 -17.709)"/><path class="av" d="M217.442,65.523v0c-.021.017-2.3,1.464-6.172,3.809l0,16.023,5.706-3.687a1.294,1.294,0,0,0,.573-.959l-.024-1.726Z" transform="translate(-59.323 -18.397)"/><path class="x" d="M217.271,64.631l-6.949,4.491c-.017.011-.033.022-.049.035a.541.541,0,0,1,.114.107,1.12,1.12,0,0,1,.168-.059c.229-.06.418-.206.435-.127a25.694,25.694,0,0,0,6.173-3.61c0-.147.28-.948.108-.836" transform="translate(-59.043 -18.145)"/><path class="x" d="M211.037,79.31v-8.5c-.018-.078-.207.068-.435.128a1.052,1.052,0,0,0-.168.059.422.422,0,0,1,.1.26v8.213a.335.335,0,0,1-.089.229c.185-.1.6-.386.6-.386" transform="translate(-59.087 -19.876)"/><path class="ax" d="M206.354,70.519a.563.563,0,0,0-.114-.108.551.551,0,0,0-.247-.094l-10.084-1.224V84.87a.9.9,0,0,0,.787.888l9.3,1.129a.437.437,0,0,0,.335-.091.368.368,0,0,0,.035-.032.332.332,0,0,0,.089-.228V70.78a.422.422,0,0,0-.1-.26" transform="translate(-55.009 -19.401)"/><path class="ae" d="M204.618,82.348l-4.945-.539V74.075l4.945.539Z" transform="translate(-56.066 -20.799)"/><path class="ae" d="M379.672,55.843l12.168,1.478-6.748-9.846-5.42-.658a.4.4,0,0,0-.435.231.331.331,0,0,0-.024.12v8.213a.5.5,0,0,0,.459.462" transform="translate(-106.479 -13.145)"/><g class="ao" transform="translate(317.802 40.666)"><g class="az"><path class="x" d="M449.767,59.229l-7.26,4.691s-.411.284-.6.386a.374.374,0,0,1-.035.032l.329.042a2.454,2.454,0,0,0,1.283-.447l9.707-6.418c.424-.28.543-.539.262-.575l-3.141-.4.024,1.727a1.294,1.294,0,0,1-.573.959" transform="translate(-441.877 -56.543)"/></g></g><path class="u" d="M414.327,49.663l19.356,2.35a.551.551,0,0,1,.247.094c.017-.012.032-.024.05-.034l7.806-5.045a.463.463,0,0,1,.437-.083c-.009-.06-.068-.1-.186-.119l-19.345-2.349a2,2,0,0,0-1.1.32l-7.429,4.8c-.168.108-.257.213-.267.294a.4.4,0,0,1,.435-.231" transform="translate(-116.217 -12.488)"/><path class="av" d="M442.752,53.121v8.49l7.26-4.691a1.3,1.3,0,0,0,.573-.959l-.025-1.726-.084-5.914v0a37.475,37.475,0,0,1-7.726,4.791v.013" transform="translate(-124.32 -13.567)"/><path class="x" d="M449.608,47.984,441.8,53.028c-.017.011-.033.022-.049.035a.526.526,0,0,1,.114.108,1.07,1.07,0,0,1,.168-.06c.229-.06.418-.206.435-.127a37.427,37.427,0,0,0,7.726-4.791h0a.3.3,0,0,0-.153-.291.464.464,0,0,0-.437.083" transform="translate(-124.04 -13.443)"/><path class="x" d="M442.517,63.473v-8.5c-.018-.078-.207.067-.435.127a1.128,1.128,0,0,0-.168.059.422.422,0,0,1,.1.26V63.63a.334.334,0,0,1-.089.229c.185-.1.6-.386.6-.386" transform="translate(-124.085 -15.429)"/><path class="as" d="M414.318,60.714l19.356,2.35a.439.439,0,0,0,.336-.091.294.294,0,0,0,.034-.032.334.334,0,0,0,.089-.228V54.5a.421.421,0,0,0-.1-.26.514.514,0,0,0-.115-.108.56.56,0,0,0-.247-.095l-19.356-2.35a.4.4,0,0,0-.435.231.332.332,0,0,0-.024.12v8.213a.506.506,0,0,0,.459.462" transform="translate(-116.208 -14.512)"/><path class="ae" d="M414.35,60.715l12.168,1.477-6.748-9.846-5.42-.658a.394.394,0,0,0-.435.231.33.33,0,0,0-.024.12v8.213a.506.506,0,0,0,.459.462" transform="translate(-116.217 -14.513)"/><path class="t" d="M80.9,144.21c1.177,7.952,1.714,16.462,5.252,23.457,3.3,6.526,14.842,15.787,14.842,15.787s7.643,11.866,28.333-12.962c4.445-5.334-4.333-8.249-9.632-1.62a22.713,22.713,0,0,1-13.023,3.516s-13.034-18.035-14.923-30.807c-.936-6.328-11.791-3.75-10.848,2.629" transform="translate(-22.701 -38.731)"/><path class="t" d="M26.811,196.739c-4.385-1.863-9.57-4.064-12.916-7a8.22,8.22,0,0,1-2.7-3.323c-.661-1.287.233.89-.187-.485-.092-.3-.181-.606-.255-.913-.319-1.331-.219-.131-.183-1.778.078-3.655,1.287-7.793,2.685-11.9,2.216-6.512,4.806-12.9,7.224-19.336,2.395-6.374-7.818-9.128-10.192-2.809-2.65,7.052-5.544,14.041-7.85,21.217-1.463,4.555-2.8,9.514-2.348,14.34,1.069,11.531,11.839,17.061,21.389,21.119,2.646,1.125,5.633.771,7.23-1.9,1.323-2.207.727-6.115-1.9-7.23" transform="translate(0 -40.887)"/><path class="ba" d="M15.21,125.553C8.2,135.5,5.028,151.444,3.841,159.2c-.32,2.094,10.033,5.66,12.1,4.625l3.419-8.179s2.858-12.421,15.152-28.559a6.868,6.868,0,0,0-4.225-9.283c-4.079-1.357-10.972,2.523-15.078,7.753" transform="translate(-1.077 -33)"/><path class="bb" d="M5.693,164.746s2.261,2.707,8.782,3.043" transform="translate(-1.599 -46.259)"/><path class="z" d="M50.191,109.588l4.922-18.869,11.335,7.854-4.089,17.183c-.437,2.793-13.228.247-12.168-6.168" transform="translate(-14.075 -25.473)"/><path class="bc" d="M26.289,238.923c-.227,10.67,3.731,64.089,2.742,71.989-2,15.941,1.65,29.718,1.553,45.476-.062,10.13,15.137,10.1,16.142-.172,1.622-16.588.126-29.607.682-47.4.252-8.068.044-42.611-.712-50.478-1.335-13.907-2-1.531-5.915-14.624C38,234.4,26.289,238.923,26.289,238.923" transform="translate(-7.379 -66.779)"/><path class="bc" d="M37.45,265.758h0c1.559,1.383,37.66,4.562,38.14-.71.132-1.457.328-23.274-1.009-24-10.456-5.7-27.194-23.292-42.013-15.147-17.122,9.412-2.578,33.239,4.882,39.859" transform="translate(-6.897 -62.836)"/><path class="y" d="M21.57,124.818c-2.832,4.445-3.331,12.2-2.847,17.219.473,4.9,1.55,2.353,6.742,2.451l53.024.992s1.751-19.414-8.9-22.548c-4.014-1.181-13.22-7.391-13.22-7.391-7.575,5.967-13.3,6.4-15.925-2.438-10.709,5.518-12.329,1.446-18.87,11.714" transform="translate(-5.212 -31.759)"/><path class="y" d="M19.706,219.192c3.166-29.915-4.668-42.635-.845-79.737l56.589,1.8c1.368,25.062-4.849,47.7.389,77.37-13.469,8.262-33.83,8.777-56.133.57" transform="translate(-4.994 -39.158)"/><path class="bd" d="M56.035,418.985c-.377.184-5.736,1.507-6.088,1.679-.541.263-2.138.975-3.093,1.35-2.009.789-6.555,4.151-12.412.716-8.57-5.024,15.477-13.621,15.477-13.621l10.448-2.717a5.473,5.473,0,0,1,3.866.455c2.14,1.139,2.678,3.4,1.151,4.883-2.622,2.55-3.028,4.17-9.349,7.255" transform="translate(-9.153 -114.064)"/><path class="p" d="M55.018,415.893c-.376.183-5.736,1.506-6.088,1.678-.541.263-2.138.975-3.093,1.35-2.009.789-6.555,4.151-12.411.717-3.685-2.16-1.979-8.1,1.892-10.61C40.45,405.7,48.9,406.017,48.9,406.017L59.351,403.3a5.477,5.477,0,0,1,3.866.455c2.14,1.139,2.678,3.4,1.151,4.884-2.622,2.55-3.028,4.169-9.349,7.255" transform="translate(-8.812 -113.196)"/><path class="be" d="M47.4,404.031c-3.754,3.086-10.866,3.243-13.172-.127-.254,1.973-.472,3.943-.631,5.9-.649,7.994,12.667,7,13.318-1.02.128-1.582.293-3.168.484-4.758" transform="translate(-9.427 -113.412)"/><path class="bf" d="M29.628,401.018l-.439,5.534a.9.9,0,0,0,.165.624c.759,1.01,3.76,3.357,10.264,2.367a20.665,20.665,0,0,0,9.925-3.974,2.7,2.7,0,0,0,.683-1.625l.078-5.833c.007-.833-.915-1.187-1.73-.647-2.995,1.984-9.515,5.224-17.011,2.256a1.55,1.55,0,0,0-1.935,1.3" transform="translate(-8.195 -111.532)"/><path class="t" d="M90.072,86.74h0a1.171,1.171,0,0,1-.434.9,7.8,7.8,0,0,1-2.4,1.684,1.652,1.652,0,0,1-1.341.15,1.539,1.539,0,0,1-.708-1.21c-.214-1.281-1.547-3.422-.077-4,.6-.237,1-4.6,1.2-4.014a25.7,25.7,0,0,0,3.755,6.488" transform="translate(-23.708 -22.519)"/><path class="bc" d="M58.807,260.918c5.45,23.167,6.406,32.958,7.781,59.879.761,14.9,1.006,34.1.852,48.89-.1,9.712,16.989,7.648,17.091-2.1.158-15.232,1.149-31.41.989-46.789-.22-21.257-.676-33.452-.594-71.54.021-9.461-21.3,8.006-18.092,16.847Z" transform="translate(-16.512 -69.222)"/><path class="bd" d="M90.676,431.748c-.4.146-5.831.857-6.2.994-.571.209-2.248.759-3.239,1.033-2.09.578-7.1,3.559-12.163-.845-7.41-6.446,17.444-12.462,17.444-12.462l10.617-1.531a4.859,4.859,0,0,1,3.667.984,3.308,3.308,0,0,1,.241,5.334c-3,2.369-3.681,4.036-10.362,6.494" transform="translate(-19.007 -117.62)"/><path class="p" d="M90.448,428.905c-.4.132-5.831.771-6.2.894-.571.188-2.248.682-3.239.929-2.09.52-7.1,3.2-12.163-.76-3.474-2.718-.565-8.456,4.258-10.487,5.465-2.3,13.186-.721,13.186-.721L96.9,417.382a5.26,5.26,0,0,1,3.667.884c1.871,1.336,1.989,3.557.241,4.8-3,2.131-3.681,3.631-10.362,5.841" transform="translate(-18.902 -117.185)"/><path class="be" d="M85.619,418.335c-3.76,2.622-10.57,3.708-13.131.342-.17,1.844-.89,2.19-.962,4.031-.291,7.5,13.525,7.616,13.818.085.058-1.484.154-2.971.275-4.458" transform="translate(-20.082 -117.465)"/><path class="bf" d="M67.038,415.62l-.1,5.181a.94.94,0,0,0,.213.616c.859,1.066,4.145,3.723,10.872,3.724,5.881,0,8.885-1.621,10.107-2.331a1.957,1.957,0,0,0,.608-1.441l-.3-5.516a1.252,1.252,0,0,0-1.848-.863,19.854,19.854,0,0,1-17.618-.318,1.317,1.317,0,0,0-1.936.948" transform="translate(-18.796 -116.396)"/><path class="ba" d="M81.557,147.234l-13.614-6.092a236.731,236.731,0,0,0,1.771,74.215s.808,9.765-14.6,8.7c-6.744-.644-13.461.35-19.418-1.057,7.946,3.579,18.577,3.688,29.177,4.7,3.911,1.117,16.778-4.61,16.686-7.125-.546-14.877-5.873-29.216,0-73.344" transform="translate(-10.023 -39.631)"/><path class="y" d="M76.595,143.159c3.467,17.365,7.268,27.378,9.276,31.89.692,1.556,2.838,1.827,4.46.572l10.167-7.868a3.125,3.125,0,0,0,1.1-3.954c-2.163-3.541-3.9-12.386-7.753-25-1.817-3.231-7.384-8.231-11.623-6.138-4.418,2.181-6.9,6.812-5.623,10.5" transform="translate(-21.413 -37.109)"/><path class="bc" d="M74.63,61.76c-3.662,2.028-2.836,5.344,1.334,4.781,3.433-.462,7.309,1.576,8.737,2.871a1.175,1.175,0,0,0,1.942-.812,14.244,14.244,0,0,0-4.9-10.09c-1.682-1.441-2.737.829-7.111,3.251" transform="translate(-20.302 -16.302)"/><path class="bb" d="M88.142,181.569s10.941-6.819,14.9-11.392" transform="translate(-24.749 -47.784)"/><path class="t" d="M310.493,143.214s-17.313,14.045-29.506,24.67l3.66,2.352s35.494-11.579,34.744-24.079-8.9-2.943-8.9-2.943" transform="translate(-78.899 -39.232)"/><path class="ac" d="M315.163,124.956,302.32,85.55a5.991,5.991,0,0,1,4.6-8.014c3.775-.752,6.909,1.376,9.075,5.293,6.8,13.539,8.618,28.7,9.238,45.826-2.179-1.579-5.36-3.129-7.663-2.591-.656.153-2.4-1.108-2.4-1.108" transform="translate(-84.788 -21.729)"/><path class="bg" d="M317.8,82.828c-2.167-3.916-5.3-6.044-9.076-5.293-.173.035-.337.081-.5.127.293.433.576.887.844,1.372,14.622,7.822,16.545,48.685,16.545,48.685.506.3.987.616,1.427.935-.621-17.129-2.441-32.287-9.238-45.826" transform="translate(-86.546 -21.729)"/><path class="ae" d="M291.167,70.566s3.7,1.708,8.981,4.632a2.78,2.78,0,0,1,.729,4.074l-8.233,11.707-5.851,2.339L290,95.866l-12.972,13.8s.76-10.508,12.009-29.259c2.178-3.628,2.125-9.84,2.125-9.84" transform="translate(-77.788 -19.814)"/><path class="t" d="M254.052,188.476a1.328,1.328,0,0,0,1.2.511h.018c1.531-.058,3.633-1.776,6.25-5.106.119-.1.625-.429,1.334-.875a6.426,6.426,0,0,0-1.179,3.79c.391,4.518,1.625,6.384,1.677,6.461l.071.105.145.014a1.392,1.392,0,0,0,1.025-.393c.932-.849,1.073-2.85.419-5.946a3.319,3.319,0,0,1,1.043-2.774,3.4,3.4,0,0,0-.55,2.107,37.04,37.04,0,0,0,1.865,6.319l.063.163.2.006a1.326,1.326,0,0,0,.933-.424,1.9,1.9,0,0,0,.37-.543l.017.1.047.282.333-.078c2.458-.577,2.148-2.839,1.922-4.491-.029-.213-.058-.421-.081-.621a2.584,2.584,0,0,1,.9-2.411,22.951,22.951,0,0,1,4.888-2.762c.231-.069,2.029-.971,2.3-1.083,5.1-2.112,2.776-7.27-2.643-7.545-5.54,2.615-14.107,5.368-16.32,7.985l-.047.029-6.3,7.022Z" transform="translate(-71.308 -48.656)"/><path class="ab" d="M292.793,132.053l-8.37-1.117a2.033,2.033,0,0,1-1.765-2.015v-2.875a2.034,2.034,0,0,1,2.3-2.016l8.37,1.117a2.034,2.034,0,0,1,1.765,2.016v2.874a2.034,2.034,0,0,1-2.3,2.016" transform="translate(-79.368 -34.821)"/><path class="ab" d="M291.448,124.309h0a.5.5,0,0,1-.493-.493V120.93a.493.493,0,1,1,.987,0v2.885a.5.5,0,0,1-.493.493" transform="translate(-81.697 -33.818)"/><path class="bh" d="M202.727,329.4c.48,12.469-9.281,21.214-21.8,19.532s-23.059-13.152-23.539-25.621,9.281-21.214,21.8-19.533,23.059,13.153,23.539,25.622" transform="translate(-44.188 -85.241)"/><path class="bi" d="M185.609,342.734h0a6.009,6.009,0,0,1-4.955-5.593l-.378-22.244a3.971,3.971,0,0,1,4.791-4.077,6.009,6.009,0,0,1,4.955,5.593l.378,22.244a3.971,3.971,0,0,1-4.791,4.077" transform="translate(-50.62 -87.258)"/><path class="bi" d="M164.953,327.937h0a3.971,3.971,0,0,1,4.791-4.077l22.418,3.487a6.009,6.009,0,0,1,4.955,5.593,3.971,3.971,0,0,1-4.791,4.077l-22.418-3.487a6.009,6.009,0,0,1-4.955-5.593" transform="translate(-46.317 -90.92)"/><path class="aa" d="M89.671,90.719A4.575,4.575,0,0,1,87.4,91.951s-.793-.222-.335-.87.746.926,2.611-.362" transform="translate(-24.406 -25.473)"/><path class="aa" d="M66.944,104.34s-6.722-1.52-7.568-5.565l-2.361-8.644s10.516,12.09,16.43,13.292a21.243,21.243,0,0,1-6.5.917" transform="translate(-16.009 -25.308)"/><path class="bc" d="M40.969,70.962C42.108,55.007,54.021,55.747,63.14,54.339A14.58,14.58,0,0,1,72.718,57.3c3.077,2.368.291,7.757-4.983,8.138-4.86.352-.088,7.623-1.174,10.579-1.194,3.249-2.025,3.446-5.315,4.709-6.286,2.413-2.572,9.336-6.394,10.08-1.522.3-4.565.378-5.851-1.462-1.184-1.692-8.9-6.261-8.032-18.378" transform="translate(-11.485 -15.25)"/><path class="t" d="M71.244,86.567c.782,2.715-.172,5.413-2.132,6.026a2.687,2.687,0,0,1-.651.119c-1.778.109-3.618-1.507-4.315-3.925-.783-2.714.172-5.413,2.132-6.026s4.183,1.091,4.965,3.806" transform="translate(-17.935 -23.203)"/><path class="aa" d="M70.041,88.949a.75.75,0,0,0-.252-1.111c-.58-.3-1.392-.48-1.658.608s.619,2.059,1.32,2.623a.15.15,0,0,0,.221-.195,1.217,1.217,0,0,1-.017-1.436c.16-.188.286-.35.385-.488" transform="translate(-19.117 -24.6)"/><path class="ba" d="M69.487,119.384c-13.584,1.374-22.326,3.567-26.567-5.825,1.889-1.61,4.458-1.675,5.89-.222,2.517,2.55,7.561,3.326,12.947,1.39a3.862,3.862,0,0,1,4.225.8Z" transform="translate(-12.052 -31.532)"/><g class="ao" transform="translate(116.848 152.448)"><g class="bj"><path class="x" d="M175.681,214.462c0,1.379-2.958,2.5-6.607,2.5s-6.607-1.118-6.607-2.5,2.958-2.5,6.607-2.5,6.607,1.118,6.607,2.5" transform="translate(-162.467 -211.966)"/></g></g><path class="ae" d="M165.831,198.785c-3.23,0-5.849,1-5.849,2.226v9.478h.029c.291,1.126,2.784,2.006,5.819,2.006s5.529-.88,5.819-2.006h.029v-9.478c0-1.229-2.619-2.226-5.849-2.226" transform="translate(-44.921 -55.817)"/><path class="ae" d="M165.831,193.776c-3.23,0-5.849,1-5.849,2.226v9.478h.029c.291,1.126,2.784,2.007,5.819,2.007s5.529-.88,5.819-2.007h.029V196c0-1.229-2.619-2.226-5.849-2.226" transform="translate(-44.921 -54.41)"/><path class="aq" d="M159.982,198.521s4.187,3.195,10.322.693l.072,11.552a2.4,2.4,0,0,0,1.3-1.2V195.505l-9.69.421-2.007,1.013Z" transform="translate(-44.921 -54.896)"/><path class="bk" d="M169.013,193.472a16.214,16.214,0,0,0-7.283,0h-2.965l.029,2.295c.286,1.279,3.119,2.284,6.579,2.284s6.292-1,6.578-2.284l.029-2.295Z" transform="translate(-44.579 -54.209)"/><path class="bl" d="M171.978,192.659c0,1.379-2.958,2.5-6.607,2.5s-6.607-1.118-6.607-2.5,2.958-2.5,6.607-2.5,6.607,1.118,6.607,2.5" transform="translate(-44.579 -53.396)"/><path class="bl" d="M159.982,203.5s1.484,1.253,4.929,1.385v4.4s-3.28.38-4.929-1.17Z" transform="translate(-44.921 -57.142)"/><g class="ao" transform="translate(160.356 150.793)"><g class="bm"><path class="x" d="M235.147,213.778l-11.212,6.958s-.635.422-.921.572a.478.478,0,0,1-.052.049l.507.076a3.719,3.719,0,0,0,1.981-.64l14.99-9.527c.657-.417.839-.811.4-.876l-4.851-.725.037,2.658a1.933,1.933,0,0,1-.885,1.455" transform="translate(-222.961 -209.665)"/></g></g><path class="ae" d="M180.412,197.774l29.893,4.319a.88.88,0,0,1,.381.155c.025-.018.05-.035.076-.051l12.055-7.48a.712.712,0,0,1,.675-.113c-.014-.093-.106-.163-.287-.188L193.329,190.1a3.057,3.057,0,0,0-1.7.452l-11.474,7.119c-.258.16-.4.319-.412.444a.6.6,0,0,1,.672-.34" transform="translate(-50.469 -53.375)"/><path class="av" d="M224.313,204.113v13.067l11.212-6.958a1.936,1.936,0,0,0,.885-1.456l-.038-2.658-.13-9.1v0a55.989,55.989,0,0,1-11.932,7.094.08.08,0,0,1,0,.02" transform="translate(-62.984 -55.315)"/><path class="x" d="M234.9,196.462l-12.055,7.48c-.025.017-.051.034-.076.052a.845.845,0,0,1,.177.17,1.63,1.63,0,0,1,.259-.085c.353-.084.645-.3.672-.181a56.1,56.1,0,0,0,11.932-7.094h0a.476.476,0,0,0-.237-.454.71.71,0,0,0-.674.112" transform="translate(-62.551 -55.121)"/><path class="x" d="M223.95,219.935V206.868a.085.085,0,0,0,0-.02c-.027-.121-.319.1-.672.181a1.628,1.628,0,0,0-.259.085.666.666,0,0,1,.151.4v12.642a.5.5,0,0,1-.138.348c.286-.15.921-.572.921-.572" transform="translate(-62.621 -58.071)"/><path class="ax" d="M180.4,214.665l29.893,4.319a.67.67,0,0,0,.519-.127.479.479,0,0,0,.052-.049.5.5,0,0,0,.138-.348V205.819a.661.661,0,0,0-.151-.4.849.849,0,0,0-.177-.17.881.881,0,0,0-.381-.155L180.4,200.772a.6.6,0,0,0-.672.34.512.512,0,0,0-.036.184v12.641a.8.8,0,0,0,.708.729" transform="translate(-50.455 -56.373)"/><path class="bl" d="M204.914,210.759l-19.278-2.776a1.894,1.894,0,0,1-1.578-1.81,1.339,1.339,0,0,1,1.578-1.355l19.278,2.776a1.894,1.894,0,0,1,1.578,1.81,1.339,1.339,0,0,1-1.578,1.355" transform="translate(-51.682 -57.507)"/><path class="t" d="M160.876,158.419a1.331,1.331,0,0,0-1.281-.241l-.017,0c-1.482.385-3.167,2.514-5.008,6.329-.094.124-.518.553-1.115,1.141a6.433,6.433,0,0,0,.337-3.956c-1.352-4.329-2.958-5.885-3.026-5.949l-.092-.087-.145.017a1.393,1.393,0,0,0-.916.6c-.728,1.03-.436,3.014.868,5.9a3.321,3.321,0,0,1-.423,2.934,3.4,3.4,0,0,0,.085-2.177,37.181,37.181,0,0,0-3.178-5.772l-.1-.145-.2.038a1.327,1.327,0,0,0-.82.614,1.9,1.9,0,0,0-.244.61l-.038-.093-.106-.265-.309.148c-2.276,1.091-1.488,3.234-.912,4.8.074.2.147.4.212.589a2.586,2.586,0,0,1-.359,2.547,22.945,22.945,0,0,1-4.181,3.747c-.211.117-1.774,1.384-2.013,1.552-4.523,3.157-1.149,7.7,4.2,6.8,4.85-3.744,12.626-8.273,14.225-11.3l.04-.037,4.641-8.211Z" transform="translate(-38.128 -43.708)"/></g></g></g><g transform="translate(233 1457.049)"><g class="bn"><g class="bn"><g class="ao" transform="translate(4.528 148.42)"><g class="bo"><path class="x" d="M36,224.228c-6.932,4.126-18.021,3.887-24.769-.534s-6.6-11.351.333-15.478,18.021-3.887,24.769.534,6.6,11.351-.333,15.478" transform="translate(-6.263 -205.271)"/></g></g><path class="bp" d="M242.007,78.791c1.076-26.049-15.9-58.481-37.925-72.439-10.484-6.645-20.22-7.9-27.662-4.585A19.323,19.323,0,0,0,174.093,3L81.673,50.95l60.836,102.761,83.821-47.84c9.032-3.155,15.078-12.608,15.676-27.08" transform="translate(-22.62 0)"/><path class="bq" d="M146.642,148.671c-1.116,27.009-20.531,37.172-43.363,22.7s-40.437-48.1-39.321-75.106,20.53-37.172,43.362-22.7,40.438,48.1,39.321,75.106" transform="translate(-17.699 -18.549)"/><path class="br" d="M131.453,153.844c-.955,22.263-16.947,30.667-35.718,18.77s-33.214-39.59-32.259-61.853S80.424,80.094,99.2,91.991s33.212,39.59,32.258,61.853" transform="translate(-17.568 -23.981)"/><path class="br" d="M268.18,77.2c-.955,22.263-16.946,30.667-35.717,18.77S199.249,56.381,200.2,34.117s16.947-30.667,35.718-18.77S269.135,54.937,268.18,77.2" transform="translate(-55.435 -2.754)"/><path class="bs" d="M108.744,89.008c-10.7-6.781-20.507-7.181-27.315-2.335,4.749.268,10.021,2.066,15.527,5.556,19.389,12.289,34.338,40.843,33.391,63.778-.425,10.28-3.978,17.674-9.508,21.611,11.971.672,20.617-8.411,21.3-24.832.948-22.935-14-51.49-33.391-63.778" transform="translate(-22.552 -23.103)"/><path class="bp" d="M97.139,173.3C77.75,161.007,62.8,132.453,63.748,109.518c.425-10.28,3.977-17.674,9.508-21.612-11.971-.672-20.617,8.412-21.3,24.833-.949,22.935,14,51.49,33.39,63.778,10.7,6.781,20.507,7.181,27.315,2.334-4.749-.267-10.021-2.065-15.527-5.555" transform="translate(-14.379 -24.336)"/><g class="bt" transform="translate(91.538 12.316)"><g class="bu"><path class="bv" d="M186.711,31.287,137.826,57.961a7.593,7.593,0,0,1-7.274-13.33l48.885-26.675a7.593,7.593,0,0,1,7.274,13.331" transform="translate(-126.601 -17.034)"/></g></g><path class="bw" d="M125.6,202.856c-7.286,3.462-18.3,2.189-24.61-2.843s-5.51-11.917,1.777-15.379,18.3-2.189,24.61,2.842,5.51,11.918-1.777,15.38" transform="translate(-26.791 -50.595)"/><rect class="bw" width="7.004" height="35.036" transform="translate(69.928 141.661) rotate(-83.41)"/><path class="ae" d="M126.507,194.986c-7.286,3.462-18.3,2.189-24.61-2.843s-5.51-11.918,1.777-15.38,18.3-2.189,24.61,2.843,5.51,11.918-1.777,15.38" transform="translate(-27.042 -48.416)"/><path class="bx" d="M125.355,192.646c-5.33,2.532-13.389,1.6-18-2.079s-4.03-8.717,1.3-11.249,13.388-1.6,18,2.079,4.03,8.716-1.3,11.248" transform="translate(-28.871 -49.268)"/><path class="bw" d="M101.744,215.872c-2.617,7.631-11.23,14.621-19.237,15.612s-12.373-4.39-9.756-12.02,11.23-14.621,19.236-15.613,12.373,4.39,9.757,12.021" transform="translate(-19.939 -56.425)"/><rect class="bw" width="35.036" height="7.004" transform="matrix(0.776, -0.63, 0.63, 0.776, 49.625, 167.252)"/><path class="ae" d="M96.75,209.72c-2.617,7.631-11.23,14.621-19.236,15.612s-12.374-4.39-9.757-12.021,11.23-14.62,19.236-15.612,12.374,4.39,9.757,12.021" transform="translate(-18.555 -54.721)"/><path class="bx" d="M93.773,210.832c-1.915,5.581-8.213,10.693-14.069,11.418s-9.05-3.21-7.136-8.792,8.213-10.693,14.069-11.418,9.05,3.21,7.136,8.792" transform="translate(-19.944 -55.932)"/><path class="bw" d="M96.878,167.652c-7.87-1.771-15.756-9.571-17.613-17.422s3.017-12.779,10.886-11.007,15.756,9.571,17.614,17.421-3.017,12.778-10.887,11.008" transform="translate(-21.843 -38.458)"/><rect class="bw" width="7.004" height="35.035" transform="translate(58.847 103.034) rotate(-45.315)"/><path class="ae" d="M102.45,162.018c-7.87-1.771-15.756-9.57-17.613-17.421s3.017-12.779,10.887-11.008,15.756,9.571,17.613,17.421-3.017,12.779-10.887,11.008" transform="translate(-23.387 -36.898)"/><path class="bx" d="M103.782,158.963c-5.756-1.295-11.524-7-12.882-12.742s2.206-9.346,7.961-8.051,11.525,7,12.883,12.742-2.207,9.346-7.963,8.05" transform="translate(-25.095 -38.194)"/><path class="bw" d="M29.746,222.142c-6.931,4.126-18.02,3.887-24.768-.534s-6.6-11.351.333-15.478,18.02-3.887,24.768.534,6.6,11.351-.333,15.478" transform="translate(-0.004 -56.273)"/><rect class="bw" width="7.004" height="35.035" transform="matrix(0.022, -1, 1, 0.022, 0, 158.01)"/><path class="ae" d="M29.917,214.221c-6.932,4.127-18.021,3.888-24.769-.534s-6.6-11.352.334-15.479,18.02-3.887,24.767.534,6.6,11.352-.333,15.478" transform="translate(-0.051 -54.079)"/><path class="bx" d="M28.459,212.16c-5.07,3.019-13.18,2.844-18.115-.39s-4.826-8.3.244-11.32,13.18-2.844,18.115.39,4.826,8.3-.244,11.32" transform="translate(-1.859 -54.919)"/><path class="by" d="M28.412,209.674l-17.844-.187a1.724,1.724,0,1,1,.036-3.448l17.844.185a1.725,1.725,0,0,1-.036,3.45" transform="translate(-2.454 -57.063)"/><path class="by" d="M91.034,207.474l-13.7,11.431a1.725,1.725,0,0,1-2.21-2.649l13.7-11.431a1.725,1.725,0,1,1,2.21,2.649" transform="translate(-20.634 -56.617)"/><path class="by" d="M126.657,189.634l-17.741-1.724a1.729,1.729,0,0,1-1.549-1.882v0a1.73,1.73,0,0,1,1.884-1.55l17.741,1.724a1.73,1.73,0,0,1,1.549,1.883v0a1.728,1.728,0,0,1-1.883,1.55" transform="translate(-29.733 -51.089)"/><path class="by" d="M107.134,156.679l-9.6-15.021a1.729,1.729,0,0,1,.523-2.381h0a1.73,1.73,0,0,1,2.382.523l9.6,15.022a1.73,1.73,0,0,1-.524,2.381h0a1.73,1.73,0,0,1-2.382-.525" transform="translate(-26.939 -38.498)"/><g class="ao" transform="translate(152.609 163.041)"><g class="bz"><path class="ca" d="M216.482,239.551l.486-.273h0l3.476-1.95,5.5-3.085h0l12.89-7.232c5.212-2.924,11.98-1.5,15.039,3.166s1.3,10.875-3.912,13.8l-12.614,7.076h0l-3.228,1.811-.482.271-1.165.652-4.866,2.731c-5.212,2.924-11.98,1.5-15.039-3.166s-1.3-10.875,3.913-13.8" transform="translate(-211.064 -225.491)"/></g></g><path class="ae" d="M246.732,237.41l-24.147,14.222A12.144,12.144,0,1,1,210.261,230.7l24.146-14.222a12.144,12.144,0,1,1,12.325,20.928" transform="translate(-56.579 -59.493)"/><path class="bp" d="M209.517,235.086l6.659-3.922A12.144,12.144,0,0,1,228.5,252.093l-1.284.756-5.374,3.165a12.144,12.144,0,1,1-12.324-20.928" transform="translate(-56.373 -63.56)"/><path class="br" d="M212.031,233.261l8.632-5.083c5.754-3.39,11.264-.293,14.653,5.462h0c3.39,5.755,3.734,11.895-2.021,15.284l-3.565,2.1-5.374,3.165a12.144,12.144,0,0,1-12.325-20.928" transform="translate(-57.069 -62.806)"/><g class="cb" transform="translate(160.586 161.155)"><g class="cc"><path class="bv" d="M225.749,241.625l25.762-14.11a2.468,2.468,0,0,0-2.371-4.329L223.378,237.3a2.468,2.468,0,1,0,2.371,4.329" transform="translate(-222.097 -222.884)"/></g></g><g class="ao" transform="translate(81.188 186.014)"><g class="cd"><path class="ce" d="M119.416,257.511l22.709-.247a7.229,7.229,0,0,1,7.286,7.129l.033,3.085a7.228,7.228,0,0,1-7.129,7.286l-22.709.247a7.229,7.229,0,0,1-7.286-7.129l-.033-3.086a7.229,7.229,0,0,1,7.129-7.286" transform="translate(-112.286 -257.264)"/></g></g><path class="cf" d="M115.36,255.76l22.709-.247a7.23,7.23,0,0,1,7.286,7.13l.033,3.085a7.229,7.229,0,0,1-7.129,7.287l-22.709.247a7.228,7.228,0,0,1-7.286-7.129l-.033-3.085a7.229,7.229,0,0,1,7.129-7.286" transform="translate(-29.975 -70.765)"/><path class="ae" d="M115.322,247.838l22.709-.247a7.228,7.228,0,0,1,7.285,7.129l.034,3.085a7.229,7.229,0,0,1-7.129,7.286l-22.709.247a7.229,7.229,0,0,1-7.286-7.129l-.034-3.086a7.23,7.23,0,0,1,7.13-7.286" transform="translate(-29.964 -68.572)"/></g></g></g><g transform="translate(1258 1359.248)"><g class="cg"><path class="ch" d="M75.051,29.6s8.18,1.415,8.582,5.5a44.643,44.643,0,0,1,0,7.931L56.324,40.087l1.661-11.319Z" transform="translate(2.871 1.466)"/><path class="ci" d="M39.472,55.928S24.133,80.794,24.68,96.222c0,0,6.142,8.451,8.956.945,6.869-18.316,11.249-34,17.786-40.233s-11.95-1.006-11.95-1.006" transform="translate(1.257 2.746)"/><path class="ch" d="M77.831,245.8l7.053-16.064c1.191-1.384,4.494-2.524,6.958-2.61a3.106,3.106,0,0,1,2.731,2.154l1.052,2.751c1.628,3.936,1.517,4.575-.055,6.4l-9.335,10.844a6.363,6.363,0,0,1-6.757,1.707l-.609-.251c-2.144-.887-2.613-3.107-1.04-4.932" transform="translate(3.92 11.577)"/><path class="cj" d="M95.135,229.9c-.016,3.819-9.546,4.836-9.529,1.016l.05-12.413,9.53-1.016Z" transform="translate(4.363 11.086)"/><path class="ch" d="M36.157,230.819l16.5-9.991a12.363,12.363,0,0,1,7.39.145c1.269.393,1.521-.557,1.394.637l1.11,5.092c1.109,3.414,1.445,3.985-2.452,5.1l-16.3,4.99c-2.745.841-6.585.283-8.535-1.24l-.552-.432c-1.95-1.523-1.3-3.457,1.446-4.3" transform="translate(1.712 11.231)"/><path class="cj" d="M60.472,223.082c-.286,3.93-9.844,3.234-9.559-.7l.93-12.77,9.558.695Z" transform="translate(2.595 10.684)"/><path class="ck" d="M62.341,224.088c-3.917,2.728-10.124,2.666-12.01-.507A628.4,628.4,0,0,1,47.737,103.86l30.3-8.937c-8.188,48.7-17.077,91.793-15.7,129.165" transform="translate(2.347 4.838)"/><path class="ck" d="M97.148,227.97c-2.7,4.673-9.489,5.434-11.71,2.51L62.985,101.214,94.878,98.8Z" transform="translate(3.21 5.036)"/><path class="cl" d="M71.215,144.808,66.574,157.24l-4.847-36.474c1.473.452,1.5-1.367,3.151-1.072Z" transform="translate(3.146 6.099)"/><path class="cm" d="M86.746,69.642c7.125,8.433,10.648,12.529,16.242,24.086,3.658,7.564,2.051,14.1-1.108,18.215-4.317,5.627-9.282,11.964-9.282,11.964l5.538,5.035s20.149-17.252,16.935-33.087L103.182,58.363Z" transform="translate(4.422 2.975)"/><path class="cm" d="M97.452,122.175l-.9-.845a4.366,4.366,0,0,0-6.117.49l-3.526,3.735a4.36,4.36,0,0,0-.125,6.134l.9.845a4.367,4.367,0,0,0,6.118-.49l3.526-3.735a4.361,4.361,0,0,0,.127-6.135" transform="translate(4.362 6.132)"/><path class="cn" d="M47.91,36.009C38.414,51.232,29.3,66.55,28.272,76.956c2.494,8.707,4.9,3.872,10.987,6.027L57.476,51.014l-4.988-8.366Z" transform="translate(1.441 1.835)"/><path class="cn" d="M46.185,109.191c-.471-15.061-.875-29.038-3.7-47.733-.811-25.983,8.705-35.906,25.261-30.446l6.82,1.586c20.088,10.025,30.106,9.177,27.225,30.2l-2.028,45.941c.738,23.594-53.965,28.232-53.573.455" transform="translate(2.163 1.507)"/><path class="ch" d="M86.746,67.566l9.622,35.1L97.5,106.08l.72-17.087Z" transform="translate(4.422 3.444)"/><path class="cn" d="M85.259,64.826l18.577,35.243c1.468,2.128,12.271-1.205,12.143-4.961-.268-7.858-12.585-48.657-24.316-53.752-9.529-4.139-11.991,10.881-6.4,23.469" transform="translate(4.195 2.072)"/><path class="cn" d="M103.493,93.434s-2.767,2.034-1.37,4.908,15.714,1.048,14.667-3.565-1.888-6.6-13.3-1.343" transform="translate(5.185 4.603)"/><path class="cn" d="M36.541,83.363A4.056,4.056,0,0,0,41.4,80.208q.006-.047.016-.095c.534-3.152-12.174-9.986-14-5.624-1.716,4.1-1.183,6.633,9.126,8.873" transform="translate(1.359 3.725)"/><path class="co" d="M82.115,36.517s1.237,7.084-8.987,13.267c-5.274,3.19-7.811,8.436-9.032,12.769-.714,2.531-2.21,1.314-2.547-1.331-.875-6.881-1.159-8.875-2.71-13.948-2.512-8.2.785-20.5,1.232-20.6s22.044,9.84,22.044,9.84" transform="translate(2.951 1.36)"/><path class="ch" d="M59.966,66.417a1.724,1.724,0,1,0,1.725-1.725,1.723,1.723,0,0,0-1.725,1.725" transform="translate(3.057 3.297)"/><path class="ch" d="M60.207,72.729a1.724,1.724,0,1,0,1.724-1.724,1.723,1.723,0,0,0-1.724,1.724" transform="translate(3.069 3.619)"/><path class="ch" d="M67.885,31.526s-9.859,3.3-7.44,12.593l.392,11.04s-7.869-12.4-4.472-24.169,11.52.536,11.52.536" transform="translate(2.83 1.32)"/><path class="ch" d="M63.118,33.148s2.245,2.712,3.5,3.156,16.7-8.935,13.357-22.231c-2.117-8.421-18.06-4.193-18.06-4.193Z" transform="translate(3.156 0.449)"/><path class="cm" d="M71.988,44.033l-.767.215a4.911,4.911,0,0,1-6.037-3.389L61.079,26.243a4.91,4.91,0,0,1,3.389-6.037l.768-.215a4.908,4.908,0,0,1,6.036,3.389l6.009,13.465c.728,2.592-2.7,6.459-5.294,7.188" transform="translate(3.104 1.01)"/><path class="cp" d="M63.179,33.784a13.4,13.4,0,0,0,9.927-7.107s-3.032,9.776-8.78,11.194Z" transform="translate(3.22 1.36)"/><path class="ch" d="M76.568,29.926s7.1,8.458-5.434,15.418c0,0-4.808,5.18-4.8,10.76,0,0,4.183-3.441,6.607-5.316S93.52,37.147,76.568,29.926" transform="translate(3.381 1.525)"/><path class="cm" d="M66.559,28.619c-2.431,6.887-7.758,8.546-11.9,3.707s-5.528-14.345-3.1-21.231,7.759-8.546,11.9-3.708,5.528,14.346,3.1,21.232" transform="translate(2.567 0.235)"/><path class="cm" d="M73.919,26.9c-2.431,6.887-14.126,11.481-18.268,6.642s-1.5-16.855.934-23.742,7.759-8.545,11.9-3.706S76.35,20.018,73.919,26.9" transform="translate(2.726 0.169)"/><path class="ch" d="M65.311,10.746s-1.08,13.5,9.677,16.159c0,0,11.787-7.345,2.527-20-8.162-11.152-20.34-2.049-20.34-2.049Z" transform="translate(2.914 0.069)"/><path class="ch" d="M50.47,19.976s1.232-5.813,8.161-8.486L52.99,8.375s-5.608,1.481-2.52,11.6" transform="translate(2.525 0.427)"/><path class="ch" d="M71.661,18.529c-2.444-3.067-7.439-2.865-14.457-.065a6.283,6.283,0,0,1-3.362.455c-5.319-.912-6.337-7.437-6.337-7.437-1.287-4.342,1.545-6.418,5.886-7.706L64.7.421c6.4-1.934,12.828,3.16,14.116,7.5l.324.71c1.287,4.342-3.135,8.607-7.477,9.895" transform="translate(2.405 0)"/><path class="cm" d="M75.552,25.441a3.215,3.215,0,1,1-1.961-4.1,3.214,3.214,0,0,1,1.961,4.1" transform="translate(3.533 1.078)"/><path class="cl" d="M93.654,136.845s-7.891-13.859-8.005-15.271c0,0-3,7.234,0,11.252a10.79,10.79,0,0,0,8.005,4.019" transform="translate(4.298 6.197)"/><path class="cj" d="M62.049,95.133,57.868,93.66l-.491-.493-.315-.559L25.57,76.231a1.613,1.613,0,0,0-1.4.055L12.15,83.337l-.022-.2-2.267.907.1.935H9.98a.527.527,0,0,0,.251.243L43,102.267a.182.182,0,0,1,.086.127c.685,2.509,1.828,4.756,3.968,3.451L60.373,98a3.2,3.2,0,0,0,1.676-2.865" transform="translate(0.503 3.879)"/><path class="be" d="M44.517,104.938,6.778,85.313c-.437-.227-.428-.627.019-.89l16.038-9.4a1.854,1.854,0,0,1,1.607-.064L62.181,94.58c.437.227.429.627-.019.889l-16.038,9.4a1.854,1.854,0,0,1-1.607.064" transform="translate(0.329 3.813)"/><path class="cj" d="M44.124,91.8l-9.133-4.749c-.106-.055-.1-.151,0-.215l3.881-2.276a.448.448,0,0,1,.389-.014L48.4,89.3c.106.056.105.151,0,.216l-3.881,2.274a.448.448,0,0,1-.389.016" transform="translate(1.78 4.308)"/><path class="ae" d="M41.526,83.515a4.277,4.277,0,0,0-1.9-2.367L2.194,61.97a.955.955,0,0,0-.795-.12h0l-.005,0a.427.427,0,0,0-.168.135L.181,63.161l1.054-.09L6.852,83.808a4.284,4.284,0,0,0,1.9,2.368l35.4,18.134,1.205,1.158.165.285c.692.139,2.191-.957,2.191-.957Z" transform="translate(0.009 3.15)"/><path class="cq" d="M45.076,106.545,7.641,87.366A4.273,4.273,0,0,1,5.744,85L.065,64.032c-.243-.894.214-1.284,1.02-.872L38.52,82.339a4.278,4.278,0,0,1,1.9,2.367L46.1,105.673c.242.894-.214,1.285-1.02.872" transform="translate(0 3.211)"/><path class="ae" d="M23.194,85.31c.3,1.114-.729,1.363-2.3.557a7.139,7.139,0,0,1-3.4-3.477c-.3-1.114.729-1.363,2.3-.557a7.137,7.137,0,0,1,3.395,3.477" transform="translate(0.889 4.147)"/><path class="cm" d="M20.428,96.9l4.967,3.128a3.871,3.871,0,1,0,4.126-6.551l-4.966-3.129A3.872,3.872,0,1,0,20.428,96.9" transform="translate(0.949 4.575)"/></g></g></g></svg>