<?xml version="1.0" encoding="utf-8"?>
<!-- Generator: Adobe Illustrator 21.0.2, SVG Export Plug-In . SVG Version: 6.00 Build 0)  -->
<svg version="1.1" id="Livello_1" xmlns="http://www.w3.org/2000/svg" xmlns:xlink="http://www.w3.org/1999/xlink" x="0px" y="0px"
	 viewBox="0 0 629 500.4" style="enable-background:new 0 0 629 500.4;" xml:space="preserve">
<style type="text/css">
	.st0{opacity:0.3;}
	.st1{fill:#E2E2E2;}
	.st2{fill:#73D7FF;}
	.st3{opacity:0.32;}
	.st4{fill:#003575;}
	.st5{fill:#BFDEFF;}
	.st6{fill:#FFFFFF;}
	.st7{fill:none;stroke:#295082;stroke-width:2;stroke-miterlimit:10;}
</style>
<g class="st0">
	<g>
		<g>
			<g>
				<path class="st1" d="M6.1,484.6c0-169.7,137.5-307.2,307.2-307.2s307.2,137.5,307.2,307.2"/>
			</g>
		</g>
	</g>
</g>
<g class="st0">
	<g>
		<g>
			<g>
				<path class="st2" d="M44.9,484.6c0-145,120.2-262.5,268.4-262.5s268.4,117.5,268.4,262.5"/>
			</g>
		</g>
	</g>
</g>
<g class="st3">
	<g>
		<g>
			<g>
				<path class="st2" d="M99.3,484.6c0-119.8,96.3-216.9,215.2-216.9s215.2,97.1,215.2,216.9"/>
			</g>
		</g>
	</g>
</g>
<g>
	<g>
		<g>
			<g>
				<path class="st4" d="M618.7,490.5H7.8c-1,0-1.8-0.8-1.8-1.8v-2.4c0-1,0.8-1.8,1.8-1.8h610.9c1,0,1.8,0.8,1.8,1.8v2.4
					C620.4,489.7,619.6,490.5,618.7,490.5z"/>
			</g>
		</g>
	</g>
</g>
<g>
	<g>
		<g>
			<g>
				<g>
					<g>
						<path class="st5" d="M400.6,109.5l-4.9-8.5H383V68.9h70.5V101h-48L400.6,109.5z M386.4,97.6h11.2l3,5.1l3-5.1h46.6V72.3h-63.7
							V97.6z"/>
					</g>
				</g>
			</g>
		</g>
	</g>
	<g>
		<g>
			<g>
				<g>
					<g>
						<path class="st5" d="M397.5,83.4H383V68.9h14.5V83.4z M386.4,80h7.7v-7.7h-7.7V80z"/>
					</g>
				</g>
			</g>
		</g>
	</g>
	<g>
		<g>
			<g>
				<g>
					<g>
						<rect x="403.5" y="77" class="st5" width="34.9" height="3.4"/>
					</g>
				</g>
			</g>
		</g>
	</g>
	<g>
		<g>
			<g>
				<g>
					<g>
						<rect x="403.5" y="82.3" class="st5" width="34.9" height="3.4"/>
					</g>
				</g>
			</g>
		</g>
	</g>
	<g>
		<g>
			<g>
				<g>
					<g>
						<rect x="403.5" y="87.7" class="st5" width="34.9" height="3.4"/>
					</g>
				</g>
			</g>
		</g>
	</g>
</g>
<g>
	<g>
		<g>
			<g>
				<g>
					<g>
						<path class="st5" d="M334.6,56l-1-0.1c-2.6-0.3-5.2-1-7.6-2.2l-1-0.5l0.2-4.1l-4,1.3l-0.7-0.7c-1.8-1.8-3.3-3.9-4.3-6.3
							l-0.5-1l3.1-3.4l-4.5-1.9l-0.1-1c0-0.5-0.1-1.1-0.1-1.6c0-1.9,0.3-3.8,0.8-5.6l0.3-1.1l5.2-0.6l-2.5-4.8l0.6-0.9
							c1.4-1.9,3.2-3.5,5.1-4.8l0.9-0.6l4.7,3l1.2-5.4l1.1-0.2c2.3-0.4,4.6-0.5,7-0.2l1.1,0.1l1.6,5.2l4.2-3.2l1,0.6
							c2.1,1.2,4,2.8,5.6,4.6l0.7,0.8l-1.9,4.6l4.8,0.2l0.4,1.1c0.9,2.4,1.3,4.8,1.3,7.4l0,1.1l-0.9,0.5l-3,1.5l3.1,2.8l-0.4,1
							c-0.9,2.5-2.1,4.8-3.8,6.8l-0.7,0.8l-3.8-0.9l0.5,3.8l-0.9,0.6c-2.3,1.5-4.7,2.5-7.4,3l-1,0.2l-2.3-3L334.6,56z M328.6,51.2
							c1.4,0.6,2.9,1,4.4,1.3l3.5-5.6l3.9,5.2c1.5-0.4,2.9-1,4.3-1.7l-0.9-6.5l6.5,1.5c0.9-1.2,1.6-2.5,2.2-3.9l-5-4.6l6.4-3.3
							c-0.1-1.4-0.3-2.8-0.7-4.2l-7.4-0.3l3-7.1c-0.9-1-1.9-1.8-3-2.5l-6.3,4.8l-2.4-7.8c-1.3-0.1-2.5-0.1-3.8,0.1l-1.8,8l-6.8-4.4
							c-1,0.8-1.9,1.6-2.8,2.6l3.7,7.1l-7.7,1c-0.3,1.2-0.4,2.4-0.4,3.7c0,0.1,0,0.2,0,0.3l7,2.9l-4.9,5.3c0.7,1.3,1.5,2.5,2.5,3.5
							l6.7-2.1L328.6,51.2z"/>
					</g>
				</g>
			</g>
		</g>
	</g>
	<g>
		<g>
			<g>
				<g>
					<g>
						<path class="st5" d="M335.8,41.6c-4,0-7.2-3.2-7.2-7.2s3.2-7.2,7.2-7.2s7.2,3.2,7.2,7.2S339.7,41.6,335.8,41.6z M335.8,30.7
							c-2.1,0-3.8,1.7-3.8,3.8c0,2.1,1.7,3.8,3.8,3.8s3.8-1.7,3.8-3.8C339.5,32.4,337.8,30.7,335.8,30.7z"/>
					</g>
				</g>
			</g>
		</g>
	</g>
</g>
<g>
	<g>
		<g>
			<g>
				<g>
					<g>
						<g>
							<g>
								<g>
									<g>
										<g>
											<path class="st4" d="M317.6,137.9h-11.1c-0.9,0-1.7-0.8-1.7-1.7c0-0.9,0.8-1.7,1.7-1.7h11.1c0.9,0,1.7,0.8,1.7,1.7
												C319.3,137.1,318.6,137.9,317.6,137.9z"/>
										</g>
									</g>
								</g>
							</g>
						</g>
					</g>
				</g>
			</g>
		</g>
		<g>
			<g>
				<g>
					<g>
						<g>
							<g>
								<g>
									<g>
										<g>
											<path class="st4" d="M312.1,143.5c-0.9,0-1.7-0.8-1.7-1.7v-11.1c0-0.9,0.8-1.7,1.7-1.7c0.9,0,1.7,0.8,1.7,1.7v11.1
												C313.7,142.7,313,143.5,312.1,143.5z"/>
										</g>
									</g>
								</g>
							</g>
						</g>
					</g>
				</g>
			</g>
		</g>
	</g>
</g>
<g>
	<g>
		<g>
			<g>
				<g>
					<g>
						<g>
							<g>
								<g>
									<g>
										<g>
											<path class="st4" d="M546.6,336.6h-11.1c-0.9,0-1.7-0.8-1.7-1.7c0-0.9,0.8-1.7,1.7-1.7h11.1c0.9,0,1.7,0.8,1.7,1.7
												C548.3,335.9,547.6,336.6,546.6,336.6z"/>
										</g>
									</g>
								</g>
							</g>
						</g>
					</g>
				</g>
			</g>
		</g>
		<g>
			<g>
				<g>
					<g>
						<g>
							<g>
								<g>
									<g>
										<g>
											<path class="st4" d="M541.1,342.2c-0.9,0-1.7-0.8-1.7-1.7v-11.1c0-0.9,0.8-1.7,1.7-1.7c0.9,0,1.7,0.8,1.7,1.7v11.1
												C542.7,341.4,542,342.2,541.1,342.2z"/>
										</g>
									</g>
								</g>
							</g>
						</g>
					</g>
				</g>
			</g>
		</g>
	</g>
</g>
<g>
	<g>
		<g>
			<g>
				<g>
					<path class="st6" d="M148.5,293.8c-6.1,0-11.1-5-11.1-11.1s5-11.1,11.1-11.1c6.1,0,11.1,5,11.1,11.1S154.6,293.8,148.5,293.8z"
						/>
				</g>
			</g>
		</g>
	</g>
	<g>
		<g>
			<g>
				<g>
					<path class="st4" d="M148.5,273.1c5.3,0,9.6,4.3,9.6,9.6s-4.3,9.6-9.6,9.6s-9.6-4.3-9.6-9.6S143.2,273.1,148.5,273.1
						 M148.5,270.1c-7,0-12.6,5.6-12.6,12.6s5.6,12.6,12.6,12.6s12.6-5.6,12.6-12.6S155.5,270.1,148.5,270.1L148.5,270.1z"/>
				</g>
			</g>
		</g>
	</g>
</g>
<g>
	<g>
		<g>
			<g>
				<g>
					<path class="st6" d="M453.1,357.1c-6.1,0-11.1-5-11.1-11.1s5-11.1,11.1-11.1c6.1,0,11.1,5,11.1,11.1S459.3,357.1,453.1,357.1z"
						/>
				</g>
			</g>
		</g>
	</g>
	<g>
		<g>
			<g>
				<g>
					<path class="st4" d="M453.1,336.4c5.3,0,9.6,4.3,9.6,9.6s-4.3,9.6-9.6,9.6s-9.6-4.3-9.6-9.6S447.8,336.4,453.1,336.4
						 M453.1,333.4c-7,0-12.6,5.6-12.6,12.6c0,7,5.6,12.6,12.6,12.6c7,0,12.6-5.6,12.6-12.6C465.7,339.1,460.1,333.4,453.1,333.4
						L453.1,333.4z"/>
				</g>
			</g>
		</g>
	</g>
</g>
<g>
	<g>
		<g>
			<g>
				<g>
					<path class="st6" d="M157.7,434c-6.1,0-11.1-5-11.1-11.1s5-11.1,11.1-11.1c6.1,0,11.1,5,11.1,11.1S163.8,434,157.7,434z"/>
				</g>
			</g>
		</g>
	</g>
	<g>
		<g>
			<g>
				<g>
					<path class="st4" d="M157.7,413.3c5.3,0,9.6,4.3,9.6,9.6s-4.3,9.6-9.6,9.6s-9.6-4.3-9.6-9.6S152.4,413.3,157.7,413.3
						 M157.7,410.3c-7,0-12.6,5.6-12.6,12.6s5.6,12.6,12.6,12.6s12.6-5.6,12.6-12.6S164.6,410.3,157.7,410.3L157.7,410.3z"/>
				</g>
			</g>
		</g>
	</g>
</g>
<g>
	<g>
		<g>
			<g>
				<g>
					<path class="st5" d="M192.1,95.8c-5.1,0-9.3-4.2-9.3-9.3s4.2-9.3,9.3-9.3c5.1,0,9.3,4.2,9.3,9.3S197.2,95.8,192.1,95.8z
						 M192.1,80.6c-3.3,0-5.9,2.7-5.9,5.9s2.7,5.9,5.9,5.9s5.9-2.7,5.9-5.9S195.3,80.6,192.1,80.6z"/>
				</g>
			</g>
		</g>
	</g>
</g>
<g>
	<g>
		<g>
			<g>
				<g>
					<path class="st5" d="M39.9,296.2c-5.1,0-9.3-4.2-9.3-9.3s4.2-9.3,9.3-9.3s9.3,4.2,9.3,9.3S45,296.2,39.9,296.2z M39.9,281
						c-3.3,0-5.9,2.7-5.9,5.9s2.7,5.9,5.9,5.9s5.9-2.7,5.9-5.9S43.2,281,39.9,281z"/>
				</g>
			</g>
		</g>
	</g>
</g>
<g>
	<g>
		<g>
			<g>
				<g>
					<g>
						<g>
							<g>
								<g>
									<g>
										<g>
											<path class="st4" d="M116.5,144.1h-11.1c-0.9,0-1.7-0.8-1.7-1.7c0-0.9,0.8-1.7,1.7-1.7h11.1c0.9,0,1.7,0.8,1.7,1.7
												C118.2,143.3,117.4,144.1,116.5,144.1z"/>
										</g>
									</g>
								</g>
							</g>
						</g>
					</g>
				</g>
			</g>
		</g>
		<g>
			<g>
				<g>
					<g>
						<g>
							<g>
								<g>
									<g>
										<g>
											<path class="st4" d="M110.9,149.6c-0.9,0-1.7-0.8-1.7-1.7v-11.1c0-0.9,0.8-1.7,1.7-1.7c0.9,0,1.7,0.8,1.7,1.7V148
												C112.6,148.9,111.8,149.6,110.9,149.6z"/>
										</g>
									</g>
								</g>
							</g>
						</g>
					</g>
				</g>
			</g>
		</g>
	</g>
</g>
<g>
	<g>
		<g>
			<g>
				<path class="st7" d="M275.2,323.5"/>
			</g>
		</g>
	</g>
</g>
<g>
	<g>
		<g>
			<g>
				<path class="st7" d="M302.6,376.4"/>
			</g>
		</g>
	</g>
</g>
<g>
	<g>
		<g>
			<g>
				<g>
					<path class="st6" d="M528.5,215.1c-6.1,0-11.1-5-11.1-11.1c0-6.1,5-11.1,11.1-11.1c6.1,0,11.1,5,11.1,11.1
						C539.6,210.1,534.6,215.1,528.5,215.1z"/>
				</g>
			</g>
		</g>
	</g>
	<g>
		<g>
			<g>
				<g>
					<path class="st4" d="M528.4,194.3c5.3,0,9.6,4.3,9.6,9.6s-4.3,9.6-9.6,9.6s-9.6-4.3-9.6-9.6S523.2,194.3,528.4,194.3
						 M528.4,191.3c-7,0-12.6,5.6-12.6,12.6s5.6,12.6,12.6,12.6s12.6-5.6,12.6-12.6S535.4,191.3,528.4,191.3L528.4,191.3z"/>
				</g>
			</g>
		</g>
	</g>
</g>
<g>
	<g>
		<g id="XMLID_1_">
			<g>
				<g>
					<path class="st6" d="M361.4,295.6v23.6c0,30.6-24.9,55.5-55.5,55.5s-55.4-24.9-55.4-55.5v-23.6c0-8.4,1.1-16.2,3.3-23.2
						c16.7,10.4,35.1,15.9,53.8,15.9c2.4,0,4.7-0.1,7.1-0.3c0.5,0,0.8-0.2,1.2-0.3c0.1,0,0.1,0,0.1,0v-0.1c0.5-0.2,0.8-0.5,1.1-0.8
						c0.1-0.1,0.2-0.3,0.3-0.5c0.1-0.2,0.3-0.4,0.3-0.7c0.2-0.4,0.2-0.8,0.2-1.4c0-0.1-0.1-0.2-0.1-0.4c-0.1-0.3-0.1-0.6-0.3-0.9
						l-7.9-15.8c10.2,4,21.3,7.2,31.8,7.2c5.6,0,11.1-1,16.2-3.2C360.1,278.5,361.4,286.6,361.4,295.6z"/>
				</g>
				<g>
					<path class="st6" d="M326.1,378.3v23.4c0,3.2-2.6,5.6-6.4,7.3c-3.8,1.7-8.8,2.5-13.7,2.5c-9.7,0-20-3.4-20-9.8v-23.4
						c6.2,2.1,12.9,3.3,19.9,3.3C313,381.7,319.8,380.4,326.1,378.3z"/>
				</g>
				<g>
					<path class="st6" d="M305.1,216.6c36.4,0,73.2,19.5,73.2,63c0,13.7-3.8,25.7-9.9,37.9v-22c0-11.4-1.9-21.7-5.4-30.7
						c-0.5-1.1-1.4-1.7-2.4-2c-0.1,0-0.2-0.1-0.2-0.1c-0.3-0.1-0.6-0.1-1-0.1c-0.2,0-0.4,0.1-0.6,0.1s-0.3,0-0.5,0.1
						c-0.1,0.1-0.1,0.1-0.2,0.2s-0.2,0.1-0.3,0.1c-11.8,7.1-28.6,5.1-54.2-6.2c-0.1-0.1-0.1,0-0.2-0.1c-0.2-0.1-0.5-0.1-0.7-0.2
						c-0.2,0-0.4-0.1-0.6-0.1s-0.4,0.1-0.6,0.1c-0.2,0.1-0.5,0.1-0.7,0.2c-0.1,0.1-0.1,0.1-0.2,0.1c-0.1,0.1-0.2,0.2-0.3,0.3
						c-0.2,0.2-0.4,0.3-0.6,0.5c-0.2,0.2-0.3,0.4-0.5,0.6c-0.1,0.1-0.2,0.2-0.3,0.4c0,0.1,0,0.1,0,0.2c-0.1,0.2-0.1,0.5-0.2,0.7
						c-0.1,0.2-0.1,0.5-0.1,0.6c0.1,0.2,0.1,0.5,0.1,0.7c0.1,0.2,0.1,0.5,0.2,0.7c0,0.1,0,0.1,0.1,0.2l9.7,19.3
						c-19.2,0.3-38.1-5.5-55-17c-0.1-0.1-0.2-0.1-0.4-0.2c-0.1-0.1-0.2-0.2-0.3-0.2c-0.1,0-0.2,0-0.3-0.1c-0.2-0.1-0.5-0.1-0.7-0.1
						c-0.2,0-0.5,0-0.7,0c-0.2,0.1-0.4,0.1-0.6,0.2c-0.2,0.1-0.5,0.1-0.6,0.2c-0.2,0.1-0.4,0.2-0.6,0.4c-0.2,0.2-0.3,0.3-0.5,0.5
						c-0.1,0.1-0.2,0.1-0.2,0.2c-0.1,0.2-0.1,0.3-0.1,0.4s-0.2,0.2-0.2,0.3c-3.4,8.8-5.1,18.9-5.1,29.8v21.1
						c-6.1-12.7-9.9-24.6-9.9-37.1C233.6,241.3,261.7,216.6,305.1,216.6z"/>
				</g>
				<g>
					<path class="st4" d="M319.7,409c3.8-1.6,6.4-4.1,6.4-7.3v-23.4c-6.3,2.1-13.1,3.4-20.1,3.4c-7,0-13.7-1.2-19.9-3.3v23.4
						c0,6.4,10.3,9.8,20,9.8C310.9,411.5,315.9,410.7,319.7,409z M361.4,319.2v-23.6c0-9-1.3-17.1-3.7-24.4
						c-5.1,2.2-10.6,3.2-16.2,3.2c-10.5,0-21.6-3.2-31.8-7.2l7.9,15.8c0.2,0.3,0.2,0.6,0.3,0.9c0,0.2,0.1,0.3,0.1,0.4
						c0.1,0.5,0,1-0.2,1.4c-0.1,0.3-0.2,0.5-0.3,0.7c-0.1,0.2-0.2,0.4-0.3,0.5c-0.3,0.4-0.7,0.7-1.1,0.8v0.1c0,0,0,0-0.1,0
						c-0.4,0.2-0.8,0.3-1.2,0.3c-2.4,0.2-4.7,0.3-7.1,0.3c-18.7,0-37.1-5.5-53.8-15.9c-2.1,7-3.3,14.8-3.3,23.2v23.6
						c0,30.6,24.8,55.5,55.4,55.5S361.4,349.7,361.4,319.2z M396.6,445.3c-1.4-11.1-9-20.5-19.8-24.2l-44.6-14.9
						c-3.2,8.3-15.1,12.2-26.2,12.2c-6.7,0-13-1.3-17.7-3.7c-4.2-2.1-7-5.1-8.4-8.6l-44.8,14.9c-10.8,3.6-18.4,13.1-19.8,24.2H396.6
						z M368.5,317.5c6.1-12.3,9.9-24.3,9.9-37.9c0-43.5-36.8-63-73.2-63c-43.4,0-71.5,24.7-71.5,63c0,12.5,3.8,24.4,9.9,37.1v-21.1
						c0-11,1.7-21,5.1-29.8c0.1-0.1,0.2-0.2,0.2-0.3s0.1-0.2,0.1-0.4c0.1-0.1,0.2-0.1,0.2-0.2c0.2-0.2,0.3-0.3,0.5-0.5
						c0.2-0.2,0.3-0.3,0.6-0.4c0.2-0.1,0.4-0.2,0.6-0.2c0.2-0.1,0.4-0.1,0.6-0.2c0.2,0,0.5,0,0.7,0c0.2,0.1,0.5,0.1,0.7,0.1
						c0.1,0.1,0.2,0.1,0.3,0.1c0.2,0.1,0.2,0.2,0.3,0.2c0.2,0.1,0.3,0.1,0.4,0.2c16.9,11.5,35.8,17.3,55,17l-9.7-19.3
						c-0.1-0.1-0.1-0.1-0.1-0.2c-0.1-0.2-0.2-0.5-0.2-0.7c0-0.2-0.1-0.5-0.1-0.7c0-0.2,0.1-0.4,0.1-0.6c0.1-0.2,0.1-0.5,0.2-0.7
						c0-0.1,0-0.1,0-0.2c0.1-0.2,0.2-0.3,0.3-0.4c0.1-0.2,0.3-0.4,0.5-0.6c0.2-0.2,0.3-0.3,0.6-0.5c0.1-0.1,0.2-0.2,0.3-0.3
						c0.1,0,0.1,0,0.2-0.1c0.2-0.1,0.5-0.1,0.7-0.2c0.2-0.1,0.4-0.1,0.6-0.1s0.4,0.1,0.6,0.1c0.3,0.1,0.5,0.1,0.7,0.2
						c0.1,0.1,0.1,0,0.2,0.1c25.6,11.3,42.4,13.3,54.2,6.2c0.1-0.1,0.2-0.1,0.3-0.1s0.2-0.1,0.2-0.2c0.2-0.1,0.3,0,0.5-0.1
						s0.3-0.1,0.6-0.1c0.3,0,0.6,0,1,0.1c0.1,0,0.2,0.1,0.2,0.1c1,0.3,2,1,2.4,2c3.5,9,5.4,19.3,5.4,30.7V317.5z M385.4,279.6
						c0,20.8-7.7,37.7-19.3,56.6c-4.9,17.3-17.1,31.5-32.9,39.2v23.8l46,15.3c14.8,5,24.7,18.7,24.7,34.3c0,0.9-0.3,1.9-1,2.5
						c-0.7,0.7-1.6,1.1-2.5,1.1H211.7c-1.9,0-3.5-1.6-3.5-3.5c-0.1-15.7,9.9-29.4,24.7-34.4l46.1-15.3v-23.8
						c-16-7.7-28.2-22-33.1-39.3c-11.6-20-19.3-37.4-19.3-56.5c0-41.9,31.6-70,78.5-70C353.2,209.6,385.4,237.7,385.4,279.6z"/>
				</g>
			</g>
		</g>
	</g>
	<g>
		<g>
			<path class="st2" d="M215.4,445.3c1.3-11.1,8.9-20.6,19.7-24.2l44.8-14.9c1.3,3.5,4.1,6.4,8.4,8.6c4.7,2.4,11.1,3.7,17.8,3.7
				c11.2,0,23-3.9,26.2-12.2l44.6,14.9c10.8,3.6,18.4,13.1,19.7,24.2H215.4z"/>
		</g>
	</g>
</g>
<g>
	<g>
		<g>
			<g>
				<rect x="69.4" y="192.2" class="st2" width="59.8" height="35.1"/>
			</g>
		</g>
	</g>
	<g>
		<g>
			<g>
				<rect x="69.4" y="227.4" class="st6" width="59.8" height="11.7"/>
			</g>
		</g>
	</g>
	<g>
		<g>
			<g>
				<rect x="90.5" y="241.3" class="st6" width="17.9" height="11"/>
			</g>
		</g>
	</g>
	<g>
		<g>
			<g>
				<g>
					<g>
						<path class="st4" d="M83,254c-0.8,0-1.4-0.6-1.4-1.4c0-0.8,0.6-1.4,1.4-1.4h3.5c0.1,0,0.3-0.1,0.4-0.1
							c0.9-0.7,2.9-2.9,2.9-8.7c0-0.4-0.3-0.7-0.7-0.7H72.3c-2.7,0-4.9-2.2-4.9-4.9v-41.8c0-2.7,2.2-4.9,4.9-4.9h54
							c2.7,0,4.9,2.2,4.9,4.9v41.8c0,2.7-2.2,4.9-4.9,4.9h-16.8c-0.4,0-0.7,0.3-0.7,0.7c0,5.8,2,8,2.8,8.7c0.1,0.1,0.3,0.1,0.4,0.1
							h3.5c0.8,0,1.4,0.6,1.4,1.4c0,0.8-0.6,1.4-1.4,1.4H83z M93.2,241.8c-0.4,0-0.7,0.3-0.7,0.7c0,3.1-0.5,5.8-1.6,7.8
							c-0.1,0.2-0.1,0.5,0,0.6c0.1,0.2,0.3,0.3,0.6,0.3H107c0.2,0,0.4-0.1,0.6-0.3c0.1-0.2,0.1-0.4,0-0.6c-1-2.1-1.6-4.7-1.6-7.8
							c0-0.4-0.3-0.7-0.7-0.7H93.2z M70.8,229.6c-0.4,0-0.7,0.3-0.7,0.7v6.7c0,1.2,1,2.2,2.1,2.2h54c1.2,0,2.2-1,2.2-2.2v-6.7
							c0-0.4-0.3-0.7-0.7-0.7H70.8z M72.3,193c-1.2,0-2.1,1-2.1,2.2v31.1c0,0.4,0.3,0.7,0.7,0.7h57c0.4,0,0.7-0.3,0.7-0.7v-31.1
							c0-1.2-1-2.2-2.2-2.2H72.3z"/>
					</g>
				</g>
			</g>
		</g>
		<g>
			<g>
				<g>
					<g>
						<rect x="75.6" y="200.4" class="st4" width="2.7" height="2.7"/>
					</g>
				</g>
			</g>
		</g>
		<g>
			<g>
				<g>
					<g>
						<rect x="75.6" y="208.5" class="st4" width="2.7" height="2.7"/>
					</g>
				</g>
			</g>
		</g>
		<g>
			<g>
				<g>
					<g>
						<rect x="75.6" y="216.7" class="st4" width="2.7" height="2.7"/>
					</g>
				</g>
			</g>
		</g>
		<g>
			<g>
				<g>
					<g>
						<rect x="83.7" y="200.4" class="st4" width="2.7" height="2.7"/>
					</g>
				</g>
			</g>
		</g>
		<g>
			<g>
				<g>
					<g>
						<rect x="83.7" y="208.5" class="st4" width="2.7" height="2.7"/>
					</g>
				</g>
			</g>
		</g>
		<g>
			<g>
				<g>
					<g>
						<rect x="83.7" y="216.7" class="st4" width="2.7" height="2.7"/>
					</g>
				</g>
			</g>
		</g>
	</g>
</g>
<g>
	<rect x="399.1" y="160.3" class="st6" width="40.4" height="47"/>
</g>
<g>
	<g>
		<g>
			<polygon class="st6" points="243.8,161.2 237.6,161.2 236.8,169.3 227,161.2 209.5,161.2 209.5,137.2 243.8,137.2 			"/>
		</g>
	</g>
	<g>
		<g>
			<polygon class="st2" points="191.8,142.1 198,142.1 199.3,149.3 209.2,143.1 209.2,136.8 226.1,136.8 226.1,118.1 191.8,118.1 
							"/>
		</g>
	</g>
	<g>
		<g>
			<g>
				<g>
					<path class="st4" d="M237.1,171.6c-0.3,0-0.5-0.1-0.8-0.3l-10.1-8.4c-0.1-0.1-0.2-0.1-0.4-0.1h-17c-0.7,0-1.2-0.5-1.2-1.2V146
						c0-0.2-0.1-0.4-0.3-0.5c-0.1,0-0.2-0.1-0.2-0.1c-0.1,0-0.3,0-0.4,0.1l-7.7,6.4c-0.2,0.2-0.5,0.3-0.8,0.3c-0.2,0-0.3,0-0.5-0.1
						c-0.4-0.2-0.7-0.6-0.7-1.1v-7c0-0.3-0.3-0.6-0.6-0.6h-5.3c-0.7,0-1.2-0.5-1.2-1.2v-24.7c0-0.7,0.5-1.2,1.2-1.2h35.2
						c0.7,0,1.2,0.5,1.2,1.2v17.6c0,0.3,0.3,0.6,0.6,0.6h15.9c0.7,0,1.2,0.5,1.2,1.2v24.7c0,0.7-0.5,1.2-1.2,1.2h-5.3
						c-0.3,0-0.6,0.3-0.6,0.6v7c0,0.5-0.3,0.9-0.7,1.1C237.5,171.6,237.3,171.6,237.1,171.6z M210.7,138.2c-0.3,0-0.6,0.3-0.6,0.6
						v21.1c0,0.3,0.3,0.6,0.6,0.6h15.9c0.3,0,0.5,0.1,0.8,0.3l7.7,6.4c0.1,0.1,0.2,0.1,0.4,0.1c0.1,0,0.2,0,0.2-0.1
						c0.2-0.1,0.3-0.3,0.3-0.5v-5.1c0-0.7,0.5-1.2,1.2-1.2h5.3c0.3,0,0.6-0.3,0.6-0.6v-21.1c0-0.3-0.3-0.6-0.6-0.6H210.7z
						 M193.1,118.8c-0.3,0-0.6,0.3-0.6,0.6v21.1c0,0.3,0.3,0.6,0.6,0.6h5.3c0.7,0,1.2,0.5,1.2,1.2v5c0,0.2,0.1,0.4,0.3,0.5
						c0.1,0,0.2,0.1,0.2,0.1c0.1,0,0.3,0,0.4-0.1l7-5.9c0.1-0.1,0.2-0.3,0.2-0.4V137c0-0.7,0.5-1.2,1.2-1.2h15.9
						c0.3,0,0.6-0.3,0.6-0.6v-15.9c0-0.3-0.3-0.6-0.6-0.6H193.1z"/>
				</g>
			</g>
		</g>
		<g>
			<g>
				<g>
					<rect x="225.4" y="148.1" class="st4" width="2.4" height="2.4"/>
				</g>
			</g>
		</g>
		<g>
			<g>
				<g>
					<rect x="232.4" y="148.1" class="st4" width="2.4" height="2.4"/>
				</g>
			</g>
		</g>
		<g>
			<g>
				<g>
					<rect x="218.3" y="148.1" class="st4" width="2.4" height="2.4"/>
				</g>
			</g>
		</g>
		<g>
			<g>
				<g>
					<rect x="207.8" y="128.7" class="st4" width="2.4" height="2.4"/>
				</g>
			</g>
		</g>
		<g>
			<g>
				<g>
					<rect x="214.8" y="128.7" class="st4" width="2.4" height="2.4"/>
				</g>
			</g>
		</g>
		<g>
			<g>
				<g>
					<rect x="200.7" y="128.7" class="st4" width="2.4" height="2.4"/>
				</g>
			</g>
		</g>
	</g>
</g>
<g>
	<g>
		<rect x="399.1" y="152.7" class="st2" width="40.4" height="7.2"/>
	</g>
	<g>
		<rect x="398.1" y="207.2" class="st2" width="41.4" height="7.2"/>
	</g>
	<g>
		<path class="st4" d="M461.2,158.9h-19c-0.4,0-0.7-0.3-0.7-0.7v-1.3c0-3.5-3-6.4-6.7-6.4h-31.6c-3.7,0-6.7,2.9-6.7,6.4v53.2
			c0,3.5,3,6.4,6.7,6.4h31.6c3.7,0,6.7-2.9,6.7-6.4v-20c0-0.8-0.6-1.4-1.4-1.4c-0.8,0-1.4,0.6-1.4,1.4v14.4c0,0.4-0.3,0.7-0.7,0.7
			h-37.9c-0.4,0-0.7-0.3-0.7-0.7v-42.1c0-0.4,0.3-0.7,0.7-0.7h18.4c0.8,0,1.4-0.6,1.4-1.4c0-0.8-0.6-1.4-1.4-1.4h-18.4
			c-0.4,0-0.7-0.3-0.7-0.7v-1.3c0-2,1.7-3.6,3.8-3.6h31.6c2.1,0,3.8,1.6,3.8,3.6v1.3c0,0.4-0.3,0.7-0.7,0.7h-23.2
			c-0.8,0-1.4,0.6-1.4,1.4v29.5c0,0.8,0.6,1.4,1.4,1.4h8.4c0.4,0,0.7,0.3,0.7,0.7v8.4c0,0.5,0.3,1,0.8,1.3c0.2,0.1,0.4,0.1,0.6,0.1
			c0.3,0,0.7-0.1,0.9-0.3l12-10c0.1-0.1,0.3-0.2,0.4-0.2h22.4c0.8,0,1.4-0.6,1.4-1.4v-29.5C462.6,159.5,462,158.9,461.2,158.9z
			 M400.1,208.1H438c0.4,0,0.7,0.3,0.7,0.7v1.3c0,2-1.7,3.6-3.8,3.6h-31.6c-2.1,0-3.8-1.6-3.8-3.6v-1.3
			C399.4,208.4,399.7,208.1,400.1,208.1z M459.8,187.7c0,0.4-0.3,0.7-0.7,0.7H438c-0.3,0-0.7,0.1-0.9,0.3l-9.2,7.7
			c-0.1,0.1-0.3,0.2-0.4,0.2c-0.1,0-0.2,0-0.3-0.1c-0.2-0.1-0.4-0.4-0.4-0.6v-6c0-0.8-0.6-1.4-1.4-1.4H417c-0.4,0-0.7-0.3-0.7-0.7
			v-25.3c0-0.4,0.3-0.7,0.7-0.7h42.1c0.4,0,0.7,0.3,0.7,0.7V187.7z"/>
	</g>
	<g>
		<path class="st4" d="M448.5,169.4h-21.1c-0.8,0-1.4,0.6-1.4,1.4c0,0.8,0.6,1.4,1.4,1.4h21.1c0.8,0,1.4-0.6,1.4-1.4
			C450,170.1,449.3,169.4,448.5,169.4z"/>
	</g>
	<g>
		<path class="st4" d="M448.5,177.9h-21.1c-0.8,0-1.4,0.6-1.4,1.4c0,0.8,0.6,1.4,1.4,1.4h21.1c0.8,0,1.4-0.6,1.4-1.4
			C450,178.5,449.3,177.9,448.5,177.9z"/>
	</g>
</g>
<g>
	<g>
		<g>
			<g>
				<polygon class="st2" points="484.2,441.2 484.2,410.3 515,430.7 519,430.7 548.8,411 549.5,441.2 545.9,445 488.7,445 
					484.2,442.3 				"/>
			</g>
		</g>
	</g>
	<g>
		<g>
			<g>
				<polygon class="st6" points="539.2,416.6 539.2,382 535.7,379.7 496.8,379.7 494.8,381.7 494.8,417.5 515.5,431 519,431 				"/>
			</g>
		</g>
	</g>
	<g>
		<g>
			<g>
				<polygon class="st6" points="486,409.7 494.5,402.9 494.5,416.2 				"/>
			</g>
		</g>
	</g>
	<g>
		<g>
			<g>
				<polygon class="st6" points="547.9,409.7 539.4,402.9 539.4,416.2 				"/>
			</g>
		</g>
	</g>
	<g>
		<g>
			<g>
				<g>
					<g>
						<path class="st4" d="M488.7,446.3c-3.1,0-5.6-2.5-5.6-5.6v-30.4c0-0.1,0-0.1,0-0.2c0-0.1,0-0.2,0.1-0.3c0-0.1,0.1-0.2,0.1-0.3
							c0,0,0-0.1,0.1-0.1c0,0,0.1-0.1,0.1-0.1c0.1-0.1,0.1-0.1,0.2-0.2c0.1,0,0.1-0.1,0.1-0.2l9.8-7.9c0.2-0.1,0.3-0.3,0.3-0.6v-18
							c0-2.2,1.8-4,4-4h38.3c2.2,0,4,1.8,4,4v18c0,0.2,0.1,0.4,0.3,0.6l9.9,7.9c0,0.1,0.1,0.1,0.1,0.2c0.1,0.1,0.2,0.1,0.2,0.2
							c0,0,0.1,0.1,0.1,0.1c0,0,0,0.1,0.1,0.1c0.1,0.1,0.1,0.2,0.1,0.3c0,0.1,0,0.2,0.1,0.3c0,0.1,0,0.1,0,0.2v30.4
							c0,3.1-2.5,5.6-5.6,5.6H488.7z M538.7,436.8c0.4,0,0.8,0.2,1,0.4c0.6,0.6,0.6,1.5,0,2.1l-2.8,2.8c-0.2,0.2-0.3,0.5-0.2,0.8
							c0.1,0.3,0.4,0.4,0.7,0.4h8c1.5,0,2.7-1.2,2.7-2.7v-26.4c0-0.3-0.1-0.5-0.4-0.6c-0.1-0.1-0.2-0.1-0.3-0.1
							c-0.1,0-0.3,0-0.4,0.1l-24.8,17.1c0,0-0.1,0.1-0.1,0.1c-2,1.1-3.5,1.5-5,1.5c-1.5,0-3-0.5-5-1.5c-0.1,0-0.1-0.1-0.1-0.1
							l-24.8-17.1c-0.1-0.1-0.3-0.1-0.4-0.1c-0.1,0-0.2,0-0.3,0.1c-0.2,0.1-0.4,0.4-0.4,0.6v26.4c0,1.5,1.2,2.7,2.7,2.7h3.6
							c0.2,0,0.4-0.1,0.5-0.2l5.9-5.9c0.3-0.3,0.6-0.4,1-0.4c0.4,0,0.8,0.2,1,0.4c0.6,0.6,0.6,1.5,0,2.1l-2.8,2.8
							c-0.2,0.2-0.3,0.5-0.2,0.8c0.1,0.3,0.4,0.4,0.7,0.4h6.9c0.2,0,0.4-0.1,0.5-0.2l5.9-5.9c0.3-0.3,0.6-0.4,1-0.4
							c0.4,0,0.8,0.2,1,0.4c0.6,0.6,0.6,1.5,0,2.1l-2.8,2.8c-0.2,0.2-0.3,0.5-0.2,0.8c0.1,0.3,0.4,0.4,0.7,0.4h6.9
							c0.2,0,0.4-0.1,0.5-0.2l5.9-5.9c0.3-0.3,0.6-0.4,1-0.4c0.4,0,0.8,0.2,1,0.4c0.6,0.6,0.6,1.5,0,2.1l-2.8,2.8
							c-0.2,0.2-0.3,0.5-0.2,0.8c0.1,0.3,0.4,0.4,0.7,0.4h6.9c0.2,0,0.4-0.1,0.5-0.2l5.9-5.9C538,437,538.3,436.8,538.7,436.8z
							 M497.9,381.3c-0.6,0-1.1,0.5-1.1,1.1v34.1c0,0.2,0.1,0.5,0.3,0.6l16.3,11.3c0,0,0,0,0.1,0c1.5,0.8,2.5,1.1,3.5,1.1
							s2-0.3,3.5-1.1c0,0,0,0,0.1,0l16.3-11.3c0.2-0.1,0.3-0.4,0.3-0.6v-34.1c0-0.6-0.5-1.1-1.1-1.1H497.9z M540.9,405.3
							c-0.1,0-0.2,0-0.3,0.1c-0.2,0.1-0.4,0.4-0.4,0.6v7.5c0,0.3,0.1,0.5,0.4,0.6c0.1,0.1,0.2,0.1,0.3,0.1c0.1,0,0.3,0,0.4-0.1
							l5-3.5c0.2-0.1,0.3-0.3,0.3-0.6c0-0.2-0.1-0.4-0.3-0.6l-5-4C541.2,405.3,541,405.3,540.9,405.3z M493.2,405.3
							c-0.2,0-0.3,0.1-0.4,0.2l-5,4c-0.2,0.1-0.3,0.4-0.3,0.6c0,0.2,0.1,0.4,0.3,0.6l5,3.5c0.1,0.1,0.3,0.1,0.4,0.1
							c0.1,0,0.2,0,0.3-0.1c0.2-0.1,0.4-0.4,0.4-0.6V406c0-0.3-0.2-0.5-0.4-0.6C493.4,405.3,493.3,405.3,493.2,405.3z"/>
					</g>
				</g>
			</g>
		</g>
		<g>
			<g>
				<g>
					<g>
						<path class="st4" d="M512.7,394.3c-0.8,0-1.5-0.7-1.5-1.5s0.7-1.5,1.5-1.5h8.7c0.8,0,1.5,0.7,1.5,1.5s-0.7,1.5-1.5,1.5H512.7z
							"/>
					</g>
				</g>
			</g>
		</g>
		<g>
			<g>
				<g>
					<g>
						<path class="st4" d="M506.2,402.9c-0.8,0-1.5-0.7-1.5-1.5c0-0.8,0.7-1.5,1.5-1.5h21.7c0.8,0,1.5,0.7,1.5,1.5
							c0,0.8-0.7,1.5-1.5,1.5H506.2z"/>
					</g>
				</g>
			</g>
		</g>
		<g>
			<g>
				<g>
					<g>
						<path class="st4" d="M506.2,411.6c-0.8,0-1.5-0.7-1.5-1.5c0-0.8,0.7-1.5,1.5-1.5h21.7c0.8,0,1.5,0.7,1.5,1.5
							c0,0.8-0.7,1.5-1.5,1.5H506.2z"/>
					</g>
				</g>
			</g>
		</g>
	</g>
</g>
<g>
	<g>
		<g>
			<polygon class="st2" points="84.9,404.1 79,408.2 69.9,410.4 61,408.3 53.5,403.6 49.4,394.1 49.4,376.9 90.3,376.9 90.8,394.8 
							"/>
		</g>
	</g>
	<g>
		<g>
			<polygon class="st6" points="62.6,376.1 54.9,376.1 54.9,366.1 58.7,358.6 62.6,355.4 70.1,353.4 76.9,356 80.6,358.3 
				83.1,361.3 84.3,364.8 85.5,367.4 85.2,372.2 84.7,375.7 78.1,375.7 77.6,371.8 76.9,366.9 75.1,364 72.5,362.6 70.1,361.9 
				67.3,362.6 65.1,363.3 63,365.6 62.5,368.2 62.1,373.2 			"/>
		</g>
	</g>
	<g>
		<g>
			<circle class="st6" cx="69.9" cy="389.7" r="5.2"/>
		</g>
	</g>
	<g>
		<g>
			<g>
				<g>
					<path class="st4" d="M69.9,402.3c-0.7,0-1.3-0.6-1.3-1.3V397c0-0.3-0.2-0.5-0.5-0.6c-3.1-0.8-5.2-3.6-5.2-6.7
						c0-3.8,3.1-6.9,6.9-6.9c3.8,0,6.9,3.1,6.9,6.9c0,3.1-2.1,5.9-5.2,6.7c-0.3,0.1-0.5,0.3-0.5,0.6v4.1
						C71.2,401.7,70.6,402.3,69.9,402.3z M69.9,385.3c-2.4,0-4.4,2-4.4,4.4c0,2.4,2,4.4,4.4,4.4c2.4,0,4.4-2,4.4-4.4
						C74.3,387.2,72.3,385.3,69.9,385.3z"/>
				</g>
			</g>
		</g>
		<g>
			<g>
				<g>
					<path class="st4" d="M69.9,411.7c-10.4,0-22.1-8.5-22.1-20v-15.4c0-0.7,0.6-1.3,1.3-1.3h3.8c0.3,0,0.6-0.3,0.6-0.6v-5.7
						c0-9,7.4-16.4,16.4-16.4s16.4,7.4,16.4,16.4v5.7c0,0.3,0.3,0.6,0.6,0.6h3.8c0.7,0,1.3,0.6,1.3,1.3v15.4
						C92,403.2,80.3,411.7,69.9,411.7z M51,377.7c-0.3,0-0.6,0.3-0.6,0.6v13.5c0,10,10.3,17.4,19.5,17.4c9.2,0,19.5-7.4,19.5-17.4
						v-13.5c0-0.3-0.3-0.6-0.6-0.6H51z M69.9,360c4.9,0,8.8,4,8.8,8.8v5.7c0,0.3,0.3,0.6,0.6,0.6h3.8c0.3,0,0.6-0.3,0.6-0.6v-5.7
						c0-7.6-6.2-13.9-13.9-13.9c-7.6,0-13.9,6.2-13.9,13.9v5.7c0,0.3,0.3,0.6,0.6,0.6h3.8c0.3,0,0.6-0.3,0.6-0.6v-5.7
						C61.1,364,65,360,69.9,360z M69.9,362.6c-3.5,0-6.3,2.8-6.3,6.3v5.7c0,0.3,0.3,0.6,0.6,0.6h11.3c0.3,0,0.6-0.3,0.6-0.6v-5.7
						C76.2,365.4,73.4,362.6,69.9,362.6z"/>
				</g>
			</g>
		</g>
	</g>
</g>
<g>
	<g>
		<g>
			<circle class="st2" cx="494.5" cy="271.6" r="21"/>
		</g>
	</g>
	<g>
		<g>
			<g>
				<g>
					<path class="st4" d="M494.5,293.6c-12.1,0-22-9.9-22-22c0-12.1,9.9-22,22-22c12.1,0,22,9.9,22,22
						C516.5,283.7,506.6,293.6,494.5,293.6z M495.9,278.1c-0.3,0-0.5,0.2-0.5,0.5V291c0,0.1,0.1,0.3,0.2,0.4
						c0.1,0.1,0.2,0.1,0.3,0.1c0,0,0.1,0,0.1,0c3.6-1.1,6.7-6,8.1-12.8c0-0.1,0-0.3-0.1-0.4c-0.1-0.1-0.2-0.2-0.4-0.2H495.9z
						 M485.3,278.1c-0.1,0-0.3,0.1-0.4,0.2c-0.1,0.1-0.1,0.2-0.1,0.4c1.3,6.8,4.4,11.7,8.1,12.8c0,0,0.1,0,0.1,0
						c0.1,0,0.2,0,0.3-0.1c0.1-0.1,0.2-0.2,0.2-0.4v-12.5c0-0.3-0.2-0.5-0.5-0.5H485.3z M506.5,278.1c-0.2,0-0.4,0.2-0.5,0.4
						c-0.8,4.5-2.3,8.3-4.4,11c-0.1,0.2-0.1,0.4,0,0.6c0.1,0.1,0.2,0.2,0.4,0.2c0.1,0,0.1,0,0.2,0c5.1-2.1,9.1-6.3,11.1-11.5
						c0.1-0.1,0-0.3-0.1-0.4c-0.1-0.1-0.2-0.2-0.4-0.2H506.5z M476.1,278.1c-0.2,0-0.3,0.1-0.4,0.2c-0.1,0.1-0.1,0.3-0.1,0.4
						c2,5.2,6,9.4,11.1,11.5c0.1,0,0.1,0,0.2,0c0.1,0,0.3-0.1,0.4-0.2c0.1-0.2,0.1-0.4,0-0.6c-2.1-2.7-3.7-6.6-4.4-11
						c0-0.2-0.2-0.4-0.5-0.4H476.1z M506.9,267c-0.1,0-0.3,0.1-0.3,0.2c-0.1,0.1-0.1,0.2-0.1,0.4c0.1,1.4,0.2,2.8,0.2,4.1
						c0,1.3-0.1,2.7-0.2,4.1c0,0.1,0,0.3,0.1,0.4c0.1,0.1,0.2,0.2,0.3,0.2h6.4c0,0,0.1,0,0.1,0l0.1,0c0,0,0.1,0,0.1,0
						c0.1,0,0.2,0,0.2-0.1c0.1-0.1,0.2-0.2,0.2-0.3c0.3-1.4,0.5-2.9,0.5-4.3c0-1.4-0.2-2.9-0.5-4.3c0-0.1-0.1-0.2-0.2-0.3
						c-0.1,0-0.2-0.1-0.2-0.1c0,0-0.1,0-0.1,0l-0.1,0c-0.1,0-0.1,0-0.2,0H506.9z M475.3,266.9c-0.1,0-0.2,0-0.2,0.1
						c-0.1,0.1-0.2,0.2-0.2,0.3c-0.3,1.4-0.5,2.9-0.5,4.3c0,1.4,0.2,2.9,0.5,4.3c0,0.1,0.1,0.2,0.2,0.3c0.1,0,0.2,0.1,0.2,0.1
						c0,0,0.1,0,0.1,0l0.1,0c0.1,0,0.1,0,0.1,0h6.4c0.1,0,0.3-0.1,0.3-0.2c0.1-0.1,0.1-0.2,0.1-0.4c-0.1-1.4-0.2-2.8-0.2-4.1
						c0-1.3,0.1-2.7,0.2-4.1c0-0.1,0-0.3-0.1-0.4c-0.1-0.1-0.2-0.2-0.3-0.2h-6.4c0,0-0.1,0-0.2,0l-0.1,0
						C475.4,266.9,475.4,266.9,475.3,266.9z M495.9,267c-0.3,0-0.5,0.2-0.5,0.5v8.3c0,0.3,0.2,0.5,0.5,0.5h8.2
						c0.2,0,0.4-0.2,0.5-0.4c0.2-1.4,0.2-2.8,0.2-4.2c0-1.4-0.1-2.8-0.2-4.2c0-0.2-0.2-0.4-0.5-0.4H495.9z M484.9,267
						c-0.2,0-0.4,0.2-0.5,0.4c-0.2,1.4-0.2,2.8-0.2,4.2c0,1.4,0.1,2.8,0.2,4.2c0,0.2,0.2,0.4,0.5,0.4h8.2c0.3,0,0.5-0.2,0.5-0.5
						v-8.3c0-0.3-0.2-0.5-0.5-0.5H484.9z M502,253c-0.1,0-0.3,0.1-0.4,0.2c-0.1,0.2-0.1,0.4,0,0.6c2.1,2.7,3.7,6.6,4.4,11
						c0,0.2,0.2,0.4,0.5,0.4h6.3c0.2,0,0.3-0.1,0.4-0.2c0.1-0.1,0.1-0.3,0.1-0.4c-2-5.2-6-9.4-11.1-11.5
						C502.1,253,502.1,253,502,253z M495.9,251.7c-0.1,0-0.2,0-0.3,0.1c-0.1,0.1-0.2,0.2-0.2,0.4v12.5c0,0.3,0.2,0.5,0.5,0.5h7.8
						c0.1,0,0.3-0.1,0.4-0.2c0.1-0.1,0.1-0.2,0.1-0.4c-1.3-6.8-4.4-11.7-8.1-12.8C496,251.7,496,251.7,495.9,251.7z M493.1,251.7
						c0,0-0.1,0-0.1,0c-3.6,1.1-6.7,6-8.1,12.8c0,0.1,0,0.3,0.1,0.4c0.1,0.1,0.2,0.2,0.4,0.2h7.8c0.3,0,0.5-0.2,0.5-0.5v-12.5
						c0-0.1-0.1-0.3-0.2-0.4C493.3,251.7,493.2,251.7,493.1,251.7z M487,253c-0.1,0-0.1,0-0.2,0c-5.1,2.1-9.1,6.3-11.1,11.5
						c-0.1,0.1,0,0.3,0.1,0.4c0.1,0.1,0.2,0.2,0.4,0.2h6.3c0.2,0,0.4-0.2,0.5-0.4c0.8-4.5,2.3-8.3,4.4-11c0.1-0.2,0.1-0.4,0-0.6
						C487.3,253,487.1,253,487,253z"/>
				</g>
			</g>
		</g>
	</g>
</g>
</svg>
