<?xml version="1.0" encoding="utf-8"?>
<!-- Generator: Adobe Illustrator 21.0.2, SVG Export Plug-In . SVG Version: 6.00 Build 0)  -->
<svg version="1.1" id="Livello_1" xmlns="http://www.w3.org/2000/svg" xmlns:xlink="http://www.w3.org/1999/xlink" x="0px" y="0px"
	 viewBox="0 0 40 40" style="enable-background:new 0 0 40 40;" xml:space="preserve">
<style type="text/css">
	.st0{fill:#73D7FF;}
	.st1{fill:#003575;}
</style>
<polygon class="st0" points="2.9,18.7 3.1,35.9 4.2,37.3 35.9,37.3 37.2,34.2 36.7,18.7 "/>
<title>Documenti inseriti da te</title>
<g id="Livello_2">
	<g id="icon">
		<path class="st1" d="M30.7,5.6h-1.5v-2H10.8v2.2H9.4v-3c0-0.4,0.4-0.7,0.7-0.7H30c0.4,0,0.7,0.4,0.7,0.7V5.6z"/>
		<path class="st0" d="M32.2,8.5h-1.5V6.4H9.4v2.2H7.9v-3c0-0.4,0.4-0.7,0.7-0.7h22.8c0.4,0,0.7,0.4,0.7,0.7v2.9H32.2z"/>
		<path class="st1" d="M37.2,19.2H2.9c-0.4,0-0.7-0.4-0.7-0.7c0-0.4,0.4-0.7,0.7-0.7h34.2c0.4,0,0.7,0.4,0.7,0.7
			C37.9,18.9,37.5,19.2,37.2,19.2z"/>
		<path class="st1" d="M25,26.4H15c-1.2,0-2.2-1-2.2-2.2v-1.5c0-0.4,0.4-0.7,0.7-0.7h12.9c0.4,0,0.7,0.4,0.7,0.7v1.5
			C27.2,25.4,26.2,26.4,25,26.4z M14.3,23.5v0.7c0,0.4,0.4,0.7,0.7,0.7h10c0.4,0,0.7-0.4,0.7-0.7v-0.7H14.3z"/>
		<path class="st1" d="M32.9,19.2c-0.4,0-0.7-0.4-0.7-0.7V9.3H7.9v9.2c0,0.4-0.4,0.7-0.7,0.7c-0.4,0-0.7-0.4-0.7-0.7v-10
			c0-0.4,0.4-0.7,0.7-0.7h25.7c0.4,0,0.7,0.4,0.7,0.7v10C33.6,18.9,33.3,19.2,32.9,19.2z"/>
		<path class="st1" d="M35.7,37.8H4.4c-1.2,0-2.2-1-2.2-2.2V18.5c0-0.2,0.1-0.4,0.2-0.5l4.2-4.2c0.2-0.2,0.7-0.2,1,0.1
			c0.2,0.2,0.2,0.6,0,1l-4,4.1v16.9c0,0.4,0.4,0.7,0.7,0.7h31.3c0.4,0,0.7-0.4,0.7-0.7v-17l-4-4.1c-0.2-0.2-0.2-0.7,0.1-1
			c0.2-0.2,0.6-0.2,1,0l4.2,4.2c0.1,0.1,0.2,0.4,0.2,0.5v17.1C37.9,36.8,36.9,37.8,35.7,37.8z"/>
	</g>
</g>
</svg>
