<?xml version="1.0" encoding="utf-8"?>
<!-- Generator: Adobe Illustrator 21.0.2, SVG Export Plug-In . SVG Version: 6.00 Build 0)  -->
<svg version="1.1" id="Livello_1" xmlns="http://www.w3.org/2000/svg" xmlns:xlink="http://www.w3.org/1999/xlink" x="0px" y="0px"
	 viewBox="0 0 40 40" style="enable-background:new 0 0 40 40;" xml:space="preserve">
<style type="text/css">
	.st0{fill:#FFFFFF;}
	.st1{fill:#003575;}
	.st2{fill:#73D7FF;}
</style>
<title>Risorsa 2</title>
<g id="Livello_2">
	<g id="Layer_1">
		<rect x="9.4" y="2" class="st0" width="21.5" height="29.5"/>
		<path class="st1" d="M14.3,11.4c-0.4,0-0.7-0.3-0.7-0.7s0.3-0.7,0.7-0.7l0,0h11.5c0.4,0,0.7,0.3,0.7,0.7s-0.3,0.7-0.7,0.7H14.3z"
			/>
		<path class="st1" d="M17.4,7.2c-0.4,0-0.7-0.3-0.7-0.7s0.3-0.7,0.7-0.7h5.2c0.4,0,0.7,0.3,0.7,0.7S23,7.2,22.6,7.2H17.4z"/>
		<path class="st1" d="M14.3,15.5c-0.4,0-0.7-0.3-0.7-0.7s0.3-0.7,0.7-0.7h11.5c0.4,0,0.7,0.3,0.7,0.7s-0.3,0.7-0.7,0.7l0,0H14.3z"
			/>
		<path class="st1" d="M14.3,19.7c-0.4,0-0.7-0.3-0.7-0.7s0.3-0.7,0.7-0.7h11.5c0.4,0,0.7,0.3,0.7,0.7s-0.3,0.7-0.7,0.7l0,0H14.3z"
			/>
		<path class="st1" d="M10.1,32.6c-1,0-1.8-0.8-1.8-1.8V3c0-1,0.8-1.8,1.8-1.8h19.9c1,0,1.8,0.8,1.8,1.8c0,0,0,0,0,0v27.8
			c0,1-0.8,1.8-1.8,1.8H10.1z M10.1,2.7C9.9,2.7,9.7,2.8,9.7,3l0,0v27.8c0,0.2,0.2,0.3,0.3,0.3h19.9c0.2,0,0.3-0.2,0.3-0.3V3
			c0-0.2-0.2-0.3-0.3-0.3L10.1,2.7z"/>
		<path class="st2" d="M15.7,23.8c-0.2-0.1-0.4-0.2-0.6-0.3l0,0l-0.1,0c-0.1,0.1-0.2,0.2-0.4,0.6c-0.1,0.3-0.3,0.6-0.6,0.8
			c-0.3,0.2-0.6,0.3-1,0.3c-0.5,0.1-0.6,0.1-0.7,0.2c-0.1,0.1-0.1,0.3,0,0.7c0.1,0.3,0.1,0.7,0,1c-0.1,0.3-0.3,0.6-0.6,0.8
			c-0.3,0.3-0.5,0.5-0.5,0.6s0.1,0.3,0.5,0.6c0.3,0.2,0.5,0.5,0.6,0.8c0.1,0.3,0.1,0.7,0,1c-0.1,0.5-0.1,0.7,0,0.7
			c0.1,0.1,0.2,0.1,0.7,0.2c0.3,0,0.7,0.1,1,0.3c0.2,0.2,0.4,0.5,0.6,0.8c0.2,0.4,0.3,0.6,0.4,0.6h0h0c0.2,0,0.3-0.1,0.5-0.2
			l0.1-0.1c0.3-0.2,0.6-0.3,1-0.4c0.3,0,0.7,0.2,1,0.4c0.2,0.1,0.4,0.2,0.6,0.3l0,0h0.1c0.1-0.1,0.2-0.2,0.4-0.6
			c0.1-0.3,0.3-0.6,0.6-0.8c0.3-0.2,0.6-0.3,1-0.3c0.5-0.1,0.6-0.1,0.7-0.2c0.1-0.1,0.1-0.3,0-0.7c-0.1-0.3-0.1-0.7,0-1
			c0.1-0.3,0.3-0.6,0.6-0.8c0.3-0.3,0.5-0.5,0.5-0.6s-0.1-0.3-0.5-0.6c-0.3-0.2-0.5-0.5-0.6-0.8c-0.1-0.3-0.1-0.7,0-1
			c0.1-0.5,0.1-0.7,0-0.7s-0.2-0.1-0.7-0.2c-0.3,0-0.7-0.1-1-0.3c-0.2-0.2-0.4-0.5-0.6-0.8c-0.2-0.4-0.3-0.6-0.4-0.6l0,0h-0.1
			c-0.2,0-0.3,0.1-0.5,0.2l-0.1,0.1c-0.3,0.2-0.6,0.3-1,0.4C16.3,24.2,16,24,15.7,23.8z"/>
		<circle class="st0" cx="16.7" cy="28.8" r="2.9"/>
		<polygon class="st0" points="18.4,37.1 16.9,33.9 18.3,34.2 20,32.9 21.3,36.7 19.7,36.8 19,37.8 18.5,37.5 		"/>
		<polygon class="st0" points="16.5,34.5 14.7,38 13.4,36.6 11.6,36.8 13.8,32.9 14.9,34.4 16.2,34 		"/>
		<path class="st1" d="M16.7,32.2c-1.9,0-3.4-1.5-3.4-3.4c0-1.9,1.5-3.4,3.4-3.4s3.4,1.5,3.4,3.4C20,30.6,18.5,32.2,16.7,32.2
			L16.7,32.2z M16.7,26.1c-1.5,0-2.7,1.2-2.7,2.7c0,1.5,1.2,2.7,2.7,2.7c1.5,0,2.7-1.2,2.7-2.7C19.4,27.3,18.2,26.1,16.7,26.1
			C16.7,26.1,16.7,26.1,16.7,26.1z"/>
		<path class="st1" d="M20.2,33.1c0-0.1,0-0.2,0.1-0.2c0,0,0,0,0.1,0c0.4,0,0.8-0.2,1.1-0.5c0.2-0.4,0.2-0.8,0.1-1.3
			c-0.1-0.2-0.1-0.5,0-0.7c0.1-0.2,0.2-0.4,0.4-0.5c0.4-0.3,0.6-0.7,0.6-1.1c-0.1-0.4-0.3-0.8-0.6-1.1c-0.2-0.1-0.3-0.3-0.4-0.5
			c0-0.2,0-0.5,0-0.7c0.1-0.4,0.1-0.9-0.1-1.3c-0.3-0.3-0.7-0.5-1.1-0.5c-0.2,0-0.4-0.1-0.6-0.2c-0.2-0.2-0.3-0.4-0.4-0.6
			c-0.2-0.4-0.4-0.8-0.8-1c-0.1,0-0.2,0-0.3,0c-0.3,0-0.7,0.2-0.9,0.3c-0.2,0.1-0.4,0.2-0.6,0.3c-0.2,0-0.4-0.1-0.6-0.3
			c-0.3-0.2-0.6-0.3-0.9-0.3c-0.1,0-0.2,0-0.3,0c-0.4,0.1-0.6,0.6-0.8,1c-0.1,0.2-0.2,0.4-0.3,0.6c-0.2,0.1-0.4,0.2-0.6,0.2
			c-0.4,0-0.9,0.2-1.1,0.5c-0.2,0.4-0.2,0.8-0.1,1.3c0.1,0.2,0.1,0.5,0,0.7c-0.1,0.2-0.2,0.4-0.4,0.5c-0.4,0.3-0.6,0.7-0.6,1.1
			c0.1,0.4,0.3,0.8,0.7,1.1c0.2,0.1,0.3,0.3,0.4,0.5c0,0.2,0,0.5,0,0.7c-0.1,0.4-0.1,0.9,0.1,1.3c0.3,0.3,0.7,0.5,1.1,0.5
			c0.1,0,0.2,0.1,0.1,0.2c0,0,0,0,0,0.1l-1.9,3.6c-0.1,0.2,0,0.4,0.2,0.5c0,0,0.1,0,0.1,0h0.1l1.7-0.3l0,0c0.1,0,0.1,0,0.2,0
			l0.8,1.5c0.1,0.1,0.2,0.2,0.3,0.2l0,0c0.1,0,0.2-0.1,0.3-0.2l2.1-4.2l0,0h0.1c0,0,0.1,0,0.1,0l0.1,0c0.3,0.2,0.6,0.3,0.9,0.3
			c0.1,0,0.2,0,0.3,0c0.4-0.1,0.6-0.6,0.8-1l0.1-0.1c0-0.1,0.1-0.1,0.1-0.1l0,0c0.1,0,0.1,0,0.1,0.1l1.3,2.7c0,0.1,0,0.2-0.1,0.2
			c0,0-0.1,0-0.1,0l0,0l-1.1-0.2h-0.1c-0.1,0-0.2,0.1-0.3,0.2l-0.6,1c0,0.1-0.1,0.1-0.1,0.1l0,0c-0.1,0-0.1,0-0.1-0.1L18,36.2
			c-0.1-0.2-0.3-0.2-0.5-0.2c-0.2,0.1-0.2,0.3-0.2,0.5l1,2c0.1,0.1,0.2,0.2,0.3,0.2l0,0c0.1,0,0.2-0.1,0.3-0.2l0.8-1.5
			c0-0.1,0.1-0.1,0.1-0.1l0,0l1.7,0.3h0.1c0.1,0,0.2,0,0.3-0.1c0.1-0.1,0.1-0.2,0-0.4L20.2,33.1z M16.2,34.6l-1.4,2.8
			c0,0.1-0.1,0.1-0.1,0.1l0,0c-0.1,0-0.1,0-0.1-0.1l-0.6-1c-0.1-0.1-0.2-0.2-0.3-0.2h-0.1l-1.1,0.2l0,0c-0.1,0-0.2-0.1-0.2-0.2
			c0,0,0-0.1,0-0.1l1.3-2.7c0-0.1,0.1-0.1,0.1-0.1l0,0c0.1,0,0.1,0,0.1,0.1l0.1,0.1c0.2,0.4,0.4,0.8,0.8,1c0.1,0,0.2,0,0.3,0
			c0.3,0,0.6-0.1,0.8-0.3H16C16.1,34.4,16.2,34.5,16.2,34.6C16.2,34.6,16.2,34.6,16.2,34.6L16.2,34.6z M19.3,32.5
			c-0.2,0.2-0.4,0.5-0.6,0.8c-0.2,0.4-0.3,0.6-0.4,0.6h-0.1l0,0c-0.2-0.1-0.4-0.1-0.6-0.3c-0.3-0.2-0.6-0.3-1-0.4
			c-0.3,0-0.7,0.2-1,0.4l-0.1,0.1c-0.1,0.1-0.3,0.2-0.5,0.2h-0.1h0c-0.1-0.1-0.2-0.2-0.4-0.6c-0.1-0.3-0.3-0.6-0.6-0.8
			c-0.3-0.2-0.6-0.3-1-0.3c-0.5-0.1-0.6-0.1-0.7-0.2c-0.1-0.1-0.1-0.3,0-0.7c0.1-0.3,0.1-0.7,0-1c-0.1-0.3-0.3-0.6-0.6-0.8
			c-0.3-0.3-0.5-0.5-0.5-0.6s0.1-0.3,0.5-0.6c0.3-0.2,0.5-0.5,0.6-0.8c0.1-0.3,0.1-0.7,0-1c-0.1-0.5-0.1-0.7,0-0.7s0.2-0.1,0.7-0.2
			c0.3,0,0.7-0.1,1-0.3c0.2-0.2,0.4-0.5,0.6-0.8c0.2-0.4,0.3-0.6,0.4-0.6h0.1l0,0c0.2,0,0.4,0.1,0.6,0.3c0.3,0.2,0.6,0.3,1,0.4
			c0.3,0,0.7-0.2,1-0.4l0.1-0.1c0.1-0.1,0.3-0.2,0.5-0.2h0.1l0,0c0.1,0.1,0.2,0.2,0.4,0.6c0.1,0.3,0.3,0.6,0.6,0.8
			c0.3,0.2,0.6,0.3,1,0.3c0.5,0.1,0.6,0.1,0.7,0.2c0.1,0.1,0.1,0.3,0,0.7c-0.1,0.3-0.1,0.7,0,1c0.1,0.3,0.3,0.6,0.6,0.8
			c0.3,0.3,0.5,0.5,0.5,0.6s-0.1,0.3-0.5,0.6c-0.3,0.2-0.5,0.5-0.6,0.8c-0.1,0.3-0.1,0.7,0,1c0.1,0.5,0.1,0.7,0,0.7
			c-0.1,0.1-0.2,0.1-0.7,0.2C19.9,32.2,19.5,32.3,19.3,32.5L19.3,32.5z"/>
	</g>
</g>
</svg>
