<svg xmlns="http://www.w3.org/2000/svg" width="41" height="36.571" viewBox="0 0 41 36.571">
  <defs>
    <style>.a{fill:#fff;}.b{fill:#73d7ff;}.c{fill:#003575;}</style>
  </defs>
  <g transform="translate(-39.193 -267.776)">
    <g transform="translate(54.946 267.776)">
      <g transform="translate(7.278 0.785)">
        <rect class="a" width="10.775" height="17.5"/>
      </g>
      <g transform="translate(0.747 19.071)">
        <path class="b" d="M64.673,289.678l-6.531,15.858,1.469,1.121H81.217l.6-1.741-6.367-15.238Z"
              transform="translate(-58.142 -289.678)"/>
      </g>
      <path class="c"
            d="M59.167,304.347a1.885,1.885,0,0,1-1.883-1.883.79.79,0,0,1,.062-.312c2.325-5.622,5.95-14.463,6.409-15.781a.425.425,0,0,0,.022-.132V270.01a.343.343,0,0,1,.007-.06c0-.033.009-.066.011-.1a.4.4,0,0,0-.4-.432H62.152a.821.821,0,1,1,0-1.642H78.043a.821.821,0,1,1,0,1.642H76.8a.4.4,0,0,0-.4.43c0,.035.007.069.012.1a.452.452,0,0,1,.006.06v16.24a.4.4,0,0,0,.02.124c.418,1.284,3.924,10.367,6.036,15.79a.837.837,0,0,1,.056.3,1.886,1.886,0,0,1-1.884,1.883Zm6.283-17.113a.4.4,0,0,0-.376.261c-.679,1.822-2.57,6.479-5.952,14.655a.4.4,0,0,0,.371.555H80.336a.4.4,0,0,0,.374-.547c-3.174-8.153-4.954-12.81-5.6-14.655a.4.4,0,0,0-.378-.268Zm.369-4.018a.4.4,0,0,0-.4.4v1.573a.4.4,0,0,0,.4.4h8.556a.4.4,0,0,0,.4-.4V270.01a.6.6,0,0,0-.592-.592H66.01a.6.6,0,0,0-.591.592v1.384a.4.4,0,0,0,.4.4h2.444a.821.821,0,1,1,0,1.642H65.82a.4.4,0,0,0-.4.4v2.445a.4.4,0,0,0,.4.4h2.444a.822.822,0,0,1,0,1.643H65.82a.4.4,0,0,0-.4.4v2.445a.4.4,0,0,0,.4.4h2.444a.821.821,0,1,1,0,1.642Z"
            transform="translate(-57.284 -267.776)"/>
    </g>
    <g transform="translate(39.193 275.416)">
      <circle class="b" cx="12.627" cy="12.627" r="12.627" transform="translate(0.633 0.633)"/>
      <circle class="a" cx="10.17" cy="10.17" r="10.17" transform="translate(3.09 3.09)"/>
      <circle class="b" cx="1.476" cy="1.476" r="1.476" transform="translate(11.784 11.784)"/>
      <path class="c"
            d="M52.454,276.55a13.26,13.26,0,1,0,13.26,13.261A13.276,13.276,0,0,0,52.454,276.55Zm0,25.384a12.123,12.123,0,1,1,12.123-12.123A12.137,12.137,0,0,1,52.454,301.934Z"
            transform="translate(-39.193 -276.55)"/>
      <path class="c"
            d="M55.8,292.6a.278.278,0,0,1-.054-.316,2.173,2.173,0,0,0,0-1.937.278.278,0,0,1,.06-.322l.017-.015.83-.831a.568.568,0,0,0,0-.8.566.566,0,0,0-.8,0l-.832.832-.019.022a.279.279,0,0,1-.316.054,2.173,2.173,0,0,0-1.937,0,.28.28,0,0,1-.317-.054l-.852-.852a.566.566,0,0,0-.8,0,.57.57,0,0,0,0,.8l.852.852a.276.276,0,0,1,.054.316,2.174,2.174,0,0,0,0,1.936.276.276,0,0,1-.054.316l-2.544,2.545a.568.568,0,0,0,.8.8l2.544-2.545a.28.28,0,0,1,.317-.054,2.173,2.173,0,0,0,1.935,0,.279.279,0,0,1,.316.054l3.392,3.391a.567.567,0,0,0,.8,0,.57.57,0,0,0,0-.8Zm-2.087-.16a1.124,1.124,0,1,1,1.123-1.123A1.125,1.125,0,0,1,53.71,292.441Z"
            transform="translate(-40.449 -278.057)"/>
      <path class="c" d="M63.083,291.126a.568.568,0,1,0,.569.569A.569.569,0,0,0,63.083,291.126Z"
            transform="translate(-42.207 -278.434)"/>
      <path class="c" d="M54.338,283.517a.569.569,0,1,0-.569-.569A.569.569,0,0,0,54.338,283.517Z"
            transform="translate(-41.077 -277.304)"/>
      <path class="c" d="M45.592,291.126a.568.568,0,1,0,.569.569A.569.569,0,0,0,45.592,291.126Z"
            transform="translate(-39.947 -278.434)"/>
      <path class="c" d="M54.338,299.871a.569.569,0,1,0,.569.569A.569.569,0,0,0,54.338,299.871Z"
            transform="translate(-41.077 -279.564)"/>
      <path class="c"
            d="M52.83,279.465a10.722,10.722,0,1,0,10.721,10.722A10.734,10.734,0,0,0,52.83,279.465Zm0,20.307a9.585,9.585,0,1,1,9.585-9.584A9.6,9.6,0,0,1,52.83,299.772Z"
            transform="translate(-39.57 -276.927)"/>
    </g>
  </g>
</svg>
