<svg xmlns="http://www.w3.org/2000/svg" width="32.47" height="43.597" viewBox="0 0 32.47 43.597"><defs><style>.a{fill:#003575;}.b{fill:#fff;}</style></defs><g transform="translate(-220.115 -100.602)"><path class="a" d="M236.363,101.195l7.828,2.147,5.7,6.193,2.312,7.309-3.551,10.646-4.872,8.22-7.415,7.844-7.282-7.514-4.872-7.266-2.725-6.592v-9.51l3.716-6.936,6.606-3.259Z" transform="translate(-0.013 -0.005)"/><circle class="b" cx="9.371" cy="9.371" r="9.371" transform="translate(224.998 123.675) rotate(-76.059)"/><g transform="translate(220.115 100.602)"><path class="a" d="M236.4,127.56a10.671,10.671,0,1,1,10.672-10.672A10.684,10.684,0,0,1,236.4,127.56Zm0-19.473a8.8,8.8,0,1,0,8.8,8.8A8.813,8.813,0,0,0,236.4,108.087Z" transform="translate(-220.166 -100.653)"/><path class="a" d="M236.35,144.2a.94.94,0,0,1-.59-.209c-.639-.519-15.646-12.879-15.646-27.153a16.235,16.235,0,1,1,32.47,0c0,14.274-15.006,26.634-15.646,27.153A.94.94,0,0,1,236.35,144.2Zm0-41.728a14.382,14.382,0,0,0-14.366,14.365c0,11.437,10.762,21.972,14.06,24.928a.458.458,0,0,0,.609,0c3.3-2.96,14.063-13.5,14.063-24.928A14.382,14.382,0,0,0,236.35,102.472Z" transform="translate(-220.115 -100.602)"/></g></g></svg>