<?xml version="1.0" encoding="UTF-8" standalone="no"?>
<svg
   xmlns:dc="http://purl.org/dc/elements/1.1/"
   xmlns:cc="http://creativecommons.org/ns#"
   xmlns:rdf="http://www.w3.org/1999/02/22-rdf-syntax-ns#"
   xmlns:svg="http://www.w3.org/2000/svg"
   xmlns="http://www.w3.org/2000/svg"
   xmlns:sodipodi="http://sodipodi.sourceforge.net/DTD/sodipodi-0.dtd"
   xmlns:inkscape="http://www.inkscape.org/namespaces/inkscape"
   inkscape:version="1.0 (4035a4fb49, 2020-05-01)"
   sodipodi:docname="marker-icon-active.svg"
   width="32.47"
   height="43.597"
   viewBox="0 0 32.47 43.597"
   version="1.1"
   id="svg48">
  <sodipodi:namedview
     inkscape:current-layer="g46"
     inkscape:window-maximized="1"
     inkscape:window-y="-8"
     inkscape:window-x="1358"
     inkscape:cy="21.7985"
     inkscape:cx="16.235001"
     inkscape:zoom="12.340299"
     showgrid="false"
     id="namedview843"
     inkscape:window-height="1017"
     inkscape:window-width="1920"
     inkscape:pageshadow="2"
     inkscape:pageopacity="0"
     guidetolerance="10"
     gridtolerance="10"
     objecttolerance="10"
     borderopacity="1"
     bordercolor="#666666"
     pagecolor="#ffffff" />
  <metadata
     id="metadata52">
    <rdf:RDF>
      <cc:Work
         rdf:about="">
        <dc:format>image/svg+xml</dc:format>
        <dc:type
           rdf:resource="http://purl.org/dc/dcmitype/StillImage" />
        <dc:title />
      </cc:Work>
    </rdf:RDF>
  </metadata>
  <defs
     id="defs34">
    <style
       id="style32">.a{fill:#003575;}.b{fill:#fff;}</style>
  </defs>
  <g
     transform="translate(-220.115 -100.602)"
     id="g46">
    <path
       class="a"
       d="M236.363,101.195l7.828,2.147,5.7,6.193,2.312,7.309-3.551,10.646-4.872,8.22-7.415,7.844-7.282-7.514-4.872-7.266-2.725-6.592v-9.51l3.716-6.936,6.606-3.259Z"
       transform="translate(-0.013 -0.005)"
       id="path36"
       style="fill:#0381d6;fill-opacity:1" />
    <circle
       class="b"
       cx="9.371"
       cy="9.371"
       r="9.371"
       transform="translate(224.998 123.675) rotate(-76.059)"
       id="circle38" />
    <g
       transform="translate(220.115 100.602)"
       id="g44">
      <path
         class="a"
         d="M236.4,127.56a10.671,10.671,0,1,1,10.672-10.672A10.684,10.684,0,0,1,236.4,127.56Zm0-19.473a8.8,8.8,0,1,0,8.8,8.8A8.813,8.813,0,0,0,236.4,108.087Z"
         transform="translate(-220.166 -100.653)"
         id="path40"
         style="fill:#0381d6;fill-opacity:1" />
      <path
         class="a"
         d="M236.35,144.2a.94.94,0,0,1-.59-.209c-.639-.519-15.646-12.879-15.646-27.153a16.235,16.235,0,1,1,32.47,0c0,14.274-15.006,26.634-15.646,27.153A.94.94,0,0,1,236.35,144.2Zm0-41.728a14.382,14.382,0,0,0-14.366,14.365c0,11.437,10.762,21.972,14.06,24.928a.458.458,0,0,0,.609,0c3.3-2.96,14.063-13.5,14.063-24.928A14.382,14.382,0,0,0,236.35,102.472Z"
         transform="translate(-220.115 -100.602)"
         id="path42"
         style="fill:#0381d6;fill-opacity:1" />
    </g>
  </g>
</svg>
