<?xml version="1.0" encoding="utf-8"?>
<!-- Generator: Adobe Illustrator 21.0.2, SVG Export Plug-In . SVG Version: 6.00 Build 0)  -->
<svg version="1.1" id="Livello_1" xmlns="http://www.w3.org/2000/svg" xmlns:xlink="http://www.w3.org/1999/xlink" x="0px" y="0px"
	 viewBox="0 0 40 40" style="enable-background:new 0 0 40 40;" xml:space="preserve">
<style type="text/css">
	.st0{fill:#73D7FF;}
	.st1{fill:#FFFFFF;}
	.st2{fill:#003575;}
</style>
<g>
	<g>
		<g>
			<rect x="19.8" y="12.8" transform="matrix(0.9678 0.2517 -0.2517 0.9678 5.6084 -6.403)" class="st0" width="16" height="11.9"/>
		</g>
	</g>
	<g>
		<g>
			<path class="st1" d="M26.2,24.9c-0.5-0.1-1-0.4-1.2-0.8l0,0l-3.2,10.2l2.6,0.7l3.2-10.2l0,0C27.3,25,26.8,25.1,26.2,24.9z"/>
		</g>
	</g>
	<g>
		<g>
			<path class="st2" d="M36.7,14.3l-14.4-3.7c-0.6-0.2-1.2,0.2-1.4,0.8l-2.7,10.5c-0.2,0.6,0.2,1.2,0.8,1.4l5.5,1.4l-2.9,9.1
				c-0.2,0.6,0.2,1.2,0.8,1.4l1.3,0.3c0.6,0.2,1.2-0.2,1.4-0.8l2.9-9.1l5.5,1.4c0.6,0.2,1.2-0.2,1.4-0.8l2.7-10.5
				C37.6,15.1,37.3,14.5,36.7,14.3z M24.1,34.4c0,0.1-0.2,0.2-0.3,0.2l-1.3-0.3c-0.1,0-0.2-0.2-0.2-0.3l2.9-9.1l1.7,0.5L24.1,34.4z
				 M33.9,25.9c0,0.1-0.2,0.2-0.3,0.2l-14.4-3.7c-0.1,0-0.2-0.2-0.2-0.3l2.7-10.5c0-0.1,0.2-0.2,0.3-0.2l14.4,3.7
				c0.1,0,0.1,0.1,0.1,0.1c0,0.1,0,0.1,0,0.2L33.9,25.9z"/>
		</g>
		<g>
			<g>
				<path class="st1" d="M29.2,21.7c-0.1,0-0.2-0.1-0.3-0.2l-1.1-1.9c0-0.1-0.1-0.1-0.1-0.1c-0.1,0-0.1,0-0.2,0l-1.9,1.1
					c-0.1,0.1-0.2,0.1-0.3,0c-0.1,0-0.2-0.1-0.3-0.2c-0.1-0.2-0.1-0.5,0.2-0.6l1.9-1.1c0.1-0.1,0.1-0.2,0.1-0.3L26,16.5
					c-0.1-0.2-0.1-0.5,0.2-0.6c0.1-0.1,0.2-0.1,0.3,0c0.1,0,0.2,0.1,0.3,0.2l1.1,1.9c0,0.1,0.1,0.1,0.1,0.1c0.1,0,0.1,0,0.2,0
					l1.9-1.1c0.1-0.1,0.2-0.1,0.3,0c0.1,0,0.2,0.1,0.3,0.2c0.1,0.2,0.1,0.5-0.2,0.6l-1.9,1.1c-0.1,0-0.1,0.1-0.1,0.1
					c0,0.1,0,0.1,0,0.2l1.1,1.9c0.1,0.2,0.1,0.5-0.2,0.6C29.4,21.7,29.3,21.7,29.2,21.7z"/>
			</g>
		</g>
	</g>
</g>
<g>
	<g>
		<g>
			<rect x="4.2" y="9.5" transform="matrix(0.9662 -0.2578 0.2578 0.9662 -3.5725 3.6623)" class="st0" width="16" height="11.9"/>
		</g>
	</g>
	<g>
		<g>
			<path class="st1" d="M13.8,21.6c-0.5,0.1-1.1,0.1-1.4-0.1l0,0l3.3,11.4l2.6-0.7L15,20.8l0,0C14.8,21.2,14.4,21.5,13.8,21.6z"/>
		</g>
	</g>
	<g>
		<g>
			<path class="st2" d="M17.7,7.3L3.3,11.1c-0.6,0.2-1,0.8-0.8,1.4l2.8,10.5c0.2,0.6,0.8,1,1.4,0.8l5.4-1.5l3,10.3
				c0.2,0.6,0.8,1,1.4,0.8l1.3-0.3c0.6-0.2,1-0.8,0.8-1.4l-3-10.3l5.4-1.5c0.6-0.2,1-0.8,0.8-1.4L19.1,8.1
				C18.9,7.4,18.3,7.1,17.7,7.3z M17.7,31.9c0,0.1,0,0.2-0.2,0.3l-1.3,0.3c-0.1,0-0.2,0-0.3-0.2L13,22l1.7-0.5L17.7,31.9z M21,18.7
				c0,0.1,0,0.2-0.2,0.3L6.4,22.9c-0.1,0-0.2,0-0.3-0.2L3.4,12.2c0-0.1,0-0.2,0.2-0.3l14.4-3.8c0.1,0,0.1,0,0.2,0
				c0.1,0,0.1,0.1,0.1,0.1L21,18.7z"/>
		</g>
		<g>
			<g>
				<path class="st1" d="M12.3,18.7c-0.1,0-0.2,0-0.3,0l-2.5-1.4c-0.2-0.1-0.3-0.4-0.2-0.6c0.1-0.1,0.2-0.2,0.3-0.2
					c0.1,0,0.2,0,0.3,0l1.9,1.1c0.1,0,0.1,0,0.2,0c0.1,0,0.1-0.1,0.1-0.1l2.5-4.4c0.1-0.1,0.2-0.2,0.3-0.2l0,0c0.1,0,0.2,0,0.3,0
					c0.2,0.1,0.3,0.4,0.2,0.6l-2.9,5C12.6,18.6,12.5,18.7,12.3,18.7z"/>
			</g>
		</g>
	</g>
</g>
</svg>
