<?xml version="1.0" encoding="utf-8"?>
<!-- Generator: Adobe Illustrator 21.0.2, SVG Export Plug-In . SVG Version: 6.00 Build 0)  -->
<svg version="1.1" id="Livello_1" xmlns="http://www.w3.org/2000/svg" xmlns:xlink="http://www.w3.org/1999/xlink" x="0px" y="0px"
	 viewBox="0 0 40 40" style="enable-background:new 0 0 40 40;" xml:space="preserve">
<style type="text/css">
	.st0{fill:#73D7FF;}
	.st1{fill:#003575;}
</style>
<polygon class="st0" points="37.7,28.3 37.7,32.7 34.8,35.3 26.3,37.2 20,36.5 14.7,35.5 12.6,33.5 11.5,31.8 12.1,29.1 15.2,30.3 
	19.2,32 23.4,32.3 28.8,31.5 32.3,31.2 35.3,29.6 "/>
<title>ico_ricette</title>
<g id="Livello_2">
	<g id="icons">
		
			<rect x="17" y="25.9" transform="matrix(0.7876 -0.6162 0.6162 0.7876 -11.1945 20.8774)" class="st0" width="15.3" height="1.6"/>
		
			<rect x="16.2" y="10.4" transform="matrix(0.7071 -0.7071 0.7071 0.7071 -6.9012 16.9125)" class="st0" width="1.6" height="12.8"/>
		<path class="st1" d="M10.3,33.5c-4.7,0-8.3-3.8-8.3-8.3c0-2.2,0.9-4.4,2.5-6l14.9-15C22.6,1,28,1.1,31.2,4.3
			c3.1,3.2,3.1,8.4,0,11.7L25,22l-1-1l6.1-6c2.6-2.7,2.5-7-0.3-9.6c-2.6-2.6-6.9-2.5-9.5,0l-15,14.9c-2.7,2.7-2.6,7,0,9.7
			c1.7,1.6,3.9,2.3,6.2,1.8l0.4,1.6C11.3,33.5,10.8,33.5,10.3,33.5z"/>
		<path class="st1" d="M24.7,32.7c-7.8,0-13.6-2.6-13.6-6.1s5.8-6.1,13.6-6.1s13.6,2.6,13.6,6.1S32.4,32.7,24.7,32.7z M24.7,22.1
			c-7.1,0-12.2,2.3-12.2,4.5s4.9,4.5,12.2,4.5s12.2-2.3,12.2-4.5S31.8,22.1,24.7,22.1z"/>
		<path class="st1" d="M24.7,38C17.9,38,11,35.7,11,31.9v-5.3h1.6v5.3c0,2.2,5.2,4.5,12.2,4.5S37,34,37,31.9v-5.3h1.6v5.3
			C38.3,35.8,31.4,38,24.7,38z"/>
	</g>
</g>
</svg>
