<?xml version="1.0" encoding="utf-8"?>
<!-- Generator: Adobe Illustrator 21.0.2, SVG Export Plug-In . SVG Version: 6.00 Build 0)  -->
<svg version="1.1" id="Livello_1" xmlns="http://www.w3.org/2000/svg" xmlns:xlink="http://www.w3.org/1999/xlink" x="0px" y="0px"
	 viewBox="0 0 40 40" style="enable-background:new 0 0 40 40;" xml:space="preserve">
<style type="text/css">
	.st0{fill:#003575;}
	.st1{fill:#73D7FF;}
</style>
<title>esenzione per reddito</title>
<g id="Livello_2">
	<g id="icons">
		<path class="st0" d="M35.6,39.3H11c-1.4,0-2.5-1.2-2.5-2.5v-1.7h1.7v1.7c0,0.5,0.4,0.8,0.8,0.8h24.6c0.5,0,0.8-0.4,0.8-0.8V9.1
			l-6.3-6.3H11c-0.5,0-0.8,0.4-0.8,0.8v5.1H8.4V3.6c0-1.3,1.2-2.5,2.6-2.5h19.9l7.3,7.3v28.4C38.2,38.1,37.1,39.3,35.6,39.3
			L35.6,39.3z"/>
		<path class="st1" d="M23.7,24c-1.8,0-3.4-1.6-3.4-3.4s1.6-3.4,3.4-3.4s3.4,1.6,3.4,3.4S25.6,24,23.7,24z M23.7,18.9
			c-0.9,0-1.7,0.8-1.7,1.7s0.8,1.7,1.7,1.7c0.9,0,1.7-0.8,1.7-1.7S24.6,18.9,23.7,18.9z"/>
		<path class="st1" d="M31.4,30.8c-1.8,0-3.4-1.6-3.4-3.4s1.6-3.4,3.4-3.4c1.8,0,3.4,1.6,3.4,3.4S33.3,30.8,31.4,30.8z M31.4,25.7
			c-0.9,0-1.7,0.8-1.7,1.7s0.8,1.7,1.7,1.7c0.9,0,1.7-0.8,1.7-1.7S32.4,25.7,31.4,25.7z"/>
		
			<rect x="20.1" y="23.2" transform="matrix(0.6179 -0.7863 0.7863 0.6179 -8.3138 30.9119)" class="st1" width="15.1" height="1.7"/>
		<g id="_02">
			<path class="st1" d="M14.9,22.6c-1,2-3,3.3-5.2,3.3c-2.7-0.1-5.1-2-5.9-4.5h4.1v-1.3H3.6c-0.1-0.8-0.1-1.7,0-2.5h4.3v-1.3H4
				c0.8-2.6,3.1-4.5,5.9-4.5c2.2,0.1,4.2,1.3,5.2,3.3h1.4c-1.2-2.9-3.8-4.7-6.8-4.7c-3.4,0.1-6.4,2.5-7.2,5.8H0.9v1.3h1.2
				C2,18.3,2,19.2,2.1,20H0.9v1.3h1.4c0.9,3.4,3.9,5.9,7.3,6c3-0.1,5.6-2,6.8-4.7C16.4,22.6,14.9,22.6,14.9,22.6z"/>
			<path class="st1" d="M9.7,27.7c-3.5-0.1-6.5-2.5-7.6-5.9H0.6v-2.2h1.2c0-0.3,0-0.5,0-0.8s0-0.5,0-0.8H0.6v-2.1h1.6
				c1-3.5,4.1-5.9,7.6-6c3.1,0.1,6,2,7.2,4.8l0.3,0.7h-2.4l-0.1-0.3c-1-1.7-2.9-2.9-5-3c-2.4,0.1-4.3,1.4-5.2,3.7h3.8V18H4
				c0,0.3,0,0.5,0,0.8s0,0.5,0,0.8h4.3v2.2H4.5c0.8,2.1,2.9,3.5,5.2,3.7c2.1-0.1,4.1-1.3,5-3.3l0.1-0.3h2.4l-0.3,0.7
				C15.7,25.6,12.9,27.5,9.7,27.7z M1.3,21h1.4l0.1,0.3c0.8,3.1,3.5,5.4,6.8,5.5c2.6,0,5-1.4,6.2-3.8h-0.5c-1.2,2-3.3,3.3-5.5,3.3
				c-2.9-0.1-5.4-2.1-6.3-4.8L3.4,21h4.2v-0.5H3.2L3,19.9c-0.1-0.9-0.1-1.7,0-2.6v-0.4h4.2v-0.5H3.3l0.1-0.5
				c0.9-2.6,3.4-4.5,6.3-4.6c2.4,0,4.5,1.3,5.5,3.3h0.5c-1-2.2-3.4-3.8-6-3.8c-3.3,0.1-6,2.4-6.8,5.5l-0.1,0.3H1.3v0.5h1.3l-0.1,0.5
				c-0.1,0.8-0.1,1.6,0,2.4l0.1,0.5H1.3V21z"/>
		</g>
	</g>
</g>
</svg>
