<?xml version="1.0" encoding="utf-8"?>
<!-- Generator: Adobe Illustrator 21.0.2, SVG Export Plug-In . SVG Version: 6.00 Build 0)  -->
<svg version="1.1" id="Livello_1" xmlns="http://www.w3.org/2000/svg" xmlns:xlink="http://www.w3.org/1999/xlink" x="0px" y="0px"
	 viewBox="0 0 40 40" style="enable-background:new 0 0 40 40;" xml:space="preserve">
<style type="text/css">
	.st0{fill:#FFFFFF;}
	.st1{fill:#1E3A6D;}
	.st2{fill:#7ECEF5;}
</style>
<g>
	<g>
		<g>
			<rect x="3.8" y="10.7" class="st0" width="32.6" height="18.7"/>
		</g>
	</g>
	<g>
		<g>
			<g>
				<g>
					<path class="st1" d="M7.3,16.7c-0.2,0-0.4-0.2-0.4-0.4s0.2-0.4,0.4-0.4h7.5c0.2,0,0.4,0.2,0.4,0.4s-0.2,0.4-0.4,0.4H7.3z"/>
				</g>
			</g>
		</g>
		<g>
			<g>
				<g>
					<path class="st1" d="M7.3,14.2c-0.2,0-0.4-0.2-0.4-0.4s0.2-0.4,0.4-0.4h3.1c0.2,0,0.4,0.2,0.4,0.4s-0.2,0.4-0.4,0.4H7.3z"/>
				</g>
			</g>
		</g>
		<g>
			<g>
				<g>
					<path class="st1" d="M7.3,19.2c-0.2,0-0.4-0.2-0.4-0.4s0.2-0.4,0.4-0.4h7.5c0.2,0,0.4,0.2,0.4,0.4s-0.2,0.4-0.4,0.4H7.3z"/>
				</g>
			</g>
		</g>
		<g>
			<g>
				<g>
					<path class="st1" d="M7.3,22.6c-0.2,0-0.4-0.2-0.4-0.4c0-0.2,0.2-0.4,0.4-0.4h25.3c0.2,0,0.4,0.2,0.4,0.4
						c0,0.2-0.2,0.4-0.4,0.4H7.3z"/>
				</g>
			</g>
		</g>
		<g>
			<g>
				<g>
					<path class="st1" d="M4.2,29.8c-0.6,0-1-0.5-1-1V11.2c0-0.6,0.5-1,1-1h31.6c0.6,0,1,0.5,1,1v17.5c0,0.6-0.5,1-1,1H4.2z M4.2,11
						C4.1,11,4,11.1,4,11.2v17.5C4,28.9,4.1,29,4.2,29h31.6c0.1,0,0.2-0.1,0.2-0.2l0-17.5c0-0.1,0-0.1-0.1-0.1c0,0-0.1-0.1-0.1-0.1
						H4.2z"/>
				</g>
			</g>
		</g>
	</g>
</g>
<g>
	<g>
		<g>
			<path class="st1" d="M32.6,15.6c0,0.2-0.2,0.4-0.4,0.4c-0.2,0-0.4-0.2-0.4-0.4v-3.5c0-0.2,0.2-0.4,0.4-0.4c0.2,0,0.4,0.2,0.4,0.4
				V15.6z"/>
		</g>
	</g>
</g>
<g>
	<g>
		<g>
			<path class="st1" d="M33.9,15.6c0,0.2-0.2,0.4-0.4,0.4c-0.2,0-0.4-0.2-0.4-0.4v-3.5c0-0.2,0.2-0.4,0.4-0.4c0.2,0,0.4,0.2,0.4,0.4
				V15.6z"/>
		</g>
	</g>
</g>
<g>
	<g>
		<g>
			<path class="st1" d="M35.3,15.6c0,0.2-0.2,0.4-0.4,0.4c-0.2,0-0.4-0.2-0.4-0.4v-3.5c0-0.2,0.2-0.4,0.4-0.4c0.2,0,0.4,0.2,0.4,0.4
				V15.6z"/>
		</g>
	</g>
</g>
<g>
	<g>
		<g>
			<path class="st1" d="M31.2,15.6c0,0.2-0.2,0.4-0.4,0.4s-0.4-0.2-0.4-0.4v-3.5c0-0.2,0.2-0.4,0.4-0.4s0.4,0.2,0.4,0.4V15.6z"/>
		</g>
	</g>
</g>
<g>
	<g>
		<g>
			<path class="st1" d="M29.9,15.6c0,0.2-0.2,0.4-0.4,0.4s-0.4-0.2-0.4-0.4v-3.5c0-0.2,0.2-0.4,0.4-0.4s0.4,0.2,0.4,0.4V15.6z"/>
		</g>
	</g>
</g>
<path class="st2" d="M24.2,27.4H8.7c-0.9,0-1.7-0.8-1.7-1.7v0C7,24.7,7.8,24,8.7,24h15.5c0.9,0,1.7,0.8,1.7,1.7v0
	C26,26.6,25.2,27.4,24.2,27.4z"/>
</svg>
