<?xml version="1.0" encoding="utf-8"?>
<!-- Generator: Adobe Illustrator 21.0.2, SVG Export Plug-In . SVG Version: 6.00 Build 0)  -->
<svg version="1.1" id="Livello_1" xmlns="http://www.w3.org/2000/svg" xmlns:xlink="http://www.w3.org/1999/xlink" x="0px" y="0px"
	 viewBox="0 0 40 40" style="enable-background:new 0 0 40 40;" xml:space="preserve">
<style type="text/css">
	.st0{fill:#FFFFFF;}
	.st1{fill:#73D7FF;}
	.st2{fill:#003575;}
</style>
<title>Risorsa 1</title>
<g id="Livello_2">
	<g id="Layer_1">
		<rect x="7.4" y="2.4" class="st0" width="25.4" height="34.9"/>
		<circle class="st1" cx="15.1" cy="30.5" r="2.8"/>
		<path class="st2" d="M13.2,13.4c-0.5,0-0.8-0.4-0.8-0.8s0.4-0.8,0.8-0.8l0,0h13.5c0.5,0,0.8,0.4,0.8,0.8s-0.4,0.8-0.8,0.8H13.2z"
			/>
		<path class="st2" d="M16.9,8.5c-0.5,0-0.8-0.4-0.8-0.8s0.4-0.8,0.8-0.8h6.2c0.5,0,0.8,0.4,0.8,0.8s-0.4,0.8-0.8,0.8H16.9z"/>
		<path class="st2" d="M13.2,18.4c-0.5,0-0.8-0.4-0.8-0.8s0.4-0.8,0.8-0.8h13.5c0.5,0,0.8,0.4,0.8,0.8s-0.4,0.8-0.8,0.8l0,0H13.2z"
			/>
		<path class="st2" d="M13.2,23.3c-0.5,0-0.8-0.4-0.8-0.8s0.4-0.8,0.8-0.8h13.5c0.5,0,0.8,0.4,0.8,0.8s-0.4,0.8-0.8,0.8l0,0H13.2z"
			/>
		<path class="st2" d="M8.3,38.5c-1.1,0-2.1-0.9-2.1-2.1V3.6c0-1.1,0.9-2.1,2.1-2.1h23.4c1.1,0,2.1,0.9,2.1,2.1c0,0,0,0,0,0v32.8
			c0,1.1-0.9,2.1-2.1,2.1H8.3z M8.3,3.2C8,3.2,7.9,3.4,7.9,3.6l0,0v32.8c0,0.2,0.2,0.4,0.4,0.4h23.4c0.2,0,0.4-0.2,0.4-0.4V3.6
			c0-0.2-0.2-0.4-0.4-0.4L8.3,3.2z"/>
		<path class="st2" d="M15.1,34.4c-2.2,0-3.9-1.8-3.9-3.9s1.8-3.9,3.9-3.9s3.9,1.8,3.9,3.9C19,32.7,17.2,34.4,15.1,34.4z M15.1,28.2
			c-1.2,0-2.3,1-2.3,2.3c0,1.2,1,2.3,2.3,2.3s2.3-1,2.3-2.3l0,0C17.3,29.3,16.3,28.2,15.1,28.2C15.1,28.2,15.1,28.2,15.1,28.2
			L15.1,28.2z"/>
		<path class="st2" d="M24.3,31.9c-0.5,0-0.8-0.4-0.8-0.8c0-0.5,0.4-0.8,0.8-0.8h2.5c0.5,0,0.8,0.4,0.8,0.8c0,0.5-0.4,0.8-0.8,0.8
			l0,0H24.3z"/>
	</g>
</g>
</svg>
