<?xml version="1.0" encoding="utf-8"?>
<!-- Generator: Adobe Illustrator 21.0.2, SVG Export Plug-In . SVG Version: 6.00 Build 0)  -->
<svg version="1.1" id="Livello_1" xmlns="http://www.w3.org/2000/svg" xmlns:xlink="http://www.w3.org/1999/xlink" x="0px" y="0px"
	 viewBox="0 0 40 40" style="enable-background:new 0 0 40 40;" xml:space="preserve">
<style type="text/css">
	.st0{fill:#7ECEF5;}
	.st1{fill:#1E3A6D;}
</style>
<path class="st0" d="M25.2,11.7c-1,0-2.1,0.5-2.9,1.3c-0.7,0.7-1.1,1.6-1.2,2.5c-0.1,1,0.2,1.8,0.8,2.4c0.5,0.5,1.3,0.8,2,0.8
	c1,0,2.1-0.5,2.9-1.3c1.5-1.5,1.7-3.7,0.5-4.9C26.7,12,26,11.7,25.2,11.7z"/>
<path class="st1" d="M6.5,30.9c-0.2,0.5-0.3,1.1-0.4,1.6c0.1-0.2,0.2-0.5,0.4-0.7c0.1-0.2,0.3-0.5,0.4-0.7C6.9,31,7,30.9,7.1,30.8
	c0.1-0.1,0.2-0.2,0.2-0.3c0,0,0.1-0.1,0.1-0.1l0.1,0c0,0,0,0,0.1,0c0.1,0,0.2-0.1,0.3-0.1l0.7-0.1L8,29.6l-0.3-0.3l-0.1-0.1l-0.1,0
	c-0.1,0-0.3-0.1-0.4-0.1l0,0l0,0c-0.2,0-0.5,0.1-0.7,0.1c-0.2,0.1-0.5,0.1-0.7,0.2c-0.2,0.1-0.4,0.2-0.7,0.3
	c-0.2,0.1-0.4,0.3-0.6,0.4l-0.3,0.2C4,30.4,4,30.5,3.9,30.6c-0.1,0.2-0.3,0.4-0.4,0.6c-0.1,0.2-0.3,0.4-0.4,0.6
	c-0.1,0.2-0.2,0.4-0.3,0.6c-0.1,0.2-0.2,0.4-0.3,0.6c-0.1,0.2-0.2,0.4-0.2,0.6c-0.1,0.2-0.1,0.4-0.2,0.6c0,0.2-0.1,0.4-0.1,0.6
	c-0.2,0.9-0.3,1.7-0.4,2.6l-0.1,0.7L2.2,38c0.2-0.1,0.4-0.1,0.6-0.2c0.2-0.1,0.4-0.1,0.6-0.2c0.4-0.1,0.9-0.2,1.3-0.3
	c0.4-0.1,0.9-0.2,1.3-0.3c0.2-0.1,0.4-0.1,0.7-0.2c0.2-0.1,0.4-0.2,0.7-0.2c0.2-0.1,0.4-0.2,0.6-0.3c0.2-0.1,0.4-0.2,0.6-0.4L9,35.6
	c0.1-0.1,0.2-0.2,0.3-0.3c0.2-0.2,0.3-0.4,0.5-0.6c0.1-0.1,0.1-0.1,0.1-0.1c0,0,0.1-0.1,0.1-0.2c0.1-0.1,0.1-0.2,0.2-0.4
	c0.1-0.2,0.2-0.5,0.2-0.7c0.1-0.5,0.1-1-0.1-1.5l0-0.1l-0.1-0.1l-0.3-0.3l-0.5-0.5l-0.3,0.7c0,0.1-0.1,0.1-0.1,0.2L8.9,32
	c-0.1,0.1-0.1,0.1-0.1,0.2c-0.1,0.1-0.1,0.1-0.1,0.2c-0.1,0.1-0.2,0.2-0.4,0.3c-0.1,0.1-0.3,0.2-0.5,0.3c-0.2,0.1-0.3,0.2-0.5,0.2
	c-0.2,0.1-0.4,0.2-0.5,0.2c-0.4,0.1-0.8,0.3-1.1,0.4c0.8-0.1,1.6-0.1,2.4-0.3c0.2-0.1,0.4-0.1,0.6-0.2C8.8,33.3,9,33.1,9.2,33
	c0.1-0.1,0.2-0.1,0.3-0.2c0,0,0,0,0-0.1c0,0.2,0,0.4,0,0.6c0,0.2-0.1,0.4-0.2,0.5c0,0.1-0.1,0.2-0.1,0.2c0,0,0,0.1-0.1,0.1
	c0,0-0.1,0.1-0.1,0.1c-0.1,0.1-0.2,0.3-0.4,0.4c-0.1,0.1-0.1,0.1-0.2,0.2l-0.2,0.2c-0.2,0.1-0.3,0.2-0.5,0.3
	c-0.2,0.1-0.4,0.2-0.6,0.3c-0.2,0.1-0.4,0.2-0.6,0.2c-0.2,0.1-0.4,0.1-0.6,0.2c-0.4,0.1-0.9,0.2-1.3,0.3c-0.7,0.1-1.3,0.3-2,0.5
	c0.1-0.6,0.2-1.2,0.3-1.8c0-0.2,0.1-0.4,0.1-0.6c0-0.2,0.1-0.4,0.2-0.6c0.1-0.2,0.1-0.4,0.2-0.6c0.1-0.2,0.1-0.4,0.2-0.6
	c0.1-0.2,0.2-0.4,0.3-0.5C4,32,4.1,31.8,4.2,31.6c0.1-0.2,0.2-0.3,0.4-0.5C4.6,31.1,4.7,31,4.8,31L5,30.8c0.1-0.1,0.3-0.2,0.5-0.3
	c0.2-0.1,0.3-0.2,0.5-0.2c0.2,0,0.4-0.1,0.6-0.1c0.1,0,0.3,0,0.4,0c0,0-0.1,0.1-0.1,0.1C6.7,30.4,6.6,30.7,6.5,30.9z"/>
<path class="st1" d="M35.8,3.1L34,5c-2-0.7-3.9-1-5.7-1c-9.7,0-13.8,10-15.3,13.8c-0.1,0.3-0.2,0.6-0.4,0.9C11.9,18.2,11,18,10.2,18
	c-1.5,0-3,0.6-4.1,1.8c-1.5,1.6-2.3,4-2.2,6.7l0,0.9l4.9-2.1l2.3,3.3l3.3,2.3l-2.1,4.9l0.9,0c0.1,0,0.3,0,0.4,0c0,0,0,0,0,0
	c3.3,0,6-1.3,7.3-3.5c0.9-1.6,1-3.5,0.2-5.3c0.2-0.1,0.5-0.2,0.9-0.4c2.3-0.9,6.7-2.7,9.9-6c3.9-4,4.9-9,2.9-14.9l1.9-1.9
	c0.2-0.2,0.2-0.6,0-0.8C36.5,2.8,36.1,2.8,35.8,3.1z M21.6,25.6c-0.7,0.3-1.2,0.5-1.5,0.7l-0.5,0.3l0.3,0.5c0.9,1.6,0.9,3.3,0.1,4.7
	c-1,1.7-3.2,2.8-5.8,2.9l1.7-4.2L12,27.7l-2.8-3.9l-4.2,1.7c0.1-2,0.8-3.8,1.9-5c0.9-0.9,2-1.4,3.2-1.4c0.8,0,1.7,0.2,2.5,0.7
	l0.5,0.3l0.3-0.5c0.2-0.3,0.4-0.8,0.7-1.5c1.6-3.9,5.2-13,14.2-13c1.7,0,3.5,0.3,5.3,1C38.1,19,26.1,23.8,21.6,25.6z"/>
</svg>
